#define cross_width 16
#define cross_height 16
static unsigned char cross_bits[] = {
  0x08, 0x08, 0x08, 0x08, 0x08, 0x08, 0xFF, 0xFF, 0x08, 0x08, 0x08, 0x08,
  0x08, 0x08, 0x08, 0x08, 0x08, 0x08, 0x08, 0x08, 0x08, 0x08, 0xFF, 0xFF,
  0x08, 0x08, 0x08, 0x08, 0x08, 0x08, 0x08, 0x08, };
