<?xml version="1.0" encoding="UTF-8"?>
<!--Generator: Apple Native CoreSVG 123-->
<!DOCTYPE svg
PUBLIC "-//W3C//DTD SVG 1.1//EN"
       "http://www.w3.org/Graphics/SVG/1.1/DTD/svg11.dtd">
<svg version="1.1" xmlns="http://www.w3.org/2000/svg" xmlns:xlink="http://www.w3.org/1999/xlink" width="3300" height="2200">
 <!--glyph: "uni100361.medium", point size: 100.000000, font version: "Version 15.0d7e11", template writer version: "5"-->
 <g id="Notes">
  <rect height="2200" id="artboard" style="fill:white;opacity:1" width="3300" x="0" y="0"/>
  <line id="" style="fill:none;stroke:black;opacity:1;stroke-width:0.5;" x1="263" x2="3036" y1="292" y2="292"/>
  <text style="stroke:none;fill:black;font-family:-apple-system,&quot;SF Pro Display&quot;,&quot;SF Pro Text&quot;,Helvetica,sans-serif;font-weight:bold;" transform="matrix(1 0 0 1 263 322)">Weight/Scale Variations</text>
  <text style="stroke:none;fill:black;font-family:-apple-system,&quot;SF Pro Display&quot;,&quot;SF Pro Text&quot;,Helvetica,sans-serif;text-anchor:middle;" transform="matrix(1 0 0 1 559.711 322)">Ultralight</text>
  <text style="stroke:none;fill:black;font-family:-apple-system,&quot;SF Pro Display&quot;,&quot;SF Pro Text&quot;,Helvetica,sans-serif;text-anchor:middle;" transform="matrix(1 0 0 1 856.422 322)">Thin</text>
  <text style="stroke:none;fill:black;font-family:-apple-system,&quot;SF Pro Display&quot;,&quot;SF Pro Text&quot;,Helvetica,sans-serif;text-anchor:middle;" transform="matrix(1 0 0 1 1153.13 322)">Light</text>
  <text style="stroke:none;fill:black;font-family:-apple-system,&quot;SF Pro Display&quot;,&quot;SF Pro Text&quot;,Helvetica,sans-serif;text-anchor:middle;" transform="matrix(1 0 0 1 1449.84 322)">Regular</text>
  <text style="stroke:none;fill:black;font-family:-apple-system,&quot;SF Pro Display&quot;,&quot;SF Pro Text&quot;,Helvetica,sans-serif;text-anchor:middle;" transform="matrix(1 0 0 1 1746.56 322)">Medium</text>
  <text style="stroke:none;fill:black;font-family:-apple-system,&quot;SF Pro Display&quot;,&quot;SF Pro Text&quot;,Helvetica,sans-serif;text-anchor:middle;" transform="matrix(1 0 0 1 2043.27 322)">Semibold</text>
  <text style="stroke:none;fill:black;font-family:-apple-system,&quot;SF Pro Display&quot;,&quot;SF Pro Text&quot;,Helvetica,sans-serif;text-anchor:middle;" transform="matrix(1 0 0 1 2339.98 322)">Bold</text>
  <text style="stroke:none;fill:black;font-family:-apple-system,&quot;SF Pro Display&quot;,&quot;SF Pro Text&quot;,Helvetica,sans-serif;text-anchor:middle;" transform="matrix(1 0 0 1 2636.69 322)">Heavy</text>
  <text style="stroke:none;fill:black;font-family:-apple-system,&quot;SF Pro Display&quot;,&quot;SF Pro Text&quot;,Helvetica,sans-serif;text-anchor:middle;" transform="matrix(1 0 0 1 2933.4 322)">Black</text>
  <line id="" style="fill:none;stroke:black;opacity:1;stroke-width:0.5;" x1="263" x2="3036" y1="1903" y2="1903"/>
  <g id="" transform="matrix(1 0 0 1 263 1933)">
   <path d="M 9.24805 0.830078 C 13.5547 0.830078 17.1387 -2.74414 17.1387 -7.05078 C 17.1387 -11.3574 13.5449 -14.9316 9.23828 -14.9316 C 4.94141 -14.9316 1.36719 -11.3574 1.36719 -7.05078 C 1.36719 -2.74414 4.95117 0.830078 9.24805 0.830078 Z M 9.24805 -0.654297 C 5.70312 -0.654297 2.87109 -3.49609 2.87109 -7.05078 C 2.87109 -10.6055 5.69336 -13.4473 9.23828 -13.4473 C 12.793 -13.4473 15.6348 -10.6055 15.6445 -7.05078 C 15.6543 -3.49609 12.8027 -0.654297 9.24805 -0.654297 Z M 9.22852 -3.42773 C 9.69727 -3.42773 9.9707 -3.74023 9.9707 -4.25781 L 9.9707 -6.31836 L 12.1973 -6.31836 C 12.6953 -6.31836 13.0371 -6.57227 13.0371 -7.04102 C 13.0371 -7.51953 12.7148 -7.7832 12.1973 -7.7832 L 9.9707 -7.7832 L 9.9707 -10.0098 C 9.9707 -10.5273 9.69727 -10.8496 9.22852 -10.8496 C 8.75977 -10.8496 8.50586 -10.5078 8.50586 -10.0098 L 8.50586 -7.7832 L 6.29883 -7.7832 C 5.78125 -7.7832 5.44922 -7.51953 5.44922 -7.04102 C 5.44922 -6.57227 5.80078 -6.31836 6.29883 -6.31836 L 8.50586 -6.31836 L 8.50586 -4.25781 C 8.50586 -3.75977 8.75977 -3.42773 9.22852 -3.42773 Z"/>
  </g>
  <g id="" transform="matrix(1 0 0 1 281.506 1933)">
   <path d="M 11.709 2.91016 C 17.1582 2.91016 21.6699 -1.60156 21.6699 -7.05078 C 21.6699 -12.4902 17.1484 -17.0117 11.6992 -17.0117 C 6.25977 -17.0117 1.74805 -12.4902 1.74805 -7.05078 C 1.74805 -1.60156 6.26953 2.91016 11.709 2.91016 Z M 11.709 1.25 C 7.09961 1.25 3.41797 -2.44141 3.41797 -7.05078 C 3.41797 -11.6504 7.08984 -15.3516 11.6992 -15.3516 C 16.3086 -15.3516 20 -11.6504 20.0098 -7.05078 C 20.0195 -2.44141 16.3184 1.25 11.709 1.25 Z M 11.6895 -2.41211 C 12.207 -2.41211 12.5195 -2.77344 12.5195 -3.33984 L 12.5195 -6.23047 L 15.5762 -6.23047 C 16.123 -6.23047 16.5039 -6.51367 16.5039 -7.03125 C 16.5039 -7.55859 16.1426 -7.86133 15.5762 -7.86133 L 12.5195 -7.86133 L 12.5195 -10.9277 C 12.5195 -11.5039 12.207 -11.8555 11.6895 -11.8555 C 11.1719 -11.8555 10.8789 -11.4844 10.8789 -10.9277 L 10.8789 -7.86133 L 7.83203 -7.86133 C 7.26562 -7.86133 6.89453 -7.55859 6.89453 -7.03125 C 6.89453 -6.51367 7.28516 -6.23047 7.83203 -6.23047 L 10.8789 -6.23047 L 10.8789 -3.33984 C 10.8789 -2.79297 11.1719 -2.41211 11.6895 -2.41211 Z"/>
  </g>
  <g id="" transform="matrix(1 0 0 1 304.924 1933)">
   <path d="M 14.9707 5.67383 C 21.9336 5.67383 27.6953 -0.078125 27.6953 -7.04102 C 27.6953 -14.0039 21.9238 -19.7559 14.9609 -19.7559 C 8.00781 -19.7559 2.25586 -14.0039 2.25586 -7.04102 C 2.25586 -0.078125 8.01758 5.67383 14.9707 5.67383 Z M 14.9707 3.85742 C 8.93555 3.85742 4.08203 -1.00586 4.08203 -7.04102 C 4.08203 -13.0762 8.92578 -17.9395 14.9609 -17.9395 C 21.0059 -17.9395 25.8594 -13.0762 25.8691 -7.04102 C 25.8789 -1.00586 21.0156 3.85742 14.9707 3.85742 Z M 14.9512 -1.06445 C 15.5176 -1.06445 15.8691 -1.45508 15.8691 -2.06055 L 15.8691 -6.13281 L 20.1074 -6.13281 C 20.6934 -6.13281 21.1133 -6.46484 21.1133 -7.02148 C 21.1133 -7.59766 20.7227 -7.93945 20.1074 -7.93945 L 15.8691 -7.93945 L 15.8691 -12.1875 C 15.8691 -12.8027 15.5176 -13.1934 14.9512 -13.1934 C 14.3848 -13.1934 14.0625 -12.7832 14.0625 -12.1875 L 14.0625 -7.93945 L 9.83398 -7.93945 C 9.21875 -7.93945 8.80859 -7.59766 8.80859 -7.02148 C 8.80859 -6.46484 9.23828 -6.13281 9.83398 -6.13281 L 14.0625 -6.13281 L 14.0625 -2.06055 C 14.0625 -1.47461 14.3848 -1.06445 14.9512 -1.06445 Z"/>
  </g>
  <text style="stroke:none;fill:black;font-family:-apple-system,&quot;SF Pro Display&quot;,&quot;SF Pro Text&quot;,Helvetica,sans-serif;font-weight:bold;" transform="matrix(1 0 0 1 263 1953)">Design Variations</text>
  <text style="stroke:none;fill:black;font-family:-apple-system,&quot;SF Pro Display&quot;,&quot;SF Pro Text&quot;,Helvetica,sans-serif;" transform="matrix(1 0 0 1 263 1971)">Symbols are supported in up to nine weights and three scales.</text>
  <text style="stroke:none;fill:black;font-family:-apple-system,&quot;SF Pro Display&quot;,&quot;SF Pro Text&quot;,Helvetica,sans-serif;" transform="matrix(1 0 0 1 263 1989)">For optimal layout with text and other symbols, vertically align</text>
  <text style="stroke:none;fill:black;font-family:-apple-system,&quot;SF Pro Display&quot;,&quot;SF Pro Text&quot;,Helvetica,sans-serif;" transform="matrix(1 0 0 1 263 2007)">symbols with the adjacent text.</text>
  <rect height="14" id="" style="fill:#00AEEF;stroke:none;opacity:0.4;" width="3" x="776" y="1919"/>
  <g id="" transform="matrix(1 0 0 1 779 1933)">
   <path d="M 10.5273 0 L 12.373 0 L 7.17773 -14.0918 L 5.43945 -14.0918 L 0.244141 0 L 2.08984 0 L 3.50586 -4.0332 L 9.11133 -4.0332 Z M 6.2793 -11.9531 L 6.33789 -11.9531 L 8.59375 -5.52734 L 4.02344 -5.52734 Z"/>
  </g>
  <rect height="14" id="" style="fill:#00AEEF;stroke:none;opacity:0.4;" width="3" x="791.617" y="1919"/>
  <text style="stroke:none;fill:black;font-family:-apple-system,&quot;SF Pro Display&quot;,&quot;SF Pro Text&quot;,Helvetica,sans-serif;font-weight:bold;" transform="matrix(1 0 0 1 776 1953)">Margins</text>
  <text style="stroke:none;fill:black;font-family:-apple-system,&quot;SF Pro Display&quot;,&quot;SF Pro Text&quot;,Helvetica,sans-serif;" transform="matrix(1 0 0 1 776 1971)">Leading and trailing margins on the left and right side of each symbol</text>
  <text style="stroke:none;fill:black;font-family:-apple-system,&quot;SF Pro Display&quot;,&quot;SF Pro Text&quot;,Helvetica,sans-serif;" transform="matrix(1 0 0 1 776 1989)">can be adjusted by modifying the width of the blue rectangles.</text>
  <text style="stroke:none;fill:black;font-family:-apple-system,&quot;SF Pro Display&quot;,&quot;SF Pro Text&quot;,Helvetica,sans-serif;" transform="matrix(1 0 0 1 776 2007)">Modifications are automatically applied proportionally to all</text>
  <text style="stroke:none;fill:black;font-family:-apple-system,&quot;SF Pro Display&quot;,&quot;SF Pro Text&quot;,Helvetica,sans-serif;" transform="matrix(1 0 0 1 776 2025)">scales and weights.</text>
  <g id="" transform="matrix(1 0 0 1 1289 1933)">
   <path d="M 2.83203 3.11523 L 4.375 4.6582 C 5.22461 5.48828 6.19141 5.41992 7.06055 4.46289 L 17.2754 -6.66016 C 17.7051 -6.36719 18.0957 -6.37695 18.5645 -6.47461 L 19.6094 -6.68945 L 20.3027 -5.99609 L 20.2539 -5.47852 C 20.1855 -4.95117 20.3516 -4.53125 20.8496 -4.0332 L 21.6602 -3.22266 C 22.168 -2.71484 22.8223 -2.68555 23.3008 -3.16406 L 26.5527 -6.41602 C 27.0312 -6.89453 27.0117 -7.54883 26.5039 -8.05664 L 25.6836 -8.87695 C 25.1855 -9.375 24.7754 -9.55078 24.2383 -9.47266 L 23.7109 -9.41406 L 23.0566 -10.0781 L 23.3398 -11.2207 C 23.4863 -11.7871 23.3398 -12.2559 22.7148 -12.8613 L 20.3027 -15.2539 C 16.7578 -18.7793 12.2266 -18.6719 9.11133 -15.5371 C 8.69141 -15.1074 8.64258 -14.5215 8.91602 -14.0918 C 9.15039 -13.7207 9.62891 -13.4961 10.2734 -13.6621 C 11.7871 -14.043 13.3008 -13.9258 14.7852 -12.9199 L 14.1602 -11.3379 C 13.9258 -10.752 13.9453 -10.2734 14.1797 -9.83398 L 3.01758 0.439453 C 2.08008 1.30859 1.97266 2.25586 2.83203 3.11523 Z M 10.6738 -15.1465 C 13.3398 -17.1387 16.6504 -16.8262 19.0527 -14.4141 L 21.6797 -11.8066 C 21.9141 -11.5723 21.9434 -11.3867 21.8848 -11.0938 L 21.5039 -9.53125 L 23.0762 -7.95898 L 24.043 -8.04688 C 24.3262 -8.07617 24.4141 -8.05664 24.6387 -7.83203 L 25.2637 -7.20703 L 22.5098 -4.46289 L 21.8848 -5.07812 C 21.6602 -5.30273 21.6406 -5.40039 21.6699 -5.68359 L 21.7578 -6.64062 L 20.1953 -8.20312 L 18.5742 -7.89062 C 18.291 -7.83203 18.1445 -7.83203 17.9102 -8.07617 L 15.7324 -10.2539 C 15.5078 -10.4883 15.4785 -10.625 15.6055 -10.9473 L 16.5527 -13.2227 C 14.9512 -14.7559 12.8418 -15.6055 10.8008 -14.9512 C 10.7129 -14.9219 10.6445 -14.9414 10.6152 -14.9805 C 10.5859 -15.0293 10.5859 -15.0781 10.6738 -15.1465 Z M 4.10156 2.41211 C 3.61328 1.91406 3.78906 1.61133 4.12109 1.30859 L 15.0781 -8.80859 L 16.3086 -7.57812 L 6.15234 3.34961 C 5.84961 3.68164 5.46875 3.7793 5.06836 3.37891 Z"/>
  </g>
  <text style="stroke:none;fill:black;font-family:-apple-system,&quot;SF Pro Display&quot;,&quot;SF Pro Text&quot;,Helvetica,sans-serif;font-weight:bold;" transform="matrix(1 0 0 1 1289 1953)">Exporting</text>
  <text style="stroke:none;fill:black;font-family:-apple-system,&quot;SF Pro Display&quot;,&quot;SF Pro Text&quot;,Helvetica,sans-serif;" transform="matrix(1 0 0 1 1289 1971)">Symbols should be outlined when exporting to ensure the</text>
  <text style="stroke:none;fill:black;font-family:-apple-system,&quot;SF Pro Display&quot;,&quot;SF Pro Text&quot;,Helvetica,sans-serif;" transform="matrix(1 0 0 1 1289 1989)">design is preserved when submitting to Xcode.</text>
  <text id="template-version" style="stroke:none;fill:black;font-family:-apple-system,&quot;SF Pro Display&quot;,&quot;SF Pro Text&quot;,Helvetica,sans-serif;text-anchor:end;" transform="matrix(1 0 0 1 3036 1933)">Template v.1.0</text>
  <text style="stroke:none;fill:black;font-family:-apple-system,&quot;SF Pro Display&quot;,&quot;SF Pro Text&quot;,Helvetica,sans-serif;text-anchor:end;" transform="matrix(1 0 0 1 3036 1951)">Generated from ellipsis.circle</text>
  <text style="stroke:none;fill:black;font-family:-apple-system,&quot;SF Pro Display&quot;,&quot;SF Pro Text&quot;,Helvetica,sans-serif;text-anchor:end;" transform="matrix(1 0 0 1 3036 1969)">Typeset at 100 points</text>
  <text style="stroke:none;fill:black;font-family:-apple-system,&quot;SF Pro Display&quot;,&quot;SF Pro Text&quot;,Helvetica,sans-serif;" transform="matrix(1 0 0 1 263 726)">Small</text>
  <text style="stroke:none;fill:black;font-family:-apple-system,&quot;SF Pro Display&quot;,&quot;SF Pro Text&quot;,Helvetica,sans-serif;" transform="matrix(1 0 0 1 263 1156)">Medium</text>
  <text style="stroke:none;fill:black;font-family:-apple-system,&quot;SF Pro Display&quot;,&quot;SF Pro Text&quot;,Helvetica,sans-serif;" transform="matrix(1 0 0 1 263 1586)">Large</text>
 </g>
 <g id="Guides">
  <g id="H-reference" style="fill:#27AAE1;stroke:none;" transform="matrix(1 0 0 1 339 696)">
   <path d="M 54.9316 0 L 57.666 0 L 30.5664 -70.459 L 28.0762 -70.459 L 0.976562 0 L 3.66211 0 L 12.9395 -24.4629 L 45.7031 -24.4629 Z M 29.1992 -67.0898 L 29.4434 -67.0898 L 44.8242 -26.709 L 13.8184 -26.709 Z"/>
  </g>
  <line id="Baseline-S" style="fill:none;stroke:#27AAE1;opacity:1;stroke-width:0.577;" x1="263" x2="3036" y1="696" y2="696"/>
  <line id="Capline-S" style="fill:none;stroke:#27AAE1;opacity:1;stroke-width:0.577;" x1="263" x2="3036" y1="625.541" y2="625.541"/>
  <g id="H-reference" style="fill:#27AAE1;stroke:none;" transform="matrix(1 0 0 1 339 1126)">
   <path d="M 54.9316 0 L 57.666 0 L 30.5664 -70.459 L 28.0762 -70.459 L 0.976562 0 L 3.66211 0 L 12.9395 -24.4629 L 45.7031 -24.4629 Z M 29.1992 -67.0898 L 29.4434 -67.0898 L 44.8242 -26.709 L 13.8184 -26.709 Z"/>
  </g>
  <line id="Baseline-M" style="fill:none;stroke:#27AAE1;opacity:1;stroke-width:0.577;" x1="263" x2="3036" y1="1126" y2="1126"/>
  <line id="Capline-M" style="fill:none;stroke:#27AAE1;opacity:1;stroke-width:0.577;" x1="263" x2="3036" y1="1055.54" y2="1055.54"/>
  <g id="H-reference" style="fill:#27AAE1;stroke:none;" transform="matrix(1 0 0 1 339 1556)">
   <path d="M 54.9316 0 L 57.666 0 L 30.5664 -70.459 L 28.0762 -70.459 L 0.976562 0 L 3.66211 0 L 12.9395 -24.4629 L 45.7031 -24.4629 Z M 29.1992 -67.0898 L 29.4434 -67.0898 L 44.8242 -26.709 L 13.8184 -26.709 Z"/>
  </g>
  <line id="Baseline-L" style="fill:none;stroke:#27AAE1;opacity:1;stroke-width:0.577;" x1="263" x2="3036" y1="1556" y2="1556"/>
  <line id="Capline-L" style="fill:none;stroke:#27AAE1;opacity:1;stroke-width:0.577;" x1="263" x2="3036" y1="1485.54" y2="1485.54"/>
  <rect height="119.336" id="left-margin" style="fill:#00AEEF;stroke:none;opacity:0.4;" width="8.74023" x="1391.3" y="1030.79"/>
  <rect height="119.336" id="right-margin" style="fill:#00AEEF;stroke:none;opacity:0.4;" width="8.74023" x="1499.65" y="1030.79"/>
 </g>
 <g id="Symbols">
  <g id="Black-L" transform="matrix(1 0 0 1 2854.05 1556)">
   <path d="M 79.3457 32.8613 C 116.748 32.8613 147.412 2.19727 147.412 -35.2051 C 147.412 -72.6074 116.748 -103.271 79.2969 -103.271 C 41.8945 -103.271 11.2793 -72.6074 11.2793 -35.2051 C 11.2793 2.19727 41.9434 32.8613 79.3457 32.8613 Z M 79.3457 12.4023 C 52.9785 12.4023 31.7383 -8.83789 31.7383 -35.2051 C 31.7383 -61.5723 52.9297 -82.8125 79.2969 -82.8125 C 105.664 -82.8125 126.953 -61.5723 126.953 -35.2051 C 127.002 -8.83789 105.713 12.4023 79.3457 12.4023 Z M 60.9863 -35.2051 C 60.9863 -40.8691 56.1035 -45.7031 50.5371 -45.7031 C 44.6289 -45.7031 39.8926 -40.8691 39.8926 -35.2051 C 39.8926 -29.4434 44.6289 -24.6582 50.5371 -24.6582 C 56.1035 -24.6582 60.9863 -29.4434 60.9863 -35.2051 Z M 89.8438 -35.2051 C 89.8438 -40.8691 85.0586 -45.7031 79.2969 -45.7031 C 73.584 -45.7031 68.7988 -40.8691 68.7988 -35.2051 C 68.7988 -29.4434 73.584 -24.6582 79.2969 -24.6582 C 85.0586 -24.6582 89.8438 -29.4434 89.8438 -35.2051 Z M 118.75 -35.2051 C 118.75 -40.8691 114.014 -45.7031 108.105 -45.7031 C 102.539 -45.7031 97.6562 -40.8691 97.6562 -35.2051 C 97.6562 -29.4434 102.539 -24.6582 108.105 -24.6582 C 114.014 -24.6582 118.75 -29.4434 118.75 -35.2051 Z"/>
  </g>
  <g id="Heavy-L" transform="matrix(1 0 0 1 2558.39 1556)">
   <path d="M 78.2715 31.7871 C 115.088 31.7871 145.312 1.61133 145.312 -35.2051 C 145.312 -72.0215 115.039 -102.197 78.2715 -102.197 C 41.4551 -102.197 11.2793 -72.0215 11.2793 -35.2051 C 11.2793 1.61133 41.5039 31.7871 78.2715 31.7871 Z M 78.2715 14.0137 C 51.0254 14.0137 29.0527 -7.95898 29.0527 -35.2051 C 29.0527 -62.5 50.9766 -84.4727 78.2715 -84.4727 C 105.518 -84.4727 127.49 -62.5 127.539 -35.2051 C 127.539 -7.95898 105.566 14.0137 78.2715 14.0137 Z M 59.3262 -35.2051 C 59.3262 -40.5273 54.6875 -45.1172 49.4629 -45.1172 C 43.8965 -45.1172 39.4531 -40.5273 39.4531 -35.2051 C 39.4531 -29.7852 43.9453 -25.293 49.4629 -25.293 C 54.6875 -25.293 59.3262 -29.7852 59.3262 -35.2051 Z M 88.1836 -35.2051 C 88.1836 -40.5273 83.6426 -45.1172 78.2715 -45.1172 C 72.8516 -45.1172 68.3105 -40.5273 68.3105 -35.2051 C 68.3105 -29.7852 72.8516 -25.293 78.2715 -25.293 C 83.6426 -25.293 88.1836 -29.7852 88.1836 -35.2051 Z M 117.09 -35.2051 C 117.09 -40.5273 112.598 -45.1172 107.08 -45.1172 C 101.807 -45.1172 97.2168 -40.5273 97.2168 -35.2051 C 97.2168 -29.7852 101.807 -25.293 107.08 -25.293 C 112.598 -25.293 117.09 -29.7852 117.09 -35.2051 Z"/>
  </g>
  <g id="Bold-L" transform="matrix(1 0 0 1 2262.88 1556)">
   <path d="M 77.0996 30.6152 C 113.232 30.6152 142.92 0.878906 142.92 -35.2051 C 142.92 -71.3379 113.184 -101.025 77.0508 -101.025 C 40.9668 -101.025 11.2793 -71.3379 11.2793 -35.2051 C 11.2793 0.878906 41.0156 30.6152 77.0996 30.6152 Z M 77.0996 15.8691 C 48.8281 15.8691 26.0742 -6.93359 26.0742 -35.2051 C 26.0742 -63.4766 48.7793 -86.2793 77.0508 -86.2793 C 105.371 -86.2793 128.125 -63.4766 128.174 -35.2051 C 128.174 -6.93359 105.371 15.8691 77.0996 15.8691 Z M 57.4219 -35.2051 C 57.4219 -40.1855 53.1738 -44.4336 48.2422 -44.4336 C 43.1152 -44.4336 38.916 -40.2344 38.916 -35.2051 C 38.916 -30.1758 43.1641 -25.9766 48.2422 -25.9766 C 53.1738 -25.9766 57.4219 -30.1758 57.4219 -35.2051 Z M 86.3281 -35.2051 C 86.3281 -40.1855 82.0801 -44.4336 77.0508 -44.4336 C 72.0215 -44.4336 67.8223 -40.2344 67.8223 -35.2051 C 67.8223 -30.1758 72.0703 -25.9766 77.0508 -25.9766 C 82.0801 -25.9766 86.3281 -30.1758 86.3281 -35.2051 Z M 115.186 -35.2051 C 115.186 -40.1855 110.986 -44.4336 105.908 -44.4336 C 100.928 -44.4336 96.6797 -40.2344 96.6797 -35.2051 C 96.6797 -30.1758 101.025 -25.9766 105.908 -25.9766 C 110.986 -25.9766 115.186 -30.1758 115.186 -35.2051 Z"/>
  </g>
  <g id="Semibold-L" transform="matrix(1 0 0 1 1966.97 1556)">
   <path d="M 76.2695 29.7852 C 111.914 29.7852 141.309 0.439453 141.309 -35.2051 C 141.309 -70.8496 111.865 -100.244 76.2695 -100.244 C 40.625 -100.244 11.2793 -70.8496 11.2793 -35.2051 C 11.2793 0.439453 40.6738 29.7852 76.2695 29.7852 Z M 76.2695 17.0898 C 47.3145 17.0898 24.0234 -6.25 24.0234 -35.2051 C 24.0234 -64.209 47.2656 -87.5 76.2695 -87.5 C 105.225 -87.5 128.564 -64.209 128.613 -35.2051 C 128.662 -6.25 105.273 17.0898 76.2695 17.0898 Z M 56.1523 -35.2051 C 56.1523 -39.9414 52.0996 -43.9453 47.4121 -43.9453 C 42.5293 -43.9453 38.5742 -39.9902 38.5742 -35.2051 C 38.5742 -30.4688 42.627 -26.4648 47.4121 -26.4648 C 52.0996 -26.4648 56.1523 -30.4688 56.1523 -35.2051 Z M 85.0098 -35.2051 C 85.0098 -39.9414 81.0059 -43.9453 76.2695 -43.9453 C 71.4844 -43.9453 67.4805 -39.9902 67.4805 -35.2051 C 67.4805 -30.4688 71.5332 -26.4648 76.2695 -26.4648 C 81.0059 -26.4648 85.0098 -30.4688 85.0098 -35.2051 Z M 113.916 -35.2051 C 113.916 -39.9414 109.912 -43.9453 105.078 -43.9453 C 100.391 -43.9453 96.3379 -39.9902 96.3379 -35.2051 C 96.3379 -30.4688 100.439 -26.4648 105.078 -26.4648 C 109.912 -26.4648 113.916 -30.4688 113.916 -35.2051 Z"/>
  </g>
  <g id="Medium-L" transform="matrix(1 0 0 1 1670.87 1556)">
   <path d="M 75.6836 29.1992 C 110.938 29.1992 140.088 0.0488281 140.088 -35.2051 C 140.088 -70.459 110.889 -99.6094 75.6348 -99.6094 C 40.3809 -99.6094 11.2793 -70.459 11.2793 -35.2051 C 11.2793 0.0488281 40.3809 29.1992 75.6836 29.1992 Z M 75.6836 18.0664 C 46.1426 18.0664 22.4609 -5.71289 22.4609 -35.2051 C 22.4609 -64.6973 46.1426 -88.4766 75.6348 -88.4766 C 105.127 -88.4766 128.906 -64.6973 128.906 -35.2051 C 128.955 -5.71289 105.176 18.0664 75.6836 18.0664 Z M 55.1758 -35.2051 C 55.1758 -39.7949 51.2695 -43.5547 46.7773 -43.5547 C 42.1387 -43.5547 38.3301 -39.7949 38.3301 -35.2051 C 38.3301 -30.6641 42.2363 -26.8066 46.7773 -26.8066 C 51.2695 -26.8066 55.1758 -30.6641 55.1758 -35.2051 Z M 84.0332 -35.2051 C 84.0332 -39.7949 80.1758 -43.5547 75.6348 -43.5547 C 71.0449 -43.5547 67.2363 -39.7949 67.2363 -35.2051 C 67.2363 -30.6641 71.1426 -26.8066 75.6348 -26.8066 C 80.1758 -26.8066 84.0332 -30.6641 84.0332 -35.2051 Z M 112.939 -35.2051 C 112.939 -39.7949 109.082 -43.5547 104.492 -43.5547 C 99.9512 -43.5547 96.0938 -39.7949 96.0938 -35.2051 C 96.0938 -30.6641 100.049 -26.8066 104.492 -26.8066 C 109.082 -26.8066 112.939 -30.6641 112.939 -35.2051 Z"/>
  </g>
  <g id="Regular-L" transform="matrix(1 0 0 1 1374.97 1556)">
   <path d="M 74.8535 28.3691 C 109.668 28.3691 138.477 -0.390625 138.477 -35.2051 C 138.477 -70.0195 109.619 -98.7793 74.8047 -98.7793 C 40.0391 -98.7793 11.2793 -70.0195 11.2793 -35.2051 C 11.2793 -0.390625 40.0879 28.3691 74.8535 28.3691 Z M 74.8535 19.2871 C 44.6777 19.2871 20.4102 -5.0293 20.4102 -35.2051 C 20.4102 -65.3809 44.6289 -89.6973 74.8047 -89.6973 C 105.029 -89.6973 129.297 -65.3809 129.346 -35.2051 C 129.395 -5.0293 105.078 19.2871 74.8535 19.2871 Z M 53.9062 -35.2051 C 53.9062 -39.5508 50.2441 -43.1152 45.9473 -43.1152 C 41.5527 -43.1152 37.9883 -39.5508 37.9883 -35.2051 C 37.9883 -30.9082 41.6992 -27.2949 45.9473 -27.2949 C 50.2441 -27.2949 53.9062 -30.9082 53.9062 -35.2051 Z M 82.7637 -35.2051 C 82.7637 -39.5508 79.1016 -43.1152 74.8047 -43.1152 C 70.5078 -43.1152 66.8945 -39.5508 66.8945 -35.2051 C 66.8945 -30.9082 70.6055 -27.2949 74.8047 -27.2949 C 79.1016 -27.2949 82.7637 -30.9082 82.7637 -35.2051 Z M 111.621 -35.2051 C 111.621 -39.5508 108.008 -43.1152 103.711 -43.1152 C 99.3652 -43.1152 95.752 -39.5508 95.752 -35.2051 C 95.752 -30.9082 99.4629 -27.2949 103.711 -27.2949 C 108.008 -27.2949 111.621 -30.9082 111.621 -35.2051 Z"/>
  </g>
  <g id="Light-L" transform="matrix(1 0 0 1 1079.18 1556)">
   <path d="M 73.9258 27.4902 C 108.301 27.4902 136.621 -0.830078 136.621 -35.1562 C 136.621 -69.5312 108.252 -97.8516 73.9258 -97.8516 C 39.5508 -97.8516 11.2793 -69.5312 11.2793 -35.1562 C 11.2793 -0.830078 39.5996 27.4902 73.9258 27.4902 Z M 73.9258 20.6055 C 43.1152 20.6055 18.2129 -4.3457 18.2129 -35.1562 C 18.2129 -66.0156 43.0664 -90.918 73.9258 -90.918 C 104.736 -90.918 129.688 -66.0156 129.736 -35.1562 C 129.736 -4.3457 104.785 20.6055 73.9258 20.6055 Z M 52.6855 -35.2051 C 52.6855 -39.209 49.3652 -42.2852 45.5078 -42.2852 C 41.5527 -42.2852 38.3789 -39.2578 38.3789 -35.2051 C 38.3789 -31.3477 41.748 -28.0762 45.5078 -28.0762 C 49.3652 -28.0762 52.6855 -31.3477 52.6855 -35.2051 Z M 81.1035 -35.2051 C 81.1035 -39.209 77.7832 -42.2852 73.9258 -42.2852 C 69.9707 -42.2852 66.748 -39.2578 66.748 -35.2051 C 66.748 -31.3477 70.166 -28.0762 73.9258 -28.0762 C 77.7832 -28.0762 81.1035 -31.3477 81.1035 -35.2051 Z M 109.473 -35.2051 C 109.473 -39.209 106.201 -42.2852 102.295 -42.2852 C 98.3398 -42.2852 95.1172 -39.2578 95.1172 -35.2051 C 95.1172 -31.3477 98.5352 -28.0762 102.295 -28.0762 C 106.201 -28.0762 109.473 -31.3477 109.473 -35.2051 Z"/>
  </g>
  <g id="Thin-L" transform="matrix(1 0 0 1 783.693 1556)">
   <path d="M 72.7051 26.3184 C 106.494 26.3184 134.18 -1.36719 134.18 -35.1074 C 134.18 -68.8965 106.494 -96.582 72.7051 -96.582 C 38.9648 -96.582 11.2793 -68.8965 11.2793 -35.1074 C 11.2793 -1.36719 38.9648 26.3184 72.7051 26.3184 Z M 72.7051 22.3145 C 41.0156 22.3145 15.2832 -3.41797 15.2832 -35.1074 C 15.2832 -66.8457 41.0156 -92.5781 72.7051 -92.5781 C 104.395 -92.5781 130.176 -66.8457 130.176 -35.1074 C 130.176 -3.41797 104.443 22.3145 72.7051 22.3145 Z M 51.123 -35.2051 C 51.123 -38.7695 48.2422 -41.2598 44.9707 -41.2598 C 41.5039 -41.2598 38.8184 -38.8184 38.8184 -35.2051 C 38.8184 -31.8848 41.7969 -29.1016 44.9707 -29.1016 C 48.2422 -29.1016 51.123 -31.8848 51.123 -35.2051 Z M 78.8574 -35.2051 C 78.8574 -38.7695 76.0254 -41.2598 72.7051 -41.2598 C 69.2871 -41.2598 66.5527 -38.8184 66.5527 -35.2051 C 66.5527 -31.8848 69.5801 -29.1016 72.7051 -29.1016 C 76.0254 -29.1016 78.8574 -31.8848 78.8574 -35.2051 Z M 106.592 -35.2051 C 106.592 -38.7695 103.76 -41.2598 100.488 -41.2598 C 97.0215 -41.2598 94.3359 -38.8184 94.3359 -35.2051 C 94.3359 -31.8848 97.3145 -29.1016 100.488 -29.1016 C 103.76 -29.1016 106.592 -31.8848 106.592 -35.2051 Z"/>
  </g>
  <g id="Ultralight-L" transform="matrix(1 0 0 1 487.616 1556)">
   <path d="M 72.1191 25.7324 C 105.566 25.7324 132.91 -1.61133 132.91 -35.1074 C 132.91 -68.5547 105.566 -95.8984 72.1191 -95.8984 C 38.623 -95.8984 11.2793 -68.5547 11.2793 -35.1074 C 11.2793 -1.61133 38.623 25.7324 72.1191 25.7324 Z M 72.1191 23.2422 C 39.9414 23.2422 13.7695 -2.97852 13.7695 -35.1074 C 13.7695 -67.2363 39.9414 -93.4082 72.1191 -93.4082 C 104.248 -93.4082 130.42 -67.2363 130.42 -35.1074 C 130.42 -2.97852 104.248 23.2422 72.1191 23.2422 Z M 50.293 -35.2051 C 50.293 -38.5254 47.6562 -40.7227 44.6777 -40.7227 C 41.5039 -40.7227 39.0625 -38.623 39.0625 -35.2051 C 39.0625 -32.1777 41.8457 -29.6387 44.6777 -29.6387 C 47.6562 -29.6387 50.293 -32.1777 50.293 -35.2051 Z M 77.7344 -35.2051 C 77.7344 -38.5254 75.0977 -40.7227 72.1191 -40.7227 C 68.9453 -40.7227 66.5039 -38.623 66.5039 -35.2051 C 66.5039 -32.1777 69.2871 -29.6387 72.1191 -29.6387 C 75.0977 -29.6387 77.7344 -32.1777 77.7344 -35.2051 Z M 105.127 -35.2051 C 105.127 -38.5254 102.539 -40.7227 99.5117 -40.7227 C 96.3379 -40.7227 93.8965 -38.623 93.8965 -35.2051 C 93.8965 -32.1777 96.7285 -29.6387 99.5117 -29.6387 C 102.539 -29.6387 105.127 -32.1777 105.127 -35.2051 Z"/>
  </g>
  <g id="Black-M" transform="matrix(1 0 0 1 2870.97 1126)">
   <path d="M 62.4023 18.457 C 91.9922 18.457 116.113 -5.61523 116.113 -35.2051 C 116.113 -64.7949 91.9922 -88.8672 62.4023 -88.8672 C 32.8125 -88.8672 8.74023 -64.7949 8.74023 -35.2051 C 8.74023 -5.61523 32.8125 18.457 62.4023 18.457 Z M 62.4023 0.195312 C 42.8711 0.195312 27.002 -15.625 27.002 -35.2051 C 27.002 -54.7363 42.8711 -70.6055 62.4023 -70.6055 C 81.9824 -70.6055 97.8027 -54.7363 97.8027 -35.2051 C 97.8027 -15.625 81.9824 0.195312 62.4023 0.195312 Z M 48.877 -35.2051 C 48.877 -39.8438 44.873 -43.75 40.3809 -43.75 C 35.5469 -43.75 31.6895 -39.8438 31.6895 -35.2051 C 31.6895 -30.5176 35.5469 -26.6113 40.3809 -26.6113 C 44.873 -26.6113 48.877 -30.5176 48.877 -35.2051 Z M 70.9961 -35.2051 C 70.9961 -39.8438 67.0898 -43.75 62.4023 -43.75 C 57.7148 -43.75 53.8574 -39.8438 53.8574 -35.2051 C 53.8574 -30.5176 57.7148 -26.6113 62.4023 -26.6113 C 67.0898 -26.6113 70.9961 -30.5176 70.9961 -35.2051 Z M 93.1641 -35.2051 C 93.1641 -39.8438 89.2578 -43.75 84.4727 -43.75 C 79.9316 -43.75 75.9277 -39.8438 75.9277 -35.2051 C 75.9277 -30.5176 79.9316 -26.6113 84.4727 -26.6113 C 89.2578 -26.6113 93.1641 -30.5176 93.1641 -35.2051 Z"/>
  </g>
  <g id="Heavy-M" transform="matrix(1 0 0 1 2575.19 1126)">
   <path d="M 61.5234 17.5781 C 90.5273 17.5781 114.258 -6.15234 114.258 -35.2051 C 114.258 -64.2578 90.5273 -87.9883 61.4746 -87.9883 C 32.4707 -87.9883 8.74023 -64.2578 8.74023 -35.2051 C 8.74023 -6.15234 32.4707 17.5781 61.5234 17.5781 Z M 61.5234 1.66016 C 41.1133 1.66016 24.6582 -14.8438 24.6582 -35.2051 C 24.6582 -55.5664 41.1133 -72.0703 61.4746 -72.0703 C 81.8848 -72.0703 98.3398 -55.5664 98.3398 -35.2051 C 98.3398 -14.8438 81.8848 1.66016 61.5234 1.66016 Z M 47.3633 -35.2051 C 47.3633 -39.5996 43.6035 -43.3105 39.3066 -43.3105 C 34.7656 -43.3105 31.1035 -39.5996 31.1035 -35.2051 C 31.1035 -30.7617 34.7656 -27.0996 39.3066 -27.0996 C 43.6035 -27.0996 47.3633 -30.7617 47.3633 -35.2051 Z M 69.5801 -35.2051 C 69.5801 -39.5996 65.918 -43.3105 61.4746 -43.3105 C 57.0801 -43.3105 53.3691 -39.5996 53.3691 -35.2051 C 53.3691 -30.7617 57.0801 -27.0996 61.4746 -27.0996 C 65.918 -27.0996 69.5801 -30.7617 69.5801 -35.2051 Z M 91.8945 -35.2051 C 91.8945 -39.5996 88.1836 -43.3105 83.6914 -43.3105 C 79.3945 -43.3105 75.6348 -39.5996 75.6348 -35.2051 C 75.6348 -30.7617 79.3945 -27.0996 83.6914 -27.0996 C 88.1836 -27.0996 91.8945 -30.7617 91.8945 -35.2051 Z"/>
  </g>
  <g id="Bold-M" transform="matrix(1 0 0 1 2279.5 1126)">
   <path d="M 60.498 16.5039 C 88.8672 16.5039 112.207 -6.78711 112.207 -35.2051 C 112.207 -63.623 88.8672 -86.9629 60.4492 -86.9629 C 32.0312 -86.9629 8.74023 -63.623 8.74023 -35.2051 C 8.74023 -6.78711 32.0801 16.5039 60.498 16.5039 Z M 60.498 3.22266 C 39.1602 3.22266 22.0703 -13.916 22.0703 -35.2051 C 22.0703 -56.4941 39.1602 -73.6816 60.4492 -73.6816 C 81.7383 -73.6816 98.9258 -56.4941 98.9258 -35.2051 C 98.9746 -13.916 81.7871 3.22266 60.498 3.22266 Z M 45.6543 -35.2051 C 45.6543 -39.3066 42.1387 -42.7734 38.1348 -42.7734 C 33.8867 -42.7734 30.4688 -39.3066 30.4688 -35.2051 C 30.4688 -31.0547 33.9355 -27.6367 38.1348 -27.6367 C 42.1387 -27.6367 45.6543 -31.0547 45.6543 -35.2051 Z M 68.0664 -35.2051 C 68.0664 -39.3066 64.5996 -42.7734 60.4492 -42.7734 C 56.2988 -42.7734 52.8809 -39.3066 52.8809 -35.2051 C 52.8809 -31.0547 56.3477 -27.6367 60.4492 -27.6367 C 64.5996 -27.6367 68.0664 -31.0547 68.0664 -35.2051 Z M 90.4297 -35.2051 C 90.4297 -39.3066 87.0117 -42.7734 82.8125 -42.7734 C 78.7598 -42.7734 75.2441 -39.3066 75.2441 -35.2051 C 75.2441 -31.0547 78.8086 -27.6367 82.8125 -27.6367 C 87.0117 -27.6367 90.4297 -31.0547 90.4297 -35.2051 Z"/>
  </g>
  <g id="Semibold-M" transform="matrix(1 0 0 1 1983.5 1126)">
   <path d="M 59.7656 15.8203 C 87.7441 15.8203 110.791 -7.22656 110.791 -35.2051 C 110.791 -63.1836 87.6953 -86.2793 59.7656 -86.2793 C 31.7871 -86.2793 8.74023 -63.1836 8.74023 -35.2051 C 8.74023 -7.22656 31.7871 15.8203 59.7656 15.8203 Z M 59.7656 4.3457 C 37.8418 4.3457 20.2637 -13.2812 20.2637 -35.2051 C 20.2637 -57.1289 37.793 -74.8047 59.7656 -74.8047 C 81.6895 -74.8047 99.3164 -57.1289 99.3652 -35.2051 C 99.3652 -13.2812 81.6895 4.3457 59.7656 4.3457 Z M 44.4824 -35.2051 C 44.4824 -39.1113 41.1621 -42.4316 37.3047 -42.4316 C 33.3008 -42.4316 30.0293 -39.1113 30.0293 -35.2051 C 30.0293 -31.2988 33.3008 -27.9785 37.3047 -27.9785 C 41.1621 -27.9785 44.4824 -31.2988 44.4824 -35.2051 Z M 66.9922 -35.2051 C 66.9922 -39.1113 63.6719 -42.4316 59.7656 -42.4316 C 55.8105 -42.4316 52.5391 -39.1113 52.5391 -35.2051 C 52.5391 -31.2988 55.8594 -27.9785 59.7656 -27.9785 C 63.6719 -27.9785 66.9922 -31.2988 66.9922 -35.2051 Z M 89.4531 -35.2051 C 89.4531 -39.1113 86.1816 -42.4316 82.1777 -42.4316 C 78.3203 -42.4316 75 -39.1113 75 -35.2051 C 75 -31.2988 78.3691 -27.9785 82.1777 -27.9785 C 86.1816 -27.9785 89.4531 -31.2988 89.4531 -35.2051 Z"/>
  </g>
  <g id="Medium-M" transform="matrix(1 0 0 1 1687.3 1126)">
   <path d="M 59.2285 15.2832 C 86.9141 15.2832 109.766 -7.56836 109.766 -35.2051 C 109.766 -62.8906 86.8652 -85.7422 59.1797 -85.7422 C 31.543 -85.7422 8.74023 -62.8906 8.74023 -35.2051 C 8.74023 -7.56836 31.5918 15.2832 59.2285 15.2832 Z M 59.2285 5.17578 C 36.8164 5.17578 18.8965 -12.8418 18.8965 -35.2051 C 18.8965 -57.6172 36.8164 -75.6348 59.1797 -75.6348 C 81.5918 -75.6348 99.6094 -57.6172 99.6582 -35.2051 C 99.707 -12.8418 81.6406 5.17578 59.2285 5.17578 Z M 43.6035 -35.2051 C 43.6035 -38.9648 40.3809 -42.1387 36.6699 -42.1387 C 32.8125 -42.1387 29.6875 -38.9648 29.6875 -35.2051 C 29.6875 -31.4453 32.8613 -28.2715 36.6699 -28.2715 C 40.3809 -28.2715 43.6035 -31.4453 43.6035 -35.2051 Z M 66.1621 -35.2051 C 66.1621 -38.9648 62.9395 -42.1387 59.1797 -42.1387 C 55.4199 -42.1387 52.2461 -38.9648 52.2461 -35.2051 C 52.2461 -31.4453 55.4688 -28.2715 59.1797 -28.2715 C 62.9395 -28.2715 66.1621 -31.4453 66.1621 -35.2051 Z M 88.7207 -35.2051 C 88.7207 -38.9648 85.5469 -42.1387 81.7383 -42.1387 C 77.9785 -42.1387 74.8047 -38.9648 74.8047 -35.2051 C 74.8047 -31.4453 78.0273 -28.2715 81.7383 -28.2715 C 85.5469 -28.2715 88.7207 -31.4453 88.7207 -35.2051 Z"/>
  </g>
  <g id="Regular-M" transform="matrix(1 0 0 1 1391.3 1126)">
   <path d="M 58.5449 14.5508 C 85.791 14.5508 108.35 -8.00781 108.35 -35.2539 C 108.35 -62.4512 85.7422 -85.0586 58.4961 -85.0586 C 31.2988 -85.0586 8.74023 -62.4512 8.74023 -35.2539 C 8.74023 -8.00781 31.3477 14.5508 58.5449 14.5508 Z M 58.5449 6.25 C 35.498 6.25 17.0898 -12.207 17.0898 -35.2539 C 17.0898 -58.252 35.4492 -76.7578 58.4961 -76.7578 C 81.543 -76.7578 100 -58.252 100.049 -35.2539 C 100.098 -12.207 81.5918 6.25 58.5449 6.25 Z M 42.4316 -35.2051 C 42.4316 -38.7695 39.4043 -41.7969 35.8398 -41.7969 C 32.2266 -41.7969 29.248 -38.7695 29.248 -35.2051 C 29.248 -31.6406 32.2754 -28.6133 35.8398 -28.6133 C 39.4043 -28.6133 42.4316 -31.6406 42.4316 -35.2051 Z M 65.0879 -35.2051 C 65.0879 -38.7695 62.0605 -41.7969 58.4961 -41.7969 C 54.9316 -41.7969 51.9043 -38.7695 51.9043 -35.2051 C 51.9043 -31.6406 54.9805 -28.6133 58.4961 -28.6133 C 62.0605 -28.6133 65.0879 -31.6406 65.0879 -35.2051 Z M 87.7441 -35.2051 C 87.7441 -38.7695 84.7656 -41.7969 81.1523 -41.7969 C 77.5879 -41.7969 74.5605 -38.7695 74.5605 -35.2051 C 74.5605 -31.6406 77.6367 -28.6133 81.1523 -28.6133 C 84.7656 -28.6133 87.7441 -31.6406 87.7441 -35.2051 Z"/>
  </g>
  <g id="Light-M" transform="matrix(1 0 0 1 1095.42 1126)">
   <path d="M 57.7148 13.7695 C 84.5215 13.7695 106.689 -8.39844 106.689 -35.2051 C 106.689 -62.0117 84.5215 -84.1797 57.666 -84.1797 C 30.8594 -84.1797 8.74023 -62.0117 8.74023 -35.2051 C 8.74023 -8.39844 30.9082 13.7695 57.7148 13.7695 Z M 57.7148 7.4707 C 34.082 7.4707 15.0879 -11.5723 15.0879 -35.2051 C 15.0879 -58.8379 34.082 -77.832 57.666 -77.832 C 81.2988 -77.832 100.342 -58.8379 100.391 -35.2051 C 100.391 -11.5723 81.3477 7.4707 57.7148 7.4707 Z M 41.3574 -35.2051 C 41.3574 -38.4766 38.623 -41.0645 35.4492 -41.0645 C 32.2266 -41.0645 29.5898 -38.4766 29.5898 -35.2051 C 29.5898 -32.0312 32.3242 -29.3457 35.4492 -29.3457 C 38.623 -29.3457 41.3574 -32.0312 41.3574 -35.2051 Z M 63.5742 -35.2051 C 63.5742 -38.4766 60.8398 -41.0645 57.666 -41.0645 C 54.4434 -41.0645 51.8066 -38.4766 51.8066 -35.2051 C 51.8066 -32.0312 54.5898 -29.3457 57.666 -29.3457 C 60.8398 -29.3457 63.5742 -32.0312 63.5742 -35.2051 Z M 85.791 -35.2051 C 85.791 -38.4766 83.1055 -41.0645 79.8828 -41.0645 C 76.6602 -41.0645 73.9746 -38.4766 73.9746 -35.2051 C 73.9746 -32.0312 76.8066 -29.3457 79.8828 -29.3457 C 83.1055 -29.3457 85.791 -32.0312 85.791 -35.2051 Z"/>
  </g>
  <g id="Thin-M" transform="matrix(1 0 0 1 799.806 1126)">
   <path d="M 56.6406 12.7441 C 82.9102 12.7441 104.492 -8.83789 104.492 -35.1562 C 104.492 -61.4746 82.9102 -83.0566 56.5918 -83.0566 C 30.3223 -83.0566 8.74023 -61.4746 8.74023 -35.1562 C 8.74023 -8.83789 30.3223 12.7441 56.6406 12.7441 Z M 56.6406 8.98438 C 32.2266 8.98438 12.4512 -10.791 12.4512 -35.1562 C 12.4512 -59.5215 32.2266 -79.2969 56.5918 -79.2969 C 81.0059 -79.2969 100.781 -59.5215 100.781 -35.1562 C 100.781 -10.791 81.0059 8.98438 56.6406 8.98438 Z M 39.9414 -35.2051 C 39.9414 -38.0859 37.6465 -40.1367 34.9609 -40.1367 C 32.1777 -40.1367 29.9805 -38.1348 29.9805 -35.2051 C 29.9805 -32.5195 32.373 -30.2734 34.9609 -30.2734 C 37.6465 -30.2734 39.9414 -32.5195 39.9414 -35.2051 Z M 61.5723 -35.2051 C 61.5723 -38.0859 59.2773 -40.1367 56.5918 -40.1367 C 53.8574 -40.1367 51.6113 -38.1348 51.6113 -35.2051 C 51.6113 -32.5195 54.0527 -30.2734 56.5918 -30.2734 C 59.2773 -30.2734 61.5723 -32.5195 61.5723 -35.2051 Z M 83.252 -35.2051 C 83.252 -38.0859 80.957 -40.1367 78.2715 -40.1367 C 75.4883 -40.1367 73.291 -38.1348 73.291 -35.2051 C 73.291 -32.5195 75.6836 -30.2734 78.2715 -30.2734 C 80.957 -30.2734 83.252 -32.5195 83.252 -35.2051 Z"/>
  </g>
  <g id="Ultralight-M" transform="matrix(1 0 0 1 503.656 1126)">
   <path d="M 56.0547 12.207 C 82.0801 12.207 103.369 -9.08203 103.369 -35.1562 C 103.369 -61.1816 82.0801 -82.4707 56.0547 -82.4707 C 30.0293 -82.4707 8.74023 -61.1816 8.74023 -35.1562 C 8.74023 -9.08203 30.0293 12.207 56.0547 12.207 Z M 56.0547 9.81445 C 31.2988 9.81445 11.1328 -10.3516 11.1328 -35.1562 C 11.1328 -59.9121 31.2988 -80.0781 56.0547 -80.0781 C 80.8594 -80.0781 100.977 -59.9121 100.977 -35.1562 C 100.977 -10.3516 80.8594 9.81445 56.0547 9.81445 Z M 39.209 -35.2051 C 39.209 -37.8418 37.1094 -39.6484 34.7168 -39.6484 C 32.1777 -39.6484 30.1758 -37.9395 30.1758 -35.2051 C 30.1758 -32.8125 32.4219 -30.7617 34.7168 -30.7617 C 37.1094 -30.7617 39.209 -32.8125 39.209 -35.2051 Z M 60.5957 -35.2051 C 60.5957 -37.8418 58.4473 -39.6484 56.0547 -39.6484 C 53.5156 -39.6484 51.5625 -37.9395 51.5625 -35.2051 C 51.5625 -32.8125 53.7598 -30.7617 56.0547 -30.7617 C 58.4473 -30.7617 60.5957 -32.8125 60.5957 -35.2051 Z M 81.9336 -35.2051 C 81.9336 -37.8418 79.834 -39.6484 77.3926 -39.6484 C 74.9023 -39.6484 72.9004 -37.9395 72.9004 -35.2051 C 72.9004 -32.8125 75.1465 -30.7617 77.3926 -30.7617 C 79.834 -30.7617 81.9336 -32.8125 81.9336 -35.2051 Z"/>
  </g>
  <g id="Black-S" transform="matrix(1 0 0 1 2884.57 696)">
   <path d="M 48.8281 6.78711 C 71.9727 6.78711 90.8203 -12.0605 90.8203 -35.2051 C 90.8203 -58.3496 71.9727 -77.1973 48.8281 -77.1973 C 25.6836 -77.1973 6.83594 -58.3496 6.83594 -35.2051 C 6.83594 -12.0605 25.6836 6.78711 48.8281 6.78711 Z M 48.8281 -7.37305 C 33.4473 -7.37305 20.9961 -19.8242 20.9961 -35.2051 C 20.9961 -50.5859 33.4473 -63.0371 48.8281 -63.0371 C 64.209 -63.0371 76.6602 -50.5859 76.6602 -35.2051 C 76.6602 -19.8242 64.209 -7.37305 48.8281 -7.37305 Z M 38.1836 -35.2051 C 38.1836 -38.8184 35.0586 -41.8945 31.543 -41.8945 C 27.7832 -41.8945 24.7559 -38.8184 24.7559 -35.2051 C 24.7559 -31.543 27.7832 -28.5156 31.543 -28.5156 C 35.0586 -28.5156 38.1836 -31.543 38.1836 -35.2051 Z M 55.5176 -35.2051 C 55.5176 -38.8184 52.4902 -41.8945 48.8281 -41.8945 C 45.166 -41.8945 42.1387 -38.8184 42.1387 -35.2051 C 42.1387 -31.543 45.166 -28.5156 48.8281 -28.5156 C 52.4902 -28.5156 55.5176 -31.543 55.5176 -35.2051 Z M 72.9004 -35.2051 C 72.9004 -38.8184 69.873 -41.8945 66.1133 -41.8945 C 62.5977 -41.8945 59.4727 -38.8184 59.4727 -35.2051 C 59.4727 -31.543 62.5977 -28.5156 66.1133 -28.5156 C 69.873 -28.5156 72.9004 -31.543 72.9004 -35.2051 Z"/>
  </g>
  <g id="Heavy-S" transform="matrix(1 0 0 1 2588.47 696)">
   <path d="M 48.2422 6.15234 C 70.9961 6.15234 89.5996 -12.4512 89.5996 -35.2051 C 89.5996 -57.959 70.9961 -76.6113 48.1934 -76.6113 C 25.4395 -76.6113 6.83594 -57.959 6.83594 -35.2051 C 6.83594 -12.4512 25.4395 6.15234 48.2422 6.15234 Z M 48.2422 -6.39648 C 32.2754 -6.39648 19.4336 -19.2871 19.4336 -35.2051 C 19.4336 -51.1719 32.2754 -64.0137 48.1934 -64.0137 C 64.1602 -64.0137 77.002 -51.1719 77.0508 -35.2051 C 77.0508 -19.2871 64.1602 -6.39648 48.2422 -6.39648 Z M 37.1582 -35.2051 C 37.1582 -38.6719 34.1309 -41.6016 30.7617 -41.6016 C 27.1973 -41.6016 24.2676 -38.6719 24.2676 -35.2051 C 24.2676 -31.6895 27.1973 -28.8086 30.7617 -28.8086 C 34.1309 -28.8086 37.1582 -31.6895 37.1582 -35.2051 Z M 54.6387 -35.2051 C 54.6387 -38.6719 51.709 -41.6016 48.1934 -41.6016 C 44.7266 -41.6016 41.7969 -38.6719 41.7969 -35.2051 C 41.7969 -31.6895 44.7266 -28.8086 48.1934 -28.8086 C 51.709 -28.8086 54.6387 -31.6895 54.6387 -35.2051 Z M 72.1191 -35.2051 C 72.1191 -38.6719 69.2383 -41.6016 65.6738 -41.6016 C 62.2559 -41.6016 59.2773 -38.6719 59.2773 -35.2051 C 59.2773 -31.6895 62.2559 -28.8086 65.6738 -28.8086 C 69.2383 -28.8086 72.1191 -31.6895 72.1191 -35.2051 Z"/>
  </g>
  <g id="Bold-S" transform="matrix(1 0 0 1 2292.44 696)">
   <path d="M 47.5586 5.46875 C 69.873 5.46875 88.2324 -12.8906 88.2324 -35.2051 C 88.2324 -57.5684 69.873 -75.9277 47.5098 -75.9277 C 25.1953 -75.9277 6.83594 -57.5684 6.83594 -35.2051 C 6.83594 -12.8906 25.1953 5.46875 47.5586 5.46875 Z M 47.5586 -5.32227 C 30.957 -5.32227 17.6758 -18.6523 17.6758 -35.2051 C 17.6758 -51.8066 30.957 -65.1367 47.5098 -65.1367 C 64.1113 -65.1367 77.4414 -51.8066 77.4414 -35.2051 C 77.4414 -18.6523 64.1113 -5.32227 47.5586 -5.32227 Z M 35.9863 -35.2051 C 35.9863 -38.4766 33.1543 -41.3086 29.8828 -41.3086 C 26.5137 -41.3086 23.7793 -38.4766 23.7793 -35.2051 C 23.7793 -31.8848 26.5137 -29.1016 29.8828 -29.1016 C 33.1543 -29.1016 35.9863 -31.8848 35.9863 -35.2051 Z M 53.6133 -35.2051 C 53.6133 -38.4766 50.8301 -41.3086 47.5098 -41.3086 C 44.1895 -41.3086 41.4062 -38.4766 41.4062 -35.2051 C 41.4062 -31.8848 44.1895 -29.1016 47.5098 -29.1016 C 50.8301 -29.1016 53.6133 -31.8848 53.6133 -35.2051 Z M 71.2891 -35.2051 C 71.2891 -38.4766 68.5059 -41.3086 65.1367 -41.3086 C 61.9141 -41.3086 59.082 -38.4766 59.082 -35.2051 C 59.082 -31.8848 61.9141 -29.1016 65.1367 -29.1016 C 68.5059 -29.1016 71.2891 -31.8848 71.2891 -35.2051 Z"/>
  </g>
  <g id="Semibold-S" transform="matrix(1 0 0 1 1996.2 696)">
   <path d="M 47.0703 4.98047 C 69.0918 4.98047 87.3047 -13.1836 87.3047 -35.2539 C 87.3047 -57.2754 69.0918 -75.4883 47.0215 -75.4883 C 25 -75.4883 6.83594 -57.2754 6.83594 -35.2539 C 6.83594 -13.1836 25.0488 4.98047 47.0703 4.98047 Z M 47.0703 -4.58984 C 30.0781 -4.58984 16.4551 -18.2129 16.4551 -35.2539 C 16.4551 -52.2461 30.0293 -65.8691 47.0215 -65.8691 C 64.0625 -65.8691 77.6855 -52.2461 77.7344 -35.2539 C 77.7344 -18.2129 64.0625 -4.58984 47.0703 -4.58984 Z M 35.1562 -35.2051 C 35.1562 -38.3301 32.4707 -41.0645 29.2969 -41.0645 C 26.0742 -41.0645 23.3887 -38.3789 23.3887 -35.2051 C 23.3887 -32.0312 26.0742 -29.3457 29.2969 -29.3457 C 32.4707 -29.3457 35.1562 -32.0312 35.1562 -35.2051 Z M 52.9297 -35.2051 C 52.9297 -38.3301 50.2441 -41.0645 47.0215 -41.0645 C 43.8477 -41.0645 41.1621 -38.3789 41.1621 -35.2051 C 41.1621 -32.0312 43.8477 -29.3457 47.0215 -29.3457 C 50.2441 -29.3457 52.9297 -32.0312 52.9297 -35.2051 Z M 70.7031 -35.2051 C 70.7031 -38.3301 68.0176 -41.0645 64.7949 -41.0645 C 61.6211 -41.0645 58.9355 -38.3789 58.9355 -35.2051 C 58.9355 -32.0312 61.6211 -29.3457 64.7949 -29.3457 C 68.0176 -29.3457 70.7031 -32.0312 70.7031 -35.2051 Z"/>
  </g>
  <g id="Medium-S" transform="matrix(1 0 0 1 1699.83 696)">
   <path d="M 46.7285 4.63867 C 68.5547 4.63867 86.6211 -13.4277 86.6211 -35.2539 C 86.6211 -57.0312 68.5059 -75.1465 46.6797 -75.1465 C 24.8535 -75.1465 6.83594 -57.0312 6.83594 -35.2539 C 6.83594 -13.4277 24.9023 4.63867 46.7285 4.63867 Z M 46.7285 -4.00391 C 29.3945 -4.00391 15.5273 -17.9199 15.5273 -35.2539 C 15.5273 -52.5879 29.3457 -66.4551 46.6797 -66.4551 C 64.0137 -66.4551 77.8809 -52.5879 77.9297 -35.2539 C 77.9785 -17.9199 64.0625 -4.00391 46.7285 -4.00391 Z M 34.5703 -35.2051 C 34.5703 -38.2812 31.9336 -40.918 28.8574 -40.918 C 25.6836 -40.918 23.0957 -38.2812 23.0957 -35.2051 C 23.0957 -32.1289 25.6836 -29.4922 28.8574 -29.4922 C 31.9336 -29.4922 34.5703 -32.1289 34.5703 -35.2051 Z M 52.3926 -35.2051 C 52.3926 -38.2812 49.7559 -40.918 46.6797 -40.918 C 43.6035 -40.918 40.9668 -38.2812 40.9668 -35.2051 C 40.9668 -32.1289 43.6035 -29.4922 46.6797 -29.4922 C 49.7559 -29.4922 52.3926 -32.1289 52.3926 -35.2051 Z M 70.2637 -35.2051 C 70.2637 -38.2812 67.6758 -40.918 64.502 -40.918 C 61.4258 -40.918 58.7891 -38.2812 58.7891 -35.2051 C 58.7891 -32.1289 61.4746 -29.4922 64.502 -29.4922 C 67.6758 -29.4922 70.2637 -32.1289 70.2637 -35.2051 Z"/>
  </g>
  <g id="Regular-S" transform="matrix(1 0 0 1 1403.58 696)">
   <path d="M 46.2402 4.15039 C 67.7734 4.15039 85.6934 -13.7207 85.6934 -35.2539 C 85.6934 -56.7871 67.7246 -74.6582 46.1914 -74.6582 C 24.707 -74.6582 6.83594 -56.7871 6.83594 -35.2539 C 6.83594 -13.7207 24.7559 4.15039 46.2402 4.15039 Z M 46.2402 -3.27148 C 28.5156 -3.27148 14.3555 -17.4805 14.3555 -35.2539 C 14.3555 -53.0273 28.4668 -67.2363 46.1914 -67.2363 C 63.9648 -67.2363 78.1738 -53.0273 78.2227 -35.2539 C 78.2715 -17.4805 64.0137 -3.27148 46.2402 -3.27148 Z M 33.7891 -35.2051 C 33.7891 -38.1348 31.25 -40.7227 28.2715 -40.7227 C 25.2441 -40.7227 22.7539 -38.1348 22.7539 -35.2051 C 22.7539 -32.2266 25.2441 -29.6875 28.2715 -29.6875 C 31.25 -29.6875 33.7891 -32.2266 33.7891 -35.2051 Z M 51.709 -35.2051 C 51.709 -38.1348 49.1699 -40.7227 46.1914 -40.7227 C 43.2617 -40.7227 40.7227 -38.1348 40.7227 -35.2051 C 40.7227 -32.2266 43.2617 -29.6875 46.1914 -29.6875 C 49.1699 -29.6875 51.709 -32.2266 51.709 -35.2051 Z M 69.6777 -35.2051 C 69.6777 -38.1348 67.1875 -40.7227 64.1602 -40.7227 C 61.1816 -40.7227 58.6426 -38.1348 58.6426 -35.2051 C 58.6426 -32.2266 61.1816 -29.6875 64.1602 -29.6875 C 67.1875 -29.6875 69.6777 -32.2266 69.6777 -35.2051 Z"/>
  </g>
  <g id="Light-S" transform="matrix(1 0 0 1 1107.6 696)">
   <path d="M 45.5078 3.4668 C 66.6992 3.4668 84.2285 -14.0625 84.2285 -35.2051 C 84.2285 -56.3965 66.6504 -73.9258 45.5078 -73.9258 C 24.3164 -73.9258 6.83594 -56.3965 6.83594 -35.2051 C 6.83594 -14.0625 24.3652 3.4668 45.5078 3.4668 Z M 45.5078 -2.24609 C 27.2461 -2.24609 12.5977 -16.9434 12.5977 -35.2051 C 12.5977 -53.5156 27.1973 -68.2129 45.5078 -68.2129 C 63.7695 -68.2129 78.4668 -53.5156 78.5156 -35.2051 C 78.5156 -16.9434 63.8184 -2.24609 45.5078 -2.24609 Z M 32.8125 -35.2051 C 32.8125 -37.8906 30.5664 -40.0879 27.9297 -40.0879 C 25.2441 -40.0879 23.0469 -37.8906 23.0469 -35.2051 C 23.0469 -32.5684 25.293 -30.3223 27.9297 -30.3223 C 30.5664 -30.3223 32.8125 -32.5684 32.8125 -35.2051 Z M 50.3906 -35.2051 C 50.3906 -37.8906 48.1445 -40.0879 45.5078 -40.0879 C 42.8223 -40.0879 40.625 -37.8906 40.625 -35.2051 C 40.625 -32.5684 42.9199 -30.3223 45.5078 -30.3223 C 48.1445 -30.3223 50.3906 -32.5684 50.3906 -35.2051 Z M 67.9688 -35.2051 C 67.9688 -37.8906 65.7227 -40.0879 63.0859 -40.0879 C 60.4004 -40.0879 58.1543 -37.8906 58.1543 -35.2051 C 58.1543 -32.5684 60.4492 -30.3223 63.0859 -30.3223 C 65.7227 -30.3223 67.9688 -32.5684 67.9688 -35.2051 Z"/>
  </g>
  <g id="Thin-S" transform="matrix(1 0 0 1 811.867 696)">
   <path d="M 44.5801 2.53906 C 65.2832 2.53906 82.2754 -14.4531 82.2754 -35.2051 C 82.2754 -55.9082 65.2344 -72.9004 44.5312 -72.9004 C 23.8281 -72.9004 6.83594 -55.9082 6.83594 -35.2051 C 6.83594 -14.4531 23.877 2.53906 44.5801 2.53906 Z M 44.5801 -0.878906 C 25.5859 -0.878906 10.2539 -16.2109 10.2539 -35.2051 C 10.2539 -54.1504 25.5859 -69.4824 44.5312 -69.4824 C 63.5254 -69.4824 78.8574 -54.1504 78.8574 -35.2051 C 78.8574 -16.2109 63.5254 -0.878906 44.5801 -0.878906 Z M 31.543 -35.2051 C 31.543 -37.5488 29.6875 -39.2578 27.4902 -39.2578 C 25.1953 -39.2578 23.3887 -37.5488 23.3887 -35.2051 C 23.3887 -33.0078 25.3418 -31.1523 27.4902 -31.1523 C 29.6875 -31.1523 31.543 -33.0078 31.543 -35.2051 Z M 48.6328 -35.2051 C 48.6328 -37.5488 46.7285 -39.2578 44.5312 -39.2578 C 42.2852 -39.2578 40.4785 -37.5488 40.4785 -35.2051 C 40.4785 -33.0078 42.4316 -31.1523 44.5312 -31.1523 C 46.7285 -31.1523 48.6328 -33.0078 48.6328 -35.2051 Z M 65.6738 -35.2051 C 65.6738 -37.5488 63.8184 -39.2578 61.6211 -39.2578 C 59.375 -39.2578 57.5195 -37.5488 57.5195 -35.2051 C 57.5195 -33.0078 59.5215 -31.1523 61.6211 -31.1523 C 63.8184 -31.1523 65.6738 -33.0078 65.6738 -35.2051 Z"/>
  </g>
  <g id="Ultralight-S" transform="matrix(1 0 0 1 515.644 696)">
   <path d="M 44.043 2.05078 C 64.502 2.05078 81.2988 -14.6973 81.2988 -35.1562 C 81.2988 -55.6152 64.502 -72.3633 44.043 -72.3633 C 23.584 -72.3633 6.83594 -55.6152 6.83594 -35.1562 C 6.83594 -14.6973 23.584 2.05078 44.043 2.05078 Z M 44.043 -0.146484 C 24.7559 -0.146484 9.08203 -15.8691 9.08203 -35.1562 C 9.08203 -54.4434 24.7559 -70.166 44.043 -70.166 C 63.3789 -70.166 79.0527 -54.4434 79.0527 -35.1562 C 79.0527 -15.8691 63.3789 -0.146484 44.043 -0.146484 Z M 30.9082 -35.2051 C 30.9082 -37.3535 29.1992 -38.8184 27.2461 -38.8184 C 25.1953 -38.8184 23.584 -37.4023 23.584 -35.2051 C 23.584 -33.252 25.3906 -31.5918 27.2461 -31.5918 C 29.1992 -31.5918 30.9082 -33.252 30.9082 -35.2051 Z M 47.7051 -35.2051 C 47.7051 -37.3535 45.9961 -38.8184 44.043 -38.8184 C 41.9922 -38.8184 40.3809 -37.4023 40.3809 -35.2051 C 40.3809 -33.252 42.1875 -31.5918 44.043 -31.5918 C 45.9961 -31.5918 47.7051 -33.252 47.7051 -35.2051 Z M 64.502 -35.2051 C 64.502 -37.3535 62.8418 -38.8184 60.8887 -38.8184 C 58.8379 -38.8184 57.2266 -37.4023 57.2266 -35.2051 C 57.2266 -33.252 58.9844 -31.5918 60.8887 -31.5918 C 62.8418 -31.5918 64.502 -33.252 64.502 -35.2051 Z"/>
  </g>
 </g>
</svg>
