<?xml version="1.0" encoding="UTF-8"?>
<!--Generator: Apple Native CoreSVG 123-->
<!DOCTYPE svg
PUBLIC "-//W3C//DTD SVG 1.1//EN"
       "http://www.w3.org/Graphics/SVG/1.1/DTD/svg11.dtd">
<svg version="1.1" xmlns="http://www.w3.org/2000/svg" xmlns:xlink="http://www.w3.org/1999/xlink" width="3300" height="2200">
 <!--glyph: "uni100060.medium", point size: 100.000000, font version: "Version 15.0d7e11", template writer version: "5"-->
 <g id="Notes">
  <rect height="2200" id="artboard" style="fill:white;opacity:1" width="3300" x="0" y="0"/>
  <line id="" style="fill:none;stroke:black;opacity:1;stroke-width:0.5;" x1="263" x2="3036" y1="292" y2="292"/>
  <text style="stroke:none;fill:black;font-family:-apple-system,&quot;SF Pro Display&quot;,&quot;SF Pro Text&quot;,Helvetica,sans-serif;font-weight:bold;" transform="matrix(1 0 0 1 263 322)">Weight/Scale Variations</text>
  <text style="stroke:none;fill:black;font-family:-apple-system,&quot;SF Pro Display&quot;,&quot;SF Pro Text&quot;,Helvetica,sans-serif;text-anchor:middle;" transform="matrix(1 0 0 1 559.711 322)">Ultralight</text>
  <text style="stroke:none;fill:black;font-family:-apple-system,&quot;SF Pro Display&quot;,&quot;SF Pro Text&quot;,Helvetica,sans-serif;text-anchor:middle;" transform="matrix(1 0 0 1 856.422 322)">Thin</text>
  <text style="stroke:none;fill:black;font-family:-apple-system,&quot;SF Pro Display&quot;,&quot;SF Pro Text&quot;,Helvetica,sans-serif;text-anchor:middle;" transform="matrix(1 0 0 1 1153.13 322)">Light</text>
  <text style="stroke:none;fill:black;font-family:-apple-system,&quot;SF Pro Display&quot;,&quot;SF Pro Text&quot;,Helvetica,sans-serif;text-anchor:middle;" transform="matrix(1 0 0 1 1449.84 322)">Regular</text>
  <text style="stroke:none;fill:black;font-family:-apple-system,&quot;SF Pro Display&quot;,&quot;SF Pro Text&quot;,Helvetica,sans-serif;text-anchor:middle;" transform="matrix(1 0 0 1 1746.56 322)">Medium</text>
  <text style="stroke:none;fill:black;font-family:-apple-system,&quot;SF Pro Display&quot;,&quot;SF Pro Text&quot;,Helvetica,sans-serif;text-anchor:middle;" transform="matrix(1 0 0 1 2043.27 322)">Semibold</text>
  <text style="stroke:none;fill:black;font-family:-apple-system,&quot;SF Pro Display&quot;,&quot;SF Pro Text&quot;,Helvetica,sans-serif;text-anchor:middle;" transform="matrix(1 0 0 1 2339.98 322)">Bold</text>
  <text style="stroke:none;fill:black;font-family:-apple-system,&quot;SF Pro Display&quot;,&quot;SF Pro Text&quot;,Helvetica,sans-serif;text-anchor:middle;" transform="matrix(1 0 0 1 2636.69 322)">Heavy</text>
  <text style="stroke:none;fill:black;font-family:-apple-system,&quot;SF Pro Display&quot;,&quot;SF Pro Text&quot;,Helvetica,sans-serif;text-anchor:middle;" transform="matrix(1 0 0 1 2933.4 322)">Black</text>
  <line id="" style="fill:none;stroke:black;opacity:1;stroke-width:0.5;" x1="263" x2="3036" y1="1903" y2="1903"/>
  <g id="" transform="matrix(1 0 0 1 263 1933)">
   <path d="M 9.24805 0.830078 C 13.5547 0.830078 17.1387 -2.74414 17.1387 -7.05078 C 17.1387 -11.3574 13.5449 -14.9316 9.23828 -14.9316 C 4.94141 -14.9316 1.36719 -11.3574 1.36719 -7.05078 C 1.36719 -2.74414 4.95117 0.830078 9.24805 0.830078 Z M 9.24805 -0.654297 C 5.70312 -0.654297 2.87109 -3.49609 2.87109 -7.05078 C 2.87109 -10.6055 5.69336 -13.4473 9.23828 -13.4473 C 12.793 -13.4473 15.6348 -10.6055 15.6445 -7.05078 C 15.6543 -3.49609 12.8027 -0.654297 9.24805 -0.654297 Z M 9.22852 -3.42773 C 9.69727 -3.42773 9.9707 -3.74023 9.9707 -4.25781 L 9.9707 -6.31836 L 12.1973 -6.31836 C 12.6953 -6.31836 13.0371 -6.57227 13.0371 -7.04102 C 13.0371 -7.51953 12.7148 -7.7832 12.1973 -7.7832 L 9.9707 -7.7832 L 9.9707 -10.0098 C 9.9707 -10.5273 9.69727 -10.8496 9.22852 -10.8496 C 8.75977 -10.8496 8.50586 -10.5078 8.50586 -10.0098 L 8.50586 -7.7832 L 6.29883 -7.7832 C 5.78125 -7.7832 5.44922 -7.51953 5.44922 -7.04102 C 5.44922 -6.57227 5.80078 -6.31836 6.29883 -6.31836 L 8.50586 -6.31836 L 8.50586 -4.25781 C 8.50586 -3.75977 8.75977 -3.42773 9.22852 -3.42773 Z"/>
  </g>
  <g id="" transform="matrix(1 0 0 1 281.506 1933)">
   <path d="M 11.709 2.91016 C 17.1582 2.91016 21.6699 -1.60156 21.6699 -7.05078 C 21.6699 -12.4902 17.1484 -17.0117 11.6992 -17.0117 C 6.25977 -17.0117 1.74805 -12.4902 1.74805 -7.05078 C 1.74805 -1.60156 6.26953 2.91016 11.709 2.91016 Z M 11.709 1.25 C 7.09961 1.25 3.41797 -2.44141 3.41797 -7.05078 C 3.41797 -11.6504 7.08984 -15.3516 11.6992 -15.3516 C 16.3086 -15.3516 20 -11.6504 20.0098 -7.05078 C 20.0195 -2.44141 16.3184 1.25 11.709 1.25 Z M 11.6895 -2.41211 C 12.207 -2.41211 12.5195 -2.77344 12.5195 -3.33984 L 12.5195 -6.23047 L 15.5762 -6.23047 C 16.123 -6.23047 16.5039 -6.51367 16.5039 -7.03125 C 16.5039 -7.55859 16.1426 -7.86133 15.5762 -7.86133 L 12.5195 -7.86133 L 12.5195 -10.9277 C 12.5195 -11.5039 12.207 -11.8555 11.6895 -11.8555 C 11.1719 -11.8555 10.8789 -11.4844 10.8789 -10.9277 L 10.8789 -7.86133 L 7.83203 -7.86133 C 7.26562 -7.86133 6.89453 -7.55859 6.89453 -7.03125 C 6.89453 -6.51367 7.28516 -6.23047 7.83203 -6.23047 L 10.8789 -6.23047 L 10.8789 -3.33984 C 10.8789 -2.79297 11.1719 -2.41211 11.6895 -2.41211 Z"/>
  </g>
  <g id="" transform="matrix(1 0 0 1 304.924 1933)">
   <path d="M 14.9707 5.67383 C 21.9336 5.67383 27.6953 -0.078125 27.6953 -7.04102 C 27.6953 -14.0039 21.9238 -19.7559 14.9609 -19.7559 C 8.00781 -19.7559 2.25586 -14.0039 2.25586 -7.04102 C 2.25586 -0.078125 8.01758 5.67383 14.9707 5.67383 Z M 14.9707 3.85742 C 8.93555 3.85742 4.08203 -1.00586 4.08203 -7.04102 C 4.08203 -13.0762 8.92578 -17.9395 14.9609 -17.9395 C 21.0059 -17.9395 25.8594 -13.0762 25.8691 -7.04102 C 25.8789 -1.00586 21.0156 3.85742 14.9707 3.85742 Z M 14.9512 -1.06445 C 15.5176 -1.06445 15.8691 -1.45508 15.8691 -2.06055 L 15.8691 -6.13281 L 20.1074 -6.13281 C 20.6934 -6.13281 21.1133 -6.46484 21.1133 -7.02148 C 21.1133 -7.59766 20.7227 -7.93945 20.1074 -7.93945 L 15.8691 -7.93945 L 15.8691 -12.1875 C 15.8691 -12.8027 15.5176 -13.1934 14.9512 -13.1934 C 14.3848 -13.1934 14.0625 -12.7832 14.0625 -12.1875 L 14.0625 -7.93945 L 9.83398 -7.93945 C 9.21875 -7.93945 8.80859 -7.59766 8.80859 -7.02148 C 8.80859 -6.46484 9.23828 -6.13281 9.83398 -6.13281 L 14.0625 -6.13281 L 14.0625 -2.06055 C 14.0625 -1.47461 14.3848 -1.06445 14.9512 -1.06445 Z"/>
  </g>
  <text style="stroke:none;fill:black;font-family:-apple-system,&quot;SF Pro Display&quot;,&quot;SF Pro Text&quot;,Helvetica,sans-serif;font-weight:bold;" transform="matrix(1 0 0 1 263 1953)">Design Variations</text>
  <text style="stroke:none;fill:black;font-family:-apple-system,&quot;SF Pro Display&quot;,&quot;SF Pro Text&quot;,Helvetica,sans-serif;" transform="matrix(1 0 0 1 263 1971)">Symbols are supported in up to nine weights and three scales.</text>
  <text style="stroke:none;fill:black;font-family:-apple-system,&quot;SF Pro Display&quot;,&quot;SF Pro Text&quot;,Helvetica,sans-serif;" transform="matrix(1 0 0 1 263 1989)">For optimal layout with text and other symbols, vertically align</text>
  <text style="stroke:none;fill:black;font-family:-apple-system,&quot;SF Pro Display&quot;,&quot;SF Pro Text&quot;,Helvetica,sans-serif;" transform="matrix(1 0 0 1 263 2007)">symbols with the adjacent text.</text>
  <rect height="14" id="" style="fill:#00AEEF;stroke:none;opacity:0.4;" width="3" x="776" y="1919"/>
  <g id="" transform="matrix(1 0 0 1 779 1933)">
   <path d="M 10.5273 0 L 12.373 0 L 7.17773 -14.0918 L 5.43945 -14.0918 L 0.244141 0 L 2.08984 0 L 3.50586 -4.0332 L 9.11133 -4.0332 Z M 6.2793 -11.9531 L 6.33789 -11.9531 L 8.59375 -5.52734 L 4.02344 -5.52734 Z"/>
  </g>
  <rect height="14" id="" style="fill:#00AEEF;stroke:none;opacity:0.4;" width="3" x="791.617" y="1919"/>
  <text style="stroke:none;fill:black;font-family:-apple-system,&quot;SF Pro Display&quot;,&quot;SF Pro Text&quot;,Helvetica,sans-serif;font-weight:bold;" transform="matrix(1 0 0 1 776 1953)">Margins</text>
  <text style="stroke:none;fill:black;font-family:-apple-system,&quot;SF Pro Display&quot;,&quot;SF Pro Text&quot;,Helvetica,sans-serif;" transform="matrix(1 0 0 1 776 1971)">Leading and trailing margins on the left and right side of each symbol</text>
  <text style="stroke:none;fill:black;font-family:-apple-system,&quot;SF Pro Display&quot;,&quot;SF Pro Text&quot;,Helvetica,sans-serif;" transform="matrix(1 0 0 1 776 1989)">can be adjusted by modifying the width of the blue rectangles.</text>
  <text style="stroke:none;fill:black;font-family:-apple-system,&quot;SF Pro Display&quot;,&quot;SF Pro Text&quot;,Helvetica,sans-serif;" transform="matrix(1 0 0 1 776 2007)">Modifications are automatically applied proportionally to all</text>
  <text style="stroke:none;fill:black;font-family:-apple-system,&quot;SF Pro Display&quot;,&quot;SF Pro Text&quot;,Helvetica,sans-serif;" transform="matrix(1 0 0 1 776 2025)">scales and weights.</text>
  <g id="" transform="matrix(1 0 0 1 1289 1933)">
   <path d="M 2.83203 3.11523 L 4.375 4.6582 C 5.22461 5.48828 6.19141 5.41992 7.06055 4.46289 L 17.2754 -6.66016 C 17.7051 -6.36719 18.0957 -6.37695 18.5645 -6.47461 L 19.6094 -6.68945 L 20.3027 -5.99609 L 20.2539 -5.47852 C 20.1855 -4.95117 20.3516 -4.53125 20.8496 -4.0332 L 21.6602 -3.22266 C 22.168 -2.71484 22.8223 -2.68555 23.3008 -3.16406 L 26.5527 -6.41602 C 27.0312 -6.89453 27.0117 -7.54883 26.5039 -8.05664 L 25.6836 -8.87695 C 25.1855 -9.375 24.7754 -9.55078 24.2383 -9.47266 L 23.7109 -9.41406 L 23.0566 -10.0781 L 23.3398 -11.2207 C 23.4863 -11.7871 23.3398 -12.2559 22.7148 -12.8613 L 20.3027 -15.2539 C 16.7578 -18.7793 12.2266 -18.6719 9.11133 -15.5371 C 8.69141 -15.1074 8.64258 -14.5215 8.91602 -14.0918 C 9.15039 -13.7207 9.62891 -13.4961 10.2734 -13.6621 C 11.7871 -14.043 13.3008 -13.9258 14.7852 -12.9199 L 14.1602 -11.3379 C 13.9258 -10.752 13.9453 -10.2734 14.1797 -9.83398 L 3.01758 0.439453 C 2.08008 1.30859 1.97266 2.25586 2.83203 3.11523 Z M 10.6738 -15.1465 C 13.3398 -17.1387 16.6504 -16.8262 19.0527 -14.4141 L 21.6797 -11.8066 C 21.9141 -11.5723 21.9434 -11.3867 21.8848 -11.0938 L 21.5039 -9.53125 L 23.0762 -7.95898 L 24.043 -8.04688 C 24.3262 -8.07617 24.4141 -8.05664 24.6387 -7.83203 L 25.2637 -7.20703 L 22.5098 -4.46289 L 21.8848 -5.07812 C 21.6602 -5.30273 21.6406 -5.40039 21.6699 -5.68359 L 21.7578 -6.64062 L 20.1953 -8.20312 L 18.5742 -7.89062 C 18.291 -7.83203 18.1445 -7.83203 17.9102 -8.07617 L 15.7324 -10.2539 C 15.5078 -10.4883 15.4785 -10.625 15.6055 -10.9473 L 16.5527 -13.2227 C 14.9512 -14.7559 12.8418 -15.6055 10.8008 -14.9512 C 10.7129 -14.9219 10.6445 -14.9414 10.6152 -14.9805 C 10.5859 -15.0293 10.5859 -15.0781 10.6738 -15.1465 Z M 4.10156 2.41211 C 3.61328 1.91406 3.78906 1.61133 4.12109 1.30859 L 15.0781 -8.80859 L 16.3086 -7.57812 L 6.15234 3.34961 C 5.84961 3.68164 5.46875 3.7793 5.06836 3.37891 Z"/>
  </g>
  <text style="stroke:none;fill:black;font-family:-apple-system,&quot;SF Pro Display&quot;,&quot;SF Pro Text&quot;,Helvetica,sans-serif;font-weight:bold;" transform="matrix(1 0 0 1 1289 1953)">Exporting</text>
  <text style="stroke:none;fill:black;font-family:-apple-system,&quot;SF Pro Display&quot;,&quot;SF Pro Text&quot;,Helvetica,sans-serif;" transform="matrix(1 0 0 1 1289 1971)">Symbols should be outlined when exporting to ensure the</text>
  <text style="stroke:none;fill:black;font-family:-apple-system,&quot;SF Pro Display&quot;,&quot;SF Pro Text&quot;,Helvetica,sans-serif;" transform="matrix(1 0 0 1 1289 1989)">design is preserved when submitting to Xcode.</text>
  <text id="template-version" style="stroke:none;fill:black;font-family:-apple-system,&quot;SF Pro Display&quot;,&quot;SF Pro Text&quot;,Helvetica,sans-serif;text-anchor:end;" transform="matrix(1 0 0 1 3036 1933)">Template v.1.0</text>
  <text style="stroke:none;fill:black;font-family:-apple-system,&quot;SF Pro Display&quot;,&quot;SF Pro Text&quot;,Helvetica,sans-serif;text-anchor:end;" transform="matrix(1 0 0 1 3036 1951)">Generated from xmark.circle</text>
  <text style="stroke:none;fill:black;font-family:-apple-system,&quot;SF Pro Display&quot;,&quot;SF Pro Text&quot;,Helvetica,sans-serif;text-anchor:end;" transform="matrix(1 0 0 1 3036 1969)">Typeset at 100 points</text>
  <text style="stroke:none;fill:black;font-family:-apple-system,&quot;SF Pro Display&quot;,&quot;SF Pro Text&quot;,Helvetica,sans-serif;" transform="matrix(1 0 0 1 263 726)">Small</text>
  <text style="stroke:none;fill:black;font-family:-apple-system,&quot;SF Pro Display&quot;,&quot;SF Pro Text&quot;,Helvetica,sans-serif;" transform="matrix(1 0 0 1 263 1156)">Medium</text>
  <text style="stroke:none;fill:black;font-family:-apple-system,&quot;SF Pro Display&quot;,&quot;SF Pro Text&quot;,Helvetica,sans-serif;" transform="matrix(1 0 0 1 263 1586)">Large</text>
 </g>
 <g id="Guides">
  <g id="H-reference" style="fill:#27AAE1;stroke:none;" transform="matrix(1 0 0 1 339 696)">
   <path d="M 54.9316 0 L 57.666 0 L 30.5664 -70.459 L 28.0762 -70.459 L 0.976562 0 L 3.66211 0 L 12.9395 -24.4629 L 45.7031 -24.4629 Z M 29.1992 -67.0898 L 29.4434 -67.0898 L 44.8242 -26.709 L 13.8184 -26.709 Z"/>
  </g>
  <line id="Baseline-S" style="fill:none;stroke:#27AAE1;opacity:1;stroke-width:0.577;" x1="263" x2="3036" y1="696" y2="696"/>
  <line id="Capline-S" style="fill:none;stroke:#27AAE1;opacity:1;stroke-width:0.577;" x1="263" x2="3036" y1="625.541" y2="625.541"/>
  <g id="H-reference" style="fill:#27AAE1;stroke:none;" transform="matrix(1 0 0 1 339 1126)">
   <path d="M 54.9316 0 L 57.666 0 L 30.5664 -70.459 L 28.0762 -70.459 L 0.976562 0 L 3.66211 0 L 12.9395 -24.4629 L 45.7031 -24.4629 Z M 29.1992 -67.0898 L 29.4434 -67.0898 L 44.8242 -26.709 L 13.8184 -26.709 Z"/>
  </g>
  <line id="Baseline-M" style="fill:none;stroke:#27AAE1;opacity:1;stroke-width:0.577;" x1="263" x2="3036" y1="1126" y2="1126"/>
  <line id="Capline-M" style="fill:none;stroke:#27AAE1;opacity:1;stroke-width:0.577;" x1="263" x2="3036" y1="1055.54" y2="1055.54"/>
  <g id="H-reference" style="fill:#27AAE1;stroke:none;" transform="matrix(1 0 0 1 339 1556)">
   <path d="M 54.9316 0 L 57.666 0 L 30.5664 -70.459 L 28.0762 -70.459 L 0.976562 0 L 3.66211 0 L 12.9395 -24.4629 L 45.7031 -24.4629 Z M 29.1992 -67.0898 L 29.4434 -67.0898 L 44.8242 -26.709 L 13.8184 -26.709 Z"/>
  </g>
  <line id="Baseline-L" style="fill:none;stroke:#27AAE1;opacity:1;stroke-width:0.577;" x1="263" x2="3036" y1="1556" y2="1556"/>
  <line id="Capline-L" style="fill:none;stroke:#27AAE1;opacity:1;stroke-width:0.577;" x1="263" x2="3036" y1="1485.54" y2="1485.54"/>
  <rect height="119.336" id="left-margin" style="fill:#00AEEF;stroke:none;opacity:0.4;" width="8.74023" x="1391.3" y="1030.79"/>
  <rect height="119.336" id="right-margin" style="fill:#00AEEF;stroke:none;opacity:0.4;" width="8.74023" x="1499.65" y="1030.79"/>
 </g>
 <g id="Symbols">
  <g id="Black-L" transform="matrix(1 0 0 1 2854.05 1556)">
   <path d="M 79.3457 32.8613 C 116.748 32.8613 147.412 2.19727 147.412 -35.2051 C 147.412 -72.6074 116.748 -103.271 79.2969 -103.271 C 41.8945 -103.271 11.2793 -72.6074 11.2793 -35.2051 C 11.2793 2.19727 41.9434 32.8613 79.3457 32.8613 Z M 79.3457 12.4023 C 52.9785 12.4023 31.7383 -8.83789 31.7383 -35.2051 C 31.7383 -61.5723 52.9297 -82.8125 79.2969 -82.8125 C 105.664 -82.8125 126.953 -61.5723 126.953 -35.2051 C 127.002 -8.83789 105.713 12.4023 79.3457 12.4023 Z M 60.6934 -8.69141 C 63.1348 -8.69141 65.0879 -9.42383 66.6504 -11.0352 L 79.2969 -23.6816 L 92.0898 -11.0352 C 93.6523 -9.47266 95.5566 -8.69141 97.998 -8.69141 C 102.539 -8.69141 106.006 -12.1582 106.006 -16.748 C 106.006 -18.7988 105.127 -20.752 103.613 -22.2656 L 90.8203 -35.1074 L 103.613 -48.0469 C 105.176 -49.6094 106.055 -51.5137 106.055 -53.5156 C 106.055 -58.1055 102.539 -61.5723 98.0469 -61.5723 C 95.6543 -61.5723 93.75 -60.8398 92.1387 -59.2285 L 79.2969 -46.5332 L 66.6016 -59.2285 C 65.0391 -60.791 63.1348 -61.5234 60.6934 -61.5234 C 56.2012 -61.5234 52.6855 -58.1055 52.6855 -53.5156 C 52.6855 -51.5137 53.5645 -49.5117 55.127 -47.998 L 67.9688 -35.1074 L 55.127 -22.2656 C 53.5645 -20.752 52.6855 -18.75 52.6855 -16.748 C 52.6855 -12.1582 56.2012 -8.69141 60.6934 -8.69141 Z"/>
  </g>
  <g id="Heavy-L" transform="matrix(1 0 0 1 2558.39 1556)">
   <path d="M 78.2715 31.7871 C 115.088 31.7871 145.312 1.61133 145.312 -35.2051 C 145.312 -72.0215 115.039 -102.197 78.2715 -102.197 C 41.4551 -102.197 11.2793 -72.0215 11.2793 -35.2051 C 11.2793 1.61133 41.5039 31.7871 78.2715 31.7871 Z M 78.2715 14.0137 C 51.0254 14.0137 29.0527 -7.95898 29.0527 -35.2051 C 29.0527 -62.5 50.9766 -84.4727 78.2715 -84.4727 C 105.518 -84.4727 127.49 -62.5 127.539 -35.2051 C 127.539 -7.95898 105.566 14.0137 78.2715 14.0137 Z M 58.8867 -8.74023 C 61.0352 -8.74023 62.7441 -9.42383 64.1602 -10.8398 L 78.2715 -24.9512 L 92.4316 -10.8398 C 93.7988 -9.47266 95.5078 -8.74023 97.7051 -8.74023 C 101.709 -8.74023 104.834 -11.8652 104.834 -15.918 C 104.834 -17.7734 104.053 -19.5312 102.686 -20.8984 L 88.4766 -35.1074 L 102.686 -49.4141 C 104.102 -50.8301 104.883 -52.5391 104.883 -54.3457 C 104.883 -58.3984 101.758 -61.5234 97.7051 -61.5234 C 95.6055 -61.5234 93.9453 -60.8398 92.4805 -59.4238 L 78.2715 -45.2637 L 64.1113 -59.375 C 62.6953 -60.791 61.0352 -61.4746 58.8867 -61.4746 C 54.8828 -61.4746 51.7578 -58.3984 51.7578 -54.3457 C 51.7578 -52.4902 52.5391 -50.7324 53.9062 -49.4141 L 68.1641 -35.1074 L 53.9062 -20.8496 C 52.5391 -19.5312 51.7578 -17.7734 51.7578 -15.918 C 51.7578 -11.8652 54.8828 -8.74023 58.8867 -8.74023 Z"/>
  </g>
  <g id="Bold-L" transform="matrix(1 0 0 1 2262.88 1556)">
   <path d="M 77.0996 30.6152 C 113.232 30.6152 142.92 0.878906 142.92 -35.2051 C 142.92 -71.3379 113.184 -101.025 77.0508 -101.025 C 40.9668 -101.025 11.2793 -71.3379 11.2793 -35.2051 C 11.2793 0.878906 41.0156 30.6152 77.0996 30.6152 Z M 77.0996 15.8691 C 48.8281 15.8691 26.0742 -6.93359 26.0742 -35.2051 C 26.0742 -63.4766 48.7793 -86.2793 77.0508 -86.2793 C 105.371 -86.2793 128.125 -63.4766 128.174 -35.2051 C 128.174 -6.93359 105.371 15.8691 77.0996 15.8691 Z M 56.8848 -8.83789 C 58.6914 -8.83789 60.2051 -9.42383 61.4258 -10.6934 L 77.0508 -26.3184 L 92.7734 -10.6934 C 93.9941 -9.47266 95.459 -8.83789 97.3145 -8.83789 C 100.83 -8.83789 103.516 -11.5234 103.516 -15.0391 C 103.516 -16.6992 102.832 -18.1641 101.66 -19.3359 L 85.8887 -35.1074 L 101.66 -50.9766 C 102.93 -52.1973 103.564 -53.6621 103.564 -55.2734 C 103.564 -58.7402 100.83 -61.4258 97.3633 -61.4258 C 95.6055 -61.4258 94.1895 -60.8887 92.8711 -59.5703 L 77.0508 -43.8477 L 61.3281 -59.5703 C 60.1074 -60.791 58.6914 -61.377 56.8848 -61.377 C 53.3691 -61.377 50.6836 -58.7402 50.6836 -55.2246 C 50.6836 -53.6133 51.3672 -52.0996 52.5391 -50.9277 L 68.3105 -35.1074 L 52.5391 -19.3359 C 51.3672 -18.1641 50.6836 -16.6504 50.6836 -15.0391 C 50.6836 -11.5234 53.3691 -8.83789 56.8848 -8.83789 Z"/>
  </g>
  <g id="Semibold-L" transform="matrix(1 0 0 1 1966.97 1556)">
   <path d="M 76.2695 29.7852 C 111.914 29.7852 141.309 0.439453 141.309 -35.2051 C 141.309 -70.8496 111.865 -100.244 76.2695 -100.244 C 40.625 -100.244 11.2793 -70.8496 11.2793 -35.2051 C 11.2793 0.439453 40.6738 29.7852 76.2695 29.7852 Z M 76.2695 17.0898 C 47.3145 17.0898 24.0234 -6.25 24.0234 -35.2051 C 24.0234 -64.209 47.2656 -87.5 76.2695 -87.5 C 105.225 -87.5 128.564 -64.209 128.613 -35.2051 C 128.662 -6.25 105.273 17.0898 76.2695 17.0898 Z M 55.4688 -8.88672 C 57.0801 -8.88672 58.4473 -9.42383 59.5215 -10.5469 L 76.2695 -27.2949 L 93.0664 -10.5469 C 94.1406 -9.47266 95.459 -8.88672 97.0703 -8.88672 C 100.195 -8.88672 102.588 -11.3281 102.588 -14.4043 C 102.588 -15.918 102.002 -17.1875 100.928 -18.3105 L 84.1309 -35.1074 L 100.977 -52.0508 C 102.1 -53.1738 102.637 -54.4434 102.637 -55.9082 C 102.637 -58.9844 100.244 -61.377 97.1191 -61.377 C 95.5566 -61.377 94.3359 -60.8887 93.1641 -59.7168 L 76.2695 -42.8711 L 59.4238 -59.668 C 58.3496 -60.791 57.0801 -61.3281 55.4688 -61.3281 C 52.3926 -61.3281 49.9512 -58.9355 49.9512 -55.8594 C 49.9512 -54.3945 50.5371 -53.0273 51.6113 -52.002 L 68.457 -35.1074 L 51.6113 -18.2617 C 50.5371 -17.1875 49.9512 -15.8691 49.9512 -14.4043 C 49.9512 -11.3281 52.3926 -8.88672 55.4688 -8.88672 Z"/>
  </g>
  <g id="Medium-L" transform="matrix(1 0 0 1 1670.87 1556)">
   <path d="M 75.6836 29.1992 C 110.938 29.1992 140.088 0.0488281 140.088 -35.2051 C 140.088 -70.459 110.889 -99.6094 75.6348 -99.6094 C 40.3809 -99.6094 11.2793 -70.459 11.2793 -35.2051 C 11.2793 0.0488281 40.3809 29.1992 75.6836 29.1992 Z M 75.6836 18.0664 C 46.1426 18.0664 22.4609 -5.71289 22.4609 -35.2051 C 22.4609 -64.6973 46.1426 -88.4766 75.6348 -88.4766 C 105.127 -88.4766 128.906 -64.6973 128.906 -35.2051 C 128.955 -5.71289 105.176 18.0664 75.6836 18.0664 Z M 54.3945 -8.88672 C 55.8594 -8.88672 57.0801 -9.42383 58.0566 -10.4492 L 75.6348 -28.0273 L 93.2617 -10.4492 C 94.2383 -9.47266 95.4102 -8.88672 96.875 -8.88672 C 99.707 -8.88672 101.904 -11.1328 101.904 -13.916 C 101.904 -15.332 101.367 -16.5039 100.391 -17.4805 L 82.7637 -35.1074 L 100.439 -52.832 C 101.465 -53.9062 101.953 -55.0293 101.953 -56.3477 C 101.953 -59.1797 99.7559 -61.3281 96.9238 -61.3281 C 95.5566 -61.3281 94.4336 -60.8887 93.3594 -59.8145 L 75.6348 -42.1387 L 58.0078 -59.7656 C 56.9824 -60.791 55.8594 -61.2793 54.3945 -61.2793 C 51.6113 -61.2793 49.4141 -59.1309 49.4141 -56.3477 C 49.4141 -54.9805 49.9023 -53.7598 50.9277 -52.832 L 68.5547 -35.1074 L 50.9277 -17.4316 C 49.9023 -16.5039 49.4141 -15.2832 49.4141 -13.916 C 49.4141 -11.1328 51.6113 -8.88672 54.3945 -8.88672 Z"/>
  </g>
  <g id="Regular-L" transform="matrix(1 0 0 1 1374.97 1556)">
   <path d="M 74.8535 28.3691 C 109.668 28.3691 138.477 -0.390625 138.477 -35.2051 C 138.477 -70.0195 109.619 -98.7793 74.8047 -98.7793 C 40.0391 -98.7793 11.2793 -70.0195 11.2793 -35.2051 C 11.2793 -0.390625 40.0879 28.3691 74.8535 28.3691 Z M 74.8535 19.2871 C 44.6777 19.2871 20.4102 -5.0293 20.4102 -35.2051 C 20.4102 -65.3809 44.6289 -89.6973 74.8047 -89.6973 C 105.029 -89.6973 129.297 -65.3809 129.346 -35.2051 C 129.395 -5.0293 105.078 19.2871 74.8535 19.2871 Z M 53.0273 -8.93555 C 54.248 -8.93555 55.3223 -9.42383 56.2012 -10.3027 L 74.8047 -29.0039 L 93.5059 -10.3027 C 94.3359 -9.47266 95.4102 -8.93555 96.6309 -8.93555 C 99.0723 -8.93555 101.025 -10.9375 101.025 -13.3301 C 101.025 -14.5508 100.586 -15.5762 99.707 -16.4551 L 81.0059 -35.1074 L 99.7559 -53.9062 C 100.684 -54.834 101.074 -55.7617 101.074 -56.9824 C 101.074 -59.375 99.1211 -61.2793 96.6797 -61.2793 C 95.5566 -61.2793 94.5801 -60.8887 93.6523 -59.9121 L 74.8047 -41.2109 L 56.1035 -59.8633 C 55.2246 -60.791 54.248 -61.1816 53.0273 -61.1816 C 50.5859 -61.1816 48.6816 -59.3262 48.6816 -56.9336 C 48.6816 -55.7129 49.1211 -54.6875 50 -53.8574 L 68.7012 -35.1074 L 50 -16.4062 C 49.1211 -15.5762 48.6816 -14.502 48.6816 -13.3301 C 48.6816 -10.9375 50.5859 -8.93555 53.0273 -8.93555 Z"/>
  </g>
  <g id="Light-L" transform="matrix(1 0 0 1 1079.18 1556)">
   <path d="M 73.9258 27.4902 C 108.301 27.4902 136.621 -0.830078 136.621 -35.1562 C 136.621 -69.5312 108.252 -97.8516 73.9258 -97.8516 C 39.5508 -97.8516 11.2793 -69.5312 11.2793 -35.1562 C 11.2793 -0.830078 39.5996 27.4902 73.9258 27.4902 Z M 73.9258 20.6055 C 43.1152 20.6055 18.2129 -4.3457 18.2129 -35.1562 C 18.2129 -66.0156 43.0664 -90.918 73.9258 -90.918 C 104.736 -90.918 129.688 -66.0156 129.736 -35.1562 C 129.736 -4.3457 104.785 20.6055 73.9258 20.6055 Z M 51.709 -9.47266 C 52.7344 -9.47266 53.5156 -9.81445 54.248 -10.5957 L 73.9258 -30.2734 L 93.6035 -10.5957 C 94.3359 -9.86328 95.166 -9.47266 96.1426 -9.47266 C 98.0469 -9.47266 99.5605 -10.9863 99.5605 -12.8418 C 99.5605 -13.8184 99.2188 -14.5996 98.4863 -15.332 L 78.7598 -35.1074 L 98.5352 -54.9316 C 99.3164 -55.6641 99.6094 -56.3965 99.6094 -57.373 C 99.6094 -59.2285 98.0957 -60.6934 96.1914 -60.6934 C 95.2637 -60.6934 94.5312 -60.4004 93.7012 -59.5703 L 73.9258 -39.8438 L 54.1992 -59.5703 C 53.4668 -60.3516 52.7344 -60.6445 51.709 -60.6445 C 49.8047 -60.6445 48.291 -59.2285 48.291 -57.3242 C 48.291 -56.3965 48.6328 -55.5664 49.3652 -54.8828 L 69.0918 -35.1074 L 49.3652 -15.2832 C 48.6328 -14.5996 48.291 -13.8184 48.291 -12.8418 C 48.291 -10.9863 49.8047 -9.47266 51.709 -9.47266 Z"/>
  </g>
  <g id="Thin-L" transform="matrix(1 0 0 1 783.693 1556)">
   <path d="M 72.7051 26.3184 C 106.494 26.3184 134.18 -1.36719 134.18 -35.1074 C 134.18 -68.8965 106.494 -96.582 72.7051 -96.582 C 38.9648 -96.582 11.2793 -68.8965 11.2793 -35.1074 C 11.2793 -1.36719 38.9648 26.3184 72.7051 26.3184 Z M 72.7051 22.3145 C 41.0156 22.3145 15.2832 -3.41797 15.2832 -35.1074 C 15.2832 -66.8457 41.0156 -92.5781 72.7051 -92.5781 C 104.395 -92.5781 130.176 -66.8457 130.176 -35.1074 C 130.176 -3.41797 104.443 22.3145 72.7051 22.3145 Z M 49.9512 -10.1562 C 50.6836 -10.1562 51.0742 -10.3516 51.709 -10.9863 L 72.7051 -31.9824 L 93.75 -10.9863 C 94.3359 -10.3516 94.8242 -10.1562 95.5078 -10.1562 C 96.7285 -10.1562 97.6562 -11.0352 97.6562 -12.207 C 97.6562 -12.8418 97.4609 -13.3301 96.9238 -13.8672 L 75.7812 -35.0586 L 96.9238 -56.25 C 97.5098 -56.7871 97.6562 -57.2266 97.6562 -57.9102 C 97.6562 -59.0332 96.7285 -59.9121 95.5078 -59.9121 C 94.873 -59.9121 94.3848 -59.7168 93.75 -59.1309 L 72.7051 -38.0859 L 51.6602 -59.1309 C 51.0742 -59.7168 50.6836 -59.9121 49.9512 -59.9121 C 48.7305 -59.9121 47.7539 -59.0332 47.7539 -57.9102 C 47.7539 -57.2266 47.9492 -56.7383 48.4863 -56.2012 L 69.6777 -35.0586 L 48.4863 -13.8672 C 47.9492 -13.3301 47.7539 -12.8418 47.7539 -12.207 C 47.7539 -11.0352 48.7305 -10.1562 49.9512 -10.1562 Z"/>
  </g>
  <g id="Ultralight-L" transform="matrix(1 0 0 1 487.616 1556)">
   <path d="M 72.1191 25.7324 C 105.566 25.7324 132.91 -1.61133 132.91 -35.1074 C 132.91 -68.5547 105.566 -95.8984 72.1191 -95.8984 C 38.623 -95.8984 11.2793 -68.5547 11.2793 -35.1074 C 11.2793 -1.61133 38.623 25.7324 72.1191 25.7324 Z M 72.1191 23.2422 C 39.9414 23.2422 13.7695 -2.97852 13.7695 -35.1074 C 13.7695 -67.2363 39.9414 -93.4082 72.1191 -93.4082 C 104.248 -93.4082 130.42 -67.2363 130.42 -35.1074 C 130.42 -2.97852 104.248 23.2422 72.1191 23.2422 Z M 49.0234 -10.498 C 49.6094 -10.498 49.8535 -10.6445 50.3906 -11.1328 L 72.1191 -32.8613 L 93.8477 -11.1328 C 94.3359 -10.6445 94.6777 -10.498 95.166 -10.498 C 96.0449 -10.498 96.6797 -11.084 96.6797 -11.8652 C 96.6797 -12.3535 96.582 -12.6953 96.1426 -13.1348 L 74.2188 -35.0098 L 96.1426 -56.8848 C 96.582 -57.3242 96.6797 -57.666 96.6797 -58.1543 C 96.6797 -58.9355 96.0449 -59.5215 95.166 -59.5215 C 94.6777 -59.5215 94.3359 -59.375 93.7988 -58.8867 L 72.1191 -37.1582 L 50.3906 -58.8867 C 49.8535 -59.4238 49.6094 -59.5215 49.0234 -59.5215 C 48.1445 -59.5215 47.5098 -58.9355 47.5098 -58.1543 C 47.5098 -57.666 47.6074 -57.373 48.0469 -56.9336 L 69.9707 -35.0098 L 48.0469 -13.1348 C 47.6074 -12.6953 47.5098 -12.3535 47.5098 -11.8652 C 47.5098 -11.084 48.1445 -10.498 49.0234 -10.498 Z"/>
  </g>
  <g id="Black-M" transform="matrix(1 0 0 1 2870.97 1126)">
   <path d="M 62.4023 18.457 C 91.9922 18.457 116.113 -5.61523 116.113 -35.2051 C 116.113 -64.7949 91.9922 -88.8672 62.4023 -88.8672 C 32.8125 -88.8672 8.74023 -64.7949 8.74023 -35.2051 C 8.74023 -5.61523 32.8125 18.457 62.4023 18.457 Z M 62.4023 0.195312 C 42.8711 0.195312 27.002 -15.625 27.002 -35.2051 C 27.002 -54.7363 42.8711 -70.6055 62.4023 -70.6055 C 81.9824 -70.6055 97.8027 -54.7363 97.8027 -35.2051 C 97.8027 -15.625 81.9824 0.195312 62.4023 0.195312 Z M 48.7793 -14.8438 C 50.9277 -14.8438 52.5391 -15.4785 53.9062 -16.8457 L 62.4023 -25.293 L 70.9473 -16.8457 C 72.3633 -15.4785 73.9746 -14.8438 76.123 -14.8438 C 80.0293 -14.8438 82.959 -17.7734 82.959 -21.7285 C 82.959 -23.4375 82.2266 -25.1465 80.9082 -26.4648 L 72.2656 -35.1562 L 80.9082 -43.7988 C 82.2266 -45.1172 82.959 -46.8262 82.959 -48.5352 C 82.959 -52.4902 80.0293 -55.4199 76.123 -55.4199 C 73.9746 -55.4199 72.3633 -54.7852 70.9473 -53.418 L 62.4023 -44.9219 L 53.9062 -53.418 C 52.5391 -54.834 50.9277 -55.4199 48.7793 -55.4199 C 44.873 -55.4199 41.9434 -52.4902 41.9434 -48.5352 C 41.9434 -46.8262 42.6758 -45.1172 43.9941 -43.7988 L 52.6855 -35.1562 L 43.9941 -26.4648 C 42.6758 -25.1465 41.9434 -23.4375 41.9434 -21.7285 C 41.9434 -17.7734 44.873 -14.8438 48.7793 -14.8438 Z"/>
  </g>
  <g id="Heavy-M" transform="matrix(1 0 0 1 2575.19 1126)">
   <path d="M 61.5234 17.5781 C 90.5273 17.5781 114.258 -6.15234 114.258 -35.2051 C 114.258 -64.2578 90.5273 -87.9883 61.4746 -87.9883 C 32.4707 -87.9883 8.74023 -64.2578 8.74023 -35.2051 C 8.74023 -6.15234 32.4707 17.5781 61.5234 17.5781 Z M 61.5234 1.66016 C 41.1133 1.66016 24.6582 -14.8438 24.6582 -35.2051 C 24.6582 -55.5664 41.1133 -72.0703 61.4746 -72.0703 C 81.8848 -72.0703 98.3398 -55.5664 98.3398 -35.2051 C 98.3398 -14.8438 81.8848 1.66016 61.5234 1.66016 Z M 47.1191 -14.7949 C 49.0234 -14.7949 50.4883 -15.332 51.7578 -16.6016 L 61.4746 -26.3184 L 71.2891 -16.6016 C 72.5586 -15.3809 74.0234 -14.7949 75.9277 -14.7949 C 79.3945 -14.7949 82.0801 -17.4316 82.0801 -20.9961 C 82.0801 -22.5586 81.3965 -24.0234 80.1758 -25.2441 L 70.3613 -35.1562 L 80.2246 -45.0684 C 81.3965 -46.2891 82.0801 -47.7539 82.0801 -49.3164 C 82.0801 -52.832 79.3945 -55.5176 75.9277 -55.5176 C 74.0234 -55.5176 72.6074 -54.9316 71.3379 -53.7109 L 61.4746 -43.9453 L 51.709 -53.6621 C 50.4883 -54.9316 49.0234 -55.5176 47.1191 -55.5176 C 43.6523 -55.5176 40.9668 -52.832 40.9668 -49.3164 C 40.9668 -47.7539 41.6504 -46.2402 42.8223 -45.0684 L 52.7344 -35.1562 L 42.8223 -25.2441 C 41.6504 -24.0234 40.9668 -22.5098 40.9668 -20.9961 C 40.9668 -17.4316 43.6523 -14.7949 47.1191 -14.7949 Z"/>
  </g>
  <g id="Bold-M" transform="matrix(1 0 0 1 2279.5 1126)">
   <path d="M 60.498 16.5039 C 88.8672 16.5039 112.207 -6.78711 112.207 -35.2051 C 112.207 -63.623 88.8672 -86.9629 60.4492 -86.9629 C 32.0312 -86.9629 8.74023 -63.623 8.74023 -35.2051 C 8.74023 -6.78711 32.0801 16.5039 60.498 16.5039 Z M 60.498 3.22266 C 39.1602 3.22266 22.0703 -13.916 22.0703 -35.2051 C 22.0703 -56.4941 39.1602 -73.6816 60.4492 -73.6816 C 81.7383 -73.6816 98.9258 -56.4941 98.9258 -35.2051 C 98.9746 -13.916 81.7871 3.22266 60.498 3.22266 Z M 45.3125 -14.6973 C 46.9238 -14.6973 48.2422 -15.2344 49.2676 -16.3086 L 60.4492 -27.4902 L 71.6797 -16.3086 C 72.7539 -15.2344 74.0234 -14.6973 75.6348 -14.6973 C 78.7109 -14.6973 81.0547 -17.0898 81.0547 -20.1172 C 81.0547 -21.5332 80.4688 -22.8516 79.3945 -23.877 L 68.1641 -35.1562 L 79.4434 -46.4844 C 80.5176 -47.5586 81.0547 -48.8281 81.0547 -50.1953 C 81.0547 -53.2715 78.7109 -55.6152 75.6836 -55.6152 C 74.1211 -55.6152 72.8516 -55.127 71.7285 -54.0039 L 60.4492 -42.7734 L 49.2188 -53.9551 C 48.1934 -55.0781 46.9238 -55.5664 45.3125 -55.5664 C 42.2852 -55.5664 39.9414 -53.2227 39.9414 -50.1953 C 39.9414 -48.7793 40.5273 -47.4609 41.5527 -46.4355 L 52.832 -35.1562 L 41.5527 -23.8281 C 40.5273 -22.8516 39.9414 -21.5332 39.9414 -20.1172 C 39.9414 -17.0898 42.2852 -14.6973 45.3125 -14.6973 Z"/>
  </g>
  <g id="Semibold-M" transform="matrix(1 0 0 1 1983.5 1126)">
   <path d="M 59.7656 15.8203 C 87.7441 15.8203 110.791 -7.22656 110.791 -35.2051 C 110.791 -63.1836 87.6953 -86.2793 59.7656 -86.2793 C 31.7871 -86.2793 8.74023 -63.1836 8.74023 -35.2051 C 8.74023 -7.22656 31.7871 15.8203 59.7656 15.8203 Z M 59.7656 4.3457 C 37.8418 4.3457 20.2637 -13.2812 20.2637 -35.2051 C 20.2637 -57.1289 37.793 -74.8047 59.7656 -74.8047 C 81.6895 -74.8047 99.3164 -57.1289 99.3652 -35.2051 C 99.3652 -13.2812 81.6895 4.3457 59.7656 4.3457 Z M 44.043 -14.6484 C 45.459 -14.6484 46.6797 -15.1367 47.6074 -16.1133 L 59.7656 -28.2715 L 71.9238 -16.1133 C 72.9004 -15.1855 74.0234 -14.6484 75.4883 -14.6484 C 78.2227 -14.6484 80.3223 -16.7969 80.3223 -19.5312 C 80.3223 -20.8496 79.834 -21.9727 78.8574 -22.9492 L 66.6504 -35.1562 L 78.9062 -47.4609 C 79.8828 -48.4375 80.3711 -49.5605 80.3711 -50.8301 C 80.3711 -53.5645 78.2227 -55.6641 75.5371 -55.6641 C 74.1211 -55.6641 73.0469 -55.2246 72.0215 -54.1992 L 59.7656 -41.9922 L 47.5586 -54.1992 C 46.582 -55.127 45.459 -55.6152 44.043 -55.6152 C 41.3086 -55.6152 39.209 -53.5156 39.209 -50.7812 C 39.209 -49.5117 39.7461 -48.3398 40.6738 -47.4121 L 52.8809 -35.1562 L 40.6738 -22.9004 C 39.7461 -21.9727 39.209 -20.8008 39.209 -19.5312 C 39.209 -16.7969 41.3086 -14.6484 44.043 -14.6484 Z"/>
  </g>
  <g id="Medium-M" transform="matrix(1 0 0 1 1687.3 1126)">
   <path d="M 59.2285 15.2832 C 86.9141 15.2832 109.766 -7.56836 109.766 -35.2051 C 109.766 -62.8906 86.8652 -85.7422 59.1797 -85.7422 C 31.543 -85.7422 8.74023 -62.8906 8.74023 -35.2051 C 8.74023 -7.56836 31.5918 15.2832 59.2285 15.2832 Z M 59.2285 5.17578 C 36.8164 5.17578 18.8965 -12.8418 18.8965 -35.2051 C 18.8965 -57.6172 36.8164 -75.6348 59.1797 -75.6348 C 81.5918 -75.6348 99.6094 -57.6172 99.6582 -35.2051 C 99.707 -12.8418 81.6406 5.17578 59.2285 5.17578 Z M 43.1152 -14.5996 C 44.3848 -14.5996 45.459 -15.0879 46.3379 -15.9668 L 59.1797 -28.8574 L 72.1191 -15.9668 C 72.998 -15.1367 74.0723 -14.5996 75.3418 -14.5996 C 77.832 -14.5996 79.7852 -16.6016 79.7852 -19.0918 C 79.7852 -20.3125 79.3457 -21.3379 78.4668 -22.2168 L 65.5273 -35.1562 L 78.5156 -48.1934 C 79.3945 -49.0723 79.834 -50.0977 79.834 -51.2695 C 79.834 -53.7598 77.8809 -55.7129 75.3906 -55.7129 C 74.1699 -55.7129 73.1934 -55.2734 72.2656 -54.3457 L 59.1797 -41.4062 L 46.2402 -54.3457 C 45.4102 -55.2246 44.3848 -55.6152 43.1152 -55.6152 C 40.625 -55.6152 38.6719 -53.7109 38.6719 -51.2207 C 38.6719 -50.0488 39.1113 -48.9746 39.9902 -48.1445 L 52.9297 -35.1562 L 39.9902 -22.168 C 39.1113 -21.3379 38.6719 -20.2637 38.6719 -19.0918 C 38.6719 -16.6016 40.625 -14.5996 43.1152 -14.5996 Z"/>
  </g>
  <g id="Regular-M" transform="matrix(1 0 0 1 1391.3 1126)">
   <path d="M 58.5449 14.5508 C 85.791 14.5508 108.35 -8.00781 108.35 -35.2539 C 108.35 -62.4512 85.7422 -85.0586 58.4961 -85.0586 C 31.2988 -85.0586 8.74023 -62.4512 8.74023 -35.2539 C 8.74023 -8.00781 31.3477 14.5508 58.5449 14.5508 Z M 58.5449 6.25 C 35.498 6.25 17.0898 -12.207 17.0898 -35.2539 C 17.0898 -58.252 35.4492 -76.7578 58.4961 -76.7578 C 81.543 -76.7578 100 -58.252 100.049 -35.2539 C 100.098 -12.207 81.5918 6.25 58.5449 6.25 Z M 41.8457 -14.5508 C 42.9199 -14.5508 43.9453 -14.9902 44.6289 -15.7715 L 58.4961 -29.6875 L 72.4121 -15.7715 C 73.1445 -15.0391 74.0723 -14.5508 75.1953 -14.5508 C 77.3438 -14.5508 79.1016 -16.3574 79.1016 -18.5059 C 79.1016 -19.6289 78.7109 -20.5566 77.9297 -21.2891 L 64.0625 -35.1562 L 77.9785 -49.1211 C 78.8086 -49.9512 79.1504 -50.7812 79.1504 -51.8555 C 79.1504 -54.0527 77.3926 -55.7617 75.2441 -55.7617 C 74.2188 -55.7617 73.3887 -55.4199 72.5586 -54.5898 L 58.4961 -40.625 L 44.5312 -54.541 C 43.8477 -55.3223 42.9199 -55.6641 41.8457 -55.6641 C 39.6973 -55.6641 37.9395 -54.0039 37.9395 -51.8066 C 37.9395 -50.7324 38.3301 -49.8047 39.1113 -49.0723 L 52.9785 -35.1562 L 39.1113 -21.2402 C 38.3301 -20.5566 37.9395 -19.5801 37.9395 -18.5059 C 37.9395 -16.3574 39.6973 -14.5508 41.8457 -14.5508 Z"/>
  </g>
  <g id="Light-M" transform="matrix(1 0 0 1 1095.42 1126)">
   <path d="M 57.7148 13.7695 C 84.5215 13.7695 106.689 -8.39844 106.689 -35.2051 C 106.689 -62.0117 84.5215 -84.1797 57.666 -84.1797 C 30.8594 -84.1797 8.74023 -62.0117 8.74023 -35.2051 C 8.74023 -8.39844 30.9082 13.7695 57.7148 13.7695 Z M 57.7148 7.4707 C 34.082 7.4707 15.0879 -11.5723 15.0879 -35.2051 C 15.0879 -58.8379 34.082 -77.832 57.666 -77.832 C 81.2988 -77.832 100.342 -58.8379 100.391 -35.2051 C 100.391 -11.5723 81.3477 7.4707 57.7148 7.4707 Z M 40.6738 -15.0391 C 41.5527 -15.0391 42.2852 -15.332 42.9199 -16.0156 L 57.666 -30.8105 L 72.5098 -16.0156 C 73.1445 -15.3809 73.8281 -15.0391 74.7559 -15.0391 C 76.4648 -15.0391 77.832 -16.4062 77.832 -18.0664 C 77.832 -18.9941 77.4902 -19.6777 76.8555 -20.3125 L 62.0117 -35.1562 L 76.9043 -50.0488 C 77.5391 -50.6836 77.832 -51.3672 77.832 -52.1973 C 77.832 -53.9062 76.4648 -55.2246 74.7559 -55.2246 C 73.9258 -55.2246 73.291 -54.9316 72.6074 -54.248 L 57.666 -39.4043 L 42.8711 -54.248 C 42.2363 -54.8828 41.5527 -55.1758 40.6738 -55.1758 C 38.9648 -55.1758 37.5977 -53.8574 37.5977 -52.1973 C 37.5977 -51.3184 37.8906 -50.5859 38.5254 -50 L 53.3691 -35.1562 L 38.5254 -20.2637 C 37.8906 -19.6777 37.5977 -18.9453 37.5977 -18.0664 C 37.5977 -16.4062 38.9648 -15.0391 40.6738 -15.0391 Z"/>
  </g>
  <g id="Thin-M" transform="matrix(1 0 0 1 799.806 1126)">
   <path d="M 56.6406 12.7441 C 82.9102 12.7441 104.492 -8.83789 104.492 -35.1562 C 104.492 -61.4746 82.9102 -83.0566 56.5918 -83.0566 C 30.3223 -83.0566 8.74023 -61.4746 8.74023 -35.1562 C 8.74023 -8.83789 30.3223 12.7441 56.6406 12.7441 Z M 56.6406 8.98438 C 32.2266 8.98438 12.4512 -10.791 12.4512 -35.1562 C 12.4512 -59.5215 32.2266 -79.2969 56.5918 -79.2969 C 81.0059 -79.2969 100.781 -59.5215 100.781 -35.1562 C 100.781 -10.791 81.0059 8.98438 56.6406 8.98438 Z M 39.0625 -15.6738 C 39.6973 -15.6738 40.1367 -15.8203 40.625 -16.3574 L 56.5918 -32.373 L 72.6074 -16.3574 C 73.1445 -15.8691 73.584 -15.6738 74.1699 -15.6738 C 75.2441 -15.6738 76.123 -16.4551 76.123 -17.5293 C 76.123 -18.1152 75.9277 -18.5547 75.4883 -18.9941 L 59.375 -35.1074 L 75.4883 -51.2207 C 75.9277 -51.709 76.123 -52.0996 76.123 -52.6855 C 76.123 -53.7109 75.2441 -54.541 74.1699 -54.541 C 73.584 -54.541 73.1934 -54.3457 72.6562 -53.8574 L 56.5918 -37.8418 L 40.5762 -53.8086 C 40.0879 -54.3457 39.6973 -54.4922 39.0625 -54.4922 C 37.9883 -54.4922 37.1094 -53.7109 37.1094 -52.6855 C 37.1094 -52.0996 37.3047 -51.6602 37.793 -51.2207 L 53.8574 -35.1074 L 37.793 -18.9941 C 37.3047 -18.5547 37.1094 -18.0664 37.1094 -17.5293 C 37.1094 -16.4551 37.9883 -15.6738 39.0625 -15.6738 Z"/>
  </g>
  <g id="Ultralight-M" transform="matrix(1 0 0 1 503.656 1126)">
   <path d="M 56.0547 12.207 C 82.0801 12.207 103.369 -9.08203 103.369 -35.1562 C 103.369 -61.1816 82.0801 -82.4707 56.0547 -82.4707 C 30.0293 -82.4707 8.74023 -61.1816 8.74023 -35.1562 C 8.74023 -9.08203 30.0293 12.207 56.0547 12.207 Z M 56.0547 9.81445 C 31.2988 9.81445 11.1328 -10.3516 11.1328 -35.1562 C 11.1328 -59.9121 31.2988 -80.0781 56.0547 -80.0781 C 80.8594 -80.0781 100.977 -59.9121 100.977 -35.1562 C 100.977 -10.3516 80.8594 9.81445 56.0547 9.81445 Z M 38.2812 -15.9668 C 38.7695 -15.9668 39.0137 -16.0645 39.4531 -16.5039 L 56.0547 -33.1543 L 72.7051 -16.5039 C 73.1445 -16.0645 73.4375 -15.9668 73.8281 -15.9668 C 74.6094 -15.9668 75.2441 -16.5039 75.2441 -17.2363 C 75.2441 -17.627 75.0977 -17.9688 74.7559 -18.3105 L 58.0078 -35.0586 L 74.7559 -51.8066 C 75.0977 -52.1973 75.2441 -52.4902 75.2441 -52.9297 C 75.2441 -53.6621 74.6094 -54.1992 73.8281 -54.1992 C 73.4375 -54.1992 73.0957 -54.0527 72.7051 -53.6133 L 56.0547 -37.0117 L 39.4531 -53.6133 C 39.0137 -54.0527 38.7695 -54.1992 38.2812 -54.1992 C 37.5 -54.1992 36.9141 -53.6621 36.9141 -52.9297 C 36.9141 -52.4902 37.0117 -52.1973 37.3535 -51.8066 L 54.1504 -35.0586 L 37.3535 -18.3105 C 37.0117 -17.9688 36.9141 -17.627 36.9141 -17.2363 C 36.9141 -16.5039 37.5 -15.9668 38.2812 -15.9668 Z"/>
  </g>
  <g id="Black-S" transform="matrix(1 0 0 1 2884.57 696)">
   <path d="M 48.8281 6.78711 C 71.9727 6.78711 90.8203 -12.0605 90.8203 -35.2051 C 90.8203 -58.3496 71.9727 -77.1973 48.8281 -77.1973 C 25.6836 -77.1973 6.83594 -58.3496 6.83594 -35.2051 C 6.83594 -12.0605 25.6836 6.78711 48.8281 6.78711 Z M 48.8281 -7.37305 C 33.4473 -7.37305 20.9961 -19.8242 20.9961 -35.2051 C 20.9961 -50.5859 33.4473 -63.0371 48.8281 -63.0371 C 64.209 -63.0371 76.6602 -50.5859 76.6602 -35.2051 C 76.6602 -19.8242 64.209 -7.37305 48.8281 -7.37305 Z M 38.0859 -19.2383 C 39.7461 -19.2383 41.0156 -19.7266 42.0898 -20.8008 L 48.8281 -27.4902 L 55.6152 -20.8008 C 56.6895 -19.7266 57.959 -19.2383 59.6191 -19.2383 C 62.6465 -19.2383 64.9414 -21.5332 64.9414 -24.6094 C 64.9414 -25.9277 64.3555 -27.2461 63.3301 -28.2715 L 56.4941 -35.1562 L 63.3301 -42.041 C 64.3555 -43.0664 64.9414 -44.3848 64.9414 -45.7031 C 64.9414 -48.7793 62.6465 -51.0742 59.6191 -51.0742 C 57.959 -51.0742 56.6895 -50.5859 55.6152 -49.5117 L 48.8281 -42.7734 L 42.0898 -49.5117 C 41.0156 -50.5859 39.7461 -51.0742 38.0859 -51.0742 C 35.0586 -51.0742 32.7637 -48.7793 32.7637 -45.7031 C 32.7637 -44.3848 33.3496 -43.0664 34.375 -42.041 L 41.2598 -35.1562 L 34.375 -28.2715 C 33.3496 -27.2461 32.7637 -25.9277 32.7637 -24.6094 C 32.7637 -21.5332 35.0586 -19.2383 38.0859 -19.2383 Z"/>
  </g>
  <g id="Heavy-S" transform="matrix(1 0 0 1 2588.47 696)">
   <path d="M 48.2422 6.15234 C 70.9961 6.15234 89.5996 -12.4512 89.5996 -35.2051 C 89.5996 -57.959 70.9961 -76.6113 48.1934 -76.6113 C 25.4395 -76.6113 6.83594 -57.959 6.83594 -35.2051 C 6.83594 -12.4512 25.4395 6.15234 48.2422 6.15234 Z M 48.2422 -6.39648 C 32.2754 -6.39648 19.4336 -19.2871 19.4336 -35.2051 C 19.4336 -51.1719 32.2754 -64.0137 48.1934 -64.0137 C 64.1602 -64.0137 77.002 -51.1719 77.0508 -35.2051 C 77.0508 -19.2871 64.1602 -6.39648 48.2422 -6.39648 Z M 36.9629 -19.1406 C 38.4766 -19.1406 39.6484 -19.5801 40.625 -20.5566 L 48.1934 -28.1738 L 55.8594 -20.5566 C 56.8359 -19.6289 58.0078 -19.1406 59.5215 -19.1406 C 62.2559 -19.1406 64.4043 -21.2891 64.4043 -24.0723 C 64.4043 -25.293 63.8672 -26.5137 62.8906 -27.4414 L 55.2246 -35.1562 L 62.9395 -42.9199 C 63.8672 -43.8477 64.4043 -45.0195 64.4043 -46.2891 C 64.4043 -49.0723 62.2559 -51.1719 59.5215 -51.1719 C 58.0078 -51.1719 56.8848 -50.7324 55.9082 -49.7559 L 48.1934 -42.1387 L 40.5762 -49.7559 C 39.5996 -50.7324 38.4766 -51.1719 36.9629 -51.1719 C 34.1797 -51.1719 32.0801 -49.0723 32.0801 -46.2402 C 32.0801 -45.0195 32.6172 -43.7988 33.5449 -42.8711 L 41.2598 -35.1562 L 33.5449 -27.4414 C 32.6172 -26.5137 32.0801 -25.293 32.0801 -24.0723 C 32.0801 -21.2891 34.1797 -19.1406 36.9629 -19.1406 Z"/>
  </g>
  <g id="Bold-S" transform="matrix(1 0 0 1 2292.44 696)">
   <path d="M 47.5586 5.46875 C 69.873 5.46875 88.2324 -12.8906 88.2324 -35.2051 C 88.2324 -57.5684 69.873 -75.9277 47.5098 -75.9277 C 25.1953 -75.9277 6.83594 -57.5684 6.83594 -35.2051 C 6.83594 -12.8906 25.1953 5.46875 47.5586 5.46875 Z M 47.5586 -5.32227 C 30.957 -5.32227 17.6758 -18.6523 17.6758 -35.2051 C 17.6758 -51.8066 30.957 -65.1367 47.5098 -65.1367 C 64.1113 -65.1367 77.4414 -51.8066 77.4414 -35.2051 C 77.4414 -18.6523 64.1113 -5.32227 47.5586 -5.32227 Z M 35.7422 -19.043 C 37.0117 -19.043 38.0859 -19.4824 38.9648 -20.3125 L 47.5098 -28.9062 L 56.1523 -20.3125 C 56.9824 -19.4824 58.0566 -19.043 59.375 -19.043 C 61.8652 -19.043 63.7695 -20.9961 63.7695 -23.4863 C 63.7695 -24.6094 63.2812 -25.6836 62.4512 -26.5137 L 53.8086 -35.1562 L 62.4512 -43.8477 C 63.3301 -44.7266 63.7695 -45.752 63.7695 -46.9238 C 63.7695 -49.4141 61.8652 -51.3184 59.375 -51.3184 C 58.1055 -51.3184 57.0801 -50.9277 56.2012 -50.0488 L 47.5098 -41.4062 L 38.916 -50 C 38.0371 -50.8789 37.0117 -51.2695 35.7422 -51.2695 C 33.252 -51.2695 31.2988 -49.3652 31.2988 -46.875 C 31.2988 -45.752 31.7871 -44.6777 32.666 -43.8477 L 41.3086 -35.1562 L 32.666 -26.5137 C 31.7871 -25.6836 31.2988 -24.6094 31.2988 -23.4863 C 31.2988 -20.9961 33.252 -19.043 35.7422 -19.043 Z"/>
  </g>
  <g id="Semibold-S" transform="matrix(1 0 0 1 1996.2 696)">
   <path d="M 47.0703 4.98047 C 69.0918 4.98047 87.3047 -13.1836 87.3047 -35.2539 C 87.3047 -57.2754 69.0918 -75.4883 47.0215 -75.4883 C 25 -75.4883 6.83594 -57.2754 6.83594 -35.2539 C 6.83594 -13.1836 25.0488 4.98047 47.0703 4.98047 Z M 47.0703 -4.58984 C 30.0781 -4.58984 16.4551 -18.2129 16.4551 -35.2539 C 16.4551 -52.2461 30.0293 -65.8691 47.0215 -65.8691 C 64.0625 -65.8691 77.6855 -52.2461 77.7344 -35.2539 C 77.7344 -18.2129 64.0625 -4.58984 47.0703 -4.58984 Z M 34.8633 -18.9453 C 36.0352 -18.9453 37.0605 -19.3848 37.793 -20.166 L 47.0215 -29.3945 L 56.3477 -20.166 C 57.0801 -19.3848 58.0566 -18.9453 59.2773 -18.9453 C 61.5723 -18.9453 63.3301 -20.752 63.3301 -23.0469 C 63.3301 -24.1699 62.8906 -25.1465 62.1094 -25.8789 L 52.832 -35.2051 L 62.1582 -44.5312 C 62.9395 -45.3613 63.3789 -46.2891 63.3789 -47.3145 C 63.3789 -49.6094 61.5723 -51.416 59.3262 -51.416 C 58.1543 -51.416 57.2266 -51.0254 56.3965 -50.1953 L 47.0215 -40.918 L 37.7441 -50.1953 C 36.9629 -50.9766 36.0352 -51.3672 34.8633 -51.3672 C 32.5684 -51.3672 30.8105 -49.6094 30.8105 -47.3145 C 30.8105 -46.2402 31.25 -45.2637 32.0312 -44.4824 L 41.3086 -35.2051 L 32.0312 -25.8789 C 31.25 -25.1465 30.8105 -24.1211 30.8105 -23.0469 C 30.8105 -20.752 32.5684 -18.9453 34.8633 -18.9453 Z"/>
  </g>
  <g id="Medium-S" transform="matrix(1 0 0 1 1699.83 696)">
   <path d="M 46.7285 4.63867 C 68.5547 4.63867 86.6211 -13.4277 86.6211 -35.2539 C 86.6211 -57.0312 68.5059 -75.1465 46.6797 -75.1465 C 24.8535 -75.1465 6.83594 -57.0312 6.83594 -35.2539 C 6.83594 -13.4277 24.9023 4.63867 46.7285 4.63867 Z M 46.7285 -4.00391 C 29.3945 -4.00391 15.5273 -17.9199 15.5273 -35.2539 C 15.5273 -52.5879 29.3457 -66.4551 46.6797 -66.4551 C 64.0137 -66.4551 77.8809 -52.5879 77.9297 -35.2539 C 77.9785 -17.9199 64.0625 -4.00391 46.7285 -4.00391 Z M 34.2285 -18.8965 C 35.3027 -18.8965 36.2305 -19.2871 36.9629 -20.0195 L 46.6797 -29.7852 L 56.4453 -20.0195 C 57.1777 -19.3359 58.1055 -18.8965 59.1797 -18.8965 C 61.3281 -18.8965 63.0371 -20.6055 63.0371 -22.7539 C 63.0371 -23.7793 62.5977 -24.707 61.8652 -25.4395 L 52.0996 -35.2051 L 61.9141 -45.0195 C 62.6953 -45.8008 63.0371 -46.6797 63.0371 -47.6562 C 63.0371 -49.8047 61.377 -51.4648 59.2285 -51.4648 C 58.2031 -51.4648 57.373 -51.123 56.5918 -50.3418 L 46.6797 -40.5273 L 36.8652 -50.293 C 36.1816 -51.0742 35.3027 -51.416 34.2285 -51.416 C 32.0801 -51.416 30.4199 -49.7559 30.4199 -47.6074 C 30.4199 -46.6309 30.8105 -45.7031 31.543 -45.0195 L 41.3086 -35.2051 L 31.543 -25.3906 C 30.8105 -24.707 30.4199 -23.7793 30.4199 -22.7539 C 30.4199 -20.6055 32.0801 -18.8965 34.2285 -18.8965 Z"/>
  </g>
  <g id="Regular-S" transform="matrix(1 0 0 1 1403.58 696)">
   <path d="M 46.2402 4.15039 C 67.7734 4.15039 85.6934 -13.7207 85.6934 -35.2539 C 85.6934 -56.7871 67.7246 -74.6582 46.1914 -74.6582 C 24.707 -74.6582 6.83594 -56.7871 6.83594 -35.2539 C 6.83594 -13.7207 24.7559 4.15039 46.2402 4.15039 Z M 46.2402 -3.27148 C 28.5156 -3.27148 14.3555 -17.4805 14.3555 -35.2539 C 14.3555 -53.0273 28.4668 -67.2363 46.1914 -67.2363 C 63.9648 -67.2363 78.1738 -53.0273 78.2227 -35.2539 C 78.2715 -17.4805 64.0137 -3.27148 46.2402 -3.27148 Z M 33.3496 -18.7988 C 34.3262 -18.7988 35.2051 -19.1895 35.791 -19.873 L 46.1914 -30.3223 L 56.6406 -19.873 C 57.2754 -19.2383 58.1055 -18.7988 59.1309 -18.7988 C 61.0352 -18.7988 62.5977 -20.4102 62.5977 -22.3633 C 62.5977 -23.3398 62.207 -24.1211 61.5723 -24.8047 L 51.1719 -35.2051 L 61.6211 -45.7031 C 62.3047 -46.3867 62.6465 -47.168 62.6465 -48.0957 C 62.6465 -50.0488 61.084 -51.5625 59.1797 -51.5625 C 58.252 -51.5625 57.5195 -51.2695 56.7871 -50.5371 L 46.1914 -40.0391 L 35.7422 -50.4883 C 35.1074 -51.1719 34.3262 -51.4648 33.3496 -51.4648 C 31.4453 -51.4648 29.8828 -50 29.8828 -48.0469 C 29.8828 -47.1191 30.2734 -46.2891 30.9082 -45.6543 L 41.3086 -35.2051 L 30.9082 -24.7559 C 30.2734 -24.1211 29.8828 -23.291 29.8828 -22.3633 C 29.8828 -20.4102 31.4453 -18.7988 33.3496 -18.7988 Z"/>
  </g>
  <g id="Light-S" transform="matrix(1 0 0 1 1107.6 696)">
   <path d="M 45.5078 3.4668 C 66.6992 3.4668 84.2285 -14.0625 84.2285 -35.2051 C 84.2285 -56.3965 66.6504 -73.9258 45.5078 -73.9258 C 24.3164 -73.9258 6.83594 -56.3965 6.83594 -35.2051 C 6.83594 -14.0625 24.3652 3.4668 45.5078 3.4668 Z M 45.5078 -2.24609 C 27.2461 -2.24609 12.5977 -16.9434 12.5977 -35.2051 C 12.5977 -53.5156 27.1973 -68.2129 45.5078 -68.2129 C 63.7695 -68.2129 78.4668 -53.5156 78.5156 -35.2051 C 78.5156 -16.9434 63.8184 -2.24609 45.5078 -2.24609 Z M 32.3242 -19.2383 C 33.0566 -19.2383 33.7402 -19.5312 34.2773 -20.0684 L 45.5078 -31.3477 L 56.7383 -20.0684 C 57.2754 -19.5312 57.9102 -19.2383 58.6914 -19.2383 C 60.2539 -19.2383 61.4258 -20.459 61.4258 -21.9727 C 61.4258 -22.7539 61.1816 -23.3887 60.5957 -23.9258 L 49.3652 -35.1562 L 60.6445 -46.4844 C 61.2305 -47.0703 61.4746 -47.6562 61.4746 -48.3887 C 61.4746 -49.9023 60.2539 -51.123 58.7402 -51.123 C 58.0078 -51.123 57.4219 -50.8301 56.8359 -50.2441 L 45.5078 -38.9648 L 34.2285 -50.2441 C 33.6914 -50.7812 33.0566 -51.0254 32.3242 -51.0254 C 30.7617 -51.0254 29.5898 -49.9023 29.5898 -48.3887 C 29.5898 -47.6074 29.834 -46.9727 30.4199 -46.4355 L 41.6504 -35.1562 L 30.4199 -23.877 C 29.834 -23.3887 29.5898 -22.7051 29.5898 -21.9727 C 29.5898 -20.459 30.7617 -19.2383 32.3242 -19.2383 Z"/>
  </g>
  <g id="Thin-S" transform="matrix(1 0 0 1 811.867 696)">
   <path d="M 44.5801 2.53906 C 65.2832 2.53906 82.2754 -14.4531 82.2754 -35.2051 C 82.2754 -55.9082 65.2344 -72.9004 44.5312 -72.9004 C 23.8281 -72.9004 6.83594 -55.9082 6.83594 -35.2051 C 6.83594 -14.4531 23.877 2.53906 44.5801 2.53906 Z M 44.5801 -0.878906 C 25.5859 -0.878906 10.2539 -16.2109 10.2539 -35.2051 C 10.2539 -54.1504 25.5859 -69.4824 44.5312 -69.4824 C 63.5254 -69.4824 78.8574 -54.1504 78.8574 -35.2051 C 78.8574 -16.2109 63.5254 -0.878906 44.5801 -0.878906 Z M 30.9082 -19.7754 C 31.4453 -19.7754 31.8359 -19.9219 32.2266 -20.3613 L 44.5312 -32.666 L 56.8359 -20.3613 C 57.2754 -19.9707 57.666 -19.7754 58.2031 -19.7754 C 59.1797 -19.7754 59.9609 -20.5078 59.9609 -21.4844 C 59.9609 -21.9727 59.7656 -22.3633 59.375 -22.7539 L 47.0215 -35.1562 L 59.375 -47.5098 C 59.8145 -47.9492 59.9609 -48.291 59.9609 -48.8281 C 59.9609 -49.7559 59.1797 -50.4883 58.2031 -50.4883 C 57.7148 -50.4883 57.3242 -50.3418 56.8848 -49.9023 L 44.5312 -37.5488 L 32.2266 -49.9023 C 31.7871 -50.293 31.4453 -50.4883 30.9082 -50.4883 C 29.9316 -50.4883 29.1504 -49.7559 29.1504 -48.7793 C 29.1504 -48.291 29.3457 -47.9004 29.7363 -47.5098 L 42.0898 -35.1562 L 29.7363 -22.7539 C 29.3457 -22.3633 29.1504 -21.9727 29.1504 -21.4844 C 29.1504 -20.5078 29.9316 -19.7754 30.9082 -19.7754 Z"/>
  </g>
  <g id="Ultralight-S" transform="matrix(1 0 0 1 515.644 696)">
   <path d="M 44.043 2.05078 C 64.502 2.05078 81.2988 -14.6973 81.2988 -35.1562 C 81.2988 -55.6152 64.502 -72.3633 44.043 -72.3633 C 23.584 -72.3633 6.83594 -55.6152 6.83594 -35.1562 C 6.83594 -14.6973 23.584 2.05078 44.043 2.05078 Z M 44.043 -0.146484 C 24.7559 -0.146484 9.08203 -15.8691 9.08203 -35.1562 C 9.08203 -54.4434 24.7559 -70.166 44.043 -70.166 C 63.3789 -70.166 79.0527 -54.4434 79.0527 -35.1562 C 79.0527 -15.8691 63.3789 -0.146484 44.043 -0.146484 Z M 30.1758 -20.0684 C 30.6152 -20.0684 30.8594 -20.166 31.2012 -20.5078 L 44.043 -33.3984 L 56.9336 -20.5078 C 57.2754 -20.166 57.5684 -20.0684 57.9102 -20.0684 C 58.6426 -20.0684 59.1797 -20.5566 59.1797 -21.1914 C 59.1797 -21.582 59.0332 -21.8262 58.7402 -22.168 L 45.8008 -35.1074 L 58.7402 -48.0469 C 59.0332 -48.3887 59.1797 -48.6328 59.1797 -49.0234 C 59.1797 -49.6582 58.6426 -50.1465 57.9102 -50.1465 C 57.5684 -50.1465 57.2754 -50.0488 56.9336 -49.707 L 44.043 -36.8164 L 31.2012 -49.707 C 30.8594 -50.0488 30.6152 -50.1465 30.1758 -50.1465 C 29.4922 -50.1465 28.9551 -49.6582 28.9551 -49.0234 C 28.9551 -48.6328 29.0527 -48.3887 29.3945 -48.0469 L 42.334 -35.1074 L 29.3945 -22.168 C 29.0527 -21.8262 28.9551 -21.582 28.9551 -21.1914 C 28.9551 -20.5566 29.4922 -20.0684 30.1758 -20.0684 Z"/>
  </g>
 </g>
</svg>
