<?xml version="1.0" encoding="UTF-8"?>
<!--Generator: Apple Native CoreSVG 123-->
<!DOCTYPE svg
PUBLIC "-//W3C//DTD SVG 1.1//EN"
       "http://www.w3.org/Graphics/SVG/1.1/DTD/svg11.dtd">
<svg version="1.1" xmlns="http://www.w3.org/2000/svg" xmlns:xlink="http://www.w3.org/1999/xlink" width="3300" height="2200">
 <!--glyph: "uni100597.medium", point size: 100.000000, font version: "Version 15.0d7e11", template writer version: "5"-->
 <g id="Notes">
  <rect height="2200" id="artboard" style="fill:white;opacity:1" width="3300" x="0" y="0"/>
  <line id="" style="fill:none;stroke:black;opacity:1;stroke-width:0.5;" x1="263" x2="3036" y1="292" y2="292"/>
  <text style="stroke:none;fill:black;font-family:-apple-system,&quot;SF Pro Display&quot;,&quot;SF Pro Text&quot;,Helvetica,sans-serif;font-weight:bold;" transform="matrix(1 0 0 1 263 322)">Weight/Scale Variations</text>
  <text style="stroke:none;fill:black;font-family:-apple-system,&quot;SF Pro Display&quot;,&quot;SF Pro Text&quot;,Helvetica,sans-serif;text-anchor:middle;" transform="matrix(1 0 0 1 559.711 322)">Ultralight</text>
  <text style="stroke:none;fill:black;font-family:-apple-system,&quot;SF Pro Display&quot;,&quot;SF Pro Text&quot;,Helvetica,sans-serif;text-anchor:middle;" transform="matrix(1 0 0 1 856.422 322)">Thin</text>
  <text style="stroke:none;fill:black;font-family:-apple-system,&quot;SF Pro Display&quot;,&quot;SF Pro Text&quot;,Helvetica,sans-serif;text-anchor:middle;" transform="matrix(1 0 0 1 1153.13 322)">Light</text>
  <text style="stroke:none;fill:black;font-family:-apple-system,&quot;SF Pro Display&quot;,&quot;SF Pro Text&quot;,Helvetica,sans-serif;text-anchor:middle;" transform="matrix(1 0 0 1 1449.84 322)">Regular</text>
  <text style="stroke:none;fill:black;font-family:-apple-system,&quot;SF Pro Display&quot;,&quot;SF Pro Text&quot;,Helvetica,sans-serif;text-anchor:middle;" transform="matrix(1 0 0 1 1746.56 322)">Medium</text>
  <text style="stroke:none;fill:black;font-family:-apple-system,&quot;SF Pro Display&quot;,&quot;SF Pro Text&quot;,Helvetica,sans-serif;text-anchor:middle;" transform="matrix(1 0 0 1 2043.27 322)">Semibold</text>
  <text style="stroke:none;fill:black;font-family:-apple-system,&quot;SF Pro Display&quot;,&quot;SF Pro Text&quot;,Helvetica,sans-serif;text-anchor:middle;" transform="matrix(1 0 0 1 2339.98 322)">Bold</text>
  <text style="stroke:none;fill:black;font-family:-apple-system,&quot;SF Pro Display&quot;,&quot;SF Pro Text&quot;,Helvetica,sans-serif;text-anchor:middle;" transform="matrix(1 0 0 1 2636.69 322)">Heavy</text>
  <text style="stroke:none;fill:black;font-family:-apple-system,&quot;SF Pro Display&quot;,&quot;SF Pro Text&quot;,Helvetica,sans-serif;text-anchor:middle;" transform="matrix(1 0 0 1 2933.4 322)">Black</text>
  <line id="" style="fill:none;stroke:black;opacity:1;stroke-width:0.5;" x1="263" x2="3036" y1="1903" y2="1903"/>
  <g id="" transform="matrix(1 0 0 1 263 1933)">
   <path d="M 9.24805 0.830078 C 13.5547 0.830078 17.1387 -2.74414 17.1387 -7.05078 C 17.1387 -11.3574 13.5449 -14.9316 9.23828 -14.9316 C 4.94141 -14.9316 1.36719 -11.3574 1.36719 -7.05078 C 1.36719 -2.74414 4.95117 0.830078 9.24805 0.830078 Z M 9.24805 -0.654297 C 5.70312 -0.654297 2.87109 -3.49609 2.87109 -7.05078 C 2.87109 -10.6055 5.69336 -13.4473 9.23828 -13.4473 C 12.793 -13.4473 15.6348 -10.6055 15.6445 -7.05078 C 15.6543 -3.49609 12.8027 -0.654297 9.24805 -0.654297 Z M 9.22852 -3.42773 C 9.69727 -3.42773 9.9707 -3.74023 9.9707 -4.25781 L 9.9707 -6.31836 L 12.1973 -6.31836 C 12.6953 -6.31836 13.0371 -6.57227 13.0371 -7.04102 C 13.0371 -7.51953 12.7148 -7.7832 12.1973 -7.7832 L 9.9707 -7.7832 L 9.9707 -10.0098 C 9.9707 -10.5273 9.69727 -10.8496 9.22852 -10.8496 C 8.75977 -10.8496 8.50586 -10.5078 8.50586 -10.0098 L 8.50586 -7.7832 L 6.29883 -7.7832 C 5.78125 -7.7832 5.44922 -7.51953 5.44922 -7.04102 C 5.44922 -6.57227 5.80078 -6.31836 6.29883 -6.31836 L 8.50586 -6.31836 L 8.50586 -4.25781 C 8.50586 -3.75977 8.75977 -3.42773 9.22852 -3.42773 Z"/>
  </g>
  <g id="" transform="matrix(1 0 0 1 281.506 1933)">
   <path d="M 11.709 2.91016 C 17.1582 2.91016 21.6699 -1.60156 21.6699 -7.05078 C 21.6699 -12.4902 17.1484 -17.0117 11.6992 -17.0117 C 6.25977 -17.0117 1.74805 -12.4902 1.74805 -7.05078 C 1.74805 -1.60156 6.26953 2.91016 11.709 2.91016 Z M 11.709 1.25 C 7.09961 1.25 3.41797 -2.44141 3.41797 -7.05078 C 3.41797 -11.6504 7.08984 -15.3516 11.6992 -15.3516 C 16.3086 -15.3516 20 -11.6504 20.0098 -7.05078 C 20.0195 -2.44141 16.3184 1.25 11.709 1.25 Z M 11.6895 -2.41211 C 12.207 -2.41211 12.5195 -2.77344 12.5195 -3.33984 L 12.5195 -6.23047 L 15.5762 -6.23047 C 16.123 -6.23047 16.5039 -6.51367 16.5039 -7.03125 C 16.5039 -7.55859 16.1426 -7.86133 15.5762 -7.86133 L 12.5195 -7.86133 L 12.5195 -10.9277 C 12.5195 -11.5039 12.207 -11.8555 11.6895 -11.8555 C 11.1719 -11.8555 10.8789 -11.4844 10.8789 -10.9277 L 10.8789 -7.86133 L 7.83203 -7.86133 C 7.26562 -7.86133 6.89453 -7.55859 6.89453 -7.03125 C 6.89453 -6.51367 7.28516 -6.23047 7.83203 -6.23047 L 10.8789 -6.23047 L 10.8789 -3.33984 C 10.8789 -2.79297 11.1719 -2.41211 11.6895 -2.41211 Z"/>
  </g>
  <g id="" transform="matrix(1 0 0 1 304.924 1933)">
   <path d="M 14.9707 5.67383 C 21.9336 5.67383 27.6953 -0.078125 27.6953 -7.04102 C 27.6953 -14.0039 21.9238 -19.7559 14.9609 -19.7559 C 8.00781 -19.7559 2.25586 -14.0039 2.25586 -7.04102 C 2.25586 -0.078125 8.01758 5.67383 14.9707 5.67383 Z M 14.9707 3.85742 C 8.93555 3.85742 4.08203 -1.00586 4.08203 -7.04102 C 4.08203 -13.0762 8.92578 -17.9395 14.9609 -17.9395 C 21.0059 -17.9395 25.8594 -13.0762 25.8691 -7.04102 C 25.8789 -1.00586 21.0156 3.85742 14.9707 3.85742 Z M 14.9512 -1.06445 C 15.5176 -1.06445 15.8691 -1.45508 15.8691 -2.06055 L 15.8691 -6.13281 L 20.1074 -6.13281 C 20.6934 -6.13281 21.1133 -6.46484 21.1133 -7.02148 C 21.1133 -7.59766 20.7227 -7.93945 20.1074 -7.93945 L 15.8691 -7.93945 L 15.8691 -12.1875 C 15.8691 -12.8027 15.5176 -13.1934 14.9512 -13.1934 C 14.3848 -13.1934 14.0625 -12.7832 14.0625 -12.1875 L 14.0625 -7.93945 L 9.83398 -7.93945 C 9.21875 -7.93945 8.80859 -7.59766 8.80859 -7.02148 C 8.80859 -6.46484 9.23828 -6.13281 9.83398 -6.13281 L 14.0625 -6.13281 L 14.0625 -2.06055 C 14.0625 -1.47461 14.3848 -1.06445 14.9512 -1.06445 Z"/>
  </g>
  <text style="stroke:none;fill:black;font-family:-apple-system,&quot;SF Pro Display&quot;,&quot;SF Pro Text&quot;,Helvetica,sans-serif;font-weight:bold;" transform="matrix(1 0 0 1 263 1953)">Design Variations</text>
  <text style="stroke:none;fill:black;font-family:-apple-system,&quot;SF Pro Display&quot;,&quot;SF Pro Text&quot;,Helvetica,sans-serif;" transform="matrix(1 0 0 1 263 1971)">Symbols are supported in up to nine weights and three scales.</text>
  <text style="stroke:none;fill:black;font-family:-apple-system,&quot;SF Pro Display&quot;,&quot;SF Pro Text&quot;,Helvetica,sans-serif;" transform="matrix(1 0 0 1 263 1989)">For optimal layout with text and other symbols, vertically align</text>
  <text style="stroke:none;fill:black;font-family:-apple-system,&quot;SF Pro Display&quot;,&quot;SF Pro Text&quot;,Helvetica,sans-serif;" transform="matrix(1 0 0 1 263 2007)">symbols with the adjacent text.</text>
  <rect height="14" id="" style="fill:#00AEEF;stroke:none;opacity:0.4;" width="3" x="776" y="1919"/>
  <g id="" transform="matrix(1 0 0 1 779 1933)">
   <path d="M 10.5273 0 L 12.373 0 L 7.17773 -14.0918 L 5.43945 -14.0918 L 0.244141 0 L 2.08984 0 L 3.50586 -4.0332 L 9.11133 -4.0332 Z M 6.2793 -11.9531 L 6.33789 -11.9531 L 8.59375 -5.52734 L 4.02344 -5.52734 Z"/>
  </g>
  <rect height="14" id="" style="fill:#00AEEF;stroke:none;opacity:0.4;" width="3" x="791.617" y="1919"/>
  <text style="stroke:none;fill:black;font-family:-apple-system,&quot;SF Pro Display&quot;,&quot;SF Pro Text&quot;,Helvetica,sans-serif;font-weight:bold;" transform="matrix(1 0 0 1 776 1953)">Margins</text>
  <text style="stroke:none;fill:black;font-family:-apple-system,&quot;SF Pro Display&quot;,&quot;SF Pro Text&quot;,Helvetica,sans-serif;" transform="matrix(1 0 0 1 776 1971)">Leading and trailing margins on the left and right side of each symbol</text>
  <text style="stroke:none;fill:black;font-family:-apple-system,&quot;SF Pro Display&quot;,&quot;SF Pro Text&quot;,Helvetica,sans-serif;" transform="matrix(1 0 0 1 776 1989)">can be adjusted by modifying the width of the blue rectangles.</text>
  <text style="stroke:none;fill:black;font-family:-apple-system,&quot;SF Pro Display&quot;,&quot;SF Pro Text&quot;,Helvetica,sans-serif;" transform="matrix(1 0 0 1 776 2007)">Modifications are automatically applied proportionally to all</text>
  <text style="stroke:none;fill:black;font-family:-apple-system,&quot;SF Pro Display&quot;,&quot;SF Pro Text&quot;,Helvetica,sans-serif;" transform="matrix(1 0 0 1 776 2025)">scales and weights.</text>
  <g id="" transform="matrix(1 0 0 1 1289 1933)">
   <path d="M 2.83203 3.11523 L 4.375 4.6582 C 5.22461 5.48828 6.19141 5.41992 7.06055 4.46289 L 17.2754 -6.66016 C 17.7051 -6.36719 18.0957 -6.37695 18.5645 -6.47461 L 19.6094 -6.68945 L 20.3027 -5.99609 L 20.2539 -5.47852 C 20.1855 -4.95117 20.3516 -4.53125 20.8496 -4.0332 L 21.6602 -3.22266 C 22.168 -2.71484 22.8223 -2.68555 23.3008 -3.16406 L 26.5527 -6.41602 C 27.0312 -6.89453 27.0117 -7.54883 26.5039 -8.05664 L 25.6836 -8.87695 C 25.1855 -9.375 24.7754 -9.55078 24.2383 -9.47266 L 23.7109 -9.41406 L 23.0566 -10.0781 L 23.3398 -11.2207 C 23.4863 -11.7871 23.3398 -12.2559 22.7148 -12.8613 L 20.3027 -15.2539 C 16.7578 -18.7793 12.2266 -18.6719 9.11133 -15.5371 C 8.69141 -15.1074 8.64258 -14.5215 8.91602 -14.0918 C 9.15039 -13.7207 9.62891 -13.4961 10.2734 -13.6621 C 11.7871 -14.043 13.3008 -13.9258 14.7852 -12.9199 L 14.1602 -11.3379 C 13.9258 -10.752 13.9453 -10.2734 14.1797 -9.83398 L 3.01758 0.439453 C 2.08008 1.30859 1.97266 2.25586 2.83203 3.11523 Z M 10.6738 -15.1465 C 13.3398 -17.1387 16.6504 -16.8262 19.0527 -14.4141 L 21.6797 -11.8066 C 21.9141 -11.5723 21.9434 -11.3867 21.8848 -11.0938 L 21.5039 -9.53125 L 23.0762 -7.95898 L 24.043 -8.04688 C 24.3262 -8.07617 24.4141 -8.05664 24.6387 -7.83203 L 25.2637 -7.20703 L 22.5098 -4.46289 L 21.8848 -5.07812 C 21.6602 -5.30273 21.6406 -5.40039 21.6699 -5.68359 L 21.7578 -6.64062 L 20.1953 -8.20312 L 18.5742 -7.89062 C 18.291 -7.83203 18.1445 -7.83203 17.9102 -8.07617 L 15.7324 -10.2539 C 15.5078 -10.4883 15.4785 -10.625 15.6055 -10.9473 L 16.5527 -13.2227 C 14.9512 -14.7559 12.8418 -15.6055 10.8008 -14.9512 C 10.7129 -14.9219 10.6445 -14.9414 10.6152 -14.9805 C 10.5859 -15.0293 10.5859 -15.0781 10.6738 -15.1465 Z M 4.10156 2.41211 C 3.61328 1.91406 3.78906 1.61133 4.12109 1.30859 L 15.0781 -8.80859 L 16.3086 -7.57812 L 6.15234 3.34961 C 5.84961 3.68164 5.46875 3.7793 5.06836 3.37891 Z"/>
  </g>
  <text style="stroke:none;fill:black;font-family:-apple-system,&quot;SF Pro Display&quot;,&quot;SF Pro Text&quot;,Helvetica,sans-serif;font-weight:bold;" transform="matrix(1 0 0 1 1289 1953)">Exporting</text>
  <text style="stroke:none;fill:black;font-family:-apple-system,&quot;SF Pro Display&quot;,&quot;SF Pro Text&quot;,Helvetica,sans-serif;" transform="matrix(1 0 0 1 1289 1971)">Symbols should be outlined when exporting to ensure the</text>
  <text style="stroke:none;fill:black;font-family:-apple-system,&quot;SF Pro Display&quot;,&quot;SF Pro Text&quot;,Helvetica,sans-serif;" transform="matrix(1 0 0 1 1289 1989)">design is preserved when submitting to Xcode.</text>
  <text id="template-version" style="stroke:none;fill:black;font-family:-apple-system,&quot;SF Pro Display&quot;,&quot;SF Pro Text&quot;,Helvetica,sans-serif;text-anchor:end;" transform="matrix(1 0 0 1 3036 1933)">Template v.1.0</text>
  <text style="stroke:none;fill:black;font-family:-apple-system,&quot;SF Pro Display&quot;,&quot;SF Pro Text&quot;,Helvetica,sans-serif;text-anchor:end;" transform="matrix(1 0 0 1 3036 1951)">Generated from dollarsign.circle</text>
  <text style="stroke:none;fill:black;font-family:-apple-system,&quot;SF Pro Display&quot;,&quot;SF Pro Text&quot;,Helvetica,sans-serif;text-anchor:end;" transform="matrix(1 0 0 1 3036 1969)">Typeset at 100 points</text>
  <text style="stroke:none;fill:black;font-family:-apple-system,&quot;SF Pro Display&quot;,&quot;SF Pro Text&quot;,Helvetica,sans-serif;" transform="matrix(1 0 0 1 263 726)">Small</text>
  <text style="stroke:none;fill:black;font-family:-apple-system,&quot;SF Pro Display&quot;,&quot;SF Pro Text&quot;,Helvetica,sans-serif;" transform="matrix(1 0 0 1 263 1156)">Medium</text>
  <text style="stroke:none;fill:black;font-family:-apple-system,&quot;SF Pro Display&quot;,&quot;SF Pro Text&quot;,Helvetica,sans-serif;" transform="matrix(1 0 0 1 263 1586)">Large</text>
 </g>
 <g id="Guides">
  <g id="H-reference" style="fill:#27AAE1;stroke:none;" transform="matrix(1 0 0 1 339 696)">
   <path d="M 54.9316 0 L 57.666 0 L 30.5664 -70.459 L 28.0762 -70.459 L 0.976562 0 L 3.66211 0 L 12.9395 -24.4629 L 45.7031 -24.4629 Z M 29.1992 -67.0898 L 29.4434 -67.0898 L 44.8242 -26.709 L 13.8184 -26.709 Z"/>
  </g>
  <line id="Baseline-S" style="fill:none;stroke:#27AAE1;opacity:1;stroke-width:0.577;" x1="263" x2="3036" y1="696" y2="696"/>
  <line id="Capline-S" style="fill:none;stroke:#27AAE1;opacity:1;stroke-width:0.577;" x1="263" x2="3036" y1="625.541" y2="625.541"/>
  <g id="H-reference" style="fill:#27AAE1;stroke:none;" transform="matrix(1 0 0 1 339 1126)">
   <path d="M 54.9316 0 L 57.666 0 L 30.5664 -70.459 L 28.0762 -70.459 L 0.976562 0 L 3.66211 0 L 12.9395 -24.4629 L 45.7031 -24.4629 Z M 29.1992 -67.0898 L 29.4434 -67.0898 L 44.8242 -26.709 L 13.8184 -26.709 Z"/>
  </g>
  <line id="Baseline-M" style="fill:none;stroke:#27AAE1;opacity:1;stroke-width:0.577;" x1="263" x2="3036" y1="1126" y2="1126"/>
  <line id="Capline-M" style="fill:none;stroke:#27AAE1;opacity:1;stroke-width:0.577;" x1="263" x2="3036" y1="1055.54" y2="1055.54"/>
  <g id="H-reference" style="fill:#27AAE1;stroke:none;" transform="matrix(1 0 0 1 339 1556)">
   <path d="M 54.9316 0 L 57.666 0 L 30.5664 -70.459 L 28.0762 -70.459 L 0.976562 0 L 3.66211 0 L 12.9395 -24.4629 L 45.7031 -24.4629 Z M 29.1992 -67.0898 L 29.4434 -67.0898 L 44.8242 -26.709 L 13.8184 -26.709 Z"/>
  </g>
  <line id="Baseline-L" style="fill:none;stroke:#27AAE1;opacity:1;stroke-width:0.577;" x1="263" x2="3036" y1="1556" y2="1556"/>
  <line id="Capline-L" style="fill:none;stroke:#27AAE1;opacity:1;stroke-width:0.577;" x1="263" x2="3036" y1="1485.54" y2="1485.54"/>
  <rect height="119.336" id="left-margin" style="fill:#00AEEF;stroke:none;opacity:0.4;" width="8.74023" x="1391.3" y="1030.79"/>
  <rect height="119.336" id="right-margin" style="fill:#00AEEF;stroke:none;opacity:0.4;" width="8.74023" x="1499.65" y="1030.79"/>
 </g>
 <g id="Symbols">
  <g id="Black-L" transform="matrix(1 0 0 1 2854.05 1556)">
   <path d="M 79.3457 32.8613 C 116.748 32.8613 147.412 2.19727 147.412 -35.2051 C 147.412 -72.6074 116.748 -103.271 79.2969 -103.271 C 41.8945 -103.271 11.2793 -72.6074 11.2793 -35.2051 C 11.2793 2.19727 41.9434 32.8613 79.3457 32.8613 Z M 79.3457 12.4023 C 52.9785 12.4023 31.7383 -8.83789 31.7383 -35.2051 C 31.7383 -61.5723 52.9297 -82.8125 79.2969 -82.8125 C 105.664 -82.8125 126.953 -61.5723 126.953 -35.2051 C 127.002 -8.83789 105.713 12.4023 79.3457 12.4023 Z M 79.2969 -1.66016 C 80.8594 -1.66016 81.9336 -2.73438 81.9336 -4.39453 L 81.9336 -7.95898 C 93.5547 -8.88672 101.367 -15.2344 101.367 -25.0488 C 101.367 -33.8379 95.8984 -38.5742 84.8633 -40.7715 L 81.9336 -41.3574 L 81.9336 -51.1719 C 84.3262 -50.6348 85.9375 -49.3164 87.0117 -47.2168 C 88.7207 -44.5801 90.7227 -43.2617 93.6523 -43.2617 C 97.4609 -43.2617 99.9023 -45.4102 99.9023 -48.6816 C 99.9023 -49.6582 99.6582 -50.6348 99.3652 -51.5137 C 97.5586 -57.1289 91.4551 -61.7676 81.9336 -62.5977 L 81.9336 -66.4062 C 81.9336 -68.0664 80.8594 -69.1406 79.2969 -69.1406 C 77.7832 -69.1406 76.709 -68.0664 76.709 -66.4062 L 76.709 -62.5977 C 65.5762 -61.8164 57.7148 -55.5176 57.7148 -45.8984 C 57.7148 -37.1582 63.3789 -32.2754 73.877 -30.0293 L 76.709 -29.4434 L 76.709 -19.2383 C 73.4863 -19.7266 71.7285 -21.2402 70.8496 -23.2422 C 69.4336 -25.9277 67.4316 -27.4414 64.4043 -27.4414 C 60.2051 -27.4414 57.8613 -24.9512 57.8613 -21.4355 C 57.8613 -20.5078 58.0078 -19.5312 58.4961 -18.457 C 60.3516 -13.5254 66.1621 -8.54492 76.709 -7.95898 L 76.709 -4.39453 C 76.709 -2.73438 77.7832 -1.66016 79.2969 -1.66016 Z M 76.709 -42.627 L 76.2695 -42.7246 C 73.1445 -43.5059 71.582 -44.9219 71.582 -47.0703 C 71.582 -49.3164 73.4863 -51.0254 76.709 -51.3672 Z M 81.9336 -28.2227 L 82.6172 -28.0762 C 86.1816 -27.2461 87.5488 -25.9766 87.5488 -23.6816 C 87.5488 -21.1914 85.5957 -19.6777 81.9336 -19.2383 Z"/>
  </g>
  <g id="Heavy-L" transform="matrix(1 0 0 1 2558.39 1556)">
   <path d="M 78.2715 31.7871 C 115.088 31.7871 145.312 1.61133 145.312 -35.2051 C 145.312 -72.0215 115.039 -102.197 78.2715 -102.197 C 41.4551 -102.197 11.2793 -72.0215 11.2793 -35.2051 C 11.2793 1.61133 41.5039 31.7871 78.2715 31.7871 Z M 78.2715 14.0137 C 51.0254 14.0137 29.0527 -7.95898 29.0527 -35.2051 C 29.0527 -62.5 50.9766 -84.4727 78.2715 -84.4727 C 105.518 -84.4727 127.49 -62.5 127.539 -35.2051 C 127.539 -7.95898 105.566 14.0137 78.2715 14.0137 Z M 78.2715 -1.17188 C 79.7852 -1.17188 80.9082 -2.24609 80.9082 -3.85742 L 80.9082 -7.71484 C 92.0898 -8.64258 99.8047 -14.7949 99.8047 -24.5117 C 99.8047 -33.1543 94.3848 -37.9395 83.3984 -40.0879 L 80.9082 -40.625 L 80.9082 -52.4902 C 83.8867 -51.9043 85.9863 -50.1465 87.1094 -47.5098 C 88.5254 -45.0684 90.2832 -43.7988 92.9199 -43.7988 C 96.3379 -43.7988 98.4863 -45.8008 98.4863 -48.7305 C 98.4863 -49.6094 98.291 -50.5371 98.0469 -51.3672 C 96.2891 -57.2266 90.0879 -61.8652 80.9082 -62.6953 L 80.9082 -66.6504 C 80.9082 -68.2617 79.7852 -69.3359 78.2715 -69.3359 C 76.709 -69.3359 75.6348 -68.2617 75.6348 -66.6504 L 75.6348 -62.6953 C 64.8926 -61.9141 57.2754 -55.6641 57.2754 -46.3379 C 57.2754 -37.8418 62.8906 -33.0078 73.3398 -30.7129 L 75.6348 -30.2246 L 75.6348 -17.8223 C 71.7285 -18.3594 69.4824 -20.3125 68.5547 -22.998 C 67.334 -25.4395 65.5762 -26.8555 62.8418 -26.8555 C 59.2285 -26.8555 57.0801 -24.6582 57.0801 -21.4844 C 57.0801 -20.6055 57.2754 -19.7266 57.6172 -18.75 C 59.4727 -13.2324 65.5273 -8.34961 75.6348 -7.71484 L 75.6348 -3.85742 C 75.6348 -2.19727 76.7578 -1.17188 78.2715 -1.17188 Z M 75.6348 -41.8945 L 75.1953 -41.9922 C 71.3379 -43.0176 69.4824 -44.6777 69.4824 -47.3145 C 69.4824 -50.0488 71.8262 -52.1484 75.6348 -52.5879 Z M 80.9082 -29.0039 L 81.7383 -28.8086 C 86.0352 -27.7344 87.6465 -26.123 87.6465 -23.3398 C 87.6465 -20.3125 85.3027 -18.3105 80.9082 -17.8223 Z"/>
  </g>
  <g id="Bold-L" transform="matrix(1 0 0 1 2262.88 1556)">
   <path d="M 77.0996 30.6152 C 113.232 30.6152 142.92 0.878906 142.92 -35.2051 C 142.92 -71.3379 113.184 -101.025 77.0508 -101.025 C 40.9668 -101.025 11.2793 -71.3379 11.2793 -35.2051 C 11.2793 0.878906 41.0156 30.6152 77.0996 30.6152 Z M 77.0996 15.8691 C 48.8281 15.8691 26.0742 -6.93359 26.0742 -35.2051 C 26.0742 -63.4766 48.7793 -86.2793 77.0508 -86.2793 C 105.371 -86.2793 128.125 -63.4766 128.174 -35.2051 C 128.174 -6.93359 105.371 15.8691 77.0996 15.8691 Z M 77.0508 -0.585938 C 78.6133 -0.585938 79.7363 -1.66016 79.7363 -3.32031 L 79.7363 -7.42188 C 90.4785 -8.30078 98.0957 -14.3555 98.0957 -23.8281 C 98.0957 -32.373 92.6758 -37.207 81.7383 -39.3555 L 79.7363 -39.7949 L 79.7363 -53.9062 C 83.4473 -53.2715 86.0352 -51.123 87.1582 -47.8516 C 88.2812 -45.6543 89.7949 -44.4336 92.1875 -44.4336 C 95.0195 -44.4336 96.9238 -46.1914 96.9238 -48.7793 C 96.9238 -49.6094 96.7285 -50.3906 96.5332 -51.123 C 94.8242 -57.3242 88.5742 -61.9629 79.7363 -62.793 L 79.7363 -66.8945 C 79.7363 -68.5059 78.6133 -69.5801 77.0508 -69.5801 C 75.5371 -69.5801 74.4141 -68.5059 74.4141 -66.8945 L 74.4141 -62.793 C 64.1602 -61.9629 56.7871 -55.8105 56.7871 -46.875 C 56.7871 -38.623 62.3047 -33.8379 72.7539 -31.4941 L 74.4141 -31.1035 L 74.4141 -16.2109 C 69.7754 -16.7969 66.9434 -19.2871 66.0156 -22.6562 C 65.0391 -24.9023 63.4766 -26.1719 61.1328 -26.1719 C 58.1055 -26.1719 56.25 -24.2676 56.25 -21.4844 C 56.25 -20.752 56.3965 -19.9707 56.6895 -19.0918 C 58.4961 -12.9883 64.8438 -8.10547 74.4141 -7.42188 L 74.4141 -3.32031 C 74.4141 -1.66016 75.5371 -0.585938 77.0508 -0.585938 Z M 74.4141 -41.0645 L 74.0234 -41.2109 C 69.3359 -42.4805 67.0898 -44.4336 67.0898 -47.6074 C 67.0898 -50.8789 69.9707 -53.418 74.4141 -54.0039 Z M 79.7363 -29.834 L 80.7617 -29.5898 C 85.8398 -28.2715 87.793 -26.3184 87.793 -22.998 C 87.793 -19.3359 84.9609 -16.748 79.7363 -16.2109 Z"/>
  </g>
  <g id="Semibold-L" transform="matrix(1 0 0 1 1966.97 1556)">
   <path d="M 76.2695 29.7852 C 111.914 29.7852 141.309 0.439453 141.309 -35.2051 C 141.309 -70.8496 111.865 -100.244 76.2695 -100.244 C 40.625 -100.244 11.2793 -70.8496 11.2793 -35.2051 C 11.2793 0.439453 40.6738 29.7852 76.2695 29.7852 Z M 76.2695 17.0898 C 47.3145 17.0898 24.0234 -6.25 24.0234 -35.2051 C 24.0234 -64.209 47.2656 -87.5 76.2695 -87.5 C 105.225 -87.5 128.564 -64.209 128.613 -35.2051 C 128.662 -6.25 105.273 17.0898 76.2695 17.0898 Z M 76.2695 -0.195312 C 77.7832 -0.195312 78.9062 -1.31836 78.9062 -2.88086 L 78.9062 -7.17773 C 89.3555 -8.05664 96.9238 -14.0137 96.9238 -23.3887 C 96.9238 -31.8359 91.5039 -36.7188 80.6152 -38.8672 L 78.9062 -39.209 L 78.9062 -54.8828 C 83.1055 -54.248 86.084 -51.7578 87.207 -48.0469 C 88.1348 -46.0449 89.4531 -44.873 91.6504 -44.873 C 94.1406 -44.873 95.8496 -46.4844 95.8496 -48.8281 C 95.8496 -49.5605 95.6543 -50.293 95.5078 -51.0254 C 93.8477 -57.373 87.5 -62.0605 78.9062 -62.8906 L 78.9062 -67.0898 C 78.9062 -68.7012 77.7832 -69.7754 76.2695 -69.7754 C 74.707 -69.7754 73.584 -68.7012 73.584 -67.0898 L 73.584 -62.8906 C 63.623 -62.0117 56.4453 -55.957 56.4453 -47.2168 C 56.4453 -39.1602 61.8652 -34.375 72.3145 -32.0312 L 73.584 -31.7383 L 73.584 -15.0879 C 68.4082 -15.7715 65.1855 -18.5547 64.3066 -22.4121 C 63.4277 -24.5605 62.0605 -25.6836 59.9121 -25.6836 C 57.3242 -25.6836 55.6641 -23.9746 55.6641 -21.5332 C 55.6641 -20.8008 55.8105 -20.1172 56.0547 -19.3359 C 57.8125 -12.793 64.3555 -7.95898 73.584 -7.22656 L 73.584 -2.88086 C 73.584 -1.26953 74.707 -0.195312 76.2695 -0.195312 Z M 73.584 -40.5273 L 73.1934 -40.625 C 67.9688 -42.0898 65.4785 -44.2871 65.4785 -47.8027 C 65.4785 -51.416 68.7012 -54.2969 73.584 -54.9805 Z M 78.9062 -30.4199 L 80.0781 -30.127 C 85.7422 -28.6621 87.8906 -26.416 87.8906 -22.7051 C 87.8906 -18.6523 84.7656 -15.6738 78.9062 -15.0879 Z"/>
  </g>
  <g id="Medium-L" transform="matrix(1 0 0 1 1670.87 1556)">
   <path d="M 75.6836 29.1992 C 110.938 29.1992 140.088 0.0488281 140.088 -35.2051 C 140.088 -70.459 110.889 -99.6094 75.6348 -99.6094 C 40.3809 -99.6094 11.2793 -70.459 11.2793 -35.2051 C 11.2793 0.0488281 40.3809 29.1992 75.6836 29.1992 Z M 75.6836 18.0664 C 46.1426 18.0664 22.4609 -5.71289 22.4609 -35.2051 C 22.4609 -64.6973 46.1426 -88.4766 75.6348 -88.4766 C 105.127 -88.4766 128.906 -64.6973 128.906 -35.2051 C 128.955 -5.71289 105.176 18.0664 75.6836 18.0664 Z M 75.6348 0.0488281 C 77.1484 0.0488281 78.3203 -1.02539 78.3203 -2.58789 L 78.3203 -7.03125 C 88.5254 -7.91016 96.0449 -13.7695 96.0449 -23.0469 C 96.0449 -31.4453 90.625 -36.377 79.7852 -38.4766 L 78.3203 -38.7695 L 78.3203 -55.6641 C 82.8613 -54.9805 86.1328 -52.2949 87.2559 -48.1934 C 88.0371 -46.3379 89.209 -45.2148 91.2109 -45.2148 C 93.457 -45.2148 95.0195 -46.7285 95.0195 -48.877 C 95.0195 -49.5605 94.873 -50.2441 94.7266 -50.8789 C 93.0664 -57.4219 86.7188 -62.1094 78.3203 -62.9395 L 78.3203 -67.2363 C 78.3203 -68.7988 77.1484 -69.873 75.6348 -69.873 C 74.0723 -69.873 72.9492 -68.8477 72.9492 -67.2363 L 72.9492 -62.9395 C 63.2324 -62.0117 56.2012 -56.0547 56.2012 -47.4609 C 56.2012 -39.5508 61.5723 -34.8145 71.9727 -32.4219 L 72.9492 -32.1777 L 72.9492 -14.2578 C 67.3828 -14.9414 63.8672 -18.0176 62.9395 -22.2656 C 62.2559 -24.2676 60.9375 -25.3418 59.0332 -25.3418 C 56.7383 -25.3418 55.2246 -23.7793 55.2246 -21.5332 C 55.2246 -20.8496 55.3711 -20.2148 55.5176 -19.4824 C 57.2754 -12.6465 64.0137 -7.86133 72.9492 -7.08008 L 72.9492 -2.58789 C 72.9492 -0.976562 74.1211 0.0488281 75.6348 0.0488281 Z M 72.9492 -40.0879 L 72.5586 -40.2344 C 66.8945 -41.7969 64.2578 -44.1406 64.2578 -47.9004 C 64.2578 -51.8555 67.7246 -54.9316 72.9492 -55.6641 Z M 78.3203 -30.8594 L 79.541 -30.5664 C 85.6445 -28.9551 87.9883 -26.5137 87.9883 -22.5098 C 87.9883 -18.1152 84.6191 -14.8926 78.3203 -14.2578 Z"/>
  </g>
  <g id="Regular-L" transform="matrix(1 0 0 1 1374.97 1556)">
   <path d="M 74.8535 28.3691 C 109.668 28.3691 138.477 -0.390625 138.477 -35.2051 C 138.477 -70.0195 109.619 -98.7793 74.8047 -98.7793 C 40.0391 -98.7793 11.2793 -70.0195 11.2793 -35.2051 C 11.2793 -0.390625 40.0879 28.3691 74.8535 28.3691 Z M 74.8535 19.2871 C 44.6777 19.2871 20.4102 -5.0293 20.4102 -35.2051 C 20.4102 -65.3809 44.6289 -89.6973 74.8047 -89.6973 C 105.029 -89.6973 129.297 -65.3809 129.346 -35.2051 C 129.395 -5.0293 105.078 19.2871 74.8535 19.2871 Z M 74.8047 0.439453 C 76.3672 0.439453 77.4902 -0.634766 77.4902 -2.19727 L 77.4902 -6.83594 C 87.4023 -7.71484 94.873 -13.4766 94.873 -22.6074 C 94.873 -30.9082 89.4531 -35.8887 78.6621 -37.9395 L 77.4902 -38.1836 L 77.4902 -56.6406 C 82.5684 -55.9082 86.1816 -52.9297 87.3047 -48.4375 C 87.8906 -46.7285 88.916 -45.6543 90.7227 -45.6543 C 92.627 -45.6543 93.9453 -46.9727 93.9453 -48.9258 C 93.9453 -49.5605 93.7988 -50.1465 93.7012 -50.7812 C 92.0898 -57.4707 85.6445 -62.207 77.4902 -63.0371 L 77.4902 -67.3828 C 77.4902 -68.9453 76.3672 -70.0684 74.8047 -70.0684 C 73.2422 -70.0684 72.168 -68.9941 72.168 -67.3828 L 72.168 -63.0371 C 62.7441 -62.0605 55.8594 -56.1523 55.8594 -47.8027 C 55.8594 -40.0879 61.1816 -35.3516 71.582 -32.959 L 72.168 -32.8125 L 72.168 -13.1836 C 66.0156 -13.916 62.1582 -17.334 61.2305 -22.0215 C 60.6445 -23.9258 59.5215 -24.8535 57.8613 -24.8535 C 55.957 -24.8535 54.6387 -23.5352 54.6387 -21.582 C 54.6387 -20.9473 54.7852 -20.3613 54.8828 -19.7266 C 56.5918 -12.4512 63.5254 -7.71484 72.168 -6.93359 L 72.168 -2.19727 C 72.168 -0.585938 73.291 0.439453 74.8047 0.439453 Z M 72.168 -39.5508 L 71.7285 -39.6973 C 65.5762 -41.4062 62.6465 -43.9941 62.6465 -48.0957 C 62.6465 -52.3926 66.4062 -55.8105 72.168 -56.6406 Z M 77.4902 -31.4453 L 78.8574 -31.1035 C 85.5469 -29.3457 88.0859 -26.6113 88.0859 -22.2656 C 88.0859 -17.4316 84.375 -13.8184 77.4902 -13.1836 Z"/>
  </g>
  <g id="Light-L" transform="matrix(1 0 0 1 1079.18 1556)">
   <path d="M 73.9258 27.4902 C 108.301 27.4902 136.621 -0.830078 136.621 -35.1562 C 136.621 -69.5312 108.252 -97.8516 73.9258 -97.8516 C 39.5508 -97.8516 11.2793 -69.5312 11.2793 -35.1562 C 11.2793 -0.830078 39.5996 27.4902 73.9258 27.4902 Z M 73.9258 20.6055 C 43.1152 20.6055 18.2129 -4.3457 18.2129 -35.1562 C 18.2129 -66.0156 43.0664 -90.918 73.9258 -90.918 C 104.736 -90.918 129.688 -66.0156 129.736 -35.1562 C 129.736 -4.3457 104.785 20.6055 73.9258 20.6055 Z M 73.9258 0 C 75.1953 0 76.2207 -0.878906 76.2207 -2.19727 L 76.2207 -7.08008 C 86.3281 -7.86133 93.5547 -13.7207 93.5547 -22.4121 C 93.5547 -30.3223 88.3789 -35.0586 77.7344 -37.2559 L 76.2207 -37.5977 L 76.2207 -57.2266 C 82.0312 -56.5918 86.2305 -53.2227 87.2559 -48.3887 C 87.6465 -46.9238 88.4766 -46.0449 89.9414 -46.0449 C 91.5039 -46.0449 92.5781 -47.1191 92.5781 -48.7305 C 92.5781 -49.3164 92.4805 -49.8535 92.3828 -50.3906 C 90.918 -56.9824 84.4727 -61.7676 76.2207 -62.4512 L 76.2207 -66.8457 C 76.2207 -68.1641 75.1953 -69.0918 73.9258 -69.0918 C 72.5586 -69.0918 71.6797 -68.2129 71.6797 -66.8457 L 71.6797 -62.4512 C 62.4512 -61.6211 55.4688 -55.8105 55.4688 -47.7539 C 55.4688 -40.4297 60.5957 -35.791 70.8984 -33.3984 L 71.6797 -33.252 L 71.6797 -12.2559 C 64.9414 -12.9395 60.3516 -16.748 59.5215 -22.1191 C 59.1309 -23.6816 58.252 -24.5117 56.7871 -24.5117 C 55.2734 -24.5117 54.1992 -23.4375 54.1992 -21.7773 C 54.1992 -21.1914 54.3457 -20.6543 54.4434 -20.1172 C 56.0059 -12.793 62.8418 -7.86133 71.6797 -7.17773 L 71.6797 -2.19727 C 71.6797 -0.830078 72.6074 0 73.9258 0 Z M 71.6797 -38.7207 L 71.2891 -38.8184 C 64.3555 -40.625 60.8887 -43.3594 60.8887 -47.9492 C 60.8887 -52.832 65.4297 -56.543 71.6797 -57.2266 Z M 76.2207 -32.1289 L 77.5879 -31.7871 C 85.0586 -29.9316 88.1348 -27.0508 88.1348 -22.2168 C 88.1348 -16.8457 83.6426 -12.793 76.2207 -12.2559 Z"/>
  </g>
  <g id="Thin-L" transform="matrix(1 0 0 1 783.693 1556)">
   <path d="M 72.7051 26.3184 C 106.494 26.3184 134.18 -1.36719 134.18 -35.1074 C 134.18 -68.8965 106.494 -96.582 72.7051 -96.582 C 38.9648 -96.582 11.2793 -68.8965 11.2793 -35.1074 C 11.2793 -1.36719 38.9648 26.3184 72.7051 26.3184 Z M 72.7051 22.3145 C 41.0156 22.3145 15.2832 -3.41797 15.2832 -35.1074 C 15.2832 -66.8457 41.0156 -92.5781 72.7051 -92.5781 C 104.395 -92.5781 130.176 -66.8457 130.176 -35.1074 C 130.176 -3.41797 104.443 22.3145 72.7051 22.3145 Z M 72.7051 -0.537109 C 73.6816 -0.537109 74.4629 -1.2207 74.4629 -2.19727 L 74.4629 -7.42188 C 84.8633 -8.05664 91.8457 -14.1113 91.8457 -22.168 C 91.8457 -29.541 86.9141 -33.9355 76.5137 -36.3281 L 74.4629 -36.7676 L 74.4629 -58.0566 C 81.2988 -57.5195 86.2793 -53.6621 87.1582 -48.3887 C 87.3535 -47.168 87.8906 -46.5332 88.9648 -46.5332 C 90.0879 -46.5332 90.8203 -47.2656 90.8203 -48.4375 C 90.8203 -48.9746 90.7227 -49.4629 90.625 -49.9512 C 89.3066 -56.2988 82.8613 -61.1816 74.4629 -61.6699 L 74.4629 -66.1133 C 74.4629 -67.0898 73.6816 -67.7734 72.7051 -67.7734 C 71.6797 -67.7734 71.0449 -67.1387 71.0449 -66.1133 L 71.0449 -61.6699 C 62.0605 -61.084 54.9316 -55.3223 54.9316 -47.6562 C 54.9316 -40.8691 59.8633 -36.377 69.9707 -34.0332 L 71.0449 -33.8379 L 71.0449 -11.0352 C 63.4766 -11.6699 57.9102 -16.0156 57.2266 -22.2168 C 57.0801 -23.3887 56.543 -24.0723 55.4199 -24.0723 C 54.3945 -24.0723 53.6621 -23.3398 53.6621 -22.0703 C 53.6621 -21.582 53.7598 -21.0938 53.8086 -20.6055 C 55.2246 -13.2812 61.8652 -8.05664 71.0449 -7.51953 L 71.0449 -2.19727 C 71.0449 -1.17188 71.7285 -0.537109 72.7051 -0.537109 Z M 71.0449 -37.5977 L 70.7031 -37.6465 C 62.7441 -39.5508 58.5938 -42.4805 58.5938 -47.7051 C 58.5938 -53.3691 64.0625 -57.5195 71.0449 -58.0566 Z M 74.4629 -33.0078 L 75.8301 -32.7148 C 84.375 -30.7129 88.2324 -27.5879 88.2324 -22.1191 C 88.2324 -16.0156 82.7148 -11.4746 74.4629 -11.0352 Z"/>
  </g>
  <g id="Ultralight-L" transform="matrix(1 0 0 1 487.616 1556)">
   <path d="M 72.1191 25.7324 C 105.566 25.7324 132.91 -1.61133 132.91 -35.1074 C 132.91 -68.5547 105.566 -95.8984 72.1191 -95.8984 C 38.623 -95.8984 11.2793 -68.5547 11.2793 -35.1074 C 11.2793 -1.61133 38.623 25.7324 72.1191 25.7324 Z M 72.1191 23.2422 C 39.9414 23.2422 13.7695 -2.97852 13.7695 -35.1074 C 13.7695 -67.2363 39.9414 -93.4082 72.1191 -93.4082 C 104.248 -93.4082 130.42 -67.2363 130.42 -35.1074 C 130.42 -2.97852 104.248 23.2422 72.1191 23.2422 Z M 72.1191 -0.830078 C 72.9004 -0.830078 73.584 -1.41602 73.584 -2.19727 L 73.584 -7.61719 C 84.082 -8.1543 90.9668 -14.3066 90.9668 -22.0215 C 90.9668 -29.1016 86.1816 -33.3984 75.8789 -35.8398 L 73.584 -36.377 L 73.584 -58.4473 C 80.9082 -58.0078 86.3281 -53.8574 87.1094 -48.3887 C 87.207 -47.3145 87.5977 -46.8262 88.4766 -46.8262 C 89.3555 -46.8262 89.8926 -47.3633 89.8926 -48.291 C 89.8926 -48.7793 89.7949 -49.2676 89.7461 -49.707 C 88.4766 -55.9082 82.0801 -60.8398 73.584 -61.2793 L 73.584 -65.7227 C 73.584 -66.5527 72.9004 -67.1387 72.1191 -67.1387 C 71.1914 -67.1387 70.7031 -66.6016 70.7031 -65.7227 L 70.7031 -61.2793 C 61.8652 -60.791 54.6387 -55.0781 54.6387 -47.6562 C 54.6387 -41.0645 59.5215 -36.7188 69.5312 -34.375 L 70.7031 -34.1309 L 70.7031 -10.4492 C 62.6953 -10.9863 56.6895 -15.625 56.0547 -22.2656 C 56.0547 -23.1934 55.6641 -23.8281 54.6875 -23.8281 C 53.9062 -23.8281 53.3691 -23.2422 53.3691 -22.2168 C 53.3691 -21.7773 53.418 -21.2891 53.5156 -20.8496 C 54.834 -13.5254 61.377 -8.1543 70.7031 -7.66602 L 70.7031 -2.19727 C 70.7031 -1.31836 71.2891 -0.830078 72.1191 -0.830078 Z M 70.7031 -37.0117 L 70.4102 -37.0605 C 61.9629 -39.0137 57.4219 -42.041 57.4219 -47.6074 C 57.4219 -53.6621 63.3789 -58.0078 70.7031 -58.4473 Z M 73.584 -33.4961 L 74.9512 -33.1543 C 84.0332 -31.1035 88.2812 -27.832 88.2812 -22.0703 C 88.2812 -15.625 82.2266 -10.8398 73.584 -10.4492 Z"/>
  </g>
  <g id="Black-M" transform="matrix(1 0 0 1 2870.97 1126)">
   <path d="M 62.4023 18.457 C 91.9922 18.457 116.113 -5.61523 116.113 -35.2051 C 116.113 -64.7949 91.9922 -88.8672 62.4023 -88.8672 C 32.8125 -88.8672 8.74023 -64.7949 8.74023 -35.2051 C 8.74023 -5.61523 32.8125 18.457 62.4023 18.457 Z M 62.4023 0.195312 C 42.8711 0.195312 27.002 -15.625 27.002 -35.2051 C 27.002 -54.7363 42.8711 -70.6055 62.4023 -70.6055 C 81.9824 -70.6055 97.8027 -54.7363 97.8027 -35.2051 C 97.8027 -15.625 81.9824 0.195312 62.4023 0.195312 Z M 62.4023 -10.1074 C 63.4766 -10.1074 64.209 -10.8398 64.209 -12.0117 L 64.209 -14.5996 C 73.877 -15.2832 79.8828 -20.4102 79.8828 -28.0273 C 79.8828 -34.7656 75.7812 -38.2324 67.2363 -40.0391 L 64.209 -40.6738 L 64.209 -46.1914 C 65.625 -45.8496 66.5527 -45.166 67.334 -44.1406 C 68.8965 -41.8945 70.6543 -40.8691 73.0957 -40.8691 C 76.5137 -40.8691 78.5645 -42.7246 78.5645 -45.459 C 78.5645 -46.2891 78.3691 -47.168 78.125 -47.9004 C 76.709 -51.8066 72.1191 -55.4199 64.209 -55.957 L 64.209 -58.7891 C 64.209 -59.9609 63.4766 -60.6934 62.4023 -60.6934 C 61.377 -60.6934 60.6445 -59.9609 60.6445 -58.7891 L 60.6445 -55.957 C 51.5625 -55.5664 45.1172 -50.5371 45.1172 -42.8711 C 45.1172 -35.9375 49.5117 -32.2266 57.6172 -30.5176 L 60.6445 -29.8828 L 60.6445 -24.2676 C 58.7402 -24.5117 57.666 -25.293 57.0312 -26.3672 C 55.7617 -28.5156 54.0527 -29.834 51.416 -29.834 C 47.6562 -29.834 45.6543 -27.6855 45.6543 -24.6094 C 45.6543 -23.877 45.752 -22.998 46.1914 -22.0215 C 47.6562 -18.8965 51.709 -14.8926 60.6445 -14.5508 L 60.6445 -12.0117 C 60.6445 -10.8398 61.377 -10.1074 62.4023 -10.1074 Z M 60.6445 -41.4551 L 60.3027 -41.5527 C 58.4473 -41.8945 57.373 -42.6758 57.373 -43.9941 C 57.373 -45.4102 58.6914 -46.3379 60.6445 -46.3867 Z M 64.209 -29.1504 L 64.502 -29.1016 C 66.6992 -28.7109 67.6758 -28.0762 67.6758 -26.709 C 67.6758 -25.2441 66.3086 -24.5117 64.209 -24.2676 Z"/>
  </g>
  <g id="Heavy-M" transform="matrix(1 0 0 1 2575.19 1126)">
   <path d="M 61.5234 17.5781 C 90.5273 17.5781 114.258 -6.15234 114.258 -35.2051 C 114.258 -64.2578 90.5273 -87.9883 61.4746 -87.9883 C 32.4707 -87.9883 8.74023 -64.2578 8.74023 -35.2051 C 8.74023 -6.15234 32.4707 17.5781 61.5234 17.5781 Z M 61.5234 1.66016 C 41.1133 1.66016 24.6582 -14.8438 24.6582 -35.2051 C 24.6582 -55.5664 41.1133 -72.0703 61.4746 -72.0703 C 81.8848 -72.0703 98.3398 -55.5664 98.3398 -35.2051 C 98.3398 -14.8438 81.8848 1.66016 61.5234 1.66016 Z M 61.4746 -9.42383 C 62.5977 -9.42383 63.4277 -10.2539 63.4277 -11.4746 L 63.4277 -14.2578 C 72.5586 -14.9414 78.5645 -19.9219 78.5645 -27.4414 C 78.5645 -34.1309 74.4141 -37.7441 65.918 -39.502 L 63.4277 -39.9902 L 63.4277 -47.4121 C 65.2832 -47.0703 66.6016 -45.9961 67.3828 -44.4336 C 68.75 -42.3828 70.3125 -41.4062 72.5586 -41.4062 C 75.5371 -41.4062 77.3926 -43.0664 77.3926 -45.6055 C 77.3926 -46.3379 77.2461 -47.1191 77.002 -47.8027 C 75.5859 -52.0508 70.8984 -55.6641 63.4277 -56.25 L 63.4277 -59.1797 C 63.4277 -60.4004 62.5977 -61.1816 61.4746 -61.1816 C 60.3516 -61.1816 59.5703 -60.4004 59.5703 -59.1797 L 59.5703 -56.25 C 50.8789 -55.7129 44.7266 -50.8301 44.7266 -43.3594 C 44.7266 -36.6211 49.1211 -32.9102 57.2266 -31.1523 L 59.5703 -30.6641 L 59.5703 -22.9492 C 57.1289 -23.291 55.6641 -24.4629 54.9805 -26.0254 C 53.9062 -28.0762 52.3926 -29.248 50 -29.248 C 46.7285 -29.248 44.9219 -27.3438 44.9219 -24.6094 C 44.9219 -23.877 45.0195 -23.0957 45.4102 -22.2656 C 46.8262 -18.5547 51.2207 -14.6484 59.5703 -14.209 L 59.5703 -11.4746 C 59.5703 -10.2051 60.4004 -9.42383 61.4746 -9.42383 Z M 59.5703 -40.918 L 59.2773 -40.9668 C 56.7871 -41.5527 55.5176 -42.627 55.5176 -44.3359 C 55.5176 -46.0938 57.1289 -47.3633 59.5703 -47.5586 Z M 63.4277 -29.7852 L 63.8672 -29.6875 C 66.6504 -29.0527 67.8223 -28.1738 67.8223 -26.3672 C 67.8223 -24.4141 66.2109 -23.291 63.4277 -22.9492 Z"/>
  </g>
  <g id="Bold-M" transform="matrix(1 0 0 1 2279.5 1126)">
   <path d="M 60.498 16.5039 C 88.8672 16.5039 112.207 -6.78711 112.207 -35.2051 C 112.207 -63.623 88.8672 -86.9629 60.4492 -86.9629 C 32.0312 -86.9629 8.74023 -63.623 8.74023 -35.2051 C 8.74023 -6.78711 32.0801 16.5039 60.498 16.5039 Z M 60.498 3.22266 C 39.1602 3.22266 22.0703 -13.916 22.0703 -35.2051 C 22.0703 -56.4941 39.1602 -73.6816 60.4492 -73.6816 C 81.7383 -73.6816 98.9258 -56.4941 98.9258 -35.2051 C 98.9746 -13.916 81.7871 3.22266 60.498 3.22266 Z M 60.4492 -8.69141 C 61.6211 -8.69141 62.5 -9.57031 62.5 -10.8398 L 62.5 -13.8672 C 71.1426 -14.5508 77.0996 -19.2871 77.0996 -26.8066 C 77.0996 -33.4961 72.8516 -37.207 64.3555 -38.8672 L 62.5 -39.2578 L 62.5 -48.8281 C 64.9414 -48.3887 66.6504 -46.9727 67.5293 -44.8242 C 68.5547 -42.9688 69.873 -41.9922 71.9238 -41.9922 C 74.4629 -41.9922 76.0742 -43.5059 76.0742 -45.7031 C 76.0742 -46.3867 75.9277 -47.0703 75.7324 -47.7051 C 74.3652 -52.2949 69.5801 -55.9082 62.5 -56.543 L 62.5 -59.6191 C 62.5 -60.8887 61.6211 -61.7188 60.4492 -61.7188 C 59.2773 -61.7188 58.3984 -60.8887 58.3984 -59.6191 L 58.3984 -56.543 C 50.1465 -55.9082 44.3359 -51.123 44.3359 -43.9453 C 44.3359 -37.3535 48.6328 -33.6426 56.7383 -31.8359 L 58.3984 -31.4941 L 58.3984 -21.4844 C 55.2734 -21.9238 53.418 -23.4863 52.7344 -25.6836 C 51.8066 -27.5391 50.4883 -28.6133 48.4375 -28.6133 C 45.7031 -28.6133 44.0918 -26.9531 44.0918 -24.5605 C 44.0918 -23.9258 44.2383 -23.2422 44.4824 -22.5098 C 45.9473 -18.1641 50.6836 -14.3555 58.3984 -13.8184 L 58.3984 -10.8398 C 58.3984 -9.57031 59.2773 -8.69141 60.4492 -8.69141 Z M 58.3984 -40.2832 L 58.1055 -40.332 C 54.9805 -41.1621 53.4668 -42.5293 53.4668 -44.6777 C 53.4668 -46.875 55.3711 -48.5352 58.3984 -48.9258 Z M 62.5 -30.5176 L 63.1836 -30.3711 C 66.6504 -29.4922 67.9688 -28.2227 67.9688 -25.9766 C 67.9688 -23.5352 66.0645 -21.875 62.5 -21.4844 Z"/>
  </g>
  <g id="Semibold-M" transform="matrix(1 0 0 1 1983.5 1126)">
   <path d="M 59.7656 15.8203 C 87.7441 15.8203 110.791 -7.22656 110.791 -35.2051 C 110.791 -63.1836 87.6953 -86.2793 59.7656 -86.2793 C 31.7871 -86.2793 8.74023 -63.1836 8.74023 -35.2051 C 8.74023 -7.22656 31.7871 15.8203 59.7656 15.8203 Z M 59.7656 4.3457 C 37.8418 4.3457 20.2637 -13.2812 20.2637 -35.2051 C 20.2637 -57.1289 37.793 -74.8047 59.7656 -74.8047 C 81.6895 -74.8047 99.3164 -57.1289 99.3652 -35.2051 C 99.3652 -13.2812 81.6895 4.3457 59.7656 4.3457 Z M 59.7656 -8.20312 C 60.9863 -8.20312 61.9141 -9.08203 61.9141 -10.4004 L 61.9141 -13.5742 C 70.1172 -14.2578 76.0742 -18.8965 76.0742 -26.3672 C 76.0742 -33.0078 71.8262 -36.8652 63.3301 -38.4766 L 61.9141 -38.7695 L 61.9141 -49.8047 C 64.6973 -49.2676 66.6992 -47.6074 67.5781 -45.0684 C 68.457 -43.3105 69.6289 -42.3828 71.4844 -42.3828 C 73.6816 -42.3828 75.1465 -43.75 75.1465 -45.8008 C 75.1465 -46.4355 75.0488 -47.0215 74.8535 -47.6074 C 73.5352 -52.4414 68.6523 -56.0547 61.9141 -56.7383 L 61.9141 -59.9121 C 61.9141 -61.2305 60.9863 -62.1094 59.7656 -62.1094 C 58.4961 -62.1094 57.6172 -61.2305 57.6172 -59.9121 L 57.6172 -56.7383 C 49.6582 -56.0547 44.043 -51.3184 44.043 -44.3359 C 44.043 -37.8906 48.291 -34.1797 56.3965 -32.3242 L 57.6172 -32.0801 L 57.6172 -20.459 C 54.0039 -20.9473 51.9043 -22.8516 51.1719 -25.4395 C 50.3906 -27.1973 49.1699 -28.1738 47.3145 -28.1738 C 45.0195 -28.1738 43.5547 -26.709 43.5547 -24.5605 C 43.5547 -23.9746 43.6523 -23.3398 43.8965 -22.7051 C 45.3125 -17.8711 50.293 -14.1602 57.6172 -13.5742 L 57.6172 -10.4004 C 57.6172 -9.08203 58.4961 -8.20312 59.7656 -8.20312 Z M 57.6172 -39.8438 L 57.2754 -39.9414 C 53.7109 -40.918 52.0508 -42.4805 52.0508 -44.873 C 52.0508 -47.3633 54.1504 -49.3652 57.6172 -49.8535 Z M 61.9141 -31.0059 L 62.6953 -30.8594 C 66.6016 -29.834 68.0664 -28.2715 68.0664 -25.6836 C 68.0664 -22.9004 65.9668 -20.8984 61.9141 -20.459 Z"/>
  </g>
  <g id="Medium-M" transform="matrix(1 0 0 1 1687.3 1126)">
   <path d="M 59.2285 15.2832 C 86.9141 15.2832 109.766 -7.56836 109.766 -35.2051 C 109.766 -62.8906 86.8652 -85.7422 59.1797 -85.7422 C 31.543 -85.7422 8.74023 -62.8906 8.74023 -35.2051 C 8.74023 -7.56836 31.5918 15.2832 59.2285 15.2832 Z M 59.2285 5.17578 C 36.8164 5.17578 18.8965 -12.8418 18.8965 -35.2051 C 18.8965 -57.6172 36.8164 -75.6348 59.1797 -75.6348 C 81.5918 -75.6348 99.6094 -57.6172 99.6582 -35.2051 C 99.707 -12.8418 81.6406 5.17578 59.2285 5.17578 Z M 59.1797 -7.8125 C 60.498 -7.8125 61.4258 -8.74023 61.4258 -10.0586 L 61.4258 -13.3301 C 69.3848 -14.0625 75.293 -18.6035 75.293 -26.0254 C 75.293 -32.666 70.9961 -36.5723 62.5 -38.1348 L 61.4258 -38.3789 L 61.4258 -50.5371 C 64.5508 -49.9512 66.6992 -48.0957 67.627 -45.2148 C 68.3594 -43.6035 69.3848 -42.6758 71.1426 -42.6758 C 73.1445 -42.6758 74.4629 -43.9941 74.4629 -45.8496 C 74.4629 -46.4355 74.3652 -46.9727 74.2188 -47.5586 C 72.9004 -52.5879 67.9688 -56.2012 61.4258 -56.8848 L 61.4258 -60.1562 C 61.4258 -61.4746 60.498 -62.4023 59.1797 -62.4023 C 57.9102 -62.4023 56.9824 -61.5234 56.9824 -60.1562 L 56.9824 -56.8848 C 49.2676 -56.1523 43.7988 -51.4648 43.7988 -44.6289 C 43.7988 -38.2812 48.0469 -34.5703 56.1523 -32.7148 L 56.9824 -32.5195 L 56.9824 -19.6777 C 53.0762 -20.2148 50.7324 -22.3633 50 -25.2441 C 49.3164 -26.9531 48.1445 -27.832 46.4844 -27.832 C 44.4824 -27.832 43.1152 -26.4648 43.1152 -24.5117 C 43.1152 -23.9746 43.2617 -23.4375 43.4082 -22.8516 C 44.8242 -17.6758 50.0488 -14.0137 56.9824 -13.3789 L 56.9824 -10.0586 C 56.9824 -8.74023 57.9102 -7.8125 59.1797 -7.8125 Z M 56.9824 -39.502 L 56.6406 -39.5996 C 52.7344 -40.7227 50.9277 -42.4316 50.9277 -45.0684 C 50.9277 -47.7539 53.2715 -49.9512 56.9824 -50.5371 Z M 61.4258 -31.3965 L 62.3535 -31.2012 C 66.6016 -30.0293 68.1152 -28.2715 68.1152 -25.4883 C 68.1152 -22.4121 65.918 -20.166 61.4258 -19.6777 Z"/>
  </g>
  <g id="Regular-M" transform="matrix(1 0 0 1 1391.3 1126)">
   <path d="M 58.5449 14.5508 C 85.791 14.5508 108.35 -8.00781 108.35 -35.2539 C 108.35 -62.4512 85.7422 -85.0586 58.4961 -85.0586 C 31.2988 -85.0586 8.74023 -62.4512 8.74023 -35.2539 C 8.74023 -8.00781 31.3477 14.5508 58.5449 14.5508 Z M 58.5449 6.25 C 35.498 6.25 17.0898 -12.207 17.0898 -35.2539 C 17.0898 -58.252 35.4492 -76.7578 58.4961 -76.7578 C 81.543 -76.7578 100 -58.252 100.049 -35.2539 C 100.098 -12.207 81.5918 6.25 58.5449 6.25 Z M 58.4961 -7.32422 C 59.8145 -7.32422 60.8398 -8.30078 60.8398 -9.66797 L 60.8398 -13.0859 C 68.3594 -13.8184 74.2676 -18.2129 74.2676 -25.5859 C 74.2676 -32.2266 69.9707 -36.2305 61.4746 -37.7441 L 60.8398 -37.8906 L 60.8398 -51.4648 C 64.3066 -50.8789 66.748 -48.7793 67.7246 -45.459 C 68.2129 -43.9941 69.1406 -43.0664 70.7031 -43.0664 C 72.3633 -43.0664 73.584 -44.2871 73.584 -45.9473 C 73.584 -46.4844 73.4375 -46.9238 73.3398 -47.4609 C 72.0703 -52.7832 67.0898 -56.3965 60.8398 -57.0801 L 60.8398 -60.4492 C 60.8398 -61.8164 59.8145 -62.793 58.4961 -62.793 C 57.1777 -62.793 56.2012 -61.8652 56.2012 -60.4492 L 56.2012 -57.0801 C 48.7793 -56.25 43.5547 -51.6602 43.5547 -45.0195 C 43.5547 -38.8184 47.7051 -35.1074 55.8594 -33.2031 L 56.2012 -33.1055 L 56.2012 -18.6523 C 51.8066 -19.2871 49.2188 -21.6797 48.4375 -24.9512 C 47.9004 -26.6113 46.875 -27.3926 45.4102 -27.3926 C 43.75 -27.3926 42.5781 -26.2207 42.5781 -24.5117 C 42.5781 -23.9746 42.6758 -23.5352 42.8223 -22.998 C 44.1895 -17.3828 49.6582 -13.8184 56.2012 -13.1348 L 56.2012 -9.66797 C 56.2012 -8.25195 57.1777 -7.32422 58.4961 -7.32422 Z M 56.2012 -39.0625 L 55.8594 -39.1602 C 51.4648 -40.4785 49.5605 -42.3828 49.5605 -45.3125 C 49.5605 -48.291 52.0508 -50.7812 56.2012 -51.4648 Z M 60.8398 -31.8848 L 61.8652 -31.6406 C 66.6016 -30.3223 68.2617 -28.3203 68.2617 -25.2441 C 68.2617 -21.7773 65.8203 -19.1895 60.8398 -18.6523 Z"/>
  </g>
  <g id="Light-M" transform="matrix(1 0 0 1 1095.42 1126)">
   <path d="M 57.7148 13.7695 C 84.5215 13.7695 106.689 -8.39844 106.689 -35.2051 C 106.689 -62.0117 84.5215 -84.1797 57.666 -84.1797 C 30.8594 -84.1797 8.74023 -62.0117 8.74023 -35.2051 C 8.74023 -8.39844 30.9082 13.7695 57.7148 13.7695 Z M 57.7148 7.4707 C 34.082 7.4707 15.0879 -11.5723 15.0879 -35.2051 C 15.0879 -58.8379 34.082 -77.832 57.666 -77.832 C 81.2988 -77.832 100.342 -58.8379 100.391 -35.2051 C 100.391 -11.5723 81.3477 7.4707 57.7148 7.4707 Z M 57.666 -7.71484 C 58.7891 -7.71484 59.6191 -8.49609 59.6191 -9.66797 L 59.6191 -13.3301 C 67.3828 -13.916 73.0957 -18.457 73.0957 -25.3906 C 73.0957 -31.6895 68.9941 -35.4492 60.6445 -37.1094 L 59.6191 -37.3047 L 59.6191 -52.002 C 63.8184 -51.4648 66.7969 -49.0234 67.627 -45.459 C 68.0176 -44.1895 68.75 -43.457 70.0684 -43.457 C 71.3867 -43.457 72.3633 -44.3848 72.3633 -45.752 C 72.3633 -46.2402 72.2656 -46.6797 72.168 -47.168 C 70.9961 -52.2949 66.0156 -55.957 59.6191 -56.5918 L 59.6191 -59.9609 C 59.6191 -61.1328 58.7891 -61.9141 57.666 -61.9141 C 56.543 -61.9141 55.7617 -61.1328 55.7617 -59.9609 L 55.7617 -56.5918 C 48.5352 -55.8594 43.1641 -51.3184 43.1641 -44.9707 C 43.1641 -39.1113 47.2168 -35.498 55.2246 -33.5938 L 55.7617 -33.4961 L 55.7617 -17.8223 C 50.8301 -18.4082 47.5586 -21.1914 46.875 -25.0488 C 46.4844 -26.416 45.7031 -27.0996 44.4824 -27.0996 C 43.1641 -27.0996 42.1875 -26.123 42.1875 -24.707 C 42.1875 -24.2676 42.2852 -23.8281 42.3828 -23.3398 C 43.6523 -17.6758 49.0234 -13.916 55.7617 -13.3789 L 55.7617 -9.66797 C 55.7617 -8.49609 56.5918 -7.71484 57.666 -7.71484 Z M 55.7617 -38.2812 L 55.4688 -38.3789 C 50.3906 -39.7461 47.998 -41.7969 47.998 -45.166 C 47.998 -48.6816 51.1719 -51.416 55.7617 -52.002 Z M 59.6191 -32.5195 L 60.6934 -32.2754 C 66.1621 -30.8594 68.3105 -28.7109 68.3105 -25.1465 C 68.3105 -21.2402 65.1367 -18.3105 59.6191 -17.8223 Z"/>
  </g>
  <g id="Thin-M" transform="matrix(1 0 0 1 799.806 1126)">
   <path d="M 56.6406 12.7441 C 82.9102 12.7441 104.492 -8.83789 104.492 -35.1562 C 104.492 -61.4746 82.9102 -83.0566 56.5918 -83.0566 C 30.3223 -83.0566 8.74023 -61.4746 8.74023 -35.1562 C 8.74023 -8.83789 30.3223 12.7441 56.6406 12.7441 Z M 56.6406 8.98438 C 32.2266 8.98438 12.4512 -10.791 12.4512 -35.1562 C 12.4512 -59.5215 32.2266 -79.2969 56.5918 -79.2969 C 81.0059 -79.2969 100.781 -59.5215 100.781 -35.1562 C 100.781 -10.791 81.0059 8.98438 56.6406 8.98438 Z M 56.5918 -8.20312 C 57.4219 -8.20312 58.1055 -8.83789 58.1055 -9.66797 L 58.1055 -13.623 C 66.0645 -14.1113 71.5332 -18.7988 71.5332 -25.1465 C 71.5332 -30.957 67.6758 -34.4727 59.5703 -36.2793 L 58.1055 -36.6211 L 58.1055 -52.7344 C 63.1348 -52.3438 66.8457 -49.4141 67.5293 -45.4102 C 67.7734 -44.4336 68.2617 -43.8965 69.1895 -43.8965 C 70.1172 -43.8965 70.752 -44.5312 70.752 -45.5566 C 70.752 -45.9473 70.7031 -46.3379 70.6055 -46.7285 C 69.5312 -51.709 64.5508 -55.4688 58.1055 -55.9082 L 58.1055 -59.3262 C 58.1055 -60.1562 57.4219 -60.7422 56.5918 -60.7422 C 55.7617 -60.7422 55.1758 -60.2051 55.1758 -59.3262 L 55.1758 -55.9082 C 48.1934 -55.3711 42.6758 -50.9277 42.6758 -44.873 C 42.6758 -39.502 46.582 -35.9863 54.4434 -34.1797 L 55.1758 -34.0332 L 55.1758 -16.748 C 49.5117 -17.2363 45.4102 -20.5078 44.873 -25.1465 C 44.6777 -26.123 44.1895 -26.6602 43.2129 -26.6602 C 42.334 -26.6602 41.6992 -26.0254 41.6992 -25 C 41.6992 -24.5605 41.748 -24.1699 41.8457 -23.7793 C 42.9688 -18.1152 48.1445 -14.1113 55.1758 -13.6719 L 55.1758 -9.66797 C 55.1758 -8.74023 55.8105 -8.20312 56.5918 -8.20312 Z M 55.1758 -37.3047 L 54.9316 -37.3535 C 48.9746 -38.8184 45.8984 -41.0645 45.8984 -44.9707 C 45.8984 -49.1699 49.9512 -52.2949 55.1758 -52.7344 Z M 58.1055 -33.3008 L 59.1309 -33.0566 C 65.5273 -31.543 68.3594 -29.1992 68.3594 -25.0977 C 68.3594 -20.5078 64.3066 -17.1387 58.1055 -16.748 Z"/>
  </g>
  <g id="Ultralight-M" transform="matrix(1 0 0 1 503.656 1126)">
   <path d="M 56.0547 12.207 C 82.0801 12.207 103.369 -9.08203 103.369 -35.1562 C 103.369 -61.1816 82.0801 -82.4707 56.0547 -82.4707 C 30.0293 -82.4707 8.74023 -61.1816 8.74023 -35.1562 C 8.74023 -9.08203 30.0293 12.207 56.0547 12.207 Z M 56.0547 9.81445 C 31.2988 9.81445 11.1328 -10.3516 11.1328 -35.1562 C 11.1328 -59.9121 31.2988 -80.0781 56.0547 -80.0781 C 80.8594 -80.0781 100.977 -59.9121 100.977 -35.1562 C 100.977 -10.3516 80.8594 9.81445 56.0547 9.81445 Z M 56.0547 -8.49609 C 56.7383 -8.49609 57.2754 -8.98438 57.2754 -9.66797 L 57.2754 -13.7695 C 65.3809 -14.209 70.752 -18.9453 70.752 -25.0488 C 70.752 -30.6152 67.041 -33.9844 58.9844 -35.8398 L 57.2754 -36.2305 L 57.2754 -53.125 C 62.793 -52.7344 66.8945 -49.6094 67.5293 -45.4102 C 67.627 -44.5801 67.9688 -44.1406 68.7012 -44.1406 C 69.4336 -44.1406 69.9219 -44.6289 69.9219 -45.4102 C 69.9219 -45.8008 69.873 -46.1426 69.8242 -46.5332 C 68.8477 -51.3672 63.8184 -55.1758 57.2754 -55.5664 L 57.2754 -58.9844 C 57.2754 -59.668 56.7383 -60.1562 56.0547 -60.1562 C 55.3223 -60.1562 54.8828 -59.7168 54.8828 -58.9844 L 54.8828 -55.5664 C 47.998 -55.127 42.4316 -50.6836 42.4316 -44.873 C 42.4316 -39.6973 46.2402 -36.2793 54.0039 -34.4727 L 54.8828 -34.2773 L 54.8828 -16.2109 C 48.8281 -16.6504 44.2871 -20.166 43.7988 -25.1465 C 43.75 -25.9766 43.4082 -26.4648 42.5781 -26.4648 C 41.9434 -26.4648 41.4551 -25.9766 41.4551 -25.0977 C 41.4551 -24.7559 41.5039 -24.3652 41.5527 -23.9746 C 42.627 -18.3105 47.7051 -14.209 54.8828 -13.8184 L 54.8828 -9.66797 C 54.8828 -8.88672 55.3711 -8.49609 56.0547 -8.49609 Z M 54.8828 -36.7676 L 54.6387 -36.8164 C 48.2422 -38.3301 44.873 -40.6738 44.873 -44.873 C 44.873 -49.4141 49.3164 -52.7344 54.8828 -53.125 Z M 57.2754 -33.7402 L 58.3496 -33.4961 C 65.2344 -31.9336 68.4082 -29.4434 68.4082 -25.0488 C 68.4082 -20.166 63.8672 -16.5039 57.2754 -16.2109 Z"/>
  </g>
  <g id="Black-S" transform="matrix(1 0 0 1 2884.57 696)">
   <path d="M 48.8281 6.78711 C 71.9727 6.78711 90.8203 -12.0605 90.8203 -35.2051 C 90.8203 -58.3496 71.9727 -77.1973 48.8281 -77.1973 C 25.6836 -77.1973 6.83594 -58.3496 6.83594 -35.2051 C 6.83594 -12.0605 25.6836 6.78711 48.8281 6.78711 Z M 48.8281 -7.37305 C 33.4473 -7.37305 20.9961 -19.8242 20.9961 -35.2051 C 20.9961 -50.5859 33.4473 -63.0371 48.8281 -63.0371 C 64.209 -63.0371 76.6602 -50.5859 76.6602 -35.2051 C 76.6602 -19.8242 64.209 -7.37305 48.8281 -7.37305 Z M 48.8281 -15.4785 C 49.6582 -15.4785 50.2441 -16.0645 50.2441 -16.9922 L 50.2441 -19.043 C 57.7637 -19.5801 62.5 -23.584 62.5 -29.541 C 62.5 -34.8145 59.2773 -37.5488 52.5879 -38.9648 L 50.2441 -39.4531 L 50.2441 -43.8965 C 51.3672 -43.6523 52.1484 -43.0664 52.7344 -42.2363 C 53.9551 -40.4785 55.3223 -39.6973 57.2266 -39.6973 C 59.8633 -39.6973 61.4746 -41.1133 61.4746 -43.2617 C 61.4746 -43.8965 61.3281 -44.5801 61.1328 -45.166 C 60.0098 -48.2422 56.3965 -51.0742 50.2441 -51.5137 L 50.2441 -53.7109 C 50.2441 -54.6387 49.6582 -55.2246 48.8281 -55.2246 C 47.998 -55.2246 47.4121 -54.6387 47.4121 -53.7109 L 47.4121 -51.5137 C 40.332 -51.1719 35.3027 -47.2656 35.3027 -41.2598 C 35.3027 -35.8398 38.7695 -32.9102 45.1172 -31.5918 L 47.4121 -31.1035 L 47.4121 -26.5625 C 45.8984 -26.7578 45.0195 -27.3926 44.5312 -28.2715 C 43.5547 -29.9316 42.2363 -30.957 40.1855 -30.957 C 37.2559 -30.957 35.6934 -29.2969 35.6934 -26.9043 C 35.6934 -26.3184 35.791 -25.6348 36.1328 -24.9023 C 37.2559 -22.4121 40.4785 -19.2871 47.4121 -18.9941 L 47.4121 -16.9922 C 47.4121 -16.0645 47.998 -15.4785 48.8281 -15.4785 Z M 47.4121 -40.0879 L 47.168 -40.1367 C 45.6543 -40.4297 44.8242 -41.0645 44.8242 -42.1387 C 44.8242 -43.2617 45.8496 -43.9941 47.4121 -44.043 Z M 50.2441 -30.5176 L 50.4883 -30.4688 C 52.2461 -30.127 53.0273 -29.6387 53.0273 -28.5156 C 53.0273 -27.3438 51.9531 -26.7578 50.2441 -26.5625 Z"/>
  </g>
  <g id="Heavy-S" transform="matrix(1 0 0 1 2588.47 696)">
   <path d="M 48.2422 6.15234 C 70.9961 6.15234 89.5996 -12.4512 89.5996 -35.2051 C 89.5996 -57.959 70.9961 -76.6113 48.1934 -76.6113 C 25.4395 -76.6113 6.83594 -57.959 6.83594 -35.2051 C 6.83594 -12.4512 25.4395 6.15234 48.2422 6.15234 Z M 48.2422 -6.39648 C 32.2754 -6.39648 19.4336 -19.2871 19.4336 -35.2051 C 19.4336 -51.1719 32.2754 -64.0137 48.1934 -64.0137 C 64.1602 -64.0137 77.002 -51.1719 77.0508 -35.2051 C 77.0508 -19.2871 64.1602 -6.39648 48.2422 -6.39648 Z M 48.1934 -14.9414 C 49.1211 -14.9414 49.7559 -15.5762 49.7559 -16.5527 L 49.7559 -18.75 C 56.8848 -19.2871 61.6211 -23.1445 61.6211 -29.1016 C 61.6211 -34.4238 58.3496 -37.2559 51.6113 -38.623 L 49.7559 -39.0137 L 49.7559 -44.7754 C 51.1719 -44.4824 52.1973 -43.7012 52.832 -42.4805 C 53.8574 -40.8203 55.0781 -40.0391 56.8848 -40.0391 C 59.2285 -40.0391 60.6934 -41.4062 60.6934 -43.3594 C 60.6934 -43.9453 60.5469 -44.5801 60.4004 -45.1172 C 59.2773 -48.4863 55.6152 -51.2695 49.7559 -51.7578 L 49.7559 -54.0527 C 49.7559 -55.0781 49.1211 -55.7129 48.1934 -55.7129 C 47.3145 -55.7129 46.6797 -55.0781 46.6797 -54.0527 L 46.6797 -51.7578 C 39.8438 -51.3184 35.0586 -47.5098 35.0586 -41.6504 C 35.0586 -36.3281 38.4766 -33.3984 44.873 -32.0312 L 46.6797 -31.6406 L 46.6797 -25.6348 C 44.7754 -25.9277 43.7012 -26.8066 43.1641 -28.0273 C 42.2852 -29.5898 41.0645 -30.5664 39.209 -30.5664 C 36.6211 -30.5664 35.2051 -29.0527 35.2051 -26.8555 C 35.2051 -26.3184 35.3027 -25.6836 35.5469 -25.0488 C 36.7188 -22.1191 40.1855 -19.0918 46.6797 -18.7012 L 46.6797 -16.5527 C 46.6797 -15.5762 47.3145 -14.9414 48.1934 -14.9414 Z M 46.6797 -39.7461 L 46.3867 -39.7949 C 44.5312 -40.2344 43.6035 -41.0645 43.6035 -42.3828 C 43.6035 -43.75 44.7754 -44.7266 46.6797 -44.9219 Z M 49.7559 -30.957 L 50.1465 -30.8594 C 52.2949 -30.3711 53.125 -29.6387 53.125 -28.2715 C 53.125 -26.7578 51.9531 -25.8789 49.7559 -25.6348 Z"/>
  </g>
  <g id="Bold-S" transform="matrix(1 0 0 1 2292.44 696)">
   <path d="M 47.5586 5.46875 C 69.873 5.46875 88.2324 -12.8906 88.2324 -35.2051 C 88.2324 -57.5684 69.873 -75.9277 47.5098 -75.9277 C 25.1953 -75.9277 6.83594 -57.5684 6.83594 -35.2051 C 6.83594 -12.8906 25.1953 5.46875 47.5586 5.46875 Z M 47.5586 -5.32227 C 30.957 -5.32227 17.6758 -18.6523 17.6758 -35.2051 C 17.6758 -51.8066 30.957 -65.1367 47.5098 -65.1367 C 64.1113 -65.1367 77.4414 -51.8066 77.4414 -35.2051 C 77.4414 -18.6523 64.1113 -5.32227 47.5586 -5.32227 Z M 47.5098 -14.3555 C 48.4863 -14.3555 49.2188 -15.0391 49.2188 -16.1133 L 49.2188 -18.4082 C 55.9082 -18.9941 60.6445 -22.6562 60.6445 -28.6621 C 60.6445 -33.9844 57.2754 -36.9629 50.5859 -38.2324 L 49.2188 -38.5254 L 49.2188 -45.8008 C 50.9766 -45.4102 52.1973 -44.3848 52.8809 -42.7246 C 53.7598 -41.2598 54.834 -40.4785 56.4453 -40.4785 C 58.4961 -40.4785 59.8633 -41.6992 59.8633 -43.5059 C 59.8633 -44.043 59.7168 -44.5801 59.5703 -45.0684 C 58.4961 -48.7305 54.7363 -51.5137 49.2188 -52.0508 L 49.2188 -54.4922 C 49.2188 -55.5176 48.4863 -56.25 47.5098 -56.25 C 46.5332 -56.25 45.8008 -55.5176 45.8008 -54.4922 L 45.8008 -52.0508 C 39.3555 -51.5137 34.7656 -47.7539 34.7656 -42.0898 C 34.7656 -36.8652 38.1836 -33.9355 44.5801 -32.5195 L 45.8008 -32.2266 L 45.8008 -24.6094 C 43.457 -24.9512 42.1875 -26.123 41.6016 -27.7344 C 40.8691 -29.248 39.7461 -30.127 38.1348 -30.127 C 35.9375 -30.127 34.6191 -28.7598 34.6191 -26.8066 C 34.6191 -26.3184 34.7168 -25.7812 34.9121 -25.1953 C 36.084 -21.7773 39.8438 -18.8477 45.8008 -18.4082 L 45.8008 -16.1133 C 45.8008 -15.0391 46.5332 -14.3555 47.5098 -14.3555 Z M 45.8008 -39.3555 L 45.5566 -39.4043 C 43.2617 -40.0391 42.1875 -41.1133 42.1875 -42.6758 C 42.1875 -44.2871 43.5547 -45.5566 45.8008 -45.8496 Z M 49.2188 -31.3965 L 49.7559 -31.2988 C 52.2949 -30.6152 53.2227 -29.6387 53.2227 -27.9785 C 53.2227 -26.1719 51.9043 -24.9512 49.2188 -24.6094 Z"/>
  </g>
  <g id="Semibold-S" transform="matrix(1 0 0 1 1996.2 696)">
   <path d="M 47.0703 4.98047 C 69.0918 4.98047 87.3047 -13.1836 87.3047 -35.2539 C 87.3047 -57.2754 69.0918 -75.4883 47.0215 -75.4883 C 25 -75.4883 6.83594 -57.2754 6.83594 -35.2539 C 6.83594 -13.1836 25.0488 4.98047 47.0703 4.98047 Z M 47.0703 -4.58984 C 30.0781 -4.58984 16.4551 -18.2129 16.4551 -35.2539 C 16.4551 -52.2461 30.0293 -65.8691 47.0215 -65.8691 C 64.0625 -65.8691 77.6855 -52.2461 77.7344 -35.2539 C 77.7344 -18.2129 64.0625 -4.58984 47.0703 -4.58984 Z M 47.0215 -13.916 C 48.0957 -13.916 48.877 -14.6484 48.877 -15.7715 L 48.877 -18.1641 C 55.2246 -18.75 59.9609 -22.3633 59.9609 -28.3203 C 59.9609 -33.6426 56.543 -36.7188 49.8535 -37.9883 L 48.877 -38.1836 L 48.877 -46.4844 C 50.8301 -46.0449 52.1973 -44.873 52.9785 -42.9199 C 53.6621 -41.5527 54.6387 -40.7227 56.2012 -40.7227 C 58.0078 -40.7227 59.2285 -41.8945 59.2285 -43.5547 C 59.2285 -44.0918 59.1309 -44.5312 59.0332 -45.0195 C 57.9102 -48.877 54.1016 -51.709 48.877 -52.2461 L 48.877 -54.7363 C 48.877 -55.8594 48.0957 -56.5918 47.0215 -56.5918 C 45.9961 -56.5918 45.2148 -55.8594 45.2148 -54.7363 L 45.2148 -52.2461 C 38.9648 -51.6602 34.6191 -47.9492 34.6191 -42.3828 C 34.6191 -37.2559 37.9883 -34.2773 44.3848 -32.8125 L 45.2148 -32.666 L 45.2148 -23.877 C 42.5781 -24.3164 41.1621 -25.6836 40.5273 -27.4902 C 39.8926 -29.0039 38.8672 -29.7852 37.3535 -29.7852 C 35.4492 -29.7852 34.2285 -28.5645 34.2285 -26.8066 C 34.2285 -26.3184 34.3262 -25.8301 34.4727 -25.293 C 35.6445 -21.5332 39.5996 -18.6523 45.2148 -18.1641 L 45.2148 -15.7715 C 45.2148 -14.6484 45.9961 -13.916 47.0215 -13.916 Z M 45.2148 -39.0625 L 44.9707 -39.1602 C 42.3828 -39.9414 41.2109 -41.1133 41.2109 -42.8711 C 41.2109 -44.6289 42.6758 -46.0938 45.2148 -46.5332 Z M 48.877 -31.7383 L 49.5117 -31.5918 C 52.3438 -30.8105 53.3203 -29.6387 53.3203 -27.7832 C 53.3203 -25.7324 51.9043 -24.2676 48.877 -23.877 Z"/>
  </g>
  <g id="Medium-S" transform="matrix(1 0 0 1 1699.83 696)">
   <path d="M 46.7285 4.63867 C 68.5547 4.63867 86.6211 -13.4277 86.6211 -35.2539 C 86.6211 -57.0312 68.5059 -75.1465 46.6797 -75.1465 C 24.8535 -75.1465 6.83594 -57.0312 6.83594 -35.2539 C 6.83594 -13.4277 24.9023 4.63867 46.7285 4.63867 Z M 46.7285 -4.00391 C 29.3945 -4.00391 15.5273 -17.9199 15.5273 -35.2539 C 15.5273 -52.5879 29.3457 -66.4551 46.6797 -66.4551 C 64.0137 -66.4551 77.8809 -52.5879 77.9297 -35.2539 C 77.9785 -17.9199 64.0625 -4.00391 46.7285 -4.00391 Z M 46.6797 -13.623 C 47.7539 -13.623 48.584 -14.3555 48.584 -15.5273 L 48.584 -17.9688 C 54.7363 -18.6035 59.4238 -22.0703 59.4238 -28.0762 C 59.4238 -33.4473 56.0059 -36.5723 49.2676 -37.7441 L 48.584 -37.8906 L 48.584 -47.0215 C 50.7324 -46.5332 52.2461 -45.2148 53.0273 -43.0664 C 53.6133 -41.748 54.4922 -40.9668 55.957 -40.9668 C 57.666 -40.9668 58.7891 -42.041 58.7891 -43.6523 C 58.7891 -44.0918 58.6914 -44.5312 58.5938 -45.0195 C 57.5195 -49.0234 53.6621 -51.8066 48.584 -52.3926 L 48.584 -54.9805 C 48.584 -56.1035 47.7539 -56.8848 46.6797 -56.8848 C 45.6055 -56.8848 44.7754 -56.1035 44.7754 -54.9805 L 44.7754 -52.3926 C 38.7207 -51.7578 34.4727 -48.0469 34.4727 -42.627 C 34.4727 -37.5 37.8418 -34.5703 44.2383 -33.1055 L 44.7754 -32.959 L 44.7754 -23.3398 C 41.9434 -23.7793 40.3809 -25.3418 39.7461 -27.3438 C 39.1113 -28.8086 38.1836 -29.541 36.7676 -29.541 C 35.0586 -29.541 33.9355 -28.418 33.9355 -26.7578 C 33.9355 -26.3184 34.0332 -25.8789 34.1797 -25.3906 C 35.3027 -21.3379 39.4531 -18.5547 44.7754 -18.0176 L 44.7754 -15.5273 C 44.7754 -14.3555 45.6055 -13.623 46.6797 -13.623 Z M 44.7754 -38.8672 L 44.5312 -38.9648 C 41.6992 -39.7949 40.4785 -41.1133 40.4785 -43.0176 C 40.4785 -44.9219 42.041 -46.5332 44.7754 -47.0215 Z M 48.584 -31.9824 L 49.3164 -31.8359 C 52.3438 -30.957 53.3691 -29.6387 53.3691 -27.6367 C 53.3691 -25.3906 51.8555 -23.7793 48.584 -23.3398 Z"/>
  </g>
  <g id="Regular-S" transform="matrix(1 0 0 1 1403.58 696)">
   <path d="M 46.2402 4.15039 C 67.7734 4.15039 85.6934 -13.7207 85.6934 -35.2539 C 85.6934 -56.7871 67.7246 -74.6582 46.1914 -74.6582 C 24.707 -74.6582 6.83594 -56.7871 6.83594 -35.2539 C 6.83594 -13.7207 24.7559 4.15039 46.2402 4.15039 Z M 46.2402 -3.27148 C 28.5156 -3.27148 14.3555 -17.4805 14.3555 -35.2539 C 14.3555 -53.0273 28.4668 -67.2363 46.1914 -67.2363 C 63.9648 -67.2363 78.1738 -53.0273 78.2227 -35.2539 C 78.2715 -17.4805 64.0137 -3.27148 46.2402 -3.27148 Z M 46.1914 -13.1836 C 47.3633 -13.1836 48.1934 -14.0137 48.1934 -15.1855 L 48.1934 -17.7734 C 54.0527 -18.3594 58.7402 -21.7773 58.7402 -27.7344 C 58.7402 -33.1055 55.2734 -36.377 48.5352 -37.5 L 48.1934 -37.5488 L 48.1934 -47.7051 C 50.5859 -47.168 52.2461 -45.7031 53.0762 -43.2617 C 53.5156 -42.041 54.3457 -41.2109 55.7129 -41.2109 C 57.1777 -41.2109 58.2031 -42.2363 58.2031 -43.7012 C 58.2031 -44.1406 58.1055 -44.5312 58.0078 -44.9707 C 56.9824 -49.2188 53.0762 -52.002 48.1934 -52.5879 L 48.1934 -55.2246 C 48.1934 -56.4453 47.3633 -57.2266 46.1914 -57.2266 C 45.0684 -57.2266 44.2383 -56.4453 44.2383 -55.2246 L 44.2383 -52.5879 C 38.3301 -51.9043 34.2773 -48.2422 34.2773 -42.9199 C 34.2773 -37.8906 37.5977 -34.9121 44.043 -33.3984 L 44.2383 -33.3496 L 44.2383 -22.6074 C 41.0645 -23.1445 39.3555 -24.8535 38.6719 -27.1484 C 38.1836 -28.5645 37.2559 -29.248 36.0352 -29.248 C 34.5703 -29.248 33.5449 -28.2227 33.5449 -26.7578 C 33.5449 -26.3184 33.6426 -25.9277 33.7402 -25.4883 C 34.8633 -21.0938 39.209 -18.3594 44.2383 -17.8223 L 44.2383 -15.1855 C 44.2383 -14.0137 45.0684 -13.1836 46.1914 -13.1836 Z M 44.2383 -38.623 L 43.9453 -38.7207 C 40.8691 -39.6973 39.5508 -41.1133 39.5508 -43.2129 C 39.5508 -45.2637 41.2109 -47.0703 44.2383 -47.7051 Z M 48.1934 -32.3242 L 49.0234 -32.1289 C 52.3926 -31.1523 53.418 -29.6387 53.418 -27.4414 C 53.418 -24.9512 51.8555 -23.0957 48.1934 -22.6074 Z"/>
  </g>
  <g id="Light-S" transform="matrix(1 0 0 1 1107.6 696)">
   <path d="M 45.5078 3.4668 C 66.6992 3.4668 84.2285 -14.0625 84.2285 -35.2051 C 84.2285 -56.3965 66.6504 -73.9258 45.5078 -73.9258 C 24.3164 -73.9258 6.83594 -56.3965 6.83594 -35.2051 C 6.83594 -14.0625 24.3652 3.4668 45.5078 3.4668 Z M 45.5078 -2.24609 C 27.2461 -2.24609 12.5977 -16.9434 12.5977 -35.2051 C 12.5977 -53.5156 27.1973 -68.2129 45.5078 -68.2129 C 63.7695 -68.2129 78.4668 -53.5156 78.5156 -35.2051 C 78.5156 -16.9434 63.8184 -2.24609 45.5078 -2.24609 Z M 45.5078 -13.5254 C 46.4355 -13.5254 47.168 -14.209 47.168 -15.1855 L 47.168 -17.9688 C 53.1738 -18.5059 57.7148 -21.9727 57.7148 -27.5879 C 57.7148 -32.666 54.3945 -35.6934 47.8027 -36.9629 L 47.168 -37.0605 L 47.168 -48.1934 C 50.1465 -47.7051 52.2949 -45.9473 53.0273 -43.2617 C 53.3691 -42.1875 54.0039 -41.5039 55.127 -41.5039 C 56.2988 -41.5039 57.1289 -42.334 57.1289 -43.5547 C 57.1289 -43.9453 57.0801 -44.2871 56.9824 -44.6777 C 56.0059 -48.7793 52.0996 -51.6602 47.168 -52.1484 L 47.168 -54.7852 C 47.168 -55.7617 46.4355 -56.4453 45.5078 -56.4453 C 44.5312 -56.4453 43.8477 -55.8105 43.8477 -54.7852 L 43.8477 -52.1484 C 38.0859 -51.5625 33.9355 -47.9492 33.9355 -42.8711 C 33.9355 -38.1348 37.1582 -35.2539 43.5059 -33.7891 L 43.8477 -33.6914 L 43.8477 -21.9238 C 40.1855 -22.3633 37.8906 -24.4141 37.3047 -27.1973 C 36.9629 -28.3691 36.2305 -28.9551 35.2051 -28.9551 C 34.0332 -28.9551 33.2031 -28.125 33.2031 -26.9043 C 33.2031 -26.5137 33.3008 -26.1719 33.3496 -25.7812 C 34.4238 -21.3867 38.623 -18.5059 43.8477 -18.0176 L 43.8477 -15.1855 C 43.8477 -14.209 44.5312 -13.5254 45.5078 -13.5254 Z M 43.8477 -37.9395 L 43.6035 -37.9883 C 39.8926 -39.0625 38.1836 -40.625 38.1836 -43.0664 C 38.1836 -45.6055 40.4297 -47.6562 43.8477 -48.1934 Z M 47.168 -32.8613 L 47.998 -32.666 C 51.9531 -31.5918 53.4668 -29.9805 53.4668 -27.3926 C 53.4668 -24.4629 51.2695 -22.3145 47.168 -21.9238 Z"/>
  </g>
  <g id="Thin-S" transform="matrix(1 0 0 1 811.867 696)">
   <path d="M 44.5801 2.53906 C 65.2832 2.53906 82.2754 -14.4531 82.2754 -35.2051 C 82.2754 -55.9082 65.2344 -72.9004 44.5312 -72.9004 C 23.8281 -72.9004 6.83594 -55.9082 6.83594 -35.2051 C 6.83594 -14.4531 23.877 2.53906 44.5801 2.53906 Z M 44.5801 -0.878906 C 25.5859 -0.878906 10.2539 -16.2109 10.2539 -35.2051 C 10.2539 -54.1504 25.5859 -69.4824 44.5312 -69.4824 C 63.5254 -69.4824 78.8574 -54.1504 78.8574 -35.2051 C 78.8574 -16.2109 63.5254 -0.878906 44.5801 -0.878906 Z M 44.5312 -13.9648 C 45.2637 -13.9648 45.8008 -14.4531 45.8008 -15.1855 L 45.8008 -18.2129 C 52.002 -18.6523 56.3477 -22.2656 56.3477 -27.3926 C 56.3477 -32.0312 53.2715 -34.8145 46.875 -36.2305 L 45.8008 -36.4258 L 45.8008 -48.8281 C 49.6094 -48.4375 52.3438 -46.2891 52.9297 -43.2129 C 53.125 -42.3828 53.5645 -41.9434 54.3457 -41.9434 C 55.1758 -41.9434 55.7129 -42.4805 55.7129 -43.3594 C 55.7129 -43.7012 55.6641 -43.9941 55.6152 -44.3359 C 54.7363 -48.2422 50.8301 -51.1719 45.8008 -51.5625 L 45.8008 -54.248 C 45.8008 -54.9316 45.2637 -55.4199 44.5312 -55.4199 C 43.7988 -55.4199 43.3594 -54.9805 43.3594 -54.248 L 43.3594 -51.5625 C 37.793 -51.123 33.5449 -47.6074 33.5449 -42.8223 C 33.5449 -38.4766 36.6211 -35.7422 42.7734 -34.2773 L 43.3594 -34.1797 L 43.3594 -20.9473 C 39.0137 -21.3379 35.9863 -23.8281 35.498 -27.2949 C 35.3516 -28.125 34.9121 -28.6133 34.082 -28.6133 C 33.3008 -28.6133 32.7637 -28.0273 32.7637 -27.1484 C 32.7637 -26.8066 32.8125 -26.5137 32.8613 -26.1719 C 33.7891 -21.7285 37.8906 -18.6523 43.3594 -18.2617 L 43.3594 -15.1855 C 43.3594 -14.4531 43.8477 -13.9648 44.5312 -13.9648 Z M 43.3594 -37.0605 L 43.1152 -37.1094 C 38.623 -38.2324 36.377 -39.9414 36.377 -42.8711 C 36.377 -46.0449 39.3555 -48.4375 43.3594 -48.8281 Z M 45.8008 -33.5938 L 46.6309 -33.3984 C 51.4648 -32.2266 53.5156 -30.3711 53.5156 -27.2949 C 53.5156 -23.8281 50.5371 -21.2891 45.8008 -20.9473 Z"/>
  </g>
  <g id="Ultralight-S" transform="matrix(1 0 0 1 515.644 696)">
   <path d="M 44.043 2.05078 C 64.502 2.05078 81.2988 -14.6973 81.2988 -35.1562 C 81.2988 -55.6152 64.502 -72.3633 44.043 -72.3633 C 23.584 -72.3633 6.83594 -55.6152 6.83594 -35.1562 C 6.83594 -14.6973 23.584 2.05078 44.043 2.05078 Z M 44.043 -0.146484 C 24.7559 -0.146484 9.08203 -15.8691 9.08203 -35.1562 C 9.08203 -54.4434 24.7559 -70.166 44.043 -70.166 C 63.3789 -70.166 79.0527 -54.4434 79.0527 -35.1562 C 79.0527 -15.8691 63.3789 -0.146484 44.043 -0.146484 Z M 44.043 -14.209 C 44.6289 -14.209 45.0684 -14.5996 45.0684 -15.1855 L 45.0684 -18.3594 C 51.416 -18.75 55.6152 -22.4121 55.6152 -27.2949 C 55.6152 -31.6895 52.6855 -34.375 46.3379 -35.8398 L 45.0684 -36.1328 L 45.0684 -49.1211 C 49.2676 -48.8281 52.3926 -46.4355 52.8809 -43.2129 C 53.0273 -42.4805 53.3203 -42.1387 53.9551 -42.1387 C 54.5898 -42.1387 54.9805 -42.5781 54.9805 -43.2617 C 54.9805 -43.5547 54.9316 -43.8477 54.8828 -44.1406 C 54.1016 -47.9492 50.1953 -50.9277 45.0684 -51.2207 L 45.0684 -53.9062 C 45.0684 -54.4922 44.6289 -54.8828 44.043 -54.8828 C 43.457 -54.8828 43.0664 -54.541 43.0664 -53.9062 L 43.0664 -51.2207 C 37.6465 -50.8789 33.3008 -47.4121 33.3008 -42.7734 C 33.3008 -38.6719 36.2793 -35.9863 42.4316 -34.5703 L 43.0664 -34.4238 L 43.0664 -20.459 C 38.4277 -20.8008 35.0098 -23.4863 34.5703 -27.3438 C 34.5215 -28.0273 34.1797 -28.418 33.5449 -28.418 C 32.959 -28.418 32.5195 -27.9785 32.5195 -27.2461 C 32.5195 -26.9531 32.5684 -26.6602 32.6172 -26.3672 C 33.4473 -21.9238 37.5 -18.75 43.0664 -18.4082 L 43.0664 -15.1855 C 43.0664 -14.5508 43.5059 -14.209 44.043 -14.209 Z M 43.0664 -36.5723 L 42.8711 -36.6211 C 37.9883 -37.793 35.4004 -39.5996 35.4004 -42.7734 C 35.4004 -46.2891 38.8184 -48.8281 43.0664 -49.1211 Z M 45.0684 -33.9355 L 45.8984 -33.7402 C 51.1719 -32.5684 53.5645 -30.6152 53.5645 -27.2461 C 53.5645 -23.5352 50.1465 -20.752 45.0684 -20.459 Z"/>
  </g>
 </g>
</svg>
