<?xml version="1.0" encoding="UTF-8" standalone="no"?>
<!-- Created with Inkscape (http://www.inkscape.org/) -->

<svg
   xmlns:dc="http://purl.org/dc/elements/1.1/"
   xmlns:cc="http://creativecommons.org/ns#"
   xmlns:rdf="http://www.w3.org/1999/02/22-rdf-syntax-ns#"
   xmlns:svg="http://www.w3.org/2000/svg"
   xmlns="http://www.w3.org/2000/svg"
   xmlns:sodipodi="http://sodipodi.sourceforge.net/DTD/sodipodi-0.dtd"
   xmlns:inkscape="http://www.inkscape.org/namespaces/inkscape"
   width="675.185"
   height="478.66144"
   id="svg2"
   sodipodi:version="0.32"
   inkscape:version="0.92.4 (5da689c313, 2019-01-14)"
   sodipodi:docname="base.svg"
   inkscape:output_extension="org.inkscape.output.svg.inkscape"
   version="1.0"
   style="display:inline">
  <defs
     id="defs4">
    <linearGradient
       id="linearGradient3287">
      <stop
         style="stop-color:#4d4d4d;stop-opacity:1;"
         offset="0"
         id="stop3289" />
      <stop
         style="stop-color:#4d4d4d;stop-opacity:0;"
         offset="1"
         id="stop3291" />
    </linearGradient>
    <inkscape:perspective
       sodipodi:type="inkscape:persp3d"
       inkscape:vp_x="0 : 526.18109 : 1"
       inkscape:vp_y="0 : 1000 : 0"
       inkscape:vp_z="744.09448 : 526.18109 : 1"
       inkscape:persp3d-origin="372.04724 : 350.78739 : 1"
       id="perspective10" />
    <inkscape:perspective
       id="perspective2390"
       inkscape:persp3d-origin="372.04724 : 350.78739 : 1"
       inkscape:vp_z="744.09448 : 526.18109 : 1"
       inkscape:vp_y="0 : 1000 : 0"
       inkscape:vp_x="0 : 526.18109 : 1"
       sodipodi:type="inkscape:persp3d" />
    <clipPath
       id="clp43">
      <path
         id="path17725"
         d="M 564.1,1054.8 L 660,1054.8 L 660,1081 L 564.1,1081 L 564.1,1054.8 z" />
    </clipPath>
    <clipPath
       id="clp44">
      <path
         id="path17731"
         d="M 570.68,1072.3 L 570.67,1063 L 578.78,1058.3 L 578.78,1061.2 L 573.17,1064.4 L 573.17,1070.8 L 570.68,1072.3" />
    </clipPath>
    <clipPath
       id="clp38">
      <path
         id="path17691"
         d="M 564.1,1054.8 L 660,1054.8 L 660,1081 L 564.1,1081 L 564.1,1054.8 z" />
    </clipPath>
    <clipPath
       id="clp39">
      <path
         id="path17697"
         d="M 578.75,1067.6 L 574.98,1069.8 L 578.75,1072 L 582.29,1069.9 L 586.57,1072.4 L 586.84,1072.3 L 578.75,1067.6" />
    </clipPath>
    <clipPath
       id="clp33">
      <path
         id="path17657"
         d="M 564.1,1054.8 L 660,1054.8 L 660,1081 L 564.1,1081 L 564.1,1054.8 z" />
    </clipPath>
    <clipPath
       id="clp34">
      <path
         id="path17663"
         d="M 578.75,1067.6 L 586.84,1072.3 L 586.84,1063 L 578.78,1058.3 L 578.78,1061.2 L 584.38,1064.4 L 584.38,1067.8 L 582.55,1066.7 L 582.55,1065.4 L 578.75,1063.3 L 578.75,1067.6" />
    </clipPath>
    <clipPath
       id="clp28">
      <path
         id="path17623"
         d="M 564.1,1054.8 L 660,1054.8 L 660,1081 L 564.1,1081 L 564.1,1054.8 z" />
    </clipPath>
    <clipPath
       id="clp29">
      <path
         id="path17629"
         d="M 578.75,1063.3 L 578.75,1067.6 L 574.98,1069.8 L 574.98,1065.4 L 578.75,1063.3" />
    </clipPath>
    <clipPath
       id="clp23">
      <path
         id="path17589"
         d="M 564.1,1054.8 L 660,1054.8 L 660,1081 L 564.1,1081 L 564.1,1054.8 z" />
    </clipPath>
    <clipPath
       id="clp24">
      <path
         id="path17595"
         d="M 584.38,1064.4 L 584.38,1067.8 L 584.1,1067.6 L 584.1,1064.5 L 584.38,1064.4" />
    </clipPath>
    <clipPath
       id="clp18">
      <path
         id="path17555"
         d="M 564.1,1054.8 L 660,1054.8 L 660,1081 L 564.1,1081 L 564.1,1054.8 z" />
    </clipPath>
    <clipPath
       id="clp19">
      <path
         id="path17561"
         d="M 573.17,1064.4 L 578.78,1061.2 L 584.38,1064.4 L 584.1,1064.6 L 578.75,1061.5 L 573.45,1064.6 L 573.17,1064.4" />
    </clipPath>
    <clipPath
       id="clp13">
      <path
         id="path17521"
         d="M 564.1,1054.8 L 660,1054.8 L 660,1081 L 564.1,1081 L 564.1,1054.8 z" />
    </clipPath>
    <clipPath
       id="clp14">
      <path
         id="path17527"
         d="M 584.85,1073.4 L 578.74,1077 L 570.68,1072.3 L 573.17,1070.8 L 578.76,1074.1 L 582.39,1072 L 584.85,1073.4" />
    </clipPath>
    <clipPath
       id="clp8">
      <path
         id="path17485"
         d="M 564.1,1054.8 L 660,1054.8 L 660,1081 L 564.1,1081 L 564.1,1054.8 z" />
    </clipPath>
    <clipPath
       id="clp9">
      <path
         id="path17491"
         d="M 582.39,1071.7 L 578.76,1073.8 L 578.76,1074.1 L 582.39,1072 L 582.39,1071.7" />
    </clipPath>
    <inkscape:perspective
       id="perspective3517"
       inkscape:persp3d-origin="389.49554 : 70.713852 : 1"
       inkscape:vp_z="778.99109 : 106.07078 : 1"
       inkscape:vp_y="0 : 1000 : 0"
       inkscape:vp_x="0 : 106.07078 : 1"
       sodipodi:type="inkscape:persp3d" />
    <clipPath
       id="clipPath107145">
      <path
         d="M 564.1,1054.8 L 660,1054.8 L 660,1081 L 564.1,1081 L 564.1,1054.8 z"
         id="path107147" />
    </clipPath>
    <clipPath
       id="clipPath107115">
      <path
         d="M 564.1,1054.8 L 660,1054.8 L 660,1081 L 564.1,1081 L 564.1,1054.8 z"
         id="path107117" />
    </clipPath>
    <clipPath
       id="clipPath107100">
      <path
         d="M 564.1,1054.8 L 660,1054.8 L 660,1081 L 564.1,1081 L 564.1,1054.8 z"
         id="path107102" />
    </clipPath>
    <clipPath
       id="clipPath107085">
      <path
         d="M 564.1,1054.8 L 660,1054.8 L 660,1081 L 564.1,1081 L 564.1,1054.8 z"
         id="path107087" />
    </clipPath>
    <clipPath
       id="clipPath107054">
      <path
         d="M 564.1,1054.8 L 660,1054.8 L 660,1081 L 564.1,1081 L 564.1,1054.8 z"
         id="path107056" />
    </clipPath>
  </defs>
  <sodipodi:namedview
     id="base"
     pagecolor="#ffffff"
     bordercolor="#666666"
     borderopacity="1.0"
     gridtolerance="10000"
     guidetolerance="10"
     objecttolerance="10"
     inkscape:pageopacity="0.0"
     inkscape:pageshadow="2"
     inkscape:zoom="1.4538721"
     inkscape:cx="263.71584"
     inkscape:cy="243.48772"
     inkscape:document-units="px"
     inkscape:current-layer="layer1"
     showgrid="false"
     showguides="true"
     inkscape:guide-bbox="true"
     inkscape:window-width="1920"
     inkscape:window-height="1030"
     inkscape:window-x="0"
     inkscape:window-y="27"
     inkscape:window-maximized="1" />
  <metadata
     id="metadata7">
    <rdf:RDF>
      <cc:Work
         rdf:about="">
        <dc:format>image/svg+xml</dc:format>
        <dc:type
           rdf:resource="http://purl.org/dc/dcmitype/StillImage" />
        <dc:title />
      </cc:Work>
    </rdf:RDF>
  </metadata>
  <g
     inkscape:label="Layer 1"
     inkscape:groupmode="layer"
     id="layer1"
     style="display:inline"
     transform="translate(-42.979567,-252.93081)">
    <path
       sodipodi:nodetypes="csssc"
       id="path2516"
       d="M 713.31414,433.02735 C 722.36162,553.66051 715.03691,638.996 695.83293,687.44687 C 667.72544,758.36091 621.37094,730.00407 605.35805,686.84371 C 594.40587,657.32373 592.08841,540.27442 591.48524,531.8301 C 590.88208,523.38578 713.9173,433.63051 713.31414,433.02735 z"
       style="fill:#3c3760;fill-opacity:1;fill-rule:evenodd;stroke:#000000;stroke-width:2;stroke-linecap:butt;stroke-linejoin:miter;stroke-miterlimit:4;stroke-dasharray:none;stroke-opacity:1" />
    <path
       id="path3211"
       style="fill:#463f6f;fill-opacity:1;fill-rule:evenodd;stroke:#000000;stroke-width:2;stroke-linecap:butt;stroke-linejoin:miter;stroke-miterlimit:4;stroke-dasharray:none;stroke-opacity:1"
       d="M 115.29412,324.51905 L 198.47104,521.3818 C 261.74101,485.87076 338.85344,474.32298 380.00001,474.32298 C 421.14657,474.32298 497.8296,485.62975 561.52897,521.3818 L 644.70588,324.51905 C 551.81933,270.89097 440,253.93081 380,253.93081 C 348.1566,253.93081 301.54102,258.80976 251.01061,271.3516 C 206.33058,282.44135 158.58976,299.5223 115.29412,324.51905 z"
       sodipodi:nodetypes="ccsccssc" />
    <path
       style="fill:#59518e;fill-opacity:1;fill-rule:evenodd;stroke:none;stroke-width:1px;stroke-linecap:butt;stroke-linejoin:miter;stroke-opacity:1"
       d="M 283.12001,486.95405 C 348.115,469.51451 406.47627,466.70922 466.18485,486.02753 L 469.3914,484.10623 C 419.99435,460.03888 338.49264,462.33759 282.43501,484.66743 L 283.12001,486.95405 z"
       id="path3610"
       sodipodi:nodetypes="ccccc" />
    <path
       sodipodi:nodetypes="ccsccssc"
       d="M 115.29412,325.30337 L 168.66711,308.96735 C 231.93708,273.45631 339.63775,261.90853 380.78432,261.90853 C 421.93088,261.90853 524.49626,273.2153 588.19563,308.96735 L 644.70588,325.30337 C 551.81933,271.67529 440,254.71513 380,254.71513 C 348.1566,254.71513 301.54102,259.59408 251.01061,272.13592 C 206.33058,283.22567 158.58976,300.30662 115.29412,325.30337 z"
       style="fill:#6b61ab;fill-opacity:1;fill-rule:evenodd;stroke:none;stroke-width:2;stroke-linecap:butt;stroke-linejoin:miter;stroke-miterlimit:4;stroke-dasharray:none;stroke-opacity:1"
       id="path3319" />
    <path
       style="fill:#3c3760;fill-opacity:1;fill-rule:evenodd;stroke:#000000;stroke-width:2;stroke-linecap:butt;stroke-linejoin:miter;stroke-miterlimit:4;stroke-dasharray:none;stroke-opacity:1"
       d="M 47.830001,433.02735 C 38.782514,553.66051 46.107225,638.996 65.311212,687.44687 C 93.418699,758.36091 139.7732,730.00407 155.78609,686.84371 C 166.73827,657.32373 169.05573,540.27442 169.6589,531.8301 C 170.26206,523.38578 47.226836,433.63051 47.830001,433.02735 z"
       id="path3241"
       sodipodi:nodetypes="csssc" />
    <path
       sodipodi:nodetypes="ccscccssc"
       d="M 649.02907,537.01198 C 611.41296,557.68834 583.35903,571.70322 573.34352,609.79461 C 563.32801,647.886 530.40572,671.96999 491.37254,671.96999 C 444.39843,671.96999 406.27451,633.84607 406.27451,586.87196 C 406.27451,566.17478 413.67572,547.19573 425.97413,532.43884 C 438.27254,517.68195 469.0196,497.50727 469.0196,430.40139 C 469.0196,363.29551 523.48235,308.83277 590.58823,308.83277 C 657.69411,308.83277 712.15686,363.29551 712.15686,430.40139 C 712.15686,476.32969 686.64519,516.33562 649.02907,537.01198 z"
       style="fill:#4e477c;fill-opacity:1;fill-rule:evenodd;stroke:#000000;stroke-width:2;stroke-linecap:round;stroke-linejoin:round;stroke-miterlimit:4;stroke-dasharray:none;stroke-opacity:1"
       id="path3263" />
    <path
       id="path3187"
       style="fill:#4e477c;fill-opacity:1;fill-rule:evenodd;stroke:#000000;stroke-width:2;stroke-linecap:round;stroke-linejoin:round;stroke-miterlimit:4;stroke-dasharray:none;stroke-opacity:1"
       d="M 109.4023,537.01198 C 147.01841,557.68834 175.07234,571.70322 185.08785,609.79461 C 195.10336,647.886 228.02565,671.96999 267.05883,671.96999 C 314.03294,671.96999 352.15686,633.84607 352.15686,586.87196 C 352.15686,566.17478 344.75565,547.19573 332.45724,532.43884 C 320.15883,517.68195 289.41177,497.50727 289.41177,430.40139 C 289.41177,363.29551 234.94902,308.83277 167.84314,308.83277 C 100.73726,308.83277 46.274511,363.29551 46.274511,430.40139 C 46.274511,476.32969 71.786184,516.33562 109.4023,537.01198 z"
       sodipodi:nodetypes="ccscccssc" />
    <path
       transform="matrix(0.6715375,0,0,0.6715375,60.397139,137.15715)"
       d="M 281.56863,436.6759 A 121.56863,121.56863 0 1 1 38.431374,436.6759 A 121.56863,121.56863 0 1 1 281.56863,436.6759 z"
       sodipodi:ry="121.56863"
       sodipodi:rx="121.56863"
       sodipodi:cy="436.6759"
       sodipodi:cx="160"
       id="path3191"
       style="opacity:1;fill:#5a518f;fill-opacity:1;fill-rule:evenodd;stroke:#000000;stroke-width:2.97824025;stroke-linecap:round;stroke-linejoin:round;stroke-miterlimit:4;stroke-dasharray:none;stroke-opacity:1"
       sodipodi:type="arc" />
    <path
       transform="matrix(0.6741443,0,0,0.6741443,82.263964,191.76429)"
       d="M 359.21568,586.08765 A 85.098038,85.098038 0 1 1 189.01961,586.08765 A 85.098038,85.098038 0 1 1 359.21568,586.08765 z"
       sodipodi:ry="85.098038"
       sodipodi:rx="85.098038"
       sodipodi:cy="586.08765"
       sodipodi:cx="274.11765"
       id="path3193"
       style="opacity:1;fill:#3b365f;fill-opacity:1;fill-rule:evenodd;stroke:#000000;stroke-width:2.96672392;stroke-linecap:round;stroke-linejoin:round;stroke-miterlimit:4;stroke-dasharray:none;stroke-opacity:1"
       sodipodi:type="arc" />
    <path
       sodipodi:type="arc"
       style="opacity:1;fill:#5b5290;fill-opacity:1;fill-rule:evenodd;stroke:#000000;stroke-width:3.27435923;stroke-linecap:round;stroke-linejoin:round;stroke-miterlimit:4;stroke-dasharray:none;stroke-opacity:1"
       id="path3199"
       sodipodi:cx="160"
       sodipodi:cy="436.6759"
       sodipodi:rx="121.56863"
       sodipodi:ry="121.56863"
       d="M 281.56863,436.6759 A 121.56863,121.56863 0 1 1 38.431374,436.6759 A 121.56863,121.56863 0 1 1 281.56863,436.6759 z"
       transform="matrix(-0.6108065,0,0,0.6108065,690.67022,163.6769)" />
    <path
       transform="matrix(0,-0.5800062,0.5794667,0,245.31464,681.54066)"
       d="M 262.4433,428.68875 L 243.92345,487.15037 L 194.04609,522.82943 L 132.72284,523.28164 L 83.377088,486.87089 L 63.997086,428.68875 L 83.377088,370.50661 L 132.72284,334.09587 L 194.04609,334.54807 L 243.92345,370.22713 L 262.4433,428.68875 z"
       inkscape:randomized="0"
       inkscape:rounded="0"
       inkscape:flatsided="false"
       sodipodi:arg2="0.62831853"
       sodipodi:arg1="0"
       sodipodi:r2="99.460846"
       sodipodi:r1="98.985367"
       sodipodi:cy="428.68875"
       sodipodi:cx="163.45793"
       sodipodi:sides="5"
       id="path3245"
       style="opacity:1;fill:#c2c200;fill-opacity:1;fill-rule:evenodd;stroke:#000000;stroke-width:3.44984341;stroke-linecap:round;stroke-linejoin:round;stroke-miterlimit:4;stroke-dasharray:none;stroke-opacity:1"
       sodipodi:type="star" />
    <path
       style="fill:#9e9e9e;fill-opacity:1;fill-rule:evenodd;stroke:#000000;stroke-width:2;stroke-linecap:round;stroke-linejoin:round;stroke-miterlimit:4;stroke-dasharray:none;stroke-opacity:1"
       d="M 255.09006,540.10631 C 253.08514,540.10631 251.49631,541.57143 251.49631,543.38756 L 251.49631,571.29381 L 223.59006,571.29381 C 221.77395,571.29381 220.30881,572.91386 220.30881,574.91881 L 220.30881,598.82506 C 220.30881,600.82998 221.77396,602.45006 223.59006,602.45006 L 251.49631,602.45006 L 251.49631,630.35631 C 251.49631,632.17242 253.08514,633.63759 255.09006,633.63756 L 279.02756,633.63756 C 281.03248,633.63756 282.65254,632.17241 282.65256,630.35631 L 282.65256,602.45006 L 310.52756,602.45006 C 312.34367,602.45006 313.80881,600.83001 313.80881,598.82506 L 313.80881,574.91881 C 313.80881,572.91389 312.34366,571.29381 310.52756,571.29381 L 282.65256,571.29381 L 282.65256,543.38756 C 282.65256,541.57145 281.03249,540.10631 279.02756,540.10631 L 255.09006,540.10631 z"
       id="rect3249" />
    <path
       sodipodi:type="inkscape:offset"
       inkscape:radius="-3.6088684"
       inkscape:original="M 255.09375 540.09375 C 253.08883 540.09374 251.5 541.55887 251.5 543.375 L 251.5 571.28125 L 223.59375 571.28125 C 221.77764 571.28124 220.3125 572.9013 220.3125 574.90625 L 220.3125 598.8125 C 220.3125 600.81741 221.77765 602.4375 223.59375 602.4375 L 251.5 602.4375 L 251.5 630.34375 C 251.5 632.15985 253.08883 633.62503 255.09375 633.625 L 279.03125 633.625 C 281.03617 633.62499 282.65623 632.15985 282.65625 630.34375 L 282.65625 602.4375 L 310.53125 602.4375 C 312.34736 602.43749 313.8125 600.81745 313.8125 598.8125 L 313.8125 574.90625 C 313.8125 572.90132 312.34735 571.28125 310.53125 571.28125 L 282.65625 571.28125 L 282.65625 543.375 C 282.65625 541.55888 281.03618 540.09375 279.03125 540.09375 L 255.09375 540.09375 z "
       style="fill:#cccccc;fill-opacity:1;fill-rule:evenodd;stroke:none;stroke-width:2;stroke-linecap:round;stroke-linejoin:round;stroke-miterlimit:4;stroke-dasharray:none;stroke-opacity:1"
       id="path4071"
       d="M 279.0625,543.375 C 279.0625,543.70507 279.27803,543.6875 279.03125,543.6875 L 255.09375,543.6875 L 255.09375,571.28125 C 255.08527,573.2625 253.48125,574.86652 251.5,574.875 L 223.59375,574.875 C 223.92384,574.875 223.90625,574.65945 223.90625,574.90625 L 223.90625,598.8125 C 223.90625,599.05922 223.92389,598.84375 223.59375,598.84375 L 251.5,598.84375 C 253.48125,598.85223 255.08527,600.45625 255.09375,602.4375 L 255.09375,630.03125 L 279.03125,630.03125 C 279.27801,630.03125 279.0625,630.01367 279.0625,630.34375 L 279.0625,602.4375 C 279.07098,600.45625 280.675,598.85223 282.65625,598.84375 L 310.53125,598.84375 C 310.2012,598.84375 310.21875,599.0593 310.21875,598.8125 L 310.21875,574.90625 C 310.21875,574.6595 310.20113,574.875 310.53125,574.875 L 282.65625,574.875 C 280.675,574.86652 279.07098,573.2625 279.0625,571.28125 L 279.0625,543.375 z" />
    <path
       sodipodi:type="arc"
       style="fill:#808080;fill-opacity:1;fill-rule:evenodd;stroke:none;stroke-width:2.79166675;stroke-linecap:round;stroke-linejoin:round;stroke-miterlimit:4;stroke-dasharray:none;stroke-opacity:1"
       id="path3254"
       sodipodi:cx="265.37897"
       sodipodi:cy="588.15552"
       sodipodi:rx="15.811819"
       sodipodi:ry="15.811819"
       d="M 281.19079,588.15552 A 15.811819,15.811819 0 1 1 249.56715,588.15552 A 15.811819,15.811819 0 1 1 281.19079,588.15552 z"
       transform="matrix(0.7164179,0,0,0.7164179,76.93657,165.50679)" />
    <path
       style="font-size:12.66273212px;font-style:normal;font-variant:normal;font-weight:normal;font-stretch:normal;text-align:center;line-height:-200%;writing-mode:lr-tb;text-anchor:middle;fill:#000000;fill-opacity:1;stroke:none;stroke-width:3pt;stroke-linecap:butt;stroke-linejoin:miter;stroke-opacity:1;font-family:DejaVu Sans Mono;-inkscape-font-specification:DejaVu Sans Mono"
       d="M 345.50999,394.92427 L 345.50999,396.19178 C 345.13076,395.94859 344.74947,395.76516 344.36613,395.64149 C 343.98691,395.51784 343.60356,395.45601 343.2161,395.456 C 342.62665,395.45601 342.16087,395.5941 341.81875,395.87026 C 341.47662,396.14232 341.30556,396.51124 341.30556,396.97702 C 341.30556,397.3851 341.41685,397.69631 341.63944,397.91065 C 341.86615,398.12499 342.28659,398.3043 342.90077,398.44856 L 343.55617,398.59696 C 344.42178,398.79894 345.05244,399.11633 345.44816,399.54913 C 345.84386,399.98195 346.04171,400.57139 346.04172,401.31746 C 346.04171,402.19545 345.76966,402.86527 345.22557,403.32693 C 344.68146,403.78859 343.89004,404.01942 342.85131,404.01942 C 342.41849,404.01942 341.98363,403.97202 341.5467,403.87722 C 341.10977,403.78653 340.67078,403.64845 340.22972,403.46296 L 340.22972,402.13362 C 340.70375,402.43452 341.15099,402.65505 341.57143,402.7952 C 341.99599,402.93534 342.42262,403.00542 342.85131,403.00542 C 343.48197,403.00542 343.97248,402.86527 344.32285,402.58497 C 344.67322,402.30056 344.8484,401.90485 344.84841,401.39784 C 344.8484,400.93618 344.7268,400.58376 344.48361,400.34055 C 344.24453,400.09736 343.82615,399.90981 343.22847,399.7779 L 342.56071,399.62333 C 341.70333,399.4296 341.08091,399.13694 340.69345,398.74535 C 340.30598,398.35376 340.11225,397.82821 340.11225,397.16869 C 340.11225,396.3443 340.38842,395.68478 340.94077,395.19014 C 341.49723,394.69139 342.23507,394.44201 343.15427,394.442 C 343.50876,394.44201 343.8818,394.48323 344.27339,394.56566 C 344.66497,394.64398 345.07717,394.76352 345.50999,394.92427 M 347.16084,394.60894 L 354.20325,394.60894 L 354.20325,395.66004 L 351.3158,395.66004 L 351.3158,403.84012 L 350.06065,403.84012 L 350.06065,395.66004 L 347.16084,395.66004 L 347.16084,394.60894 M 358.29638,395.70951 L 356.9794,400.4333 L 359.61335,400.4333 L 358.29638,395.70951 M 357.54205,394.60894 L 359.05688,394.60894 L 361.8825,403.84012 L 360.59026,403.84012 L 359.91013,401.43494 L 356.67644,401.43494 L 356.00868,403.84012 L 354.71643,403.84012 L 357.54205,394.60894 M 366.80415,399.48112 C 367.12566,399.56357 367.39977,399.7202 367.62649,399.95103 C 367.85319,400.17774 368.13555,400.63322 368.47355,401.31746 L 369.7287,403.84012 L 368.38699,403.84012 L 367.28642,401.50914 C 366.96903,400.8455 366.68255,400.41888 366.42699,400.22926 C 366.17554,400.03553 365.84579,399.93867 365.43771,399.93866 L 364.2444,399.93866 L 364.2444,403.84012 L 362.98926,403.84012 L 362.98926,394.60894 L 365.56137,394.60894 C 366.57538,394.60895 367.35237,394.83772 367.89235,395.29525 C 368.43233,395.7528 368.70232,396.41437 368.70232,397.27998 C 368.70232,397.89004 368.53538,398.3888 368.2015,398.77626 C 367.87174,399.15961 367.40596,399.39456 366.80415,399.48112 M 364.2444,395.63531 L 364.2444,398.91229 L 365.61084,398.91229 C 366.20852,398.91229 366.65369,398.77833 366.94636,398.51039 C 367.23902,398.24247 367.38535,397.83233 367.38535,397.27998 C 367.38535,396.74825 367.22871,396.34224 366.91544,396.06194 C 366.60629,395.77753 366.15493,395.63532 365.56137,395.63531 L 364.2444,395.63531 M 370.01311,394.60894 L 377.05552,394.60894 L 377.05552,395.66004 L 374.16807,395.66004 L 374.16807,403.84012 L 372.91293,403.84012 L 372.91293,395.66004 L 370.01311,395.66004 L 370.01311,394.60894 M 382.8366,394.60894 L 384.01137,394.60894 L 379.15155,405.01488 L 377.9706,405.01488 L 382.8366,394.60894 M 387.42437,395.63531 L 387.42437,399.10396 L 388.87119,399.10396 C 389.44826,399.10396 389.89756,398.95145 390.21908,398.64642 C 390.54471,398.3414 390.70753,397.91477 390.70753,397.36654 C 390.70753,396.81833 390.54677,396.39376 390.22526,396.09285 C 389.90374,395.78783 389.45238,395.63532 388.87119,395.63531 L 387.42437,395.63531 M 386.17541,394.60894 L 388.87119,394.60894 C 389.90168,394.60895 390.6828,394.8439 391.21454,395.3138 C 391.74627,395.77959 392.01213,396.46384 392.01214,397.36654 C 392.01213,398.27751 391.74627,398.96588 391.21454,399.43166 C 390.68692,399.89745 389.9058,400.13034 388.87119,400.13033 L 387.42437,400.13033 L 387.42437,403.84012 L 386.17541,403.84012 L 386.17541,394.60894 M 396.3835,395.70951 L 395.06653,400.4333 L 397.70048,400.4333 L 396.3835,395.70951 M 395.62918,394.60894 L 397.14401,394.60894 L 399.96963,403.84012 L 398.67739,403.84012 L 397.99726,401.43494 L 394.76356,401.43494 L 394.0958,403.84012 L 392.80356,403.84012 L 395.62918,394.60894 M 401.10111,400.29727 L 401.10111,394.60894 L 402.35626,394.60894 L 402.35626,400.86611 C 402.35625,401.31541 402.36862,401.63692 402.39335,401.83065 C 402.41808,402.02026 402.46136,402.16659 402.5232,402.26964 C 402.6551,402.51284 402.84471,402.69627 403.09203,402.81993 C 403.34347,402.94359 403.64643,403.00542 404.00093,403.00542 C 404.35954,403.00542 404.6625,402.94359 404.90982,402.81993 C 405.15714,402.69627 405.34881,402.51284 405.48484,402.26964 C 405.54667,402.16659 405.58995,402.02026 405.61468,401.83065 C 405.63941,401.64104 405.65178,401.32365 405.65178,400.87847 L 405.65178,394.60894 L 406.90074,394.60894 L 406.90074,400.29727 C 406.90074,401.24121 406.84097,401.91309 406.72144,402.31292 C 406.60601,402.70864 406.40404,403.03633 406.1155,403.29602 C 405.84345,403.53921 405.53224,403.72058 405.18188,403.84012 C 404.8315,403.95966 404.43785,404.01942 404.00093,404.01942 C 403.56812,404.01942 403.17653,403.95966 402.82616,403.84012 C 402.47579,403.72058 402.16252,403.53921 401.88635,403.29602 C 401.60193,403.04045 401.39995,402.7107 401.28042,402.30674 C 401.16088,401.89867 401.10111,401.22884 401.10111,400.29727 M 414.06681,394.92427 L 414.06681,396.19178 C 413.68758,395.94859 413.3063,395.76516 412.92296,395.64149 C 412.54373,395.51784 412.16039,395.45601 411.77293,395.456 C 411.18348,395.45601 410.71769,395.5941 410.37557,395.87026 C 410.03345,396.14232 409.86238,396.51124 409.86239,396.97702 C 409.86238,397.3851 409.97368,397.69631 410.19627,397.91065 C 410.42297,398.12499 410.84342,398.3043 411.45759,398.44856 L 412.11299,398.59696 C 412.9786,398.79894 413.60926,399.11633 414.00498,399.54913 C 414.40068,399.98195 414.59854,400.57139 414.59854,401.31746 C 414.59854,402.19545 414.32649,402.86527 413.78239,403.32693 C 413.23828,403.78859 412.44686,404.01942 411.40813,404.01942 C 410.97532,404.01942 410.54045,403.97202 410.10352,403.87722 C 409.66659,403.78653 409.2276,403.64845 408.78655,403.46296 L 408.78655,402.13362 C 409.26058,402.43452 409.70781,402.65505 410.12825,402.7952 C 410.55282,402.93534 410.97944,403.00542 411.40813,403.00542 C 412.03879,403.00542 412.5293,402.86527 412.87968,402.58497 C 413.23004,402.30056 413.40522,401.90485 413.40523,401.39784 C 413.40522,400.93618 413.28363,400.58376 413.04044,400.34055 C 412.80136,400.09736 412.38297,399.90981 411.78529,399.7779 L 411.11753,399.62333 C 410.26015,399.4296 409.63774,399.13694 409.25027,398.74535 C 408.8628,398.35376 408.66907,397.82821 408.66907,397.16869 C 408.66907,396.3443 408.94524,395.68478 409.49759,395.19014 C 410.05406,394.69139 410.79189,394.44201 411.7111,394.442 C 412.06558,394.44201 412.43862,394.48323 412.83021,394.56566 C 413.2218,394.64398 413.63399,394.76352 414.06681,394.92427 M 416.64511,394.60894 L 422.12322,394.60894 L 422.12322,395.66004 L 417.89407,395.66004 L 417.89407,398.39292 L 421.93773,398.39292 L 421.93773,399.44402 L 417.89407,399.44402 L 417.89407,402.78901 L 422.2407,402.78901 L 422.2407,403.84012 L 416.64511,403.84012 L 416.64511,394.60894"
       id="text4027" />
    <path
       transform="matrix(0.4684029,0,0,0.4684029,142.75454,311.37819)"
       d="M 281.19079,588.15552 A 15.811819,15.811819 0 1 1 249.56715,588.15552 A 15.811819,15.811819 0 1 1 281.19079,588.15552 z"
       sodipodi:ry="15.811819"
       sodipodi:rx="15.811819"
       sodipodi:cy="588.15552"
       sodipodi:cx="265.37897"
       id="path4073"
       style="fill:#6a6a6a;fill-opacity:1;fill-rule:evenodd;stroke:none;stroke-width:2.79166675;stroke-linecap:round;stroke-linejoin:round;stroke-miterlimit:4;stroke-dasharray:none;stroke-opacity:1"
       sodipodi:type="arc" />
    <path
       sodipodi:type="star"
       style="fill:#5a5a5a;fill-opacity:1;stroke:#000000;stroke-width:2;stroke-linecap:round;stroke-linejoin:round;stroke-miterlimit:4;stroke-dasharray:none;stroke-opacity:1"
       id="path886"
       sodipodi:sides="8"
       sodipodi:cx="166.09906"
       sodipodi:cy="430.3278"
       sodipodi:r1="66.173706"
       sodipodi:r2="61.136536"
       sodipodi:arg1="0.81480145"
       sodipodi:arg2="1.2075005"
       inkscape:flatsided="true"
       inkscape:rounded="0"
       inkscape:randomized="0"
       d="m 211.49507,478.47508 -47.34145,17.99781 -46.20185,-20.74909 -17.997813,-47.34145 20.749093,-46.20185 47.34145,-17.99781 46.20185,20.74909 17.99781,47.34145 z" />
  </g>
</svg>
