/* XPM */
static const char *Dolphin_xpm[] = {
"32 32 94 2",
"  	c None",
". 	c #000000",
"+ 	c #1A496C",
"@ 	c #091A27",
"# 	c #3AA4F0",
"$ 	c #3AA3EF",
"% 	c #3CA1EA",
"& 	c #1A4A6D",
"* 	c #3AA2ED",
"= 	c #F7FAFA",
"- 	c #FFFFFF",
"; 	c #FDFDFD",
"> 	c #49A1E0",
", 	c #3BA2EC",
"' 	c #FBFDFC",
") 	c #FEFFFD",
"! 	c #4EA3E0",
"~ 	c #3DA1E9",
"{ 	c #D1E1EB",
"] 	c #8ABBDE",
"^ 	c #F2F6F7",
"/ 	c #FAFBFC",
"( 	c #CEDEEA",
"_ 	c #E5EEF2",
": 	c #BBD2E1",
"< 	c #B3CFE5",
"[ 	c #FFFFFE",
"} 	c #FEFFFE",
"| 	c #E8F0F3",
"1 	c #E4ECF1",
"2 	c #E5EDF0",
"3 	c #E9F0F3",
"4 	c #FEFEFE",
"5 	c #F9FBFB",
"6 	c #B0CCE0",
"7 	c #FEFEFF",
"8 	c #F9FAFB",
"9 	c #43A1E4",
"0 	c #EFF3F6",
"a 	c #F0F5F7",
"b 	c #97C1DE",
"c 	c #FEFEFD",
"d 	c #FDFDFC",
"e 	c #97BEDB",
"f 	c #FBFCFC",
"g 	c #EDF3F6",
"h 	c #6EADDA",
"i 	c #F3F6F8",
"j 	c #3BA1EA",
"k 	c #6EADDB",
"l 	c #F4F8F9",
"m 	c #F1F6F7",
"n 	c #3FA1E7",
"o 	c #9BC1DD",
"p 	c #FCFDFC",
"q 	c #FBFDFB",
"r 	c #B9D1E1",
"s 	c #E0EBF2",
"t 	c #D3E3EF",
"u 	c #FFFEFE",
"v 	c #F2F7F7",
"w 	c #D5E4F0",
"x 	c #F6F9F9",
"y 	c #BDD5E5",
"z 	c #EBF1F4",
"A 	c #DEEAF2",
"B 	c #AAC9DE",
"C 	c #FEFFFF",
"D 	c #EFF4F6",
"E 	c #F8FAFB",
"F 	c #A0C4E1",
"G 	c #D6E5F0",
"H 	c #FAFCFC",
"I 	c #BDD5E7",
"J 	c #EEF3F7",
"K 	c #F3F7FA",
"L 	c #C7D8E4",
"M 	c #CDDEEC",
"N 	c #DAE6ED",
"O 	c #9AC2DF",
"P 	c #E8EFF4",
"Q 	c #ACCDE3",
"R 	c #8DBBDC",
"S 	c #D5E3EB",
"T 	c #FDFFFE",
"U 	c #FCFDFD",
"V 	c #FEFDFD",
"W 	c #F7F9FA",
"X 	c #FDFEFD",
"Y 	c #E7EFF4",
"Z 	c #A4C7E0",
"` 	c #F9FDFB",
" .	c #F6FBFC",
"..	c #B8D1E3",
"  . . + . . . . . . . . . . . . . . . . . . . . . . . .         ",
". @ . . # # # # # # # # # # # # # # # # # # # # # # # # . .     ",
". . # # # # # # # # # # # # $ . . . . . % # # # # # # # # # .   ",
"& . # # # # # # # # # # # * . = - - - ; . > # # # # # # # # .   ",
". # # # # # # # # # # # , . ' ) - - - - ) . ! # # # # # # # # . ",
". # # # # # # $ . . # $ . ; - - - - - - - - . ~ # # # # # # # . ",
". # # # # . . . { ] . . ^ ) - - - - - - - - / . # # # # # # # . ",
". # # # . ( _ . : < . . [ } - - - - - - - - [ . # # # # # # # . ",
". # # # # . | 1 2 3 . . 4 - - - - - - - - - 5 . $ # # # # # # . ",
". # # # # . 6 [ } 7 . . 4 - - - - - - - - - 8 . 9 # # # # # # . ",
". # # # # . 0 } - - - - - - - - - - - - - - - 4 . # # # # # # . ",
". # # # # . a ) - [ - - - - - - - - - - - - - ; . # # # # # # . ",
". # # # # . b = c 4 - - - - - - - - - - - - d . ~ # # # # # # . ",
". # # # # # . . . e f - - - - - - - - - - g . , # # # # # # # . ",
". # # # # # # # # . h i - - - - - - - - ) . j # # # # # # # # . ",
". # # # # # # # # # . k l - - - - - - - } m . n # # # # # # # . ",
". # # # # # # # # # # . o } - - - - - - - - p . , # # # # # # . ",
". # # # # # # # # # # $ . } - - - - - - - - 4 q . # # # # # # . ",
". # # # # # # # # # # . r - - - - - - - - - } 4 s . # # # # # . ",
". # # # # # # # # # # . t - - - - - - - - - u v . # # # # # # . ",
". # # # # # # # # # # . w - - - - - - - - - x . # # # # # # # . ",
". # # # # # # # # # # . y [ - - - - - - - - z . # # # # # # # . ",
". # # # # # # # # # # $ . ) - - [ - - - - - A . # # # # # # # . ",
". # # # # # # # # # # . B C - - [ D E - - - F . # # # # # # # . ",
". # # # # # # # # # # . G - - - H . I - - J . # # # # # # # # . ",
". # # # # # # # # # # . K - - - L . M - [ N . # # # # # # # # . ",
". # # # # # # # # # . O - - - - . . P - - 5 Q . $ # # # # # # . ",
". # # # # # # # # . R q - - - - . . i - - - 7 l . # # # # # # . ",
"  . # # # # # # # . S T [ [ U V . . 5 W ; - X Y . # # # # # .   ",
"  . # # # # # # # . Z `  .... . ~ , . . . . . . # # # # # # .   ",
"    . . # # # # # # . . . . # # # # # # # # # # # # # # . .     ",
"        . . . . . . . . . . . . . . . . . . . . . . . .         "};
