/* XPM */
static const char * Flag_Germany_xpm[] = {
"96 32 6 1",
" 	c None",
".	c #000000",
"+	c #4A0000",
"@	c #DD0000",
"#	c #F48A00",
"$	c #FFCE00",
"                                                                                                ",
"                                                                                                ",
"                                                                                                ",
"                                                                                                ",
"................................                                                                ",
"................................                                                                ",
"................................                                                                ",
"................................                                                                ",
"................................                                                                ",
"................................                                                                ",
"................................                                                                ",
".++++++++++++++++++++++++++++++.                                                                ",
".@@@@@@@@@@@@@@@@@@@@@@@@@@@@@@.                                                                ",
".@@@@@@@@@@@@@@@@@@@@@@@@@@@@@@.                                                                ",
".@@@@@@@@@@@@@@@@@@@@@@@@@@@@@@.                                                                ",
".@@@@@@@@@@@@@@@@@@@@@@@@@@@@@@.                                                                ",
".@@@@@@@@@@@@@@@@@@@@@@@@@@@@@@.                                                                ",
".@@@@@@@@@@@@@@@@@@@@@@@@@@@@@@.                                                                ",
".##############################.                                                                ",
".$$$$$$$$$$$$$$$$$$$$$$$$$$$$$$.                                                                ",
".$$$$$$$$$$$$$$$$$$$$$$$$$$$$$$.                                                                ",
".$$$$$$$$$$$$$$$$$$$$$$$$$$$$$$.                                                                ",
".$$$$$$$$$$$$$$$$$$$$$$$$$$$$$$.                                                                ",
".$$$$$$$$$$$$$$$$$$$$$$$$$$$$$$.                                                                ",
".$$$$$$$$$$$$$$$$$$$$$$$$$$$$$$.                                                                ",
"................................                                                                ",
"                                                                                                ",
"                                                                                                ",
"                                                                                                ",
"                                                                                                ",
"                                                                                                ",
"                                                                                                "};
