/* XPM */
static char * Flag_USA_xpm[] = {
"96 32 88 1",
" 	c None",
".	c #000000",
"+	c #545380",
"@	c #5C5B87",
"#	c #565580",
"$	c #5B5A85",
"%	c #585782",
"&	c #5B5A84",
"*	c #5A5984",
"=	c #585783",
"-	c #5C5B85",
";	c #555481",
">	c #5D5C85",
",	c #54537F",
"'	c #B22234",
")	c #494878",
"!	c #64638A",
"~	c #686891",
"{	c #66658B",
"]	c #66668F",
"^	c #67668D",
"/	c #65658E",
"(	c #68678E",
"_	c #65648D",
":	c #6A6A8F",
"<	c #62628C",
"[	c #4A4A78",
"}	c #E1AAB1",
"|	c #5B5A83",
"1	c #6B6A92",
"2	c #68678D",
"3	c #6A698E",
"4	c #696890",
"5	c #6A6990",
"6	c #676790",
"7	c #6D6C91",
"8	c #68678F",
"9	c #6C6B92",
"0	c #595883",
"a	c #EDCCD0",
"b	c #484777",
"c	c #66668E",
"d	c #69688F",
"e	c #6B6A91",
"f	c #6A6991",
"g	c #6A6A91",
"h	c #686790",
"i	c #6E6D92",
"j	c #67678E",
"k	c #494877",
"l	c #585784",
"m	c #69698F",
"n	c #61618A",
"o	c #676690",
"p	c #65648B",
"q	c #65648E",
"r	c #66658D",
"s	c #64638D",
"t	c #605F8A",
"u	c #68688F",
"v	c #F3DDE0",
"w	c #434273",
"x	c #64638B",
"y	c #686890",
"z	c #66658E",
"A	c #63628C",
"B	c #DB99A1",
"C	c #6A698F",
"D	c #626188",
"E	c #67668E",
"F	c #636289",
"G	c #66658C",
"H	c #63628B",
"I	c #606089",
"J	c #B83243",
"K	c #414071",
"L	c #65648A",
"M	c #67668F",
"N	c #6B6A90",
"O	c #6E6D94",
"P	c #64638C",
"Q	c #FFFFFF",
"R	c #5D5C86",
"S	c #6D6C92",
"T	c #65648C",
"U	c #67678F",
"V	c #CA6672",
"W	c #6A4A71",
"                                                                                                ",
"                                                                                                ",
"                                                                                                ",
"                                                                                                ",
"                                                                                                ",
"................................                                                                ",
".+@#$%&*=-;>,''''''''''''''''''.                                                                ",
".)!~{]^/(_:<[}}}}}}}}}}}}}}}}}}.                                                                ",
".|12134567890aaaaaaaaaaaaaaaaaa.                                                                ",
".bc9d1efghijk''''''''''''''''''.                                                                ",
".lmnopqrs2tu0vvvvvvvvvvvvvvvvvv.                                                                ",
".wx9^5y8fziAwBBBBBBBBBBBBBBBBBB.                                                                ",
".$CDEFGqH2IC&JJJJJJJJJJJJJJJJJJ.                                                                ",
".KLiMeudNrOPKQQQQQQQQQQQQQQQQQQ.                                                                ",
".RST4_U4qNASRVVVVVVVVVVVVVVVVVV.                                                                ",
".WWWWWWWWWWWWVVVVVVVVVVVVVVVVVV.                                                                ",
".QQQQQQQQQQQQQQQQQQQQQQQQQQQQQQ.                                                                ",
".JJJJJJJJJJJJJJJJJJJJJJJJJJJJJJ.                                                                ",
".BBBBBBBBBBBBBBBBBBBBBBBBBBBBBB.                                                                ",
".vvvvvvvvvvvvvvvvvvvvvvvvvvvvvv.                                                                ",
".''''''''''''''''''''''''''''''.                                                                ",
".aaaaaaaaaaaaaaaaaaaaaaaaaaaaaa.                                                                ",
".}}}}}}}}}}}}}}}}}}}}}}}}}}}}}}.                                                                ",
".''''''''''''''''''''''''''''''.                                                                ",
"................................                                                                ",
"                                                                                                ",
"                                                                                                ",
"                                                                                                ",
"                                                                                                ",
"                                                                                                ",
"                                                                                                ",
"                                                                                                "};
