/* XPM */
static const char * Flag_Taiwan_xpm[] = {
"96 32 32 1",
" 	c None",
".	c #000000",
"+	c #000095",
"@	c #FE0000",
"#	c #050597",
"$	c #2727A5",
"%	c #2A2AA6",
"&	c #6A6AC1",
"*	c #A4A4D9",
"=	c #6B6BC1",
"-	c #2929A6",
";	c #3636AB",
">	c #8181CA",
",	c #9595D3",
"'	c #D4D4ED",
")	c #9494D2",
"!	c #8282CB",
"~	c #3535AB",
"{	c #2B2BA7",
"]	c #7F7FC9",
"^	c #FFFFFF",
"/	c #7E7ECA",
"(	c #040497",
"_	c #3C3CAE",
":	c #8080C9",
"<	c #7F7FCA",
"[	c #9494D3",
"}	c #2C2CA7",
"|	c #5454B8",
"1	c #9F9FD7",
"2	c #5555B8",
"3	c #2828A6",
"                                                                                                ",
"                                                                                                ",
"                                                                                                ",
"                                                                                                ",
"................................                                                                ",
".+++++++++++++++@@@@@@@@@@@@@@@.                                                                ",
".+++++#+$+#+++++@@@@@@@@@@@@@@@.                                                                ",
".+++++%&*=-+++++@@@@@@@@@@@@@@@.                                                                ",
".++++;>,')!~++++@@@@@@@@@@@@@@@.                                                                ",
".++++{]^^^/{++++@@@@@@@@@@@@@@@.                                                                ",
".+++(_:^^^<_(+++@@@@@@@@@@@@@@@.                                                                ",
".++++;>[')!~++++@@@@@@@@@@@@@@@.                                                                ",
".+++++}|12{+++++@@@@@@@@@@@@@@@.                                                                ",
".+++++#+3+#+++++@@@@@@@@@@@@@@@.                                                                ",
".+++++++++++++++@@@@@@@@@@@@@@@.                                                                ",
".@@@@@@@@@@@@@@@@@@@@@@@@@@@@@@.                                                                ",
".@@@@@@@@@@@@@@@@@@@@@@@@@@@@@@.                                                                ",
".@@@@@@@@@@@@@@@@@@@@@@@@@@@@@@.                                                                ",
".@@@@@@@@@@@@@@@@@@@@@@@@@@@@@@.                                                                ",
".@@@@@@@@@@@@@@@@@@@@@@@@@@@@@@.                                                                ",
".@@@@@@@@@@@@@@@@@@@@@@@@@@@@@@.                                                                ",
".@@@@@@@@@@@@@@@@@@@@@@@@@@@@@@.                                                                ",
".@@@@@@@@@@@@@@@@@@@@@@@@@@@@@@.                                                                ",
".@@@@@@@@@@@@@@@@@@@@@@@@@@@@@@.                                                                ",
".@@@@@@@@@@@@@@@@@@@@@@@@@@@@@@.                                                                ",
"................................                                                                ",
"                                                                                                ",
"                                                                                                ",
"                                                                                                ",
"                                                                                                ",
"                                                                                                ",
"                                                                                                "};
