/* XPM */
static const char * Flag_Spain_xpm[] = {
"96 32 59 1",
" 	c None",
".	c #000000",
"+	c #C60B1E",
"@	c #FFC400",
"#	c #E8B707",
"$	c #E6B709",
"%	c #FAC006",
"&	c #C08113",
"*	c #B9720D",
"=	c #B9720E",
"-	c #BF8113",
";	c #FAC005",
">	c #D99F03",
",	c #D69A03",
"'	c #C47F08",
")	c #A37D0A",
"!	c #AB7D0A",
"~	c #C58109",
"{	c #DDA102",
"]	c #E3B91B",
"^	c #DCB41F",
"/	c #A73C12",
"(	c #A83D11",
"_	c #B59BA2",
":	c #C5A6A9",
"<	c #DDB420",
"[	c #DFB61E",
"}	c #CE872D",
"|	c #C67C30",
"1	c #925318",
"2	c #854523",
"3	c #A17C89",
"4	c #C6A0B1",
"5	c #C77F2F",
"6	c #C8822E",
"7	c #D59433",
"8	c #CD8D39",
"9	c #A64D1B",
"0	c #7C423D",
"a	c #7D4443",
"b	c #B9572A",
"c	c #CC8C39",
"d	c #D08E35",
"e	c #E3B72C",
"f	c #DDB632",
"g	c #A7560E",
"h	c #AB580D",
"i	c #B44C15",
"j	c #B34C13",
"k	c #DDB52E",
"l	c #DEB32E",
"m	c #C7AA2D",
"n	c #C6AD31",
"o	c #C4872C",
"p	c #B58955",
"q	c #B9885E",
"r	c #CF8932",
"s	c #C6AC2F",
"t	c #C4AA2E",
"                                                                                                ",
"                                                                                                ",
"                                                                                                ",
"                                                                                                ",
"................................                                                                ",
".++++++++++++++++++++++++++++++.                                                                ",
".++++++++++++++++++++++++++++++.                                                                ",
".++++++++++++++++++++++++++++++.                                                                ",
".++++++++++++++++++++++++++++++.                                                                ",
".++++++++++++++++++++++++++++++.                                                                ",
".@@@@@@@@@@@@@@@@@@@@@@@@@@@@@@.                                                                ",
".@@@@@@@@@#$@@@@@@@@@@@@@@@@@@@.                                                                ",
".@@@@@@@%&*=-;@@@@@@@@@@@@@@@@@.                                                                ",
".@@@@@@>,')!~{{@@@@@@@@@@@@@@@@.                                                                ",
".@@@@@@]^/(_:<[@@@@@@@@@@@@@@@@.                                                                ",
".@@@@@@}|123456@@@@@@@@@@@@@@@@.                                                                ",
".@@@@@@7890abcd@@@@@@@@@@@@@@@@.                                                                ",
".@@@@@@efghijkl@@@@@@@@@@@@@@@@.                                                                ",
".@@@@@@mnopqrst@@@@@@@@@@@@@@@@.                                                                ",
".@@@@@@@@@@@@@@@@@@@@@@@@@@@@@@.                                                                ",
".++++++++++++++++++++++++++++++.                                                                ",
".++++++++++++++++++++++++++++++.                                                                ",
".++++++++++++++++++++++++++++++.                                                                ",
".++++++++++++++++++++++++++++++.                                                                ",
".++++++++++++++++++++++++++++++.                                                                ",
"................................                                                                ",
"                                                                                                ",
"                                                                                                ",
"                                                                                                ",
"                                                                                                ",
"                                                                                                ",
"                                                                                                "};
