/* XPM */
static const char *const Flag_Europe_xpm[] = {
"96 32 48 1",
" 	c None",
".	c #000000",
"+	c #0000FD",
"@	c #0000FF",
"#	c #0808F7",
"$	c #5C5CA3",
"%	c #1717E8",
"&	c #767680",
"*	c #EDED00",
"=	c #A5A54D",
"-	c #2E2EB9",
";	c #96961A",
">	c #4A4A8E",
",	c #0000FB",
"'	c #0000F4",
")	c #0808EC",
"!	c #5C5C9B",
"~	c #1717DD",
"{	c #0000EE",
"]	c #767677",
"^	c #A5A547",
"/	c #0000DD",
"(	c #2E2EA0",
"_	c #969616",
":	c #4A4A7B",
"<	c #0000D2",
"[	c #0000C6",
"}	c #0808BF",
"|	c #5C5C7E",
"1	c #1717B4",
"2	c #0000B9",
"3	c #76765C",
"4	c #A5A537",
"5	c #0808B3",
"6	c #5C5C76",
"7	c #1717A8",
"8	c #0000A9",
"9	c #2E2E7A",
"0	c #969611",
"a	c #4A4A5E",
"b	c #767654",
"c	c #A5A533",
"d	c #000097",
"e	c #2E2E6D",
"f	c #96960F",
"g	c #4A4A54",
"h	c #000081",
"i	c #000077",
"                                                                                                ",
"                                                                                                ",
"                                                                                                ",
"                                                                                                ",
"                                                                                                ",
"................................                                                                ",
".++++++++++++++++++++++++++++++.                                                                ",
".@@@@@@@@@@@@@@@@@@@@@@@@@@@@@@.                                                                ",
".@@@@@@@@@@@@@#$%@@@@@@@@@@@@@@.                                                                ",
".@@@@@@@@@#$%@&*=@#$%@@@@@@@@@@.                                                                ",
".@@@@@@@@@&*=@-;>@&*=@@@@@@@@@@.                                                                ",
".@@@@@@@@@-;>@@@@@-;>@@@@@@@@@@.                                                                ",
".,,,,,,,,,,,,,,,,,,,,,,,,,,,,,,.                                                                ",
".''''''')!~''''''''')!~''''''''.                                                                ",
".{{{{{{{]*^{{{{{{{{{]*^{{{{{{{{.                                                                ",
".///////(_://///////(_:////////.                                                                ",
".<<<<<<<<<<<<<<<<<<<<<<<<<<<<<<.                                                                ",
".[[[[[[[[[}|1[[[[[}|1[[[[[[[[[[.                                                                ",
".2222222223*4256723*42222222222.                                                                ",
".88888888890a8b*c890a8888888888.                                                                ",
".dddddddddddddefgdddddddddddddd.                                                                ",
".hhhhhhhhhhhhhhhhhhhhhhhhhhhhhh.                                                                ",
".iiiiiiiiiiiiiiiiiiiiiiiiiiiiii.                                                                ",
".iiiiiiiiiiiiiiiiiiiiiiiiiiiiii.                                                                ",
"................................                                                                ",
"                                                                                                ",
"                                                                                                ",
"                                                                                                ",
"                                                                                                ",
"                                                                                                ",
"                                                                                                ",
"                                                                                                "};
