/* XPM */
static const char * Flag_USA_xpm[] = {
"96 32 30 1",
" 	c None",
".	c #000000",
"+	c #0000FF",
"@	c #CE7070",
"#	c #B0BF99",
"$	c #F1F1F1",
"%	c #FFFFFF",
"&	c #0000FD",
"*	c #CF8484",
"=	c #DA9090",
"-	c #0000F3",
";	c #B0BF96",
">	c #0000DF",
",	c #0000CB",
"'	c #B0BF8C",
")	c #D98E8E",
"!	c #0000B5",
"~	c #CA6C6C",
"{	c #000098",
"]	c #B0BF80",
"^	c #000077",
"/	c #C26464",
"(	c #DBDBDB",
"_	c #C17676",
":	c #B55757",
"<	c #BBBBBB",
"[	c #AC6161",
"}	c #A34545",
"|	c #8B8B8B",
"1	c #8E4343",
"                                                                                                ",
"                                                                                                ",
"                                                                                                ",
"                                                                                                ",
"                                                                                                ",
"................................                                                                ",
".++++++++++++++@@@@@@@@@@@@@@@@.                                                                ",
".+#+#+#+#+#+#++$%%%%%%%%%%%%%%%.                                                                ",
".&&&&&&&&&&&&&&*===============.                                                                ",
".-;-;-;-;-;-;--@@@@@@@@@@@@@@@@.                                                                ",
".>>>>>>>>>>>>>>$%%%%%%%%%%%%%%%.                                                                ",
".,',',',',',',,*))))))))))))))).                                                                ",
".!!!!!!!!!!!!!!@~~~~~~~~~~~~~~~.                                                                ",
".{]{]{]{]{]{]{{$$$$$$$$$$$$$$$$.                                                                ",
".^^^^^^^^^^^^^^****************.                                                                ",
".^^^^^^^^^^^^^^@///////////////.                                                                ",
".((((((((((((((((((((((((((((((.                                                                ",
".______________________________.                                                                ",
".::::::::::::::::::::::::::::::.                                                                ",
".<<<<<<<<<<<<<<<<<<<<<<<<<<<<<<.                                                                ",
".[[[[[[[[[[[[[[[[[[[[[[[[[[[[[[.                                                                ",
".}}}}}}}}}}}}}}}}}}}}}}}}}}}}}}.                                                                ",
".||||||||||||||||||||||||||||||.                                                                ",
".111111111111111111111111111111.                                                                ",
"................................                                                                ",
"                                                                                                ",
"                                                                                                ",
"                                                                                                ",
"                                                                                                ",
"                                                                                                ",
"                                                                                                ",
"                                                                                                "};
