/* XPM */
static const char *const Flag_Korea_xpm[] = {
/* columns rows colors chars-per-pixel */
"96 32 210 2",
".  c Black",
"p  c #CACACA",
"=  c #D9D9D9",
"a  c #EED0D6",
">. c #770730",
"e  c #F7F7F7",
"^  c #4B4B4B",
"}. c #5A5A5A",
"OX c #A0A4A8",
"k. c #878787",
"P  c #D38494",
"u. c #161951",
"@  c #E1E1E1",
"{. c #353535",
"X  c #FFFFFF",
"-. c #71163F",
"g  c #E3A3AE",
"0  c #444444",
"t  c #535353",
"%X c #626262",
"g. c #011F5A",
"x. c #3D557C",
"P. c #475D7F",
"C. c #8F8F8F",
"B  c #B80020",
"$. c #949CB0",
"#  c #9E9E9E",
".. c #B60323",
"N  c #B6001A",
"C  c #B6001B",
"k  c #5B5B5B",
"`. c #6A6A6A",
"/  c #797979",
"*. c #AD0B2A",
"6  c #888888",
"2X c #979797",
"f  c #D5667A",
"w. c #843656",
"Q  c #BD2D47",
"y. c #16396E",
"+. c #D3D3D3",
"9. c #002F6C",
"$  c #E2E2E2",
"s. c #002C65",
"`  c #D0C6CD",
"x  c #F1F1F1",
"S. c #363636",
"=. c #B20927",
"F  c #454545",
"W. c #959DA6",
"n. c #00295F",
"l  c #545454",
"v. c #002962",
",. c #C0344C",
"J. c #00265A",
"2. c #7394AE",
"Z  c #C53851",
"Q. c #3E5375",
";X c #9F9F9F",
"H. c #002358",
"z. c #C2C4C6",
"j  c #AEAEAE",
"V. c #BDBDBD",
"e. c #D7B8BA",
"(  c #CCCCCC",
"U  c #B2001E",
"$X c #2F2F2F",
";  c #F9F9F9",
"!  c #E1C0C6",
"v  c #4D4D4D",
"@X c #6B6B6B",
"<  c #7A7A7A",
"3. c #412554",
"c. c #001D59",
"q  c #898989",
"<X c #989898",
"7. c #621842",
"L. c #001A52",
"l. c #A7A7A7",
"+  c #F2F2F2",
"'  c #B0324D",
"b  c #373737",
"}  c #B30A2A",
"&  c #464646",
"3  c #555555",
",X c #737373",
"5. c #BF0621",
"&. c #AE001D",
"). c #AFB2B4",
"5X c #919191",
":. c #332358",
"-X c #A0A0A0",
"E. c #AFAFAF",
":  c #BEBEBE",
"_  c #DCDCDC",
"7  c #EBEBEB",
"J  c #4E4E4E",
"T  c #B60B2D",
"c  c #8A8A8A",
";. c #2A255B",
"_. c #A8A8A8",
"I. c #BCBEC0",
"O  c #B7B7B7",
"%. c #8C1D3E",
"   c None",
")  c #E4E4E4",
"5  c #383838",
"i  c #565656",
">  c #656565",
"6X c #838383",
"1X c #929292",
"F. c #223A67",
"B. c #747D96",
"i. c #471E4A",
"Z. c #A1A1A1",
"N. c #0E275D",
"n  c #B0B0B0",
"8. c #072C66",
"|  c #B90928",
"!. c #072657",
"'. c #313131",
"b. c #002B62",
":X c #404040",
"y  c #4F4F4F",
"2  c #6D6D6D",
"R  c #B70C2D",
"3X c #8B8B8A",
"q. c #151C56",
"{  c #B00B2B",
"w  c #C7C7C7",
"4. c #930326",
"z  c #D6D6D6",
"^. c #001F53",
",  c #484848",
"D. c #939CA9",
"%  c #575757",
"p. c #302152",
"s  c #DC8696",
"V  c #B7001E",
"X. c #B7001F",
"d  c #D35C72",
"H  c #B1B1B1",
"#. c #DEDEDE",
"G. c #00164F",
"R. c #323232",
"1  c #FCFCFC",
"<. c #DBCBCE",
" . c #B80A29",
"D  c #9B9B9B",
"T. c #B9B9B9",
"a. c #062A62",
"W  c #B30018",
"O. c #E1E2E2",
"m  c #D88695",
"1. c #D7D7D7",
"XX c #808A97",
"A  c #E4BAC2",
"oX c #858E99",
"]. c #3A3A3A",
"+X c #585858",
"r  c #949494",
" X c #ADAEAE",
"o. c #C66174",
"~  c #C1C1C1",
"L  c #DADBDB",
"8  c #D0D0D0",
"t. c #92A0B1",
"=X c #333333",
"-  c #FDFDFD",
"*X c #424242",
"u  c #515151",
"#X c #606060",
"6. c #B40723",
"K  c #7E7E7E",
"*  c #8D8D8D",
"h. c #5A4F73",
"Y. c #BABABA",
"0. c #00306C",
"@. c #D8D8D8",
"S  c #E7E7E7",
"|. c #2C2C2C",
">X c #3B3B3B",
"m. c #002A60",
"[  c #B20A2B",
"d. c #002A62",
"f. c #002A63",
"/. c #16315F",
"M  c #BC1231",
"4  c #595959",
".X c #959BA2",
"]  c #AD001C",
"h  c #F3E6E9",
"7X c #959594",
"4X c #959595",
"Y  c #B70B2E",
"o  c #B3B3B3",
"A. c #C2C2C2",
"E  c #B7082A",
"I  c #B50E29",
"r. c #D1D1D1",
"U. c #252525",
"M. c #00215A",
"~. c #001E52",
"K. c #001E55",
"9  c #525252",
"G  c #616161",
"[. c #7F7F7F",
"&X c #8E8E8E",
"j. c #D1C8C7",
"(. c #5F7088",
/* pixels */
"                                                                                                                                                                                                ",
"                                                                                                                                                                                                ",
"                                                                                                                                                                                                ",
"                                                                                                                                                                                                ",
"                                                                                                                                                                                                ",
". . . . . . . . . . . . . . . . . . . . . . . . . . . . . . . .                                                                                                                                 ",
". X X X X X X X X X X X X X X X X X X X X X X X X X X X X X X .                                                                                                                                 ",
". X X X X X X o O + X X X X X X X X X X X X @ # $ X X X X X X .                                                                                                                                 ",
". X X X X X @ % & * = - X X X X X X X X ; : > , < X X X X X X .                                                                                                                                 ",
". 1 1 1 1 1 2 3 4 5 6 7 1 1 1 1 1 1 1 1 8 9 0 3 q w 1 1 1 1 1 .                                                                                                                                 ",
". e e e e r t y u i p e e a s d f g h e + j k 2 3 l z e e e e .                                                                                                                                 ",
". x x x x c v l b n x x m M N B V C Z A x S D F & G H x x x x .                                                                                                                                 ",
". 7 7 7 7 7 O J K L 7 P I U Y T R E W Q ! 7 ~ ^ / ( 7 7 7 7 7 .                                                                                                                                 ",
". ) ) ) ) ) ) ( _ ) ` ' ] [ { } |  ...X.o.) O.+.@.) ) ) ) ) ) .                                                                                                                                 ",
". #.#.#.#.#.#.#.#.#.$.%.&.*.=.=.-.;.:.>.,.<.#.#.#.#.#.#.#.#.#..                                                                                                                                 ",
". 1.1.1.1.1.1.1.1.1.2.3.4.5.6.7.8.9.0.q.w.e.1.1.1.1.1.1.1.1.1..                                                                                                                                 ",
". r.r.r.r.r.r.r.r.r.t.y.u.i.p.a.s.d.f.g.h.j.r.r.r.r.r.r.r.r.r..                                                                                                                                 ",
". p p p p p p k.l.p z.x.c.v.b.n.n.m.M.N.B.p V.C.Z.p p p p p p .                                                                                                                                 ",
". A.A.A.A.H 2 S.& l.A.D.F.G.H.J.J.K.L.P.I.A.C.U.y k.Y.A.A.A.A..                                                                                                                                 ",
". T.T.T.T.9 5 , R.2 E.T.W.Q.!.~.^./.(.).T._.`.u '.].[.T.T.T.T..                                                                                                                                 ",
". n n n n C.{.}.4 |./ n n  X.XXXoXOXn n Z.+Xb @X#Xv n n n n n .                                                                                                                                 ",
". l.l.l.l.l.G 5 $X'.%XD l.l.l.l.l.l.l.l.&X*X$X=X9 -Xl.l.l.l.l..                                                                                                                                 ",
". ;X;X;X;X;X;X:X>X,X<X;X;X;X;X;X;X;X;X;X;X1X+XR.G ;X;X;X;X;X;X.                                                                                                                                 ",
". 2X2X2X2X2X2X6 3X4X2X2X2X2X2X2X2X2X2X2X2X2X5X6X7X2X2X2X2X2X2X.                                                                                                                                 ",
". . . . . . . . . . . . . . . . . . . . . . . . . . . . . . . .                                                                                                                                 ",
"                                                                                                                                                                                                ",
"                                                                                                                                                                                                ",
"                                                                                                                                                                                                ",
"                                                                                                                                                                                                ",
"                                                                                                                                                                                                ",
"                                                                                                                                                                                                ",
"                                                                                                                                                                                                "
};
