/* XPM */
static const char * const Flag_Japan_xpm[] = {
"96 32 67 1",
" 	c None",
".	c #000000",
"+	c #FFFFFF",
"@	c #FECACA",
"#	c #FD8080",
"$	c #FD6161",
"%	c #FD7676",
"&	c #FEB6B6",
"*	c #FEFEFE",
"=	c #FFEDED",
"-	c #FF4C4C",
";	c #FF0000",
">	c #FF2F2F",
",	c #FFD7D7",
"'	c #FEF5F5",
")	c #FE2E2E",
"!	c #FE1313",
"~	c #FEDDDD",
"{	c #F9F9F9",
"]	c #FC7777",
"^	c #FD4545",
"/	c #F4F4F4",
"(	c #F4F3F3",
"_	c #FA1313",
":	c #FB0000",
"<	c #FA0000",
"[	c #F4D4D4",
"}	c #EFEFEF",
"|	c #EFCFCF",
"1	c #F10000",
"2	c #EF9F9F",
"3	c #E4E4E4",
"4	c #E2BEBE",
"5	c #DD0000",
"6	c #E19090",
"7	c #D9D9D9",
"8	c #D8D0D0",
"9	c #CA0404",
"0	c #CA0000",
"a	c #D5A9A9",
"b	c #D0D0D0",
"c	c #BC4242",
"d	c #B40000",
"e	c #B71A1A",
"f	c #CFCFCF",
"g	c #C6C6C6",
"h	c #BEA7A7",
"i	c #990808",
"j	c #980000",
"k	c #B78787",
"l	c #BBBBBB",
"m	c #A88989",
"n	c #7B0B0B",
"o	c #770000",
"p	c #780202",
"q	c #9E6B6B",
"r	c #AEAEAE",
"s	c #A89C9C",
"t	c #8F4E4E",
"u	c #7F1B1B",
"v	c #7A0A0A",
"w	c #7D1515",
"x	c #8B4242",
"y	c #A48F8F",
"z	c #A0A0A0",
"A	c #8F8F8F",
"B	c #7C7C7C",
"                                                                                                ",
"                                                                                                ",
"                                                                                                ",
"                                                                                                ",
"                                                                                                ",
"................................                                                                ",
".++++++++++++++++++++++++++++++.                                                                ",
".++++++++++++++++++++++++++++++.                                                                ",
".++++++++++++++++++++++++++++++.                                                                ",
".++++++++++++@#$%&*++++++++++++.                                                                ",
".++++++++++=-;;;;;>,+++++++++++.                                                                ",
".*********');;;;;;;!~**********.                                                                ",
".{{{{{{{{{];;;;;;;;;^{{{{{{{{{{.                                                                ",
".////////(_:::::::::<[/////////.                                                                ",
".}}}}}}}}|111111111112}}}}}}}}}.                                                                ",
".333333334555555555556333333333.                                                                ",
".77777777890000000000a777777777.                                                                ",
".bbbbbbbbbcdddddddddefbbbbbbbbb.                                                                ",
".ggggggggghijjjjjjjjkgggggggggg.                                                                ",
".llllllllllmnooooopqlllllllllll.                                                                ",
".rrrrrrrrrrrstuvwxyrrrrrrrrrrrr.                                                                ",
".zzzzzzzzzzzzzzzzzzzzzzzzzzzzzz.                                                                ",
".AAAAAAAAAAAAAAAAAAAAAAAAAAAAAA.                                                                ",
".BBBBBBBBBBBBBBBBBBBBBBBBBBBBBB.                                                                ",
"................................                                                                ",
"                                                                                                ",
"                                                                                                ",
"                                                                                                ",
"                                                                                                ",
"                                                                                                ",
"                                                                                                ",
"                                                                                                "};
