/* XPM */
static const char *const Flag_Italy_xpm[] = {
"96 32 45 1",
" 	c None",
".	c #000000",
"+	c #006F00",
"@	c #FFFFFF",
"#	c #FF0000",
"$	c #006C00",
"%	c #006800",
"&	c #FCFCFC",
"*	c #FC0000",
"=	c #006200",
"-	c #F8F8F8",
";	c #F80000",
">	c #005C00",
",	c #F2F2F2",
"'	c #F20000",
")	c #005300",
"!	c #ECECEC",
"~	c #EC0000",
"{	c #004B00",
"]	c #E3E3E3",
"^	c #E30000",
"/	c #004200",
"(	c #DBDBDB",
"_	c #DB0000",
":	c #003800",
"<	c #D2D2D2",
"[	c #D20000",
"}	c #002D00",
"|	c #C8C8C8",
"1	c #C80000",
"2	c #002100",
"3	c #BDBDBD",
"4	c #BD0000",
"5	c #001C00",
"6	c #B1B1B1",
"7	c #B10000",
"8	c #001500",
"9	c #A3A3A3",
"0	c #A30000",
"a	c #001200",
"b	c #939393",
"c	c #930000",
"d	c #000F00",
"e	c #808080",
"f	c #800000",
"                                                                                                ",
"                                                                                                ",
"                                                                                                ",
"                                                                                                ",
"                                                                                                ",
"................................                                                                ",
".++++++++++@@@@@@@@@@@#########.                                                                ",
".++++++++++@@@@@@@@@@@#########.                                                                ",
".++++++++++@@@@@@@@@@@#########.                                                                ",
".++++++++++@@@@@@@@@@@#########.                                                                ",
".$$$$$$$$$$@@@@@@@@@@@#########.                                                                ",
".%%%%%%%%%%&&&&&&&&&&&*********.                                                                ",
".==========-----------;;;;;;;;;.                                                                ",
".>>>>>>>>>>,,,,,,,,,,,'''''''''.                                                                ",
".))))))))))!!!!!!!!!!!~~~~~~~~~.                                                                ",
".{{{{{{{{{{]]]]]]]]]]]^^^^^^^^^.                                                                ",
".//////////(((((((((((_________.                                                                ",
".::::::::::<<<<<<<<<<<[[[[[[[[[.                                                                ",
".}}}}}}}}}}|||||||||||111111111.                                                                ",
".222222222233333333333444444444.                                                                ",
".555555555566666666666777777777.                                                                ",
".888888888899999999999000000000.                                                                ",
".aaaaaaaaaabbbbbbbbbbbccccccccc.                                                                ",
".ddddddddddeeeeeeeeeeefffffffff.                                                                ",
"................................                                                                ",
"                                                                                                ",
"                                                                                                ",
"                                                                                                ",
"                                                                                                ",
"                                                                                                ",
"                                                                                                ",
"                                                                                                "};
