/* XPM */
static const char * Flag_Taiwan_xpm[] = {
"96 32 24 1",
" 	c None",
".	c #000000",
"+	c #000095",
"@	c #FE0000",
"#	c #12129C",
"$	c #010195",
"%	c #3D3DAE",
"&	c #0B0B9A",
"*	c #1B1BA0",
"=	c #8F8FD0",
"-	c #9696D3",
";	c #9090D1",
">	c #1A1AA0",
",	c #2424A4",
"'	c #9696D4",
")	c #DADAEF",
"!	c #FFFFFF",
"~	c #D9D9EF",
"{	c #9797D4",
"]	c #040497",
"^	c #5959BA",
"/	c #8E8ECF",
"(	c #8E8ED1",
"_	c #8F8FD1",
"                                                                                                ",
"                                                                                                ",
"                                                                                                ",
"                                                                                                ",
"                                                                                                ",
"................................                                                                ",
".+++++++++++++++@@@@@@@@@@@@@@@.                                                                ",
".+++++#$%$#+++++@@@@@@@@@@@@@@@.                                                                ",
".++++&*=-;>&++++@@@@@@@@@@@@@@@.                                                                ",
".++++,')!~{,++++@@@@@@@@@@@@@@@.                                                                ",
".+++]^;!!!;^]+++@@@@@@@@@@@@@@@.                                                                ",
".++++,')!~{,++++@@@@@@@@@@@@@@@.                                                                ",
".++++&*/(_>&++++@@@@@@@@@@@@@@@.                                                                ",
".+++++#$%$#+++++@@@@@@@@@@@@@@@.                                                                ",
".+++++++++++++++@@@@@@@@@@@@@@@.                                                                ",
".@@@@@@@@@@@@@@@@@@@@@@@@@@@@@@.                                                                ",
".@@@@@@@@@@@@@@@@@@@@@@@@@@@@@@.                                                                ",
".@@@@@@@@@@@@@@@@@@@@@@@@@@@@@@.                                                                ",
".@@@@@@@@@@@@@@@@@@@@@@@@@@@@@@.                                                                ",
".@@@@@@@@@@@@@@@@@@@@@@@@@@@@@@.                                                                ",
".@@@@@@@@@@@@@@@@@@@@@@@@@@@@@@.                                                                ",
".@@@@@@@@@@@@@@@@@@@@@@@@@@@@@@.                                                                ",
".@@@@@@@@@@@@@@@@@@@@@@@@@@@@@@.                                                                ",
".@@@@@@@@@@@@@@@@@@@@@@@@@@@@@@.                                                                ",
"................................                                                                ",
"                                                                                                ",
"                                                                                                ",
"                                                                                                ",
"                                                                                                ",
"                                                                                                ",
"                                                                                                ",
"                                                                                                "};
