/* XPM */
static const char * Flag_Taiwan_xpm[] = {
"96 32 89 1",
" 	c None",
".	c #000000",
"#	c #000099",
"$	c #000098",
"%	c #03039A",
"&	c #000094",
"'	c #05059B",
"(	c #050095",
")	c #DC0014",
"*	c #FF0000",
"+	c #FD0001",
",	c #04049B",
"-	c #000096",
"!	c #020299",
"0	c #2424A7",
"1	c #04049A",
"2	c #000097",
"3	c #000093",
"4	c #6262BF",
"5	c #2828A8",
"6	c #6C6CC1",
"7	c #3E3EB1",
"8	c #3B3BB0",
"9	c #00008F",
":	c #01019A",
";	c #1919A3",
"<	c #4040B0",
"=	c #6363C0",
">	c #D6D6EE",
"?	c #D9D9ED",
"@	c #C5C5E7",
"A	c #3F3FB0",
"B	c #3D3DAF",
"C	c #020297",
"D	c #010199",
"E	c #5E5EBE",
"F	c #DFDFF2",
"G	c white",
"H	c #BFBFE5",
"I	c #2626A7",
"J	c #4242B0",
"K	c #7D7DCA",
"L	c #FAFAFD",
"M	c #FBFBFD",
"N	c #FCFCFD",
"O	c #FCFCFE",
"P	c #DADAF0",
"Q	c #6A6AC2",
"R	c #1B1BA3",
"S	c #000199",
"T	c #0E0E9B",
"U	c #5858BC",
"V	c #D3D3ED",
"W	c #2727A6",
"X	c #060699",
"Y	c #1212A0",
"Z	c #6464C0",
"[	c #8080CC",
"]	c #F4F4FA",
"^	c #F8F8FB",
"_	c #7070C4",
"`	c #4949B5",
"a	c #000095",
"b	c #040499",
"c	c #000092",
"d	c #6767C2",
"e	c #8686CA",
"f	c #7070C5",
"g	c #2B2BA9",
"h	c #00009A",
"i	c #01049C",
"j	c #1619A4",
"k	c #393CB3",
"l	c #00029A",
"m	c #1619A5",
"n	c #020096",
"o	c #DB0014",
"p	c #FC0001",
"q	c #0A0092",
"r	c #060090",
"s	c #0B0092",
"t	c #0F008E",
"u	c #DD0013",
"v	c #FD0000",
"w	c #E5000F",
"x	c #E6010F",
"y	c #E60110",
"z	c #FB0002",
"{	c #FE0000",
"                                                                                                ",
"                                                                                                ",
"                                                                                                ",
"                                                                                                ",
"                                                                                                ",
"................................                                                                ",
".#####$%#&'$$$##()*+***********.                                                                ",
".###$$,-!0&1!$##()*+***********.                                                                ",
".##$#23456789:$#()*+***********.                                                                ",
".###2;<=>?@ABCD#()*+***********.                                                                ",
".###$CEFGGGHI&D$()*+***********.                                                                ",
".##D-JKLMNOPQR-S()*+***********.                                                                ",
".###$TUGGNGVWX$#()*+***********.                                                                ",
".###2YZ[]^P_`aD$()*+***********.                                                                ",
".###$bcdEefg3D$#()*+***********.                                                                ",
".hhhhhijiklm#hhhno*p***********.                                                                ",
".qqqqqqrsrqrqqqqtu*v***********.                                                                ",
".wwwwwwxwywxwwwwwz*{***********.                                                                ",
".******************************.                                                                ",
".{{{{{{{{{{{{{{{{{*{***********.                                                                ",
".******************************.                                                                ",
".******************************.                                                                ",
".******************************.                                                                ",
".******************************.                                                                ",
"................................                                                                ",
"                                                                                                ",
"                                                                                                ",
"                                                                                                ",
"                                                                                                ",
"                                                                                                ",
"                                                                                                ",
"                                                                                                "};