/* XPM */
static const char * Flag_Italy_xpm[] = {
"96 32 5 1",
" 	c None",
".	c #000000",
"+	c #009246",
"@	c #FFFFFF",
"#	c #CE2B37",
"                                                                                                ",
"                                                                                                ",
"                                                                                                ",
"                                                                                                ",
"................................                                                                ",
".++++++++++@@@@@@@@@@##########.                                                                ",
".++++++++++@@@@@@@@@@##########.                                                                ",
".++++++++++@@@@@@@@@@##########.                                                                ",
".++++++++++@@@@@@@@@@##########.                                                                ",
".++++++++++@@@@@@@@@@##########.                                                                ",
".++++++++++@@@@@@@@@@##########.                                                                ",
".++++++++++@@@@@@@@@@##########.                                                                ",
".++++++++++@@@@@@@@@@##########.                                                                ",
".++++++++++@@@@@@@@@@##########.                                                                ",
".++++++++++@@@@@@@@@@##########.                                                                ",
".++++++++++@@@@@@@@@@##########.                                                                ",
".++++++++++@@@@@@@@@@##########.                                                                ",
".++++++++++@@@@@@@@@@##########.                                                                ",
".++++++++++@@@@@@@@@@##########.                                                                ",
".++++++++++@@@@@@@@@@##########.                                                                ",
".++++++++++@@@@@@@@@@##########.                                                                ",
".++++++++++@@@@@@@@@@##########.                                                                ",
".++++++++++@@@@@@@@@@##########.                                                                ",
".++++++++++@@@@@@@@@@##########.                                                                ",
".++++++++++@@@@@@@@@@##########.                                                                ",
"................................                                                                ",
"                                                                                                ",
"                                                                                                ",
"                                                                                                ",
"                                                                                                ",
"                                                                                                ",
"                                                                                                "};
