/* XPM */
static const char * Flag_Australia_xpm[] = {
"96 32 106 2",
"  	c None",
". 	c #000000",
"+ 	c #ED6786",
"@ 	c #F6ECF1",
"# 	c #7489B4",
"$ 	c #032A78",
"% 	c #002776",
"& 	c #C797B3",
"* 	c #E00034",
"= 	c #817BA7",
"- 	c #E75377",
"; 	c #F4A8BA",
"> 	c #7E7EA9",
", 	c #E95E7F",
"' 	c #F5ADBE",
") 	c #C6CFE0",
"! 	c #28498B",
"~ 	c #2A488A",
"{ 	c #D36F90",
"] 	c #EB5C7D",
"^ 	c #F5EAF0",
"/ 	c #012877",
"( 	c #204287",
"_ 	c #C985A4",
": 	c #EC6282",
"< 	c #F8EBEF",
"[ 	c #889ABF",
"} 	c #C997B3",
"| 	c #9584AB",
"1 	c #E84A6F",
"2 	c #F6B1C1",
"3 	c #BDC7DC",
"4 	c #143881",
"5 	c #758AB5",
"6 	c #BBC5DA",
"7 	c #BCC6DB",
"8 	c #DDDDE8",
"9 	c #F9D4DD",
"0 	c #FCE9EE",
"a 	c #F4BDCB",
"b 	c #F5B8C7",
"c 	c #FAD4DC",
"d 	c #FCF9FB",
"e 	c #DAE0EB",
"f 	c #244589",
"g 	c #EAEDF4",
"h 	c #234589",
"i 	c #3D5B97",
"j 	c #AAB7D1",
"k 	c #ABB8D2",
"l 	c #D1D8E6",
"m 	c #FCF7F9",
"n 	c #F9CBD5",
"o 	c #F4B8C7",
"p 	c #F3BCCB",
"q 	c #FCE5EA",
"r 	c #F7C3CF",
"s 	c #D6D1E0",
"t 	c #647CAC",
"u 	c #294A8C",
"v 	c #325191",
"w 	c #D2D9E7",
"x 	c #E75D7F",
"y 	c #7072A2",
"z 	c #667DAD",
"A 	c #F2E8EE",
"B 	c #D87393",
"C 	c #345090",
"D 	c #214388",
"E 	c #052B79",
"F 	c #072D7A",
"G 	c #C3CCDF",
"H 	c #F6E8EE",
"I 	c #CF8AA6",
"J 	c #C7D0E1",
"K 	c #E74A70",
"L 	c #8475A2",
"M 	c #D8DEEA",
"N 	c #627AAB",
"O 	c #2C4C8E",
"P 	c #1E4086",
"Q 	c #F5AFBF",
"R 	c #E85679",
"S 	c #807AA6",
"T 	c #F5E9EF",
"U 	c #EC6080",
"V 	c #335291",
"W 	c #1C3F85",
"X 	c #3C5A96",
"Y 	c #0D327D",
"Z 	c #7B8FB8",
"` 	c #C1CADE",
" .	c #7C90B9",
"..	c #A6B4CF",
"+.	c #FFFFFF",
"@.	c #A5B3CF",
"#.	c #395795",
"$.	c #385694",
"%.	c #092F7B",
"&.	c #25468A",
"*.	c #5A73A6",
"=.	c #A8B5D0",
"-.	c #5972A6",
";.	c #2F4F8F",
">.	c #F9FAFC",
",.	c #7E92BA",
"                                                                                                                                                                                                ",
"                                                                                                                                                                                                ",
"                                                                                                                                                                                                ",
"                                                                                                                                                                                                ",
". . . . . . . . . . . . . . . . . . . . . . . . . . . . . . . .                                                                                                                                 ",
". + @ # $ % % & * & % % $ = - ; % % % % % % % % % % % % % % % .                                                                                                                                 ",
". > , ' ) ! % & * & % ~ { ] ^ # % % % % % % % / % % % % % % % .                                                                                                                                 ",
". % ( _ : < [ } * } | 1 2 3 ( % % % % % % % 4 5 4 % % % % % % .                                                                                                                                 ",
". 6 6 7 8 9 0 a * b c d e 7 6 6 % % % % % % f g h % % % % % % .                                                                                                                                 ",
". * * * * * * * * * * * * * * * % % % % % % % i % % % % % % % .                                                                                                                                 ",
". * * * * * * * * * * * * * * * % % % % % % % % % % % % % % % .                                                                                                                                 ",
". j j k l m n o * p q r s k j j % % % % % % % % % % t u % % % .                                                                                                                                 ",
". % v w ' x y & * & z A ] B C % % % / D E % % % % F G # % % % .                                                                                                                                 ",
". 5 H : I ! % & * & % ! J 2 K L % % E M N % % % % % O P % % % .                                                                                                                                 ",
". Q R S $ % % & * & % % $ 5 T U % % E # V % % % % % % % % % % .                                                                                                                                 ",
". % % % % % % % % % % % % % % % % % % % % % % % i i % % % % % .                                                                                                                                 ",
". % % % % % % % % % % % % % % % % % % % % % % % W W % % % % % .                                                                                                                                 ",
". % % % % % % % X % % % % % % % % % % % % % % % % % % % % % % .                                                                                                                                 ",
". % % % % % Y Z `  .Y % % % % % % % % % % % % % % % % % % % % .                                                                                                                                 ",
". % % % % % % ..+.@.% % % % % % % % % % % % % % % % % % % % % .                                                                                                                                 ",
". % % % % % #.M +.M $.% % % % % % % % % % % %.&.%.% % % % % % .                                                                                                                                 ",
". % % % % % % *.=.-.% % % % % % % % % % % % ;.>.;.% % % % % % .                                                                                                                                 ",
". % % % % % % &.% &.% % % % % % % % % % % % % ,.% % % % % % % .                                                                                                                                 ",
". % % % % % % % % % % % % % % % % % % % % % % % % % % % % % % .                                                                                                                                 ",
". % % % % % % % % % % % % % % % % % % % % % % % % % % % % % % .                                                                                                                                 ",
". . . . . . . . . . . . . . . . . . . . . . . . . . . . . . . .                                                                                                                                 ",
"                                                                                                                                                                                                ",
"                                                                                                                                                                                                ",
"                                                                                                                                                                                                ",
"                                                                                                                                                                                                ",
"                                                                                                                                                                                                ",
"                                                                                                                                                                                                "};
