/* XPM */
static const char * Flag_Korea_xpm[] = {
"96 32 99 2",
"  	c None",
". 	c #000000",
"+ 	c #FFFFFF",
"@ 	c #FDFDFD",
"# 	c #E2E2E2",
"$ 	c #313131",
"% 	c #BABABA",
"& 	c #BBBBBB",
"* 	c #505050",
"= 	c #777777",
"- 	c #3F3F3F",
"; 	c #868686",
"> 	c #F9F9F9",
", 	c #3E3E3E",
"' 	c #5B5B5B",
") 	c #A1A1A1",
"! 	c #545454",
"~ 	c #2E2E2E",
"{ 	c #7D7D7D",
"] 	c #5F5F5F",
"^ 	c #5E5E5E",
"/ 	c #7E7E7E",
"( 	c #434343",
"_ 	c #9C9C9C",
": 	c #A5A5A5",
"< 	c #E4E4E4",
"[ 	c #292929",
"} 	c #636363",
"| 	c #717171",
"1 	c #2B2B2B",
"2 	c #F0F0F0",
"3 	c #EEB6C0",
"4 	c #D44964",
"5 	c #C81537",
"6 	c #C81638",
"7 	c #D54C66",
"8 	c #EEB7C1",
"9 	c #F1F1F1",
"0 	c #8D8D8D",
"a 	c #626262",
"b 	c #E8E8E8",
"c 	c #A0A0A0",
"d 	c #4B4B4B",
"e 	c #B0B0B0",
"f 	c #E17E91",
"g 	c #C60C30",
"h 	c #E28395",
"i 	c #B2B2B2",
"j 	c #C9C9C9",
"k 	c #E4B0BD",
"l 	c #707070",
"m 	c #A54367",
"n 	c #C10D32",
"o 	c #BD0D34",
"p 	c #D54D67",
"q 	c #52285E",
"r 	c #6A1E52",
"s 	c #093374",
"t 	c #023378",
"u 	c #50245B",
"v 	c #C7193C",
"w 	c #0A3275",
"x 	c #761C4D",
"y 	c #602155",
"z 	c #003478",
"A 	c #812351",
"B 	c #353973",
"C 	c #653E6F",
"D 	c #A38BA8",
"E 	c #B196B0",
"F 	c #323232",
"G 	c #555555",
"H 	c #6D5985",
"I 	c #6C5885",
"J 	c #565656",
"K 	c #ECECEC",
"L 	c #282828",
"M 	c #666666",
"N 	c #939393",
"O 	c #A68FAA",
"P 	c #373A73",
"Q 	c #0E3274",
"R 	c #0D3374",
"S 	c #363A73",
"T 	c #A891AC",
"U 	c #E9E9E9",
"V 	c #949494",
"W 	c #676767",
"X 	c #B1B1B1",
"Y 	c #646464",
"Z 	c #808080",
"` 	c #4F4F4F",
" .	c #A6A6A6",
"..	c #B7B7B7",
"+.	c #787878",
"@.	c #333333",
"#.	c #EBEBEB",
"$.	c #444444",
"%.	c #CECECE",
"                                                                                                                                                                                                ",
"                                                                                                                                                                                                ",
"                                                                                                                                                                                                ",
"                                                                                                                                                                                                ",
". . . . . . . . . . . . . . . . . . . . . . . . . . . . . . . .                                                                                                                                 ",
". + + + + + + + + + + + + + + + + + + + + + + + + + + + + + + .                                                                                                                                 ",
". + + + + + + + @ + + + + + + + + + + + + + + @ + + + + + + + .                                                                                                                                 ",
". + + + + + + # $ % + + + + + + + + + + + + & $ # + + + + + + .                                                                                                                                 ",
". + + + + + + * = - ; > + + + + + + + + > ; , = ' + + + + + + .                                                                                                                                 ",
". + + + + + ) ! ~ { ] + + + + + + + + + + ^ / ( _ : + + + + + .                                                                                                                                 ",
". + + + + < [ } | 1 2 + + 3 4 5 6 7 8 + + 9 0 | a [ < + + + + .                                                                                                                                 ",
". + + + + b c - d e + + f g g g g g g h + + i d - c b + + + + .                                                                                                                                 ",
". + + + + + + j | + + k g g g g g g g g 8 + + l j + + + + + + .                                                                                                                                 ",
". + + + + + + + + + + m g g g g g n o g p + + + + + + + + + + .                                                                                                                                 ",
". + + + + + + + + + + q g g g g r s t u v + + + + + + + + + + .                                                                                                                                 ",
". + + + + + + + + + + w x n o y z z z z A + + + + + + + + + + .                                                                                                                                 ",
". + + + + + + + + + + B z z z z z z z z C + + + + + + + + + + .                                                                                                                                 ",
". + + + + + + j | + + D z z z z z z z z E + + l j + + + + + + .                                                                                                                                 ",
". + + + + b c F G e + + H z z z z z z I + + i J $ c b + + + + .                                                                                                                                 ",
". + + + + K L M N F b + + O P Q R S T + + U 0 V W [ K + + + + .                                                                                                                                 ",
". + + + + + X M Y Z ` + + + + + + + + + + ` Z a  ...+ + + + + .                                                                                                                                 ",
". + + + + + + * +.@.0 > + + + + + + + + > 0 @.= ' + + + + + + .                                                                                                                                 ",
". + + + + + + #.$.%.+ + + + + + + + + + + + %.$.#.+ + + + + + .                                                                                                                                 ",
". + + + + + + + @ + + + + + + + + + + + + + + @ + + + + + + + .                                                                                                                                 ",
". + + + + + + + + + + + + + + + + + + + + + + + + + + + + + + .                                                                                                                                 ",
". . . . . . . . . . . . . . . . . . . . . . . . . . . . . . . .                                                                                                                                 ",
"                                                                                                                                                                                                ",
"                                                                                                                                                                                                ",
"                                                                                                                                                                                                ",
"                                                                                                                                                                                                ",
"                                                                                                                                                                                                ",
"                                                                                                                                                                                                "};
