/* XPM */
static const char * Flag_Europe_xpm[] = {
"96 32 43 1",
" 	c None",
".	c #000000",
"+	c #003399",
"@	c #043797",
"#	c #013498",
"$	c #8F8845",
"%	c #8C8645",
"&	c #16408C",
"*	c #DDB715",
"=	c #415972",
"-	c #848348",
";	c #84834A",
">	c #425A71",
",	c #737754",
"'	c #234884",
")	c #4D626A",
"!	c #B6A02D",
"~	c #0C3B92",
"{	c #B7A12C",
"]	c #465E6F",
"^	c #AE9B30",
"/	c #AE9C30",
"(	c #3A5676",
"_	c #BBA229",
":	c #16418C",
"<	c #BAA22A",
"[	c #395577",
"}	c #2B4D7F",
"|	c #B8A12B",
"1	c #BAA22B",
"2	c #2A4D7F",
"3	c #4D626B",
"4	c #B5A02D",
"5	c #B6A02C",
"6	c #AD9D31",
"7	c #103D8F",
"8	c #6B7358",
"9	c #1B4489",
"0	c #063795",
"a	c #E0B912",
"b	c #485E6F",
"c	c #495D6E",
"d	c #E0B913",
"                                                                                                ",
"                                                                                                ",
"                                                                                                ",
"                                                                                                ",
"                                                                                                ",
"................................                                                                ",
".++++++++++++++++++++++++++++++.                                                                ",
".++++++++++++++++++++++++++++++.                                                                ",
".+++++++++++@+#$%#+@+++++++++++.                                                                ",
".++++++++++&*=+-;+>*&++++++++++.                                                                ",
".+++++++++++,'++++',+++++++++++.                                                                ",
".++++++++)!~++++++++~{)++++++++.                                                                ",
".++++++++]^++++++++++/]++++++++.                                                                ",
".++++++++++++++++++++++++++++++.                                                                ",
".+++++++(_:++++++++++:<[+++++++.                                                                ",
".+++++++}|++++++++++++12+++++++.                                                                ",
".++++++++++++++++++++++++++++++.                                                                ",
".++++++++34~++++++++~53++++++++.                                                                ",
".++++++++]/++++++++++6]++++++++.                                                                ",
".++++++++++789++++987++++++++++.                                                                ",
".++++++++++0ab#$%#cd0++++++++++.                                                                ",
".++++++++++++++-;++++++++++++++.                                                                ",
".++++++++++++++++++++++++++++++.                                                                ",
".++++++++++++++++++++++++++++++.                                                                ",
"................................                                                                ",
"                                                                                                ",
"                                                                                                ",
"                                                                                                ",
"                                                                                                ",
"                                                                                                ",
"                                                                                                ",
"                                                                                                "};
