/* XPM */
static const char * Flag_Europe_xpm[] = {
"96 32 60 1",
" 	c None",
".	c #000000",
"+	c #003399",
"@	c #013498",
"#	c #33527A",
"$	c #32527B",
"%	c #103D90",
"&	c #707555",
"*	c #1B4389",
"=	c #C9AC20",
"-	c #C9AC21",
";	c #6F7556",
">	c #083994",
",	c #E6BB0F",
"'	c #4D606B",
")	c #0B3A92",
"!	c #4F616A",
"~	c #E5BB0F",
"{	c #16408C",
"]	c #023597",
"^	c #737954",
"/	c #E7BE0F",
"(	c #0D3A91",
"_	c #E8BE0E",
":	c #727854",
"<	c #2F4F7D",
"[	c #445B70",
"}	c #455C6F",
"|	c #2E4E7D",
"1	c #465D6F",
"2	c #CCAD1E",
"3	c #18418B",
"4	c #CBAD1E",
"5	c #2D4F7E",
"6	c #C0A626",
"7	c #C0A625",
"8	c #0E3B91",
"9	c #50636A",
"0	c #053696",
"a	c #506369",
"b	c #80804D",
"c	c #E6BE0E",
"d	c #083794",
"e	c #E7BE0E",
"f	c #7F7F4D",
"g	c #103B8F",
"h	c #17408B",
"i	c #E5BB10",
"j	c #485D6E",
"k	c #0C3992",
"l	c #0B3892",
"m	c #495E6D",
"n	c #E4BB10",
"o	c #777B51",
"p	c #264982",
"q	c #C7AA21",
"r	c #C6A923",
"s	c #767A52",
"t	c #3B5675",
"u	c #3A5576",
"                                                                                                ",
"                                                                                                ",
"                                                                                                ",
"                                                                                                ",
"................................                                                                ",
".++++++++++++++++++++++++++++++.                                                                ",
".++++++++++++++++++++++++++++++.                                                                ",
".+++++++++++++@#$@+++++++++++++.                                                                ",
".++++++++++%&*+=-+*;%++++++++++.                                                                ",
".++++++++++>,'+))+!~>++++++++++.                                                                ",
".+++++++++{+]]++++]]+{+++++++++.                                                                ",
".++++++++^/(++++++++(_:++++++++.                                                                ",
".++++++++<[++++++++++}|++++++++.                                                                ",
".++++++++]++++++++++++]++++++++.                                                                ",
".+++++++123++++++++++341+++++++.                                                                ",
".+++++++56++++++++++++75+++++++.                                                                ",
".++++++++++++++++++++++++++++++.                                                                ",
".++++++++890++++++++0a8++++++++.                                                                ",
".++++++++bcd++++++++def++++++++.                                                                ",
".++++++++))+g++++++g+))++++++++.                                                                ",
".++++++++++hij+kl+mnh++++++++++.                                                                ",
".+++++++++++op@qr@ps+++++++++++.                                                                ",
".++++++++++++++tu++++++++++++++.                                                                ",
".++++++++++++++++++++++++++++++.                                                                ",
".++++++++++++++++++++++++++++++.                                                                ",
"................................                                                                ",
"                                                                                                ",
"                                                                                                ",
"                                                                                                ",
"                                                                                                ",
"                                                                                                ",
"                                                                                                "};
