/* XPM */
static const char * Flag_Korea_xpm[] = {
"96 32 107 2",
"  	c None",
". 	c #000000",
"+ 	c #FFFFFF",
"@ 	c #E4E4E4",
"# 	c #BABABA",
"$ 	c #3A3A3A",
"% 	c #7F7F7F",
"& 	c #E8E8E8",
"* 	c #393939",
"= 	c #BBBBBB",
"- 	c #EBEBEB",
"; 	c #2F2F2F",
"> 	c #6A6A6A",
", 	c #616161",
"' 	c #373737",
") 	c #FAFAFA",
"! 	c #F9F9F9",
"~ 	c #363636",
"{ 	c #6E6E6E",
"] 	c #EFEFEF",
"^ 	c #FCFCFC",
"/ 	c #424242",
"( 	c #757575",
"_ 	c #3C3C3C",
": 	c #454545",
"< 	c #B7B7B7",
"[ 	c #FEFBFC",
"} 	c #EFBAC5",
"| 	c #E48E9E",
"1 	c #E58F9F",
"2 	c #F0BDC7",
"3 	c #FEFCFD",
"4 	c #676767",
"5 	c #3E3E3E",
"6 	c #878787",
"7 	c #D7D7D7",
"8 	c #707070",
"9 	c #2C2C2C",
"0 	c #717171",
"a 	c #F1C5CD",
"b 	c #CE2C4C",
"c 	c #C60C30",
"d 	c #F2CAD2",
"e 	c #9D9D9D",
"f 	c #D8D8D8",
"g 	c #F6F6F6",
"h 	c #B6B6B6",
"i 	c #474747",
"j 	c #FBFBFB",
"k 	c #F1D4DB",
"l 	c #C81639",
"m 	c #C9173A",
"n 	c #F5D5DB",
"o 	c #484848",
"p 	c #B35172",
"q 	c #D85A73",
"r 	c #56285E",
"s 	c #731D4E",
"t 	c #113172",
"u 	c #0B3274",
"v 	c #5C2256",
"w 	c #C81B3E",
"x 	c #0C3274",
"y 	c #6B1E51",
"z 	c #B41037",
"A 	c #AF1139",
"B 	c #572258",
"C 	c #003478",
"D 	c #7F2453",
"E 	c #423E75",
"F 	c #6C4675",
"G 	c #ECECEC",
"H 	c #A3A3A3",
"I 	c #343434",
"J 	c #C9B6C9",
"K 	c #093375",
"L 	c #D2C0CE",
"M 	c #353535",
"N 	c #6C6C6C",
"O 	c #303030",
"P 	c #BBA7BC",
"Q 	c #1B3372",
"R 	c #1D3372",
"S 	c #C3AFC3",
"T 	c #515151",
"U 	c #888888",
"V 	c #8C8C8C",
"W 	c #565656",
"X 	c #A6A6A6",
"Y 	c #FAF8FA",
"Z 	c #AD96B1",
"` 	c #7B658D",
" .	c #7A648C",
"..	c #AC95AF",
"+.	c #646464",
"@.	c #8A8A8A",
"#.	c #949494",
"$.	c #525252",
"%.	c #5D5D5D",
"&.	c #3F3F3F",
"*.	c #434343",
"=.	c #5F5F5F",
"-.	c #696969",
";.	c #CACACA",
">.	c #969696",
",.	c #F3F3F3",
"'.	c #989898",
"                                                                                                                                                                                                ",
"                                                                                                                                                                                                ",
"                                                                                                                                                                                                ",
"                                                                                                                                                                                                ",
"                                                                                                                                                                                                ",
". . . . . . . . . . . . . . . . . . . . . . . . . . . . . . . .                                                                                                                                 ",
". + + + + + + + + + + + + + + + + + + + + + + + + + + + + + + .                                                                                                                                 ",
". + + + + + + + @ + + + + + + + + + + + + + + @ + + + + + + + .                                                                                                                                 ",
". + + + + + + # $ % & + + + + + + + + + + & % * = + + + + + + .                                                                                                                                 ",
". + + + + + - ; > , ' ) + + + + + + + + ! ~ , > { ] + + + + + .                                                                                                                                 ",
". + + + + ^ / ( _ : < + + [ } | 1 2 3 + + < 4 5 6 / ^ + + + + .                                                                                                                                 ",
". + + + + 7 8 9 8 0 + + a b c c c c b d + + e 8 9 8 f + + + + .                                                                                                                                 ",
". + + + + + g h i j + k l c c c c c c m n + j o h g + + + + + .                                                                                                                                 ",
". + + + + + + + ^ + + p c c c c c c c c q + + ^ + + + + + + + .                                                                                                                                 ",
". + + + + + + + + + + r c c c c s t u v w + + + + + + + + + + .                                                                                                                                 ",
". + + + + + + + + + + x y z A B C C C C D + + + + + + + + + + .                                                                                                                                 ",
". + + + + + + + ^ + + E C C C C C C C C F + + ^ + + + + + + + .                                                                                                                                 ",
". + + + + + G H I g + J K C C C C C C u L + g M H G + + + + + .                                                                                                                                 ",
". + + + + 7 N O 8 0 + + P Q C C C C R S + + e 0 O N f + + + + .                                                                                                                                 ",
". + + + + + T U V W X + + Y Z `  ...Y + + X +.@.#.$.+ + + + + .                                                                                                                                 ",
". + + + + + - ; N %.&.) + + + + + + + + ! *.=.N -.] + + + + + .                                                                                                                                 ",
". + + + + + + ;.&.>.,.+ + + + + + + + + + ,.'.5 ;.+ + + + + + .                                                                                                                                 ",
". + + + + + + + @ + + + + + + + + + + + + + + @ + + + + + + + .                                                                                                                                 ",
". + + + + + + + + + + + + + + + + + + + + + + + + + + + + + + .                                                                                                                                 ",
". . . . . . . . . . . . . . . . . . . . . . . . . . . . . . . .                                                                                                                                 ",
"                                                                                                                                                                                                ",
"                                                                                                                                                                                                ",
"                                                                                                                                                                                                ",
"                                                                                                                                                                                                ",
"                                                                                                                                                                                                ",
"                                                                                                                                                                                                ",
"                                                                                                                                                                                                "};
