/* XPM */
static const char * Flag_Unknown_xpm[] = {
"96 32 59 1",
" 	c None",
".	c #000000",
"+	c #FFFFFF",
"@	c #FF0000",
"#	c #FE3434",
"$	c #FED4D4",
"%	c #FE1C1C",
"&	c #FE0303",
"*	c #FE9292",
"=	c #FEB3B3",
"-	c #FEC2C2",
";	c #FE1010",
">	c #FE0D0D",
",	c #FEB6B6",
"'	c #FE3333",
")	c #FEACAC",
"!	c #FE0808",
"~	c #FE1E1E",
"{	c #FED2D2",
"]	c #FEB8B8",
"^	c #FEB1B1",
"/	c #FE9494",
"(	c #FE0202",
"_	c #FE3636",
":	c #FEE7E7",
"<	c #FE3D3D",
"[	c #FE3131",
"}	c #FEB0B0",
"|	c #FE0101",
"1	c #FEAFAF",
"2	c #FE9393",
"3	c #FE0606",
"4	c #FEAEAE",
"5	c #FE1F1F",
"6	c #FEE9E9",
"7	c #FEE8E8",
"8	c #FE2020",
"9	c #FE4747",
"0	c #FE2F2F",
"a	c #FEA4A4",
"b	c #FE0404",
"c	c #FEA2A2",
"d	c #FE7A7A",
"e	c #FE6868",
"f	c #FEEDED",
"g	c #FE6767",
"h	c #FE7C7C",
"i	c #FECBCB",
"j	c #FEB4B4",
"k	c #FE0909",
"l	c #FE9696",
"m	c #FEFBFB",
"n	c #FE8080",
"o	c #FE2727",
"p	c #FE8282",
"q	c #FEFCFC",
"r	c #FE5151",
"s	c #FE0F0F",
"t	c #FE8787",
"                                                                                                ",
"                                                                                                ",
"                                                                                                ",
"                                                                                                ",
"................................                                                                ",
".++++++++++++++++++++++++++++++.                                                                ",
".++++++++++++++++++++++++++++++.                                                                ",
".++++++++++++++++++++++++++++++.                                                                ",
".++++++++++++++++++++++++++++++.                                                                ",
".++++++++++++++++++++++++++++++.                                                                ",
".+@@++++@@++@@#+++@@++@@+++$%&*.                                                                ",
".+@@++++@@++@@@=++@@++@@++-;>,+.                                                                ",
".+@@++++@@++@@#'++@@++@@+)!~{++.                                                                ",
".+@@++++@@++@@]@^+@@++@@/(_:+++.                                                                ",
".+@@++++@@++@@+<[+@@++@@@@}++++.                                                                ",
".+@@++++@|++@@+-@1@@++@@2|34+++.                                                                ",
".+5@6++7@8++@@++90@@++@@+ab&c++.                                                                ",
".+d@effg@h++@@++i@@@++@@++jk|l+.                                                                ",
".+mno33opq++@@+++r@@++@@+++-s@t.                                                                ",
".++++++++++++++++++++++++++++++.                                                                ",
".++++++++++++++++++++++++++++++.                                                                ",
".++++++++++++++++++++++++++++++.                                                                ",
".++++++++++++++++++++++++++++++.                                                                ",
".++++++++++++++++++++++++++++++.                                                                ",
".++++++++++++++++++++++++++++++.                                                                ",
"................................                                                                ",
"                                                                                                ",
"                                                                                                ",
"                                                                                                ",
"                                                                                                ",
"                                                                                                ",
"                                                                                                "};
