/* XPM */
static const char * Flag_Japan_xpm[] = {
"96 32 19 1",
" 	c None",
".	c #000000",
"+	c #FFFFFF",
"@	c #FEFDFD",
"#	c #F1C9D3",
"$	c #E9AAB9",
"%	c #E69FB0",
"&	c #C41F47",
"*	c #BC002D",
"=	c #C42047",
"-	c #E6A1B2",
";	c #DA748D",
">	c #DB758D",
",	c #EBB4C1",
"'	c #ECB6C3",
")	c #CD4263",
"!	c #CE4465",
"~	c #BF0D38",
"{	c #C00E39",
"                                                                                                ",
"                                                                                                ",
"                                                                                                ",
"                                                                                                ",
"                                                                                                ",
"................................                                                                ",
".++++++++++++++++++++++++++++++.                                                                ",
".++++++++++++++++++++++++++++++.                                                                ",
".++++++++++++++++++++++++++++++.                                                                ",
".++++++++++++@#$$#@++++++++++++.                                                                ",
".+++++++++++%&****=-+++++++++++.                                                                ",
".++++++++++;********>++++++++++.                                                                ",
".+++++++++,**********'+++++++++.                                                                ",
".+++++++++)**********!+++++++++.                                                                ",
".+++++++++~**********{+++++++++.                                                                ",
".+++++++++~**********{+++++++++.                                                                ",
".+++++++++)**********!+++++++++.                                                                ",
".+++++++++,**********'+++++++++.                                                                ",
".++++++++++;********>++++++++++.                                                                ",
".+++++++++++%&****=-+++++++++++.                                                                ",
".++++++++++++@#$$#@++++++++++++.                                                                ",
".++++++++++++++++++++++++++++++.                                                                ",
".++++++++++++++++++++++++++++++.                                                                ",
".++++++++++++++++++++++++++++++.                                                                ",
"................................                                                                ",
"                                                                                                ",
"                                                                                                ",
"                                                                                                ",
"                                                                                                ",
"                                                                                                ",
"                                                                                                ",
"                                                                                                "};
