/* XPM */
static const char * Flag_USA_xpm[] = {
"96 32 93 2",
"  	c None",
". 	c #000000",
"+ 	c #4C4B79",
"@ 	c #54537F",
"# 	c #4E4E7C",
"$ 	c #52517E",
"% 	c #4F4E7C",
"& 	c #504F7D",
"* 	c #51517E",
"= 	c #4F4E7D",
"- 	c #51517F",
"; 	c #4D4C7C",
"> 	c #52527F",
", 	c #4B4A79",
"' 	c #B22234",
") 	c #53527F",
"! 	c #5F5E89",
"~ 	c #616089",
"{ 	c #60608A",
"] 	c #616088",
"^ 	c #606088",
"/ 	c #605F87",
"( 	c #52517F",
"_ 	c #D58791",
": 	c #3E3D70",
"< 	c #62618A",
"[ 	c #65658C",
"} 	c #64638A",
"| 	c #62628B",
"1 	c #63638B",
"2 	c #63628A",
"3 	c #61608A",
"4 	c #64648B",
"5 	c #605F89",
"6 	c #3E3D6F",
"7 	c #FFFFFF",
"8 	c #6D6D92",
"9 	c #68678E",
"0 	c #6B6A91",
"a 	c #696890",
"b 	c #6A698F",
"c 	c #68688F",
"d 	c #66658F",
"e 	c #6E6D95",
"f 	c #63628B",
"g 	c #B83243",
"h 	c #3D3C6F",
"i 	c #68678D",
"j 	c #6F6E93",
"k 	c #69688F",
"l 	c #6C6C92",
"m 	c #6B6A92",
"n 	c #6C6B91",
"o 	c #6D6C91",
"p 	c #696990",
"q 	c #6F6F93",
"r 	c #CF7681",
"s 	c #66658C",
"t 	c #6F6E94",
"u 	c #6A6990",
"v 	c #6E6D92",
"w 	c #6B6B8F",
"x 	c #6D6D91",
"y 	c #6D6C92",
"z 	c #6E6D94",
"A 	c #676690",
"B 	c #6F6E95",
"C 	c #65648D",
"D 	c #3C3B6E",
"E 	c #6A6991",
"F 	c #66658B",
"G 	c #66658E",
"H 	c #66668E",
"I 	c #67668E",
"J 	c #BD4352",
"K 	c #6C6C93",
"L 	c #6C6B90",
"M 	c #6A6A91",
"N 	c #68678F",
"O 	c #6F6E96",
"P 	c #64638C",
"Q 	c #CA6672",
"R 	c #65648B",
"S 	c #6C6C91",
"T 	c #6B6B91",
"U 	c #62628A",
"V 	c #66658D",
"W 	c #67668F",
"X 	c #64638D",
"Y 	c #6E6E95",
"Z 	c #C45462",
"` 	c #5E456E",
" .	c #5F456E",
"                                                                                                                                                                                                ",
"                                                                                                                                                                                                ",
"                                                                                                                                                                                                ",
"                                                                                                                                                                                                ",
". . . . . . . . . . . . . . . . . . . . . . . . . . . . . . . .                                                                                                                                 ",
". + @ # $ % & * = - ; > , ' ' ' ' ' ' ' ' ' ' ' ' ' ' ' ' ' ' .                                                                                                                                 ",
". ) ! ~ { ] ^ / ] ~ ~ ~ ( _ _ _ _ _ _ _ _ _ _ _ _ _ _ _ _ _ _ .                                                                                                                                 ",
". : < [ } | } 1 2 3 4 5 6 7 7 7 7 7 7 7 7 7 7 7 7 7 7 7 7 7 7 .                                                                                                                                 ",
". } 8 9 0 a b a c 0 d e f g g g g g g g g g g g g g g g g g g .                                                                                                                                 ",
". h i j k l m n o p q 9 h r r r r r r r r r r r r r r r r r r .                                                                                                                                 ",
". s t u v w x y k z A B C 7 7 7 7 7 7 7 7 7 7 7 7 7 7 7 7 7 7 .                                                                                                                                 ",
". D } E F 9 G H I [ 0 2 D J J J J J J J J J J J J J J J J J J .                                                                                                                                 ",
". F B 9 K k L M N v H O P Q Q Q Q Q Q Q Q Q Q Q Q Q Q Q Q Q Q .                                                                                                                                 ",
". D R z N S p b T G t C D 7 7 7 7 7 7 7 7 7 7 7 7 7 7 7 7 7 7 .                                                                                                                                 ",
". U t V m W u T W 8 X Y 3 Z Z Z Z Z Z Z Z Z Z Z Z Z Z Z Z Z Z .                                                                                                                                 ",
". ` ` `  .` ` ` ` `  .` ` Z Z Z Z Z Z Z Z Z Z Z Z Z Z Z Z Z Z .                                                                                                                                 ",
". 7 7 7 7 7 7 7 7 7 7 7 7 7 7 7 7 7 7 7 7 7 7 7 7 7 7 7 7 7 7 .                                                                                                                                 ",
". Q Q Q Q Q Q Q Q Q Q Q Q Q Q Q Q Q Q Q Q Q Q Q Q Q Q Q Q Q Q .                                                                                                                                 ",
". J J J J J J J J J J J J J J J J J J J J J J J J J J J J J J .                                                                                                                                 ",
". 7 7 7 7 7 7 7 7 7 7 7 7 7 7 7 7 7 7 7 7 7 7 7 7 7 7 7 7 7 7 .                                                                                                                                 ",
". r r r r r r r r r r r r r r r r r r r r r r r r r r r r r r .                                                                                                                                 ",
". g g g g g g g g g g g g g g g g g g g g g g g g g g g g g g .                                                                                                                                 ",
". 7 7 7 7 7 7 7 7 7 7 7 7 7 7 7 7 7 7 7 7 7 7 7 7 7 7 7 7 7 7 .                                                                                                                                 ",
". _ _ _ _ _ _ _ _ _ _ _ _ _ _ _ _ _ _ _ _ _ _ _ _ _ _ _ _ _ _ .                                                                                                                                 ",
". ' ' ' ' ' ' ' ' ' ' ' ' ' ' ' ' ' ' ' ' ' ' ' ' ' ' ' ' ' ' .                                                                                                                                 ",
". . . . . . . . . . . . . . . . . . . . . . . . . . . . . . . .                                                                                                                                 ",
"                                                                                                                                                                                                ",
"                                                                                                                                                                                                ",
"                                                                                                                                                                                                ",
"                                                                                                                                                                                                ",
"                                                                                                                                                                                                ",
"                                                                                                                                                                                                "};
