/* XPM */
static const char * Flag_Japan_xpm[] = {
"96 32 28 1",
" 	c None",
".	c #000000",
"+	c #FFFFFF",
"@	c #FDF9FA",
"#	c #E497A9",
"$	c #CA3458",
"%	c #C0113B",
"&	c #CA3559",
"*	c #E498AA",
"=	c #FEFAFB",
"-	c #F8E4E9",
";	c #C93155",
">	c #BC002D",
",	c #C93256",
"'	c #F8E5EA",
")	c #FDF7F8",
"!	c #C82E53",
"~	c #C93055",
"{	c #FDF8F9",
"]	c #E18EA2",
"^	c #E290A4",
"/	c #CA375A",
"(	c #BF0B36",
"_	c #BF0D38",
":	c #CB385B",
"<	c #E394A7",
"[	c #E396A9",
"}	c #BE0733",
"                                                                                                ",
"                                                                                                ",
"                                                                                                ",
"                                                                                                ",
"................................                                                                ",
".++++++++++++++++++++++++++++++.                                                                ",
".++++++++++++++++++++++++++++++.                                                                ",
".++++++++++++++++++++++++++++++.                                                                ",
".++++++++++++++++++++++++++++++.                                                                ",
".+++++++++++@#$%%&*=+++++++++++.                                                                ",
".++++++++++-;>>>>>>,'++++++++++.                                                                ",
".+++++++++)!>>>>>>>>~{+++++++++.                                                                ",
".+++++++++]>>>>>>>>>>^+++++++++.                                                                ",
".+++++++++$>>>>>>>>>>/+++++++++.                                                                ",
".+++++++++(>>>>>>>>>>_+++++++++.                                                                ",
".+++++++++(>>>>>>>>>>_+++++++++.                                                                ",
".+++++++++&>>>>>>>>>>:+++++++++.                                                                ",
".+++++++++<>>>>>>>>>>[+++++++++.                                                                ",
".+++++++++{!>>>>>>>>~@+++++++++.                                                                ",
".++++++++++-;>>>>>>,'++++++++++.                                                                ",
".+++++++++++@#$}}&*=+++++++++++.                                                                ",
".++++++++++++++++++++++++++++++.                                                                ",
".++++++++++++++++++++++++++++++.                                                                ",
".++++++++++++++++++++++++++++++.                                                                ",
".++++++++++++++++++++++++++++++.                                                                ",
"................................                                                                ",
"                                                                                                ",
"                                                                                                ",
"                                                                                                ",
"                                                                                                ",
"                                                                                                ",
"                                                                                                "};
