/* XPM */ 
static const char *const Flag_Unknown_xpm[] = {
"96 32 15 1",
" 	c None",
"!	c black",
"#	c #360000",
"$	c #D60000",
"%	c #1B0000",
"&	c #6B0000",
"'	c #510000",
"(	c #280000",
")	c #BB0000",
"*	c #780000",
"+	c #A00000",
",	c #0D0000",
"-	c #C90000",
".	c #AE0000",
"0	c #430000",
"                                                                                                ",
"                                                                                                ",
"                                                                                                ",
"                                                                                                ",
"                                                                                                ",
"!!!!!!!!!!!!!!!!!!!!!!!!!!!!!!!!                                                                ",
"!!!!!!!!!!!!!!!!!!!!!!!!!!!!!!!!                                                                ",
"!!!!!!!!!!!!!!!!!!!!!!!!!!!!!!!!                                                                ",
"!!!!!!!!!!!!!!!!!!!!!!!####!!!!!                                                                ",
"!!!!!!!!!!!!!!!!!!!!!!!#$$#!###!                                                                ",
"!!!%&'!!!!%&'!()$$$$$*!#$$##$$#!                                                                ",
"!!!#$+!!!!#$+,-$$$$$$$&#$$#))$#!                                                                ",
"!!!#$+!!!!#$+#$.!!!!0$+#$$)))#!!                                                                ",
"!!!#$+!!!!#$+#$+!!!!#$+#$$))#!!!                                                                ",
"!!!#$+!!!!#$+#$+!!!!#$+#$$))#!!!                                                                ",
"!!!#$+!!!!#$+#$+!!!!#$+#$$)))#!!                                                                ",
"!!!#$.!!!!0$+#$+!!!!#$+#))#))$#!                                                                ",
"!!!,-$$$$$$$&#$+!!!!#$+#$$!#$$#!                                                                ",
"!!!!()$$$$$*!%&'!!!!%&'!##!!##!!                                                                ",
"!!!!!!!!!!!!!!!!!!!!!!!!!!!!!!!!                                                                ",
"!!!!!!!!!!!!!!!!!!!!!!!!!!!!!!!!                                                                ",
"!!!!!!!!!!!!!!!!!!!!!!!!!!!!!!!!                                                                ",
"!!!!!!!!!!!!!!!!!!!!!!!!!!!!!!!!                                                                ",
"!!!!!!!!!!!!!!!!!!!!!!!!!!!!!!!!                                                                ",
"!!!!!!!!!!!!!!!!!!!!!!!!!!!!!!!!                                                                ",
"                                                                                                ",
"                                                                                                ",
"                                                                                                ",
"                                                                                                ",
"                                                                                                ",
"                                                                                                ",
"                                                                                                "};
