/* XPM */
static const char * Flag_Netherlands_xpm[] = {
"96 32 8 1",
" 	c None",
".	c #000000",
"+	c #AE1C28",
"@	c #C3565F",
"#	c #FFFFFF",
"$	c #526EA5",
"%	c #1F448A",
"&	c #21468B",
"                                                                                                ",
"                                                                                                ",
"                                                                                                ",
"                                                                                                ",
"................................                                                                ",
".++++++++++++++++++++++++++++++.                                                                ",
".++++++++++++++++++++++++++++++.                                                                ",
".++++++++++++++++++++++++++++++.                                                                ",
".++++++++++++++++++++++++++++++.                                                                ",
".++++++++++++++++++++++++++++++.                                                                ",
".++++++++++++++++++++++++++++++.                                                                ",
".@@@@@@@@@@@@@@@@@@@@@@@@@@@@@@.                                                                ",
".##############################.                                                                ",
".##############################.                                                                ",
".##############################.                                                                ",
".##############################.                                                                ",
".##############################.                                                                ",
".##############################.                                                                ",
".$$$$$$$$$$$$$$$$$$$$$$$$$$$$$$.                                                                ",
".%%%%%%%%%%%%%%%%%%%%%%%%%%%%%%.                                                                ",
".&&&&&&&&&&&&&&&&&&&&&&&&&&&&&&.                                                                ",
".&&&&&&&&&&&&&&&&&&&&&&&&&&&&&&.                                                                ",
".&&&&&&&&&&&&&&&&&&&&&&&&&&&&&&.                                                                ",
".&&&&&&&&&&&&&&&&&&&&&&&&&&&&&&.                                                                ",
".&&&&&&&&&&&&&&&&&&&&&&&&&&&&&&.                                                                ",
"................................                                                                ",
"                                                                                                ",
"                                                                                                ",
"                                                                                                ",
"                                                                                                ",
"                                                                                                ",
"                                                                                                "};
