/* XPM */
static const char *folder_xpm[] = {
/* columns rows colors chars-per-pixel */
"16 16 140 2",
"7  c #FFE790",
"B  c #FCDA87",
"h  c #C0B08F",
"E  c #DEBC6E",
"i  c #FFE48D",
"j. c #AFA181",
"@. c #B9AC8D",
"=. c #B4A279",
"y. c #6C5E32",
"~  c #F0CF80",
"1. c #E1C074",
"&. c #E6C477",
"T  c #FFFFFF",
";. c #AD9B6F",
"5. c #B2A27C",
"I  c #BCAA80",
"H  c #C1B7A2",
"N  c #FDDB87",
"r  c #EEF3FF",
"(  c #F8D480",
"X  c #E7DDBB",
"W  c #AB9560",
"8  c #FEE891",
"q  c #FEE892",
"o. c #B09C71",
"j  c #C4B89D",
"+. c #E2C176",
"@  c #E7DABD",
"-  c #F1D087",
"Z  c #F9DB85",
"2. c #E0C175",
"|  c #EAC97B",
"X. c #EAEAEA",
"q. c #E0BE71",
"t. c #A28B4A",
"%  c #FFEC8E",
"8. c #AC9C72",
"G  c #A28E5F",
"z. c #BBAE8E",
"l. c #B1A385",
"e. c #DEBE72",
"O. c #CFAF65",
"b  c #E3E9F5",
"Y  c #D9D8D8",
"K  c #F7D584",
"+  c #E3D1AA",
"2  c #DCD6B9",
"i. c #AA9666",
"O  c #E1D4B0",
"S  c #B4B6BC",
"k. c #AFA080",
"<. c #B9AB8D",
"}  c #EBCA7B",
"^  c #F0CE80",
".. c #B7A57B",
"J  c #BCAF91",
"   c None",
"V  c #FDDA86",
"$. c #E4C378",
" . c #F3CF7B",
"r. c #E9C77A",
"3  c #F1FCFF",
"o  c #E7DFBC",
"<  c #FEEA93",
"d. c #BAAC8C",
"u  c #C9BEA3",
"!  c #BAAC8E",
"0  c #FEE791",
";  c #D8CDB2",
"[  c #ECCB7C",
"7. c #F1F3F7",
"`  c #ECECEC",
"4. c #E7C474",
"*  c #E5D08E",
"g. c #B3A585",
"z  c #FEDE8A",
"l  c #FEDE8B",
"3. c #E0C075",
"#. c #E5C477",
"1  c #FFEB8B",
"w  c #FFEB8C",
"4  c #DBB978",
"U  c #8E929B",
"e  c #D4CAA9",
"_  c #93969E",
"h. c #AC9E7E",
"M  c #C0B497",
"f. c #BBAD8D",
"a. c #CAAA62",
">. c #DEBD73",
"*. c #EDC977",
"x  c #FFDF8A",
")  c #B9A77D",
"v  c #BEB192",
"k  c #FFDF8B",
"m  c #B9AA88",
"L  c #F5D484",
"5  c #CDBD9C",
"n  c #CDB47F",
"f  c #EBF0FD",
"0. c #DCBA6F",
"g  c #CDB179",
"-. c #94979E",
"p. c #947C45",
"'  c #B2A073",
"R  c #B7A477",
"u. c #A38E61",
"s. c #C1AF86",
"#  c #DAD2BD",
"9. c #C6A760",
":. c #CBAB62",
"y  c #C6B694",
"w. c #DFBE72",
"=  c #F3DDAB",
"C  c #FDD986",
".  c #E7DEBA",
",  c #FEE993",
":  c #D3CBB4",
"6  c #CEC4AC",
"]  c #D3B368",
"9  c #FEE691",
"c  c #FEE388",
"p  c #FEE38E",
"a  c #FEE38F",
"t  c #D3B373",
"d  c #CCC1A0",
"&  c #FFF08D",
"{  c #B8AB8C",
",. c #B8AB8D",
"Q  c #C2B9A3",
"F  c #C2AD7C",
"/  c #EFCE80",
"P  c #FEDA84",
"$  c #FFED8D",
"D  c #FEFEFE",
"%. c #E5C378",
">  c #FFEA92",
"s  c #FFE78A",
"6. c #989CA9",
"A  c #BBAC89",
/* pixels */
"                                ",
"    . X X X X X o O + @         ",
"  # $ % % % % % & * = - ;       ",
"  : > , < < , , 1 2 3 4 5       ",
"  6 7 8 8 9 0 q w e r t y       ",
"  u i p p a p p s d f g h       ",
"  j k l l l z x c v b n m       ",
"  M N B V B C Z A S D F G H     ",
"  J K L L L P I U Y T R E W Q   ",
"  ! ~ ^ ^ / ( ) _ ` T ' ] [ {   ",
"  ! } | | |  ..._ X.T o.O.+.@.  ",
"  @.#.$.%.&.*.=.-.X.T ;.:.>.,.  ",
"  <.1.2.2.3.4.5.6.7.T 8.9.0.,.  ",
"  <.q.w.e.e.r.t.y.u.i.p.a.s.    ",
"    d.d.d.d.f.g.h.j.k.l.z.      ",
"                                "
};
