/* XPM */
static const char *file_xpm[] = {
/* columns rows colors chars-per-pixel */
"16 16 44 1",
"$ c #D9D9D9",
"9 c #E8E8E8",
"O c #FFFFFF",
"o c #626262",
"q c #ADADAD",
"t c #BCBCBC",
"* c #DADADA",
"7 c #A6A6A6",
"1 c #B5B5B5",
"g c #E2E2E2",
"& c #F1F1F1",
"2 c #9F9F9F",
"% c #F9F9F9",
"e c #C5C5C5",
"= c #AFAFAF",
"r c #BEBEBE",
"  c None",
"y c #B7B7B7",
"# c #D5D5D5",
", c #E4E4E4",
"+ c #F3F3F3",
"p c #CECECE",
"@ c #ECECEC",
"u c #FBFBFB",
"h c #C7C7C7",
"- c #F4F4F4",
"< c #CFCFCF",
"5 c #DEDEDE",
"> c #FCFCFC",
"X c #AAAAAA",
"f c #C8C8C8",
"d c #D7D7D7",
"4 c #E6E6E6",
"s c #F5F5F5",
"8 c #A3A3A3",
"a c #C1C1C1",
"i c #EEEEEE",
"3 c #FDFDFD",
". c #ABABAB",
"6 c #BABABA",
"0 c #B3B3B3",
"w c #D1D1D1",
"; c #E0E0E0",
": c #616161",
/* pixels */
"                ",
"  ..XXXXXXo     ",
"  XOOO+@#$Xo    ",
"  XOOO%&*$X=o   ",
"  XOOO%-;$o:o:  ",
"  XOOO>+,$<12:  ",
"  XOOO3%45678o  ",
"  XOOOO%9$0qXo  ",
"  XOO3-@werty:  ",
"  XO3ui5<pear:  ",
"  XOs9,;$dwpfo  ",
"  XO@9,g5dwph:  ",
"  XO94g;*d<pho  ",
"  .%99,;$dwpho  ",
"  oo:oooo:o::o  ",
"                "
};
