/* XPM */
static const char *disc_xpm[] = {
/* columns rows colors chars-per-pixel */
"16 16 120 2",
"o  c #AEA0A0",
":  c #F7F7F7",
"2. c #FCC0BE",
"z  c #878A92",
"q  c #BCEEC1",
"1  c #BDFEC0",
"D  c #A5A5A5",
"W  c #B4B4B4",
"B  c #E1E1E0",
"&  c #FAC3C0",
"M  c #E1E1E1",
"O. c #C8BBA7",
"3. c #95A389",
"*. c #F5B9BA",
"w  c #C6BEA6",
"@  c #E9E9E9",
">. c #F8F8F8",
"=. c #D6DABA",
"b  c #979797",
":. c #B5B5B5",
"(  c #D0CFE8",
"+  c #E2E2E2",
"&. c #E6D0D1",
"I  c #545454",
"F  c #818180",
"s  c #A4A3A3",
"_  c #CCCCCC",
"U  c #A9A7A7",
"j  c #DBDBDA",
"H  c #EAEAEA",
"7. c #E0DFDF",
"=  c #DBD8D8",
"3  c #F4BABB",
"*  c #F2C3C5",
"u  c #C9C8EE",
"l  c #9090A7",
"S  c #A7A7A7",
"p  c #7B8A7F",
"i  c #A7B3CF",
"O  c #CACCCC",
"N  c #E3E3E3",
"P  c #555555",
";. c #8BA696",
"K  c #828282",
"~  c #AAABAA",
"!  c #AAABAB",
"%. c #E1E3E4",
"/  c #8E8DAC",
"h  c #CDCDCC",
"5. c #DCDCDC",
"|  c #C2C1F6",
"m  c #FAFAFA",
"<. c #DCD9D9",
" . c #9B9CAF",
"]  c #968C88",
"C  c #7B7B7A",
"T  c #7B7B7D",
"'  c #999999",
"v  c #A8A8A8",
"a  c #8F8B86",
"$. c #B7B7B7",
"-  c #DFE0E0",
"   c None",
"E  c #E4E4E4",
"o. c #AC8D8E",
"x  c #ABACAB",
"X. c #7E7C7C",
"`  c #A1A1A1",
".  c #BFBFBF",
"%  c #9BAD8F",
"[  c #7D8F7D",
".. c #818383",
"<  c #91A8A3",
",. c #E0E1E1",
"R  c #E5E5E2",
"V  c #E5E5E3",
"A  c #484848",
"k  c #D6D6E3",
"^  c #898B97",
"+. c #BCF2BC",
"6  c #EDEDED",
"7  c #FCFCFC",
"}  c #BAB8F6",
"2  c #D3DDB9",
"Q  c #AAAAAA",
"4. c #B9B9B9",
"Z  c #A5A3A5",
"6. c #E6E6E6",
"d  c #A3A3A3",
"Y  c #A3A3A4",
"t  c #B2B2B2",
"#. c #C0C3FD",
"#  c #DFDFDF",
"9. c #AA9B9B",
"G  c #EEEEEE",
"$  c #A3A3B0",
"9  c #C0C0FE",
"r  c #7E7E7E",
"4  c #E6D1D1",
";  c #E7E7E7",
")  c #D8D8DD",
"1. c #F4C4C5",
"{  c #A7BAC9",
"f  c #959595",
"L  c #A4A4A3",
"8. c #C7C9C9",
"c  c #A4A4A4",
"5  c #E0E3E3",
"n  c #B3B3B3",
"y  c #C2C2C2",
"J  c #EFEFEF",
">  c #FEFEFE",
"8  c #BCBAF4",
"X  c #A88C8C",
"0  c #B9D0DF",
"g  c #9D9D9D",
"-. c #BFFEBE",
"e  c #7A7879",
"@. c #BADAD6",
",  c #BBBBBB",
/* pixels */
"            . . . .             ",
"        X o O + @ # . .         ",
"    $ % & * = - ; : > > , .     ",
"    < 1 2 3 4 5 6 7 > > > .     ",
"  8 9 0 q w X e r t @ > > > y   ",
"  $ u 8 i p a s d f g @ > > y   ",
". h j k l z x c d v b n > m M . ",
". N B V C Z v A A S D F G @ H . ",
". H H J K L S P I U Y T R B E . ",
". + m > W b D Q ! ~ ^ / ( ) _ . ",
"  . > > H ` ' d s ] [ { } |  .  ",
"  . > > > @ W ..X.o.O.+.@.#./   ",
"    $.> > > 7 G %.&.*.=.-.;.    ",
"    . :.> > >.@ ,.<.1.2.3.@.    ",
"        4.4.5.6.7.8.9.X.        ",
"            . . . .             "
};
