/* XPM */
static const char *Platform_Gamecube_xpm[] = {
/* columns rows colors chars-per-pixel */
"96 32 204 2",
"E. c #B1B0B0",
"]  c #8E8B8C",
"`. c #E8E8E8",
"O  c #CFCECF",
"q. c #F7F7F7",
" . c #231F20",
"N. c #191415",
"x. c #191416",
"~  c #322E2F",
"G. c #4B4849",
"S. c #646263",
"@. c #5A5758",
"^. c #504C4D",
"4  c #828080",
"p. c #C3C3C3",
":. c #B9B8B8",
"H  c #C8C7C7",
"c. c #BEBCBC",
"L  c #E1E1E1",
"G  c #F0F0EF",
"n  c #F0F0F0",
"L. c #E6E5E6",
".  c #FFFFFF",
"!  c #1C1819",
"d. c #2B2728",
"z  c #535051",
"H. c #9E9E9E",
"a  c #716E6F",
"9  c #8A8888",
"1X c #B2B1B1",
"V. c #8F8C8D",
"XX c #A8A6A7",
"X. c #DFDEDF",
"o. c #EEEDED",
";X c #151112",
",  c #242021",
"$  c #3D3A3A",
"j. c #1A1517",
"]. c #292426",
"f. c #656364",
"[. c #6A6768",
"y. c #929091",
"&  c #BAB9B9",
"I. c #D3D3D3",
"#  c #B0AEAF",
"o  c #C9C8C8",
"%X c #C9C8C9",
",X c #F1F1F1",
"7  c #2C2829",
"5. c #221D1E",
"!. c #3B3738",
"x  c #221D1F",
"[  c #312C2D",
"u  c #7C7A7A",
"-X c #8B8989",
"A  c #B3B2B2",
"F. c #C2C1C1",
"a. c #B8B6B6",
"P  c #C2C1C2",
">X c #D1D0D1",
"K  c #EAEAEA",
"#. c #C7C5C6",
"0  c #E0DFDF",
"$X c #F9F9F9",
"}. c #EFEEEE",
"v. c #252121",
"8  c #252122",
"{  c #1B1617",
"&. c #3E3B3D",
"d  c #343031",
"+X c #2A2526",
"y  c #2A2527",
"<  c #5C5959",
"OX c #848282",
"I  c #615D5E",
"#X c #898686",
"6. c #939192",
"<X c #A2A0A1",
"B  c #B1AFAF",
"U. c #CAC9CA",
"n. c #E3E3E3",
"*  c #F2F2F2",
"p  c #E8E7E7",
".X c #373435",
"A. c #2D292A",
"k. c #231E1F",
"C. c #6E6C6C",
"w  c #9B9999",
"1. c #9B999A",
"O. c #C3C2C2",
"D  c #EBEBEB",
"0. c #FAFAFA",
";. c #262223",
"r. c #3F3C3D",
"s. c #1C1719",
"z. c #8F8E8E",
";  c #534F50",
"m  c #ADACAC",
"T. c #ADACAD",
"b. c #BCBBBB",
"R  c #D5D5D5",
"   c None",
"Y  c #CBCACA",
"Z. c #F3F3F3",
"'  c #E9E8E8",
"*X c #151012",
"M  c #2E2A2B",
"_  c #241F20",
"u. c #241F21",
")  c #332E2F",
"). c #4C4849",
"S  c #A6A5A5",
"'. c #9C9A9B",
"l  c #C4C3C4",
"(. c #BAB8B9",
"<. c #ECECEC",
"2  c #FBFBFB",
"R. c #F1F0F0",
"M. c #272324",
"c  c #1D181A",
"+. c #545050",
"m. c #635F60",
"-  c #C7C7C7",
"oX c #DBDADB",
"$. c #F4F4F4",
"=  c #F9F8F8",
"(  c #201C1D",
"e. c #2F2B2C",
":  c #252021",
"E  c #575455",
"t. c #4D494A",
"^  c #9D9B9C",
"Q  c #C5C4C4",
"3. c #D4D3D4",
"i  c #EDEDED",
"X  c #FCFCFC",
"V  c #F2F1F1",
"{. c #F2F1F2",
"8. c #322F2F",
"7. c #191516",
"t  c #282425",
"%  c #413E3F",
"6  c #2D282A",
"P. c #787676",
"h. c #8C898A",
"Q. c #BEBDBE",
"%. c #B4B2B2",
"K. c #CDCCCD",
",. c #DCDBDB",
"b  c #F5F5F5",
"W. c #FAF9FA",
"~. c #211D1E",
"/  c #211D1F",
"N  c #302C2C",
"Y. c #171214",
"e  c #302C2D",
"h  c #262122",
"*. c #262123",
"U  c #676465",
"l. c #999898",
"B. c #999899",
"}  c #D5D4D5",
"@  c #EEEEEE",
"D. c #E4E3E3",
"+  c #FDFDFD",
"F  c #F3F2F2",
"i. c #1A1617",
"5  c #292526",
"_. c #423F40",
"j  c #1F1A1B",
"|. c #605D5E",
"=X c #979595",
"J. c #979596",
"`  c #B0AFAF",
"C  c #A6A4A5",
".. c #B5B3B3",
"3  c #D8D8D8",
"1  c #CECDCD",
"/. c #C4C2C3",
"r  c #221E1E",
"s  c #221E1F",
"=. c #312D2E",
"4. c #636161",
"k  c #595656",
"9. c #817F7F",
"w. c #777475",
"f  c #868383",
"W  c #D1D1D1",
"Z  c #AEACAC",
"|  c #C7C6C6",
"-. c #D6D5D5",
"g. c #EFEFEF",
"g  c #D6D5D6",
"q  c #E5E4E4",
"T  c #FEFEFE",
"@X c #1B1718",
" X c #2A2626",
">  c #2A2627",
"v  c #393535",
":X c #615E5F",
"&X c #575354",
"J  c #706D6E",
"2. c #A2A1A1",
">. c #7F7C7D",
/* pixels */
"                                                                                                                                                                                                ",
"                                                                                                                                                                                                ",
"                                                                                                                                                                                                ",
"                                                                                                                                                                                                ",
"                                                                                                                                                                                                ",
"      . . . . . . . . X o O + . . . . . . . .                                                                                                                                                   ",
"      . . . . . . . @ # $ % & * . . . . . . .                                                                                                                                                   ",
"      . . . . . = - ; : > > , < 1 2 . . . . .                                                                                                                                                   ",
"      . . . . 3 4 , > 5 6 7 > 5 8 9 0 . . . .                                                                                                                                                   ",
"      . X q w e r t y u i p a 5 t s d f * . .                                                                                                                                                   ",
"      . g h j t s k 1 . . . + l z x c v & . .                                                                                                                                                   ",
"      b n m M N B b . V C Z b . b A S D . F G                                                                                                                                                   ",
"      H J @ K L . . P I x r U Y T . . . R E W                                                                                                                                                   ",
"      Q ! ~ R . T ^ / ( ) ~ j _ ` . ' ] [ { }                                                                                                                                                   ",
"      |  . .... X.o.O.+.r s @.#.$.%.&.*.=., -.                                                                                                                                                  ",
"      |  .;.:.T >.E ,.<.1.2.<.3.4.5.> M ~ , -.                                                                                                                                                  ",
"      |  .;.:.. 6.7.8.9.0.q.w.e.5 5 r.t.e , -.                                                                                                                                                  ",
"      |  .;.:.. y.u.e i.p.a.s.=.d.f.g.| h 8 -.                                                                                                                                                  ",
"      |  .;.& . h.j.~ k.l.z._ =.x.:.. c.;.8 -.                                                                                                                                                  ",
"      |  .v.b.. n.m.M.N.B.V.N.t C.Z.. O.: 8 -.                                                                                                                                                  ",
"      O.x A.S.D.. . F.G.H.J.z K.. . L.P.7 _ I.                                                                                                                                                  ",
"      U.Y.e M.e T.n . D R.K g.. i E.=.t M 7.3                                                                                                                                                   ",
"      W.Q.!. .M.~.^./.+ . . 0.(.).5.t  ._.H 2                                                                                                                                                   ",
"      . . `.'.~ s ].5 [.{.}.|. Xt 5..XXXi . .                                                                                                                                                   ",
"      . . . . oXOX, +X@X6.#X! 5 8 h.L . . . .                                                                                                                                                   ",
"      . . . . . $X%X&X*X=X-X;X:X>X2 . . . . .                                                                                                                                                   ",
"      . . . . . . . ,XC XX<X1X$.. . . . . . .                                                                                                                                                   ",
"                                                                                                                                                                                                ",
"                                                                                                                                                                                                ",
"                                                                                                                                                                                                ",
"                                                                                                                                                                                                ",
"                                                                                                                                                                                                "
};
