/* XPM */
static const char * Platform_Wad_xpm[] = {
"96 32 347 2",
"  	c None",
". 	c #FFFFFF",
"+ 	c #F9F9FA",
"@ 	c #F8F8F8",
"# 	c #FAFBFA",
"$ 	c #FEFEFE",
"% 	c #F7F8F8",
"& 	c #FDFEFD",
"* 	c #FCFCFC",
"= 	c #F8F9F9",
"- 	c #F9FAFA",
"; 	c #FAFBFB",
"> 	c #E5E5E5",
", 	c #D9D9DA",
"' 	c #F5F5F5",
") 	c #FFFFFE",
"! 	c #E4E5E5",
"~ 	c #D6D6D8",
"{ 	c #F4F4F5",
"] 	c #DDDEDF",
"^ 	c #ABABAD",
"/ 	c #BBBDBE",
"( 	c #F0F0F0",
"_ 	c #D3D3D5",
": 	c #A3A6A9",
"< 	c #C7C9CA",
"[ 	c #FAFAFA",
"} 	c #C1C2C4",
"| 	c #ADAEB1",
"1 	c #D1D2D4",
"2 	c #E7E8E9",
"3 	c #919396",
"4 	c #7E8184",
"5 	c #C0C2C4",
"6 	c #E7E7E9",
"7 	c #96989A",
"8 	c #76777B",
"9 	c #CACACC",
"0 	c #DDDDDE",
"a 	c #808184",
"b 	c #8C8E91",
"c 	c #DBDDDC",
"d 	c #EDEDED",
"e 	c #9E9FA2",
"f 	c #76797C",
"g 	c #8F9195",
"h 	c #E4E4E6",
"i 	c #EEEEEF",
"j 	c #909295",
"k 	c #828488",
"l 	c #C9CACB",
"m 	c #EDEDEF",
"n 	c #95969A",
"o 	c #828688",
"p 	c #C2C3C4",
"q 	c #E8E8E9",
"r 	c #989B9E",
"s 	c #7B7D81",
"t 	c #CCCCCE",
"u 	c #F2F3F3",
"v 	c #9FA1A3",
"w 	c #898B8E",
"x 	c #C3C5C5",
"y 	c #D6D7D9",
"z 	c #8C8F92",
"A 	c #88898C",
"B 	c #86888C",
"C 	c #CECFD1",
"D 	c #FFFEFE",
"E 	c #D5D5D6",
"F 	c #8E9092",
"G 	c #97999B",
"H 	c #ECECED",
"I 	c #EAE9EA",
"J 	c #F7F7F7",
"K 	c #E7E8E8",
"L 	c #DCDCDD",
"M 	c #F7F7F8",
"N 	c #FBFBFB",
"O 	c #B4B6B8",
"P 	c #838589",
"Q 	c #AEB0B1",
"R 	c #C6C6C8",
"S 	c #85878B",
"T 	c #909396",
"U 	c #84868A",
"V 	c #BDBEC0",
"W 	c #B8BABB",
"X 	c #8A8C8E",
"Y 	c #A1A2A5",
"Z 	c #E0E1E1",
"` 	c #DBDCDD",
" .	c #F1F1F0",
"..	c #FAFAF9",
"+.	c #E4E4E4",
"@.	c #DADBDB",
"#.	c #D4D4D5",
"$.	c #818387",
"%.	c #9FA0A3",
"&.	c #F5F6F6",
"*.	c #A7A9AB",
"=.	c #8B8C90",
"-.	c #B9BABC",
";.	c #939698",
">.	c #9A9C9F",
",.	c #EFF0F0",
"'.	c #A5A7A9",
").	c #87898C",
"!.	c #EFEFEF",
"~.	c #9C9DA0",
"{.	c #CCCECF",
"].	c #EDEDEE",
"^.	c #A3A5A7",
"/.	c #85888A",
"(.	c #CECFCF",
"_.	c #EBEBEC",
":.	c #8B8D8F",
"<.	c #909296",
"[.	c #DFDEE0",
"}.	c #97999C",
"|.	c #E5E5E6",
"1.	c #AAABAE",
"2.	c #E1E1E2",
"3.	c #97999D",
"4.	c #8D8F93",
"5.	c #E1E2E3",
"6.	c #EEEEEE",
"7.	c #96979B",
"8.	c #838588",
"9.	c #CACBCC",
"0.	c #ECEBEC",
"a.	c #9EA0A3",
"b.	c #7D8084",
"c.	c #CBCCCD",
"d.	c #F3F3F4",
"e.	c #A2A4A6",
"f.	c #CFD0D1",
"g.	c #818486",
"h.	c #B1B3B4",
"i.	c #BEBFC1",
"j.	c #7C7F82",
"k.	c #D1D1D2",
"l.	c #DADCDC",
"m.	c #8E9094",
"n.	c #999B9E",
"o.	c #F1F1F2",
"p.	c #9A9B9E",
"q.	c #CCCDCE",
"r.	c #EDECED",
"s.	c #A2A3A6",
"t.	c #828588",
"u.	c #CDCECF",
"v.	c #C8C9CA",
"w.	c #818388",
"x.	c #AEAFB2",
"y.	c #B8B8BA",
"z.	c #838688",
"A.	c #C5C7C8",
"B.	c #D7D7D8",
"C.	c #85888C",
"D.	c #B1B2B5",
"E.	c #B5B7B9",
"F.	c #888A8D",
"G.	c #B4B5B7",
"H.	c #EDEEEF",
"I.	c #DBDBDD",
"J.	c #8A8C8F",
"K.	c #929498",
"L.	c #909194",
"M.	c #929397",
"N.	c #DDDDDF",
"O.	c #EBEBEB",
"P.	c #9C9EA1",
"Q.	c #8F9194",
"R.	c #959799",
"S.	c #888A8E",
"T.	c #CECFD2",
"U.	c #989A9C",
"V.	c #9FA1A4",
"W.	c #F9F8F7",
"X.	c #AAACAE",
"Y.	c #8A8A8D",
"Z.	c #8B8C8F",
"`.	c #8E8F93",
" +	c #EDEBEC",
".+	c #F2EEEF",
"++	c #9B999C",
"@+	c #85878A",
"#+	c #CCCCCD",
"$+	c #F0ECED",
"%+	c #A3A2A4",
"&+	c #7F8184",
"*+	c #CECECF",
"=+	c #BDBFC1",
"-+	c #808286",
";+	c #85888B",
">+	c #BEC0C1",
",+	c #EEFBFE",
"'+	c #F5FDFF",
")+	c #CBCBCD",
"!+	c #84959C",
"~+	c #8A9398",
"{+	c #B3B4B6",
"]+	c #DFEDF1",
"^+	c #F0F6F7",
"/+	c #E2F8FE",
"(+	c #CFE8EF",
"_+	c #899EA7",
":+	c #8A8E92",
"<+	c #CCD0D2",
"[+	c #E9FAFF",
"}+	c #D4E7ED",
"|+	c #8FA6AD",
"1+	c #848C92",
"2+	c #CBD3D7",
"3+	c #E3F8FD",
"4+	c #DFF7FD",
"5+	c #E7F9FD",
"6+	c #F2F3F4",
"7+	c #B9B9BD",
"8+	c #BDBDC0",
"9+	c #F1F2F3",
"0+	c #80E0F8",
"a+	c #9EE6F8",
"b+	c #5FDEFD",
"c+	c #C6F8FF",
"d+	c #D7FCFF",
"e+	c #71CBE2",
"f+	c #A5CBD6",
"g+	c #4ED6F6",
"h+	c #56D9FA",
"i+	c #4FD9FA",
"j+	c #C0E1EB",
"k+	c #CBF6FF",
"l+	c #52D8F9",
"m+	c #56D5F5",
"n+	c #45D5F9",
"o+	c #A7F0FF",
"p+	c #98E8FC",
"q+	c #67D9F6",
"r+	c #58D6F4",
"s+	c #53D4F4",
"t+	c #86E3FA",
"u+	c #7ADCF4",
"v+	c #D4EEF5",
"w+	c #46D2F5",
"x+	c #C9F3FC",
"y+	c #6EDCF7",
"z+	c #AFE5F4",
"A+	c #E7F8FC",
"B+	c #D1F6FE",
"C+	c #F8FDFE",
"D+	c #74DCF7",
"E+	c #B8F0FE",
"F+	c #9DE7FA",
"G+	c #5FD6F4",
"H+	c #B5EDFA",
"I+	c #8BE2F8",
"J+	c #72DDF6",
"K+	c #60D7F5",
"L+	c #EEFAFD",
"M+	c #FDFEFE",
"N+	c #94E4F8",
"O+	c #70DCF8",
"P+	c #72DEF9",
"Q+	c #44CFF2",
"R+	c #99E5F8",
"S+	c #62D8F4",
"T+	c #DEF8FF",
"U+	c #F2FCFF",
"V+	c #CCF2FC",
"W+	c #B0EBFB",
"X+	c #61D7F5",
"Y+	c #B1EBF9",
"Z+	c #8DE2F7",
"`+	c #98E6F8",
" @	c #EFFBFF",
".@	c #9AE7F9",
"+@	c #56D6F5",
"@@	c #A7E9F9",
"#@	c #AAE9F9",
"$@	c #6ADAF6",
"%@	c #98E5F9",
"&@	c #56D5F4",
"*@	c #64D9F5",
"=@	c #54D4F4",
"-@	c #9FE7F8",
";@	c #F8FEFE",
">@	c #92E4F8",
",@	c #70DCF6",
"'@	c #78DEF7",
")@	c #66DAF6",
"!@	c #88E1F7",
"~@	c #B7EDFB",
"{@	c #92E3F8",
"]@	c #57D5F4",
"^@	c #88E2F7",
"/@	c #93E4F8",
"(@	c #C7F1FC",
"_@	c #91E4F8",
":@	c #38CEF3",
"<@	c #7DDFF8",
"[@	c #69DAF6",
"}@	c #31CBF2",
"|@	c #ABEAFA",
"1@	c #8CE3F7",
"2@	c #E2F8FD",
"3@	c #8AE2F8",
"4@	c #E8F9FE",
"5@	c #F3FCFE",
"6@	c #E5F9FD",
"7@	c #6DDBF5",
"8@	c #B7EDFA",
"9@	c #CEF3FC",
"0@	c #79DEF7",
"a@	c #33CDF3",
"b@	c #D1F4FC",
"c@	c #50D4F4",
"d@	c #5CD6F5",
"e@	c #E3F8FE",
"f@	c #59D6F5",
"g@	c #6DDBF6",
"h@	c #9BE6FA",
"i@	c #45D0F4",
"j@	c #95E4F8",
"k@	c #D1F3FD",
"l@	c #6AD9F5",
"m@	c #F9FDFF",
"n@	c #D8F6FD",
"o@	c #5ED7F4",
"p@	c #C0EFFB",
"q@	c #48D1F4",
"r@	c #AAEAFA",
"s@	c #CDF3FC",
"t@	c #BFEFFB",
"u@	c #D8F5FD",
"v@	c #F8FDFF",
"w@	c #C5F1FB",
"x@	c #B5ECFB",
"y@	c #BEEFFB",
"z@	c #B3ECFA",
"A@	c #DCF6FD",
"B@	c #F0FBFE",
"C@	c #C7F1FB",
"D@	c #C3F0FC",
"E@	c #CEF2FC",
"F@	c #ECFBFE",
". . . . . . . . . . . . . . . . . . . . . . . . . . . . . . . . . . . . . . . . . . . . . . . . . . . . . . . . . . . . . . . . . . . . . . . . . . . . . . . . . . . . . . . . . . . . . . . . ",
". . . . . . . . . . . . . . . . . . . . . . . . . . . . . . . . . . . . . . . . . . . . . . . . . . . . . . . . . . . . . . . . . . . . . . . . . . . . . . . . . . . . . . . . . . . . . . . . ",
". . . . . . . . . . . . . . . . . . . . . . . . . . . . . . . . . . . . . . . . . . . . . . . . . . . . . . . . . . . . . . . . . . . . . . . . . . . . . . . . . . . . . . . . . . . . . . . . ",
". . . . . . . . . . . . . . . . . . . . . . . . . . . . . . . . . . . . . . . . . . . . . . . . . . . . . . . . . . . . . . . . . . . . . . . . . . . . . . . . . . . . . . . . . . . . . . . . ",
". . . . . . . . . . . . . . . . . . . . . . . . . . . . . . . . . . . . . . . . . . . . . . . . . . . . . . . . . . . . . . . . . . . . . . . . . . . . . . . . . . . . . . . . . . . . . . . . ",
". . . . . . . . . . . . . . . . . . . . . . . . . . . . . . . . . . . . . . . . . . . . . . . . . . . . . . . . . . . . . . . . . . . . . . . . . . . . . . . . . . . . . . . . . . . . . . . . ",
". . . . . . . . . . . . . . . . . . . . . . . . . . . . . . . . . . . . . . . . . . . . . . . . . . . . . . . . . . . . . . . . . . . . . . . . . . . . . . . . . . . . . . . . . . . . . . . . ",
". . . + @ # . . . . $ % & . . . . * = - ; > , ' . ) ! ~ { . . . . . . . . . . . . . . . . . . . . . . . . . . . . . . . . . . . . . . . . . . . . . . . . . . . . . . . . . . . . . . . . . . . ",
". . . ] ^ / ( . . $ _ : < [ . . + } | 1 2 3 4 5 . 6 7 8 9 . . . . . . . . . . . . . . . . . . . . . . . . . . . . . . . . . . . . . . . . . . . . . . . . . . . . . . . . . . . . . . . . . . . ",
". . . 0 a b c . . d e f g h . . i j k l m n o p . q r s t . . . . . . . . . . . . . . . . . . . . . . . . . . . . . . . . . . . . . . . . . . . . . . . . . . . . . . . . . . . . . . . . . . . ",
". . . u v w x . . y z A B C D . E F G H . I 0 J . . K L M . . . . . . . . . . . . . . . . . . . . . . . . . . . . . . . . . . . . . . . . . . . . . . . . . . . . . . . . . . . . . . . . . . . ",
". . . N O P Q . . R S T U V - . W X Y $ [ Z `  .. ..+.@.( . . . . . . . . . . . . . . . . . . . . . . . . . . . . . . . . . . . . . . . . . . . . . . . . . . . . . . . . . . . . . . . . . . . ",
". . . . #.$.%.&.@ *.=.-.;.>.,.) '.).p . !.~.X {.. ].^./.(.. . . . . . . . . . . . . . . . . . . . . . . . . . . . . . . . . . . . . . . . . . . . . . . . . . . . . . . . . . . . . . . . . . . ",
". . . . _.:.<.[.i 3 }.|.1.U 2.q 3.4.5.. 6.7.8.9.. 0.a.b.c.. . . . . . . . . . . . . . . . . . . . . . . . . . . . . . . . . . . . . . . . . . . . . . . . . . . . . . . . . . . . . . . . . . . ",
". . . . d.e.).f.0 g.h.$ i.j.k.l.m.n.o.. i p.).q.. r.s.t.u.. . . . . . . . . . . . . . . . . . . . . . . . . . . . . . . . . . . . . . . . . . . . . . . . . . . . . . . . . . . . . . . . . . . ",
". . . . * v.w.x.y.z.A.. B.C.D.E.F.G.* . H.p.).q.. r.s.t.u.. . . . . . . . . . . . . . . . . . . . . . . . . . . . . . . . . . . . . . . . . . . . . . . . . . . . . . . . . . . . . . . . . . . ",
". . . . . I.J.K.L.M.N.. O.P.Q.R.S.T.$ . i p.).q.. r.s.t.u.. . . . . . . . . . . . . . . . . . . . . . . . . . . . . . . . . . . . . . . . . . . . . . . . . . . . . . . . . . . . . . . . . . . ",
". . . . . i U.F.).V.H.. W.X.Y.Z.`. +. . .+++@+#+. $+%+&+*+. . . . . . . . . . . . . . . . . . . . . . . . . . . . . . . . . . . . . . . . . . . . . . . . . . . . . . . . . . . . . . . . . . . ",
". . . . . [ =+-+;+>+. ,+'+)+!+~+{+]+^+/+(+_+:+<+[+}+|+1+2+3+4+5+. . . . . . . . . . . . . . . . . . . . . . . . . . . . . . . . . . . . . . . . . . . . . . . . . . . . . . . . . . . . . . . . ",
". . . . . . 6+7+8+9+. 0+a+. b+c+d+e+f+g+h+i+j+k+l+m+n+o+p+q+r+s+. . . . . . . . . . . . . . . . . . . . . . . . . . . . . . . . . . . . . . . . . . . . . . . . . . . . . . . . . . . . . . . . ",
". . . . . . . . . . . t+u+v+w+x+y+z+A+B+C+D+E+F+G+H+I+J+K+L+M+q+. . . . . . . . . . . . . . . . . . . . . . . . . . . . . . . . . . . . . . . . . . . . . . . . . . . . . . . . . . . . . . . . ",
". . . . . . . . . . . N+O+P+Q+R+S+T+U+V+W+X+Y+Z+`+.  @.@+@@@#@$@. . . . . . . . . . . . . . . . . . . . . . . . . . . . . . . . . . . . . . . . . . . . . . . . . . . . . . . . . . . . . . . . ",
". . . . . . . . . . . %@s+&@*@=@-@;@>@,@'@)@V+!@~@. M+{@]@^@/@(@. . . . . . . . . . . . . . . . . . . . . . . . . . . . . . . . . . . . . . . . . . . . . . . . . . . . . . . . . . . . . . . . ",
". . . . . . . . . . . _@:@<@[@}@3+|@1@2@W+3@4@3@5@. 6@7@8@. 9@4+. . . . . . . . . . . . . . . . . . . . . . . . . . . . . . . . . . . . . . . . . . . . . . . . . . . . . . . . . . . . . . . . ",
". . . . . . . . . . . 0@a@b@c@d@e@f@g@h@i@j@k@l@m@. n@o@/@p@q@r@. . . . . . . . . . . . . . . . . . . . . . . . . . . . . . . . . . . . . . . . . . . . . . . . . . . . . . . . . . . . . . . . ",
". . . . . . . . . . . s@t@. (@u@v@w@x@y@z@A@B@C@v@. B@(@D@E@p@F@. . . . . . . . . . . . . . . . . . . . . . . . . . . . . . . . . . . . . . . . . . . . . . . . . . . . . . . . . . . . . . . . ",
". . . . . . . . . . . . . . . . . . . . . . . . . . . . . . . . . . . . . . . . . . . . . . . . . . . . . . . . . . . . . . . . . . . . . . . . . . . . . . . . . . . . . . . . . . . . . . . . ",
". . . . . . . . . . . . . . . . . . . . . . . . . . . . . . . . . . . . . . . . . . . . . . . . . . . . . . . . . . . . . . . . . . . . . . . . . . . . . . . . . . . . . . . . . . . . . . . . ",
". . . . . . . . . . . . . . . . . . . . . . . . . . . . . . . . . . . . . . . . . . . . . . . . . . . . . . . . . . . . . . . . . . . . . . . . . . . . . . . . . . . . . . . . . . . . . . . . ",
". . . . . . . . . . . . . . . . . . . . . . . . . . . . . . . . . . . . . . . . . . . . . . . . . . . . . . . . . . . . . . . . . . . . . . . . . . . . . . . . . . . . . . . . . . . . . . . . ",
". . . . . . . . . . . . . . . . . . . . . . . . . . . . . . . . . . . . . . . . . . . . . . . . . . . . . . . . . . . . . . . . . . . . . . . . . . . . . . . . . . . . . . . . . . . . . . . . ",
". . . . . . . . . . . . . . . . . . . . . . . . . . . . . . . . . . . . . . . . . . . . . . . . . . . . . . . . . . . . . . . . . . . . . . . . . . . . . . . . . . . . . . . . . . . . . . . . "};
