/* XPM */
static const char *Platform_Wad_xpm[] = {
/* columns rows colors chars-per-pixel */
"96 32 347 2",
"hX c #71CBE2",
"v. c #DADCDC",
"a  c #DDDDDE",
"!. c #DDDDDF",
"}  c #E0E1E1",
"i  c #76777B",
")X c #62D8F4",
"go c #5CD6F5",
"a. c #ECEBEC",
">. c #EFEFEF",
"FX c #6EDCF7",
"x. c #7C7F82",
"qo c #8CE3F7",
"sX c #9EE6F8",
"Z  c #F2F3F3",
"oo c #A7E9F9",
"yX c #F2F3F4",
"Bo c #AAEAFA",
"c  c #828488",
"3. c #85888A",
"X  c #F8F8F8",
"*X c #85888B",
"do c #D1F4FC",
"po c #CEF3FC",
"H  c #88898C",
"K. c #85888C",
"gX c #D7FCFF",
"6. c #8B8D8F",
"*o c #F8FEFE",
"`X c #F2FCFF",
" o c #EFFBFF",
";X c #F5FDFF",
"M. c #9A9B9E",
"]  c #B8BABB",
"z. c #BEBFC1",
",  c #D6D6D8",
"N  c #E8E8E9",
"BX c #58D6F4",
"vo c #6AD9F5",
"ao c #79DEF7",
"zX c #4FD9FA",
"V  c #7B7D81",
" . c #F1F1F0",
"r  c #7E8184",
"!X c #94E4F8",
"m. c #F1F1F2",
"IX c #9DE7FA",
"Fo c #BEEFFB",
"Do c #B5ECFB",
"`  c #84868A",
".. c #FAFAF9",
"PX c #B8F0FE",
"8  c #FAFAFA",
"Ho c #DCF6FD",
"yo c #E5F9FD",
"wo c #E2F8FD",
"rX c #DFF7FD",
"3X c #E2F8FE",
"#  c #FDFEFD",
"QX c #FDFEFE",
"qX c #848C92",
"6X c #8A8E92",
"r. c #8D8F93",
"_  c #909396",
"u  c #96989A",
">X c #84959C",
",. c #9C9DA0",
"A  c #9FA1A3",
"'. c #9FA1A4",
"2  c #ABABAD",
"D. c #AEAFB2",
"l. c #B1B3B4",
"iX c #BDBDC0",
"D  c #C3C5C5",
"(  c #C6C6C8",
"v  c #C9CACB",
"<. c #CCCECF",
"   c None",
"|  c #DBDCDD",
"w. c #E1E1E2",
">  c #E4E5E5",
"EX c #60D7F5",
" X c #EDEBEC",
"RX c #72DDF6",
"8o c #69DAF6",
"+X c #F0ECED",
"Y. c #EDEEEF",
"eo c #8AE2F8",
"g. c #F3F3F4",
"0o c #ABEAFA",
"]. c #F9F8F7",
"'X c #CCF2FC",
"no c #D8F6FD",
"J  c #86888C",
"HX c #E7F8FC",
"$  c #FCFCFC",
"Jo c #F0FBFE",
"_X c #DEF8FF",
"to c #F3FCFE",
"/. c #8F9194",
"k  c #8F9195",
"n  c #95969A",
"`. c #989A9C",
"h  c #9E9FA2",
"5X c #899EA7",
"0X c #8FA6AD",
"[. c #AAACAE",
"&. c #B9BABC",
"M  c #C2C3C4",
"H. c #C5C7C8",
"f. c #CBCCCD",
"c. c #D1D1D2",
"1  c #DDDEDF",
"6o c #38CEF3",
"/X c #44CFF2",
"#o c #56D5F4",
"VX c #53D4F4",
"9X c #D4E7ED",
"jo c #59D6F5",
"bX c #56D5F5",
"Y  c #ECECED",
".X c #F2EEEF",
"-. c #EFF0F0",
"LX c #74DCF7",
"aX c #80E0F8",
"7o c #7DDFF8",
"#X c #7F8184",
"xo c #95E4F8",
"<o c #92E3F8",
"dX c #5FDEFD",
"@o c #98E5F9",
";  c #F5F5F5",
"lo c #9BE6FA",
"C. c #828588",
"MX c #98E8FC",
"So c #C5F1FB",
"Co c #BFEFFB",
"%  c #F8F9F9",
"mX c #A7F0FF",
"cX c #CBF6FF",
"I. c #888A8D",
"eX c #E3F8FD",
"Io c #ECFBFE",
"). c #888A8E",
"ho c #E3F8FE",
"+  c #FEFEFE",
"8X c #E9FAFF",
"|. c #8E8F93",
"e  c #919396",
"=. c #9A9C9F",
"@X c #A3A2A4",
"2. c #A3A5A7",
"P. c #B5B7B9",
"F. c #B8B8BA",
"=X c #BEC0C1",
"7  c #C7C9CA",
"p  c #CACACC",
"Z. c #CDCECF",
"5  c #D3D3D5",
"F  c #D6D7D9",
"W  c #DCDCDD",
"=  c #E5E5E5",
"0. c #E5E5E6",
"uo c #6DDBF5",
"[X c #61D7F5",
"y. c #EEEEEE",
"-o c #70DCF6",
"ko c #6DDBF6",
"+o c #6ADAF6",
"NX c #67D9F6",
"z  c #EEEEEF",
"vX c #52D8F9",
"~X c #70DCF8",
"GX c #AFE5F4",
">o c #88E1F7",
"5o c #91E4F8",
"TX c #8BE2F8",
"pX c #F1F2F3",
".o c #9AE7F9",
"+. c #818387",
"YX c #B5EDFA",
"S. c #818388",
"R  c #F7F7F7",
"Q  c #F7F7F8",
"o  c #FAFBFA",
"*  c #FAFBFB",
"[  c #8A8C8E",
"WX c #EEFAFD",
"R. c #8A8C8F",
"W. c #909194",
"^. c #9C9EA1",
"V. c #A2A3A6",
";. c #A5A7A9",
"/  c #AEB0B1",
"U. c #B4B5B7",
"'  c #BDBEC0",
"t  c #C0C2C4",
"OX c #CCCCCD",
"C  c #CCCCCE",
"j. c #CFD0D1",
"jX c #A5CBD6",
"P  c #D5D5D6",
"f  c #DBDDDC",
"t. c #E1E2E3",
"y  c #E7E7E9",
"1o c #57D5F4",
"%o c #54D4F4",
":o c #66DAF6",
"4X c #CFE8EF",
"B. c #EDECED",
"nX c #45D5F9",
"4  c #F0F0F0",
"^X c #72DEF9",
"&o c #9FE7F8",
"s  c #808184",
"(X c #99E5F8",
"d. c #7D8084",
"i. c #838588",
"2X c #F0F6F7",
"^  c #838589",
"Mo c #C0EFFB",
"Lo c #C3F0FC",
".  c #F9F9FA",
"tX c #E7F9FD",
"L  c #FFFEFE",
"d  c #8C8E91",
"Q. c #929397",
"(. c #959799",
"XX c #9B999C",
"B  c #989B9E",
"s. c #9EA0A3",
"$. c #A7A9AB",
"0  c #ADAEB1",
"A. c #C8C9CA",
"$X c #CECECF",
"q  c #D1D2D4",
"wX c #CBD3D7",
"J. c #D7D7D8",
"o. c #DADBDB",
"fo c #50D4F4",
"j  c #76797C",
"UX c #5FD6F4",
"Xo c #56D6F5",
"ZX c #7ADCF4",
"lX c #56D9FA",
"|X c #98E6F8",
"=o c #92E4F8",
"AX c #D4EEF5",
"CX c #86E3FA",
"Oo c #AAE9F9",
"Go c #B3ECFA",
"#. c #F5F6F6",
"m  c #828688",
"]X c #B0EBFB",
"oX c #85878A",
"Po c #CEF2FC",
")  c #85878B",
"!  c #FBFBFB",
"co c #D1F3FD",
"JX c #D1F6FE",
"KX c #F8FDFE",
"}. c #8B8C8F",
"Ao c #F8FDFF",
"%. c #8B8C90",
"I  c #8E9092",
"b. c #8E9094",
"U  c #97999B",
"9. c #97999C",
"e. c #97999D",
"6  c #A3A6A9",
"3  c #BBBDBE",
"9  c #C1C2C4",
"p. c #CACBCC",
"-  c #D9D9DA",
"8. c #DFDEE0",
"9o c #31CBF2",
"SX c #46D2F5",
"mo c #5ED7F4",
"~. c #EBEBEB",
"$o c #64D9F5",
"5. c #EBEBEC",
"2o c #88E2F7",
"1X c #DFEDF1",
"k. c #818486",
"<  c #F4F4F5",
"Ko c #C7F1FB",
"@  c #F7F8F8",
"Vo c #CDF3FC",
"4o c #C7F1FC",
":. c #87898C",
"{. c #8A8A8D",
"-X c #EEFBFE",
"ro c #E8F9FE",
"x  c #909295",
"7. c #909296",
"*. c #939698",
",X c #8A9398",
"u. c #96979B",
"n. c #999B9E",
"@. c #9FA0A3",
"h. c #A2A4A6",
"L. c #B1B2B5",
"~  c #B4B6B8",
"%X c #BDBFC1",
"N. c #CCCDCE",
"7X c #CCD0D2",
"T. c #DBDBDD",
"X. c #E4E4E4",
"l  c #E4E4E6",
"so c #33CDF3",
"E  c #E7E8E8",
"w  c #E7E8E9",
"xX c #C0E1EB",
"No c #48D1F4",
"T  c #EAE9EA",
"zo c #45D0F4",
"kX c #4ED6F6",
"g  c #EDEDED",
"1. c #EDEDEE",
"b  c #EDEDEF",
";o c #78DEF7",
"}X c #8DE2F7",
"3o c #93E4F8",
"&X c #808286",
"{X c #B1EBF9",
"G. c #838688",
"io c #B7EDFA",
",o c #B7EDFB",
"DX c #C9F3FC",
"&  c #F9FAFA",
"fX c #C6F8FF",
"Zo c #D8F5FD",
"S  c #898B8E",
":  c #FFFFFE",
"bo c #F9FDFF",
"O  c #FFFFFF",
"G  c #8C8F92",
"E. c #929498",
"{  c #A1A2A5",
"q. c #AAABAE",
"<X c #B3B4B6",
"uX c #B9B9BD",
":X c #CBCBCD",
"4. c #CECFCF",
"K  c #CECFD1",
"_. c #CECFD2",
"O. c #D4D4D5",
/* pixels */
"                                                                                                                                                                                                ",
"                                                                                                                                                                                                ",
"                                                                                                                                                                                                ",
"                                                                                                                                                                                                ",
"                                                                                                                                                                                                ",
"                                                                                                                                                                                                ",
"                                                                                                                                                                                                ",
". X o O O O O + @ # O O O O $ % & * = - ; O : > , <                                                                                                                                             ",
"1 2 3 4 O O + 5 6 7 8 O O . 9 0 q w e r t O y u i p                                                                                                                                             ",
"a s d f O O g h j k l O O z x c v b n m M O N B V C                                                                                                                                             ",
"Z A S D O O F G H J K L O P I U Y O T a R O O E W Q                                                                                                                                             ",
"! ~ ^ / O O ( ) _ ` ' & O ] [ { + 8 } |  .O ..X.o.4                                                                                                                                             ",
"O O.+.@.#.X $.%.&.*.=.-.: ;.:.M O >.,.[ <.O 1.2.3.4.                                                                                                                                            ",
"O 5.6.7.8.z e 9.0.q.` w.N e.r.t.O y.u.i.p.O a.s.d.f.                                                                                                                                            ",
"O g.h.:.j.a k.l.+ z.x.c.v.b.n.m.O z M.:.N.O B.V.C.Z.                                                                                                                                            ",
"O $ A.S.D.F.G.H.O J.K.L.P.I.U.$ O Y.M.:.N.O B.V.C.Z.                                                                                                                                            ",
"O O T.R.E.W.Q.!.O ~.^./.(.)._.+ O z M.:.N.O B.V.C.Z.                                                                                                                                            ",
"O O z `.I.:.'.Y.O ].[.{.}.|. XO O .XXXoXOXO +X@X#X$X                                                                                                                                            ",
"O O 8 %X&X*X=XO -X;X:X>X,X<X1X2X3X4X5X6X7X8X9X0XqXwXeXrXtX                                                                                                                                      ",
"O O O yXuXiXpXO aXsXO dXfXgXhXjXkXlXzXxXcXvXbXnXmXMXNXBXVX                                                                                                                                      ",
"                CXZXAXSXDXFXGXHXJXKXLXPXIXUXYXTXRXEXWXQXNX                                                                                                                                      ",
"                !X~X^X/X(X)X_X`X'X]X[X{X}X|XO  o.oXoooOo+o                                                                                                                                      ",
"                @oVX#o$o%o&o*o=o-o;o:o'X>o,oO QX<o1o2o3o4o                                                                                                                                      ",
"                5o6o7o8o9oeX0oqowo]XeoroeotoO youoioO porX                                                                                                                                      ",
"                aosodofogohojokolozoxocovoboO nomo3oMoNoBo                                                                                                                                      ",
"                VoCoO 4oZoAoSoDoFoGoHoJoKoAoO Jo4oLoPoMoIo                                                                                                                                      ",
"                                                                                                                                                                                                ",
"                                                                                                                                                                                                ",
"                                                                                                                                                                                                ",
"                                                                                                                                                                                                ",
"                                                                                                                                                                                                ",
"                                                                                                                                                                                                "
};
