/* XPM */
static const char * Platform_Wii_xpm[] = {
/* columns rows colors chars-per-pixel */
"96 32 283 2",
"~. c #D4D5D6",
"c  c #E3E4E4",
"zX c #E3E4E5",
"%  c #D9D9DA",
"@o c #E8E8E8",
"8  c #D9D9DB",
"sX c #E8E8E9",
"[. c #F7F7F6",
"d. c #F7F7F8",
"6. c #DEDDDF",
"h  c #878A8C",
"m  c #8C8E91",
"xX c #9B9D9F",
"+. c #8C8E92",
"`. c #AAACAE",
"j  c #CDCECF",
"nX c #CDCED0",
"M. c #DCDDDD",
"n. c #DCDDDE",
"t  c #FAFBFB",
"Oo c #FFFFFE",
".  c #FFFFFF",
"'. c #85878A",
"e  c #85878B",
";. c #949699",
"KX c #8A8B8E",
"E  c #A3A5A7",
".o c #C1C3C5",
"}. c #C6C7C8",
"kX c #C6C7C9",
"Xo c #C6C7CA",
"@  c #D5D6D7",
"M  c #E4E5E5",
";  c #DADADB",
"MX c #F3F4F5",
"O  c #E9E9E9",
"Q  c #F8F8F8",
"4  c #F8F8F9",
"WX c #888B8E",
"~X c #7E8084",
"G  c #8D8F92",
"q. c #9C9EA0",
"R  c #8D8F93",
"2. c #929396",
"AX c #A1A2A4",
"4X c #BABCBE",
"J. c #A1A2A5",
"N  c #B0B1B4",
"y  c #BFC0C1",
"oX c #BFC0C2",
"5. c #CECFD0",
"9. c #CECFD1",
"yX c #DDDEDF",
"-. c #DDDEE0",
"d  c #ECEDED",
"ZX c #E2E2E3",
"c. c #F1F1F2",
"UX c #F6F5F6",
"z  c #818488",
"7X c #9FA2A4",
"g  c #86888B",
"/. c #86888C",
"rX c #95979A",
"D  c #A4A6A8",
"h. c #B3B5B6",
"l  c #9A9B9E",
"(X c #C2C4C5",
"S. c #9A9B9F",
"H  c #B8B9BB",
"Q. c #D6D7D7",
"-X c #BDBDBF",
"HX c #BDBDC0",
"). c #E5E6E6",
"v  c #D6D7D9",
"0. c #EAEAEA",
"=. c #DBDBDD",
"G. c #EAEAEB",
"FX c #F9F9F9",
"GX c #F9F9FA",
"*X c #898C8F",
"VX c #8E9092",
"~  c #8E9093",
"w. c #8E9094",
"+X c #9D9FA2",
"F. c #ACAEB1",
"}  c #A2A3A6",
"pX c #CACCCD",
"3X c #B1B2B4",
"CX c #C0C1C2",
"0  c #D9DBDB",
"#. c #C0C1C3",
"1  c #CFD0D0",
"b. c #DEDFDF",
"cX c #C5C5C7",
"N. c #DEDFE0",
"B. c #EDEEEE",
"tX c #E3E3E3",
"k  c #E3E3E4",
"a  c #D4D4D7",
"9  c #F2F2F3",
"&. c #919497",
"^  c #87898C",
"n  c #87898D",
"Z  c #96989B",
"mX c #A5A7A9",
"a. c #8C8D90",
"RX c #9B9C9E",
"2X c #A5A7AA",
"s. c #9B9C9F",
"+  c #C3C5C6",
"bX c #AAABAE",
"X. c #B9BABC",
"i. c #C8C9CA",
"-  c #D7D8D9",
"2  c #CDCDCE",
"QX c #CDCDCF",
"BX c #E6E7E8",
"E. c #EBEBEB",
"#  c #FAFAFA",
"H. c #FFFEFE",
"P  c #808286",
"C  c #8F9194",
"@. c #8F9195",
"[  c #9EA0A2",
"^X c #ADAFB1",
"x. c #ADAFB2",
"*. c #949599",
"YX c #BCBEC0",
"1X c #A3A4A7",
"I. c #B2B3B5",
"+o c #C1C2C3",
"p. c #D0D1D2",
"iX c #D0D1D3",
"<. c #DFE0E1",
"   c None",
"IX c #EEEFEF",
".X c #E4E4E4",
"$. c #FDFEFD",
"gX c #F3F3F3",
"wX c #F3F3F4",
"0X c #929597",
"u. c #83868A",
"dX c #929598",
"u  c #888A8D",
"t. c #888A8E",
"R. c #C4C6C6",
"=X c #C4C6C7",
"z. c #B5B7BA",
"_X c #C9CACB",
":  c #D8D9D9",
"r. c #C9CACD",
"7  c #D8D9DA",
"m. c #E7E8E8",
"{  c #ECECEC",
"@X c #FBFBFA",
"<  c #ECECED",
"f. c #FBFBFB",
",. c #8B8E91",
"]. c #818386",
"B  c #818387",
"T  c #909295",
"y. c #909296",
".. c #9FA1A3",
"EX c #86878B",
";X c #AEB0B1",
"j. c #AEB0B2",
"hX c #B3B4B6",
"&X c #B3B4B7",
"|. c #C2C3C5",
"oo c #C2C3C6",
"V. c #D1D2D3",
"8. c #E0E1E1",
"PX c #C7C7C9",
"LX c #E0E1E2",
"A. c #E5E5E6",
"=  c #F4F4F4",
":X c #F4F4F5",
"XX c #84878A",
"A  c #898B8E",
"eX c #989A9D",
"NX c #A7A9AB",
"9X c #B6B8B9",
"J  c #B6B8BA",
"P. c #ACADB0",
"6  c #D9DADA",
"5  c #D9DADB",
"3. c #D9DADC",
"1. c #E8E9E9",
"L. c #CFCFD1",
"U  c #F7F8F8",
"3  c #EDEDEE",
"]X c #EDEDEF",
"$  c #FCFCFC",
"uX c #8C8F91",
"]  c #8C8F92",
"_. c #828487",
"K  c #919395",
"w  c #828488",
"|  c #919396",
"jX c #919397",
"Y  c #B4B5B7",
"'  c #C3C4C5",
"!  c #B4B5B8",
"&  c #C3C4C6",
"W. c #E1E2E2",
"aX c #E1E2E3",
"SX c #D7D7D8",
"*  c #E6E6E6",
"`  c #F5F5F5",
"l. c #F5F5F6",
"k. c #85888B",
"/X c #7B7D81",
"6X c #8A8C8E",
"f  c #8A8C8F",
" X c #8A8C90",
"(  c #999B9E",
"_  c #A8AAAC",
"q  c #8F9093",
"JX c #9E9FA2",
">X c #ADAEB0",
"%. c #C6C8C9",
"$X c #ADAEB1",
")X c #BCBDBF",
"[X c #BCBDC0",
"vX c #CBCCCE",
">  c #DADBDC",
"5X c #DFDFDF",
"#X c #D0D0D2",
"%X c #F8F9F9",
"o. c #DFDFE0",
"4. c #EEEEEE",
"qX c #EEEEEF",
"o  c #FDFDFD",
"s  c #FDFDFE",
"i  c #838588",
"TX c #838589",
"L  c #929496",
"/  c #929497",
"DX c #929498",
"C. c #A1A3A5",
",X c #A1A3A6",
"U. c #88898D",
"x  c #97989A",
"fX c #97989C",
"D. c #B0B2B5",
"I  c #B5B6B8",
"}X c #D3D4D5",
"`X c #D3D4D6",
"K. c #C9C9CB",
"(. c #D8D8D9",
" o c #E7E7E8",
"Z. c #F6F6F6",
")  c #86898C",
"!X c #7C7E83",
"p  c #8B8D90",
"!. c #8B8D91",
" . c #9A9C9F",
"r  c #B8BABB",
"OX c #C7C9C9",
"{X c #AEAFB1",
"e. c #C7C9CA",
"v. c #DBDCDC",
">. c #DBDCDD",
"'X c #EAEBEC",
":. c #E0E0E0",
"|X c #F9FAFA",
"<X c #EFEFF0",
"7. c #FEFEFD",
"X  c #FEFEFE",
"W  c #FEFEFF",
",  c #F4F3F3",
"Y. c #8E9193",
"^. c #8E9194",
"T. c #848688",
"S  c #848689",
"b  c #84868A",
"V  c #939598",
"{. c #A2A4A6",
"O. c #98999D",
"F  c #A7A8AA",
"g. c #B6B7B8",
"8X c #B6B7B9",
"lX c #C5C6C7",
/* pixels */
"                                                                                                                                                                                                ",
"                                                                                                                                                                                                ",
"                                                                                                                                                                                                ",
"                                                                                                                                                                                                ",
". . . . . . . . . . . . . . . . . . . . . . . . . . . . . . . . . X X . . . . . . X X X . . . . . .                                                                                             ",
"X X X X X . . . . . . . . . o o . . . . . . . . . X X X X X . . O + @ # . . . . $ % & * o . . . . .                                                                                             ",
"= - ; : > , . . . . . . . < 1 2 3 . . . . . . . 4 5 6 7 8 9 . 0 q w e r t . . . y u i p a s . . . .                                                                                             ",
"d f g e h j . . . . . . k l z z x c . . . . . . v b n e m M # N B V f C - . . k Z A V S D = . . . .                                                                                             ",
"$ F p C G H . . . . . s J b K L P I U . . . . . Y p T R E W Q ! B ~ ^ / > . . M ( ) ~ b _ ` . . . .                                                                                             ",
"o ' ^ T ] [ ` . . . . { } ) | | A  .d . . . . $ ..~ C G X.. . o.O.+.@.#.$.. . . %.&.G *.=.X . . . .                                                                                             ",
"X -.f T G ;.:.. . . . >.&.p T T ~ ,.<.. . . . 1.2.C C T 3.. . . 4.5.6.$ . . . . 7.8.9.0.X . . . . .                                                                                             ",
". ` q.m ~ w.e.. . . . r.t.C ~ C y.u.i.$ . . . p.a.T C s.d.. . . . . . . . . . . . . . . . . . . . .                                                                                             ",
". f.g.n T m h.. . . ` j.k.@.V / T e N l.. . . z.m T G x.. . . c.v.b.n.m.o . . . O M.N.v.B.X . . . .                                                                                             ",
". o V.^ T m C.Z.. . A.S.t.f D.F.C f ;.G.. . H.J.~ C m K.. . X L.S ~ g P.4 . . X I.U.Y.T.R.f.. . . .                                                                                             ",
". . E.C ~ m Z W.. . Q.] !.u ~.5.^.] /.(.. . ).2.C C T A.. . X 5._.m S `.4 . . X N '.m ].& f.. . . .                                                                                             ",
". . [.{.f ~ w.}.. . |.'. XK .XA.Z !.XXoX# . OX!.C ~ +X@X. . X #Xg T u $X%X. . X &X*XT '.=Xf.. . . .                                                                                             ",
". . f.-Xg T  X;X. :X>Xg n ,X<XU 1Xf ^ 2X:X. 3X+.@.p 4X. . . X #Xg T u $X%X. . X &X*XT '.=Xf.. . . .                                                                                             ",
". . . 5X6XC p 7XZ.G.( u g 8Xf.. 9Xp a.0XqXs +XG T m > . . . X #Xg T u $X%X. . X &X*XT '.=Xf.. . . .                                                                                             ",
". . . wXeXp m rXtXyXf f uXiX. . pXC +.g aXsXdXC w.fXgX. . . X #Xg T u $X%X. . X &X*XT '.=Xf.. . . .                                                                                             ",
". . . Q hXg ~ jXkXlX'.A ( zX. . sXxX!.g cXvXC C m bX. . . . X #Xg T u $X%X. . X &X*XT '.=Xf.. . . .                                                                                             ",
". . . o nXe @.T mX2Xf ^ P.MX. . X `.p f } NX@.T f %.. . . . X #Xg T u $X%X. . X &X*XT '.=Xf.. . . .                                                                                             ",
". . . . BXVX~ T T | C n #.. . . . CXR ~ T K T @.R ZX. . . . X #Xg T u $X%X. . X &X*XT '.=Xf.. . . .                                                                                             ",
". . . . gXAXA | T T m T @ . . . . SXDX+.C C T ~  .FX. . . . X #Xg T u $X%X. . X &X*XT '.=Xf.. . . .                                                                                             ",
". . . . GXHXi | T | u +Xm.. . . . c.JX!.T T T A I X . . . . X #Xg T u $X%X. . X &X*XT '.=Xf.. . . .                                                                                             ",
". . . . . yX6Xm T T e Y o . . . . . I.*X^.T C KXLX. . . . . X #Xg T u $X%X. . X &X*XT '.PXZ.IXUXd..                                                                                             ",
". . . . . FXYXw u TXRXM . . . . . . m.xXEXWX'.H $ . . . . . X QX!Xn ~XF 4 . . W ^XP n /X(XQ b.)X_Xo                                                                                             ",
". . . . . . %X`XF.YX'X. . . . . . . . ]X[X{X}X|X. . . . . . W  o.oXooo@ $ . . Oo7 & Xo+oZXX ` zX@oX                                                                                             ",
". . . . . . . X $ o . . . . . . . . . . o $ X . . . . . . . . . o o o X . . . . X o o o X . . X X .                                                                                             ",
"                                                                                                                                                                                                ",
"                                                                                                                                                                                                ",
"                                                                                                                                                                                                ",
"                                                                                                                                                                                                "
};
