/* XPM */
static const char * Platform_Gamecube_xpm[] = {
"96 32 204 2",
"  	c None",
". 	c #FFFFFF",
"+ 	c #FCFCFC",
"@ 	c #C9C8C8",
"# 	c #CFCECF",
"$ 	c #FDFDFD",
"% 	c #EEEEEE",
"& 	c #B0AEAF",
"* 	c #3D3A3A",
"= 	c #413E3F",
"- 	c #BAB9B9",
"; 	c #F2F2F2",
"> 	c #F9F8F8",
", 	c #C7C7C7",
"' 	c #534F50",
") 	c #252021",
"! 	c #2A2627",
"~ 	c #242021",
"{ 	c #5C5959",
"] 	c #CECDCD",
"^ 	c #FBFBFB",
"/ 	c #D8D8D8",
"( 	c #828080",
"_ 	c #292526",
": 	c #2D282A",
"< 	c #2C2829",
"[ 	c #252122",
"} 	c #8A8888",
"| 	c #E0DFDF",
"1 	c #E5E4E4",
"2 	c #9B9999",
"3 	c #302C2D",
"4 	c #221E1E",
"5 	c #282425",
"6 	c #2A2527",
"7 	c #7C7A7A",
"8 	c #EDEDED",
"9 	c #E8E7E7",
"0 	c #716E6F",
"a 	c #221E1F",
"b 	c #343031",
"c 	c #868383",
"d 	c #D6D5D6",
"e 	c #262122",
"f 	c #1F1A1B",
"g 	c #595656",
"h 	c #C4C3C4",
"i 	c #535051",
"j 	c #221D1F",
"k 	c #1D181A",
"l 	c #393535",
"m 	c #F5F5F5",
"n 	c #F0F0F0",
"o 	c #ADACAC",
"p 	c #2E2A2B",
"q 	c #302C2C",
"r 	c #B1AFAF",
"s 	c #F2F1F1",
"t 	c #A6A4A5",
"u 	c #AEACAC",
"v 	c #B3B2B2",
"w 	c #A6A5A5",
"x 	c #EBEBEB",
"y 	c #F3F2F2",
"z 	c #F0F0EF",
"A 	c #C8C7C7",
"B 	c #706D6E",
"C 	c #EAEAEA",
"D 	c #E1E1E1",
"E 	c #C2C1C2",
"F 	c #615D5E",
"G 	c #676465",
"H 	c #CBCACA",
"I 	c #FEFEFE",
"J 	c #D5D5D5",
"K 	c #575455",
"L 	c #D1D1D1",
"M 	c #C5C4C4",
"N 	c #1C1819",
"O 	c #322E2F",
"P 	c #9D9B9C",
"Q 	c #211D1F",
"R 	c #201C1D",
"S 	c #332E2F",
"T 	c #241F20",
"U 	c #B0AFAF",
"V 	c #E9E8E8",
"W 	c #8E8B8C",
"X 	c #312C2D",
"Y 	c #1B1617",
"Z 	c #D5D4D5",
"` 	c #C7C6C6",
" .	c #231F20",
"..	c #B5B3B3",
"+.	c #DFDEDF",
"@.	c #EEEDED",
"#.	c #C3C2C2",
"$.	c #545050",
"%.	c #5A5758",
"&.	c #C7C5C6",
"*.	c #F4F4F4",
"=.	c #B4B2B2",
"-.	c #3E3B3D",
";.	c #262123",
">.	c #312D2E",
",.	c #D6D5D5",
"'.	c #262223",
").	c #B9B8B8",
"!.	c #7F7C7D",
"~.	c #DCDBDB",
"{.	c #ECECEC",
"].	c #9B999A",
"^.	c #A2A1A1",
"/.	c #D4D3D4",
"(.	c #636161",
"_.	c #221D1E",
":.	c #939192",
"<.	c #191516",
"[.	c #322F2F",
"}.	c #817F7F",
"|.	c #FAFAFA",
"1.	c #F7F7F7",
"2.	c #777475",
"3.	c #2F2B2C",
"4.	c #3F3C3D",
"5.	c #4D494A",
"6.	c #929091",
"7.	c #241F21",
"8.	c #1A1617",
"9.	c #C3C3C3",
"0.	c #B8B6B6",
"a.	c #1C1719",
"b.	c #2B2728",
"c.	c #656364",
"d.	c #EFEFEF",
"e.	c #8C898A",
"f.	c #1A1517",
"g.	c #231E1F",
"h.	c #999898",
"i.	c #8F8E8E",
"j.	c #191416",
"k.	c #BEBCBC",
"l.	c #252121",
"m.	c #BCBBBB",
"n.	c #E3E3E3",
"o.	c #635F60",
"p.	c #272324",
"q.	c #191415",
"r.	c #999899",
"s.	c #8F8C8D",
"t.	c #6E6C6C",
"u.	c #F3F3F3",
"v.	c #2D292A",
"w.	c #646263",
"x.	c #E4E3E3",
"y.	c #C2C1C1",
"z.	c #4B4849",
"A.	c #9E9E9E",
"B.	c #979596",
"C.	c #CDCCCD",
"D.	c #E6E5E6",
"E.	c #787676",
"F.	c #D3D3D3",
"G.	c #CAC9CA",
"H.	c #171214",
"I.	c #ADACAD",
"J.	c #F1F0F0",
"K.	c #B1B0B0",
"L.	c #FAF9FA",
"M.	c #BEBDBE",
"N.	c #3B3738",
"O.	c #211D1E",
"P.	c #504C4D",
"Q.	c #C4C2C3",
"R.	c #BAB8B9",
"S.	c #4C4849",
"T.	c #423F40",
"U.	c #E8E8E8",
"V.	c #9C9A9B",
"W.	c #292426",
"X.	c #6A6768",
"Y.	c #F2F1F2",
"Z.	c #EFEEEE",
"`.	c #605D5E",
" +	c #2A2626",
".+	c #373435",
"++	c #A8A6A7",
"@+	c #DBDADB",
"#+	c #848282",
"$+	c #2A2526",
"%+	c #1B1718",
"&+	c #898686",
"*+	c #F9F9F9",
"=+	c #C9C8C9",
"-+	c #575354",
";+	c #151012",
">+	c #979595",
",+	c #8B8989",
"'+	c #151112",
")+	c #615E5F",
"!+	c #D1D0D1",
"~+	c #F1F1F1",
"{+	c #A2A0A1",
"]+	c #B2B1B1",
". . . . . . . . . . . . . . . . . . . . . . . . . . . . . . . . . . . . . . . . . . . . . . . . . . . . . . . . . . . . . . . . . . . . . . . . . . . . . . . . . . . . . . . . . . . . . . . . ",
". . . . . . . . . . . . . . . . . . . . . . . . . . . . . . . . . . . . . . . . . . . . . . . . . . . . . . . . . . . . . . . . . . . . . . . . . . . . . . . . . . . . . . . . . . . . . . . . ",
". . . . . . . . . . . . . . . . . . . . . . . . . . . . . . . . . . . . . . . . . . . . . . . . . . . . . . . . . . . . . . . . . . . . . . . . . . . . . . . . . . . . . . . . . . . . . . . . ",
". . . . . . . . . . . . . . . . . . . . . . . . . . . . . . . . . . . . . . . . . . . . . . . . . . . . . . . . . . . . . . . . . . . . . . . . . . . . . . . . . . . . . . . . . . . . . . . . ",
". . . . . . . . . . . . . . . . . . . . . . . . . . . . . . . . . . . . . . . . . . . . . . . . . . . . . . . . . . . . . . . . . . . . . . . . . . . . . . . . . . . . . . . . . . . . . . . . ",
". . . . . . . . . . . . . . . + @ # $ . . . . . . . . . . . . . . . . . . . . . . . . . . . . . . . . . . . . . . . . . . . . . . . . . . . . . . . . . . . . . . . . . . . . . . . . . . . . . ",
". . . . . . . . . . . . . . % & * = - ; . . . . . . . . . . . . . . . . . . . . . . . . . . . . . . . . . . . . . . . . . . . . . . . . . . . . . . . . . . . . . . . . . . . . . . . . . . . . ",
". . . . . . . . . . . . > , ' ) ! ! ~ { ] ^ . . . . . . . . . . . . . . . . . . . . . . . . . . . . . . . . . . . . . . . . . . . . . . . . . . . . . . . . . . . . . . . . . . . . . . . . . . ",
". . . . . . . . . . . / ( ~ ! _ : < ! _ [ } | . . . . . . . . . . . . . . . . . . . . . . . . . . . . . . . . . . . . . . . . . . . . . . . . . . . . . . . . . . . . . . . . . . . . . . . . . ",
". . . . . . . . + 1 2 3 4 5 6 7 8 9 0 _ 5 a b c ; . . . . . . . . . . . . . . . . . . . . . . . . . . . . . . . . . . . . . . . . . . . . . . . . . . . . . . . . . . . . . . . . . . . . . . . ",
". . . . . . . . d e f 5 a g ] . . . $ h i j k l - . . . . . . . . . . . . . . . . . . . . . . . . . . . . . . . . . . . . . . . . . . . . . . . . . . . . . . . . . . . . . . . . . . . . . . . ",
". . . . . . . m n o p q r m . s t u m . m v w x . y z . . . . . . . . . . . . . . . . . . . . . . . . . . . . . . . . . . . . . . . . . . . . . . . . . . . . . . . . . . . . . . . . . . . . . ",
". . . . . . . A B % C D . . E F j 4 G H I . . . J K L . . . . . . . . . . . . . . . . . . . . . . . . . . . . . . . . . . . . . . . . . . . . . . . . . . . . . . . . . . . . . . . . . . . . . ",
". . . . . . . M N O J . I P Q R S O f T U . V W X Y Z . . . . . . . . . . . . . . . . . . . . . . . . . . . . . . . . . . . . . . . . . . . . . . . . . . . . . . . . . . . . . . . . . . . . . ",
". . . . . . . `  . .... +.@.#.$.4 a %.&.*.=.-.;.>.~ ,.. . . . . . . . . . . . . . . . . . . . . . . . . . . . . . . . . . . . . . . . . . . . . . . . . . . . . . . . . . . . . . . . . . . . . ",
". . . . . . . `  .'.).I !.K ~.{.].^.{./.(._.! p O ~ ,.. . . . . . . . . . . . . . . . . . . . . . . . . . . . . . . . . . . . . . . . . . . . . . . . . . . . . . . . . . . . . . . . . . . . . ",
". . . . . . . `  .'.).. :.<.[.}.|.1.2.3._ _ 4.5.3 ~ ,.. . . . . . . . . . . . . . . . . . . . . . . . . . . . . . . . . . . . . . . . . . . . . . . . . . . . . . . . . . . . . . . . . . . . . ",
". . . . . . . `  .'.).. 6.7.3 8.9.0.a.>.b.c.d.` e [ ,.. . . . . . . . . . . . . . . . . . . . . . . . . . . . . . . . . . . . . . . . . . . . . . . . . . . . . . . . . . . . . . . . . . . . . ",
". . . . . . . `  .'.- . e.f.O g.h.i.T >.j.).. k.'.[ ,.. . . . . . . . . . . . . . . . . . . . . . . . . . . . . . . . . . . . . . . . . . . . . . . . . . . . . . . . . . . . . . . . . . . . . ",
". . . . . . . `  .l.m.. n.o.p.q.r.s.q.5 t.u.. #.) [ ,.. . . . . . . . . . . . . . . . . . . . . . . . . . . . . . . . . . . . . . . . . . . . . . . . . . . . . . . . . . . . . . . . . . . . . ",
". . . . . . . #.j v.w.x.. . y.z.A.B.i C.. . D.E.< T F.. . . . . . . . . . . . . . . . . . . . . . . . . . . . . . . . . . . . . . . . . . . . . . . . . . . . . . . . . . . . . . . . . . . . . ",
". . . . . . . G.H.3 p.3 I.n . x J.C d.. 8 K.>.5 p <./ . . . . . . . . . . . . . . . . . . . . . . . . . . . . . . . . . . . . . . . . . . . . . . . . . . . . . . . . . . . . . . . . . . . . . ",
". . . . . . . L.M.N. .p.O.P.Q.$ . . |.R.S._.5  .T.A ^ . . . . . . . . . . . . . . . . . . . . . . . . . . . . . . . . . . . . . . . . . . . . . . . . . . . . . . . . . . . . . . . . . . . . . ",
". . . . . . . . . U.V.O a W._ X.Y.Z.`. +5 _..+++8 . . . . . . . . . . . . . . . . . . . . . . . . . . . . . . . . . . . . . . . . . . . . . . . . . . . . . . . . . . . . . . . . . . . . . . . ",
". . . . . . . . . . . @+#+~ $+%+:.&+N _ [ e.D . . . . . . . . . . . . . . . . . . . . . . . . . . . . . . . . . . . . . . . . . . . . . . . . . . . . . . . . . . . . . . . . . . . . . . . . . ",
". . . . . . . . . . . . *+=+-+;+>+,+'+)+!+^ . . . . . . . . . . . . . . . . . . . . . . . . . . . . . . . . . . . . . . . . . . . . . . . . . . . . . . . . . . . . . . . . . . . . . . . . . . ",
". . . . . . . . . . . . . . ~+t ++{+]+*.. . . . . . . . . . . . . . . . . . . . . . . . . . . . . . . . . . . . . . . . . . . . . . . . . . . . . . . . . . . . . . . . . . . . . . . . . . . . ",
". . . . . . . . . . . . . . . . . . . . . . . . . . . . . . . . . . . . . . . . . . . . . . . . . . . . . . . . . . . . . . . . . . . . . . . . . . . . . . . . . . . . . . . . . . . . . . . . ",
". . . . . . . . . . . . . . . . . . . . . . . . . . . . . . . . . . . . . . . . . . . . . . . . . . . . . . . . . . . . . . . . . . . . . . . . . . . . . . . . . . . . . . . . . . . . . . . . ",
". . . . . . . . . . . . . . . . . . . . . . . . . . . . . . . . . . . . . . . . . . . . . . . . . . . . . . . . . . . . . . . . . . . . . . . . . . . . . . . . . . . . . . . . . . . . . . . . ",
". . . . . . . . . . . . . . . . . . . . . . . . . . . . . . . . . . . . . . . . . . . . . . . . . . . . . . . . . . . . . . . . . . . . . . . . . . . . . . . . . . . . . . . . . . . . . . . . ",
". . . . . . . . . . . . . . . . . . . . . . . . . . . . . . . . . . . . . . . . . . . . . . . . . . . . . . . . . . . . . . . . . . . . . . . . . . . . . . . . . . . . . . . . . . . . . . . . "};
