/* XPM */
static const char *const Platform_Gamecube_xpm[] = {
/* columns rows colors chars-per-pixel */
"96 32 354 2",
"!X c #E3E2E2",
"=  c #E3E2E3",
"JX c #0C0708",
"+  c #E6E6E6",
"yo c #7F7D7D",
"eX c #ECEBEC",
"-  c #EFEFEF",
"c. c #828181",
"d. c #181415",
"c  c #F5F4F5",
"Lo c #1E191A",
">. c #F8F8F8",
"eo c #1E191C",
"}. c #211D1E",
"E. c #272224",
"|X c #949393",
"5. c #9A9898",
"{  c #9A9899",
".o c #9D9C9C",
"3  c #332F30",
"/. c #A3A1A1",
"J. c #A3A1A2",
"/X c #3C3839",
"`X c #424040",
"`. c #454142",
"%o c #484545",
"io c #B5B3B4",
"Wo c #B8B7B7",
"FX c #514E4E",
"pX c #514E4F",
"M. c #C1C0C0",
"kX c #575355",
"jo c #C7C5C5",
"'X c #5A5757",
"So c #C7C5C6",
"2X c #CAC9C9",
";X c #CAC9CA",
" X c #D6D6D6",
"g. c #6C696A",
"U  c #757273",
"&o c #E5E4E4",
">  c #E5E4E5",
"0. c #787677",
"-X c #E8E8E8",
"%X c #817F7F",
"mo c #1A1617",
"7o c #F4F5F4",
"-o c #878485",
"^  c #1D1A1B",
";. c #201B1C",
"'. c #201B1D",
"@  c #FAFAFA",
"Mo c #8D8C8C",
"6. c #231F20",
"no c #939192",
"y. c #262324",
"Q. c #999998",
"y  c #2C2829",
"V. c #9F9E9E",
"x. c #322D2F",
"Io c #ABA8A9",
"OX c #3E3A3B",
"F. c #3E3A3C",
"xo c #413E3E",
"r. c #B1B0B0",
"^X c #474344",
"Ro c #B7B5B5",
"r  c #BAB9B9",
"lX c #504C4C",
"d  c #595556",
"-. c #C9C7C8",
"v  c #5C595A",
"4X c #CCCBCB",
"3X c #CCCBCC",
"nX c #656262",
"Jo c #6E6B6C",
"   c None",
"o. c #716F6F",
"bX c #DEDDDD",
"9o c #E7E6E6",
"j  c #7A7879",
"%  c #EAEAEA",
"l  c #838182",
"T. c #868584",
"p. c #191415",
"7X c #F3F3F3",
"4. c #868585",
"&X c #191416",
"qo c #898686",
";o c #898687",
"<o c #221D1E",
"*  c #FCFCFC",
"[X c #221D1F",
"Uo c #252122",
"H  c #959393",
"to c #959394",
"j. c #989797",
"4o c #2B2628",
"5  c #2E2A2B",
":o c #312E2E",
"`  c #9E9C9D",
">o c #312E2F",
"i  c #A1A0A0",
"2  c #373334",
"6  c #3A3738",
"zo c #A7A5A6",
"Q  c #AAA9A9",
"(. c #AAA9AA",
"P. c #434041",
"tX c #B3B2B2",
"Go c #B9B7B8",
"hX c #4C494A",
"iX c #524E50",
":. c #555253",
"{. c #5B5758",
"yX c #5E5B5C",
",X c #CECDCD",
"%. c #CECDCE",
"U. c #676464",
"R  c #D7D6D6",
"E  c #D7D6D7",
"=X c #DADADA",
"!. c #706D6D",
"$o c #DADADB",
"m  c #737172",
":  c #E3E3E2",
"~X c #E3E3E3",
"I. c #E6E7E6",
"+X c #E9E8E9",
"6X c #ECECEC",
"b  c #151112",
"qX c #F2F1F1",
"I  c #1B1617",
"X  c #F5F5F5",
"{X c #888486",
"+. c #1E1A1B",
"J  c #8E8C8D",
"M  c #FEFEFE",
"$X c #241F21",
"]. c #272324",
"v. c #9A9999",
"lo c #302C2D",
"a  c #333031",
"9  c #393536",
"D. c #A9A7A7",
"Oo c #3C3939",
"O. c #A9A7A8",
"Z. c #ACABAB",
"h. c #423E3F",
"wo c #B2B0B0",
"0  c #454243",
"uo c #B5B4B4",
"xX c #4E4B4C",
"|  c #BEBDBD",
"[. c #545051",
"/  c #C4C2C3",
"1X c #D0CFCF",
"No c #D3D3D3",
"z. c #696666",
"#o c #D9D8D8",
" . c #DCDCDC",
"UX c #726F70",
"O  c #E5E5E5",
"m. c #EBEAEA",
"'  c #7E7C7C",
"Ho c #EEEEEE",
".X c #848182",
"Z  c #171314",
"N. c #1D1819",
"}X c #8A8688",
"5o c #1D181A",
")X c #F7F7F7",
"ro c #8D8A8B",
"Y. c #201C1D",
"LX c #908E8E",
"k. c #232021",
"7. c #292526",
"G  c #999797",
"G. c #322E2F",
"fX c #A2A0A0",
"1. c #353233",
"f. c #A5A4A4",
"C  c #3B3738",
"a. c #ABA9AA",
"e. c #AEADAD",
"sX c #B7B6B6",
"NX c #4D494A",
"zX c #504D4D",
"Do c #C0BFBF",
"6o c #565252",
".. c #C0BFC0",
"Zo c #565253",
"f  c #C3C3C3",
"mX c #595656",
"}  c #C6C4C5",
"F  c #625F60",
"K. c #D5D5D5",
"(X c #DBDADA",
"PX c #747172",
"<X c #E7E7E7",
"z  c #807E7E",
"=. c #EDECEC",
"8X c #EDECED",
"wX c #F0F0F0",
"g  c #191516",
"b. c #898788",
"XX c #1F1A1B",
"0X c #F9F9F9",
"8. c #221E1F",
"#  c #FFFEFE",
"@. c #282324",
"s  c #2B2728",
"L  c #9B999A",
"Yo c #312C2D",
"4  c #343031",
"*. c #343032",
"$. c #373435",
"^. c #A7A6A6",
"~. c #ADABAC",
"*X c #403D3E",
"go c #B6B4B4",
"+o c #B6B4B5",
"B. c #524F50",
"Eo c #C2C1C1",
"AX c #585455",
"BX c #5B5859",
":X c #CBCACA",
">X c #CBCACB",
"(  c #646161",
"3. c #D1CFD0",
"7  c #D4D3D3",
"u. c #D4D3D4",
"q  c #D7D7D7",
"w  c #6D6A6A",
"s. c #6D6A6B",
"VX c #E0E0E0",
"w. c #767374",
"l. c #797777",
"ko c #E6E5E5",
",  c #E9E9E9",
"D  c #120E0F",
"KX c #828080",
"W. c #828081",
";  c #F2F2F2",
"X. c #1B1718",
"x  c #888586",
"Ko c #211C1D",
"<  c #FBFBFB",
"H. c #918E8E",
")  c #242021",
"<. c #2D292A",
",o c #302D2E",
"do c #332E30",
"Co c #A6A4A5",
"co c #A9A8A7",
"L. c #3F3B3C",
"]X c #AFADAD",
"GX c #AFADAE",
"Fo c #B2B1B1",
"8o c #484445",
"To c #B8B6B6",
"*o c #B8B6B7",
"so c #BBBABA",
"MX c #514D4E",
"oo c #5A5656",
"~  c #635F60",
"QX c #666363",
"vo c #666364",
"Y  c #D6D5D5",
"n. c #DFDEDE",
"Xo c #E8E7E7",
"B  c #110C0E",
"5X c #EBEBEB",
"K  c #817E7E",
"9. c #141011",
"9X c #F1F0F0",
"A  c #848282",
"bo c #848283",
"W  c #F4F4F4",
" o c #1D191A",
"Po c #231E1F",
"&  c #FDFDFD",
"u  c #908F8F",
"]  c #262223",
"i. c #939092",
"S  c #969495",
"Vo c #2C2728",
"YX c #2F2B2C",
"S. c #322F30",
"C. c #A2A1A1",
"3o c #383435",
"t  c #A5A2A3",
"h  c #413D3E",
"po c #B4B3B3",
"ao c #4A4647",
"TX c #B7B4B6",
"A. c #4D4A4B",
"Qo c #BDBCBC",
"DX c #504E4E",
"uX c #534F50",
"Ao c #C3C1C1",
"cX c #565353",
"SX c #565354",
"aX c #5C5859",
"gX c #C9C9C9",
"@o c #5F5C5D",
"1  c #626060",
"@X c #CFCECE",
",. c #686565",
"EX c #686566",
"T  c #D8D7D7",
"IX c #716E6E",
"1o c #716E6F",
"0o c #747272",
"_. c #E1E0E1",
"!  c #747273",
"o  c #E4E4E4",
"$  c #EAE9E9",
"k  c #7D7B7B",
"2. c #EDEDEC",
"n  c #161213",
"). c #F0F1F1",
"=o c #1C1718",
"_X c #F6F6F6",
"[  c #898888",
"_  c #1F1B1C",
"CX c #1F1B1D",
"rX c #FCFBFB",
"|. c #221F20",
"oX c #252022",
".  c #FFFFFF",
"#X c #282425",
"#. c #2E292A",
"RX c #2E292B",
"e  c #312D2E",
"vX c #A4A3A3",
"p  c #3A3637",
"&. c #3D3A3A",
"ho c #B3B1B1",
"HX c #B6B5B5",
"t. c #4C4849",
"dX c #4F4C4C",
"ZX c #4F4C4D",
"P  c #BFBEBE",
"V  c #525050",
"q. c #BFBEBF",
"fo c #555152",
"jX c #585555",
"8  c #C5C3C4",
"N  c #5E5A5B",
"Bo c #D1D0D0",
"2o c #D4D4D4",
"WX c #6A6767",
"R. c #D7D5D6",
/* pixels */
"                                                                                                                                                                                                ",
"                                                                                                                                                                                                ",
"                                                                                                                                                                                                ",
"                                                                                                                                                                                                ",
". . . . . . . . . . . . . . . . . . . . . . . . . . . . . . . . . . . . . . . . . . . . . . . . . .                                                                                             ",
". . . . . . . . . . . . . . . . . . . . . . . . . . . . . . . . . . . . . . . . . . . . . . . . . .                                                                                             ",
". . . . . . . . . . . . . . . . . . . . . . . . . . . . . . . . . . . . . . . . . . . . . . . . . .                                                                                             ",
". X o O O O O O + @ . . # O $ . . . % O & . . . . * = - ; : O O O O > , < . . . . . . . . . . . . .                                                                                             ",
"% 1 2 3 4 4 4 5 6 7 . . 8 9 0 q . * w e r . . . . t y u i 4 p 3 3 a s d + . . . . . . . . . . . . .                                                                                             ",
"f g h j k l l z x > . c v b n m . M N B V - . . > C Z A S D F G H J K L ; . . . . . . . . . . . . .                                                                                             ",
"P I U . ; Y T R E W . Q g ! ~ ^ / . ( ) _ ` . . ' _ ] [ { g ' } |  .. . . . . . . . . . . . . . . .                                                                                             ",
"..X.o.. O.+.@.#.$.%.; &.*.=.-.;.:.>.,.<.1.9 2.3.#.C s 4.5.6.7.8.9.0.. . . . . . . . . . . . . . . .                                                                                             ",
"q.I w.. O e.r.t.y.u.i.p.a.. . s.d.f.g.h.j.k.l.z.y ` x.c.v.d.b.n.7 m.. . . . . . . . . . . . . . . .                                                                                             ",
"M.N.B.V.C.Z.a.A.S.D.F.G.H.J.; K.<.L.P.h.I.U.Y.+.T.R.E.W.Q.g !.~.^./.G (.).. . . . . . . . . . . . .                                                                                             ",
"_.`.6.Y.'._ _ ].[.{.] 5 }.|. X. .XXXoXOX+X@X#Xp % 7 $X%Xj._ ] _ ;.Y.&X*X=X. . . . . . . . . . . . .                                                                                             ",
". -X;X:X>X>X:X,X<X1X2X3X;X4XX . & 5Xm.6X7XW 8X>.& 9X- 0X@ X qX, - wX$ eX; W W W . M W W W W W W X &                                                                                             ",
". . . . . . . . . . . . . . . rXtXyXuXiXiXpXaXsX1XdXfX. . . gXhXJ.e.jXkXlXzXxXcXvXbXnXmXpXMXMXNXBXVX                                                                                            ",
". . . . . . . . . . . . . . . $ hXCXZXAXSXDXp.FXGX9.z . . . HXJXKXLXZ B.PXIXUXYX6 TXRX1.EXWXQX{.EX!X                                                                                            ",
". . . . . . . . . . . . . . . ~X^X/X(X)X_X% `X'X]X[X{X. . . r g }X|X o.owXXo5XooOo+oG.@o#o$o= 0X@ M                                                                                             ",
". . . . . . . . . . . . . . . o %op &o. . . + - *o=o-o. . . r d.;oS ] :oG.>o,o<o1o2o3oy 4o5o6o7o. .                                                                                             ",
". . . . . . . . . . . . . . . ~X8oC 9o. . @ 0oqowoeoro. . . M.d.;oto_ youoiopoxXaosodofogohojo. . .                                                                                             ",
". . . . . . . . . . . . . . . ko`.lofXHXpozo_ xoco'.voHXtXsX;on bonomoMoNo@XBocXVoCoe ZoAoSoDoFoGoHo                                                                                            ",
". . . . . . . . . . . . . . . 7XJoKo}.;.;.KoLoIX7 6 Po;.;.;.Ko6.IonoLoUo}.}.Y._ @oM.3 6.;.'.;.g Yo,X                                                                                            ",
". . . . . . . . . . . . . . . . Xor HXToToRoGo+ . 1X+oToToToioEo)X#otX*oToToRor 9oW WoHXToToTogoQoHo                                                                                            ",
". . . . . . . . . . . . . . . . . . . . . . . . . . . . . . . . . . . . . . . . . . . . . . . . . .                                                                                             ",
". . . . . . . . . . . . . . . . . . . . . . . . . . . . . . . . . . . . . . . . . . . . . . . . . .                                                                                             ",
". . . . . . . . . . . . . . . . . . . . . . . . . . . . . . . . . . . . . . . . . . . . . . . . . .                                                                                             ",
". . . . . . . . . . . . . . . . . . . . . . . . . . . . . . . . . . . . . . . . . . . . . . . . . .                                                                                             ",
"                                                                                                                                                                                                ",
"                                                                                                                                                                                                ",
"                                                                                                                                                                                                ",
"                                                                                                                                                                                                "
};
