/* XPM */
static const char *Platform_Wii_xpm[] = {
/* columns rows colors chars-per-pixel */
"96 32 187 2",
":. c #C5C6C8",
"V  c #D4D5D6",
"k  c #E3E4E4",
"w. c #CACACC",
"5. c #E8E8E9",
"5  c #F7F7F8",
"8  c #8C8E91",
".X c #AAACAF",
"+. c #AFB0B2",
"=  c #DCDDDE",
"L. c #EBECED",
"H  c #FAFBFB",
"%. c #F0F0F0",
"J. c #F0F0F1",
"+  c #FFFFFF",
"O. c #808386",
"U. c #8F9294",
"0. c #85878A",
"S. c #949698",
"K. c #949699",
"2. c #B2B4B6",
"!. c #A8A9AC",
"z. c #B7B8BA",
"S  c #C6C7C8",
"7. c #D5D6D7",
"P  c #F3F4F4",
")  c #E9E9E9",
"m. c #E9E9EB",
"%  c #F8F8F8",
"n. c #F8F8F9",
"p. c #888B8D",
"h  c #7E8084",
"n  c #8D8F92",
"k. c #9C9EA0",
"8. c #8D8F93",
"u  c #BABCBE",
"}  c #E2E2E2",
"N  c #E2E2E3",
"(  c #F1F1F1",
">. c #818487",
"x. c #818488",
"K  c #86888B",
"A. c #959799",
"<. c #86888C",
"r. c #95979A",
"j. c #8B8C8F",
"v  c #B3B5B7",
"9. c #A9AAAD",
",  c #C7C8C9",
"*  c #E5E6E7",
"*. c #F9F9F9",
"Q. c #7F8184",
",. c #8E9092",
"B  c #8E9093",
"U  c #9D9FA3",
"R. c #A2A3A6",
"[  c #CFD0D0",
"e  c #C0C1C3",
"d  c #EDEEEE",
"(. c #FCFDFD",
"b  c #87898C",
"/  c #96989A",
"^  c #87898D",
"t  c #96989B",
"L  c #A5A7A9",
"-  c #E6E7E8",
"X  c #DCDCDD",
"]. c #FAFAFA",
"e. c #8A8D90",
"N. c #8F9194",
"d. c #9EA0A3",
"{. c #9EA0A4",
"=. c #A3A4A7",
" X c #A3A4A8",
"s. c #CBCDCE",
"|  c #C1C2C3",
"o  c #DFE0E0",
"Z  c #C6C6C8",
"   c None",
"|. c #D5D5D7",
"R  c #E4E4E5",
"XX c #F3F3F3",
"!  c #F3F3F4",
"O  c #F8F7F7",
"#. c #838689",
"'  c #888A8D",
"x  c #888A8E",
"Q  c #97999C",
";. c #A6A8AA",
"c  c #C4C6C6",
"@. c #C4C6C7",
"b. c #BABBBD",
"4. c #C9CACB",
"P. c #C9CACC",
"1. c #BFBFC2",
";  c #F6F7F7",
"r  c #ECECED",
"f  c #FBFBFB",
"T. c #FBFBFC",
"p  c #909296",
"7  c #86878A",
"{  c #BDBFC0",
"]  c #A4A5A8",
"_  c #D1D2D4",
"D  c #E0E1E1",
"~. c #C7C7C9",
"Y. c #EFF0F0",
"I  c #F4F4F4",
"f. c #F4F4F5",
"w  c #84878A",
"s  c #939699",
"W  c #898B8E",
"6. c #898B8F",
"B. c #989A9D",
"g. c #989A9E",
"`  c #A7A9AB",
"^. c #8E8F93",
" . c #C5C7C7",
"E. c #ACADAF",
"[. c #BBBCBF",
"c. c #C0C0C2",
"6  c #D9DADB",
"0  c #DEDEDF",
".  c #EDEDEE",
"@  c #FCFCFC",
"a  c #7D8083",
"j  c #828487",
"F  c #9B9EA1",
"z  c #96979A",
"`. c #A5A6A8",
"W. c #A5A6A9",
"y. c #B4B5B7",
"Z. c #D2D3D4",
"2  c #E1E2E2",
"h. c #C8C8CA",
"#  c #E1E2E3",
"l. c #F0F1F2",
"). c #E6E6E7",
"M  c #F5F5F6",
"Y  c #8A8C8F",
"X. c #8A8C90",
"3  c #999B9D",
"A  c #999B9E",
"q. c #ADAEB0",
"&. c #CBCCCD",
"G. c #CBCCCE",
"$  c #DADBDC",
"/. c #F8F9F9",
"l  c #EEEEEE",
"'. c #EEEEEF",
"<  c #FDFDFD",
"C  c #FDFDFE",
"3. c #7E8184",
"u. c #838588",
"M. c #929496",
"y  c #838589",
"H. c #929497",
"V. c #88898C",
"i. c #B0B2B3",
"J  c #B0B2B4",
">  c #97989B",
"C. c #B5B6B9",
"~  c #C4C5C6",
"9  c #D3D4D4",
"4  c #ABABAF",
"D. c #D3D4D6",
".. c #E7E7E7",
"G  c #F6F6F7",
"-. c #7C7E81",
"o. c #8B8D90",
"a. c #9A9C9E",
"q  c #8B8D91",
"m  c #9A9C9F",
"$. c #A9ABAD",
"v. c #A9ABAE",
"E  c #BDBEBF",
"g  c #AEAFB2",
"}. c #BDBEC1",
"t. c #EAEBEB",
"i  c #EFEFF0",
"&  c #FEFEFE",
"1  c #FEFEFF",
"I. c #848689",
"T  c #8E9195",
"F. c #A2A4A6",
"_. c #A2A4A7",
":  c #C5C6C7",
/* pixels */
"                                                                                                                                                                                                ",
"                                                                                                                                                                                                ",
"                                                                                                                                                                                                ",
"                                                                                                                                                                                                ",
"                                                                                                                                                                                                ",
"                                                                                                                                                                                                ",
"                                                                                                                                                                                                ",
"                                                                                                                                                                                                ",
"                                                                                                                                                                                                ",
". X o O + + + @ # $ % + + + & * = - ; : > , < 1 2 3 4 5                                                                                                                                         ",
"6 7 8 9 + + + 0 q w e + + + r t y u i p a s d f g h j k                                                                                                                                         ",
"l z x c < + f v b n m M + + N 8 B V C Z A S @ & D F g G                                                                                                                                         ",
"H J K L P + I U Y B T R + < E W Q ! + f I f + + & I % +                                                                                                                                         ",
"+ ~ ^ / ( + ) q s A b _ < & ` ' ] & @ [ { 9 + + } |  .P                                                                                                                                         ",
"+ ..X.o.$ + , O.+.@.#.$.< %.z ' &.& *.=.-.;.+ + :.>.,.)                                                                                                                                         ",
"+ 5 3 <.1.f 2.3.4.5.6.t ( 7.8.p - + *.9.0.q.+ + w.e.r.t.                                                                                                                                        ",
"+ f y.u.i.( 3 p.5.G a.<.R s.<.d.f.+ *.9.0.q.+ + w.e.r.t.                                                                                                                                        ",
"+ & $ <.g.h.j.k.l.@ z.x.c.v.K b.& + n.9.0.q.+ + w.e.r.t.                                                                                                                                        ",
"+ + m.M.N.B.V.C.< + Z.o.A.S.6.D.+ + *.9.0.q.+ + w.e.r.t.                                                                                                                                        ",
"+ + f F.Y N.' G.+ + k H.n B p J.+ + *.9.0.q.+ + w.e.K.L.                                                                                                                                        ",
"+ + + P.I.x U.Y.+ + T.R.<.K E.n.+ + n.W.Q.!.+ + ~.w ^.i                                                                                                                                         ",
"+ + + /.C.m Z.(.+ + + )._.`.'.+ + + ].[.{.}.+ + |. X.XXX                                                                                                                                        ",
"                                                                                                                                                                                                ",
"                                                                                                                                                                                                ",
"                                                                                                                                                                                                ",
"                                                                                                                                                                                                ",
"                                                                                                                                                                                                ",
"                                                                                                                                                                                                ",
"                                                                                                                                                                                                ",
"                                                                                                                                                                                                ",
"                                                                                                                                                                                                ",
"                                                                                                                                                                                                "
};
