/* XPM */
static const char * Platform_Wad_xpm[] = {
/* columns rows colors chars-per-pixel */
"96 32 212 2",
";. c #D4D5D6",
"%  c #CACACB",
"W. c #D9D9DB",
"'. c #E8E8E9",
"6  c #F7F7F6",
"R. c #F7F7F7",
"=  c #F7F7F8",
"6. c #787B7E",
"-. c #878A8D",
"q  c #7D7F82",
"d  c #7D7F83",
"x. c #8C8E91",
"S. c #AAACAE",
"d. c #828388",
"8. c #A0A1A4",
"&. c #C8CACA",
"$. c #BEBFC1",
"-  c #CDCED0",
",  c #D2D2D3",
"b. c #EBECED",
"P  c #FAFBFB",
".  c #FFFFFF",
"f  c #717477",
"t  c #808386",
"i  c #85878A",
"n. c #949698",
"i. c #9EA1A4",
"}  c #85878B",
"@. c #A3A5A7",
"W  c #8A8B8E",
"_. c #A3A5A8",
"O. c #C6C7C9",
"a  c #D5D6D7",
"6X c #90E3F8",
"~  c #E9E9EA",
"h  c #E9E9EB",
"+  c #F8F8F8",
"=X c #45CDEF",
"U  c #7E8084",
"|  c #9C9EA0",
"*X c #70C5DA",
" . c #9C9EA1",
"F  c #ABADAE",
"N. c #ABADAF",
"+X c #CECFCF",
"1. c #B5B5B9",
"v. c #ECEDED",
"o  c #F1F1F1",
"J. c #E7E6E7",
"9X c #E3F8FD",
"<. c #818488",
"E. c #86888B",
"]  c #959799",
"T. c #95979A",
"&X c #A9E8F7",
"(. c #B3B5B7",
"`  c #C7C8C9",
"#X c #C7C8CA",
"-X c #D4E0E2",
">  c #F4F5F5",
"5X c #74DCF6",
"_  c #F9F9F9",
"C  c #F9F9FA",
"k  c #707276",
"8  c #898C8F",
"y  c #7F8184",
"~. c #7F8185",
"4  c #8E9092",
"l  c #9D9FA1",
"I  c #ACAEB0",
"E  c #939498",
"+. c #B1B2B3",
"<  c #CACCCD",
"y. c #D9DBDB",
"`. c #CFD0D1",
",. c #C0C1C4",
"x  c #EDEEEE",
"0  c #D4D4D5",
"z. c #E3E3E3",
"B  c #87898C",
":X c #C7F1FC",
".. c #87898D",
"A  c #96989B",
"Y  c #A5A7AA",
"h. c #B4B6B8",
"[  c #EBEBEB",
")  c #FAFAFA",
"H  c #FAFAFB",
"3X c #58D5F5",
"j  c #8A8D90",
"v  c #808285",
"m. c #8F9194",
"r. c #9EA0A3",
"C. c #85868B",
"g  c #ADAFB1",
"p. c #BCBEBF",
"). c #A3A4A8",
"J  c #A8A8AB",
"s  c #DFE0E1",
"   c None",
"<X c #F1FCFE",
"1  c #E9E8EA",
":  c #F8F7F8",
"9. c #74777A",
"%. c #A1A4A5",
"!  c #929598",
"L. c #888A8D",
"g. c #7E7F82",
"Z. c #97999C",
"]. c #8D8E91",
"f. c #A6A8AB",
"4X c #ABEAFA",
"K  c #D8D9DA",
"8X c #82E0F7",
"o. c #E7E8E8",
";  c #CECECF",
"R  c #E7E8E9",
"{  c #CECED1",
"m  c #F6F7F7",
"q. c #FBFBFB",
"D. c #FBFBFC",
" X c #F1F0F1",
"5. c #8B8E90",
"%X c #3CCEF3",
"l. c #A9ACAD",
"p  c #818387",
"K. c #909296",
"/  c #AEB0B3",
"b  c #BDBFC0",
"M  c #A4A5A8",
"oX c #CCCECF",
">. c #C2C3C3",
"9  c #C2C3C5",
"5  c #D1D2D3",
"*. c #E0E1E1",
"r  c #C7C7CA",
"e  c #D6D6D7",
"@  c #EFF0F0",
"2  c #EFF0F1",
"$X c #E5E5E6",
"*  c #F4F4F4",
"@X c #F4F4F5",
"}. c #75787B",
"7X c #D5F5FC",
"c. c #939697",
"[. c #7A7C7F",
"2. c #898B8E",
"U. c #898B8F",
"Q. c #A7A9AB",
"H. c #989A9E",
"G. c #B6B8BA",
"Z  c #BBBCBD",
"B. c #BBBCBE",
"7. c #CACBCC",
"4. c #E8E9E9",
"1X c #66D9F5",
"3. c #E3E2E3",
"#  c #FCFCFC",
"(  c #FCFCFD",
"'  c #828487",
"Y. c #919395",
"!. c #919396",
"0. c #AFB1B3",
"&  c #D2D3D3",
".X c #E1E2E3",
"$  c #E6E6E6",
"T  c #F5F5F6",
"/. c #7B7D80",
"N  c #85888C",
"2X c #B9EEFB",
"OX c #BCBDBF",
"M. c #E4E6E7",
"t. c #DADBDB",
"#. c #DADBDC",
"s. c #E9EAEA",
"e. c #F8F9F8",
"X. c #D0D0D2",
"n  c #FDFDFD",
",X c #4AD2F4",
"w. c #7E8185",
"^  c #838588",
"3  c #A1A3A5",
"{. c #A1A3A6",
"7  c #B0B2B3",
":. c #B5B6B8",
"a. c #F6F6F5",
"X  c #F6F6F6",
"z  c #F6F6F7",
"XX c #FBFAFB",
"u. c #86898C",
"k. c #7C7E81",
"=. c #8B8D90",
"Q  c #8B8D91",
"F. c #A9ABAC",
"j. c #B8BABB",
">X c #9DE7F9",
"D  c #BDBEC0",
"|. c #B3B3B6",
"^. c #CCCDCF",
"P. c #C2C2C4",
"V. c #D1D1D3",
"L  c #FEFEFD",
"S  c #EFEFF0",
"G  c #E5E4E5",
"O  c #FEFEFE",
"u  c #FEFEFF",
";X c #2ECBF2",
"w  c #848689",
"c  c #939598",
"V  c #A2A4A7",
"I. c #C0C2C3",
"A. c #B6B7B9",
/* pixels */
"                                                                                                                                                                                                ",
"                                                                                                                                                                                                ",
"                                                                                                                                                                                                ",
"                                                                                                                                                                                                ",
". . . . . . . . . . . . . . . . . . . X o O . . + @ # . . . . . . . . . . . . . . . . . . . . . . .                                                                                             ",
"$ % & * . . . = - ; : . . . > , < 1 2 3 4 5 O 6 7 8 9 # . . . . . . . . . . . . . . . . . . . . . .                                                                                             ",
"0 q w e . . O r t y r u . . & i p a s d f g O h j k l z . . . . . . . . . . . . . . . . . . . . . .                                                                                             ",
"x c v b n . m M N B V C . . Z w A S = D F G . H < J K L . . . . . . . . . . . . . . . . . . . . . .                                                                                             ",
"P I U Y T . R E W Q ! ~ . T Y ^ / ( . n ) . . . . _ . . . . . . . . . . . . . . . . . . . . . . . .                                                                                             ",
". ` ' ] [ . { } |  ...X.. o.A w O.. @ +.@.#.. _ $.%.&.# . . . . . . . . . . . . . . . . . . . . . .                                                                                             ",
". *.=.-.;.. :.U >.,.<.1.. & 2.=.3.. 4.5.6.7.. m 8.9.0.q.. . . . . . . . . . . . . . . . . . . . . .                                                                                             ",
". o l w.b e.r.' t.y.u.i.q.p.v r.a.. s.c d.- . = f.g.h.q.. . . . . . . . . . . . . . . . . . . . . .                                                                                             ",
". n j.k.l.z.x.c.v.b.n.m.M.N.q B.n . s.c p - . = f.q h.q.. . . . . . . . . . . . . . . . . . . . . .                                                                                             ",
". . V.C.Z.A.i S.D.# F.2.G.H.i 0 . . s.c p - . = f.q h.q.. . . . . . . . . . . . . . . . . . . . . .                                                                                             ",
". . J.n.=.K.L.P.. . I.U.Y.=.T.~ . . s.c p - . = f.q h.q.. . . . . . . . . . . . . . . . . . . . . .                                                                                             ",
". . R.M E.=.=.W.. . #.Q 5.w Q.m . . s.!.~.^.. = Y /.(.) O . . . . . . . . . . . . . . . . . . . . .                                                                                             ",
". . . < B p ).> . . X _.t B `.. . . '.].[.7.. R.{.}.|. X.XS . . . . . . . . . . . . . . . . . . . .                                                                                             ",
". . . XXoXOXs.. . . . ~ B.+XP . . . @X#X$.$X%X&X5 *X=X+ -X;X:X>X;X;X;X,X. <X;X>X1X;X2X<X,X;X;X;X2X.                                                                                             ",
". . . . . . . . . . . . . . . . . . . . . . ;X2X<X%X,X. >X3X<X;X2X. 2X;X<X2X;X1X>X,X4X>X5X. . 3X>X.                                                                                             ",
". . . . . . . . . . . . . . . . . . . . . . ;X:X4X;X1X. ,X4X. . . . >X%X. >X,X. <X;X2X,X6X. . ;X4X.                                                                                             ",
". . . . . . . . . . . . . . . . . . . . . . ;X:X1X%X1X:X%X<X. . . . 5X5X. 5X5X. . . <X;X2X. 7X;X7X.                                                                                             ",
". . . . . . . . . . . . . . . . . . . . . . ;X4X;X6X1X8X6X. 7X;X;X;X;X>X. %X>X. . . 2X;X;X;X;X,X. .                                                                                             ",
". . . . . . . . . . . . . . . . . . . . . . ;X5X8X>X5X;X9X. ,X2X. 7X;X7X7X;X7X. . . 6X3X. . . . . .                                                                                             ",
". . . . . . . . . . . . . . . . . . . . . 9X;X;X:X8X;X1X. 2X;X9X. 4X;X<X2X;X. . . . 1X5X. . ,X>X. .                                                                                             ",
". . . . . . . . . . . . . . . . . . . . . 9X;X3X. 8X;X2X. >X%X:X8X3X3X. 6X3X. . . . ,X>X. <X;X2X. .                                                                                             ",
". . . . . . . . . . . . . . . . . . . . . 9X;X4X. 8X,X. . >X;X%X8X%X6X. 3X6X. . . . 5X;X;X;X8X. . .                                                                                             ",
". . . . . . . . . . . . . . . . . . . . . . . . . . . . . . . . . . . . . . . . . . . . . . . . . .                                                                                             ",
". . . . . . . . . . . . . . . . . . . . . . . . . . . . . . . . . . . . . . . . . . . . . . . . . .                                                                                             ",
"                                                                                                                                                                                                ",
"                                                                                                                                                                                                ",
"                                                                                                                                                                                                ",
"                                                                                                                                                                                                "
};
