/* XPM */
static const char * Platform_Wii_xpm[] = {
"96 32 186 2",
"  	c #FFFFFF",
". 	c #EDEDEE",
"+ 	c #DCDCDD",
"@ 	c #DFE0E0",
"# 	c #F8F7F7",
"$ 	c #FCFCFC",
"% 	c #E1E2E3",
"& 	c #DADBDC",
"* 	c #F8F8F8",
"= 	c #FEFEFE",
"- 	c #E5E6E7",
"; 	c #DCDDDE",
"> 	c #E6E7E8",
", 	c #F6F7F7",
"' 	c #C5C6C7",
") 	c #97989B",
"! 	c #C7C8C9",
"~ 	c #FDFDFD",
"{ 	c #FEFEFF",
"] 	c #E1E2E2",
"^ 	c #999B9D",
"/ 	c #ABABAF",
"( 	c #F7F7F8",
"_ 	c #D9DADB",
": 	c #86878A",
"< 	c #8C8E91",
"[ 	c #D3D4D4",
"} 	c #DEDEDF",
"| 	c #8B8D91",
"1 	c #84878A",
"2 	c #C0C1C3",
"3 	c #ECECED",
"4 	c #96989B",
"5 	c #838589",
"6 	c #BABCBE",
"7 	c #EFEFF0",
"8 	c #909296",
"9 	c #7D8083",
"0 	c #939699",
"a 	c #EDEEEE",
"b 	c #FBFBFB",
"c 	c #AEAFB2",
"d 	c #7E8084",
"e 	c #828487",
"f 	c #E3E4E4",
"g 	c #EEEEEE",
"h 	c #96979A",
"i 	c #888A8E",
"j 	c #C4C6C6",
"k 	c #B3B5B7",
"l 	c #87898C",
"m 	c #8D8F92",
"n 	c #9A9C9F",
"o 	c #F5F5F6",
"p 	c #E2E2E3",
"q 	c #8E9093",
"r 	c #D4D5D6",
"s 	c #FDFDFE",
"t 	c #C6C6C8",
"u 	c #999B9E",
"v 	c #C6C7C8",
"w 	c #E0E1E1",
"x 	c #9B9EA1",
"y 	c #F6F6F7",
"z 	c #FAFBFB",
"A 	c #B0B2B4",
"B 	c #86888B",
"C 	c #A5A7A9",
"D 	c #F3F4F4",
"E 	c #F4F4F4",
"F 	c #9D9FA3",
"G 	c #8A8C8F",
"H 	c #8E9195",
"I 	c #E4E4E5",
"J 	c #BDBEBF",
"K 	c #898B8E",
"L 	c #97999C",
"M 	c #F3F3F4",
"N 	c #C4C5C6",
"O 	c #87898D",
"P 	c #96989A",
"Q 	c #F1F1F1",
"R 	c #E9E9E9",
"S 	c #D1D2D4",
"T 	c #A7A9AB",
"U 	c #888A8D",
"V 	c #A4A5A8",
"W 	c #CFD0D0",
"X 	c #BDBFC0",
"Y 	c #E2E2E2",
"Z 	c #C1C2C3",
"` 	c #C5C7C7",
" .	c #E7E7E7",
"..	c #8A8C90",
"+.	c #8B8D90",
"@.	c #808386",
"#.	c #AFB0B2",
"$.	c #C4C6C7",
"%.	c #838689",
"&.	c #A9ABAD",
"*.	c #F0F0F0",
"=.	c #CBCCCD",
"-.	c #F9F9F9",
";.	c #A3A4A7",
">.	c #7C7E81",
",.	c #A6A8AA",
"'.	c #C5C6C8",
").	c #818487",
"!.	c #8E9092",
"~.	c #86888C",
"{.	c #BFBFC2",
"].	c #B2B4B6",
"^.	c #7E8184",
"/.	c #C9CACB",
"(.	c #E8E8E9",
"_.	c #898B8F",
":.	c #D5D6D7",
"<.	c #8D8F93",
"[.	c #A9AAAD",
"}.	c #85878A",
"|.	c #ADAEB0",
"1.	c #CACACC",
"2.	c #8A8D90",
"3.	c #95979A",
"4.	c #EAEBEB",
"5.	c #B4B5B7",
"6.	c #838588",
"7.	c #B0B2B3",
"8.	c #888B8D",
"9.	c #9A9C9E",
"0.	c #CBCDCE",
"a.	c #9EA0A3",
"b.	c #F4F4F5",
"c.	c #989A9E",
"d.	c #C8C8CA",
"e.	c #8B8C8F",
"f.	c #9C9EA0",
"g.	c #F0F1F2",
"h.	c #B7B8BA",
"i.	c #818488",
"j.	c #C0C0C2",
"k.	c #A9ABAE",
"l.	c #BABBBD",
"m.	c #F8F8F9",
"n.	c #E9E9EB",
"o.	c #929496",
"p.	c #8F9194",
"q.	c #989A9D",
"r.	c #88898C",
"s.	c #B5B6B9",
"t.	c #D2D3D4",
"u.	c #959799",
"v.	c #949698",
"w.	c #D3D4D6",
"x.	c #A2A4A6",
"y.	c #CBCCCE",
"z.	c #929497",
"A.	c #F0F0F1",
"B.	c #949699",
"C.	c #EBECED",
"D.	c #C9CACC",
"E.	c #848689",
"F.	c #8F9294",
"G.	c #EFF0F0",
"H.	c #FBFBFC",
"I.	c #A2A3A6",
"J.	c #ACADAF",
"K.	c #A5A6A9",
"L.	c #7F8184",
"M.	c #A8A9AC",
"N.	c #C7C7C9",
"O.	c #8E8F93",
"P.	c #F8F9F9",
"Q.	c #FCFDFD",
"R.	c #E6E6E7",
"S.	c #A2A4A7",
"T.	c #A5A6A8",
"U.	c #EEEEEF",
"V.	c #FAFAFA",
"W.	c #BBBCBF",
"X.	c #9EA0A4",
"Y.	c #BDBEC1",
"Z.	c #D5D5D7",
"`.	c #A3A4A8",
" +	c #AAACAF",
".+	c #F3F3F3",
"                                                                                                                                                                                                ",
"                                                                                                                                                                                                ",
"                                                                                                                                                                                                ",
"                                                                                                                                                                                                ",
"                                                                                                                                                                                                ",
"                                                                                                                                                                                                ",
"                                                                                                                                                                                                ",
"                                                                                                                                                                                                ",
"                                                                                                                                                                                                ",
"                                                                                                                                                                                                ",
"      . + @ #       $ % & *       = - ; > , ' ) ! ~ { ] ^ / (                                                                                                                                   ",
"      _ : < [       } | 1 2       3 4 5 6 7 8 9 0 a b c d e f                                                                                                                                   ",
"      g h i j ~   b k l m n o     p < q r s t u v $ = w x c y                                                                                                                                   ",
"      z A B C D   E F G q H I   ~ J K L M   b E b     = E *                                                                                                                                     ",
"        N O P Q   R | 0 u l S ~ = T U V = $ W X [     Y Z ` D                                                                                                                                   ",
"         ...+.&   ! @.#.$.%.&.~ *.h U =.= -.;.>.,.    '.).!.R                                                                                                                                   ",
"        ( ^ ~.{.b ].^./.(._.4 Q :.<.8 >   -.[.}.|.    1.2.3.4.                                                                                                                                  ",
"        b 5.6.7.Q ^ 8.(.y 9.~.I 0.~.a.b.  -.[.}.|.    1.2.3.4.                                                                                                                                  ",
"        = & ~.c.d.e.f.g.$ h.i.j.k.B l.=   m.[.}.|.    1.2.3.4.                                                                                                                                  ",
"          n.o.p.q.r.s.~   t.+.u.v._.w.    -.[.}.|.    1.2.3.4.                                                                                                                                  ",
"          b x.G p.U y.    f z.m q 8 A.    -.[.}.|.    1.2.B.C.                                                                                                                                  ",
"            D.E.i F.G.    H.I.~.B J.m.    m.K.L.M.    N.1 O.7                                                                                                                                   ",
"            P.s.n t.Q.      R.S.T.U.      V.W.X.Y.    Z.`. +.+                                                                                                                                  ",
"                                                                                                                                                                                                ",
"                                                                                                                                                                                                ",
"                                                                                                                                                                                                ",
"                                                                                                                                                                                                ",
"                                                                                                                                                                                                ",
"                                                                                                                                                                                                ",
"                                                                                                                                                                                                ",
"                                                                                                                                                                                                ",
"                                                                                                                                                                                                "};
