/* XPM */
static char *toolbar_refresh_xpm[] = {
/* columns rows colors chars-per-pixel */
"48 48 138 2",
"   c #990A02",
".  c #97160F",
"X  c #9D160F",
"o  c #9D1710",
"O  c #9A1912",
"+  c #9C1F18",
"@  c #B00D05",
"#  c #A5170F",
"$  c #AC160F",
"%  c #B3160E",
"&  c #A31710",
"*  c #A81710",
"=  c #A31C15",
"-  c #AB1A13",
";  c #A21F18",
":  c #B41B14",
">  c #BA1A12",
",  c #B51F18",
"<  c #9D231C",
"1  c #A3231C",
"2  c #AB231C",
"3  c #B3231C",
"4  c #BD231B",
"5  c #9E2720",
"6  c #9F2C25",
"7  c #A32822",
"8  c #AE2C25",
"9  c #A12F28",
"0  c #B02620",
"q  c #B82720",
"w  c #A1312A",
"e  c #A53934",
"r  c #AF3832",
"t  c #B13832",
"y  c #B93B35",
"u  c #CE170E",
"i  c #D5160F",
"p  c #C31E16",
"a  c #CA1C14",
"s  c #D21D14",
"d  c #C4231B",
"f  c #CB231B",
"g  c #D2231B",
"h  c #C42820",
"j  c #D42C24",
"k  c #C2312A",
"l  c #CC322B",
"z  c #C63932",
"x  c #CC3830",
"c  c #AD423C",
"v  c #B3433D",
"b  c #BA433D",
"n  c #CC463F",
"m  c #DA4039",
"M  c #AB4A44",
"N  c #AD4E49",
"B  c #B44640",
"V  c #B24A44",
"C  c #B74F4A",
"Z  c #B75752",
"A  c #B6625D",
"S  c #B9645F",
"D  c #BC716C",
"F  c #BE7672",
"G  c #C4504B",
"H  c #C8524B",
"J  c #D5534D",
"K  c #C35651",
"L  c #C36C67",
"P  c #CB6B66",
"I  c #CF6D68",
"U  c #D86862",
"Y  c #C4706B",
"T  c #C9716C",
"R  c #E27D78",
"E  c #CD837F",
"W  c #C28481",
"Q  c #CF8F8C",
"!  c #D58884",
"~  c #C6918D",
"^  c #C8918D",
"/  c #D5908C",
"(  c #CD9B99",
")  c #DD9D9A",
"_  c #E18D89",
"`  c #E59490",
"'  c #E59B97",
"]  c #E59F9B",
"[  c #D5A29F",
"{  c #DDA19E",
"}  c #E6A09C",
"|  c #DDA5A2",
" . c #D4B1AE",
".. c #D5BAB7",
"X. c #DCB8B6",
"o. c #D9BDBB",
"O. c #E0A7A4",
"+. c #E2C1BF",
"@. c #E9C2BF",
"#. c #CDCCCC",
"$. c #DCC7C5",
"%. c #DBC8C7",
"&. c #D0CFCF",
"*. c #DBC9C8",
"=. c #D4D3D3",
"-. c #D8D7D7",
";. c #D7D8D6",
":. c #D8D8D7",
">. c #DCDCDB",
",. c #E4C3C2",
"<. c #EBC6C4",
"1. c #EAC8C7",
"2. c #E0CAC8",
"3. c #EBCFCE",
"4. c #ECD0CE",
"5. c #E6D7D6",
"6. c #EFD5D4",
"7. c #E1D8D7",
"8. c #E1DBDA",
"9. c #EFDCDB",
"0. c #E0E0DF",
"q. c #E3E3E2",
"w. c #EBE6E6",
"e. c #E5E8E7",
"r. c #E8E7E8",
"t. c #E7EBEA",
"y. c #ECECEC",
"u. c #F1E5E4",
"i. c #F2ECEC",
"p. c #F0F0EF",
"a. c #EAF1F1",
"s. c #F3F3F3",
"d. c #F8F7F7",
"f. c #F8F8F7",
"g. c #F3F7F8",
"h. c #F6FCFC",
"j. c #FAFCFC",
"k. c None",
/* pixels */
"k.k.k.k.k.k.k.k.k.k.k.k.k.k.k.k.k.k.:.;.#.#.#.#.#.#.#.#.;.:.k.k.k.k.k.k.k.k.k.k.k.k.k.k.k.k.k.k.",
"k.k.k.k.k.k.k.k.k.k.k.k.k.k.k.:.#.#.=.-.>.q.q.e.e.q.q.>.:.=.#.#.:.k.k.k.k.k.k.k.k.k.k.k.k.k.k.k.",
"k.k.k.k.k.k.k.k.k.k.k.k.k.=.#.=.>.e.r.y.y.y.y.r.r.y.y.y.y.r.r.>.=.#.=.k.k.k.k.k.k.k.k.k.k.k.k.k.",
"k.k.k.k.k.k.k.k.k.k.k.:.#.;.q.r.y.r.r.y.y.y.y.y.y.y.y.y.y.r.r.y.r.q.-.#.-.k.k.k.k.k.k.k.k.k.k.k.",
"k.k.k.k.k.k.k.k.k.k.#.=.q.y.r.y.y.y.y.y.y.y.y.y.y.y.y.y.y.y.y.r.r.r.y.q.=.#.k.k.k.k.k.k.k.k.k.k.",
"k.k.k.k.k.k.k.k.>.#.:.r.y.r.y.y.y.y.y.y.y.y.y.y.y.y.y.y.y.y.y.y.y.y.r.r.r.>.#.>.k.k.k.k.k.k.k.k.",
"k.k.k.k.k.k.k.:.#.q.y.r.y.y.y.y.y.y.y.y.y.y.y.y.y.y.y.y.y.y.y.y.y.y.y.y.r.y.q.#.-.k.k.k.k.k.k.k.",
"k.k.k.k.k.k.:.#.q.y.r.y.y.y.y.y.y.y.y.y.y.p.p.p.p.p.p.y.y.y.y.y.y.y.y.y.y.r.y.q.#.-.k.k.k.k.k.k.",
"k.k.k.k.k.>.#.q.y.r.y.y.y.y.y.y.y.y.p.s.s.s.s.s.s.s.s.s.p.y.y.y.y.y.y.y.y.y.r.r.q.#.>.k.k.k.k.k.",
"k.k.k.k.k.#.8.y.r.y.y.y.y.y.y.y.s.s.s.s.s.s.s.s.s.s.s.s.s.s.s.p.y.y.y.y.y.y.y.r.y.q.#.k.k.k.k.k.",
"k.k.k.k.#.:.y.r.y.y.y.y.y.y.y.s.s.s.s.s.s.s.s.s.s.s.s.s.s.s.s.s.s.p.y.y.y.y.y.y.t.y.>.#.k.k.k.k.",
"k.k.k.>.&.r.r.y.y.y.y.y.y.s.s.s.s.s.s.s.s.s.s.s.s.g.h.h.h.h.h.h.h.h.h.s.y.y.y.y.y.r.r.=.:.k.k.k.",
"k.k.k.#.q.y.y.y.y.y.y.y.s.s.s.s.s.s.s.s.s.s.s.s.h.,.P T T T Y Y Y D S ( s.y.y.y.y.y.r.q.#.k.k.k.",
"k.k.;.=.y.r.y.y.y.y.y.s.s.s.s.g.s.s.s.s.d.s.d.d.j.{ @ $ $ $ # # #   c 5.s.y.y.y.y.y.r.y.-.=.k.k.",
"k.k.#.q.y.y.y.y.y.y.p.s.s.s.g.9.g.g.d.d.d.d.d.d.j.| : 3 3 2 2 2 ; Z w.g.s.y.y.y.y.y.y.r.q.#.k.k.",
"k.>.=.r.y.y.y.y.y.p.s.s.s.h.<.j ` h.d.d.d.d.d.d.j.O.: 3 3 2 2 2 ; X.h.s.s.s.p.y.y.y.y.r.y.=.>.k.",
"k.#.>.y.y.y.y.y.y.s.s.s.g.u.m i s ' j.f.d.f.f.f.j.O.: 3 3 2 2 2 = c 8.t.e.r.y.y.y.y.y.r.y.8.#.k.",
"k.#.e.y.y.y.y.y.y.s.s.s.h.R i g g s } j.f.f.f.d.h.| : 3 3 2 2 2 1 X F t.q.q.>.>.q.r.y.y.r.r.#.k.",
">.=.r.y.y.y.y.y.p.s.s.g.6.j g g g g a ] j.d.s.s.h.| : 3 , 2 2 2 1 1 7 *.e.q.q.>.>.>.>.e.y.y.=.>.",
"-.-.y.y.y.y.y.y.s.s.s.h._ u g g g f a ' h.s.s.s.j.| : : y 3 2 2 1 1 X W a.q.q.>.>.>.:.;.>.r.>.;.",
"#.>.y.y.y.y.y.p.s.s.s.g.J a f f f a U h.s.d.d.d.j.| @ K u.L * 2 1 1 O N e.q.q.0.>.>.>.:.=.=.:.#.",
"#.q.y.y.y.y.y.p.s.s.g.u.l f f f f f @.h.d.d.f.f.j.) G i.j.+.2 1 1 1 + w 8.e.q.0.>.>.>.:.=.=.#.#.",
"#.q.y.y.y.y.y.p.s.s.g.4.h f f f a x i.g.d.f.j.j.j.6.u.j.g.y.t ; 1 1 + 9 7.e.q.q.>.>.>.:.=.=.#.#.",
"#.e.y.y.y.y.y.p.s.s.h.1.d d d d p n i.f.d.f.j.j.j.j.j.d.d.i.B = 1 1 + w 7.e.q.q.>.>.>.:.=.=.&.#.",
"#.q.y.y.y.y.y.p.s.s.g.3.h d d d p z i.f.d.f.j.j.j.j.f.d.f.y.r ; 1 < + 9 7.e.q.q.>.>.>.:.=.=.&.#.",
"#.q.y.y.y.y.y.p.s.s.g.u.k 4 4 4 4 4 <.h.d.f.j.j.j.j.f.d.j.,.1 1 1 < + w 8.e.q.q.>.>.>.:.=.=.#.#.",
"#.q.y.y.y.y.y.p.s.s.s.s.H > 4 4 4 > I j.d.d.f.f.f.f.d.d.j.L & 1 1 < O N e.e.q.q.>.>.>.:.=.=.#.#.",
"&.>.y.y.y.y.y.p.s.s.s.h.! % 4 4 4 4 , | j.f.d.d.d.d.f.j.[ = 1 1 < < . W a.q.q.0.>.>.>.:.=.=.#.#.",
"-.-.y.y.y.y.y.p.s.s.s.g.2.q 3 3 3 3 , 3 / s.j.j.j.j.s.Q 1 ; 1 < < < 5 %.t.q.q.0.>.>.>.;.=.=.#.-.",
">.=.r.y.y.y.y.y.s.s.s.y.y.T % 3 3 3 3 3 - b E | | E v & 1 1 < < < . D y.q.q.q.>.>.>.>.;.=.&.#.>.",
"k.#.e.y.y.y.y.y.p.s.s.q.t.7.y - 3 3 3 2 2 - * # # & = 1 1 1 < < O e 7.t.q.q.q.>.>.>.:.=.=.&.#.k.",
"k.&.>.y.y.y.y.y.y.s.y.q.q.a.X.0 - 2 2 2 2 2 2 2 1 1 1 1 1 < < O 5 ..a.q.q.q.0.>.>.>.:.=.=.#.&.k.",
"k.>.=.y.y.y.y.y.y.s.r.q.q.q.a. .8 * 2 2 2 2 1 1 1 1 1 < < < O 6  .a.q.q.q.0.>.>.>.>.;.=.=.#.>.k.",
"k.k.#.q.y.y.y.y.y.y.q.q.q.q.q.a.$.C & = 1 1 1 1 1 1 < < O O N $.a.q.q.q.q.>.>.>.>.:.=.=.#.#.k.k.",
"k.k.;.;.y.y.y.y.y.y.>.0.q.q.q.q.y.r.( V 1 o o o O O O < M ( r.y.q.q.q.q.>.>.>.>.:.;.=.=.#.;.k.k.",
"k.k.k.#.q.y.y.y.y.r.>.>.q.q.q.q.q.e.a.r.o.^ D A A D ~ o.r.a.e.q.q.q.q.>.>.>.>.>.;.=.=.#.#.k.k.k.",
"k.k.k.>.=.r.y.y.y.e.>.>.>.0.q.q.q.q.q.e.y.a.a.y.y.a.a.y.e.q.q.q.q.q.>.>.>.>.>.:.=.=.&.#.>.k.k.k.",
"k.k.k.k.#.>.y.y.y.q.>.>.>.>.>.q.q.q.q.q.q.q.q.e.e.q.q.q.q.q.q.q.0.>.>.>.>.>.:.;.=.=.#.#.k.k.k.k.",
"k.k.k.k.k.#.q.y.y.0.:.>.>.>.>.>.q.q.q.q.q.q.q.q.q.q.q.q.q.q.q.>.>.>.>.>.>.:.;.=.=.#.#.k.k.k.k.k.",
"k.k.k.k.k.>.#.q.y.>.;.:.>.>.>.>.>.>.0.q.q.q.q.q.q.q.q.q.0.>.>.>.>.>.>.>.:.;.=.=.#.#.>.k.k.k.k.k.",
"k.k.k.k.k.k.:.#.q.>.=.;.:.>.>.>.>.>.>.>.>.>.>.>.>.>.>.>.>.>.>.>.>.>.>.:.=.=.=.#.#.:.k.k.k.k.k.k.",
"k.k.k.k.k.k.k.:.#.-.=.=.=.;.:.>.>.>.>.>.>.>.>.>.>.>.>.>.>.>.>.>.>.:.;.=.=.=.#.#.:.k.k.k.k.k.k.k.",
"k.k.k.k.k.k.k.k.>.#.#.=.=.=.=.;.:.>.>.>.>.>.>.>.>.>.>.>.>.>.>.:.;.=.=.=.=.#.#.>.k.k.k.k.k.k.k.k.",
"k.k.k.k.k.k.k.k.k.k.#.#.&.=.=.=.=.;.:.:.:.>.>.>.>.>.>.:.:.;.;.=.=.=.=.&.#.#.k.k.k.k.k.k.k.k.k.k.",
"k.k.k.k.k.k.k.k.k.k.k.>.#.#.&.=.=.=.=.=.=.;.;.;.;.;.;.=.=.=.=.=.=.&.#.#.>.k.k.k.k.k.k.k.k.k.k.k.",
"k.k.k.k.k.k.k.k.k.k.k.k.k.=.#.#.#.=.=.=.=.=.=.=.=.=.=.=.=.=.&.#.#.#.=.k.k.k.k.k.k.k.k.k.k.k.k.k.",
"k.k.k.k.k.k.k.k.k.k.k.k.k.k.k.>.=.#.#.#.#.=.=.=.=.=.=.#.#.#.#.=.>.k.k.k.k.k.k.k.k.k.k.k.k.k.k.k.",
"k.k.k.k.k.k.k.k.k.k.k.k.k.k.k.k.k.k.>.:.=.#.#.#.#.#.#.=.:.>.k.k.k.k.k.k.k.k.k.k.k.k.k.k.k.k.k.k."
};
