/* XPM */
static char *toolbar_play_xpm[] = {
/* columns rows colors chars-per-pixel */
"48 48 95 2",
"   c #9D0F08",
".  c #A5160F",
"X  c #AE170F",
"o  c #B5160F",
"O  c #A31710",
"+  c #A51A12",
"@  c #AA1B14",
"#  c #A11E18",
"$  c #A81F18",
"%  c #B31A13",
"&  c #BC1A11",
"*  c #A5211A",
"=  c #AD231C",
"-  c #B3231C",
";  c #BC241C",
":  c #AA2B24",
">  c #AE322B",
",  c #B9322B",
"<  c #B03933",
"1  c #CA1006",
"2  c #CE170E",
"3  c #D1180F",
"4  c #C31B12",
"5  c #CC1A12",
"6  c #D11A11",
"7  c #C3241C",
"8  c #CB241C",
"9  c #D3231B",
"0  c #D32C25",
"q  c #D23B34",
"w  c #B4403B",
"e  c #AF4B45",
"r  c #B84C46",
"t  c #B6534E",
"y  c #B65F5A",
"u  c #BA635E",
"i  c #BE6560",
"p  c #BE6C67",
"a  c #D24E47",
"s  c #C0625D",
"d  c #CE625C",
"f  c #D7635E",
"g  c #C46661",
"h  c #CA6662",
"j  c #CE6862",
"k  c #D36762",
"l  c #D36863",
"z  c #DC6964",
"x  c #DE716B",
"c  c #C67874",
"v  c #D07874",
"b  c #C98581",
"n  c #CD918D",
"m  c #D2918D",
"M  c #D39D9B",
"N  c #E38985",
"B  c #E6A39F",
"V  c #D3A5A2",
"C  c #DCB6B3",
"Z  c #D7B9B6",
"A  c #D8B9B6",
"S  c #D8BBB9",
"D  c #E3B5B2",
"F  c #CDCCCC",
"G  c #D9C4C2",
"H  c #D0CFCF",
"J  c #DBCBCA",
"K  c #D4D3D3",
"L  c #D8D7D7",
"P  c #D7D8D6",
"I  c #D8D8D7",
"U  c #DCDCDB",
"Y  c #EBC5C3",
"T  c #E4CAC8",
"R  c #E2D1D0",
"E  c #EDD5D4",
"W  c #E0DFDF",
"Q  c #E9DBDA",
"!  c #F1D9D8",
"~  c #E0E0DF",
"^  c #E4E3E3",
"/  c #EAE5E4",
"(  c #E8E8E7",
")  c #E8E7E8",
"_  c #E6E9E8",
"`  c #ECECEC",
"'  c #F2EDEC",
"]  c #EEF0EF",
"[  c #F0F0EF",
"{  c #EDF2F2",
"}  c #F2F3F2",
"|  c #F1F8F7",
" . c #F4FBFB",
".. c #F9FEFE",
"X. c None",
/* pixels */
"X.X.X.X.X.X.X.X.X.X.X.X.X.X.X.X.X.X.I P F F F F F F F F P I X.X.X.X.X.X.X.X.X.X.X.X.X.X.X.X.X.X.",
"X.X.X.X.X.X.X.X.X.X.X.X.X.X.X.I F F K L U ^ ^ ^ ^ ^ ^ U I K F F I X.X.X.X.X.X.X.X.X.X.X.X.X.X.X.",
"X.X.X.X.X.X.X.X.X.X.X.X.X.K F K U ( ( ` ` ` ` ( ( ` ` ` ` ( ( U K F K X.X.X.X.X.X.X.X.X.X.X.X.X.",
"X.X.X.X.X.X.X.X.X.X.X.I F P ^ ( ` ( ( ` ` ` ` ` ` ` ` ` ` ( ( ` ( ^ L F L X.X.X.X.X.X.X.X.X.X.X.",
"X.X.X.X.X.X.X.X.X.X.F K ^ ` ( ` ` ` ` ` ` ` ` ` ` ` ` ` ` ` ` ( ( ( ` ^ K F X.X.X.X.X.X.X.X.X.X.",
"X.X.X.X.X.X.X.X.U F I ( ` ( ` ` ` ` ` ` ` ` ` ` ` ` ` ` ` ` ` ` ` ` ( ( ( U F U X.X.X.X.X.X.X.X.",
"X.X.X.X.X.X.X.I F ^ ` ( ` ` ` ` ` ` ` ` ` ` ` ` ` ` ` ` ` ` ` ` ` ` ` ` ( ` ^ F L X.X.X.X.X.X.X.",
"X.X.X.X.X.X.I F ^ ` ) ` ` ` ` ` ` ` ` ` ` [ [ [ [ [ [ ` ` ` ` ` ` ` ` ` ` ( ` ^ F L X.X.X.X.X.X.",
"X.X.X.X.X.U F ^ ` ( ` ` ` ` ` ` ` ` [ } } } } } } } } } [ ` ` ` ` ` ` ` ` ` ( ( ^ F U X.X.X.X.X.",
"X.X.X.X.X.F W ` ( ` ` ` ` ` ` ` } } } } } } } } } } } } } } } [ ` ` ` ` ` ` ` ( ` ^ F X.X.X.X.X.",
"X.X.X.X.F I ` ( ` ` ` ` ` ` ` } } } } } } } } } } } } } } } } } } [ ` ` ` ` ` ` ( ` U F X.X.X.X.",
"X.X.X.U H ( ( ` ` ` ` ` ` } } } } | } } } } } } } } } } } } } } } } [ ` ` ` ` ` ` ( ( K I X.X.X.",
"X.X.X.F ^ ` ` ` ` ` ` ` } } } } } E }  .} } } } } } } } } } } } } } } [ ` ` ` ` ` ` ( ^ F X.X.X.",
"X.X.P K ` ( ` ` ` ` ` } } } } }  .f a Y .. .} } } } } } } } } } } } } } [ ` ` ` ` ` ( ` L K X.X.",
"X.X.F ^ ` ` ` ` ` ` [ } } } } }  .z 1 9 x ! .. .| | } } } } } } } } } } } ` ` ` ` ` ` ( ^ F X.X.",
"X.U K ( ` ` ` ` ` [ } } } } } } ..z 5 9 3 0 N ' .. .| | | } } } } } } } } } [ ` ` ` ` ( ` K U X.",
"X.F U ` ` ` ` ` ` } } } } } } } ..z 6 9 9 9 2 q B | ..} ` ` ` ( ( ( ( ( ( ( ` ` ` ` ` ( ` W F X.",
"X.F ^ ` ` ` ` ` ` } } } } } } } ..z 6 9 9 9 9 5 5 a D | | ` ` ` ( ( ( ^ ^ ^ U U ^ ( ` ` ( ( F X.",
"U K ( ` ` ` ` ` [ } } } } } } } ..z 6 9 9 9 8 8 8 4 4 d T  .{ ` ` ( ( ( ^ ^ ^ U U U U ( ` ` K U ",
"L L ` ` ` ` ` ` } } } } } } } | ..z 5 9 9 8 8 8 8 7 7 & ; v Q  .` ( ( ( ^ ^ ^ U U U I P U ) U P ",
"F U ` ` ` ` ` [ } } } } } } } | ..z 5 8 8 8 8 8 7 7 7 ; ; o , m / { _ ( ^ ^ ^ ~ U U U I K K I F ",
"F ^ ` ` ` ` ` [ } } } } } } | | ..l 4 8 8 8 8 7 7 7 ; ; ; - % X w V ` { ^ ^ ^ ~ U U U I K K F F ",
"F ^ ` ` ` ` ` [ } } } } } } | |  .k 4 7 7 7 7 7 7 7 ; ; ; - - - @ + t A ` _ ^ ^ U U U I K K F F ",
"F ^ ` ` ` ` ` [ } } } } } } | } | l 4 7 7 7 7 7 ; ; ; ; - - - = = * + # y J _ ^ U U U I K K H F ",
"F ^ ` ` ` ` ` [ } } } } } | } ` | l & 7 7 7 ; ; ; ; ; - - - = = = * + # y J _ ^ U U U I K K H F ",
"F ^ ` ` ` ` ` [ } } } } } } ` ` | j & ; ; ; ; ; ; ; - - - - = = + + t Z ` _ ^ ^ U U U I K K F F ",
"F ^ ` ` ` ` ` [ } } } } } ` ` ` | h % ; ; ; ; ; - - - - - = $ . w V ` { ( ^ ^ ^ U U U I K K F F ",
"H U ` ` ` ` ` [ } } } } ` ( ` ` | h % - - - - - - - - = = . > n / { _ ( ^ ^ ^ ~ U U U I K K F F ",
"L L ` ` ` ` ` [ } } } } ( ( ( ` | g % - - - - - - - = @ = c Q  .] ( ( ( ^ ^ ^ ~ U U U P K K F L ",
"U K ( ` ` ` ` ` } } } ` ( ( ( ` | g @ - - - - = = @ @ s T  .} ` ` ( ( ( ^ ^ ^ U U U U P K H F U ",
"X.F ( ` ` ` ` ` [ } } ^ ^ ( ( ( { g @ = = = = @ + r C | | ` ` ` ( ( ( ^ ^ ^ ^ U U U I K K H F X.",
"X.H U ` ` ` ` ` ` } ` ^ ^ ( ( ( { i + = = $ . < M '  .] ` ` ` ( ( ( ( ^ ^ ^ ~ U U U I K K F H X.",
"X.U K ` ` ` ` ` ` } ( ^ ^ ^ ( ( { i + * O : b /  .{ ` ` ` ` ( ( ( ( ^ ^ ^ ~ U U U U P K K F U X.",
"X.X.F ^ ` ` ` ` ` ` ^ ^ ^ ^ ^ ( { u   * p R | { ` ` ` ` ( ( ( ( ( ^ ^ ^ ^ U U U U I K K F F X.X.",
"X.X.P P ` ` ` ` ` ` U ~ ^ ^ ^ ^ ` y e S { { ` ` ` ` ( ( ( ( ( ( ^ ^ ^ ^ U U U U I P K K F P X.X.",
"X.X.X.F ^ ` ` ` ` ( U U ^ ^ ^ ^ ^ G ^ { ( ( ( ( ( ( ( ( ( ( ^ ^ ^ ^ ^ U U U U U P K K F F X.X.X.",
"X.X.X.U K ( ` ` ` ^ U U U ~ ^ ^ ^ _ _ ^ ( ( ( ( ( ( ( ( ^ ^ ^ ^ ^ ^ U U U U U I K K H F U X.X.X.",
"X.X.X.X.F U ` ` ` ^ U U U U U ^ ^ ^ ^ ^ ^ ^ ^ ^ ^ ^ ^ ^ ^ ^ ^ ^ ~ U U U U U I P K K F F X.X.X.X.",
"X.X.X.X.X.F ^ ` ` ~ I U U U U U ^ ^ ^ ^ ^ ^ ^ ^ ^ ^ ^ ^ ^ ^ ^ U U U U U U I P K K F F X.X.X.X.X.",
"X.X.X.X.X.U F ^ ` U P I U U U U U U ~ ^ ^ ^ ^ ^ ^ ^ ^ ^ ~ U U U U U U U I P K K F F U X.X.X.X.X.",
"X.X.X.X.X.X.I F ^ U K P I U U U U U U U U U U U U U U U U U U U U U U I K K K F F I X.X.X.X.X.X.",
"X.X.X.X.X.X.X.I F L K K K P I U U U U U U U U U U U U U U U U U U I P K K K F F I X.X.X.X.X.X.X.",
"X.X.X.X.X.X.X.X.U F F K K K K P I U U U U U U U U U U U U U U I P K K K K F F U X.X.X.X.X.X.X.X.",
"X.X.X.X.X.X.X.X.X.X.F F H K K K K P I I I U U U U U U I I P P K K K K H F F X.X.X.X.X.X.X.X.X.X.",
"X.X.X.X.X.X.X.X.X.X.X.U F F H K K K K K K P P P P P P K K K K K K H F F U X.X.X.X.X.X.X.X.X.X.X.",
"X.X.X.X.X.X.X.X.X.X.X.X.X.K F F F K K K K K K K K K K K K K H F F F K X.X.X.X.X.X.X.X.X.X.X.X.X.",
"X.X.X.X.X.X.X.X.X.X.X.X.X.X.X.U K F F F F K K K K K K F F F F K U X.X.X.X.X.X.X.X.X.X.X.X.X.X.X.",
"X.X.X.X.X.X.X.X.X.X.X.X.X.X.X.X.X.X.U I K F F F F F F K I U X.X.X.X.X.X.X.X.X.X.X.X.X.X.X.X.X.X."
};
