/* XPM */
static const char *toolbar_plugin_gfx_xpm[] = {
/* columns rows colors chars-per-pixel */
"48 48 256 2",
"   c #0C4F95",
".  c #164C91",
"X  c #1A4F91",
"o  c #0E5096",
"O  c #0E5298",
"+  c #135296",
"@  c #1A5395",
"#  c #17589B",
"$  c #15488E",
"%  c #3E6292",
"&  c #145EA1",
"*  c #1D5EA0",
"=  c #0963A7",
"-  c #0663A8",
";  c #0B65A9",
":  c #0E6BAD",
">  c #0661A7",
",  c #1462A4",
"<  c #116BAD",
"1  c #1D6BAC",
"2  c #1566A9",
"3  c #1E70AE",
"4  c #056BB0",
"5  c #156FB0",
"6  c #0D74B4",
"7  c #0374B9",
"8  c #0A77B8",
"9  c #0A7BBB",
"0  c #0B78B7",
"q  c #1372B2",
"w  c #1D74B3",
"e  c #157BBB",
"r  c #1B7BBA",
"t  c #226EAD",
"y  c #2868A6",
"u  c #366EA8",
"i  c #396FA8",
"p  c #3A6AA4",
"a  c #2371AF",
"s  c #3D70A9",
"d  c #3572AC",
"f  c #2374B3",
"g  c #2579B6",
"h  c #247CBB",
"j  c #2B7DBA",
"k  c #2976B3",
"l  c #327AB5",
"z  c #3D7CB3",
"x  c #317EBB",
"c  c #4D6B93",
"v  c #446796",
"b  c #567598",
"n  c #4174AB",
"m  c #497AAF",
"M  c #4A79AE",
"N  c #447DB2",
"B  c #4A7EB2",
"V  c #547EB0",
"C  c #007DC5",
"Z  c #0B80BF",
"A  c #0F8CBF",
"S  c #1888BA",
"D  c #2C87AF",
"F  c #3A87A9",
"G  c #3886AA",
"H  c #2488B3",
"J  c #2780BE",
"K  c #2B82BE",
"L  c #3381BC",
"P  c #3B83BD",
"I  c #3D81B7",
"U  c #56859E",
"Y  c #708D9E",
"T  c #7E959F",
"R  c #4685A4",
"E  c #4481B5",
"W  c #4D82B5",
"Q  c #4385BA",
"!  c #4C85B9",
"~  c #4D8ABD",
"^  c #448ABD",
"/  c #5084B7",
"(  c #5186B9",
")  c #538BBD",
"_  c #5C88B7",
"`  c #5485A1",
"'  c #618FBC",
"]  c #6D92BB",
"[  c #789BBB",
"{  c #7394A6",
"}  c #0383C4",
"|  c #0A82C1",
" . c #0B8DC3",
".. c #0086CA",
"X. c #018CCD",
"o. c #078CC8",
"O. c #1C85C3",
"+. c #1387C5",
"@. c #0190CE",
"#. c #1E93CF",
"$. c #1291CF",
"%. c #008FD1",
"&. c #0194D2",
"*. c #0897D4",
"=. c #0C99D6",
"-. c #0299D8",
";. c #0E9AD9",
":. c #0598D4",
">. c #1499D6",
",. c #1C9AD6",
"<. c #129AD8",
"1. c #1E9AD4",
"2. c #2485C3",
"3. c #2C86C2",
"4. c #2589C7",
"5. c #2C8BC5",
"6. c #2B8CC9",
"7. c #3386C2",
"8. c #3A86C1",
"9. c #3C8AC4",
"0. c #328EC9",
"q. c #378DC8",
"w. c #2993CE",
"e. c #3392CC",
"r. c #3B93CC",
"t. c #3393C7",
"y. c #229DD5",
"u. c #2B9DD5",
"i. c #239CD8",
"p. c #2A9FD9",
"a. c #3C99D3",
"s. c #2BA2DA",
"d. c #2CA6DA",
"f. c #34A3D7",
"g. c #34A4DA",
"h. c #3CA5DD",
"j. c #34AADC",
"k. c #3BADDE",
"l. c #428BC4",
"z. c #4D8EC3",
"x. c #538EC1",
"c. c #588FC1",
"v. c #4292CA",
"b. c #469ACE",
"n. c #5491C3",
"m. c #5B94C3",
"M. c #5F9BCB",
"N. c #499DD4",
"B. c #6999C2",
"V. c #6299C8",
"C. c #6995C0",
"Z. c #769DC3",
"A. c #53A4CF",
"S. c #41A7DF",
"D. c #44ACDE",
"F. c #4BAFDF",
"G. c #4AA4DA",
"H. c #58A8D8",
"J. c #59B0DF",
"K. c #63AED8",
"L. c #6AB1D4",
"P. c #78B7D6",
"I. c #6FA3CA",
"U. c #46AAE0",
"Y. c #4CADE2",
"T. c #52AFE3",
"R. c #4EB0E0",
"E. c #54B1E3",
"W. c #5CB5E4",
"Q. c #5EB6E8",
"!. c #61B7E4",
"~. c #65B9E6",
"^. c #6ABBE7",
"/. c #63BAEA",
"(. c #6CBDE9",
"). c #75BBE5",
"_. c #72BEE9",
"`. c #6FC1EE",
"'. c #75C1EB",
"]. c #7BC4EC",
"[. c #7DC6F0",
"{. c #8E8C8C",
"}. c #878584",
"|. c #939291",
" X c #9D9C9B",
".X c #999897",
"XX c #87989F",
"oX c #A09F9E",
"OX c #A1A09F",
"+X c #939DA7",
"@X c #849CB3",
"#X c #98A1A3",
"$X c #9CA7AA",
"%X c #85A2BF",
"&X c #99A5B4",
"*X c #A5A4A4",
"=X c #A9A7A6",
"-X c #ABA8A6",
";X c #ACABAB",
":X c #A2ACAF",
">X c #B1AEAC",
",X c #B2B0AF",
"<X c #B8B0AD",
"1X c #A8ADB3",
"2X c #ADB2B4",
"3X c #AEB6BC",
"4X c #A7B5BF",
"5X c #B4B3B2",
"6X c #B9B7B5",
"7X c #BAB8B7",
"8X c #B4B8BA",
"9X c #BCBCBB",
"0X c #B7B8B8",
"qX c #C1BEBD",
"wX c #C2C1BF",
"eX c #C8C1BE",
"rX c #8AA6C3",
"tX c #85A8C7",
"yX c #95AFC7",
"uX c #90ACC8",
"iX c #9CB7C8",
"pX c #84BDD8",
"aX c #8BB8CD",
"sX c #A2B6C4",
"dX c #AABBCA",
"fX c #B2B9C1",
"gX c #8CC0DA",
"hX c #98C3D7",
"jX c #ACC2CD",
"kX c #BEC2C5",
"lX c #B3C1CB",
"zX c #BDC3C8",
"xX c #A3C2D2",
"cX c #80C6EE",
"vX c #84C9EF",
"bX c #C4C4C3",
"nX c #CAC6C4",
"mX c #CAC9C6",
"MX c #CCCCCB",
"NX c #D1CFCE",
"BX c #D6D0CD",
"VX c #D8D2CF",
"CX c #D4D3D3",
"ZX c #D9D6D6",
"AX c #DAD8D6",
"SX c #DBDADA",
"DX c #E3DDDA",
"FX c #E1D9D6",
"GX c #E7E0DD",
"HX c #EAE3DF",
"JX c #E3E2E2",
"KX c #EBE5E2",
"LX c #EBEBEB",
"PX c #F3F3F3",
"IX c gray99",
"UX c None",
/* pixels */
"UXUXUXUX-X-X;X-X-X-X-X-X-X-X-XUXUXUXUXUXUXUXUXUXUXUXUXUXUXUXUXUXUXUXUXUXUXUXUXUXUXUXUXUXUXUXUXUX",
"UXUXUXUX-X=X;X;X;X>X>X>X>X>X>X>X>X>X,X5X6X9XqXqXwXbXnXnXmXmXMXMXMXMXMXMXMXMXmXmXbXbXbX9XbXUXUXUX",
"UXUXUXUX-X:Xv % v c c c c b b b b Y T XX+X#X#X$X$X$X:X2X2X0X7XqXeXnXnXnXnXnXnXnXnXnXbXwXMX>XUXUX",
"UXUXUXUX;X&X@ $ . . . . . . . . . 9 @.o.o. . . .A A S S S H H D D F F F R R R ` ` U { bXCX;X|.UX",
"UXUXUXUX>X@X@ X @ @ @ @ @ @ @ @ @ 0 -.*.=.;.<.<.;.;.-.-.-.-.&.&.&.%.%.X.X.......} C 5.mXCX;X|.UX",
"UXUXUXUX>X[ @ @ @ @ @ @ @ @ @ # @ 5 <.,.1.i.i.i.i.i.,.>.=.:.&.&.&.&.X.X.X.X.......C t.NXCX;X|.UX",
"UXUXUXUX>XrXs n n s s s i i u u p l h.h.h.h.h.h.g.g.g.s.p.,.<.:.&.&.&.X.X.X.......C r.BXZX=X|.UX",
"UXUXUX-X>XrXn m m m B B B B B W B ( J.W.W.W.W.W.W.W.W.E.E.Y.D.k.d.d.s.s.y.y.y.1.#.$.A.CXAX*X|.UX",
"UXUXUX-X>X%Xn m N N N N N B B W W / H.W.!.!.!.!.!.!.W.W.W.E.E.R.D.k.j.j.j.g.f.f.f.u.L.ZXSX*X|.UX",
"UXUXUX-X;X[ N N N N N E E W W W / / H.~.~.~.^.^.~.~.~.!.W.W.E.E.F.D.j.j.j.g.f.f.f.u.L.AXSXOXUXUX",
"UXUXUX-X2XB.z N N E E E W ! W ( ( ( H.(.^.(.(.(.(.^.^.~.~.!.W.E.E.F.k.j.j.j.g.f.f.u.P.DXSXoXUXUX",
"UXUXUX-X5XB.z E E E E ! ! ! ( ) ) ) M.(._._._._._._.(.^.~.~.W.W.E.R.D.j.j.j.g.f.f.u.P.DXSX XUXUX",
"UXUXUX=X0XI.z E Q Q Q ! ~ ) ) ) ) ) M._.'.'.'.'.'._._.(.^.~.!.W.W.E.F.k.j.j.j.f.f.u.pXGXSX XUXUX",
"UXUXUX=X0XK.I Q Q Q Q ~ ~ ) ) c.c.m.M._.].].].].].'.'._.(.^.~.!.W.E.R.D.j.j.j.g.f.u.gXHXSX XUXUX",
"UXUXUX=X3XD.L Q ^ ^ ~ ~ ) x.n.n.m.m.m.).].].cXcX].].].'._.(.^.~.W.W.E.D.j.d.s.y.,.X.P.HXSX XUXUX",
"UXUXUX-XsX,.8 3 g L ^ ~ x.n.m.m.M.V.V.).vXvXvXvXvXcX].'._.(.~.W.E.D.h.s.;.:.&.X.X...pXKXSX XUXUX",
"UXUXUX-XiX=.} : : q w g l L P l.z.z.n.K.'.].].[.'.'.^.Q.E.Y.U.h.g.s.i.,.*.&.&.X.X...pXKXSX XUXUX",
"UXUXUX-XiX:.X.6 6 q w g g j j x L P P N./.(.`.`.(./.Q.E.T.Y.U.h.h.g.p.,.*.&.&.@.X...gXHXSX XUXUX",
"UXUXUX-XiX&.%.9 6 q w h j j L L 8.8.8.b././.(.(././.Q.E.T.Y.U.h.h.g.p.,.*.&.&.X.X...hXHXSX XUXUX",
"UXUXUX-XaX%.&.} 6 0 r h j K L 7.8.9.l.v.Q././././.Q.W.E.Y.Y.S.h.g.g.p.,.:.&.&.X.X...hXGXZX.XUXUX",
"UXUXUX>XP.X.X.X.0 0 r h J K 7.7.9.9.l.v.T.Q././.Q.W.E.E.Y.U.S.h.g.p.i.>.:.&.&.X.X...hXDXCX.XUXUX",
"UXUX-X>XL.X.X.&.Z 9 e S 2.3.7.7.q.q.v.v.F.W.W.W.W.E.E.Y.Y.U.h.h.g.p.i.>.&.&.&.X.X...xXFXCX.XUXUX",
"UXUX-X>XK...X.&.} 9 Z O.2.3.5.0.q.r.r.v.G.E.E.E.E.T.Y.Y.U.S.h.g.s.p.,.*.&.&.&.X.X...xXAXNX.XUXUX",
"UXUX-X<XK...X.@.X.9 | +.2.4.5.0.0.r.r.r.N.Y.Y.Y.Y.Y.Y.U.S.h.g.g.p.i.>.:.&.&.X.X.X...xXZXMX|.UXUX",
"UXUX-X5XH...X.X.@.} | | O.4.6.6.e.e.r.r.a.U.U.U.U.U.U.h.h.h.g.p.i.,.*.&.&.&.X.X...o.jXVXmX|.UXUX",
"UXUX-X2Xb.C } } ..| 9 | +.O.2.5.6.0.e.e.a.h.S.S.S.h.h.h.g.g.s.p.,.=.&.&.&.@.X.X...o.jXBXmX|.UXUX",
"UXUX-X3Xt.7 9 9 9 9 0 0 0 e r h J K K 3.3.0.e.e.e.e.e.e.w.w.w.#.$.@.@.X.X.X.X.X...o.lXMXbX|.UXUX",
"UXUX=X8XK 4 6 6 6 6 6 6 6 6 q w g g g g g j K K j j j h h h r e 0 0 0 0 8 8 8 8 7 0 4XmXbX|.UXUX",
"UXUX=X8Xj > ; ; - - > = = ; ; < < 1 1 t a f f f f f f f w w q < : < < < < < < < ; 2 &XnXbX|.UXUX",
"UXUX=X2XdXuXtXZ.Z.B.m.~ Q z l k t t 1 2 , , , , , , , , , , , , , , , , , , , & & & &XbXbX|.UXUX",
"UXUX-X=X-X;X;X,X5X5X5X3X3X3XfXfXsXyXyXyXuXtXZ.C.' _ W N d y y * # # # O   o o + o + &XeXwX|.UXUX",
"UXUX-X-X-X-X-X-X-X-X-X-X-X=X=X=X-X-X;X>X,X5X0X9X9XbXzXlXlXlXlXdXiXuXrXrXZ.] _ V M p +XqX9X|.UXUX",
"UX=X*X*X*X*X*X*X=X=X=X=X=X-X-X-X-X-X-X-X;X;X;X>X,X5X5X6X7X7X7X9X9XwXwXbXbXbXkXkXmXkX2X7X9X|.UXUX",
"UXUXJXSXCXMXbX9X9X5X;X;X=X=X=X*X*X*X*X=X=X=X-X;X;X5X5X5X5X5X6X7X7X7X7X7X7X6X6X6X5X5X5X6X9X|.UXUX",
"UXUXUXUXUXUXUXUXUXUXPXPXPXJXAXCXNXmXbXbX9X0X5X5X;X;X;X;X;X;X>X,X5X5X5X5X5X5X5X5X5X>X;X5X7X|.UXUX",
"UXUXUXUXUXUXUXUXUXUXUXUXUXUXmXmXbXbXMXbXbXnXmXmXMXMXMXNXMXMXmXbXbX9X0X6X5X;X-X-X=X=X*X;X6X|.UXUX",
"UXUXUXUXUXUXUXUXUXUXUXUXUX6X5X;X5X6X9X;X{.{.{.{.|..X.X*X7XbXMXMXMXCXCXCXSXJXJXZXMXbX9XbX7XUXUXUX",
"UXUXUXUXUXUXUXUXUXUXUXUX5X;X;X5X6X9XbXbX6X5X5X>X;X=X*X X;X9X9X6X,X;X;X;X5XbXUXUXUXUXUXUXUXUXUXUX",
"UXUXUXUXUXUXUXUXUXUXUX>X;X;X,X5X7X9XbXmXMXCXZXAXZXZXCXMXMXbXwX9X0X5X;X;X;X;XUXUXUXUXUXUXUXUXUXUX",
"UXUXUXUXUXUXUXUXUXUXUX;X;X>X5X6X9XbXmXMXCXCXZXAXAXAXZXCXMXmXbX9X7X5X>X;X;X;X;XUXUXUXUXUXUXUXUXUX",
"UXUXUXUXUXUXUXUXUXUX;X;X;X>X5X7X9XbXmXMXCXZXAXAXSXAXZXAXCXMXmX9X9X5X,X;X;X;X;XUXUXUXUXUXUXUXUXUX",
"UXUXUXUXUXUXUXUXUXUXUX>X;X>X5X7X9XbXmXCXZXAXSXSXSXSXZXSXJXCXCXmX7X6X5X;X;X;X*XUXUXUXUXUXUXUXUXUX",
"UXUXUXUXUXUXUXUXUXUXUX*X5X>X5X9XqXbXMXCXZXAXSXSXSXSXAXSXKXJXMXSXmX5X5X;X>X;XUXUXUXUXUXUXUXUXUXUX",
"UXUXUXUXUXUXUXUXUXUXUXUX;X6X5X7XqXbXMXCXZXAXSXSXSXSXAXAXKXLXSXmXLXCX;X5X6XUXUXUXUXUXUXUXUXUXUXUX",
"UXUXUXUXUXUXUXUXUXUXUXUXUX-XwX9X9XbXmXMXCXZXAXSXSXAXZXCXJXPXPXmXMXIXJX;XUXUXUXUXUXUXUXUXUXUXUXUX",
"UXUXUXUXUXUXUXUXUXUXUXUXUXUX{.6XmXMXMXMXCXCXZXZXZXZXZXCXSXIXIXPXmXCX5XUXUXUXUXUXUXUXUXUXUXUXUXUX",
"UXUXUXUXUXUXUXUXUXUXUXUXUXUXUXUXUX*X9XMXAXSXJXJXJXJXSXAXSXLXCX7X{.UXUXUXUXUXUXUXUXUXUXUXUXUXUXUX",
"UXUXUXUXUXUXUXUXUXUXUXUXUXUXUXUXUXUXUXUXUX|. X*X=X*X X|.}.UXUXUXUXUXUXUXUXUXUXUXUXUXUXUXUXUXUXUX"
};
