/* XPM */
static char *toolbar_stop_dis_xpm[] = {
/* columns rows colors chars-per-pixel */
"48 48 74 1",
"  c #566167",
". c #576268",
"X c #5C666C",
"o c #5E686E",
"O c #5F6970",
"+ c #626D74",
"@ c #657077",
"# c #667279",
"$ c #69757D",
"% c #6B787F",
"& c #6D7A83",
"* c #717E87",
"= c #727F88",
"- c #74838C",
"; c #768791",
": c #7B8B95",
"> c #7F8E98",
", c #838C92",
"< c #808F98",
"1 c #869095",
"2 c #84939C",
"3 c #8B959A",
"4 c #8D989E",
"5 c #8696A0",
"6 c #8896A0",
"7 c #8B9AA4",
"8 c #8E9EA8",
"9 c #909FA9",
"0 c #94A2AB",
"q c #99A6AE",
"w c #97A6B0",
"e c #9DAAB2",
"r c #A1AEB6",
"t c #A5B0B7",
"y c #A6B2BA",
"u c #AAB6BD",
"i c #ACB8BF",
"p c #AEB9C1",
"a c #B2BDC5",
"s c #B6C0C7",
"d c #B7C1C8",
"f c #BBC5CC",
"g c #BFC8CF",
"h c #C0C8CF",
"j c #CDCCCC",
"k c #D0CFCF",
"l c #C4CDD3",
"z c #C9CFD5",
"x c #C7D0D5",
"c c #C9D1D7",
"v c #CDD5DB",
"b c #CFD8DD",
"n c #D4D3D3",
"m c #D1D6DA",
"M c #D2D9DE",
"N c #DCDBDB",
"B c #E0DFDF",
"V c #D6DCE1",
"C c #D8DFE3",
"Z c #DCE1E5",
"A c #DFE4E8",
"S c #E3E3E3",
"D c #E8E7E7",
"F c #E1E6E9",
"G c #E5E9ED",
"H c #EBECEC",
"J c #EAEEF1",
"K c #EDF0F2",
"L c #F3F4F4",
"P c #F8F7F7",
"I c #F5F7F8",
"U c #F7F8F9",
"Y c #FDFEFE",
"T c None",
/* pixels */
"TTTTTTTTTTTTTTTTTTTTnnnnnnkjTTTTTTTTTTTTTTTTTTTT",
"TTTTTTTTTTTTTTTTnNSHLUYYYYPLHSnjTTTTTTTTTTTTTTTT",
"TTTTTTTTTTTTTTNDLYYYYULHHLUYYYYLSnTTTTTTTTTTTTTT",
"TTTTTTTTTTTTNHYYYHcu02<::<20ucHYYPDnTTTTTTTTTTTT",
"TTTTTTTTTTnDYYYme>--;:>>>::;-->emYYISjTTTTTTTTTT",
"TTTTTTTTTNLYYM0;;>680qqeeqq086>;;0MYYHnTTTTTTTTT",
"TTTTTTTTSUYKt::20errrrrrrrrrrre02:;rLYLnTTTTTTTT",
"TTTTTTTSYYC7:50rtttyyyyyyyyyyttrr02:7CYLNTTTTTTT",
"TTTTTTSYYm229ryyuuuippppppppiuuyyye822mYLnTTTTTT",
"TTTTTNUYM25qyuippaaaaaaaaaaaaapppuuyq52mYLnTTTTT",
"TTTTnIYZ77euppaaasddfffffffdddaaaapiue66ZYHjTTTT",
"TTTTHYLq7epaaasdffffgggggggfffffdsaappe70LYBTTTT",
"TTTBYYa7eaaadffgghllllllllllllggffddaape7aYInTTT",
"TTTLYZ9easdffgllllxcccccccccxzlllggfddape8ZYDTTT",
"TTSYYuwidffglllxccvvvbbbbbvvvvcczlllgfddu0yYPnTT",
"TTLYZwydfgllzccvMMMMMMMMMMMMVVMMvcxllgffstqZYSTT",
"TNYYdeagglzcvvbMlfgggggggfffffflMbvcxllgfaedYLjT",
"TDYLyfgllxcvbbbM4#&*----*&%$#+X,VbbbvczlggftLYnT",
"THYCybvlcvbbbbbM4#&*----*&&$@+X,VbbbbvcxlvbyCYST",
"TIYlaVCcvbbbbbmV4$&=----*&&$#+X,VmbbbbvccCVplYHT",
"NYYffCZVvbbbbMMM3#&*----*&%$#+X,VMmbbbbvVZVfdYLj",
"NYUdlCZAVvbmMMvc1#&&****&&$$@+X,cvMMbbvVZZClaYPj",
"SYUfcCZAAVbMbclc1@%&&&&&&%$#@+X,clcbMbMAZZCzsUUn",
"SYLfcCZAAAVvzllc1+$%%&&%$$#@++.,cllzvVAAZZCcfLYn",
"SYLgcCZAAFFvllxc1+#$$$$$$#@++o.,vxllvAFAZZCcfLYn",
"SYUlcCZAAAZAMxzc,O@@#####+++Oo.,czxMZZZAZZCclUUn",
"SYYzcCZAZCZZFZmc,X+++++++++ooo.,cmZFZCCZZZCczYPn",
"BYYvlVZZCCZZAFGG1.O++++++Ooooo.1FGFAZCVVZZVlvYLk",
"TPYVlVZCMVCZAFFJ3.oooooooooooo.3JFAZZCVMVZVlVYHT",
"TLYGlMCMMVCZZAFJ3 oooooooooooo 3GFAZZCVMMCblGYDT",
"TDYIlvMMMVCZZZFG3.oooooooooooo.3GAZZCVVMbMclIYNT",
"TSYYMlvmMVVCZZAFmcvvmmmmmmmmvczmFAZZCVVMbvlMYLnT",
"TTLYHlvbMMVVZZZAGGJJJKKKKKKJJGGGAZZCVVMMvclHYDTT",
"TTDYYvzvbMVVCZZZAFFFFGGGGGGFFFAAZZCVVMMbvlvYYNTT",
"TTTPYJlcbMMVVCCZZZAFFFFFFFFFFAZZZCVVVMMvclHYHTTT",
"TTTDYYMlvbMMVVCZZZZAAAAFAAAAZZZZCVVVMmbvlMYYNTTT",
"TTTTLYUcxvbMMVVVCZZZZZZZZZZZZZCCVVVMMbvxcUYDTTTT",
"TTTTBYYKzcvbMMVVVCCCZZZZZZZZCCCVVMMMbvczKYLnTTTT",
"TTTTTDYYHlcvbMMMVVVCCCCCCCCCVVVVMMbbvclHYUNTTTTT",
"TTTTTTHYYHxcvvbMMMVVVVVVVVVVVMMMMbvvczHYYSTTTTTT",
"TTTTTTTHYYKvzvvbmMMMMVVVVVMMMMMbvvvzvKYYSTTTTTTT",
"TTTTTTTTHYYUVzcvvbbMMMMMMMMMMbvvvczVUYUSTTTTTTTT",
"TTTTTTTTTDYYYJMxcvvvvbvbbvbvvvvcxMJYYLNTTTTTTTTT",
"TTTTTTTTTTSLYYYJVcxccvvvvvvccxcVJYYYHnTTTTTTTTTT",
"TTTTTTTTTTTTDPYYYIHZMvvvvvvMZHIYYYLBTTTTTTTTTTTT",
"TTTTTTTTTTTTTTDLYYYYYYUIIUYYYYYULSTTTTTTTTTTTTTT",
"TTTTTTTTTTTTTTTTSDLPYYYYYYYYIHDNTTTTTTTTTTTTTTTT",
"TTTTTTTTTTTTTTTTTTTTSSSSSSBNTTTTTTTTTTTTTTTTTTTT"
};
