/* XPM */
static const char *toolbar_play_dis_xpm[] = {
/* columns rows colors chars-per-pixel */
"48 48 82 1",
"  c #566067",
". c #576168",
"X c #5C666C",
"o c #5E686E",
"O c #5F6A70",
"+ c #616C72",
"@ c #657077",
"# c #66727A",
"$ c #69757C",
"% c #6D787F",
"& c #6B7780",
"* c #6D7A83",
"= c #717D84",
"- c #727F88",
"; c #798287",
": c #74838C",
"> c #768691",
", c #788791",
"< c #7B8B95",
"1 c #7F8E98",
"2 c #838D93",
"3 c #808F98",
"4 c #8A9297",
"5 c #84939D",
"6 c #8C969D",
"7 c #8696A0",
"8 c #8896A0",
"9 c #8B9AA4",
"0 c #8E9EA8",
"q c #939CA2",
"w c #909FA9",
"e c #96A0A6",
"r c #94A2AB",
"t c #9AA6AD",
"y c #9FA8AE",
"u c #97A6B0",
"i c #9DAAB2",
"p c #A1AEB6",
"a c #A5B0B7",
"s c #A6B2BA",
"d c #ABB5BC",
"f c #ACB8BF",
"g c #B1BABF",
"h c #AEB9C1",
"j c #B3BDC5",
"k c #B6C0C7",
"l c #BBC2C6",
"z c #B7C1C8",
"x c #BBC5CB",
"c c #BFC8CF",
"v c #C2C7CB",
"b c #C2C9CE",
"n c #CDCCCC",
"m c #D0CFCF",
"M c #C4CDD3",
"N c #C8CFD5",
"B c #C7D0D5",
"V c #C9D1D7",
"C c #CDD5DB",
"Z c #CFD8DD",
"A c #D4D3D3",
"S c #D1D7DB",
"D c #D2D9DE",
"F c #DCDBDB",
"G c #E0DFDF",
"H c #D6DCE1",
"J c #D8DFE3",
"K c #DCE1E5",
"L c #DFE4E8",
"P c #E3E3E3",
"I c #E8E7E7",
"U c #E1E6E9",
"Y c #E6EAED",
"T c #EAECED",
"R c #EAEEF0",
"E c #EEF1F3",
"W c #F3F4F4",
"Q c #F8F7F7",
"! c #F5F7F8",
"~ c #F7F8F9",
"^ c #FDFEFE",
"/ c None",
/* pixels */
"////////////////////AAAAAAmn////////////////////",
"////////////////AFPTW~^^^^QWTPAn////////////////",
"//////////////FIW^^^^~WTTW~^^^^WPA//////////////",
"////////////FT^^^TVdr53<<35rdVT^^QIA////////////",
"//////////AI^^^Si1::><111<<>::1iS^^QPn//////////",
"/////////FW^^Sr>>180rttiittr081>>rS^^TA/////////",
"////////P~^Ea,<5rippppppppppppir5<,pW^WA////////",
"///////P^^J9<7rpaaassssssssssaappr5,9J^WF///////",
"//////P^^S55wpssdddfhhhhhhhhfddsssi055S^WA//////",
"/////F~^D57tsdfhhjjjjjjjjjjjjjhhhddst75S^WA/////",
"////AQ^K99idhhjjjkzzxxxxxxxzzzjjjjhfdi88K^Tn////",
"////T^Wt9ihjjjkzxxxxcccccccxxxxxzkjjhhi9rW^G////",
"///G^^j9ijjjzxxccbMMMMMMMMMMMMccxxzzjjhi9j^QA///",
"///W^KwijkzxxcMMMVCVVVVVVVVVVNMMMccxzzjhi0K^I///",
"//P^^dufzxxcMMNVCldDDCCZZCCCCCVVNMMMcxzzdrs^QA//",
"//W^KuszxcMMNVVCHdX2xJDZZZZZZZZCCVVNMcxxkarK^P//",
"/F^^zijccMNVCCZZHgX +qNJDZZZZZZZZCCVVMMcxjiz^Wn/",
"/I^WsxcMMVVCZZZZHgXXX.#yCHDZZZZZZZZZCVNMccxaW^A/",
"/T^JsZCMVCCZZZZZHgXXooX.=dDHDDSZZZZZZCVVMCZsJ^P/",
"/Q^MjHJVCZZZZZSDJjXXooo+oO2jDDDDDZZZZZCVVJHhM^T/",
"F^^xxJKHCZZZZDDSDdXXoo++#$@#6lCCSDSZZZZCHKHxz^Wn",
"F^~zMJKLHCZSDDCBVdXXo++#%**&#%qbCCDDZZCHKKJMj^Qn",
"P^~xVJKLLHZDZVMMCdXXo+#%*-:-*$+%yNCCDZDLKKJNk~~A",
"P^WxVJKLLLHCNMNNCdXXo+#*-:>:=*#O.=sVCHLLKKJVxW^A",
"P^WcVJKLLUUCMNBBCdXXo+$*-:,:-*#+.=sNCLULKKJVxW^A",
"P^~MVJKLLLKLDBNBCdXXo+#&=:::*$+%yBCDKKKLKKJVM~~A",
"P^^NVJKLKJKKUKSNCdXXo+@$**=*#*ebCSKUKJJKKKJVN^QA",
"G^^CMHKKJJKKLUYLJfXXoo+@$$#$6xDHLUULKJHHKKHMC^Wm",
"/Q^HMHKJDHJKLUUYEbXXooo+O+2xKUYTYULKKJHDHKHMH^T/",
"/W^YMDJDDHJKKLUUEbXXooX ;vEWERTYUULKKJHDDJZMY^I/",
"/I^!MCDDDHJKKKUURbXXX $dR!ERTTYUULKKJHHDZDVM!^F/",
"/P^^DMCSDHHJKKLURvX +tL!ERTTYYUUULKKJHHDZCMD^WA/",
"//W^TMCZDDHHKKKLYl.4SWRTTTYYYUUULKKJHHDDCVMT^I//",
"//I^^CNCZDHHJKKKUVlTRYYYYYYUUULLKKJHHDDZCNC^^F//",
"///Q^RMVZDDHHJJKKLYUUUUUUUUUULKKKJHHHDDCVMT^T///",
"///I^^DMCZDDHHJKKKKLLLLULLLLKKKKJHHHDSZCMD^^F///",
"////W^~VBCZDDHHHJKKKKKKKKKKKKKJJHHHDDZCBV~^I////",
"////G^^ENVCZDDHHHJJJKKKKKKKKJJJHHDDDZCVNE^WA////",
"/////I^^TMVCZDDDHHHJJJJJJJJJHHHHDDZZCVMT^~F/////",
"//////T^^TBVCCZDDDHHHHHHHHHHHDDDDZCCVNT^^P//////",
"///////T^^ECNCCZSDDDDHHHHHDDDDDZCCCNCE^^P///////",
"////////T^^~HNVCCZZDDDDDDDDDDZCCCVNH~^~P////////",
"/////////I^^^RDVVCCCCZCZZCZCCCCVVDR^^WF/////////",
"//////////PW^^^RHVVVVCCCCCCVVVVHR^^^TA//////////",
"////////////IQ^^^!TKDCCCCCCDKT!^^^WG////////////",
"//////////////IW^^^^^^~!!~^^^^^~WP//////////////",
"////////////////PIWQ^^^^^^^^QTIF////////////////",
"////////////////////PPPPPPGF////////////////////"
};
