/* XPM */
static const char *toolbar_plugin_options_dis_xpm[] = {
/* columns rows colors chars-per-pixel */
"48 48 223 2",
"   c #6A6766",
".  c #6D6A69",
"X  c #706E6D",
"o  c #767372",
"O  c #797675",
"+  c #7A7877",
"@  c #7D7B7A",
"#  c #AE241B",
"$  c #B22018",
"%  c #B9241C",
"&  c #AF2920",
"*  c #B32C23",
"=  c #BC2B23",
"-  c #B6372E",
";  c #BD3029",
":  c #BB3A33",
">  c #D91E0E",
",  c #D91E12",
"<  c #CC2102",
"1  c #D92904",
"2  c #DA270E",
"3  c #D32C0F",
"4  c #DB2C0F",
"5  c #D0360C",
"6  c #DC330C",
"7  c #D13E09",
"8  c #DD3C0D",
"9  c #CE2110",
"0  c #CF291E",
"q  c #DA2614",
"w  c #DB2911",
"e  c #D6261C",
"r  c #D5291E",
"t  c #DB2D1A",
"y  c #DB3313",
"u  c #DD3C16",
"i  c #DC331B",
"p  c #DD3B1A",
"a  c #CC2F25",
"s  c #D52D24",
"d  c #CE3026",
"f  c #C6342C",
"g  c #DE3A26",
"h  c #C03D37",
"j  c #CA3E37",
"k  c #D03D37",
"l  c #DC3D34",
"z  c #E13C32",
"x  c #BB433B",
"c  c #D24404",
"v  c #DF4F06",
"b  c #DE4609",
"n  c #DE4416",
"m  c #DF4917",
"M  c #DE431A",
"N  c #DF4B18",
"B  c #E24D1A",
"V  c #E15416",
"C  c #E55C12",
"Z  c #CF4239",
"A  c #DF4133",
"S  c #D5463F",
"D  c #DA483E",
"F  c #E04D24",
"G  c #E04A2E",
"H  c #E15222",
"J  c #E04736",
"K  c #E14F3E",
"L  c #E5663E",
"P  c #BF4C45",
"I  c #BC5347",
"U  c #817F7E",
"Y  c #C74740",
"T  c #CB4740",
"R  c #C54B44",
"E  c #CB4B44",
"W  c #C84F49",
"Q  c #D44741",
"!  c #DD4640",
"~  c #D04A42",
"^  c #DA4C42",
"/  c #DB4E4A",
"(  c #C5514B",
")  c #CC524B",
"_  c #C25A4E",
"`  c #D4514A",
"'  c #DC534B",
"]  c #C65A53",
"[  c #D05852",
"{  c #E04D49",
"}  c #E55647",
"|  c #E35F46",
" . c #E3554A",
".. c #E45C4A",
"X. c #C0665B",
"o. c #C16859",
"O. c #D1655E",
"+. c #E46245",
"@. c #E4644A",
"#. c #E26A4C",
"$. c #E5734B",
"%. c #E6685B",
"&. c #E97F55",
"*. c #E2775E",
"=. c #C06560",
"-. c #C36A63",
";. c #CB6A64",
":. c #D26C67",
">. c #D36D68",
",. c #CE746E",
"<. c #DB736D",
"1. c #D77772",
"2. c #DA7771",
"3. c #D97974",
"4. c #DD7F7A",
"5. c #E47A63",
"6. c #E87F63",
"7. c #E3716C",
"8. c #82807F",
"9. c #DB837E",
"0. c #EA8663",
"q. c #EB9B6F",
"w. c #E58672",
"e. c #E89373",
"r. c #848281",
"t. c #898786",
"y. c #8B8887",
"u. c #8D8B8A",
"i. c #908F8E",
"p. c #91908F",
"a. c #949291",
"s. c #989695",
"d. c #9A9897",
"f. c #9D9B9B",
"g. c #A09F9E",
"h. c #A5A4A3",
"j. c #A9A7A6",
"k. c #AAA8A7",
"l. c #ADABAA",
"z. c #B1AFAF",
"x. c #B1B0AF",
"c. c #B5B4B4",
"v. c #B8B7B6",
"b. c #B9B8B7",
"n. c #BCBBBB",
"m. c #D08B83",
"M. c #E08782",
"N. c #E88782",
"B. c #E48883",
"V. c #E88D88",
"C. c #E5938F",
"Z. c #E89692",
"A. c #E79996",
"S. c #EC9F9B",
"D. c #DAA59C",
"F. c #F2AE8D",
"G. c #F2AD9C",
"H. c #F4BA9C",
"J. c #C0BFBF",
"K. c #EAAAA7",
"L. c #E1AEAA",
"P. c #E8AFAC",
"I. c #F1A7A3",
"U. c #EFB1A4",
"Y. c #E4B0AD",
"T. c #F4BDA6",
"R. c #F0B2AF",
"E. c #E7B3B0",
"W. c #EEB6B3",
"Q. c #E7B9B6",
"!. c #EDB8B5",
"~. c #BFC0BE",
"^. c #C0C0BF",
"/. c #F6C4B4",
"(. c #F6C2B8",
"). c #F8D3BC",
"_. c #C4C4C3",
"`. c #C8C7C6",
"'. c #C8C8C7",
"]. c #CCCCCB",
"[. c #D0CFCF",
"{. c #CFD0CF",
"}. c #D0D0CF",
"|. c #CED2D2",
" X c #D4D3D3",
".X c #D8D7D7",
"XX c #D8D8D7",
"oX c #D6DADB",
"OX c #DCDBDB",
"+X c #E9C5C3",
"@X c #EDC9C6",
"#X c #EECBC9",
"$X c #F7C6C3",
"%X c #F7CCC2",
"&X c #F8D6C1",
"*X c #E0DFDF",
"=X c #F3D6D4",
"-X c #FADED5",
";X c #F9DFDD",
":X c #E0E0DF",
">X c #FBE3DC",
",X c #DBE2E2",
"<X c #E4E4E3",
"1X c #E8E7E7",
"2X c #E8E8E7",
"3X c #E4EBEB",
"4X c #ECECEC",
"5X c #F5E5E4",
"6X c #FBEAE4",
"7X c #F3EDED",
"8X c #F9EDEC",
"9X c #EFF0EF",
"0X c #F0F0EF",
"qX c #FCF1EE",
"wX c #F6EEF1",
"eX c #EDF4F5",
"rX c #F3F4F4",
"tX c #FBF4F4",
"yX c #FAF8F7",
"uX c #F4F7F9",
"iX c #F5FCFD",
"pX c #FDFDFD",
"aX c None",
/* pixels */
"aXaXaXaXaXaXaXaXaXaXaXaXaXaXaXaXaXaXaXaXaXaXaXaXaXaXaXaXaXaXaXaXaXaXaXaXaXaXaXaXaXaXaXaXaXaXaXaX",
"aXaXaXaXaXaXaXaXaXaXaXaXaXaXaXaXaXaXaXaXaXaXaXaXaXaXaXaXaXaXaXaXaXaXaXaXaXaXaXaXaXaXaXaXaXaXaXaX",
"aXaXaXaXaXaXaXaXaXaXaXaXaXaXaXaXaXaXaXU a.a.a.s.i.aXaXaXaXaXaXaXaXaXaXaXaXaXaXaXaXaXaXaXaXaXaXaX",
"aXaXaXaXaXaXaXaXaXaXaXaXaXaXaXaXaXaXaXh..X X].]._.aXaXaXaXaXaXaXaXaXaXaXaXaXaXaXaXaXaXaXaXaXaXaX",
"aXaXaXaXaXaXaXaXaXaXaXaX+ j.X aXaXaXaXh.OX X].'.^.aXaXaXaXaX_.j.aXaXaXaXaXaXaXaXaXaXaXaXaXaXaXaX",
"aXaXaXaXaXaXaXaXaXaX. f.XX4Xf.aXaXaXaXh.OX.X[.]._.aXaXaXaXf.OXXX.Xa.aXaXaXaXaXaXaXaXaXaXaXaXaXaX",
"aXaXaXaXaXaXaXaXaXp.].rXpXpX.XO aXaXaXk.<XXX X X`.aXaXaXaXXXn.c._.<X].X aXaXaXaXaXaXaXaXaXaXaXaX",
"aXaXaXaXaXaXaXaXaXf.uXpXpXyXrXc.aXaXaXk.1XOX.X X].aXaXaXv. Xb.b.c.n.<XaXaXaXaXaXaXaXaXaXaXaXaXaX",
"aXaXaXaXaXaXaXaXaX  `.pXpXpXyX<Xy.aXaXx.2X<XOX.X X. aX@ <Xn.n.n.c.<Xd.aXaXaXaXaXaXaXaXaXaXaXaXaX",
"aXaXaXaXaXaXaXaXaXaXu.4XpXpXyXyX'.f.b. X1X<XOXXX<XOXb. X].n.n.b.].[.aXaXaXaXaXaXaXaXaXaXaXaXaXaX",
"aXaXaXaXaXaXaXaXaXaXaXn.pXpXpXyX4XOX<X1X4X2X<XOXOX1XyX<Xn.n.n.n.<Xr.aXaXaXaXaXaXaXaXaXaXaXaXaXaX",
"aXaXaXaXi.l.o aXaXaXaX@ <XpXpXyXyXrXrXrX7X4X1X<XXX X].'._.^.n. Xb.aXaXaXaX@ ]. XaXaXaXaXaXaXaXaX",
"aXaXaX. _.4X Xg.. aXaX. _.yXpXpXpXyX2XOX X X X.XOXOX X'.`._._.uXd.aXaXaXv.<X`.OXf.aXaXaXaXaXaXaX",
"aXaXaXf.:X4XrX4X].a.X c. XrXpXpX1X`.^.]..XOXOXOX*X2X4XOX]._._.rXyXi.f.<X.Xv.l.n.OXaXaXaXaXaXaXaX",
"aXaX+ ].<X2X4XrXyX4X}. XrXpXyX}.n..X4XyXuXrXrX4X<X<X<XrXrX Xn._.rXpXOX^.c.v.c.z. Xz.aXaXaXaXaXaX",
"aXaXf. X*X<X4X4XrXyXrXrXpXrX_.`.rXpXpXrX4X1X1X4X2X<XXX.X4XpX.Xn._.'.b.b.b.b.c.c.].OXaXaXaXaXaXaX",
"aXaXaXu._.*X2X4XrXrXuXyXyX_.].pXpXyXOX_.v.c.n.].1XrX1X.X X1XpX{.n.n.n.n.b.c._.OXn.o aXaXaXaXaXaX",
"aXaXaXaX. h..X4X4XrXrXyX X`.yXpXrX_.h.p.aXaXaXaXd._.uX4X X[.2XrX_.n.n.b.n.OX].r.aXaXaXaXaXaXaXaX",
"aXaXaXaXaXaX+ n.<X4XyX1XJ.0XpX4Xn.d.aXaXaXaXaXaXaXaXj.rX4X X X4XOXn.n.].OXs.aXaXaXaXaXaXaXaXaXaX",
"aXaXaXaXaXaXaXa.<X4XrX]..XpXyX`.f.aXaXaXaXaXaXaXaXaXaXh.rXOX].OX3X,X,X3X|.h.aXaXaXaXaXaXaXaXaXaX",
"aXaXaXaXaXaXaXn.1X4X2X'.4XpX<Xl.aXaXaXaXaXaXaXaXaXaXaXaX`.eXrX5X+XY.L.Y.#X7XeX,XaXaXaXaXaXaXaXaX",
"r.v.c.v.n.n._.OX<X1XOX XrXrX Xf.aXaXaXaXaXaXaXaXaXaXaX<XuXQ.;.- & # # # * : ,.@XrX].v.d.aXaXaXaX",
"i.]._.'.]. X.X.XOX<XXXOXrXrX`.f.aXaXaXaXaXaXaXaXaXaXeX=X] # * x P ( ( ( P x * # ;.5XeXl.aXaXaXaX",
"i.'.n.n._.'.]. X.XOXOX<XrXrX].aXaXaXaXaXaXaXaXaXaXiXE.* * R ( ( ( ( ( ( ( ( ( R * : @X3XaXaXaXaX",
"a.'.b.n._._.'.[. XOX*X2X4XrX.XaXaXaXaXaXaXaXaXaXiXY.$ : ( R R ) ) ) ) ) ) ) R R ( : * #X3XaXaXaX",
"s. X~._.`.].].[. X X<X4X2XrX1Xg.aXaXaXaXaXaXaX4X=X% h ) Y 3.1.T ) ) ) ) ) T 9.:.Y ( : : 5XoXaXaX",
"y.`._._.'.].].4X<X[.<XrX<X4XyXx.aXaXaXaXaXaXaXyXW ; ) T 2.tXtX<.Q ` ` ` S M.pX5XO.T ) = :.uXaXaX",
"aXaXaXaXaXaXaX XrX].XXrX<X1XyXOXaXaXaXaXaXaXeXP.% ) E 4.tXpXpX8X<.S ' S B.yXpXpX5X>.E W = #X,XaX",
"aXaXaXaXaXaXaXj.pX X[.7XrX<X4XpXn.aXaXaXaXaXpX[ f ) ~ C.pXpXpXpX8X7.l N.pXpXpXpXyX-.E ) f 2.eXaX",
"aXaXaXaXaXaXy..X<X].].OXpX<X<XrXrXc.aXaXaX1X5Xa ^ ` ` Q C.pXpXpXpX8XS.yXpXpXpXtX-.j ` ` D Z 7XaX",
"aXaXaXaXO _.<X].^.`.].].4XyX<X2XrXrX_.a.aX3X!.0 ..' / ' ! V.pXpXpXpXpXpXpXpXtX=.k ' / ' } d =XoX",
"aXaXaXl.<X Xb.n.^._.'.]. XrXrX<X4X4X4X Xb.eXA.r ..| ' { l q w.yXpXpXpXpXpX7XX.9 z / ' | ..s !.,X",
"aXaX'.<Xv.c.b.n.n.n.]. X]..X4X4X2X4XrXrX4XiXC.r ..@.+.g t i 1 U.pXpXpXpXpXm.< i t g +.@...s K.3X",
"aXaXa.<Xc.v.b.v.n.OXrXyX X].XX1X1X<X4XrXyXiXZ.r ..+.F m M 6 6.qXpXpXpXpXpX6X#.6 M n F | ..s W.,X",
"aXaXaX'.[.x.c. X2Xc.@ OXyX.X XXXOXOX X X XeXR.e ..G M N b 0.yXpXpXpXpXpXpXpX8X$.b m u G } s =X,X",
"aXaXaX@ 2X_.<X].@ aXaXo 4X.X[. XOX<X<XOX].3X;Xs J p M 8 0.pXpXpXpXwXD.pXpXpXpXqX$.8 p i A l 8XaX",
"aXaXaXaXc.<Xi.aXaXaXaXa.*X`.]. X.XOX<X4XrXrXyX .q i y 0.pXpXpXpXrXo.c q.pXpXpXpXtX#.y i , 7.iXaX",
"aXaXaXaXaXaXaXaXaXaXaXXX'._.].].OX4X<X<X4X4XpXI.> i y 5.yXpXpXrXX.c C v e.pXpXpX7X_ y t , $X3XaX",
"aXaXaXaXaXaXaXaXaXaXl.XXn._.`. X Xl._..X1X4XrXtXK q i 6 *.pXuXX.7 V V V b e.pX7XI 3 i > %.pXaXaX",
"aXaXaXaXaXaXaXaXaXo OXn.n.^._.OXd.aXaXc.2X4X4XiX$Xy t i 6 5.-.5 B N N N m 8 w._ 3 i q g >X3XaXaX",
"aXaXaXaXaXaXaXaXaX_.].c.n.n.]._.aXaXaXk.<X2X4X9XpXG.4 t i y y M M M M M M M y y i q y (.iXaXaXaX",
"aXaXaXaXaXaXaXaXaXz.OX'.b.n. Xr.aXaXaXk.*X<X4X4X<XpXG.u w t i p p p p p p p i t 2 M /.pXaXaXaXaX",
"aXaXaXaXaXaXaXaXaXaX@ J. X Xc.aXaXaXaXh.OXOX1X4Xv._.pX%XL 6 w t t i i i t t 2 6 $.-XiXaXaXaXaXaX",
"aXaXaXaXaXaXaXaXaXaXaXaXu.^.o aXaXaXaXh.XXOX<X4Xv.aXaXiXyXT.$.B 8 6 6 6 8 H &./.pXeXaXaXaXaXaXaX",
"aXaXaXaXaXaXaXaXaXaXaXaXaXaXaXaXaXaXaXh..X.XOX<Xn.aXaXaX4XiXpX>X).H.F.H.&X6XpXiXaXaXaXaXaXaXaXaX",
"aXaXaXaXaXaXaXaXaXaXaXaXaXaXaXaXaXaXaX8.a.i.i.i.t.aXaXaXaXaXaXeXiXiXiXiXuX4XaXaXaXaXaXaXaXaXaXaX",
"aXaXaXaXaXaXaXaXaXaXaXaXaXaXaXaXaXaXaXaXaXaXaXaXaXaXaXaXaXaXaXaXaXaXaXaXaXaXaXaXaXaXaXaXaXaXaXaX",
"aXaXaXaXaXaXaXaXaXaXaXaXaXaXaXaXaXaXaXaXaXaXaXaXaXaXaXaXaXaXaXaXaXaXaXaXaXaXaXaXaXaXaXaXaXaXaXaX"
};
