/* XPM */
static const char *toolbar_stop_xpm[] = {
/* columns rows colors chars-per-pixel */
"48 48 72 1",
"  c #96150D",
". c #9B140D",
"X c #971911",
"o c #9A1811",
"O c #9C1F18",
"+ c #A3160E",
"@ c #A31911",
"# c #AC1811",
"$ c #A01F18",
"% c #B41811",
"& c #BE1911",
"* c #9D231C",
"= c #A4231C",
"- c #AB231C",
"; c #B3231C",
": c #BB231C",
"> c #AC2B24",
", c #B32B24",
"< c #BB2B24",
"1 c #A1302A",
"2 c #CB160E",
"3 c #C41911",
"4 c #CB1911",
"5 c #C3241C",
"6 c #CB241C",
"7 c #D2231B",
"8 c #C42C24",
"9 c #CC2C24",
"0 c #D12C24",
"q c #C48A86",
"w c #C88B87",
"e c #C68E8A",
"r c #C98E8A",
"t c #C6918E",
"y c #CE918E",
"u c #D2938F",
"i c #CD9895",
"p c #D69390",
"a c #DC9490",
"s c #E1928E",
"d c #E19491",
"f c #CDCCCC",
"g c #D0CFCF",
"h c #DFCDCB",
"j c #D4D3D3",
"k c #D8D7D7",
"l c #D7D8D6",
"z c #D8D8D7",
"x c #DCDCDB",
"c c #E1CFCE",
"v c #E3D1CF",
"b c #E6D2D1",
"n c #EDD7D6",
"m c #E4DDDC",
"M c #EFD9D8",
"N c #F0DAD9",
"B c #E0E0DF",
"V c #E3E3E3",
"C c #E8E7E7",
"Z c #E6E8E7",
"A c #E8E8E7",
"S c #E8E7E8",
"D c #E7E9E9",
"F c #ECECEC",
"G c #F1E7E6",
"H c #F0F0EF",
"J c #EDF3F3",
"K c #F2F2F2",
"L c #F1F8F7",
"P c #F6FCFC",
"I c #F9FFFF",
"U c None",
/* pixels */
"UUUUUUUUUUUUUUUUUUzlfffffffflzUUUUUUUUUUUUUUUUUU",
"UUUUUUUUUUUUUUUzffjkxVVVCVVxzjffzUUUUUUUUUUUUUUU",
"UUUUUUUUUUUUUjfjxZDDDDDDDDDDDACxjfjUUUUUUUUUUUUU",
"UUUUUUUUUUUzflVAFDDDDFFFFFFDDDADAVkfkUUUUUUUUUUU",
"UUUUUUUUUUfjVDDDDFFFFFFFFFFFFFFDAADVjfUUUUUUUUUU",
"UUUUUUUUxfzADDDFFFFFFFFFFFFFFFFFFDAADxfxUUUUUUUU",
"UUUUUUUzfVFDDFFFFFFFFFFFFFFFFFFFFFFDDDVfkUUUUUUU",
"UUUUUUzfVFDDFFFFFFFFFHHHHHHFFFFFFFFFDDDVfkUUUUUU",
"UUUUUxfVFDFFFFFFFFHKKKKKKKKKHFFFFFFFFFAAVfxUUUUU",
"UUUUUfmFDFFFFFFFKKKKKKKKKKKKKKKHFFFFFFFADVfUUUUU",
"UUUUfzDDFFFFFFFKKKKKKKKKKKKKKKKKKHFFFFFFDDxfUUUU",
"UUUxgADFFFFFFKKKKKKKKKKKKKKKKKKKKKHFFFFFDDAjzUUU",
"UUUfVDFFFFFFKKKKKKKKKKKKKKKKKKKKKKKHFFFFFDDVfUUU",
"UUljDDFFFFFKKKKKKKKKKKKKKKKKKKKKKKKKHFFFFFDDkjUU",
"UUfVFFFFFFHKKKKIIIIIIIIIIIIIIIIIIKKKKFFFFFDAVfUU",
"UxjADFFFFHKKKLGdsssddaaaaappuuyyiFKKKKHFFFFADjxU",
"UfxFFFFFFKKKKLn6244433&&%%%#@@@.*mDZZAFFFFFDDmfU",
"UfCDFFFFFKKKKPM077766555::;;--=$1mDVVVxxVAFFACfU",
"xjDDFFFFHKKKKPN077776655::;;--=$1mDZVVVxxxxZDDjx",
"kkFFFFFFKKKKKPN077776655::;;--=$1mFCVVVxxxzlxSxl",
"fxFFFFFHKKKKKPN077766555::;;--=O1mFCVVVBxxxzjjzf",
"fVFFFFFHKKKKKPN96666655::;;;--=O1mFCVVVBxxxzjjff",
"fVFFFFFHKKKKKPN96666555::;;--==O1mFAZVVVxxxzjjff",
"fVDFFFFHKKKKKPN8555555::;;;--==O1mFAZVVVxxxzjjgf",
"fVFFFFFHKKKKKPn855555:::;;---==O1mFAZVVVxxxzjjgf",
"fVFFFFFHKKKKKLb<:::::::;;;--==*O1mFAZVVVxxxzjjff",
"fVFFFFFHKKKKKJb<:::::;;;;--===*O1mFCZVVVxxxzjjff",
"gxFFFFFHKKKKFFv<;;;;;;;----==**O1mFCVVVBxxxzjjff",
"kkFFFFFHKKKKAFv,;;;;;;----===**O1mFCVVVBxxxljjfk",
"xjDDFFFFKKKFZFc,--------===****O1mFZVVVxxxxljgfx",
"UfZDFFFFHKKVVFc>------====*****O1mDVVVVxxxzjjgfU",
"UgxFFFFFFKFVVDh=+@@@@@ooooXXXXX *mDVVVBxxxzjjfgU",
"UxjDDFFFFKCVVZmrwwrrrrrrreeeeeeqtBZVVBxxxxljjfxU",
"UUfVFFFFFFVVVVZJJJJJJLLLLLLLJJJJJVVVVxxxxzjjffUU",
"UUllDDFFFFxBVVVVZCAADDDFDDDAAACZVVVVxxxxzljjflUU",
"UUUfVFFFFAxxVVVVVZCCAAAAAAACCCVVVVVxxxxxljjffUUU",
"UUUxjDDFFVxxxBVVVVVVZCCCCCZZVVVVVVxxxxxzjjgfxUUU",
"UUUUfxFDFVxxxxxVVVVVVVVVVVVVVVVVBxxxxxzljjffUUUU",
"UUUUUfVFFBzxxxxxVVVVVVVVVVVVVVVxxxxxxzljjffUUUUU",
"UUUUUxfVFxlzxxxxxxBVVVVVVVVVBxxxxxxxzljjffxUUUUU",
"UUUUUUzfVxjlzxxxxxxxxxxxxxxxxxxxxxxzjjjffzUUUUUU",
"UUUUUUUzfkjjjlzxxxxxxxxxxxxxxxxxxzljjjffzUUUUUUU",
"UUUUUUUUxffjjjjlzxxxxxxxxxxxxxxzljjjjffxUUUUUUUU",
"UUUUUUUUUUffgjjjjlzzzxxxxxxzzlljjjjgffUUUUUUUUUU",
"UUUUUUUUUUUxffgjjjjjjlllllljjjjjjgffxUUUUUUUUUUU",
"UUUUUUUUUUUUUjfffjjjjjjjjjjjjjgfffjUUUUUUUUUUUUU",
"UUUUUUUUUUUUUUUxjffffjjjjjjffffjxUUUUUUUUUUUUUUU",
"UUUUUUUUUUUUUUUUUUxzjffffffjzxUUUUUUUUUUUUUUUUUU"
};
