/* XPM */
static const char *toolbar_plugin_pad_xpm[] = {
/* columns rows colors chars-per-pixel */
"48 48 174 2",
"   c #78110C",
".  c #6D1511",
"X  c #7F332E",
"o  c #763E3B",
"O  c #8D0C05",
"+  c #8A140D",
"@  c #961A14",
"#  c #A50500",
"$  c #A90000",
"%  c #AC0C03",
"&  c #B60300",
"*  c #BB0600",
"=  c #B70E05",
"-  c #BB0A00",
";  c #A3160E",
":  c #AA170E",
">  c #AB180F",
",  c #A41911",
"<  c #AF1C12",
"1  c #AC1F18",
"2  c #B51D14",
"3  c #BA1E16",
"4  c #92221C",
"5  c #9D241D",
"6  c #A3241C",
"7  c #AC241A",
"8  c #B1241C",
"9  c #BA241B",
"0  c #B32C1E",
"q  c #BB2A1F",
"w  c #8F2F29",
"e  c #922721",
"r  c #9F2620",
"t  c #9F2E27",
"y  c #993029",
"u  c #9C3B35",
"i  c #A22E27",
"p  c #A6322B",
"a  c #A9342D",
"s  c #B23222",
"d  c #B1362B",
"f  c #BA3029",
"g  c #B43829",
"h  c #A83D36",
"j  c #C6261D",
"k  c #CA251C",
"l  c #D2251D",
"z  c #A7433D",
"x  c #8C5552",
"c  c #9E5551",
"v  c #A04843",
"b  c #AC4943",
"n  c #A74E48",
"m  c #AB4E49",
"M  c #BC4640",
"N  c #B44B45",
"B  c #BB4C45",
"V  c #A1534E",
"C  c #AF524C",
"Z  c #BB544A",
"A  c #BF5B49",
"S  c #AA5651",
"D  c #B05A54",
"F  c #9B6F6D",
"G  c #AC6661",
"H  c #AC6B67",
"J  c #B96762",
"K  c #BE6862",
"L  c #AE726F",
"P  c #B9706B",
"I  c #B57673",
"U  c #B27D79",
"Y  c #BA7F7B",
"T  c #C5564F",
"R  c #C46756",
"E  c #C36861",
"W  c #C06E69",
"Q  c #C27D7A",
"!  c #B3817E",
"~  c #CF8577",
"^  c #C3837F",
"/  c #CA837C",
"(  c #979695",
")  c #9D9C9C",
"_  c #AF8481",
"`  c #AF8C8A",
"'  c #B68582",
"]  c #BE8581",
"[  c #BC8987",
"{  c #B38C8A",
"}  c #BD8D89",
"|  c #B2918F",
" . c #B9918E",
".. c #A09F9E",
"X. c #BC9592",
"o. c #B99A97",
"O. c #BA9A98",
"+. c #A1A09F",
"@. c #B1A09F",
"#. c #A4A3A3",
"$. c #A8A7A7",
"%. c #A9A8A7",
"&. c #ACABAB",
"*. c #B3A5A4",
"=. c #B0AFAF",
"-. c #BFACAB",
";. c #B1B0AF",
":. c #B3B2B2",
">. c #BAB5B5",
",. c #B8B8B7",
"<. c #BCBBBB",
"1. c #CB8481",
"2. c #CC8A81",
"3. c #C48E8A",
"4. c #C69592",
"5. c #CB9693",
"6. c #CB9895",
"7. c #CA9B99",
"8. c #DA9A97",
"9. c #D49D9B",
"0. c #DAA89D",
"q. c #C4A4A2",
"w. c #CBAAA9",
"e. c #D3AEAC",
"r. c #C6B4B3",
"t. c #CAB6B5",
"y. c #C2BFBE",
"u. c #CABBBA",
"i. c #D5B6B4",
"p. c #DBB3B0",
"a. c #DFBBB7",
"s. c #D2BDBC",
"d. c #D9BBB9",
"f. c #E1BEB8",
"g. c #C2C0BF",
"h. c #E4C0B6",
"j. c #C4C3C3",
"k. c #C9C7C6",
"l. c #C7C9C9",
"z. c #CCCBCB",
"x. c #D2C4C3",
"c. c #DCC4C3",
"v. c #D1CFCE",
"b. c #DECECD",
"n. c #DBD0CF",
"m. c #CFD3D3",
"M. c #D4D3D3",
"N. c #D8D7D7",
"B. c #D8D8D7",
"V. c #D5DADA",
"C. c #DBDBDB",
"Z. c #E1C7C5",
"A. c #E0D0CF",
"S. c #E4D4D3",
"D. c #E9D5D3",
"F. c #E1DFDE",
"G. c #E9D9D8",
"H. c #EBE1DF",
"J. c #DDDFE0",
"K. c #DDE2E2",
"L. c #E3E3E3",
"P. c #E9E6E5",
"I. c #EBE8E6",
"U. c #E0E7E8",
"Y. c #E6E9EA",
"T. c #ECECEC",
"R. c #F0EFEF",
"E. c #ECEFF0",
"W. c #EDF2F3",
"Q. c #EEFCFD",
"!. c #F3F3F4",
"~. c #F4FBFB",
"^. c #FAFDFD",
"/. c None",
/* pixels */
"/./././././././././././././././././././././././././././././././././././././././././././././././.",
"/./././././././././././././././././././././././././././././././././././././././././././././././.",
"/./././././././././././././././././././././././././././././././././././././././././././././././.",
"/./././././././././././././././././././././././././././././././././././././././././././././././.",
"/././././././././././././././././././././.!././././././././././././././././././././././././././.",
"/./././././././././././././././././././././././././././././././././././././././././././././././.",
"/./././././././././././././././././././.T./././././././.C.N.M.k.z./././././././././././././././.",
"/././././././././././././././././././.L./././././././.M.B.C.J.K.U.L.L.P.I.!././././././././././.",
"/./././././././././././././././././.P././././././././.v.M.M.] N D c.T.T.W.W.W./././././././././.",
"/././././././././././././././././././././././././././.g.l.m.u - O w.~.H./ W d.W././././././././.",
"/././././././././././././././././.N./././././././././.<.M.K.k.` -.T.^.X.& & n T.!./././././././.",
"/././././././././././././././././.M././././././.C.z.&.<.N.s.b.!.!.!.~.C.L G s.!.T./././././././.",
"/././././././././././././././././.l./././.T.L.C.M.M.:.j.I k 3 7.~.~.~.^.^.^.~.T.T./././././././.",
"/././././././././././././././././.j.T.I.P.L.L.L.K.C.,.j.F 1 6 q.~.Z.T N p.^.!.R.T.!././././././.",
"/././.L.C.M.l././././././././.T.I.P.I.I.I.I.T.Y.C.n.k.<.V.,.g.W.^.U * # G ^.!.T.T.T././././././.",
"/./.C.L.L.C.M.C././././.F.C.L.P.I.T.W.T.T.!.u.M f } L.<.' b h D c.U.o.X.L.!.T.T.T.T.!./././././.",
"/.B.L.F.C.L.T.Y.L.P.L.C.N.C.L.I.W.F.H.!.!.~.y.v 9.Y.K.! ; 2 9 : t x.~.~.!.T.I.T.T.T.T./././././.",
"/.z.M.N.L.b.] e.W.W.W.I.L.L.I.I.8.6 P ^.~.!.T.C.V.L.j.z 3 k k j : ' V.P.L.L.I.T.T.T.T.!././././.",
"/.j.N.L.N.a # ^ ^.d.5.T.I.L.E.t.C G A.!.C.M.B.Y.T.M.*.4 k l l k 2 S V.z.N.L.L.T.T.T.T.T././././.",
"M.z.B.P.W.{ @ 3.D.k 7 S.W.L.V.r.{  .x.C.L.!.G.6.S.V.@.. 9 k k j < Z K.z.M.C.L.P.T.T.T.T.!./././.",
",.M.K.x.J Q | F.O.y w b.T.l._ 5 , , r X.K.!.B $ H V.v.X + 8 q 0 s 2.U.j.k.M.C.L.I.T.T.T.T./././.",
",.M.L.*.% = i.4.D C.Y.!.l.>.i 2 j j 3 p k.K.} V x.z.M.s.h 7 g R 0.P.L.<.<.z.N.L.L.T.T.T.T.!././.",
">.M.F.M.u 1.Q.m * B !.L.j.F , j l l k : Y C.W.W.T.z.&.C.P.a.f.H.W.L.C.,.:.k.M.C.L.P.T.T.T.T././.",
":.M.B.L.V.E.W.c d [ !.C.l.o @ k l l j > K K.C.C.B.M.$.&.l.C.U.J.B.B.C.:.&.<.z.M.C.L.I.T.T.T.!./.",
",.y.B.C.I.T.T.L.U.~.!.C.M.x   8 j j q 0 / U.M.M.M.M.:.&.<.k.z.M.N.B.C.$.#.:.j.z.N.L.L.T.T.T.T./.",
"<.+.z.C.L.P.I.T.T.T.T.L.V.t.e ; 7 g A ~ S.L.k.<.j.j.%.=.<.k.M.M.N.B.C.#.( &.>.k.M.C.L.P.T.T.T.!.",
";.) &.j.M.F.L.P.P.P.L.L.j.V.c.E Z ~ h.I.Y.C.,.j././.%.&.<.k.M.M.N.B././.) ) &.<.z.M.C.L.I.T.T.T.",
"/.+.%.;.,.j.z.M.N.N.N.C.z.%.M.Y.P.T.T.L.B.C./././././.<.<.k.M.M.C././././.#.#.:.y.z.N.L.L.T.T.T.",
"/...&.:.<.j.z.v.M.M.N.C.B.&.&.<.z.N.M.M.B.F././././././././././././././././.$.#.>.k.M.C.L.P.T.T.",
"/.) &.:.<.j.z.M.M.M.N.B.C.g.&.<.k.M.M.N.N.L./././././././././././././././././.=.%.<.z.M.C.L.I.!.",
"/.#.%.:.<.j.z.M.M.M.N.B.C.z.;.<.k.M.M.N.N.T././././././././././././././././././.<.&.<.z.N.C.P./.",
"/.&.%.:.<.j.z.M.M.M.N.B.C.M.&.,.k.M.M.M.L./././././././././././././././././././././.j.z.N.P././.",
"/.&.$.:.<.j.z.M.M.M.N.B.C.L./.j.k.M.C./././././././././././././././././././././././././././././.",
"/.=.%.:.<.j.z.M.M.M.N.B.B.T././././././././././././././././././././././././././././././././././.",
"/.<.$.:.<.j.z.M.M.M.N.B.C./././././././././././././././././././././././././././././././././././.",
"/.v.#.:.<.j.z.M.M.M.N.B.C./././././././././././././././././././././././././././././././././././.",
"/./.%.:.<.j.z.M.M.M.N.B.C./././././././././././././././././././././././././././././././././././.",
"/./.&.:.<.j.z.M.M.M.N.B.C./././././././././././././././././././././././././././././././././././.",
"/./.&.:.<.j.z.M.M.M.N.B.L./././././././././././././././././././././././././././././././././././.",
"/./.&.:.<.j.z.M.M.M.N.B.L./././././././././././././././././././././././././././././././././././.",
"/./.,.=.<.j.z.M.M.M.N.B././././././././././././././././././././././././././././././././././././.",
"/./.k.&.<.j.z.M.M.M.N.B././././././././././././././././././././././././././././././././././././.",
"/././.:.,.j.z.M.M.M.N.L././././././././././././././././././././././././././././././././././././.",
"/./././.,.j.z.M.M.M.B./././././././././././././././././././././././././././././././././././././.",
"/././././.k.z.M.M.C././././././././././././././././././././././././././././././././././././././.",
"/./././././.B.N././././././././././././././././././././././././././././././././././././././././.",
"/./././././././././././././././././././././././././././././././././././././././././././././././.",
"/./././././././././././././././././././././././././././././././././././././././././././././././."
};
