/* XPM */
static char *toolbar_help_xpm[] = {
/* columns rows colors chars-per-pixel */
"48 48 229 2",
"   c #121F74",
".  c #0F2276",
"X  c #062D7C",
"o  c #092D7C",
"O  c #132376",
"+  c #192677",
"@  c #152678",
"#  c #192678",
"$  c #132D7C",
"%  c #1C2E7D",
"&  c #04307F",
"*  c #08317F",
"=  c #16317F",
"-  c #232F7E",
";  c #292D7E",
":  c #362F7F",
">  c #22317E",
",  c #012F83",
"<  c #0A2E81",
"1  c #023483",
"2  c #093384",
"3  c #00398A",
"4  c #163C87",
"5  c #143D8A",
"6  c #013F90",
"7  c #233482",
"8  c #2B3581",
"9  c #2D3D87",
"0  c #223C88",
"q  c #293F88",
"w  c #373784",
"e  c #303C86",
"r  c #473E89",
"t  c #00408D",
"y  c #0E4089",
"u  c #03488F",
"i  c #16438B",
"p  c #014493",
"a  c #014B94",
"s  c #0B4D92",
"d  c #004F9A",
"f  c #134F93",
"g  c #055097",
"h  c #0B5094",
"j  c #01559C",
"k  c #00589E",
"l  c #085A9E",
"z  c #125094",
"x  c #115698",
"c  c #22458D",
"v  c #2C448B",
"b  c #2D4A8F",
"n  c #33478D",
"m  c #3B448B",
"M  c #35498F",
"N  c #224F95",
"B  c #255596",
"V  c #2A5194",
"C  c #245C9D",
"Z  c #2C5E9D",
"A  c #395495",
"S  c #375798",
"D  c #355A9A",
"F  c #3A5B9A",
"G  c #2D619E",
"H  c #3E639E",
"J  c #005CA3",
"K  c #0D5EA1",
"L  c #0262A6",
"P  c #0065AB",
"I  c #0069AE",
"U  c #1563A5",
"Y  c #1C66A5",
"T  c #1F68A6",
"R  c #176BAB",
"E  c #0064B2",
"W  c #006DB2",
"Q  c #106FB0",
"!  c #0071B6",
"~  c #0C73B5",
"^  c #0074B9",
"/  c #1273B3",
"(  c #1C79B6",
")  c #2666A3",
"_  c #2C65A2",
"`  c #2569A6",
"'  c #2A6AA6",
"]  c #266EA9",
"[  c #2C6EA9",
"{  c #3567A2",
"}  c #3A65A1",
"|  c #336BA5",
" . c #3A69A3",
".. c #336EA8",
"X. c #2C71AA",
"o. c #3373AB",
"O. c #3579AF",
"+. c #3D79AF",
"@. c #2176B2",
"#. c #297DB7",
"$. c #207FBB",
"%. c #3577B0",
"&. c #347AB2",
"*. c #3D7CB2",
"=. c #4F4A91",
"-. c #5B4E92",
";. c #435495",
":. c #465E9B",
">. c #4A5D9B",
",. c #555597",
"<. c #644E91",
"1. c #665898",
"2. c #43629E",
"3. c #49609D",
"4. c #55639E",
"5. c #4165A0",
"6. c #4B6DA5",
"7. c #566FA7",
"8. c #5A6BA4",
"9. c #536FAA",
"0. c #5670A7",
"q. c #5778AC",
"w. c #427CB1",
"e. c #517EB0",
"r. c #6E69A3",
"t. c #6B76AA",
"y. c #7174A9",
"u. c #8272A7",
"i. c #8476AA",
"p. c #8872A8",
"a. c #2580BB",
"s. c #2C83BD",
"d. c #3386BD",
"f. c #3488BF",
"g. c #398ABF",
"h. c #4585B7",
"j. c #4884B7",
"k. c #448BBD",
"l. c #488DBF",
"z. c #5282B3",
"x. c #5B81B1",
"c. c #5688B7",
"v. c #5488B8",
"b. c #7C89B6",
"n. c #738DB8",
"m. c #6091BD",
"M. c #348AC0",
"N. c #3692C8",
"B. c #3E95C9",
"V. c #428DC1",
"C. c #569ECA",
"Z. c #6295C0",
"A. c #679AC4",
"S. c #729CC5",
"D. c #7C9BC2",
"F. c #60A3CE",
"G. c #7DACCF",
"H. c #6CA7D1",
"J. c #6FABD3",
"K. c #8F84B4",
"L. c #998AB7",
"P. c #9B8FB9",
"I. c #A397BE",
"U. c #83ACCE",
"Y. c #8FAFCE",
"T. c #94A7C9",
"R. c #9DA7C9",
"E. c #97AECE",
"W. c #9BABCB",
"Q. c #92B4D2",
"!. c #93BFDC",
"~. c #99BFDA",
"^. c #A2A5C8",
"/. c #A0ABCB",
"(. c #B2A7C9",
"). c #B6AECD",
"_. c #A3B1CF",
"`. c #A6B4D1",
"'. c #AAB5D1",
"]. c #A7B8D4",
"[. c #ABBAD5",
"{. c #A0BED9",
"}. c #AEBFD8",
"|. c #B2BED7",
" X c #95C3DF",
".X c #A3C4DD",
"XX c #B7C2D9",
"oX c #B9C4DC",
"OX c #95C4E0",
"+X c #9DC7E2",
"@X c #9DC9E4",
"#X c #A2C7E0",
"$X c #A5CAE2",
"%X c #AECDE3",
"&X c #B0CCE2",
"*X c #BACCE0",
"=X c #BFD7E8",
"-X c #CDCCCC",
";X c #D0CFCF",
":X c #C7C5DB",
">X c #CDC4DB",
",X c #D4D3D3",
"<X c #DCDBDB",
"1X c #E0DFDF",
"2X c #D6CFE2",
"3X c #C1D3E4",
"4X c #DAD3E3",
"5X c #D3DEEB",
"6X c #D6E2EE",
"7X c #DBE3EE",
"8X c #D1E4F0",
"9X c #DFE6F0",
"0X c #DBE9F2",
"qX c #E3E3E3",
"wX c #E8E7E7",
"eX c #EAE3EE",
"rX c #ECEBEB",
"tX c #E0E6F0",
"yX c #E4EDF4",
"uX c #E8EBF3",
"iX c #F2EDF2",
"pX c #EBF1F7",
"aX c #EFF5F9",
"sX c #F5F4F4",
"dX c #F8F7F7",
"fX c #F2F4F8",
"gX c #F6FAFC",
"hX c #FFFFFF",
"jX c None",
/* pixels */
"jXjXjXjXjXjXjXjXjXjXjXjXjXjXjXjXjXjXjXjX,X,X,X,X,X,X;X-XjXjXjXjXjXjXjXjXjXjXjXjXjXjXjXjXjXjXjXjX",
"jXjXjXjXjXjXjXjXjXjXjXjXjXjXjXjX,X<XqXrXsXdXhXhXhXhXdXsXrXqX,X-XjXjXjXjXjXjXjXjXjXjXjXjXjXjXjXjX",
"jXjXjXjXjXjXjXjXjXjXjXjXjXjX<XwXsXhXhXhXgXfXuX5X5XuXfXgXhXhXhXsXqX,XjXjXjXjXjXjXjXjXjXjXjXjXjXjX",
"jXjXjXjXjXjXjXjXjXjXjXjX<XrXhXhXhX5XR.t.;.e 8 - - 8 e ;.t.R.5XhXhXdXwX,XjXjXjXjXjXjXjXjXjXjXjXjX",
"jXjXjXjXjXjXjXjXjXjX,XwXhXhXgX'.4.> O   # % > > > > % +   O > 4.'.gXhXdXqX-XjXjXjXjXjXjXjXjXjXjX",
"jXjXjXjXjXjXjXjXjX<XsXhXhX'.;.O O - 9 M ;.;.>.>.>.>.;.;.M 9 > O O ;.'.hXhXrX,XjXjXjXjXjXjXjXjXjX",
"jXjXjXjXjXjXjXjXqXdXhX7X8.@ @ 7 M ;.>.>.>.>.>.>.>.>.>.>.>.>.;.M 7 @ @ 8.7XhXsX,XjXjXjXjXjXjXjXjX",
"jXjXjXjXjXjXjXqXhXhXXXv . 7 M >.>.>.:.:.:.:.:.:.:.:.:.:.:.:.>.>.>.M 7 . v XXhXsX<XjXjXjXjXjXjXjX",
"jXjXjXjXjXjXqXhXhX_.% $ q ;.3.:.:.2.2.:.F S S S S S S F F 2.3.:.:.>.;.q @ % _.hXsX,XjXjXjXjXjXjX",
"jXjXjXjXjX<XgXhX_.$ $ b :.3.2.2.2.F D 6.n.T.`.|.oX|./.b.8.A D 2.2.2.3.:.b $ $ _.hXsX,XjXjXjXjXjX",
"jXjXjXjX,XdXhXXX= $ b 2.2.2.2.H D q.}.pXhXhXhXhXhXhXhXhXdX:Xy.n H 5.2.2.3.n $ = oXhXrX-XjXjXjXjX",
"jXjXjXjXrXhX9Xv $ b 2.2.2.H } D D.fXhXhXhXhXhXhXhXhXhXhXhXhXhX).m D 5.2.2.2.b $ v tXhX1XjXjXjXjX",
"jXjXjX1XhXhX0.X c 2.2.H } } Z D.hXhXhXhXhXhXhXhXhXhXhXhXhXhXhXhX>Xw D } H 2.2.c o 7.hXdX,XjXjXjX",
"jXjXjXsXhX[.o 4 F 5.} } { G e.gXhXhXhXhXhXhXhXhXhXhXhXhXhXhXhXhXhX(.7 { } } 5.F 4 o [.hXwXjXjXjX",
"jXjXqXhXgXD 2 V } } { { { _ *XhXhXhXhXhXhXhXhXhXhXhXhXhXhXhXhXhXhXhX-.V | { } 5.V * S gXdX,XjXjX",
"jXjXsXhX].& i }  .{ { | _ z.hXhXhXhXhXhXhXhXeX^.E.3XhXhXhXhXhXhXhXhXI.7 ..{ { } } i X ].hXqXjXjX",
"jX<XhXhX6.1 B  .{ | | | ) Y.hXhXhXhXhXhXhX2Xm C ` ) {.hXhXhXhXhXhXhX>X; ..| { {  .B 1 6.hXsX-XjX",
"jXwXhX6Xy j _ { | | | | _ 3XhXhXhXhXhXhXhX1.N O.o.' m.hXhXhXhXhXhXhX4X; | | | | { { j y 6XhX,XjX",
"jXrXhXE.1 / %.{ | .........X6XuXgXhXhXhXiX: [ o.X.T U.hXhXhXhXhXhXhX>X; o...| | { O.Q 1 E.hXqXjX",
"jXdXhXx.t ( d...| ....o.o.[ o.w.v.Z.S.U.D.5 l l d *.pXhXhXhXhXhXhXhXL.0 o.....| ..d.( t x.hXrXjX",
"<XhXgXG d a.M.&.| ..o.o.o.o.o.X.Y l d a d k j a j.pXhXhXhXhXhXhXhXsXr _ o.o...| &.f.a.d G gXsX-X",
"<XhXaXz k s.f.M.%...o.o.o.o.T l j j j j k k j A.gXhXhXhXhXhXhXhXhXi.c %.o.o...%.M.f.s.k f fXdX-X",
"qXhXyXs J d.f.f.f.O.o.O.X.K j j j k k k k j G.hXhXhXhXhXhXhXhXhXP.< K [ o.o.O.f.f.f.d.J s yXhX,X",
"qXhX5Xp L d.f.f.M.M.&.` j j j k k J J J j G.hXhXhXhXhXhXhXhXhXK.2 j j j ` &.f.M.f.f.d.L u 5XhX,X",
"qXhX5Xa L d.f.f.f.M.$.J j j k J J J J k k.hXhXhXhXhXhXhXhXsXr.3 J k j j J $.M.f.f.f.d.L a 5XhX,X",
"qXhXyXh L d.f.f.M.a.W W P k k J J J J J =XhXhXhXhXhXhXhXeX,.p L J k k L W W a.M.f.f.d.J s yXhX,X",
"qXhXaXx J s.f.f.s.W W W ! W L J J J J @.gXhXhXhXhXhXhXiX=.p L J J L W ! W W W s.f.f.s.J x fXdX,X",
"1XhXgX' j a.f.d.~ I W W W ! ! W P L J k.hXhXhXhXhXhXhXL., P L P W ! ! W W W I ~ d.f.a.j _ gXsX;X",
"jXdXhXc.a ( g.( I W W W W ! ! ! ^ ! I C.hXhXhXhXhXhXhX<.d ! ! ^ ! ! W W W W I I ( g.( a c.hXrXjX",
"jXsXhXQ.p / d.I I W W W W W ! ! ! ^ ! N.@X@X@X@X@X@X+XD E ^ ! ! ! ! W W W W I I I d./ p Q.hXqXjX",
"jXwXhX6Xg L / I I I W W W W W ! ! ! ^ W E E E E E E E ^ ^ ! ! ! ! W W W W I I I I / L g 6XhX<XjX",
"jXqXhXhX*.j I I I I I W W W W ! ! ! W B.J.H.H.H.H.H.J.o.L ^ ! ! W W W W W I I I I I j +.hXdX,XjX",
"jXjXsXhX{.a P I I I I W W W W W ! ! W @XhXhXhXhXhXhXhXp.p ^ ! W W W W W W I I I I P a {.hXwXjXjX",
"jXjXwXhXgX] k I I I I I W W W W W W W OXhXhXhXhXhXhXhXu.p ^ W W W W W W I I I I I j ] gXhX<XjXjX",
"jXjXjXdXhX.Xd L I I I I I W W W W W E OXhXhXhXhXhXhXhXu.p ^ W W W W W I I I I I L a .XhXrXjXjXjX",
"jXjXjXwXhXhXh.j P I I I I I W W W W I OXhXhXhXhXhXhXhXu.p ! W W W W I I I I I P j h.hXgX<XjXjXjX",
"jXjXjXjXsXhX0XU J I I I I I I W W W P  XhXhXhXhXhXhXhXu.p ! W W W I I I I I I J U 0XhXwXjXjXjXjX",
"jXjXjXjX1XgXhX&Xk J I I I I I I I W P +XhXhXhXhXhXhXhXp.6 ! W I I I I I I I J k &XhXsX,XjXjXjXjX",
"jXjXjXjXjXwXhXhX~.k J I I I I I I I P F.$X$X$X$X$X$X$X9.j W I I I I I I P J k ~.hXdX<XjXjXjXjXjX",
"jXjXjXjXjXjXrXhXhX~.J J P I I I I I I P P P P P P P P I W I I I I I P P J J ~.hXhXqXjXjXjXjXjXjX",
"jXjXjXjXjXjXjXrXhXhX%XR J P P I I I I I I I I I I I I I I I I I I P P J R %XhXhXqXjXjXjXjXjXjXjX",
"jXjXjXjXjXjXjXjXrXhXhX0Xl.J L P P P I I I I I I I I I I I I I P P L J l.0XhXgXqXjXjXjXjXjXjXjXjX",
"jXjXjXjXjXjXjXjXjXwXgXhXhX.X#.L L P P P P P I I I I P P P P P L J #..XhXhXdX<XjXjXjXjXjXjXjXjXjX",
"jXjXjXjXjXjXjXjXjXjXqXsXhXhXgX#XV.I P P P P P P P P P P P P I V..XgXhXhXrX,XjXjXjXjXjXjXjXjXjXjX",
"jXjXjXjXjXjXjXjXjXjXjXjXwXdXhXhXhX8X!.C.s./ ~ ! ! ~ / s.C.!.8XhXhXhXsX1XjXjXjXjXjXjXjXjXjXjXjXjX",
"jXjXjXjXjXjXjXjXjXjXjXjXjXjXwXsXhXhXhXhXgXaXyX8X8XyXaXgXhXhXhXgXiXqXjXjXjXjXjXjXjXjXjXjXjXjXjXjX",
"jXjXjXjXjXjXjXjXjXjXjXjXjXjXjXjXqXwXsXdXhXhXhXhXhXhXhXhXdXrXwX<XjXjXjXjXjXjXjXjXjXjXjXjXjXjXjXjX",
"jXjXjXjXjXjXjXjXjXjXjXjXjXjXjXjXjXjXjXjXqXqXqXqXqXqX1X<XjXjXjXjXjXjXjXjXjXjXjXjXjXjXjXjXjXjXjXjX"
};
