/* XPM */
static char *toolbar_fullscreen_xpm[] = {
/* columns rows colors chars-per-pixel */
"48 48 78 1",
"  c #0EA437",
". c #0EA539",
"X c #3FAD34",
"o c #74BC1D",
"O c #7BBE1D",
"+ c #54B332",
"@ c #64B72E",
"# c #6FBB29",
"$ c #76BD25",
"% c #7BBF24",
"& c #73BD2A",
"* c #7ABF29",
"= c #7EC027",
"- c #7DC02F",
"; c #80C125",
": c #83C32E",
"> c #82C337",
", c #88C537",
"< c #88C53C",
"1 c #8CC742",
"2 c #95CB56",
"3 c #95CC5E",
"4 c #97CD63",
"5 c #98CD62",
"6 c #A3D274",
"7 c #7FC1E3",
"8 c #ACD78D",
"9 c #AED88F",
"0 c #ADD891",
"q c #B0D994",
"w c #B5DC9F",
"e c #B9DDA4",
"r c #BBDEAB",
"t c #BDDFB0",
"y c #BFE0B3",
"u c #C1E1B5",
"i c #C2E2BB",
"p c #80C1E3",
"a c #8BC6E5",
"s c #8FC9E6",
"d c #92CAE7",
"f c #96CCE8",
"g c #9BCEE8",
"h c #9FD0EA",
"j c #A3D2EB",
"k c #ABD6EC",
"l c #AFD8ED",
"z c #B3DAEE",
"x c #B8DCEF",
"c c #B4DBF0",
"v c #BBDEF0",
"b c #BFE0F1",
"n c #D1D0D0",
"m c #C6E3C2",
"M c #CBE6CD",
"N c #C5E9CF",
"B c #D3EBCE",
"V c #DCEECC",
"C c #CDE7D3",
"Z c #CFE8D8",
"A c #D2EFDE",
"S c #D6ECE6",
"D c #D7ECE9",
"F c #DAEDEE",
"G c #C4E2F3",
"H c #CAE6F6",
"J c #D6EBF6",
"K c #DCEFF6",
"L c #D4EBF9",
"P c #DCEFFC",
"I c #DFF0FC",
"U c #E1E0E0",
"Y c #ECF6EC",
"T c #E2F1FD",
"R c #EAF5FA",
"E c #F4FBF7",
"W c #F3F9FD",
"Q c gray100",
/* pixels */
"nUUUUUUUUUUUUUUUUUUUUUUUUUUUUUUUUUUUUUUUUUUUUUUn",
"UQQQQQQQQQQQQQQQQQQQQQQQQQQQQQQQQQQQQQQQQQQQQQQU",
"UQWJJJJJJJJJJJJJJJJJJJJJJJJJJJJJJJJJJJJJJJJJJWQU",
"UQT77pppppppppppppppppppppppppppppppppppppp77TQU",
"UQTaaaaaaaaaaaaaaaaaaaaaaaaaaaaaaaaaaaaaaaaaaTQU",
"UQTaaaaaaaaaaaaaaaaaaaaaaaaaaaaaaaaaaaaaaaaaaTQU",
"UQTssddddddddddddddddddddddddddddddddddddddssTQU",
"UQTddddddddddddddddddddddddddddddddddddddddddTQU",
"UQRffffffffffffffffffffffffffffffffffffffffffRQU",
"UQRgggggggggggggggggfffgjfgggggggggggggggggggRQU",
"UQRgggggggggggggggggkHHHPcgggggggggggggggggggRQU",
"UQRhhjjjjjjjjjjjjjhjLTTTTTvjjhjjjjjjjjjjjjjhhRQU",
"UQRjjjjjjjjjjjjjjjjkITIIITPPLjjjjjjjjjjjjjjjjRQU",
"UQRjjjjkkkkkkkkkkjjvPIIIIITTTGkjjkkkkkkkkkkjjRQU",
"UQRkkjkjkkkkkkkkkkHTIIIIIIIIIIPHkkkkkkkkkkjkGWQU",
"UQRkkGLGlkkkklkzzlLTIIIIIIIIIITPzkllllllkzGLTWQU",
"UQWHGTTTGzHHvlGPPLLTIIIIIIIIIITPzlzzzzzzlLTTPWQU",
"UQWIIIITLLTTIHPTTTTIIIIIIIIIIIIPGzzzzzzzzLTIPWQU",
"UQWPIIIITTIITTIIIIIIIIIIIIIIIIITTGzxxxxvLPTIPWQU",
"UQWPIIIIIIIIIIIIIIIIIIIIIIIIIIIITGxvvvvbITIIPWQU",
"UQWPIIIIIIIIIIIIIIIIIIIIIIIIIIITPGvvvvvHTIIIPWQU",
"UQWPIIIIIIIIIIIIIIIIIIIIIIIIIIIIIILGGGGPTIIIPWQU",
"UQWPIIIIIIIIIIIIIIIIIIIIIIIIIIIIIITHGPPPIIIIPWQU",
"UQWPIIIIIIIIIIIIIIIIIIIIIIIIIIIIIIIPPPTIIIIIPWQU",
"UQWPIIIIIIIIIIIIIIIIIIIIIIIIIIIIIIITTIIIIIIIPWQU",
"UQWPIIIIIIIIIIIIIIIIIIIIIIIIIIIIIIIIIIIIIIIIPWQU",
"UQWPIIIIIIIIIIIIITTTTTTTTTTTTTTTTTTTTTIIIIIIPWQU",
"UQWPIIIIIIIITTTTTTKSZMmureeweryimMADKTTTTTTIPWQU",
"UQWPIIIITTTTFCt9621,:=OOOOOOOOOOO;:,126qyCFTTWQU",
"UQWPITTTDi83<=OOOO%%%=============%%%OOOO=<50YQU",
"UQWTTAw4>$oo%%***************************%%ooVQU",
"UQEr3-oo$***********************************$VQU",
"UQVoo$*************************************$$VQU",
"UQV&&&&&&&&&&&&&&&&&&&&&&&&&&&&&&&&&&&&&&&&&&VQU",
"UQV&&&&&&&&&&&&&&&&&&&&&&&&&&&&&&&&&&&&&&&&&&VQU",
"UQV##&&&&&&&&&&&&&&&&&&&&&&&&&&&&&&&&&&&&&&##VQU",
"UQV@@@@@@@@@@@@@@@@@@@@@@@@@@@@@@@@@@@@@@@@@@VQU",
"UQB++++++++++++++++++++++++++++++++++++++++++BQU",
"UQBXXXXXXXXXXXXXXXXXXXXXXXXXXXXXXXXXXXXXXXXXXBQU",
"UQN  ......................................  NQU",
"UQEAAAAAAAAAAAAAAAAAAAAAAAAAAAAAAAAAAAAAAAAAAEQU",
"UQQQQQQQQQQQQQQQQQQQQQQQQQQQQQQQQQQQQQQQQQQQQQQU",
"UQQQQQQQQQQQQQQQQQQQQQQQQQQQQQQQQQQQQQQQQQQQQQQU",
"UQQQQQQQQQQQQQQQQQQQQQQQQQQQQQQQQQQQQQQQQQQQQQQU",
"UQQQQQQQQQQQQQQQQQQQQQQQQQQQQQQQQQQQQQQQQQQQQQQU",
"UQQQQQQQQQQQQQQQQQQQQQQQQQQQQQQQQQQQQQQQQQQQQQQU",
"UQQQQQQQQQQQQQQQQQQQQQQQQQQQQQQQQQQQQQQQQQQQQQQU",
"nUUUUUUUUUUUUUUUUUUUUUUUUUUUUUUUUUUUUUUUUUUUUUUn"
};
