/* XPM */
static char *toolbar_plugin_dsp_xpm[] = {
/* columns rows colors chars-per-pixel */
"48 48 249 2",
"   c #3C3937",
".  c #3F3C3A",
"X  c #413E3C",
"o  c #44413F",
"O  c #464341",
"+  c #4A4745",
"@  c #4B4846",
"#  c #4D4C4A",
"$  c #524F4E",
"%  c #545252",
"&  c #595655",
"*  c #5A5857",
"=  c #575959",
"-  c #5D5C5B",
";  c #7D4945",
":  c #7D504E",
">  c #615F5E",
",  c #7C5856",
"<  c #745D5B",
"1  c #7B5D5A",
"2  c #62605F",
"3  c #6F605D",
"4  c #7F605E",
"5  c #5F6363",
"6  c #656564",
"7  c #686665",
"8  c #6A6867",
"9  c #6C6B6A",
"0  c #746564",
"q  c #796462",
"w  c #736D6B",
"e  c #7B6B6A",
"r  c #67706F",
"t  c #73706F",
"y  c #6E7575",
"u  c #747372",
"i  c #7A7574",
"p  c #757877",
"a  c #7A7877",
"s  c #777D7C",
"d  c #7C7C7C",
"f  c #9D1B14",
"g  c #9B1E18",
"h  c #A3170F",
"j  c #A41A12",
"k  c #AC1911",
"l  c #A11F18",
"z  c #B41B13",
"x  c #BB1E15",
"c  c #95241D",
"v  c #9C221B",
"b  c #BC2017",
"n  c #B5251E",
"m  c #BC231B",
"M  c #9C2620",
"N  c #952A24",
"B  c #992A24",
"V  c #962D28",
"C  c #9D2F29",
"Z  c #96322C",
"A  c #9C332D",
"S  c #943732",
"D  c #9A3630",
"F  c #933A35",
"G  c #9E3934",
"H  c #953F3A",
"J  c #9B3F39",
"K  c #A62D26",
"L  c #AC2B23",
"P  c #A22F29",
"I  c #B42B24",
"U  c #A6352E",
"Y  c #AA332D",
"T  c #B1312B",
"R  c #A93630",
"E  c #A23C35",
"W  c #AA3B35",
"Q  c #A43E38",
"!  c #C11F17",
"~  c #C12017",
"^  c #C12119",
"/  c #8B413D",
"(  c #9A413C",
")  c #A3423D",
"_  c #A9413B",
"`  c #884440",
"'  c #834A46",
"]  c #844F4C",
"[  c #9A4741",
"{  c #964A46",
"}  c #9B4944",
"|  c #9B4E49",
" . c #8C504C",
".. c #93524F",
"X. c #9A514D",
"o. c #825654",
"O. c #8D5653",
"+. c #965551",
"@. c #9D5753",
"#. c #9F5955",
"$. c #975E5A",
"%. c #995F5C",
"&. c #A44742",
"*. c #A34944",
"=. c #A34E49",
"-. c #AC4E48",
";. c #B14F4A",
":. c #A2524D",
">. c #A9524D",
",. c #A55954",
"<. c #A95F5B",
"1. c #93625F",
"2. c #9C615E",
"3. c #A9625E",
"4. c #B6625D",
"5. c #806562",
"6. c #826866",
"7. c #896966",
"8. c #866D6C",
"9. c #8C6B69",
"0. c #9C6562",
"q. c #9F6F6C",
"w. c #84716F",
"e. c #8C706E",
"r. c #9D716E",
"t. c #857270",
"y. c #8D7775",
"u. c #817F7E",
"i. c #897C7B",
"p. c #937B79",
"a. c #A36461",
"s. c #AB6662",
"d. c #A06966",
"f. c #AA6964",
"g. c #A76E6B",
"h. c #B06B66",
"j. c #B26D69",
"k. c #A6716E",
"l. c #AC716E",
"z. c #A17572",
"x. c #AC7672",
"c. c #AC7A76",
"v. c #AA7E7B",
"b. c #B17773",
"n. c #BC7C79",
"m. c #C1716C",
"M. c #7C807F",
"N. c #82807F",
"B. c #A5807D",
"V. c #AB817F",
"C. c #B3807C",
"Z. c #7D8382",
"A. c #848483",
"S. c #888685",
"D. c #848887",
"F. c #8A8887",
"G. c #868B8A",
"H. c #8D8B8A",
"J. c #9B8583",
"K. c #908F8E",
"L. c #91908F",
"P. c #98908F",
"I. c #8D9494",
"U. c #959493",
"Y. c #989695",
"T. c #949897",
"R. c #999897",
"E. c #959B9A",
"W. c #9C9C9B",
"Q. c #A28482",
"!. c #AB8583",
"~. c #AB8987",
"^. c #A78B89",
"/. c #B58784",
"(. c #B98682",
"). c #B28986",
"_. c #B38F8D",
"`. c #BA8F8C",
"'. c #A9918F",
"]. c #B2918E",
"[. c #A79694",
"{. c #AC9594",
"}. c #AB9896",
"|. c #A19F9E",
" X c #AA9C9B",
".X c #B39592",
"XX c #BA9491",
"oX c #B89A97",
"OX c #B49D9B",
"+X c #BA9B99",
"@X c #A1A09F",
"#X c #B5A19F",
"$X c #BBA09E",
"%X c #9DA3A3",
"&X c #A5A4A3",
"*X c #ABA6A5",
"=X c #A5A8A7",
"-X c #A9A8A7",
";X c #A5ABAA",
":X c #ACABAB",
">X c #BEA5A3",
",X c #B1AEAD",
"<X c #BDADAC",
"1X c #B1B0AF",
"2X c #ACB2B2",
"3X c #B4B4B3",
"4X c #BBB5B5",
"5X c #B4B8B7",
"6X c #B9B8B7",
"7X c #B3B7B8",
"8X c #B8B7B8",
"9X c #B5BBBB",
"0X c #BBBCBB",
"qX c #C58380",
"wX c #C08884",
"eX c #C5A7A5",
"rX c #C0AAA7",
"tX c #C1AFAD",
"yX c #C4B6B4",
"uX c #C2B8B7",
"iX c #C1BDBC",
"pX c #C0C0BF",
"aX c #CBC0BF",
"sX c #BDC2C2",
"dX c #C3C4C3",
"fX c #C8C6C6",
"gX c #C4C8C7",
"hX c #C8C8C7",
"jX c #C5CACA",
"kX c #CCCCCB",
"lX c #D0CDCC",
"zX c #CBD0CF",
"xX c #D0D0CF",
"cX c #CDD2D2",
"vX c #D3D3D3",
"bX c #D3D8D7",
"nX c #D8D8D7",
"mX c #D5DAD9",
"MX c #DBDCDB",
"NX c #E0DFDF",
"BX c #DAE0DF",
"VX c #DBDFE0",
"CX c #DEE3E3",
"ZX c #E4E4E4",
"AX c #E4E9E9",
"SX c #EBECEC",
"DX c #E9F0EF",
"FX c #F2F3F3",
"GX c None",
/* pixels */
"GXGXGXGXGXGXGXGXGXGXGXGXGXGXMXvXkXxXkXkXkXyXeXwXGXGXGXGXGXGXGXGXGXGXGXGXGXGXGXGXGXGXGXGXGXGXGXGX",
"GXGXGXGXGXGXGXGXGXGXGXZXnXvXvXvXvXvXvXxXxXvXcXkXyX(.qXGXGXGXGXGXGXGXGXGXGXGXGXGXGXGXGXGXGXGXGXGX",
"GXGXGXGXGXGXGXGXGXGXnXvXnXMXBXBXBXMXMXmXbXvXkXkXcXcXtXj.GXGXGXGXGXGXGXGXGXGXGXGXGXGXGXGXGXGXGXGX",
"GXGXGXGXGXGXGXGXZXnXMXCXnXuX.XV.k.k.v.oXuXvXmXvXkXkXcXkX/.4.GXGXGXGXGXGXGXGXGXGXGXGXGXGXGXGXGXGX",
"GXGXGXGXGXGXGXNXnXCXlX!.[ v j k k k k j M } !.dXmXvXkXkXcX$X-.GXGXGXGXGXGXGXGXGXGXGXGXGXGXGXGXGX",
"GXGXGXGXGXGXZXMXVX_.Z j x m m m m m m m m x j Z V.cXbXkXkXcX<X) Q.=X|.W.|.-X:XGXGXGXGXGXGXGXGXGX",
"GXGXGXGXGXZXCXvX#.j b m m m b b m b x b m m m b j { 4XbXkXkXcXrXA p.T.L.K.U.U.U.W.0XGXGXGXGXGXGX",
"GXGXGXGXGXCXlX( k m m b m W =.$.1.$.X.W n b m m m z N OXmXkXhXcXXXA U.W.U.K.Y.W.W.L.-XGXGXGXGXGX",
"GXGXGXGXZXvX( z m m m _ 9.d Z.D.G.G.G.G.y.} n b m m x c .XbXkXhXcXh.[ %X@XR.H.R.&X&XU.@XGXGXGXGX",
"GXGXGXAXMX@.k m b I 1.M.Z.A.S.F.H.U.U.R.E.I.y.W b m m b v #XbXkXkXdXQ r.=X&XW.H.W.-X-XU.-XGXGXGX",
"GXGXGXAX!.h m b T 8.M.u.A.F.H.U.U.R.W.W.&X&X%XH.| b m m x V 4XvXhXkXXXA |.=X-XR.H.-X:X:XL.0XGXGX",
"GXGXSXfXM m m T w.s u.A.F.K.U.R.W.@X&X&X-X-X-X:XT.X.b m m z { zXkXhXkX=.a.2X:X:XK.Y.:X:X-XL.GXGX",
"GXGXAXa.k m n 7.s u.A.H.K.Y.W.|.&X-X-X:X:X,X,X1X3XE.| b m m j !.vXhXkX+XA *X:X1X&XF.:X3X3XW.:XGX",
"GXFXaXv m b X.s d A.F.K.Y.W.&X&X-X:X,X3X3X3X3X3X3X8XT.W b m b V iXkXhXgX) k.5X3X3XK.R.6X3X,XL.GX",
"GXDXc.k m T i d A.F.K.U.W.&X-X-X:X3X3X6X6X0X0X0XpX0X=Xt.I m m k z.cXhXjXC.J 5X3X6X&XF.3X6X0XU.GX",
"GXMXJ x b +.s u.S.H.U.W.&X-X:X,X3X6X6X0X0XpXdXfX-Xd 7 r +.b m b Z iXkXgX4XA OX0X0X6XS.:X0X0X&X:X",
"GXyXv m I i d A.H.U.R.@X&X:X,X3X6X0X0XdXdXfXkX|.a d a 9 u T m m j ~.cXfXgX*.l.sX0XdXL.W.dXdX3XU.",
"FX).k ~ ) s u.S.K.Y.W.&X-X:X3X6X0XpXdXhXkXvX1XH.|.&XW.A.y ..b m z X.kXfXjXx.*.dXdXdX&XH.dXdXhXH.",
"SXa.z b O.s A.F.U.R.&X-X:X3X8X0XpXdXhXkXvXkXU.&X3X3X:X&XM.e I m m B 4XhXgXoXA uXdXfX1XA.hXvXvXH.",
"CX} x m 6.M.S.H.U.W.&X-X,X3X0XiXdXhXkXvXnX3XU.:X8X0X3X:XH.u Q b m j {.kXdX4XA >XkXkX0XA.dXvXkXH.",
"nXG x I i D.H.U.R.@X&X:X3X6X0XdXhXkXvXnXNX|.U.:X8X0X3X:XH.y ..b m k k.zXdXpXE `.cXkXdXN.0XkXhXF.",
"lXA x Y d H.U.R.W.&X-X:X3X6X0XdXfXkXxXnXMXK.F.:X3X3X,X&XA.9 4 m m z X.jXdXgX*.b.kXfXpXd 3XhXpXu.",
"kXC x U A.U.Y.W.&X&X-X:X3X3X6X0XdXfXhXkXMXH.u U.&X-X|.F.u 6 0 I m x J dXdXgX,.s.gXdX0Xd ,XdX3XA.",
"kXA x U D.R.W.|.&X-X-X:X1X3X3X6X0XfXvXMXSXR.6 u N.A.d w 7 > 6 Y m b A 0XdXgX<.,.sX0X3Xa :XdXR.R.",
"lXA x U F.&X@X&X&X-X-X:X:X3X6XdXkXvXMXZXAX6X- 7 8 9 8 6 2 * - Q m m A 4XdXgXs.:.9X6X-Xi 1X0Xu.GX",
"bXJ x Y S.=X&X-X-X-X:X,X3X0XdXkXvXvXnXnXMXAXu & > 2 > - & $ = ) b m C 3XdXgXf.=.5X3XW.a 3X&Xa GX",
"MX| x I i.:X:X:X:X:X:X3X6X0XdXhXkXkXkXvXZXFXdX$ % & & % $ + % ) b m A 4XdXdX3.:.2X1XS.N.3Xd |.GX",
"AXg.k m 8.;X&XW.W.&X-X,X3X0X0XdXdXfXhXMXZXAXFX1X# o + + O   # Q m b A 0XdXsX,.#.:X-Xu L.Y.u GXGX",
"SX.Xj m O.D.F.K.R.&X-X:X3X8X0X0XiX0XkXMXMXZXZXSXfXi # X . @ 6 R m x ( sX0XsX&.0.;XY.9 Y.9 GXGXGX",
"GXuXv ~ J s S.K.Y.|.&X:X,X3X3X6X8XdXvXvXnXMXMXZXZXZXkX6X3XkXP.L m z @.dX0X0XE r.=Xd i u K.GXGXGX",
"GXvX[ x L t S.H.Y.W.&X-X:X3X3X3X6XhXkXvXvXnXnXMXMXnXnXnXnXcXe.n m k z.gX0X<XC J.U.7 7 u.GXGXGXGX",
"GXCXv.k m o.D.K.Y.W.&X-X:X:X:X3XdXdXhXkXlXvXvXvXvXvXvXkXkX9X .b m l {.dXsX].C K.t * a GXGXGXGXGX",
"GXZX4XM ~ G s U.Y.W.&X-X-X:X:X6X0XpXdXfXhXkXkXkXkXkXkXhXkXW.A m b Z 6X0XsXf.( p & A.GXGXGXGXGXGX",
"GXGXbX2.z m 1 I.R.W.&X-X-X-X3X3X6X0X0XdXdXfXfXhXhXfXdXdXsX8.n m z %.dX0X0X) ; 5 U.GXGXGXGXGXGXGX",
"GXGXMX<Xv ~ A d W.|.&X-X-X:X:X:X3X3X6X0X0XiXdXdXdXpXiXdX%XF b m v }.sX0XOXc 3 GXGXGXGXGXGXGXGXGX",
"GXGXGXcXd.k m ] I.&X&X-X:X-X&X-X:X3X3X6X6X6X0X0X0X0X0X7X5.n m z { sX0XsXf.H GXGXGXGXGXGXGXGXGXGX",
"GXGXGXvXdXS x n q %X:X:X&XR.@X&X-X:X:X1X3X3X3X3X3X3X5XA.P m m v [.sX0X,XA GXGXGXGXGXGXGXGXGXGXGX",
"GXGXGXGXcXOXg ! K e ;X&XH.U.R.W.&X&X-X:X:X:X,X,X1X3XG.F b m k %.sX8X0Xk.;.GXGXGXGXGXGXGXGXGXGXGX",
"GXGXGXGXvXcXB.f ^ K q Z.H.K.U.R.W.@X&X&X-X-X-X:X:XD./ b m z F 3X0X8X,XA GXGXGXGXGXGXGXGXGXGXGXGX",
"GXGXGXGXGXhXkXq.j ^ L : p D.H.U.U.R.W.W.@X&X=XE.i F b m x N  X0X6X9X,.m.GXGXGXGXGXGXGXGXGXGXGXGX",
"GXGXGXGXGXGXdXjXz.f x m F < p D.H.U.T.T.T.I.d : K m m x N [.sX3X9X~._ GXGXGXGXGXGXGXGXGXGXGXGXGX",
"GXGXGXGXGXGXnXdXjX^.V z ^ n D ' 1 0 w 0 , ` P m m m k S  X0X3X9X*XA GXGXGXGXGXGXGXGXGXGXGXGXGXGX",
"GXGXGXGXGXGXGXvX0XjX1X+.g z ! ^ m n n n m ^ ^ m z v $.,X0X3X5X*X( GXGXGXGXGXGXGXGXGXGXGXGXGXGXGX",
"GXGXGXGXGXGXGXGXvX0XdXdX}.+.B j z z x x z z j B +.[.0X8X3X9X*X*.GXGXGXGXGXGXGXGXGXGXGXGXGXGXGXGX",
"GXGXGXGXGXGXGXGXGXGX0X0XdXsX,XQ.0.| [ [ X.2.Q.*X0X0X3X3X7X'.>.GXGXGXGXGXGXGXGXGXGXGXGXGXGXGXGXGX",
"GXGXGXGXGXGXGXGXGXGXGXhX6X6X0XsXsX0X9X9X0XsX0X8X3X3X7X:Xx.4.GXGXGXGXGXGXGXGXGXGXGXGXGXGXGXGXGXGX",
"GXGXGXGXGXGXGXGXGXGXGXGXGXdX8X3X3X8X8X8X3X3X3X5X3X:X~.j.GXGXGXGXGXGXGXGXGXGXGXGXGXGXGXGXGXGXGXGX",
"GXGXGXGXGXGXGXGXGXGXGXGXGXGXGXkXdX3X3X3X3X3X,X{.XXn.GXGXGXGXGXGXGXGXGXGXGXGXGXGXGXGXGXGXGXGXGXGX"
};
