/* XPM */
static const char *toolbar_file_open_xpm[] = {
/* columns rows colors chars-per-pixel */
"48 48 87 1",
"  c #B09454",
". c #B69B5C",
"X c #BA9F5E",
"o c #BFA45D",
"O c #B59A65",
"+ c #BEA263",
"@ c #BDA269",
"# c #C2A551",
"$ c #C5A955",
"% c #C9AE57",
"& c #C2A65D",
"* c #C5A95E",
"= c #C8AC5B",
"- c #CDB25C",
"; c #D1B45F",
": c #C6AB60",
"> c #CBAF64",
", c #C4A96A",
"< c #CBB165",
"1 c #CDB36D",
"2 c #D2B661",
"3 c #D6B962",
"4 c #DABD65",
"5 c #D4B86F",
"6 c #C4AF79",
"7 c #D0B971",
"8 c #D2B978",
"9 c #DEC167",
"0 c #DFC272",
"q c #DEC37A",
"w c #E6C265",
"e c #E3C46A",
"r c #E7C86C",
"t c #EACC6E",
"y c #FBD465",
"u c #FAD56C",
"i c #FDD96F",
"p c #E5C772",
"a c #E6C975",
"s c #EECF70",
"d c #E6CB7A",
"f c #E9CE7D",
"g c #EFD071",
"h c #F4D474",
"j c #FAD771",
"k c #FAD976",
"l c #F6D778",
"z c #F7DA7B",
"x c #FADB7B",
"c c #FEE07D",
"v c #DCCC8E",
"b c #DECE91",
"n c #DFD099",
"m c #E7CD81",
"M c #EAD284",
"N c #EAD48B",
"B c #F7DB83",
"V c #FBDE83",
"C c #F4DD8E",
"Z c #E1D395",
"A c #EBD791",
"S c #EBD995",
"D c #E6D89C",
"F c #ECDC9C",
"G c #F6DF90",
"H c #FBE086",
"J c #FBE28B",
"K c #FFE98E",
"L c #F7E091",
"P c #FCE592",
"I c #FFE995",
"U c #FCEA9B",
"Y c #ECDFA2",
"T c #ECE0A5",
"R c #ECE1A8",
"E c #FDEEA3",
"W c #FDEFA8",
"Q c #FFF1A5",
"! c #FEF2AC",
"~ c #F6EEB9",
"^ c #FEF4B2",
"/ c #FFF9B7",
"( c #FFF6BA",
") c #FFF8BD",
"_ c #FFFBC3",
"` c #FFFEC9",
"' c None",
/* pixels */
"'''''''''''''''''''''''''''''''''''''. 6''''''''",
"'''''''''''''''''''''''''''''.Xo&&=$#*b_`'''''''",
"'''''''''''''''''''''+:><2222----%$<v~`__'''''''",
"''''''''''''',150ashgttre943;--%$1Z(`____'''''''",
"'''''''''''qVHHHcxxlhtree4322-%7D)`______'''''''",
"''''''''''OJHVVxxxkhhtree432;<D___)))))))'''''''",
"''''''''''@JHVVxxxkhhtree443=n`))))))))))'''''''",
"''''''''''@JHVVxxxkhhtree443*R_))))))))))'''''''",
"''''''''''@JHVVxxxkhhtree443*R)(((((((((('''''''",
"''''''''''@JHVVxxxkhhtrre943*T)(((((((((('''''''",
"''''''''''@JHVVxxxkhhtrre943*Y/^^^^^^^^^^'''''''",
"''''''''''@JHVVxxxkhhtrre943*Y/^^^^^^^^^^'''''''",
"''''''''''@JHVVxxxxlhstre943*F^^^^^^^^^^^'''''''",
"''''''''''@JHVVxxxxlhstre943:F^!!!!!!!!!!'''''''",
"''''''''''@JHVVxxxxlhstre943*F!!!!!!!!!!!'''''''",
"''''''''''@JHVVxxxxlhstre943*S!WWWWWWWWWW'''''''",
"''''''''''@JHVVxxxxlhstre943:SQEEEEEEEEEE'''''''",
"''''''''''@JHVVxxxxlhstre943:SQEEEEEEEEEE'''''''",
"''''''''''@JHVVVxxxlhstre943*SQEEEEEEEEEE'''''''",
"''''''''''@JHVVVxxxlhstre943:AEUUUUUUUUUU'''''''",
"''''''''''@JHVVVxxxlhstre943:NUUUUUUUUUUU'''''''",
"''''''''''@JHVVVxxxlhstre943:NUUUUUUUUUUU'''''''",
"''''''''''@JHVVVxxxlhstre943:NUUUUUUUUUUU'''''''",
"''''''''''@JHVVVxxxlhstre943:NIIIIIIIIIII'''''''",
"''''''''''@JHVVVxxxkhgtree43:NIPPPPPPPPPP'''''''",
"''''''''''@JHVVVxxxkhgtree43:MIPPPPPPPPPP'''''''",
"''''''''''@JHVVVxxxkhgtree43:MPJJJJJJJJJJ'''''''",
"''''''''''@JHVVVxxxkhgtree43:MKJJJJJJJJJJ'''''''",
"'''''''''@mJHVVVxxxkhgtree43=qKJJJJJJJJJJ'''''''",
"''''''''8PPJHVVVxxxkhhtree432>fHJJJJJJJJJ'''''''",
"''''''''CPJJHVVVxxxkhhtree432;&fHHHHHHHHH'''''''",
"'''''''OLPJJHVVVxxxkhhtree432;*dHVVVVVVVV'''''''",
"'''''''OLPJJHVVVxxxkhhtree432;*dHVVVVVVVV'''''''",
"'''''''OLPJJHVVVxxxkhhtree432;*aHxxxxxxxx'''''''",
"'''''''OLPJJHVVVxxxkhhtree432;*axxxxxxxxx'''''''",
"'''''''OLPJJJHVVxxxkhhtrre4432*pxxxxxxxxx'''''''",
"'''''''OLPJJJHVVxxxkhhtrre4432*pxxxxxxxxx'''''''",
"'''''''OLPJJJHVVxxxkhhtrre4432*pkkkkkkkkk'''''''",
"'''''''OGPJJJHVVxxxkhhtrre9432*rkkkkkkkkk'''''''",
"'''''''OGPJJJHVVxxxkhhtrre9432*ekjjjjjjj''''''''",
"'''''''OGPJJJHVVxxxkhhttre9432*ejjjjjjjj''''''''",
"'''''''OGPJJJHVVxxxkhhttre9432*eiuuuuuu'''''''''",
"''''''''CPJJJHVVxxxkhhttee4''''eiuuuuu''''''''''",
"''''''''NIJJJHVVxxxkhht''''''''wuuuu''''''''''''",
"'''''''''CPJJHVVzzl''''''''''''wyyy'''''''''''''",
"'''''''''''MJBB''''''''''''''''wyy''''''''''''''",
"'''''''''''''''''''''''''''''''wy'''''''''''''''",
"'''''''''''''''''''''''''''''''3''''''''''''''''"
};
