/* XPM */
static const char *toolbar_plugin_options_xpm[] = {
/* columns rows colors chars-per-pixel */
"48 48 58 1",
"  c #666463",
". c #696665",
"X c #6E6B6A",
"o c #706D6C",
"O c #767372",
"+ c #797776",
"@ c #7A7877",
"# c #7D7B7A",
"$ c #817F7E",
"% c #82807F",
"& c #858382",
"* c #888786",
"= c #8A8887",
"- c #8C8B8A",
"; c #908E8D",
": c #92908F",
"> c #959392",
", c #999796",
"< c #999897",
"1 c #9D9B9A",
"2 c #A19F9E",
"3 c #A2A09F",
"4 c #A4A2A1",
"5 c #A9A7A7",
"6 c #A9A8A7",
"7 c #ADACAB",
"8 c #B0AFAE",
"9 c #B1B0AF",
"0 c #B5B4B3",
"q c #B8B7B6",
"w c #B8B8B7",
"e c #BCBCBB",
"r c #C0BFBF",
"t c #C0C0BF",
"y c #C4C4C3",
"u c #C8C7C6",
"i c #C7C8C7",
"p c #C8C8C7",
"a c #CCCCCB",
"s c #D0CFCF",
"d c #D0D0CF",
"f c #D4D3D3",
"g c #D8D7D7",
"h c #D8D8D7",
"j c #DCDBDB",
"k c #E0DFDF",
"l c #E0E0DF",
"z c #E4E3E3",
"x c #E8E7E7",
"c c #E8E8E7",
"v c #ECEBEB",
"b c #F0EFEF",
"n c #F0F1EF",
"m c #EFF0F0",
"M c #F4F4F4",
"N c #F8F8F7",
"B c #FDFDFD",
"V c None",
/* pixels */
"VVVVVVVVVVVVVVVVVVVVV%&&***VVVVVVVVVVVVVVVVVVVVV",
"VVVVVVVVVVVVVVVVVVVVVyfaaaaVVVVVVVVVVVVVVVVVVVVV",
"VVVVVVVVVVVVVV=XVVVVVyjfappVVVVV+6VVVVVVVVVVVVVV",
"VVVVVVVVVVVV#0j1VVVVVujfsaaVVVVVexj<VVVVVVVVVVVV",
"VVVVVVVVVVO4gNBf+VVVVazgfasVVVV=jqyzf&VVVVVVVVVV",
"VVVVVVVVVXeMBBBM7VVVVazjfffVVVVfpwq0aM+VVVVVVVVV",
"VVVVVVVVVV<MBBNBz*VVVfxkhfgVVV4zwew0fyVVVVVVVVVV",
"VVVVVVVVVV.yBBBNNy.V&gvzjgj;VXlyeewexOVVVVVVVVVV",
"VVVVVVVVVVV*xBBNBceyfjvzzhzMzkgeeeqz7VVVVVVVVVVV",
"VVVVVXVVVVVVqBBBNNzzcvvczjjjvvyreepkVVVVVV+VVVVV",
"VVVVOe<.VVVV#jBBBNNNMMbvxzjfsauyrez>VVVVOyM&VVVV",
"VVVV4zxy=VVVXyMBBBBMzgdffgjjfaauefMOVVV8xfafVVVV",
"VVV#avMMzq#XefbBBNhyepfhjjjzvzsuyfBxO>zze99z1VVV",
"VVV0jzvMNMjufvBBveejvMMMbvxzzMMhyefBNxu0q00ejVVV",
"VV-fjzxvMMNvvBBjqgNBBNMvvvczjjvBzyeffwwwwq08x7VV",
"VVo2ajzcvMMNNBjqzBBNzfuuajvvzjfzBzyeeeeww0ykt+VV",
"VVVV@0jxvMMMNxwzBBvp711<14qzNxgfzBfeteeqtjf-VVVV",
"VVVVVV-pzvMNMtfBBxe1>VVVVVV>yBvfsxMueeefj4VVVVVV",
"VVVVVVV.yzvNhyNBve,VVVVVVVVVV0BzffMjetzjXVVVVVVV",
"VVVVVVVVazvvujBNa1VVVVVVVVVVVVyNhfjcuezzVVVVVVVV",
"VVVVVVV-zzvzpvNz0<VVVVVVVVVVVV,kzffzarfM:VVVVVVV",
"*pyuasfhzzzhfMNh4VVVVVVVVVVVVVVqcjfjfypkjfdapua=",
"-aeyuaaffjzgjMMf3VVVVVVVVVVVVVV4jjgfdayeeeeewqu-",
"-aeeyuasfhkhzMnf1VVVVVVVVVVVVVV<akjfaapyteeewqy*",
";aweeypaffjjzvvz2VVVVVVVVVVVVVV,yzzaisauyteeewy*",
">dweeyupafgzcxvM7VVVVVVVVVVVVVV<yxzaufapyyteeey*",
";jfghjjxvgfzbzvNrVVVVVVVVVVVVVV1avxyagfdayyeeee&",
"VVVVVVV>BjajMzzMc1VVVVVVVVVVVV>7jnzefjff&VVVVVVV",
"VVVVVVVVvvafMvzcBuVVVVVVVVVVVV<yvMfezjfrVVVVVVVV",
"VVVVVVVozvaaxNzzMB8VVVVVVVVVV>qzMvefczf0.VVVVVVV",
"VVVVVV5zgypafNMkxMMw>VVVVVV><qzNNaecczjfe*VVVVVV",
"VVVV;hzywyuaazBczcmva51,,,<6uvBBj0jMvxzjga7@VVVV",
"VV#uxu0weeyuaszNczvMvjpeetdzBBBl0gMMvczjhfsy1oVV",
"VV0v00wweeeghafzMccvMNMMMNBBBNf0hNMzzvczjgfap-VV",
"VVVzy0wwqpxMBhafkczzvMNBBBBMjeexBNzywfcczjff8VVV",
"VVV1c00ezz>OzBjsfjjgsafggdyeejNBBxy8X@0hzzhu#VVV",
"VVVVhsfc8VVVOvhafhjzzhdaaahcNBBBBvwXVVV=ejh4VVVV",
"VVVV*NuOVVVV;zuaffjzxvMNNNBBBBBBBBg+VVVV.,wOVVVV",
"VVVVV+VVVVVVhaypafxxzxvMMNMxhhBBBBN0VVVVVVXVVVVV",
"VVVVVVVVVVV6jwyupjffjjvvMNfy07cBBBBz*VVVVVVVVVVV",
"VVVVVVVVVVOleeryafXV*fcvMNa$V eBBBBNe.VVVVVVVVVV",
"VVVVVVVVVVedqeerj<VVVazcvNpVVV&zBBBBv,VVVVVVVVVV",
"VVVVVVVVVOcaqwepuVVVVazzvMpVVVV7NBBBvwXVVVVVVVVV",
"VVVVVVVVVV&pjywf&VVVVpkzxMuVVVVOfBNg2OVVVVVVVVVV",
"VVVVVVVVVVVV>aj0VVVVVyjkzvyVVVVV1j0#VVVVVVVVVVVV",
"VVVVVVVVVVVVVV2OVVVVVyhjzvyVVVVVX*VVVVVVVVVVVVVV",
"VVVVVVVVVVVVVVVVVVVVVydffgyVVVVVVVVVVVVVVVVVVVVV",
"VVVVVVVVVVVVVVVVVVVVV&&&%%$VVVVVVVVVVVVVVVVVVVVV"
};
