/* XPM */
static char *toolbar_pause_xpm[] = {
/* columns rows colors chars-per-pixel */
"48 48 94 2",
"   c #96140D",
".  c #971A12",
"X  c #9A1C14",
"o  c #9B1F18",
"O  c #BA140C",
"+  c #A41D15",
"@  c #AC1D15",
"#  c #A21F18",
"$  c #AB1F18",
"%  c #B51D15",
"&  c #BC1D15",
"*  c #B31F18",
"=  c #9C221B",
"-  c #A4221B",
";  c #AC221B",
":  c #B4221B",
">  c #BB221B",
",  c #9C2721",
"<  c #9F2821",
"1  c #A32821",
"2  c #AA2821",
"3  c #B32821",
"4  c #BC2821",
"5  c #A2312A",
"6  c #AB312A",
"7  c #B3312A",
"8  c #BC312A",
"9  c #C7150D",
"0  c #C41B13",
"q  c #CB1E16",
"w  c #D31D15",
"e  c #C3231B",
"r  c #CB241C",
"t  c #D1221A",
"y  c #C42921",
"u  c #CB2921",
"i  c #D32921",
"p  c #C1322A",
"a  c #AE544F",
"s  c #AF5751",
"d  c #B05954",
"f  c #B25D58",
"g  c #B5645F",
"h  c #CB5A55",
"j  c #CF5D58",
"k  c #D25A55",
"l  c #D15D58",
"z  c #D5615B",
"x  c #CC6762",
"c  c #CFA9A6",
"v  c #D3AEAB",
"b  c #DAAEAC",
"n  c #DBB0AE",
"m  c #D5BAB9",
"M  c #E3B1AF",
"N  c #E4B6B4",
"B  c #EAB6B4",
"V  c #CDCCCC",
"C  c #D0CFCF",
"Z  c #DFCAC9",
"A  c #D4D3D3",
"S  c #D8D7D7",
"D  c #D7D8D6",
"F  c #D8D8D7",
"G  c #DCDCDB",
"H  c #E6C5C4",
"J  c #E9C5C4",
"K  c #E2CECD",
"L  c #EBCECC",
"P  c #E5D0CF",
"I  c #EED0CE",
"U  c #E4D3D1",
"Y  c #EED3D2",
"T  c #E0DFDF",
"R  c #F0DCDB",
"E  c #E0E0DF",
"W  c #E8E0DF",
"Q  c #E3E3E3",
"!  c #EBE4E4",
"~  c #E7E8E7",
"^  c #E8E8E7",
"/  c #E8E7E8",
"(  c #E6EBEA",
")  c #ECECEC",
"_  c #F1E7E7",
"`  c #F0E8E7",
"'  c #F3EAEA",
"]  c #E9F0EF",
"[  c #F0F0EF",
"{  c #ECF2F2",
"}  c #F2F2F2",
"|  c #F5FBFB",
" . c #FAFCFC",
".. c None",
/* pixels */
"....................................F D V V V V V V V V D F ....................................",
"..............................F V V A S G Q Q Q ~ Q Q G F A V V F ..............................",
"..........................A V A G ~ ^ ) ) ) ) ^ ^ ) ) ) ) ^ ~ G A V A ..........................",
"......................F V D Q ^ ) ^ ^ ) ) ) ) ) ) ) ) ) ) ^ ^ ) ^ Q S V S ......................",
"....................V A Q ) ^ ) ) ) ) ) ) ) ) ) ) ) ) ) ) ) ) ^ ^ ^ ) Q A V ....................",
"................G V F ^ ) ^ ) ) ) ) ) ) ) ) ) ) ) ) ) ) ) ) ) ) ) ) ^ ^ ^ G V G ................",
"..............F V Q ) ^ ) ) ) ) ) ) ) ) ) ) ) ) ) ) ) ) ) ) ) ) ) ) ) ) ^ ) Q V S ..............",
"............F V Q ) / ) ) ) ) ) ) ) ) ) ) [ [ [ [ [ [ ) ) ) ) ) ) ) ) ) ) ^ ) Q V S ............",
"..........G V Q ) ^ ) ) ) ) ) ) ) ) [ } } } } } } } } } [ ) ) ) ) ) ) ) ) ) ^ ^ Q V G ..........",
"..........V T ) ^ ) ) ) ) ) ) ) } } } } } } } } } } } } } } } [ ) ) ) ) ) ) ) ^ ) Q V ..........",
"........V F ) ^ ) ) ) ) ) ) ) } } } } } } } } } } } } } } } } } } [ ) ) ) ) ) ) ^ ) G V ........",
"......G C ^ ^ ) ) ) ) ) ) } } } } } } } } } } } } } } } } } } } } } [ ) ) ) ) ) ) ^ ^ A F ......",
"......V Q ) ) ) ) ) ) ) } } } } } } } } } } } } } } } } } } } } } } } [ ) ) ) ) ) ) ^ Q V ......",
"....D A ) ^ ) ) ) ) ) } } } } | | | | | | } } } } } } | | | | | | } } } [ ) ) ) ) ) ^ ) S A ....",
"....V Q ) ) ) ) ) ) [ } } | J k l l j h x ' | } } | R z k l j j h H | } } ) ) ) ) ) ) ^ Q V ....",
"..G A ^ ) ) ) ) ) [ } } } | M 9 0 0 0 O 4 ` | | |  .Y q 9 0 0 & O M | } } } [ ) ) ) ) ^ ) A G ..",
"..V G ) ) ) ) ) ) } } } } | B q r r e e p '  .| |  .Y i r r r e & b { ~ ~ ^ ) ) ) ) ) ^ ) T V ..",
"..V ~ ) ) ) ) ) ) } } } } | B w t r r e p '  .} } | L i t r r e & b { Q Q Q G G Q ^ ) ) ^ ^ V ..",
"G A ^ ) ) ) ) ) [ } } } } | B w t r r e p ' | } } | I i t r r e & b { ~ Q Q Q G G G G ~ ) ) A G ",
"S S ) ) ) ) ) ) } } } } }  .B w r r e e p _ | } } | Y i t r r e & b { ~ Q Q Q G G G F D G / G D ",
"V G ) ) ) ) ) [ } } } } }  .B q r r e > 8 _ | } } | Y u r r e e & b { ~ Q Q Q E G G G F A A F V ",
"V Q ) ) ) ) ) [ } } } } }  .B 0 e e e > 8 '  .| |  .Y u e e e > & b { ~ Q Q Q E G G G F A A V V ",
"V Q ) ) ) ) ) [ } } } } }  .N 0 e e > > 8 '  . . . .Y y e e > > % b { ^ ~ Q Q Q G G G F A A V V ",
"V Q ) ) ) ) ) [ } } } } }  .N & > > > * 8 '  . . . .Y 4 > > > : % b { ^ ~ Q Q Q G G G F A A C V ",
"V Q ) ) ) ) ) [ } } } } }  .N % > : : * 7 '  . . . .Y 4 > > : : @ b { ^ ~ Q Q Q G G G F A A C V ",
"V Q ) ) ) ) ) [ } } } } } | n % : : : $ 7 '  . . . .Y 3 : : : ; @ b { ^ ~ Q Q Q G G G F A A V V ",
"V Q ) ) ) ) ) [ } } } } } { b @ ; ; ; $ 6 '  .| |  .Y 3 ; ; ; ; + v { ~ ~ Q Q Q G G G F A A V V ",
"C G ) ) ) ) ) [ } } } } ) { b + ; ; - # 6 ` | | |  .U 2 ; ; ; - + v { ~ Q Q Q E G G G F A A V V ",
"S S ) ) ) ) ) [ } } } } ^ { v + - - - # 5 ! | } }  .U 2 - - - - X v { ~ Q Q Q E G G G D A A V S ",
"G A ^ ) ) ) ) ) } } } ) ~ { v X - = = o 5 ! | } } | P 1 - - = = X v { ~ Q Q Q G G G G D A C V G ",
"..V ~ ) ) ) ) ) [ } } Q Q { v X = = = o 5 ! } } } | K < = = = = X v { Q Q Q Q G G G F A A C V ..",
"..C G ) ) ) ) ) ) } ) Q Q { v X = = = o 5 ! } } [ } K < = = = = X v ] Q Q Q E G G G F A A V C ..",
"..G A ) ) ) ) ) ) } ~ Q Q ) c   . . .   , W } ) ) } Z o   . . .   c ) Q Q E G G G G D A A V G ..",
"....V Q ) ) ) ) ) ) Q Q Q ( m a d d d s g ! ) ) ) { U f d d d d a m ( Q Q G G G G F A A V V ....",
"....D D ) ) ) ) ) ) G E Q Q ~ ( ) ) { { { ) ) ) ) ^ ) { { { ) ) ( Q Q Q G G G G F D A A V D ....",
"......V Q ) ) ) ) ^ G G Q Q Q Q Q ~ ~ ~ ^ ^ ^ ^ ^ ^ ^ ~ ~ ~ Q Q Q Q Q G G G G G D A A V V ......",
"......G A ^ ) ) ) Q G G G E Q Q Q Q Q Q ~ ~ ~ ~ ~ ~ ~ ~ Q Q Q Q Q Q G G G G G F A A C V G ......",
"........V G ) ) ) Q G G G G G Q Q Q Q Q Q Q Q Q Q Q Q Q Q Q Q Q E G G G G G F D A A V V ........",
"..........V Q ) ) E F G G G G G Q Q Q Q Q Q Q Q Q Q Q Q Q Q Q G G G G G G F D A A V V ..........",
"..........G V Q ) G D F G G G G G G E Q Q Q Q Q Q Q Q Q E G G G G G G G F D A A V V G ..........",
"............F V Q G A D F G G G G G G G G G G G G G G G G G G G G G G F A A A V V F ............",
"..............F V S A A A D F G G G G G G G G G G G G G G G G G G F D A A A V V F ..............",
"................G V V A A A A D F G G G G G G G G G G G G G G F D A A A A V V G ................",
"....................V V C A A A A D F F F G G G G G G F F D D A A A A C V V ....................",
"......................G V V C A A A A A A D D D D D D A A A A A A C V V G ......................",
"..........................A V V V A A A A A A A A A A A A A C V V V A ..........................",
"..............................G A V V V V A A A A A A V V V V A G ..............................",
"....................................G F A V V V V V V A F G ...................................."
};
