/* XPM */
static char *toolbar_browse_xpm[] = {
/* columns rows colors chars-per-pixel */
"48 48 148 2",
"   c #14100F",
".  c #161211",
"X  c #191614",
"o  c #1C1816",
"O  c #1E1C1B",
"+  c #24211F",
"@  c #252322",
"#  c #292524",
"$  c #242628",
"%  c #272829",
"&  c #2C2D2D",
"*  c #323233",
"=  c #3C3E3F",
"-  c #3D3F40",
";  c #414345",
":  c #4A4D4F",
">  c #4B4E50",
",  c #4E5153",
"<  c #505456",
"1  c #50585D",
"2  c #425C69",
"3  c #4A626E",
"4  c #54636B",
"5  c #5E656A",
"6  c #4D6672",
"7  c #4F6A77",
"8  c #516A76",
"9  c #546D7B",
"0  c #596D79",
"q  c #5D727D",
"w  c #6A6C6E",
"e  c #656E73",
"r  c #6F7274",
"t  c #61727C",
"y  c #5D7684",
"u  c #5D7E90",
"i  c #617783",
"p  c #617986",
"a  c #647C89",
"s  c #67808D",
"d  c #6C828E",
"f  c #738087",
"g  c #778288",
"h  c #628294",
"j  c #698594",
"k  c #6D8897",
"l  c #678799",
"z  c #6C8B9D",
"x  c #728691",
"c  c #758995",
"v  c #7A8C95",
"b  c #738C9A",
"n  c #798E9B",
"m  c #75909F",
"M  c #7B909C",
"N  c #6F8FA0",
"B  c #708FA0",
"V  c #7492A4",
"C  c #7A95A6",
"Z  c #7997A9",
"A  c #7D9AAA",
"S  c #869094",
"D  c #84949D",
"F  c #89969F",
"G  c #8597A1",
"H  c #8798A2",
"J  c #8C9BA5",
"K  c #829DAC",
"L  c #8B9EAA",
"P  c #939EA5",
"I  c #839FB0",
"U  c #8EA1AC",
"Y  c #91A2AD",
"T  c #9BA6AC",
"R  c #85A1B3",
"E  c #8AA4B4",
"W  c #8EA8B8",
"Q  c #93A5B1",
"!  c #96A8B3",
"~  c #9BAAB2",
"^  c #94ACBC",
"/  c #9DAFBB",
"(  c #9CB0BD",
")  c #A2AEB4",
"_  c #A0AFB8",
"`  c #A7B2B7",
"'  c #ADB1B3",
"]  c #A4B3BC",
"[  c #AAB5BC",
"{  c #AEB9BF",
"}  c #B0B9BF",
"|  c #BDBEBF",
" . c #9DB3C2",
".. c #A2B6C4",
"X. c #A3B9C7",
"o. c #ACBAC2",
"O. c #A6BBC9",
"+. c #AABECB",
"@. c #B3BDC3",
"#. c #B1BFC8",
"$. c #AEC2CE",
"%. c #B6C0C6",
"&. c #B9C2C6",
"*. c #B4C2CC",
"=. c #BDC5CB",
"-. c #BEC8CE",
";. c #AEC2D0",
":. c #B2C5D1",
">. c #B9C7D0",
",. c #B5C8D3",
"<. c #BBCBD5",
"1. c #B7CBD9",
"2. c #BECED8",
"3. c #C1C3C5",
"4. c #C0C7CB",
"5. c #C2CACE",
"6. c #C4CDD2",
"7. c #C8CFD3",
"8. c #C0CFD9",
"9. c #C5D1D7",
"0. c #CCD2D6",
"q. c #C4D2DB",
"w. c #CBD6DD",
"e. c #CED8DF",
"r. c #D1D6D9",
"t. c #D4D9DD",
"y. c #D8DCDF",
"u. c #C5D6E1",
"i. c #CBD7E0",
"p. c #CDD9E1",
"a. c #D3DDE3",
"s. c #DADFE2",
"d. c #D6E0E7",
"f. c #DCE2E6",
"g. c #D5E1E9",
"h. c #DBE4E9",
"j. c #E1E4E6",
"k. c #E1E6EA",
"l. c #E4E9ED",
"z. c #E9ECEE",
"x. c #E6ECF1",
"c. c #EAEEF1",
"v. c #EDF1F4",
"b. c #F2F4F6",
"n. c #F5F7F8",
"m. c #F7F8FA",
"M. c #FBFCFC",
"N. c None",
/* pixels */
"N.N.N.N.N.N.N.N.N.N.N.N.N.N.` @.&.=.5.7.5.4.=.@.[ N.N.N.N.N.N.N.N.N.N.N.N.N.N.N.N.N.N.N.N.N.N.N.",
"N.N.N.N.N.N.N.N.` 7.f.k.k.j.s.r.0.6.5.5.5.6.7.0.y.j.k.k.f.0.} N.N.N.N.N.N.N.N.N.N.N.N.N.N.N.N.N.",
"N.N.N.N.N.} f.l.t.5.{ [ [ { %.=.5.6.6.-.*.*.o.[ _ ~ T ~ ` &.r.k.j.&.N.N.N.N.N.N.N.N.N.N.N.N.N.N.",
"N.N.N.@.b.s.o.) @.6.f.x.n.M.M.m.n.v.c.x.h.d.a.p.i.q.<.:.O.( Q U ) 0.b.5.N.N.N.N.N.N.N.N.N.N.N.N.",
"N.N.7.b.[ ] 9.h.x.c.v.b.n.M.M.n.v.v.l.k.h.a.a.p.w.q.<.,.:.;.$.O.( L T z.s.N.N.N.N.N.N.N.N.N.N.N.",
"N.N.M.@.>.d.d.h.k.l.c.v.n.M.M.n.v.v.l.k.h.a.a.p.w.q.<.,.:.$.+.O.X.X.^ Q m.N.N.N.N.N.N.N.N.N.N.N.",
"N.>.M.a.w.p.a.h.k.l.c.v.b.n.n.b.v.c.l.k.h.a.a.w.q.8.<.,.$.$.+.O.X. .^ ..m.x.N.N.N.N.N.N.N.N.N.N.",
"N.N.8.M.h.i.a.d.h.l.z.c.v.v.v.v.v.x.l.h.d.a.p.w.q.2.<.,.$.$.+.O. .( +.c.v.N.N.N.N.N.N.N.N.N.N.N.",
"N.N.u +.n.m.l.d.d.h.l.l.c.v.v.c.c.x.l.h.d.a.p.i.q.2.,.:.+.O.X.O.:.d.M.l.+.N.N.N.N.N.N.N.N.N.N.N.",
"N.N.u u V $.k.m.m.b.c.x.l.l.c.l.a.9.6.6.6.-.=.*.<.2.<.<.2.i.h.v.m.c.w.+.X.N.N.N.N.N.N.N.N.N.N.N.",
"N.N.h h h h B E *.a.z.b.M.M.f.6.7.0.5.=.=.4.7.0.5.6.l.M.M.M.b.l.a.q.<.$.O.N.N.N.N.N.N.N.N.N.N.N.",
"N.N.h h l z z N B Z K ^  .%.r.6.@.@.-.7.0.7.&.@.&.0.0.y.b.x.h.d.a.w.<.$.O.N.N.N.N.N.N.N.N.N.N.N.",
"N.N.h h l z B V Z A I K ] r.@.%.k.M.M.M.M.M.M.m.a.{ =.0.6.x.l.h.a.w.<.$.O.N.N.N.N.N.N.N.N.N.N.N.",
"N.N.h h l z B V Z A Z [ t.[ t.M.M.M.M.M.M.M.M.M.M.m.-.{ r.5.l.h.a.w.<.$.O.N.N.N.N.N.N.N.N.N.N.N.",
"N.N.h h l z B V Z Z ! y.[ s.M.M.M.M.M.M.M.M.M.M.M.M.M.6.@.r.6.h.a.w.<.$.O.N.N.N.N.N.N.N.N.N.N.N.",
"N.N.N.h l l B V Z C r.@.w.n.M.M.M.M.M.M.M.M.M.M.M.M.M.v.@.=.6.e.a.w.<.:.N.N.N.N.N.N.N.N.N.N.N.N.",
"N.N.N.N.b A V V V o.7.-.f.M.M.M.M.M.M.M.M.M.M.M.M.M.M.n.t.[ 0.-.h.g.*.N.N.N.N.N.N.N.N.N.N.N.N.N.",
"N.N.N.[ b.0.c h b 0.@.s.k.m.m.m.M.M.M.M.M.M.M.m.m.n.n.b.a.-.&.=.T 5.b.%.N.N.N.N.N.N.N.N.N.N.N.N.",
"N.N.5.n.T q 6 2 v 0.-.f.k.b.m.m.m.M.M.M.M.M.m.m.n.b.b.v.a.e.@.7.6 8 F z.y.N.N.N.N.N.N.N.N.N.N.N.",
"N.N.M.Y 8 9 9 7 ) 6.w.f.k.b.n.m.M.M.M.M.M.M.m.m.n.b.b.l.a.a.#.0.x 8 8 v m.N.N.N.N.N.N.N.N.N.N.N.",
"N.6.M.J y d d a @.=.s.j.l.c.n.m.M.M.M.M.M.M.M.m.n.b.v.f.s.a.=.0.L a a c n.v.N.N.N.N.N.N.N.N.N.N.",
"N.N.w.b.! n M n &.=.f.k.z.v.b.m.M.M.M.M.M.M.m.m.n.b.z.j.f.s.5.7.~ c L f.b.N.N.N.N.N.N.N.N.N.N.N.",
"N.N.h -.m.f.@.Y &.=.f.l.z.b.n.m.m.M.M.M.M.M.M.m.n.v.z.k.f.s.5.6.o.0.m.x.+.N.N.N.N.N.N.N.N.N.N.N.",
"N.N.u u A >.c.z.0.=.s.l.c.b.n.m.M.M.M.M.M.M.m.m.n.v.z.k.f.f.=.5.t.n.i.+.X.N.N.N.N.N.N.N.N.N.N.N.",
"N.N.h h h h V ^ o.5.0.c.c.b.n.m.m.M.M.M.M.M.m.m.n.b.z.l.f.f.%.0.<.i.<.$.O.N.N.N.N.N.N.N.N.N.N.N.",
"N.N.h h l z z z C 0.=.b.c.b.n.m.M.M.M.M.M.M.m.m.n.b.z.k.j.f.%.7.q.i.<.$.O.N.N.N.N.N.N.N.N.N.N.N.",
"N.N.h h l z B V B =.=.k.b.b.n.m.m.M.M.M.M.m.m.n.b.v.z.k.c.6.6.-.a.w.<.$.O.N.N.N.N.N.N.N.N.N.N.N.",
"N.N.h h l z B V V U t.=.m.n.n.n.n.m.m.m.m.m.n.n.b.c.z.v.k.@.0.6.d.w.<.$.O.N.N.N.N.N.N.N.N.N.N.N.",
"N.N.h h l z B V Z V @.7.0.M.m.m.m.m.m.m.m.n.n.n.b.b.n.v.@.0.-.h.a.w.<.$.O.N.N.N.N.N.N.N.N.N.N.N.",
"N.N.N.h l z N V Z A C 7.5.0.m.M.M.M.M.M.M.M.M.m.m.m.c.%.0.=.=.h.a.w.<.:.N.N.N.N.N.N.N.N.N.N.N.N.",
"N.N.N.N.z C V V Z A K K 7.7.=.z.M.M.M.M.M.m.m.m.n.t.@.0.&.t.6.w.a.g.*.N.N.N.N.N.N.N.N.N.N.N.N.N.",
"N.N.N.` z.0.n j B A R W E =.t.=.6.s.z.v.v.c.k.r.=.5.y.=.@.6.f.w * ' b.@.N.N.N.N.N.N.N.N.N.N.N.N.",
"N.N.=.m.) t 3 2 3 9 a k C A ! 5.r.0.5.5.5.5.6.0.0.@.[ o.n ~ r .   % S v.r.N.N.N.N.N.N.N.N.N.N.N.",
"N.N.M.Y 6 8 8 9 9 8 8 8 8 9 9 9 d Y { %.&.@.` H i 9 9 6 7 4 & ; - o $ g M.N.N.N.N.N.N.N.N.N.N.N.",
"N.9.M.G y a a a a a a a a a a a p y y p p p y y p a a a s 0 & : e = o & 3.M.N.N.N.N.N.N.N.N.N.N.",
"N.N.t.c.L c b n n n n n n n n n n n n n n n n n n n n n n C t @ > e = X = 5 N.N.N.N.N.N.N.N.N.N.",
"N.N.h 8.m.t.] Y L L U U Y Y Y Y Y Y Y Y Y Y Y Y Y Y Y U U L Q f # : e = o @ N.N.N.N.N.N.N.N.N.N.",
"N.N.u u K 8.v.v.f.6.#.o.] ( ( / / / / / / / / / ( ( ( ..o.-.t.n.| # : e = O & N.N.N.N.N.N.N.N.N.",
"N.N.h h h h V ( 8.h.v.b.v.x.k.f.a.a.a.e.e.a.a.a.h.k.c.b.M.M.m.c.x.T # : e = O & N.N.N.N.N.N.N.N.",
"N.N.h h l z z z B Z E  .*.2.p.h.l.x.v.b.n.m.M.M.M.M.M.M.b.x.h.d.a.g.P # : e = O & N.N.N.N.N.N.N.",
"N.N.h h l z B V C A K R E W ^  .X.+.:.8.i.a.h.c.b.M.M.n.v.x.k.h.a.w.u.F # > e = O & N.N.N.N.N.N.",
"N.u h h l z B V Z A I E W ^  ...O.$.,.q.p.d.k.c.n.M.M.n.v.x.k.h.a.w.<.1.D % , e = O & N.N.N.N.N.",
"N.N.h h l z B V Z A I E W ^  ...O.$.,.q.p.d.k.c.n.M.M.n.v.x.k.h.a.w.<.$.,.1 o < e = O & N.N.N.N.",
"N.N.x h l z B V Z A I E W ^  ...O.$.,.q.p.d.k.c.n.M.M.n.v.x.k.h.a.w.2.:.Q N.N.+ < e = O & N.N.N.",
"N.N.N.c k z N V Z A I E W ^  ...O.$.,.q.p.d.k.c.n.M.M.n.v.x.l.h.d.w.o.H N.N.N.N.@ < e = + @ N.N.",
"N.N.N.N.N.c b m C A R E ^ ^  .X.O.$.,.q.p.d.l.v.m.M.M.M.n.c.h.9.[ H N.N.N.N.N.N.N.@ < 5 * o N.N.",
"N.N.N.N.N.N.N.N.v n C K E ^ / ..O.$.<.q.a.d.l.x.c.v.k.0.@.~ F N.N.N.N.N.N.N.N.N.N.N.# ; & X N.N.",
"N.N.N.N.N.N.N.N.N.N.N.N.N.N.v D D G H J J J J J F N.N.N.N.N.N.N.N.N.N.N.N.N.N.N.N.N.N.& N.N.N.N."
};
