/* XPM */
static const char *const htmoptns_xpm[] = {
"16 15 2 1",
" 	c None",
".	c #000000",
"                ",
"      ..        ",
"      ...       ",
"     ....       ",
"     . ...      ",
"    .. ...      ",
"    .   ..      ",
"   ..   ...     ",
"   .     ..     ",
"   .........    ",
"  ..     ...    ",
"  .       ...   ",
" ..       ...   ",
" ....   ....... ",
"                "};
