/* XPM */
static const char *const plus_xpm[] = {
"16 16 3 1",
" 	c None",
".	c Black",
"X	c Gray100",
"                ",
"                ",
"      ....      ",
"      .XX.      ",
"      .XX.      ",
"      .XX.      ",
" ......XX...... ",
" .XXXXXXXXXXXX. ",
" .XXXXXXXXXXXX. ",
" ......XX...... ",
"      .XX.      ",
"      .XX.      ",
"      .XX.      ",
"      ....      ",
"                ",
"                "};
