/* XPM */
static const char *const wxwin32x32_xpm[] = {
"32 32 407 2",
"  	c None",
". 	c #7373C1",
"+ 	c #6E6EBF",
"@ 	c #6B6BBF",
"# 	c #6868BF",
"$ 	c #6464BF",
"% 	c #6161BF",
"& 	c #5E5EBF",
"* 	c #5A5ABF",
"= 	c #5959C0",
"- 	c #7171C0",
"; 	c #7272C1",
"> 	c #8686CE",
", 	c #8686D0",
"' 	c #8282D0",
") 	c #7D7DD0",
"! 	c #7979D0",
"~ 	c #7575D0",
"{ 	c #7171D0",
"] 	c #6D6DD0",
"^ 	c #6666CD",
"/ 	c #5151C1",
"( 	c #4C4CBF",
"_ 	c #7171C1",
": 	c #7272C2",
"< 	c #C1C1F2",
"[ 	c #D7D7FF",
"} 	c #C9C9FF",
"| 	c #C2C2FF",
"1 	c #BBBBFF",
"2 	c #B4B4FF",
"3 	c #AEAEFF",
"4 	c #A7A7FF",
"5 	c #A0A0FF",
"6 	c #9A9AFF",
"7 	c #8484F2",
"8 	c #4949C2",
"9 	c #4444C1",
"0 	c #6A6AC0",
"a 	c #8989D4",
"b 	c #DADAFF",
"c 	c #C0C0FF",
"d 	c #9393FF",
"e 	c #8C8CFF",
"f 	c #8686FF",
"g 	c #5454D4",
"h 	c #3E3EC0",
"i 	c #6363BF",
"j 	c #8686D8",
"k 	c #D4D4FF",
"l 	c #D2D2FF",
"m 	c #7F7FFF",
"n 	c #7878FF",
"o 	c #4F4FD7",
"p 	c #3737BF",
"q 	c #5C5CBF",
"r 	c #7D7DD8",
"s 	c #CCCCFF",
"t 	c #CACAFF",
"u 	c #A8A8FF",
"v 	c #7070FF",
"w 	c #6B6BFF",
"x 	c #4545D7",
"y 	c #3030BF",
"z 	c #5555BF",
"A 	c #7373D8",
"B 	c #C3C3FF",
"C 	c #9C9CFF",
"D 	c #8D8DFF",
"E 	c #7777FF",
"F 	c #6262FF",
"G 	c #5252FF",
"H 	c #4B4BFF",
"I 	c #4848FF",
"J 	c #3232D7",
"K 	c #2626BF",
"L 	c #4E4EBF",
"M 	c #6A6AD8",
"N 	c #B9B9FF",
"O 	c #9090FF",
"P 	c #6F6FFF",
"Q 	c #5555FF",
"R 	c #4646FF",
"S 	c #4B4BF5",
"T 	c #8282B4",
"U 	c #93938E",
"V 	c #B1B173",
"W 	c #BFBF68",
"X 	c #BFBF65",
"Y 	c #BFBF62",
"Z 	c #BFBF5E",
"` 	c #BFBF5B",
" .	c #BFBF57",
"..	c #BFBF54",
"+.	c #BFBF51",
"@.	c #5858D8",
"#.	c #B2B2FF",
"$.	c #B1B1FF",
"%.	c #8484FF",
"&.	c #7272FF",
"*.	c #6767FF",
"=.	c #4F4FFF",
"-.	c #4747FF",
";.	c #4242FF",
">.	c #4141FA",
",.	c #ABAB8A",
"'.	c #E4E4AA",
").	c #F5F5C3",
"!.	c #F6F6BE",
"~.	c #F6F6B7",
"{.	c #F6F6B1",
"].	c #F6F6AB",
"^.	c #F6F6A5",
"/.	c #F6F69E",
"(.	c #F6F698",
"_.	c #F1F18C",
":.	c #D0D05F",
"<.	c #BFBF48",
"[.	c #C17474",
"}.	c #C07171",
"|.	c #BF6E6E",
"1.	c #BF6B6B",
"2.	c #BF6868",
"3.	c #BF6464",
"4.	c #BF6161",
"5.	c #7C498C",
"6.	c #4242D8",
"7.	c #A4A4FF",
"8.	c #5959FF",
"9.	c #3D3DFF",
"0.	c #3838FF",
"a.	c #6666CA",
"b.	c #DCDC98",
"c.	c #FFFFDD",
"d.	c #FFFFD7",
"e.	c #FFFFC0",
"f.	c #FFFFB8",
"g.	c #FFFFB2",
"h.	c #FFFFAB",
"i.	c #FFFFA4",
"j.	c #FFFF9D",
"k.	c #FFFF97",
"l.	c #FFFF90",
"m.	c #FBFB85",
"n.	c #C2C244",
"o.	c #C37676",
"p.	c #DA9B9B",
"q.	c #DF9F9F",
"r.	c #DF9A9A",
"s.	c #DF9494",
"t.	c #DF8F8F",
"u.	c #DF8A8A",
"v.	c #B47094",
"w.	c #3B3BD8",
"x.	c #9292FF",
"y.	c #5656FF",
"z.	c #3333FF",
"A.	c #2E2EFF",
"B.	c #7070B6",
"C.	c #E7E79F",
"D.	c #FFFFDE",
"E.	c #FFFFCF",
"F.	c #FFFFB5",
"G.	c #FFFF9E",
"H.	c #FFFF8A",
"I.	c #FFFF83",
"J.	c #FFFF7C",
"K.	c #C8C843",
"L.	c #C06D6D",
"M.	c #F1BEBE",
"N.	c #FFDBDB",
"O.	c #FFCBCB",
"P.	c #FFC0C0",
"Q.	c #FFBABA",
"R.	c #FFB3B3",
"S.	c #FFACAC",
"T.	c #CE89AC",
"U.	c #3333D7",
"V.	c #8787FF",
"W.	c #4D4DFF",
"X.	c #2929FF",
"Y.	c #2424FF",
"Z.	c #6B6BB3",
"`.	c #E7E795",
" +	c #FFFFC6",
".+	c #FFFFA8",
"++	c #FFFF76",
"@+	c #FFFF6F",
"#+	c #C8C83C",
"$+	c #C77474",
"%+	c #FFD3D3",
"&+	c #FFDEDE",
"*+	c #FFC4C4",
"=+	c #FFA6A6",
"-+	c #FF9F9F",
";+	c #F3929A",
">+	c #2F29C3",
",+	c #4C4CFB",
"'+	c #6868FF",
")+	c #3939FF",
"!+	c #1F1FFF",
"~+	c #1A1AFF",
"{+	c #6666B0",
"]+	c #E7E78A",
"^+	c #FFFFD0",
"/+	c #FFFFBD",
"(+	c #FFFF9B",
"_+	c #FFFF91",
":+	c #FAFA6E",
"<+	c #F5F55F",
"[+	c #F5F558",
"}+	c #F7F756",
"|+	c #C7C732",
"1+	c #C86E6E",
"2+	c #FFC9C9",
"3+	c #FFD7D7",
"4+	c #FFB8B8",
"5+	c #FF9898",
"6+	c #FF9292",
"7+	c #FF8B8B",
"8+	c #B16098",
"9+	c #2420C6",
"0+	c #2222DD",
"a+	c #1F1FDF",
"b+	c #1B1BDF",
"c+	c #1818DF",
"d+	c #1414DF",
"e+	c #1010DF",
"f+	c #0C0CDF",
"g+	c #5F5F9C",
"h+	c #E7E77F",
"i+	c #FFFFC9",
"j+	c #FFFFB4",
"k+	c #FFFF8E",
"l+	c #FFFF7D",
"m+	c #FEFE75",
"n+	c #F4F45D",
"o+	c #EFEF4F",
"p+	c #EFEF4A",
"q+	c #EFEF44",
"r+	c #EFEF3F",
"s+	c #BFBF22",
"t+	c #C86666",
"u+	c #FFBFBF",
"v+	c #FFD0D0",
"w+	c #FFADAD",
"x+	c #FF8484",
"y+	c #FF7E7E",
"z+	c #FF7373",
"A+	c #E75F70",
"B+	c #B0457F",
"C+	c #9A3776",
"D+	c #5F1D7C",
"E+	c #0C0CBF",
"F+	c #0909BF",
"G+	c #0707BF",
"H+	c #0404BF",
"I+	c #878766",
"J+	c #E6E674",
"K+	c #FFFFC2",
"L+	c #FFFF82",
"M+	c #FEFE6E",
"N+	c #F3F355",
"O+	c #EFEF45",
"P+	c #EFEF40",
"Q+	c #EFEF3B",
"R+	c #EFEF36",
"S+	c #BFBF1C",
"T+	c #C85F5F",
"U+	c #FFB4B4",
"V+	c #FFA2A2",
"W+	c #FF7575",
"X+	c #FF5E5E",
"Y+	c #FF5050",
"Z+	c #FF4A4A",
"`+	c #FF4545",
" @	c #E73535",
".@	c #BF2121",
"+@	c #B7B733",
"@@	c #DCDC55",
"#@	c #FDFDB7",
"$@	c #FFFFA2",
"%@	c #FFFF75",
"&@	c #FCFC64",
"*@	c #F2F24E",
"=@	c #EFEF31",
"-@	c #EFEF2C",
";@	c #BFBF16",
">@	c #C85656",
",@	c #FFAAAA",
"'@	c #FFC2C2",
")@	c #FF9797",
"!@	c #FF7777",
"~@	c #FF6E6E",
"{@	c #FF5454",
"]@	c #FF4040",
"^@	c #FF3B3B",
"/@	c #E72C2C",
"(@	c #BF1919",
"_@	c #B7B72E",
":@	c #DADA48",
"<@	c #F7F7A6",
"[@	c #F6F689",
"}@	c #F2F254",
"|@	c #EFEF27",
"1@	c #EFEF22",
"2@	c #BFBF10",
"3@	c #C84040",
"4@	c #FF9A9A",
"5@	c #FFBBBB",
"6@	c #FF7171",
"7@	c #FF6666",
"8@	c #FF4E4E",
"9@	c #FF4646",
"0@	c #FF4141",
"a@	c #FF3C3C",
"b@	c #FF3737",
"c@	c #FF3232",
"d@	c #E72424",
"e@	c #BF1414",
"f@	c #B7B729",
"g@	c #DADA3F",
"h@	c #F7F7A1",
"i@	c #F4F480",
"j@	c #F0F047",
"k@	c #EFEF1D",
"l@	c #EFEF18",
"m@	c #BFBF0B",
"n@	c #C83636",
"o@	c #FFABAB",
"p@	c #FF7676",
"q@	c #FF2D2D",
"r@	c #FF2828",
"s@	c #E71C1C",
"t@	c #BF0F0F",
"u@	c #B7B724",
"v@	c #D1D132",
"w@	c #F4F478",
"x@	c #EFEF13",
"y@	c #ECEC0E",
"z@	c #BABA05",
"A@	c #C83030",
"B@	c #FF6161",
"C@	c #FF2323",
"D@	c #FF1E1E",
"E@	c #E71414",
"F@	c #BF0A0A",
"G@	c #B8B820",
"H@	c #B9B91F",
"I@	c #DADA2C",
"J@	c #E9E931",
"K@	c #EAEA2A",
"L@	c #EAEA25",
"M@	c #EAEA20",
"N@	c #EAEA1C",
"O@	c #EAEA17",
"P@	c #EAEA12",
"Q@	c #EAEA0D",
"R@	c #E5E508",
"S@	c #C7C703",
"T@	c #B7B701",
"U@	c #C52929",
"V@	c #FF5858",
"W@	c #FF1919",
"X@	c #FF1414",
"Y@	c #E30C0C",
"Z@	c #BF0606",
"`@	c #B8B819",
" #	c #B7B717",
".#	c #B7B714",
"+#	c #B7B711",
"@#	c #B7B70F",
"##	c #B7B70C",
"$#	c #B7B70A",
"%#	c #B7B707",
"&#	c #B7B705",
"*#	c #B7B702",
"=#	c #B7B700",
"-#	c #BF2020",
";#	c #E63131",
">#	c #FF5555",
",#	c #FF3A3A",
"'#	c #FF0F0F",
")#	c #FA0A0A",
"!#	c #C90303",
"~#	c #C00202",
"{#	c #C01C1C",
"]#	c #CB1B1B",
"^#	c #D01A1A",
"/#	c #D01616",
"(#	c #D01313",
"_#	c #D01010",
":#	c #D00D0D",
"<#	c #D00A0A",
"[#	c #D00707",
"}#	c #CF0303",
"|#	c #C30101",
"1#	c #C00000",
"2#	c #C21414",
"3#	c #BF1111",
"4#	c #BF0E0E",
"5#	c #BF0C0C",
"6#	c #BF0909",
"7#	c #BF0707",
"8#	c #BF0404",
"9#	c #BF0202",
"0#	c #C50000",
"                                                                ",
"                                                                ",
"                                                                ",
"                                                                ",
"                      . + @ # $ % & * =                         ",
"                  - ; > , ' ) ! ~ { ] ^ / (                     ",
"                _ : < [ } | 1 2 3 4 5 6 7 8 9                   ",
"                0 a b b c 2 3 4 5 6 d e f g h                   ",
"                i j k l 2 4 5 6 d e f m n o p                   ",
"                q r s t u 6 d e f m n v w x y                   ",
"                z A B | C D f m E F G H I J K                   ",
"                L M 1 N O m n P Q H R S T U V W X Y Z `  ...+.  ",
"                p @.#.$.%.&.*.=.-.;.>.,.'.).!.~.{.].^./.(._.:.<.",
"  [.}.|.1.2.3.4.5.6.6 7.&.8.I ;.9.0.a.b.c.d.e.f.g.h.i.j.k.l.m.n.",
"}.o.p.q.r.s.t.u.v.w.O x.y.;.9.0.z.A.B.C.D.E.F.h.i.G.k.l.H.I.J.K.",
"L.M.N.O.P.Q.R.S.T.U.V.e W.0.z.A.X.Y.Z.`.d. +.+G.k.l.H.I.J.++@+#+",
"$+%+&+*+R.S.=+-+;+>+,+'+)+A.X.Y.!+~+{+]+^+/+(+_+H.I.J.:+<+[+}+|+",
"1+2+3+4+=+-+5+6+7+8+9+0+a+b+c+d+e+f+g+h+i+j+k+I.l+m+n+o+p+q+r+s+",
"t+u+v+w+5+6+7+x+y+z+A+B+C+D+E+F+G+H+I+J+K+h.L+++M+N+p+O+P+Q+R+S+",
"T+U+2+V+7+x+y+W+X+Y+Z+`+ @.@        +@@@#@$@%@&@*@O+P+Q+R+=@-@;@",
">@,@'@)@y+!@~@{@Z+`+]@^@/@(@        _@:@<@[@}@O+P+Q+R+=@-@|@1@2@",
"3@4@5@7+6@7@8@9@0@a@b@c@d@e@        f@g@h@i@j@Q+R+=@-@|@1@k@l@m@",
"n@y+o@p@{@9@0@a@b@c@q@r@s@t@        u@v@i@w@Q+=@-@|@1@k@l@x@y@z@",
"A@p@-+B@0@a@b@c@q@r@C@D@E@F@        G@H@I@J@K@L@M@N@O@P@Q@R@S@T@",
"U@7@4@V@b@c@q@r@C@D@W@X@Y@Z@          `@ #.#+#@###$#%#&#*#=#=#  ",
"-#;#>#,#q@r@C@D@W@X@'#)#!#~#                                    ",
"{#(@]#^#/#(#_#:#<#[#}#|#1#                                      ",
"    2#3#4#5#6#7#8#9#1#0#                                        ",
"                                                                ",
"                                                                ",
"                                                                ",
"                                                                "};
