<?xml version="1.0" encoding="UTF-8"?>
<!--Generator: Apple Native CoreSVG 123-->
<!DOCTYPE svg
PUBLIC "-//W3C//DTD SVG 1.1//EN"
       "http://www.w3.org/Graphics/SVG/1.1/DTD/svg11.dtd">
<svg version="1.1" xmlns="http://www.w3.org/2000/svg" xmlns:xlink="http://www.w3.org/1999/xlink" width="3300" height="2200">
 <!--glyph: "uni10005E.medium", point size: 100.000000, font version: "Version 15.0d7e11", template writer version: "5"-->
 <g id="Notes">
  <rect height="2200" id="artboard" style="fill:white;opacity:1" width="3300" x="0" y="0"/>
  <line id="" style="fill:none;stroke:black;opacity:1;stroke-width:0.5;" x1="263" x2="3036" y1="292" y2="292"/>
  <text style="stroke:none;fill:black;font-family:-apple-system,&quot;SF Pro Display&quot;,&quot;SF Pro Text&quot;,Helvetica,sans-serif;font-weight:bold;" transform="matrix(1 0 0 1 263 322)">Weight/Scale Variations</text>
  <text style="stroke:none;fill:black;font-family:-apple-system,&quot;SF Pro Display&quot;,&quot;SF Pro Text&quot;,Helvetica,sans-serif;text-anchor:middle;" transform="matrix(1 0 0 1 559.711 322)">Ultralight</text>
  <text style="stroke:none;fill:black;font-family:-apple-system,&quot;SF Pro Display&quot;,&quot;SF Pro Text&quot;,Helvetica,sans-serif;text-anchor:middle;" transform="matrix(1 0 0 1 856.422 322)">Thin</text>
  <text style="stroke:none;fill:black;font-family:-apple-system,&quot;SF Pro Display&quot;,&quot;SF Pro Text&quot;,Helvetica,sans-serif;text-anchor:middle;" transform="matrix(1 0 0 1 1153.13 322)">Light</text>
  <text style="stroke:none;fill:black;font-family:-apple-system,&quot;SF Pro Display&quot;,&quot;SF Pro Text&quot;,Helvetica,sans-serif;text-anchor:middle;" transform="matrix(1 0 0 1 1449.84 322)">Regular</text>
  <text style="stroke:none;fill:black;font-family:-apple-system,&quot;SF Pro Display&quot;,&quot;SF Pro Text&quot;,Helvetica,sans-serif;text-anchor:middle;" transform="matrix(1 0 0 1 1746.56 322)">Medium</text>
  <text style="stroke:none;fill:black;font-family:-apple-system,&quot;SF Pro Display&quot;,&quot;SF Pro Text&quot;,Helvetica,sans-serif;text-anchor:middle;" transform="matrix(1 0 0 1 2043.27 322)">Semibold</text>
  <text style="stroke:none;fill:black;font-family:-apple-system,&quot;SF Pro Display&quot;,&quot;SF Pro Text&quot;,Helvetica,sans-serif;text-anchor:middle;" transform="matrix(1 0 0 1 2339.98 322)">Bold</text>
  <text style="stroke:none;fill:black;font-family:-apple-system,&quot;SF Pro Display&quot;,&quot;SF Pro Text&quot;,Helvetica,sans-serif;text-anchor:middle;" transform="matrix(1 0 0 1 2636.69 322)">Heavy</text>
  <text style="stroke:none;fill:black;font-family:-apple-system,&quot;SF Pro Display&quot;,&quot;SF Pro Text&quot;,Helvetica,sans-serif;text-anchor:middle;" transform="matrix(1 0 0 1 2933.4 322)">Black</text>
  <line id="" style="fill:none;stroke:black;opacity:1;stroke-width:0.5;" x1="263" x2="3036" y1="1903" y2="1903"/>
  <g id="" transform="matrix(1 0 0 1 263 1933)">
   <path d="M 9.24805 0.830078 C 13.5547 0.830078 17.1387 -2.74414 17.1387 -7.05078 C 17.1387 -11.3574 13.5449 -14.9316 9.23828 -14.9316 C 4.94141 -14.9316 1.36719 -11.3574 1.36719 -7.05078 C 1.36719 -2.74414 4.95117 0.830078 9.24805 0.830078 Z M 9.24805 -0.654297 C 5.70312 -0.654297 2.87109 -3.49609 2.87109 -7.05078 C 2.87109 -10.6055 5.69336 -13.4473 9.23828 -13.4473 C 12.793 -13.4473 15.6348 -10.6055 15.6445 -7.05078 C 15.6543 -3.49609 12.8027 -0.654297 9.24805 -0.654297 Z M 9.22852 -3.42773 C 9.69727 -3.42773 9.9707 -3.74023 9.9707 -4.25781 L 9.9707 -6.31836 L 12.1973 -6.31836 C 12.6953 -6.31836 13.0371 -6.57227 13.0371 -7.04102 C 13.0371 -7.51953 12.7148 -7.7832 12.1973 -7.7832 L 9.9707 -7.7832 L 9.9707 -10.0098 C 9.9707 -10.5273 9.69727 -10.8496 9.22852 -10.8496 C 8.75977 -10.8496 8.50586 -10.5078 8.50586 -10.0098 L 8.50586 -7.7832 L 6.29883 -7.7832 C 5.78125 -7.7832 5.44922 -7.51953 5.44922 -7.04102 C 5.44922 -6.57227 5.80078 -6.31836 6.29883 -6.31836 L 8.50586 -6.31836 L 8.50586 -4.25781 C 8.50586 -3.75977 8.75977 -3.42773 9.22852 -3.42773 Z"/>
  </g>
  <g id="" transform="matrix(1 0 0 1 281.506 1933)">
   <path d="M 11.709 2.91016 C 17.1582 2.91016 21.6699 -1.60156 21.6699 -7.05078 C 21.6699 -12.4902 17.1484 -17.0117 11.6992 -17.0117 C 6.25977 -17.0117 1.74805 -12.4902 1.74805 -7.05078 C 1.74805 -1.60156 6.26953 2.91016 11.709 2.91016 Z M 11.709 1.25 C 7.09961 1.25 3.41797 -2.44141 3.41797 -7.05078 C 3.41797 -11.6504 7.08984 -15.3516 11.6992 -15.3516 C 16.3086 -15.3516 20 -11.6504 20.0098 -7.05078 C 20.0195 -2.44141 16.3184 1.25 11.709 1.25 Z M 11.6895 -2.41211 C 12.207 -2.41211 12.5195 -2.77344 12.5195 -3.33984 L 12.5195 -6.23047 L 15.5762 -6.23047 C 16.123 -6.23047 16.5039 -6.51367 16.5039 -7.03125 C 16.5039 -7.55859 16.1426 -7.86133 15.5762 -7.86133 L 12.5195 -7.86133 L 12.5195 -10.9277 C 12.5195 -11.5039 12.207 -11.8555 11.6895 -11.8555 C 11.1719 -11.8555 10.8789 -11.4844 10.8789 -10.9277 L 10.8789 -7.86133 L 7.83203 -7.86133 C 7.26562 -7.86133 6.89453 -7.55859 6.89453 -7.03125 C 6.89453 -6.51367 7.28516 -6.23047 7.83203 -6.23047 L 10.8789 -6.23047 L 10.8789 -3.33984 C 10.8789 -2.79297 11.1719 -2.41211 11.6895 -2.41211 Z"/>
  </g>
  <g id="" transform="matrix(1 0 0 1 304.924 1933)">
   <path d="M 14.9707 5.67383 C 21.9336 5.67383 27.6953 -0.078125 27.6953 -7.04102 C 27.6953 -14.0039 21.9238 -19.7559 14.9609 -19.7559 C 8.00781 -19.7559 2.25586 -14.0039 2.25586 -7.04102 C 2.25586 -0.078125 8.01758 5.67383 14.9707 5.67383 Z M 14.9707 3.85742 C 8.93555 3.85742 4.08203 -1.00586 4.08203 -7.04102 C 4.08203 -13.0762 8.92578 -17.9395 14.9609 -17.9395 C 21.0059 -17.9395 25.8594 -13.0762 25.8691 -7.04102 C 25.8789 -1.00586 21.0156 3.85742 14.9707 3.85742 Z M 14.9512 -1.06445 C 15.5176 -1.06445 15.8691 -1.45508 15.8691 -2.06055 L 15.8691 -6.13281 L 20.1074 -6.13281 C 20.6934 -6.13281 21.1133 -6.46484 21.1133 -7.02148 C 21.1133 -7.59766 20.7227 -7.93945 20.1074 -7.93945 L 15.8691 -7.93945 L 15.8691 -12.1875 C 15.8691 -12.8027 15.5176 -13.1934 14.9512 -13.1934 C 14.3848 -13.1934 14.0625 -12.7832 14.0625 -12.1875 L 14.0625 -7.93945 L 9.83398 -7.93945 C 9.21875 -7.93945 8.80859 -7.59766 8.80859 -7.02148 C 8.80859 -6.46484 9.23828 -6.13281 9.83398 -6.13281 L 14.0625 -6.13281 L 14.0625 -2.06055 C 14.0625 -1.47461 14.3848 -1.06445 14.9512 -1.06445 Z"/>
  </g>
  <text style="stroke:none;fill:black;font-family:-apple-system,&quot;SF Pro Display&quot;,&quot;SF Pro Text&quot;,Helvetica,sans-serif;font-weight:bold;" transform="matrix(1 0 0 1 263 1953)">Design Variations</text>
  <text style="stroke:none;fill:black;font-family:-apple-system,&quot;SF Pro Display&quot;,&quot;SF Pro Text&quot;,Helvetica,sans-serif;" transform="matrix(1 0 0 1 263 1971)">Symbols are supported in up to nine weights and three scales.</text>
  <text style="stroke:none;fill:black;font-family:-apple-system,&quot;SF Pro Display&quot;,&quot;SF Pro Text&quot;,Helvetica,sans-serif;" transform="matrix(1 0 0 1 263 1989)">For optimal layout with text and other symbols, vertically align</text>
  <text style="stroke:none;fill:black;font-family:-apple-system,&quot;SF Pro Display&quot;,&quot;SF Pro Text&quot;,Helvetica,sans-serif;" transform="matrix(1 0 0 1 263 2007)">symbols with the adjacent text.</text>
  <rect height="14" id="" style="fill:#00AEEF;stroke:none;opacity:0.4;" width="3" x="776" y="1919"/>
  <g id="" transform="matrix(1 0 0 1 779 1933)">
   <path d="M 10.5273 0 L 12.373 0 L 7.17773 -14.0918 L 5.43945 -14.0918 L 0.244141 0 L 2.08984 0 L 3.50586 -4.0332 L 9.11133 -4.0332 Z M 6.2793 -11.9531 L 6.33789 -11.9531 L 8.59375 -5.52734 L 4.02344 -5.52734 Z"/>
  </g>
  <rect height="14" id="" style="fill:#00AEEF;stroke:none;opacity:0.4;" width="3" x="791.617" y="1919"/>
  <text style="stroke:none;fill:black;font-family:-apple-system,&quot;SF Pro Display&quot;,&quot;SF Pro Text&quot;,Helvetica,sans-serif;font-weight:bold;" transform="matrix(1 0 0 1 776 1953)">Margins</text>
  <text style="stroke:none;fill:black;font-family:-apple-system,&quot;SF Pro Display&quot;,&quot;SF Pro Text&quot;,Helvetica,sans-serif;" transform="matrix(1 0 0 1 776 1971)">Leading and trailing margins on the left and right side of each symbol</text>
  <text style="stroke:none;fill:black;font-family:-apple-system,&quot;SF Pro Display&quot;,&quot;SF Pro Text&quot;,Helvetica,sans-serif;" transform="matrix(1 0 0 1 776 1989)">can be adjusted by modifying the width of the blue rectangles.</text>
  <text style="stroke:none;fill:black;font-family:-apple-system,&quot;SF Pro Display&quot;,&quot;SF Pro Text&quot;,Helvetica,sans-serif;" transform="matrix(1 0 0 1 776 2007)">Modifications are automatically applied proportionally to all</text>
  <text style="stroke:none;fill:black;font-family:-apple-system,&quot;SF Pro Display&quot;,&quot;SF Pro Text&quot;,Helvetica,sans-serif;" transform="matrix(1 0 0 1 776 2025)">scales and weights.</text>
  <g id="" transform="matrix(1 0 0 1 1289 1933)">
   <path d="M 2.83203 3.11523 L 4.375 4.6582 C 5.22461 5.48828 6.19141 5.41992 7.06055 4.46289 L 17.2754 -6.66016 C 17.7051 -6.36719 18.0957 -6.37695 18.5645 -6.47461 L 19.6094 -6.68945 L 20.3027 -5.99609 L 20.2539 -5.47852 C 20.1855 -4.95117 20.3516 -4.53125 20.8496 -4.0332 L 21.6602 -3.22266 C 22.168 -2.71484 22.8223 -2.68555 23.3008 -3.16406 L 26.5527 -6.41602 C 27.0312 -6.89453 27.0117 -7.54883 26.5039 -8.05664 L 25.6836 -8.87695 C 25.1855 -9.375 24.7754 -9.55078 24.2383 -9.47266 L 23.7109 -9.41406 L 23.0566 -10.0781 L 23.3398 -11.2207 C 23.4863 -11.7871 23.3398 -12.2559 22.7148 -12.8613 L 20.3027 -15.2539 C 16.7578 -18.7793 12.2266 -18.6719 9.11133 -15.5371 C 8.69141 -15.1074 8.64258 -14.5215 8.91602 -14.0918 C 9.15039 -13.7207 9.62891 -13.4961 10.2734 -13.6621 C 11.7871 -14.043 13.3008 -13.9258 14.7852 -12.9199 L 14.1602 -11.3379 C 13.9258 -10.752 13.9453 -10.2734 14.1797 -9.83398 L 3.01758 0.439453 C 2.08008 1.30859 1.97266 2.25586 2.83203 3.11523 Z M 10.6738 -15.1465 C 13.3398 -17.1387 16.6504 -16.8262 19.0527 -14.4141 L 21.6797 -11.8066 C 21.9141 -11.5723 21.9434 -11.3867 21.8848 -11.0938 L 21.5039 -9.53125 L 23.0762 -7.95898 L 24.043 -8.04688 C 24.3262 -8.07617 24.4141 -8.05664 24.6387 -7.83203 L 25.2637 -7.20703 L 22.5098 -4.46289 L 21.8848 -5.07812 C 21.6602 -5.30273 21.6406 -5.40039 21.6699 -5.68359 L 21.7578 -6.64062 L 20.1953 -8.20312 L 18.5742 -7.89062 C 18.291 -7.83203 18.1445 -7.83203 17.9102 -8.07617 L 15.7324 -10.2539 C 15.5078 -10.4883 15.4785 -10.625 15.6055 -10.9473 L 16.5527 -13.2227 C 14.9512 -14.7559 12.8418 -15.6055 10.8008 -14.9512 C 10.7129 -14.9219 10.6445 -14.9414 10.6152 -14.9805 C 10.5859 -15.0293 10.5859 -15.0781 10.6738 -15.1465 Z M 4.10156 2.41211 C 3.61328 1.91406 3.78906 1.61133 4.12109 1.30859 L 15.0781 -8.80859 L 16.3086 -7.57812 L 6.15234 3.34961 C 5.84961 3.68164 5.46875 3.7793 5.06836 3.37891 Z"/>
  </g>
  <text style="stroke:none;fill:black;font-family:-apple-system,&quot;SF Pro Display&quot;,&quot;SF Pro Text&quot;,Helvetica,sans-serif;font-weight:bold;" transform="matrix(1 0 0 1 1289 1953)">Exporting</text>
  <text style="stroke:none;fill:black;font-family:-apple-system,&quot;SF Pro Display&quot;,&quot;SF Pro Text&quot;,Helvetica,sans-serif;" transform="matrix(1 0 0 1 1289 1971)">Symbols should be outlined when exporting to ensure the</text>
  <text style="stroke:none;fill:black;font-family:-apple-system,&quot;SF Pro Display&quot;,&quot;SF Pro Text&quot;,Helvetica,sans-serif;" transform="matrix(1 0 0 1 1289 1989)">design is preserved when submitting to Xcode.</text>
  <text id="template-version" style="stroke:none;fill:black;font-family:-apple-system,&quot;SF Pro Display&quot;,&quot;SF Pro Text&quot;,Helvetica,sans-serif;text-anchor:end;" transform="matrix(1 0 0 1 3036 1933)">Template v.1.0</text>
  <text style="stroke:none;fill:black;font-family:-apple-system,&quot;SF Pro Display&quot;,&quot;SF Pro Text&quot;,Helvetica,sans-serif;text-anchor:end;" transform="matrix(1 0 0 1 3036 1951)">Generated from exclamationmark.circle</text>
  <text style="stroke:none;fill:black;font-family:-apple-system,&quot;SF Pro Display&quot;,&quot;SF Pro Text&quot;,Helvetica,sans-serif;text-anchor:end;" transform="matrix(1 0 0 1 3036 1969)">Typeset at 100 points</text>
  <text style="stroke:none;fill:black;font-family:-apple-system,&quot;SF Pro Display&quot;,&quot;SF Pro Text&quot;,Helvetica,sans-serif;" transform="matrix(1 0 0 1 263 726)">Small</text>
  <text style="stroke:none;fill:black;font-family:-apple-system,&quot;SF Pro Display&quot;,&quot;SF Pro Text&quot;,Helvetica,sans-serif;" transform="matrix(1 0 0 1 263 1156)">Medium</text>
  <text style="stroke:none;fill:black;font-family:-apple-system,&quot;SF Pro Display&quot;,&quot;SF Pro Text&quot;,Helvetica,sans-serif;" transform="matrix(1 0 0 1 263 1586)">Large</text>
 </g>
 <g id="Guides">
  <g id="H-reference" style="fill:#27AAE1;stroke:none;" transform="matrix(1 0 0 1 339 696)">
   <path d="M 54.9316 0 L 57.666 0 L 30.5664 -70.459 L 28.0762 -70.459 L 0.976562 0 L 3.66211 0 L 12.9395 -24.4629 L 45.7031 -24.4629 Z M 29.1992 -67.0898 L 29.4434 -67.0898 L 44.8242 -26.709 L 13.8184 -26.709 Z"/>
  </g>
  <line id="Baseline-S" style="fill:none;stroke:#27AAE1;opacity:1;stroke-width:0.577;" x1="263" x2="3036" y1="696" y2="696"/>
  <line id="Capline-S" style="fill:none;stroke:#27AAE1;opacity:1;stroke-width:0.577;" x1="263" x2="3036" y1="625.541" y2="625.541"/>
  <g id="H-reference" style="fill:#27AAE1;stroke:none;" transform="matrix(1 0 0 1 339 1126)">
   <path d="M 54.9316 0 L 57.666 0 L 30.5664 -70.459 L 28.0762 -70.459 L 0.976562 0 L 3.66211 0 L 12.9395 -24.4629 L 45.7031 -24.4629 Z M 29.1992 -67.0898 L 29.4434 -67.0898 L 44.8242 -26.709 L 13.8184 -26.709 Z"/>
  </g>
  <line id="Baseline-M" style="fill:none;stroke:#27AAE1;opacity:1;stroke-width:0.577;" x1="263" x2="3036" y1="1126" y2="1126"/>
  <line id="Capline-M" style="fill:none;stroke:#27AAE1;opacity:1;stroke-width:0.577;" x1="263" x2="3036" y1="1055.54" y2="1055.54"/>
  <g id="H-reference" style="fill:#27AAE1;stroke:none;" transform="matrix(1 0 0 1 339 1556)">
   <path d="M 54.9316 0 L 57.666 0 L 30.5664 -70.459 L 28.0762 -70.459 L 0.976562 0 L 3.66211 0 L 12.9395 -24.4629 L 45.7031 -24.4629 Z M 29.1992 -67.0898 L 29.4434 -67.0898 L 44.8242 -26.709 L 13.8184 -26.709 Z"/>
  </g>
  <line id="Baseline-L" style="fill:none;stroke:#27AAE1;opacity:1;stroke-width:0.577;" x1="263" x2="3036" y1="1556" y2="1556"/>
  <line id="Capline-L" style="fill:none;stroke:#27AAE1;opacity:1;stroke-width:0.577;" x1="263" x2="3036" y1="1485.54" y2="1485.54"/>
  <rect height="119.336" id="left-margin" style="fill:#00AEEF;stroke:none;opacity:0.4;" width="8.74023" x="1391.3" y="1030.79"/>
  <rect height="119.336" id="right-margin" style="fill:#00AEEF;stroke:none;opacity:0.4;" width="8.74023" x="1499.65" y="1030.79"/>
 </g>
 <g id="Symbols">
  <g id="Black-L" transform="matrix(1 0 0 1 2854.05 1556)">
   <path d="M 79.3457 32.8613 C 116.748 32.8613 147.412 2.19727 147.412 -35.2051 C 147.412 -72.6074 116.748 -103.271 79.2969 -103.271 C 41.8945 -103.271 11.2793 -72.6074 11.2793 -35.2051 C 11.2793 2.19727 41.9434 32.8613 79.3457 32.8613 Z M 79.3457 12.4023 C 52.9785 12.4023 31.7383 -8.83789 31.7383 -35.2051 C 31.7383 -61.5723 52.9297 -82.8125 79.2969 -82.8125 C 105.664 -82.8125 126.953 -61.5723 126.953 -35.2051 C 127.002 -8.83789 105.713 12.4023 79.3457 12.4023 Z M 79.3945 -26.7578 C 84.1797 -26.7578 87.0117 -29.3945 87.3047 -34.4238 L 88.3789 -56.0059 C 88.5742 -61.2793 84.9121 -64.8926 79.2969 -64.8926 C 73.6816 -64.8926 70.0195 -61.3281 70.2148 -56.0547 L 71.2891 -34.2773 C 71.582 -29.4434 74.4629 -26.7578 79.3945 -26.7578 Z M 79.3945 -4.39453 C 84.8145 -4.39453 88.8184 -7.51953 88.8184 -12.6465 C 88.8184 -17.7734 84.8145 -20.9473 79.3945 -20.9473 C 73.9258 -20.9473 69.8242 -17.7734 69.8242 -12.6465 C 69.8242 -7.51953 73.9746 -4.39453 79.3945 -4.39453 Z"/>
  </g>
  <g id="Heavy-L" transform="matrix(1 0 0 1 2558.39 1556)">
   <path d="M 78.2715 31.7871 C 115.088 31.7871 145.312 1.61133 145.312 -35.2051 C 145.312 -72.0215 115.039 -102.197 78.2715 -102.197 C 41.4551 -102.197 11.2793 -72.0215 11.2793 -35.2051 C 11.2793 1.61133 41.5039 31.7871 78.2715 31.7871 Z M 78.2715 14.0137 C 51.0254 14.0137 29.0527 -7.95898 29.0527 -35.2051 C 29.0527 -62.5 50.9766 -84.4727 78.2715 -84.4727 C 105.518 -84.4727 127.49 -62.5 127.539 -35.2051 C 127.539 -7.95898 105.566 14.0137 78.2715 14.0137 Z M 78.3203 -26.0742 C 82.6172 -26.0742 85.1074 -28.4668 85.3516 -32.959 L 86.377 -57.373 C 86.5234 -62.1094 83.2031 -65.332 78.2227 -65.332 C 73.2422 -65.332 69.9707 -62.1094 70.1172 -57.4219 L 71.1426 -32.8613 C 71.3379 -28.5156 73.877 -26.0742 78.3203 -26.0742 Z M 78.3203 -4.29688 C 83.252 -4.29688 86.9629 -7.32422 86.9629 -12.0117 C 86.9629 -16.6992 83.252 -19.7754 78.3203 -19.7754 C 73.3398 -19.7754 69.5312 -16.748 69.5312 -12.0117 C 69.5312 -7.32422 73.3887 -4.29688 78.3203 -4.29688 Z"/>
  </g>
  <g id="Bold-L" transform="matrix(1 0 0 1 2262.88 1556)">
   <path d="M 77.0996 30.6152 C 113.232 30.6152 142.92 0.878906 142.92 -35.2051 C 142.92 -71.3379 113.184 -101.025 77.0508 -101.025 C 40.9668 -101.025 11.2793 -71.3379 11.2793 -35.2051 C 11.2793 0.878906 41.0156 30.6152 77.0996 30.6152 Z M 77.0996 15.8691 C 48.8281 15.8691 26.0742 -6.93359 26.0742 -35.2051 C 26.0742 -63.4766 48.7793 -86.2793 77.0508 -86.2793 C 105.371 -86.2793 128.125 -63.4766 128.174 -35.2051 C 128.174 -6.93359 105.371 15.8691 77.0996 15.8691 Z M 77.0996 -25.3418 C 80.8105 -25.3418 83.0078 -27.4414 83.1543 -31.3477 L 84.082 -58.9355 C 84.2285 -62.9883 81.2988 -65.8203 77.0508 -65.8203 C 72.7051 -65.8203 69.873 -63.0371 70.0195 -58.9844 L 70.8984 -31.2988 C 71.0449 -27.4414 73.291 -25.3418 77.0996 -25.3418 Z M 77.0996 -4.19922 C 81.4941 -4.19922 84.9121 -7.08008 84.9121 -11.3281 C 84.9121 -15.5762 81.4941 -18.457 77.0996 -18.457 C 72.7051 -18.457 69.2383 -15.5762 69.2383 -11.3281 C 69.2383 -7.12891 72.7051 -4.19922 77.0996 -4.19922 Z"/>
  </g>
  <g id="Semibold-L" transform="matrix(1 0 0 1 1966.97 1556)">
   <path d="M 76.2695 29.7852 C 111.914 29.7852 141.309 0.439453 141.309 -35.2051 C 141.309 -70.8496 111.865 -100.244 76.2695 -100.244 C 40.625 -100.244 11.2793 -70.8496 11.2793 -35.2051 C 11.2793 0.439453 40.6738 29.7852 76.2695 29.7852 Z M 76.2695 17.0898 C 47.3145 17.0898 24.0234 -6.25 24.0234 -35.2051 C 24.0234 -64.209 47.2656 -87.5 76.2695 -87.5 C 105.225 -87.5 128.564 -64.209 128.613 -35.2051 C 128.662 -6.25 105.273 17.0898 76.2695 17.0898 Z M 76.2695 -24.8047 C 79.5898 -24.8047 81.543 -26.709 81.6406 -30.2734 L 82.5195 -60.0098 C 82.6172 -63.5742 79.9805 -66.1621 76.2207 -66.1621 C 72.3633 -66.1621 69.8242 -63.623 69.9219 -60.0098 L 70.752 -30.2246 C 70.8984 -26.7578 72.8516 -24.8047 76.2695 -24.8047 Z M 76.2695 -4.15039 C 80.2734 -4.15039 83.4961 -6.93359 83.4961 -10.8398 C 83.4961 -14.7461 80.3223 -17.5781 76.2695 -17.5781 C 72.2168 -17.5781 68.9941 -14.7461 68.9941 -10.8398 C 68.9941 -6.98242 72.2656 -4.15039 76.2695 -4.15039 Z"/>
  </g>
  <g id="Medium-L" transform="matrix(1 0 0 1 1670.87 1556)">
   <path d="M 75.6836 29.1992 C 110.938 29.1992 140.088 0.0488281 140.088 -35.2051 C 140.088 -70.459 110.889 -99.6094 75.6348 -99.6094 C 40.3809 -99.6094 11.2793 -70.459 11.2793 -35.2051 C 11.2793 0.0488281 40.3809 29.1992 75.6836 29.1992 Z M 75.6836 18.0664 C 46.1426 18.0664 22.4609 -5.71289 22.4609 -35.2051 C 22.4609 -64.6973 46.1426 -88.4766 75.6348 -88.4766 C 105.127 -88.4766 128.906 -64.6973 128.906 -35.2051 C 128.955 -5.71289 105.176 18.0664 75.6836 18.0664 Z M 75.6348 -24.4141 C 78.6621 -24.4141 80.4199 -26.1719 80.5176 -29.3945 L 81.3477 -60.791 C 81.4453 -64.0625 79.0039 -66.4062 75.5859 -66.4062 C 72.1191 -66.4062 69.7754 -64.1113 69.873 -60.8398 L 70.6543 -29.3945 C 70.752 -26.2207 72.5098 -24.4141 75.6348 -24.4141 Z M 75.6348 -4.10156 C 79.3457 -4.10156 82.4219 -6.83594 82.4219 -10.498 C 82.4219 -14.1602 79.3945 -16.8945 75.6348 -16.8945 C 71.875 -16.8945 68.8477 -14.1113 68.8477 -10.498 C 68.8477 -6.88477 71.9238 -4.10156 75.6348 -4.10156 Z"/>
  </g>
  <g id="Regular-L" transform="matrix(1 0 0 1 1374.97 1556)">
   <path d="M 74.8535 28.3691 C 109.668 28.3691 138.477 -0.390625 138.477 -35.2051 C 138.477 -70.0195 109.619 -98.7793 74.8047 -98.7793 C 40.0391 -98.7793 11.2793 -70.0195 11.2793 -35.2051 C 11.2793 -0.390625 40.0879 28.3691 74.8535 28.3691 Z M 74.8535 19.2871 C 44.6777 19.2871 20.4102 -5.0293 20.4102 -35.2051 C 20.4102 -65.3809 44.6289 -89.6973 74.8047 -89.6973 C 105.029 -89.6973 129.297 -65.3809 129.346 -35.2051 C 129.395 -5.0293 105.078 19.2871 74.8535 19.2871 Z M 74.8047 -23.877 C 77.4414 -23.877 78.9551 -25.4395 79.0039 -28.3203 L 79.834 -61.8164 C 79.8828 -64.6484 77.6855 -66.748 74.7559 -66.748 C 71.7773 -66.748 69.7266 -64.6973 69.7754 -61.8652 L 70.5078 -28.3203 C 70.5566 -25.4883 72.1191 -23.877 74.8047 -23.877 Z M 74.8047 -4.00391 C 78.1738 -4.00391 81.0059 -6.68945 81.0059 -10.0098 C 81.0059 -13.3789 78.2227 -16.0156 74.8047 -16.0156 C 71.4355 -16.0156 68.6035 -13.3301 68.6035 -10.0098 C 68.6035 -6.73828 71.4844 -4.00391 74.8047 -4.00391 Z"/>
  </g>
  <g id="Light-L" transform="matrix(1 0 0 1 1079.18 1556)">
   <path d="M 73.9258 27.4902 C 108.301 27.4902 136.621 -0.830078 136.621 -35.1562 C 136.621 -69.5312 108.252 -97.8516 73.9258 -97.8516 C 39.5508 -97.8516 11.2793 -69.5312 11.2793 -35.1562 C 11.2793 -0.830078 39.5996 27.4902 73.9258 27.4902 Z M 73.9258 20.6055 C 43.1152 20.6055 18.2129 -4.3457 18.2129 -35.1562 C 18.2129 -66.0156 43.0664 -90.918 73.9258 -90.918 C 104.736 -90.918 129.688 -66.0156 129.736 -35.1562 C 129.736 -4.3457 104.785 20.6055 73.9258 20.6055 Z M 73.9258 -23.877 C 75.9766 -23.877 77.2461 -25.2441 77.2461 -27.5879 L 77.9297 -61.4746 C 77.9297 -63.7695 76.2695 -65.4297 73.877 -65.4297 C 71.4844 -65.4297 69.873 -63.8184 69.873 -61.4746 L 70.5078 -27.5879 C 70.5078 -25.2441 71.7773 -23.877 73.9258 -23.877 Z M 73.9258 -4.83398 C 76.8555 -4.83398 79.2969 -7.22656 79.2969 -10.1074 C 79.2969 -13.0371 76.8555 -15.3809 73.9258 -15.3809 C 70.9473 -15.3809 68.5547 -12.9883 68.5547 -10.1074 C 68.5547 -7.27539 70.9961 -4.83398 73.9258 -4.83398 Z"/>
  </g>
  <g id="Thin-L" transform="matrix(1 0 0 1 783.693 1556)">
   <path d="M 72.7051 26.3184 C 106.494 26.3184 134.18 -1.36719 134.18 -35.1074 C 134.18 -68.8965 106.494 -96.582 72.7051 -96.582 C 38.9648 -96.582 11.2793 -68.8965 11.2793 -35.1074 C 11.2793 -1.36719 38.9648 26.3184 72.7051 26.3184 Z M 72.7051 22.3145 C 41.0156 22.3145 15.2832 -3.41797 15.2832 -35.1074 C 15.2832 -66.8457 41.0156 -92.5781 72.7051 -92.5781 C 104.395 -92.5781 130.176 -66.8457 130.176 -35.1074 C 130.176 -3.41797 104.443 22.3145 72.7051 22.3145 Z M 72.7051 -23.9258 C 74.0234 -23.9258 74.9512 -24.9512 74.9512 -26.6113 L 75.3906 -60.9863 C 75.3906 -62.5977 74.3652 -63.7207 72.7051 -63.7207 C 71.0449 -63.7207 70.0195 -62.5977 70.0195 -60.9863 L 70.459 -26.6113 C 70.459 -24.9512 71.3867 -23.9258 72.7051 -23.9258 Z M 72.7051 -5.95703 C 75.0977 -5.95703 77.002 -7.95898 77.002 -10.2051 C 77.002 -12.5488 75.0977 -14.502 72.7051 -14.502 C 70.3125 -14.502 68.4082 -12.5488 68.4082 -10.2051 C 68.4082 -7.95898 70.3125 -5.95703 72.7051 -5.95703 Z"/>
  </g>
  <g id="Ultralight-L" transform="matrix(1 0 0 1 487.616 1556)">
   <path d="M 72.1191 25.7324 C 105.566 25.7324 132.91 -1.61133 132.91 -35.1074 C 132.91 -68.5547 105.566 -95.8984 72.1191 -95.8984 C 38.623 -95.8984 11.2793 -68.5547 11.2793 -35.1074 C 11.2793 -1.61133 38.623 25.7324 72.1191 25.7324 Z M 72.1191 23.2422 C 39.9414 23.2422 13.7695 -2.97852 13.7695 -35.1074 C 13.7695 -67.2363 39.9414 -93.4082 72.1191 -93.4082 C 104.248 -93.4082 130.42 -67.2363 130.42 -35.1074 C 130.42 -2.97852 104.248 23.2422 72.1191 23.2422 Z M 72.1191 -23.9258 C 73.0469 -23.9258 73.7793 -24.8047 73.7305 -26.123 L 74.1211 -60.7422 C 74.1211 -62.0117 73.3887 -62.8418 72.1191 -62.8418 C 70.8496 -62.8418 70.1172 -62.0117 70.1172 -60.6934 L 70.459 -26.123 C 70.459 -24.8047 71.1914 -23.9258 72.1191 -23.9258 Z M 72.1191 -6.49414 C 74.2188 -6.49414 75.8789 -8.34961 75.8789 -10.3027 C 75.8789 -12.3047 74.2188 -14.0625 72.1191 -14.0625 C 69.9707 -14.0625 68.3594 -12.3047 68.3594 -10.3027 C 68.3594 -8.34961 69.9707 -6.49414 72.1191 -6.49414 Z"/>
  </g>
  <g id="Black-M" transform="matrix(1 0 0 1 2870.97 1126)">
   <path d="M 62.4023 18.457 C 91.9922 18.457 116.113 -5.61523 116.113 -35.2051 C 116.113 -64.7949 91.9922 -88.8672 62.4023 -88.8672 C 32.8125 -88.8672 8.74023 -64.7949 8.74023 -35.2051 C 8.74023 -5.61523 32.8125 18.457 62.4023 18.457 Z M 62.4023 0.195312 C 42.8711 0.195312 27.002 -15.625 27.002 -35.2051 C 27.002 -54.7363 42.8711 -70.6055 62.4023 -70.6055 C 81.9824 -70.6055 97.8027 -54.7363 97.8027 -35.2051 C 97.8027 -15.625 81.9824 0.195312 62.4023 0.195312 Z M 62.5 -29.5898 C 66.6504 -29.5898 69.0918 -31.8848 69.3359 -36.1328 L 70.2148 -49.3164 C 70.4102 -53.9062 67.334 -56.8848 62.4023 -56.8848 C 57.5195 -56.8848 54.4434 -53.9062 54.6387 -49.3164 L 55.5176 -35.9863 C 55.7617 -31.8848 58.252 -29.5898 62.5 -29.5898 Z M 62.5 -11.8652 C 67.1387 -11.8652 70.3613 -14.3066 70.3613 -18.6523 C 70.3613 -22.9004 67.1387 -25.3906 62.5 -25.3906 C 57.8125 -25.3906 54.4434 -22.9492 54.4434 -18.6523 C 54.4434 -14.3066 57.8125 -11.8652 62.5 -11.8652 Z"/>
  </g>
  <g id="Heavy-M" transform="matrix(1 0 0 1 2575.19 1126)">
   <path d="M 61.5234 17.5781 C 90.5273 17.5781 114.258 -6.15234 114.258 -35.2051 C 114.258 -64.2578 90.5273 -87.9883 61.4746 -87.9883 C 32.4707 -87.9883 8.74023 -64.2578 8.74023 -35.2051 C 8.74023 -6.15234 32.4707 17.5781 61.5234 17.5781 Z M 61.5234 1.66016 C 41.1133 1.66016 24.6582 -14.8438 24.6582 -35.2051 C 24.6582 -55.5664 41.1133 -72.0703 61.4746 -72.0703 C 81.8848 -72.0703 98.3398 -55.5664 98.3398 -35.2051 C 98.3398 -14.8438 81.8848 1.66016 61.5234 1.66016 Z M 61.5234 -28.8574 C 65.2832 -28.8574 67.4316 -30.9082 67.6758 -34.7656 L 68.5059 -50.8789 C 68.6523 -54.9805 65.8203 -57.7148 61.4746 -57.7148 C 57.1289 -57.7148 54.3457 -54.9805 54.4922 -50.9277 L 55.3223 -34.668 C 55.5176 -30.9082 57.7637 -28.8574 61.5234 -28.8574 Z M 61.5234 -11.5723 C 65.7715 -11.5723 68.7988 -13.9648 68.7988 -17.9199 C 68.7988 -21.875 65.7715 -24.2676 61.5234 -24.2676 C 57.3242 -24.2676 54.1504 -21.875 54.1504 -17.9199 C 54.1504 -13.9648 57.3242 -11.5723 61.5234 -11.5723 Z"/>
  </g>
  <g id="Bold-M" transform="matrix(1 0 0 1 2279.5 1126)">
   <path d="M 60.498 16.5039 C 88.8672 16.5039 112.207 -6.78711 112.207 -35.2051 C 112.207 -63.623 88.8672 -86.9629 60.4492 -86.9629 C 32.0312 -86.9629 8.74023 -63.623 8.74023 -35.2051 C 8.74023 -6.78711 32.0801 16.5039 60.498 16.5039 Z M 60.498 3.22266 C 39.1602 3.22266 22.0703 -13.916 22.0703 -35.2051 C 22.0703 -56.4941 39.1602 -73.6816 60.4492 -73.6816 C 81.7383 -73.6816 98.9258 -56.4941 98.9258 -35.2051 C 98.9746 -13.916 81.7871 3.22266 60.498 3.22266 Z M 60.498 -28.0273 C 63.7207 -28.0273 65.625 -29.834 65.7715 -33.2031 L 66.5527 -52.6855 C 66.6992 -56.2012 64.1602 -58.6426 60.4492 -58.6426 C 56.6406 -58.6426 54.1992 -56.25 54.2969 -52.6855 L 55.0781 -33.1543 C 55.2246 -29.834 57.1777 -28.0273 60.498 -28.0273 Z M 60.498 -11.2305 C 64.209 -11.2305 67.0898 -13.5254 67.0898 -17.1387 C 67.0898 -20.7031 64.2578 -23.0469 60.498 -23.0469 C 56.7383 -23.0469 53.8574 -20.7031 53.8574 -17.1387 C 53.8574 -13.5742 56.7383 -11.2305 60.498 -11.2305 Z"/>
  </g>
  <g id="Semibold-M" transform="matrix(1 0 0 1 1983.5 1126)">
   <path d="M 59.7656 15.8203 C 87.7441 15.8203 110.791 -7.22656 110.791 -35.2051 C 110.791 -63.1836 87.6953 -86.2793 59.7656 -86.2793 C 31.7871 -86.2793 8.74023 -63.1836 8.74023 -35.2051 C 8.74023 -7.22656 31.7871 15.8203 59.7656 15.8203 Z M 59.7656 4.3457 C 37.8418 4.3457 20.2637 -13.2812 20.2637 -35.2051 C 20.2637 -57.1289 37.793 -74.8047 59.7656 -74.8047 C 81.6895 -74.8047 99.3164 -57.1289 99.3652 -35.2051 C 99.3652 -13.2812 81.6895 4.3457 59.7656 4.3457 Z M 59.7656 -27.4414 C 62.6953 -27.4414 64.4043 -29.0527 64.502 -32.1289 L 65.2344 -53.9062 C 65.332 -57.0801 63.0371 -59.2773 59.7168 -59.2773 C 56.3477 -59.2773 54.1016 -57.0801 54.1992 -53.9551 L 54.9316 -32.1289 C 55.0293 -29.1016 56.7871 -27.4414 59.7656 -27.4414 Z M 59.7656 -10.9863 C 63.1836 -10.9863 65.8691 -13.2812 65.8691 -16.6016 C 65.8691 -19.873 63.1836 -22.2168 59.7656 -22.2168 C 56.3477 -22.2168 53.6133 -19.873 53.6133 -16.6016 C 53.6133 -13.3301 56.3477 -10.9863 59.7656 -10.9863 Z"/>
  </g>
  <g id="Medium-M" transform="matrix(1 0 0 1 1687.3 1126)">
   <path d="M 59.2285 15.2832 C 86.9141 15.2832 109.766 -7.56836 109.766 -35.2051 C 109.766 -62.8906 86.8652 -85.7422 59.1797 -85.7422 C 31.543 -85.7422 8.74023 -62.8906 8.74023 -35.2051 C 8.74023 -7.56836 31.5918 15.2832 59.2285 15.2832 Z M 59.2285 5.17578 C 36.8164 5.17578 18.8965 -12.8418 18.8965 -35.2051 C 18.8965 -57.6172 36.8164 -75.6348 59.1797 -75.6348 C 81.5918 -75.6348 99.6094 -57.6172 99.6582 -35.2051 C 99.707 -12.8418 81.6406 5.17578 59.2285 5.17578 Z M 59.2285 -27.002 C 61.8652 -27.002 63.4277 -28.5156 63.5254 -31.3477 L 64.2578 -54.834 C 64.3066 -57.7148 62.1582 -59.7656 59.1797 -59.7656 C 56.1035 -59.7656 54.0527 -57.7637 54.1016 -54.8828 L 54.834 -31.2988 C 54.8828 -28.5156 56.4453 -27.002 59.2285 -27.002 Z M 59.2285 -10.791 C 62.3535 -10.791 64.9414 -13.0859 64.9414 -16.1621 C 64.9414 -19.2871 62.4023 -21.5332 59.2285 -21.5332 C 56.0059 -21.5332 53.4668 -19.2383 53.4668 -16.1621 C 53.4668 -13.0859 56.0547 -10.791 59.2285 -10.791 Z"/>
  </g>
  <g id="Regular-M" transform="matrix(1 0 0 1 1391.3 1126)">
   <path d="M 58.5449 14.5508 C 85.791 14.5508 108.35 -8.00781 108.35 -35.2539 C 108.35 -62.4512 85.7422 -85.0586 58.4961 -85.0586 C 31.2988 -85.0586 8.74023 -62.4512 8.74023 -35.2539 C 8.74023 -8.00781 31.3477 14.5508 58.5449 14.5508 Z M 58.5449 6.25 C 35.498 6.25 17.0898 -12.207 17.0898 -35.2539 C 17.0898 -58.252 35.4492 -76.7578 58.4961 -76.7578 C 81.543 -76.7578 100 -58.252 100.049 -35.2539 C 100.098 -12.207 81.5918 6.25 58.5449 6.25 Z M 58.4961 -26.416 C 60.8398 -26.416 62.207 -27.7344 62.2559 -30.2734 L 62.9395 -56.0547 C 62.9883 -58.5449 61.0352 -60.4004 58.4473 -60.4004 C 55.8105 -60.4004 53.9551 -58.5938 54.0039 -56.1035 L 54.6387 -30.2734 C 54.6875 -27.7832 56.0547 -26.416 58.4961 -26.416 Z M 58.4961 -10.5469 C 61.3281 -10.5469 63.7695 -12.793 63.7695 -15.625 C 63.7695 -18.5059 61.377 -20.7031 58.4961 -20.7031 C 55.6152 -20.7031 53.2227 -18.457 53.2227 -15.625 C 53.2227 -12.8418 55.6641 -10.5469 58.4961 -10.5469 Z"/>
  </g>
  <g id="Light-M" transform="matrix(1 0 0 1 1095.42 1126)">
   <path d="M 57.7148 13.7695 C 84.5215 13.7695 106.689 -8.39844 106.689 -35.2051 C 106.689 -62.0117 84.5215 -84.1797 57.666 -84.1797 C 30.8594 -84.1797 8.74023 -62.0117 8.74023 -35.2051 C 8.74023 -8.39844 30.9082 13.7695 57.7148 13.7695 Z M 57.7148 7.4707 C 34.082 7.4707 15.0879 -11.5723 15.0879 -35.2051 C 15.0879 -58.8379 34.082 -77.832 57.666 -77.832 C 81.2988 -77.832 100.342 -58.8379 100.391 -35.2051 C 100.391 -11.5723 81.3477 7.4707 57.7148 7.4707 Z M 57.666 -26.4648 C 59.5215 -26.4648 60.6445 -27.5879 60.6445 -29.6387 L 61.2305 -55.7129 C 61.2793 -57.7637 59.7656 -59.2285 57.666 -59.2285 C 55.5176 -59.2285 54.0527 -57.7637 54.1016 -55.7617 L 54.6387 -29.6387 C 54.6875 -27.5879 55.7617 -26.4648 57.666 -26.4648 Z M 57.666 -11.3281 C 60.1562 -11.3281 62.207 -13.2812 62.207 -15.7227 C 62.207 -18.1641 60.1562 -20.1172 57.666 -20.1172 C 55.1758 -20.1172 53.1738 -18.1641 53.1738 -15.7227 C 53.1738 -13.3301 55.2246 -11.3281 57.666 -11.3281 Z"/>
  </g>
  <g id="Thin-M" transform="matrix(1 0 0 1 799.806 1126)">
   <path d="M 56.6406 12.7441 C 82.9102 12.7441 104.492 -8.83789 104.492 -35.1562 C 104.492 -61.4746 82.9102 -83.0566 56.5918 -83.0566 C 30.3223 -83.0566 8.74023 -61.4746 8.74023 -35.1562 C 8.74023 -8.83789 30.3223 12.7441 56.6406 12.7441 Z M 56.6406 8.98438 C 32.2266 8.98438 12.4512 -10.791 12.4512 -35.1562 C 12.4512 -59.5215 32.2266 -79.2969 56.5918 -79.2969 C 81.0059 -79.2969 100.781 -59.5215 100.781 -35.1562 C 100.781 -10.791 81.0059 8.98438 56.6406 8.98438 Z M 56.5918 -26.4648 C 57.8125 -26.4648 58.5938 -27.3438 58.5938 -28.7598 L 58.9844 -55.2734 C 58.9844 -56.6895 58.0566 -57.666 56.5918 -57.666 C 55.1758 -57.666 54.248 -56.6895 54.248 -55.2734 L 54.6387 -28.7598 C 54.6387 -27.3438 55.4199 -26.4648 56.5918 -26.4648 Z M 56.5918 -12.3047 C 58.5938 -12.3047 60.2051 -13.9648 60.2051 -15.8203 C 60.2051 -17.7734 58.5938 -19.3359 56.5918 -19.3359 C 54.6387 -19.3359 53.0273 -17.7246 53.0273 -15.8203 C 53.0273 -13.9648 54.6387 -12.3047 56.5918 -12.3047 Z"/>
  </g>
  <g id="Ultralight-M" transform="matrix(1 0 0 1 503.656 1126)">
   <path d="M 56.0547 12.207 C 82.0801 12.207 103.369 -9.08203 103.369 -35.1562 C 103.369 -61.1816 82.0801 -82.4707 56.0547 -82.4707 C 30.0293 -82.4707 8.74023 -61.1816 8.74023 -35.1562 C 8.74023 -9.08203 30.0293 12.207 56.0547 12.207 Z M 56.0547 9.81445 C 31.2988 9.81445 11.1328 -10.3516 11.1328 -35.1562 C 11.1328 -59.9121 31.2988 -80.0781 56.0547 -80.0781 C 80.8594 -80.0781 100.977 -59.9121 100.977 -35.1562 C 100.977 -10.3516 80.8594 9.81445 56.0547 9.81445 Z M 56.0547 -26.4648 C 56.8848 -26.4648 57.5195 -27.1973 57.5195 -28.3203 L 57.8125 -55.0781 C 57.8125 -56.1523 57.1777 -56.8848 56.0547 -56.8848 C 54.9805 -56.8848 54.2969 -56.1523 54.2969 -55.0781 L 54.5898 -28.3203 C 54.5898 -27.1973 55.2246 -26.4648 56.0547 -26.4648 Z M 56.0547 -12.793 C 57.7637 -12.793 59.1309 -14.3066 59.1309 -15.8691 C 59.1309 -17.5293 57.7637 -18.9453 56.0547 -18.9453 C 54.3457 -18.9453 52.9785 -17.5293 52.9785 -15.8691 C 52.9785 -14.3066 54.3457 -12.793 56.0547 -12.793 Z"/>
  </g>
  <g id="Black-S" transform="matrix(1 0 0 1 2884.57 696)">
   <path d="M 48.8281 6.78711 C 71.9727 6.78711 90.8203 -12.0605 90.8203 -35.2051 C 90.8203 -58.3496 71.9727 -77.1973 48.8281 -77.1973 C 25.6836 -77.1973 6.83594 -58.3496 6.83594 -35.2051 C 6.83594 -12.0605 25.6836 6.78711 48.8281 6.78711 Z M 48.8281 -7.37305 C 33.4473 -7.37305 20.9961 -19.8242 20.9961 -35.2051 C 20.9961 -50.5859 33.4473 -63.0371 48.8281 -63.0371 C 64.209 -63.0371 76.6602 -50.5859 76.6602 -35.2051 C 76.6602 -19.8242 64.209 -7.37305 48.8281 -7.37305 Z M 48.877 -30.7617 C 52.0996 -30.7617 54.0039 -32.5195 54.1992 -35.8398 L 54.8828 -46.3867 C 55.0293 -49.9512 52.6367 -52.2949 48.8281 -52.2949 C 45.0195 -52.2949 42.627 -49.9512 42.7734 -46.3867 L 43.457 -35.7422 C 43.6523 -32.5195 45.6055 -30.7617 48.877 -30.7617 Z M 48.877 -16.8945 C 52.4902 -16.8945 55.0293 -18.7988 55.0293 -22.168 C 55.0293 -25.4883 52.4902 -27.4414 48.877 -27.4414 C 45.2637 -27.4414 42.627 -25.5371 42.627 -22.168 C 42.627 -18.7988 45.2637 -16.8945 48.877 -16.8945 Z"/>
  </g>
  <g id="Heavy-S" transform="matrix(1 0 0 1 2588.47 696)">
   <path d="M 48.2422 6.15234 C 70.9961 6.15234 89.5996 -12.4512 89.5996 -35.2051 C 89.5996 -57.959 70.9961 -76.6113 48.1934 -76.6113 C 25.4395 -76.6113 6.83594 -57.959 6.83594 -35.2051 C 6.83594 -12.4512 25.4395 6.15234 48.2422 6.15234 Z M 48.2422 -6.39648 C 32.2754 -6.39648 19.4336 -19.2871 19.4336 -35.2051 C 19.4336 -51.1719 32.2754 -64.0137 48.1934 -64.0137 C 64.1602 -64.0137 77.002 -51.1719 77.0508 -35.2051 C 77.0508 -19.2871 64.1602 -6.39648 48.2422 -6.39648 Z M 48.2422 -30.1758 C 51.2207 -30.1758 52.9297 -31.7871 53.0762 -34.8633 L 53.7598 -47.6562 C 53.9062 -50.8789 51.6602 -53.0762 48.1934 -53.0762 C 44.7266 -53.0762 42.5293 -50.8789 42.627 -47.6562 L 43.3105 -34.7656 C 43.457 -31.7871 45.2148 -30.1758 48.2422 -30.1758 Z M 48.2422 -16.5527 C 51.5625 -16.5527 54.0039 -18.457 54.0039 -21.6309 C 54.0039 -24.707 51.5625 -26.6602 48.2422 -26.6602 C 44.9219 -26.6602 42.4316 -24.7559 42.4316 -21.6309 C 42.4316 -18.5059 44.9219 -16.5527 48.2422 -16.5527 Z"/>
  </g>
  <g id="Bold-S" transform="matrix(1 0 0 1 2292.44 696)">
   <path d="M 47.5586 5.46875 C 69.873 5.46875 88.2324 -12.8906 88.2324 -35.2051 C 88.2324 -57.5684 69.873 -75.9277 47.5098 -75.9277 C 25.1953 -75.9277 6.83594 -57.5684 6.83594 -35.2051 C 6.83594 -12.8906 25.1953 5.46875 47.5586 5.46875 Z M 47.5586 -5.32227 C 30.957 -5.32227 17.6758 -18.6523 17.6758 -35.2051 C 17.6758 -51.8066 30.957 -65.1367 47.5098 -65.1367 C 64.1113 -65.1367 77.4414 -51.8066 77.4414 -35.2051 C 77.4414 -18.6523 64.1113 -5.32227 47.5586 -5.32227 Z M 47.5586 -29.541 C 50.1953 -29.541 51.7578 -31.0059 51.8555 -33.7402 L 52.4902 -49.0234 C 52.5879 -51.9043 50.5371 -53.9062 47.5098 -53.9062 C 44.4336 -53.9062 42.4316 -51.9531 42.5293 -49.0723 L 43.1152 -33.6914 C 43.2617 -31.0059 44.8242 -29.541 47.5586 -29.541 Z M 47.5586 -16.2109 C 50.5371 -16.2109 52.8809 -18.1152 52.8809 -20.9961 C 52.8809 -23.877 50.5859 -25.7812 47.5586 -25.7812 C 44.5312 -25.7812 42.1875 -23.877 42.1875 -20.9961 C 42.1875 -18.1152 44.5312 -16.2109 47.5586 -16.2109 Z"/>
  </g>
  <g id="Semibold-S" transform="matrix(1 0 0 1 1996.2 696)">
   <path d="M 47.0703 4.98047 C 69.0918 4.98047 87.3047 -13.1836 87.3047 -35.2539 C 87.3047 -57.2754 69.0918 -75.4883 47.0215 -75.4883 C 25 -75.4883 6.83594 -57.2754 6.83594 -35.2539 C 6.83594 -13.1836 25.0488 4.98047 47.0703 4.98047 Z M 47.0703 -4.58984 C 30.0781 -4.58984 16.4551 -18.2129 16.4551 -35.2539 C 16.4551 -52.2461 30.0293 -65.8691 47.0215 -65.8691 C 64.0625 -65.8691 77.6855 -52.2461 77.7344 -35.2539 C 77.7344 -18.2129 64.0625 -4.58984 47.0703 -4.58984 Z M 47.0703 -29.1016 C 49.5117 -29.1016 50.9277 -30.4199 51.0254 -33.0078 L 51.6602 -50 C 51.709 -52.6367 49.7559 -54.4922 47.0215 -54.4922 C 44.2383 -54.4922 42.334 -52.6855 42.4316 -50.0488 L 43.0176 -32.959 C 43.1152 -30.4688 44.5312 -29.1016 47.0703 -29.1016 Z M 47.0703 -15.9668 C 49.8535 -15.9668 52.0508 -17.8711 52.0508 -20.5566 C 52.0508 -23.291 49.8535 -25.1953 47.0703 -25.1953 C 44.2383 -25.1953 42.041 -23.291 42.041 -20.5566 C 42.041 -17.8711 44.2871 -15.9668 47.0703 -15.9668 Z"/>
  </g>
  <g id="Medium-S" transform="matrix(1 0 0 1 1699.83 696)">
   <path d="M 46.7285 4.63867 C 68.5547 4.63867 86.6211 -13.4277 86.6211 -35.2539 C 86.6211 -57.0312 68.5059 -75.1465 46.6797 -75.1465 C 24.8535 -75.1465 6.83594 -57.0312 6.83594 -35.2539 C 6.83594 -13.4277 24.9023 4.63867 46.7285 4.63867 Z M 46.7285 -4.00391 C 29.3945 -4.00391 15.5273 -17.9199 15.5273 -35.2539 C 15.5273 -52.5879 29.3457 -66.4551 46.6797 -66.4551 C 64.0137 -66.4551 77.8809 -52.5879 77.9297 -35.2539 C 77.9785 -17.9199 64.0625 -4.00391 46.7285 -4.00391 Z M 46.6797 -28.7598 C 48.9746 -28.7598 50.293 -30.0293 50.3418 -32.4219 L 50.9766 -50.7324 C 51.0254 -53.1738 49.1699 -54.9316 46.6309 -54.9316 C 44.043 -54.9316 42.2852 -53.2227 42.334 -50.7812 L 42.9199 -32.4219 C 43.0176 -30.0293 44.3359 -28.7598 46.6797 -28.7598 Z M 46.6797 -15.7715 C 49.3164 -15.7715 51.4648 -17.6758 51.4648 -20.2637 C 51.4648 -22.8516 49.3164 -24.707 46.6797 -24.707 C 44.043 -24.707 41.8945 -22.8027 41.8945 -20.2637 C 41.8945 -17.6758 44.0918 -15.7715 46.6797 -15.7715 Z"/>
  </g>
  <g id="Regular-S" transform="matrix(1 0 0 1 1403.58 696)">
   <path d="M 46.2402 4.15039 C 67.7734 4.15039 85.6934 -13.7207 85.6934 -35.2539 C 85.6934 -56.7871 67.7246 -74.6582 46.1914 -74.6582 C 24.707 -74.6582 6.83594 -56.7871 6.83594 -35.2539 C 6.83594 -13.7207 24.7559 4.15039 46.2402 4.15039 Z M 46.2402 -3.27148 C 28.5156 -3.27148 14.3555 -17.4805 14.3555 -35.2539 C 14.3555 -53.0273 28.4668 -67.2363 46.1914 -67.2363 C 63.9648 -67.2363 78.1738 -53.0273 78.2227 -35.2539 C 78.2715 -17.4805 64.0137 -3.27148 46.2402 -3.27148 Z M 46.1914 -28.3203 C 48.291 -28.3203 49.4629 -29.4434 49.5117 -31.6895 L 50.1465 -51.709 C 50.1953 -53.8574 48.4375 -55.5176 46.1426 -55.5176 C 43.8477 -55.5176 42.1875 -53.9062 42.2363 -51.7578 L 42.8223 -31.6895 C 42.8711 -29.4922 44.043 -28.3203 46.1914 -28.3203 Z M 46.1914 -15.5273 C 48.584 -15.5273 50.6836 -17.4316 50.6836 -19.8242 C 50.6836 -22.2656 48.6328 -24.1211 46.1914 -24.1211 C 43.7988 -24.1211 41.748 -22.2168 41.748 -19.8242 C 41.748 -17.4805 43.8477 -15.5273 46.1914 -15.5273 Z"/>
  </g>
  <g id="Light-S" transform="matrix(1 0 0 1 1107.6 696)">
   <path d="M 45.5078 3.4668 C 66.6992 3.4668 84.2285 -14.0625 84.2285 -35.2051 C 84.2285 -56.3965 66.6504 -73.9258 45.5078 -73.9258 C 24.3164 -73.9258 6.83594 -56.3965 6.83594 -35.2051 C 6.83594 -14.0625 24.3652 3.4668 45.5078 3.4668 Z M 45.5078 -2.24609 C 27.2461 -2.24609 12.5977 -16.9434 12.5977 -35.2051 C 12.5977 -53.5156 27.1973 -68.2129 45.5078 -68.2129 C 63.7695 -68.2129 78.4668 -53.5156 78.5156 -35.2051 C 78.5156 -16.9434 63.8184 -2.24609 45.5078 -2.24609 Z M 45.5078 -28.3203 C 47.1191 -28.3203 48.0957 -29.2969 48.0957 -31.1035 L 48.6328 -51.416 C 48.6328 -53.1738 47.2656 -54.4922 45.459 -54.4922 C 43.6035 -54.4922 42.2852 -53.2227 42.334 -51.4648 L 42.8223 -31.1035 C 42.8223 -29.3457 43.7988 -28.3203 45.5078 -28.3203 Z M 45.5078 -16.2109 C 47.5586 -16.2109 49.3164 -17.8711 49.3164 -19.9219 C 49.3164 -21.9727 47.6074 -23.6328 45.5078 -23.6328 C 43.4082 -23.6328 41.6504 -21.9727 41.6504 -19.9219 C 41.6504 -17.8711 43.4082 -16.2109 45.5078 -16.2109 Z"/>
  </g>
  <g id="Thin-S" transform="matrix(1 0 0 1 811.867 696)">
   <path d="M 44.5801 2.53906 C 65.2832 2.53906 82.2754 -14.4531 82.2754 -35.2051 C 82.2754 -55.9082 65.2344 -72.9004 44.5312 -72.9004 C 23.8281 -72.9004 6.83594 -55.9082 6.83594 -35.2051 C 6.83594 -14.4531 23.877 2.53906 44.5801 2.53906 Z M 44.5801 -0.878906 C 25.5859 -0.878906 10.2539 -16.2109 10.2539 -35.2051 C 10.2539 -54.1504 25.5859 -69.4824 44.5312 -69.4824 C 63.5254 -69.4824 78.8574 -54.1504 78.8574 -35.2051 C 78.8574 -16.2109 63.5254 -0.878906 44.5801 -0.878906 Z M 44.5312 -28.3691 C 45.6055 -28.3691 46.2891 -29.1016 46.2891 -30.3223 L 46.6309 -51.0254 C 46.6309 -52.2461 45.8008 -53.125 44.5312 -53.125 C 43.2617 -53.125 42.4316 -52.2461 42.4316 -51.0254 L 42.7734 -30.3223 C 42.8223 -29.1016 43.457 -28.3691 44.5312 -28.3691 Z M 44.5312 -17.0898 C 46.1914 -17.0898 47.5098 -18.4082 47.5098 -20.0195 C 47.5098 -21.6309 46.1914 -22.9492 44.5312 -22.9492 C 42.9199 -22.9492 41.5527 -21.6309 41.5527 -20.0195 C 41.5527 -18.457 42.9199 -17.0898 44.5312 -17.0898 Z"/>
  </g>
  <g id="Ultralight-S" transform="matrix(1 0 0 1 515.644 696)">
   <path d="M 44.043 2.05078 C 64.502 2.05078 81.2988 -14.6973 81.2988 -35.1562 C 81.2988 -55.6152 64.502 -72.3633 44.043 -72.3633 C 23.584 -72.3633 6.83594 -55.6152 6.83594 -35.1562 C 6.83594 -14.6973 23.584 2.05078 44.043 2.05078 Z M 44.043 -0.146484 C 24.7559 -0.146484 9.08203 -15.8691 9.08203 -35.1562 C 9.08203 -54.4434 24.7559 -70.166 44.043 -70.166 C 63.3789 -70.166 79.0527 -54.4434 79.0527 -35.1562 C 79.0527 -15.8691 63.3789 -0.146484 44.043 -0.146484 Z M 44.043 -28.3691 C 44.8242 -28.3691 45.3125 -29.0039 45.3125 -29.9316 L 45.6055 -50.8301 C 45.6055 -51.7578 45.0195 -52.3926 44.043 -52.3926 C 43.1152 -52.3926 42.5293 -51.7578 42.5293 -50.8301 L 42.7734 -29.9316 C 42.7734 -29.0039 43.3105 -28.3691 44.043 -28.3691 Z M 44.043 -17.5293 C 45.459 -17.5293 46.582 -18.75 46.582 -20.0684 C 46.582 -21.4355 45.459 -22.6074 44.043 -22.6074 C 42.627 -22.6074 41.5039 -21.4355 41.5039 -20.0684 C 41.5039 -18.75 42.627 -17.5293 44.043 -17.5293 Z"/>
  </g>
 </g>
</svg>
