<?xml version="1.0" encoding="UTF-8" standalone="no"?>
<svg
   xmlns:dc="http://purl.org/dc/elements/1.1/"
   xmlns:cc="http://creativecommons.org/ns#"
   xmlns:rdf="http://www.w3.org/1999/02/22-rdf-syntax-ns#"
   xmlns:svg="http://www.w3.org/2000/svg"
   xmlns="http://www.w3.org/2000/svg"
   xmlns:sodipodi="http://sodipodi.sourceforge.net/DTD/sodipodi-0.dtd"
   xmlns:inkscape="http://www.inkscape.org/namespaces/inkscape"
   version="1.1"
   width="1700"
   height="1100"
   viewBox="0 0 1700 1100"
   id="svg11"
   sodipodi:docname="dolphin-emu.svg"
   inkscape:version="0.92.4 5da689c313, 2019-01-14"
   inkscape:export-filename="/home/scrumplex/dolphin/Data/Sys/Resources/dolphin_logo@2x.png"
   inkscape:export-xdpi="24"
   inkscape:export-ydpi="24">
  <metadata
     id="metadata17">
    <rdf:RDF>
      <cc:Work
         rdf:about="">
        <dc:format>image/svg+xml</dc:format>
        <dc:type
           rdf:resource="http://purl.org/dc/dcmitype/StillImage" />
        <dc:title></dc:title>
      </cc:Work>
    </rdf:RDF>
  </metadata>
  <defs
     id="defs15" />
  <sodipodi:namedview
     pagecolor="#ffffff"
     bordercolor="#666666"
     borderopacity="1"
     objecttolerance="10"
     gridtolerance="10"
     guidetolerance="10"
     inkscape:pageopacity="0"
     inkscape:pageshadow="2"
     inkscape:window-width="640"
     inkscape:window-height="480"
     id="namedview13"
     showgrid="false"
     inkscape:current-layer="svg11"
     inkscape:snap-bbox="true"
     inkscape:bbox-paths="true"
     inkscape:snap-bbox-edge-midpoints="true"
     inkscape:bbox-nodes="true"
     inkscape:snap-bbox-midpoints="true"
     inkscape:object-paths="true"
     inkscape:snap-intersection-paths="true"
     inkscape:snap-smooth-nodes="true"
     inkscape:snap-midpoints="true"
     inkscape:snap-object-midpoints="true"
     inkscape:snap-center="true"
     inkscape:snap-text-baseline="true"
     inkscape:snap-page="true"
     fit-margin-top="0"
     fit-margin-left="0"
     fit-margin-right="0"
     fit-margin-bottom="0" />
  <linearGradient
     id="g"
     gradientUnits="userSpaceOnUse"
     x1="0"
     y1="506"
     x2="0"
     y2="1588">
    <stop
       offset="0"
       stop-color="#46D4FF"
       id="stop2" />
    <stop
       offset="1"
       stop-color="#1792FF"
       id="stop4" />
  </linearGradient>
  <path
     d="M 1594.4338,796.8921 C 1516.6443,621.6683 1449.7414,496.4167 1338.2724,369.2029 1302.4183,328.2848 1268.4547,291.7196 1233.0933,258.89765 l 0.04,0.0101 c 0,0 -0.2805,-0.24176 -0.7938,-0.70414 -0.638,-0.59032 -1.2767,-1.18063 -1.9154,-1.76994 -13.1249,-12.36941 -68.8372,-69.59267 -49.0435,-132.77148 21.7209,-69.328755 144.0536,-100.315245 144.0536,-100.315245 0,0 -59.964,-24.8677596 -164.8921,-16.6517096 C 1062.0658,14.406595 973.58433,84.697375 957.04373,94.578605 904.00853,76.047145 843.49663,59.704695 772.72743,45.048575 527.94911,-5.6450046 320.78483,75.164665 216.83132,163.23744 80.580545,278.6732 84.350315,386.2354 73.117755,440.0366 c -8.08257,38.715 -90.27405,115.6171 -62.33498,157.5183 17.43109,26.1412 75.43758,-9.3573 122.231305,-32.8511 49.1977,-24.7015 52.98894,-38.1377 187.44313,-62.6257 61.85796,-11.2664 126.96003,-14.499 175.42902,-14.9956 18.86125,48.6153 65.75649,148.5458 147.00553,196.4782 109.70477,64.719 246.75607,63.9051 246.75607,63.9051 0,0 -78.7578,-39.94 -127.2101,-99.0802 -32.974,-40.2472 -49.3323,-100.255 -51.0108,-135.2126 v 0 c 79.3838,18.4126 216.186,73.7046 367.10927,177.183 120.4456,82.5816 272.2385,318.6988 272.2385,318.6988 0,0 -173.7329,-347.9811 -345.7048,-479.929 C 874.33963,428.821 804.18113,397.2069 655.46409,370.9669 501.37707,343.779 350.11475,385.4128 350.11475,385.4128 c 0,0 2.18957,-74.7233 129.59733,-146.81755 99.46937,-56.28619 235.39545,-77.04415 443.50055,-12.23946 294.00687,91.55521 394.27977,247.45471 520.74697,408.55931 134.6054,171.4733 250.9988,460.0476 250.9988,460.0476 0,0 -35.8896,-152.4714 -100.5246,-298.0656 z"
     id="path9"
     style="opacity:1;fill:#1792ff;fill-opacity:1;stroke:#1792ff;stroke-width:10.08603096;stroke-linecap:round;stroke-linejoin:round;stroke-miterlimit:4;stroke-dasharray:none;stroke-opacity:1"
     inkscape:connector-curvature="0"
     sodipodi:nodetypes="ccccccccccccccccccccccscccccccccc" />
</svg>
