<?xml version="1.0" encoding="UTF-8" standalone="no"?>
<svg
   xmlns:dc="http://purl.org/dc/elements/1.1/"
   xmlns:cc="http://creativecommons.org/ns#"
   xmlns:rdf="http://www.w3.org/1999/02/22-rdf-syntax-ns#"
   xmlns:svg="http://www.w3.org/2000/svg"
   xmlns="http://www.w3.org/2000/svg"
   xmlns:xlink="http://www.w3.org/1999/xlink"
   id="svg11"
   viewBox="0 0 2048 2048"
   height="2048"
   width="2048"
   version="1.1">
  <metadata
     id="metadata17">
    <rdf:RDF>
      <cc:Work
         rdf:about="">
        <dc:format>image/svg+xml</dc:format>
        <dc:type
           rdf:resource="http://purl.org/dc/dcmitype/StillImage" />
        <dc:title></dc:title>
      </cc:Work>
    </rdf:RDF>
  </metadata>
  <defs
     id="defs15">
    <linearGradient
       id="g"
       gradientUnits="userSpaceOnUse"
       x1="0"
       y1="506"
       x2="0"
       y2="1588">
      <stop
         offset="0"
         stop-color="#46D4FF"
         id="stop833" />
      <stop
         offset="1"
         stop-color="#1792FF"
         id="stop835" />
    </linearGradient>
    <linearGradient
       gradientUnits="userSpaceOnUse"
       y2="1197.5679"
       x2="1968.8997"
       y1="1197.5679"
       x1="268.89978"
       id="linearGradient844"
       xlink:href="#g" />
    <linearGradient
       gradientUnits="userSpaceOnUse"
       y2="1197.5679"
       x2="1968.8997"
       y1="1197.5679"
       x1="268.89978"
       id="linearGradient864"
       xlink:href="#g" />
    <linearGradient
       gradientTransform="matrix(1.1064877,0,0,1.1064877,-175.90894,-149.2711)"
       y2="1197.5679"
       x2="1968.8997"
       y1="1197.5679"
       x1="268.89978"
       gradientUnits="userSpaceOnUse"
       id="linearGradient867"
       xlink:href="#g" />
    <linearGradient
       gradientTransform="matrix(1.1064877,0,0,1.1064877,-175.90894,-149.2711)"
       y2="1197.5679"
       x2="1968.8997"
       y1="1197.5679"
       x1="268.89978"
       gradientUnits="userSpaceOnUse"
       id="linearGradient869"
       xlink:href="#g" />
  </defs>
  <linearGradient
     y2="1588"
     x2="0"
     y1="506"
     x1="0"
     gradientUnits="userSpaceOnUse"
     id="g-rev">
    <stop
       style="stop-color:#1792ff;stop-opacity:1"
       id="stop2"
       stop-color="#46D4FF"
       offset="0" />
    <stop
       style="stop-color:#46d4ff;stop-opacity:1"
       id="stop4"
       stop-color="#1792FF"
       offset="1" />
  </linearGradient>
  <path
     id="path9"
     d="m 1456.4672,572.83744 c -15.6482,-0.12236 -32.576,0.40567 -50.7168,1.82614 -108.9629,8.53252 -206.8661,86.30778 -225.1681,97.24124 C 1121.8995,651.39999 1054.9438,633.31809 976.63848,617.10127 705.79424,561.00945 476.56911,650.42285 361.54583,747.87428 210.78603,875.60253 214.95798,994.6206 202.52929,1054.151 c -8.94326,42.8376 -99.88818,127.928 -68.97395,174.2911 19.28729,28.925 83.47199,-10.3541 135.24867,-36.3497 54.43665,-27.3319 58.63186,-42.1982 207.40376,-69.2938 68.44507,-12.4662 140.47829,-16.0435 194.10863,-16.593 20.86974,53.7922 72.75911,164.3644 162.66017,217.401 121.38699,71.6108 273.03233,70.7093 273.03233,70.7093 0,0 -87.1433,-44.193 -140.75518,-109.6309 -36.48534,-44.533 -54.58661,-110.9312 -56.44385,-149.6114 318.88423,95.6094 518.52443,259.3695 707.43033,548.6882 C 1426.07,1344.9586 1194.1545,1040.8631 846.88762,977.72553 676.39224,947.64241 509.02205,993.70908 509.02205,993.70908 c 0,0 2.4231,-82.67919 143.39821,-162.45058 110.06163,-62.27998 260.46371,-63.18217 490.72944,8.52342 445.333,172.03788 677.7922,510.77048 853.9254,939.03628 -127.9341,-357.5298 -255.4417,-686.4767 -511.0482,-925.09714 l 0.045,0.013 c 0,0 -0.3095,-0.26855 -0.8775,-0.78016 -0.7059,-0.65319 -1.4133,-1.3059 -2.12,-1.95797 -14.5225,-13.6866 -76.1669,-77.00343 -54.2655,-146.91 24.0341,-76.71141 159.3927,-110.99887 159.3927,-110.99887 0,0 -47.2341,-19.58878 -131.7348,-20.24959 z"
     style="opacity:1;fill:url(#linearGradient869);fill-opacity:1;stroke:url(#linearGradient867);stroke-width:11.06487656;stroke-linecap:round;stroke-linejoin:round;stroke-miterlimit:4;stroke-dasharray:none;stroke-opacity:1" />
</svg>
