<?xml version="1.0" encoding="UTF-8"?>
<!--Generator: Apple Native CoreSVG 123-->
<!DOCTYPE svg
PUBLIC "-//W3C//DTD SVG 1.1//EN"
       "http://www.w3.org/Graphics/SVG/1.1/DTD/svg11.dtd">
<svg version="1.1" xmlns="http://www.w3.org/2000/svg" xmlns:xlink="http://www.w3.org/1999/xlink" width="3300" height="2200">
 <!--glyph: "uni100078.medium", point size: 100.000000, font version: "Version 15.0d7e11", template writer version: "5"-->
 <g id="Notes">
  <rect height="2200" id="artboard" style="fill:white;opacity:1" width="3300" x="0" y="0"/>
  <line id="" style="fill:none;stroke:black;opacity:1;stroke-width:0.5;" x1="263" x2="3036" y1="292" y2="292"/>
  <text style="stroke:none;fill:black;font-family:-apple-system,&quot;SF Pro Display&quot;,&quot;SF Pro Text&quot;,Helvetica,sans-serif;font-weight:bold;" transform="matrix(1 0 0 1 263 322)">Weight/Scale Variations</text>
  <text style="stroke:none;fill:black;font-family:-apple-system,&quot;SF Pro Display&quot;,&quot;SF Pro Text&quot;,Helvetica,sans-serif;text-anchor:middle;" transform="matrix(1 0 0 1 559.711 322)">Ultralight</text>
  <text style="stroke:none;fill:black;font-family:-apple-system,&quot;SF Pro Display&quot;,&quot;SF Pro Text&quot;,Helvetica,sans-serif;text-anchor:middle;" transform="matrix(1 0 0 1 856.422 322)">Thin</text>
  <text style="stroke:none;fill:black;font-family:-apple-system,&quot;SF Pro Display&quot;,&quot;SF Pro Text&quot;,Helvetica,sans-serif;text-anchor:middle;" transform="matrix(1 0 0 1 1153.13 322)">Light</text>
  <text style="stroke:none;fill:black;font-family:-apple-system,&quot;SF Pro Display&quot;,&quot;SF Pro Text&quot;,Helvetica,sans-serif;text-anchor:middle;" transform="matrix(1 0 0 1 1449.84 322)">Regular</text>
  <text style="stroke:none;fill:black;font-family:-apple-system,&quot;SF Pro Display&quot;,&quot;SF Pro Text&quot;,Helvetica,sans-serif;text-anchor:middle;" transform="matrix(1 0 0 1 1746.56 322)">Medium</text>
  <text style="stroke:none;fill:black;font-family:-apple-system,&quot;SF Pro Display&quot;,&quot;SF Pro Text&quot;,Helvetica,sans-serif;text-anchor:middle;" transform="matrix(1 0 0 1 2043.27 322)">Semibold</text>
  <text style="stroke:none;fill:black;font-family:-apple-system,&quot;SF Pro Display&quot;,&quot;SF Pro Text&quot;,Helvetica,sans-serif;text-anchor:middle;" transform="matrix(1 0 0 1 2339.98 322)">Bold</text>
  <text style="stroke:none;fill:black;font-family:-apple-system,&quot;SF Pro Display&quot;,&quot;SF Pro Text&quot;,Helvetica,sans-serif;text-anchor:middle;" transform="matrix(1 0 0 1 2636.69 322)">Heavy</text>
  <text style="stroke:none;fill:black;font-family:-apple-system,&quot;SF Pro Display&quot;,&quot;SF Pro Text&quot;,Helvetica,sans-serif;text-anchor:middle;" transform="matrix(1 0 0 1 2933.4 322)">Black</text>
  <line id="" style="fill:none;stroke:black;opacity:1;stroke-width:0.5;" x1="263" x2="3036" y1="1903" y2="1903"/>
  <g id="" transform="matrix(1 0 0 1 263 1933)">
   <path d="M 9.24805 0.830078 C 13.5547 0.830078 17.1387 -2.74414 17.1387 -7.05078 C 17.1387 -11.3574 13.5449 -14.9316 9.23828 -14.9316 C 4.94141 -14.9316 1.36719 -11.3574 1.36719 -7.05078 C 1.36719 -2.74414 4.95117 0.830078 9.24805 0.830078 Z M 9.24805 -0.654297 C 5.70312 -0.654297 2.87109 -3.49609 2.87109 -7.05078 C 2.87109 -10.6055 5.69336 -13.4473 9.23828 -13.4473 C 12.793 -13.4473 15.6348 -10.6055 15.6445 -7.05078 C 15.6543 -3.49609 12.8027 -0.654297 9.24805 -0.654297 Z M 9.22852 -3.42773 C 9.69727 -3.42773 9.9707 -3.74023 9.9707 -4.25781 L 9.9707 -6.31836 L 12.1973 -6.31836 C 12.6953 -6.31836 13.0371 -6.57227 13.0371 -7.04102 C 13.0371 -7.51953 12.7148 -7.7832 12.1973 -7.7832 L 9.9707 -7.7832 L 9.9707 -10.0098 C 9.9707 -10.5273 9.69727 -10.8496 9.22852 -10.8496 C 8.75977 -10.8496 8.50586 -10.5078 8.50586 -10.0098 L 8.50586 -7.7832 L 6.29883 -7.7832 C 5.78125 -7.7832 5.44922 -7.51953 5.44922 -7.04102 C 5.44922 -6.57227 5.80078 -6.31836 6.29883 -6.31836 L 8.50586 -6.31836 L 8.50586 -4.25781 C 8.50586 -3.75977 8.75977 -3.42773 9.22852 -3.42773 Z"/>
  </g>
  <g id="" transform="matrix(1 0 0 1 281.506 1933)">
   <path d="M 11.709 2.91016 C 17.1582 2.91016 21.6699 -1.60156 21.6699 -7.05078 C 21.6699 -12.4902 17.1484 -17.0117 11.6992 -17.0117 C 6.25977 -17.0117 1.74805 -12.4902 1.74805 -7.05078 C 1.74805 -1.60156 6.26953 2.91016 11.709 2.91016 Z M 11.709 1.25 C 7.09961 1.25 3.41797 -2.44141 3.41797 -7.05078 C 3.41797 -11.6504 7.08984 -15.3516 11.6992 -15.3516 C 16.3086 -15.3516 20 -11.6504 20.0098 -7.05078 C 20.0195 -2.44141 16.3184 1.25 11.709 1.25 Z M 11.6895 -2.41211 C 12.207 -2.41211 12.5195 -2.77344 12.5195 -3.33984 L 12.5195 -6.23047 L 15.5762 -6.23047 C 16.123 -6.23047 16.5039 -6.51367 16.5039 -7.03125 C 16.5039 -7.55859 16.1426 -7.86133 15.5762 -7.86133 L 12.5195 -7.86133 L 12.5195 -10.9277 C 12.5195 -11.5039 12.207 -11.8555 11.6895 -11.8555 C 11.1719 -11.8555 10.8789 -11.4844 10.8789 -10.9277 L 10.8789 -7.86133 L 7.83203 -7.86133 C 7.26562 -7.86133 6.89453 -7.55859 6.89453 -7.03125 C 6.89453 -6.51367 7.28516 -6.23047 7.83203 -6.23047 L 10.8789 -6.23047 L 10.8789 -3.33984 C 10.8789 -2.79297 11.1719 -2.41211 11.6895 -2.41211 Z"/>
  </g>
  <g id="" transform="matrix(1 0 0 1 304.924 1933)">
   <path d="M 14.9707 5.67383 C 21.9336 5.67383 27.6953 -0.078125 27.6953 -7.04102 C 27.6953 -14.0039 21.9238 -19.7559 14.9609 -19.7559 C 8.00781 -19.7559 2.25586 -14.0039 2.25586 -7.04102 C 2.25586 -0.078125 8.01758 5.67383 14.9707 5.67383 Z M 14.9707 3.85742 C 8.93555 3.85742 4.08203 -1.00586 4.08203 -7.04102 C 4.08203 -13.0762 8.92578 -17.9395 14.9609 -17.9395 C 21.0059 -17.9395 25.8594 -13.0762 25.8691 -7.04102 C 25.8789 -1.00586 21.0156 3.85742 14.9707 3.85742 Z M 14.9512 -1.06445 C 15.5176 -1.06445 15.8691 -1.45508 15.8691 -2.06055 L 15.8691 -6.13281 L 20.1074 -6.13281 C 20.6934 -6.13281 21.1133 -6.46484 21.1133 -7.02148 C 21.1133 -7.59766 20.7227 -7.93945 20.1074 -7.93945 L 15.8691 -7.93945 L 15.8691 -12.1875 C 15.8691 -12.8027 15.5176 -13.1934 14.9512 -13.1934 C 14.3848 -13.1934 14.0625 -12.7832 14.0625 -12.1875 L 14.0625 -7.93945 L 9.83398 -7.93945 C 9.21875 -7.93945 8.80859 -7.59766 8.80859 -7.02148 C 8.80859 -6.46484 9.23828 -6.13281 9.83398 -6.13281 L 14.0625 -6.13281 L 14.0625 -2.06055 C 14.0625 -1.47461 14.3848 -1.06445 14.9512 -1.06445 Z"/>
  </g>
  <text style="stroke:none;fill:black;font-family:-apple-system,&quot;SF Pro Display&quot;,&quot;SF Pro Text&quot;,Helvetica,sans-serif;font-weight:bold;" transform="matrix(1 0 0 1 263 1953)">Design Variations</text>
  <text style="stroke:none;fill:black;font-family:-apple-system,&quot;SF Pro Display&quot;,&quot;SF Pro Text&quot;,Helvetica,sans-serif;" transform="matrix(1 0 0 1 263 1971)">Symbols are supported in up to nine weights and three scales.</text>
  <text style="stroke:none;fill:black;font-family:-apple-system,&quot;SF Pro Display&quot;,&quot;SF Pro Text&quot;,Helvetica,sans-serif;" transform="matrix(1 0 0 1 263 1989)">For optimal layout with text and other symbols, vertically align</text>
  <text style="stroke:none;fill:black;font-family:-apple-system,&quot;SF Pro Display&quot;,&quot;SF Pro Text&quot;,Helvetica,sans-serif;" transform="matrix(1 0 0 1 263 2007)">symbols with the adjacent text.</text>
  <rect height="14" id="" style="fill:#00AEEF;stroke:none;opacity:0.4;" width="3" x="776" y="1919"/>
  <g id="" transform="matrix(1 0 0 1 779 1933)">
   <path d="M 10.5273 0 L 12.373 0 L 7.17773 -14.0918 L 5.43945 -14.0918 L 0.244141 0 L 2.08984 0 L 3.50586 -4.0332 L 9.11133 -4.0332 Z M 6.2793 -11.9531 L 6.33789 -11.9531 L 8.59375 -5.52734 L 4.02344 -5.52734 Z"/>
  </g>
  <rect height="14" id="" style="fill:#00AEEF;stroke:none;opacity:0.4;" width="3" x="791.617" y="1919"/>
  <text style="stroke:none;fill:black;font-family:-apple-system,&quot;SF Pro Display&quot;,&quot;SF Pro Text&quot;,Helvetica,sans-serif;font-weight:bold;" transform="matrix(1 0 0 1 776 1953)">Margins</text>
  <text style="stroke:none;fill:black;font-family:-apple-system,&quot;SF Pro Display&quot;,&quot;SF Pro Text&quot;,Helvetica,sans-serif;" transform="matrix(1 0 0 1 776 1971)">Leading and trailing margins on the left and right side of each symbol</text>
  <text style="stroke:none;fill:black;font-family:-apple-system,&quot;SF Pro Display&quot;,&quot;SF Pro Text&quot;,Helvetica,sans-serif;" transform="matrix(1 0 0 1 776 1989)">can be adjusted by modifying the width of the blue rectangles.</text>
  <text style="stroke:none;fill:black;font-family:-apple-system,&quot;SF Pro Display&quot;,&quot;SF Pro Text&quot;,Helvetica,sans-serif;" transform="matrix(1 0 0 1 776 2007)">Modifications are automatically applied proportionally to all</text>
  <text style="stroke:none;fill:black;font-family:-apple-system,&quot;SF Pro Display&quot;,&quot;SF Pro Text&quot;,Helvetica,sans-serif;" transform="matrix(1 0 0 1 776 2025)">scales and weights.</text>
  <g id="" transform="matrix(1 0 0 1 1289 1933)">
   <path d="M 2.83203 3.11523 L 4.375 4.6582 C 5.22461 5.48828 6.19141 5.41992 7.06055 4.46289 L 17.2754 -6.66016 C 17.7051 -6.36719 18.0957 -6.37695 18.5645 -6.47461 L 19.6094 -6.68945 L 20.3027 -5.99609 L 20.2539 -5.47852 C 20.1855 -4.95117 20.3516 -4.53125 20.8496 -4.0332 L 21.6602 -3.22266 C 22.168 -2.71484 22.8223 -2.68555 23.3008 -3.16406 L 26.5527 -6.41602 C 27.0312 -6.89453 27.0117 -7.54883 26.5039 -8.05664 L 25.6836 -8.87695 C 25.1855 -9.375 24.7754 -9.55078 24.2383 -9.47266 L 23.7109 -9.41406 L 23.0566 -10.0781 L 23.3398 -11.2207 C 23.4863 -11.7871 23.3398 -12.2559 22.7148 -12.8613 L 20.3027 -15.2539 C 16.7578 -18.7793 12.2266 -18.6719 9.11133 -15.5371 C 8.69141 -15.1074 8.64258 -14.5215 8.91602 -14.0918 C 9.15039 -13.7207 9.62891 -13.4961 10.2734 -13.6621 C 11.7871 -14.043 13.3008 -13.9258 14.7852 -12.9199 L 14.1602 -11.3379 C 13.9258 -10.752 13.9453 -10.2734 14.1797 -9.83398 L 3.01758 0.439453 C 2.08008 1.30859 1.97266 2.25586 2.83203 3.11523 Z M 10.6738 -15.1465 C 13.3398 -17.1387 16.6504 -16.8262 19.0527 -14.4141 L 21.6797 -11.8066 C 21.9141 -11.5723 21.9434 -11.3867 21.8848 -11.0938 L 21.5039 -9.53125 L 23.0762 -7.95898 L 24.043 -8.04688 C 24.3262 -8.07617 24.4141 -8.05664 24.6387 -7.83203 L 25.2637 -7.20703 L 22.5098 -4.46289 L 21.8848 -5.07812 C 21.6602 -5.30273 21.6406 -5.40039 21.6699 -5.68359 L 21.7578 -6.64062 L 20.1953 -8.20312 L 18.5742 -7.89062 C 18.291 -7.83203 18.1445 -7.83203 17.9102 -8.07617 L 15.7324 -10.2539 C 15.5078 -10.4883 15.4785 -10.625 15.6055 -10.9473 L 16.5527 -13.2227 C 14.9512 -14.7559 12.8418 -15.6055 10.8008 -14.9512 C 10.7129 -14.9219 10.6445 -14.9414 10.6152 -14.9805 C 10.5859 -15.0293 10.5859 -15.0781 10.6738 -15.1465 Z M 4.10156 2.41211 C 3.61328 1.91406 3.78906 1.61133 4.12109 1.30859 L 15.0781 -8.80859 L 16.3086 -7.57812 L 6.15234 3.34961 C 5.84961 3.68164 5.46875 3.7793 5.06836 3.37891 Z"/>
  </g>
  <text style="stroke:none;fill:black;font-family:-apple-system,&quot;SF Pro Display&quot;,&quot;SF Pro Text&quot;,Helvetica,sans-serif;font-weight:bold;" transform="matrix(1 0 0 1 1289 1953)">Exporting</text>
  <text style="stroke:none;fill:black;font-family:-apple-system,&quot;SF Pro Display&quot;,&quot;SF Pro Text&quot;,Helvetica,sans-serif;" transform="matrix(1 0 0 1 1289 1971)">Symbols should be outlined when exporting to ensure the</text>
  <text style="stroke:none;fill:black;font-family:-apple-system,&quot;SF Pro Display&quot;,&quot;SF Pro Text&quot;,Helvetica,sans-serif;" transform="matrix(1 0 0 1 1289 1989)">design is preserved when submitting to Xcode.</text>
  <text id="template-version" style="stroke:none;fill:black;font-family:-apple-system,&quot;SF Pro Display&quot;,&quot;SF Pro Text&quot;,Helvetica,sans-serif;text-anchor:end;" transform="matrix(1 0 0 1 3036 1933)">Template v.1.0</text>
  <text style="stroke:none;fill:black;font-family:-apple-system,&quot;SF Pro Display&quot;,&quot;SF Pro Text&quot;,Helvetica,sans-serif;text-anchor:end;" transform="matrix(1 0 0 1 3036 1951)">Generated from arrow.down.circle</text>
  <text style="stroke:none;fill:black;font-family:-apple-system,&quot;SF Pro Display&quot;,&quot;SF Pro Text&quot;,Helvetica,sans-serif;text-anchor:end;" transform="matrix(1 0 0 1 3036 1969)">Typeset at 100 points</text>
  <text style="stroke:none;fill:black;font-family:-apple-system,&quot;SF Pro Display&quot;,&quot;SF Pro Text&quot;,Helvetica,sans-serif;" transform="matrix(1 0 0 1 263 726)">Small</text>
  <text style="stroke:none;fill:black;font-family:-apple-system,&quot;SF Pro Display&quot;,&quot;SF Pro Text&quot;,Helvetica,sans-serif;" transform="matrix(1 0 0 1 263 1156)">Medium</text>
  <text style="stroke:none;fill:black;font-family:-apple-system,&quot;SF Pro Display&quot;,&quot;SF Pro Text&quot;,Helvetica,sans-serif;" transform="matrix(1 0 0 1 263 1586)">Large</text>
 </g>
 <g id="Guides">
  <g id="H-reference" style="fill:#27AAE1;stroke:none;" transform="matrix(1 0 0 1 339 696)">
   <path d="M 54.9316 0 L 57.666 0 L 30.5664 -70.459 L 28.0762 -70.459 L 0.976562 0 L 3.66211 0 L 12.9395 -24.4629 L 45.7031 -24.4629 Z M 29.1992 -67.0898 L 29.4434 -67.0898 L 44.8242 -26.709 L 13.8184 -26.709 Z"/>
  </g>
  <line id="Baseline-S" style="fill:none;stroke:#27AAE1;opacity:1;stroke-width:0.577;" x1="263" x2="3036" y1="696" y2="696"/>
  <line id="Capline-S" style="fill:none;stroke:#27AAE1;opacity:1;stroke-width:0.577;" x1="263" x2="3036" y1="625.541" y2="625.541"/>
  <g id="H-reference" style="fill:#27AAE1;stroke:none;" transform="matrix(1 0 0 1 339 1126)">
   <path d="M 54.9316 0 L 57.666 0 L 30.5664 -70.459 L 28.0762 -70.459 L 0.976562 0 L 3.66211 0 L 12.9395 -24.4629 L 45.7031 -24.4629 Z M 29.1992 -67.0898 L 29.4434 -67.0898 L 44.8242 -26.709 L 13.8184 -26.709 Z"/>
  </g>
  <line id="Baseline-M" style="fill:none;stroke:#27AAE1;opacity:1;stroke-width:0.577;" x1="263" x2="3036" y1="1126" y2="1126"/>
  <line id="Capline-M" style="fill:none;stroke:#27AAE1;opacity:1;stroke-width:0.577;" x1="263" x2="3036" y1="1055.54" y2="1055.54"/>
  <g id="H-reference" style="fill:#27AAE1;stroke:none;" transform="matrix(1 0 0 1 339 1556)">
   <path d="M 54.9316 0 L 57.666 0 L 30.5664 -70.459 L 28.0762 -70.459 L 0.976562 0 L 3.66211 0 L 12.9395 -24.4629 L 45.7031 -24.4629 Z M 29.1992 -67.0898 L 29.4434 -67.0898 L 44.8242 -26.709 L 13.8184 -26.709 Z"/>
  </g>
  <line id="Baseline-L" style="fill:none;stroke:#27AAE1;opacity:1;stroke-width:0.577;" x1="263" x2="3036" y1="1556" y2="1556"/>
  <line id="Capline-L" style="fill:none;stroke:#27AAE1;opacity:1;stroke-width:0.577;" x1="263" x2="3036" y1="1485.54" y2="1485.54"/>
  <rect height="119.336" id="left-margin" style="fill:#00AEEF;stroke:none;opacity:0.4;" width="8.74023" x="1391.3" y="1030.79"/>
  <rect height="119.336" id="right-margin" style="fill:#00AEEF;stroke:none;opacity:0.4;" width="8.74023" x="1499.65" y="1030.79"/>
 </g>
 <g id="Symbols">
  <g id="Black-L" transform="matrix(1 0 0 1 2854.05 1556)">
   <path d="M 79.3457 32.8613 C 116.748 32.8613 147.412 2.19727 147.412 -35.2051 C 147.412 -72.6074 116.748 -103.271 79.2969 -103.271 C 41.8945 -103.271 11.2793 -72.6074 11.2793 -35.2051 C 11.2793 2.19727 41.9434 32.8613 79.3457 32.8613 Z M 79.3457 12.4023 C 52.9785 12.4023 31.7383 -8.83789 31.7383 -35.2051 C 31.7383 -61.5723 52.9297 -82.8125 79.2969 -82.8125 C 105.664 -82.8125 126.953 -61.5723 126.953 -35.2051 C 127.002 -8.83789 105.713 12.4023 79.3457 12.4023 Z M 79.3457 -2.09961 C 82.2754 -2.09961 84.5703 -3.17383 86.5234 -5.27344 L 106.445 -26.5625 C 108.154 -28.418 108.74 -29.9316 108.74 -32.2266 C 108.74 -36.2793 105.762 -39.1602 101.465 -39.1602 C 99.4141 -39.1602 97.3145 -38.2324 96.0938 -36.7188 L 90.7227 -30.5176 L 87.1094 -24.8535 L 87.9883 -36.9141 L 87.9883 -60.1562 C 87.9883 -64.8438 84.1797 -68.1641 79.3457 -68.1641 C 74.5117 -68.1641 70.7031 -64.8438 70.7031 -60.1562 L 70.7031 -36.9141 L 71.5332 -24.8535 L 68.0176 -30.2734 L 62.5977 -36.7188 C 61.4258 -38.1836 59.3262 -39.1602 57.2266 -39.1602 C 52.9297 -39.1602 49.9512 -36.2793 49.9512 -32.2266 C 49.9512 -29.9316 50.5371 -28.418 52.1973 -26.5625 L 72.2168 -5.27344 C 74.1211 -3.17383 76.4648 -2.09961 79.3457 -2.09961 Z"/>
  </g>
  <g id="Heavy-L" transform="matrix(1 0 0 1 2558.39 1556)">
   <path d="M 78.2715 31.7871 C 115.088 31.7871 145.312 1.61133 145.312 -35.2051 C 145.312 -72.0215 115.039 -102.197 78.2715 -102.197 C 41.4551 -102.197 11.2793 -72.0215 11.2793 -35.2051 C 11.2793 1.61133 41.5039 31.7871 78.2715 31.7871 Z M 78.2715 14.0137 C 51.0254 14.0137 29.0527 -7.95898 29.0527 -35.2051 C 29.0527 -62.5 50.9766 -84.4727 78.2715 -84.4727 C 105.518 -84.4727 127.49 -62.5 127.539 -35.2051 C 127.539 -7.95898 105.566 14.0137 78.2715 14.0137 Z M 78.2715 -2.24609 C 80.8105 -2.24609 82.8125 -3.22266 84.5215 -5.0293 L 104.98 -26.5137 C 106.396 -28.0762 106.982 -29.4922 106.982 -31.4941 C 106.982 -35.1074 104.297 -37.6953 100.488 -37.6953 C 98.6328 -37.6953 96.8262 -36.8652 95.6543 -35.5469 L 89.4531 -28.6133 L 85.1074 -22.4609 L 85.8398 -34.6191 L 85.8398 -60.9863 C 85.8398 -65.1367 82.5684 -68.0664 78.2715 -68.0664 C 74.0234 -68.0664 70.7031 -65.1367 70.7031 -60.9863 L 70.7031 -34.6191 L 71.4844 -22.5098 L 67.1875 -28.4668 L 60.8887 -35.5469 C 59.8145 -36.8652 58.0078 -37.6953 56.1035 -37.6953 C 52.2949 -37.6953 49.6094 -35.1074 49.6094 -31.4941 C 49.6094 -29.4922 50.1953 -28.0762 51.6113 -26.5137 L 72.0703 -5.0293 C 73.8281 -3.17383 75.7812 -2.24609 78.2715 -2.24609 Z"/>
  </g>
  <g id="Bold-L" transform="matrix(1 0 0 1 2262.88 1556)">
   <path d="M 77.0996 30.6152 C 113.232 30.6152 142.92 0.878906 142.92 -35.2051 C 142.92 -71.3379 113.184 -101.025 77.0508 -101.025 C 40.9668 -101.025 11.2793 -71.3379 11.2793 -35.2051 C 11.2793 0.878906 41.0156 30.6152 77.0996 30.6152 Z M 77.0996 15.8691 C 48.8281 15.8691 26.0742 -6.93359 26.0742 -35.2051 C 26.0742 -63.4766 48.7793 -86.2793 77.0508 -86.2793 C 105.371 -86.2793 128.125 -63.4766 128.174 -35.2051 C 128.174 -6.93359 105.371 15.8691 77.0996 15.8691 Z M 77.0996 -2.44141 C 79.1504 -2.44141 80.8105 -3.22266 82.2754 -4.78516 L 103.271 -26.416 C 104.492 -27.6855 104.98 -28.9551 104.98 -30.6641 C 104.98 -33.7891 102.637 -36.0352 99.3652 -36.0352 C 97.7539 -36.0352 96.2402 -35.4004 95.2148 -34.2285 L 88.0371 -26.5625 L 82.8125 -19.8242 L 83.4473 -32.0312 L 83.4473 -61.8652 C 83.4473 -65.3809 80.7129 -67.9199 77.0996 -67.9199 C 73.4863 -67.9199 70.752 -65.3809 70.752 -61.8652 L 70.752 -32.0312 L 71.3867 -19.873 L 66.2598 -26.416 L 58.9844 -34.2285 C 58.0078 -35.3516 56.4941 -36.0352 54.834 -36.0352 C 51.6113 -36.0352 49.2676 -33.7891 49.2676 -30.6641 C 49.2676 -28.9551 49.7559 -27.6855 50.9277 -26.416 L 71.9727 -4.78516 C 73.4863 -3.17383 75.0977 -2.44141 77.0996 -2.44141 Z"/>
  </g>
  <g id="Semibold-L" transform="matrix(1 0 0 1 1966.97 1556)">
   <path d="M 76.2695 29.7852 C 111.914 29.7852 141.309 0.439453 141.309 -35.2051 C 141.309 -70.8496 111.865 -100.244 76.2695 -100.244 C 40.625 -100.244 11.2793 -70.8496 11.2793 -35.2051 C 11.2793 0.439453 40.6738 29.7852 76.2695 29.7852 Z M 76.2695 17.0898 C 47.3145 17.0898 24.0234 -6.25 24.0234 -35.2051 C 24.0234 -64.209 47.2656 -87.5 76.2695 -87.5 C 105.225 -87.5 128.564 -64.209 128.613 -35.2051 C 128.662 -6.25 105.273 17.0898 76.2695 17.0898 Z M 76.2695 -2.53906 C 78.0273 -2.53906 79.4434 -3.22266 80.7129 -4.58984 L 102.1 -26.3672 C 103.125 -27.4414 103.613 -28.5645 103.613 -30.0781 C 103.613 -32.8613 101.465 -34.9121 98.584 -34.9121 C 97.168 -34.9121 95.8496 -34.3262 94.9219 -33.3008 L 87.0605 -25.0977 L 81.25 -18.0176 L 81.7871 -30.2246 L 81.7871 -62.5 C 81.7871 -65.625 79.4434 -67.8223 76.2695 -67.8223 C 73.1445 -67.8223 70.752 -65.625 70.752 -62.5 L 70.752 -30.2246 L 71.3379 -18.0664 L 65.625 -25.0488 L 57.666 -33.3008 C 56.7871 -34.3262 55.4688 -34.9121 54.0039 -34.9121 C 51.123 -34.9121 49.0234 -32.8613 49.0234 -30.0781 C 49.0234 -28.5645 49.4629 -27.4414 50.4883 -26.3672 L 71.9238 -4.58984 C 73.2422 -3.17383 74.6094 -2.53906 76.2695 -2.53906 Z"/>
  </g>
  <g id="Medium-L" transform="matrix(1 0 0 1 1670.87 1556)">
   <path d="M 75.6836 29.1992 C 110.938 29.1992 140.088 0.0488281 140.088 -35.2051 C 140.088 -70.459 110.889 -99.6094 75.6348 -99.6094 C 40.3809 -99.6094 11.2793 -70.459 11.2793 -35.2051 C 11.2793 0.0488281 40.3809 29.1992 75.6836 29.1992 Z M 75.6836 18.0664 C 46.1426 18.0664 22.4609 -5.71289 22.4609 -35.2051 C 22.4609 -64.6973 46.1426 -88.4766 75.6348 -88.4766 C 105.127 -88.4766 128.906 -64.6973 128.906 -35.2051 C 128.955 -5.71289 105.176 18.0664 75.6836 18.0664 Z M 75.6836 -2.63672 C 77.1973 -2.63672 78.3691 -3.22266 79.541 -4.44336 L 101.221 -26.3184 C 102.148 -27.2461 102.588 -28.3203 102.588 -29.6387 C 102.588 -32.1777 100.635 -34.082 98.0469 -34.082 C 96.6797 -34.082 95.5078 -33.5449 94.6777 -32.6172 L 86.2793 -24.0234 L 80.0781 -16.6016 L 80.5664 -28.9062 L 80.5664 -62.9395 C 80.5664 -65.7715 78.5156 -67.7246 75.6836 -67.7246 C 72.8516 -67.7246 70.8008 -65.7715 70.8008 -62.9395 L 70.8008 -28.9062 L 71.2891 -16.6992 L 65.1367 -23.9746 L 56.6895 -32.6172 C 55.8594 -33.4961 54.6875 -34.082 53.3691 -34.082 C 50.7812 -34.082 48.8281 -32.1777 48.8281 -29.6387 C 48.8281 -28.3203 49.2676 -27.2461 50.1465 -26.3184 L 71.8262 -4.44336 C 73.0469 -3.17383 74.2188 -2.63672 75.6836 -2.63672 Z"/>
  </g>
  <g id="Regular-L" transform="matrix(1 0 0 1 1374.97 1556)">
   <path d="M 74.8535 28.3691 C 109.668 28.3691 138.477 -0.390625 138.477 -35.2051 C 138.477 -70.0195 109.619 -98.7793 74.8047 -98.7793 C 40.0391 -98.7793 11.2793 -70.0195 11.2793 -35.2051 C 11.2793 -0.390625 40.0879 28.3691 74.8535 28.3691 Z M 74.8535 19.2871 C 44.6777 19.2871 20.4102 -5.0293 20.4102 -35.2051 C 20.4102 -65.3809 44.6289 -89.6973 74.8047 -89.6973 C 105.029 -89.6973 129.297 -65.3809 129.346 -35.2051 C 129.395 -5.0293 105.078 19.2871 74.8535 19.2871 Z M 74.8535 -2.73438 C 76.0742 -2.73438 77.002 -3.22266 78.0273 -4.24805 L 100.098 -26.2695 C 100.83 -27.002 101.221 -27.9297 101.221 -29.1016 C 101.221 -31.25 99.4629 -32.959 97.2656 -32.959 C 96.0938 -32.959 95.1172 -32.5195 94.3848 -31.7383 L 85.3027 -22.6074 L 78.5156 -14.8438 L 78.9062 -27.0996 L 78.9062 -63.5742 C 78.9062 -65.9668 77.2461 -67.627 74.8535 -67.627 C 72.5098 -67.627 70.8008 -65.9668 70.8008 -63.5742 L 70.8008 -27.0996 L 71.2402 -14.8926 L 64.502 -22.6074 L 55.3711 -31.7383 C 54.6387 -32.4707 53.6621 -32.959 52.4902 -32.959 C 50.293 -32.959 48.584 -31.25 48.584 -29.1016 C 48.584 -27.9297 48.9746 -27.002 49.6582 -26.2695 L 71.7773 -4.24805 C 72.8516 -3.17383 73.7305 -2.73438 74.8535 -2.73438 Z"/>
  </g>
  <g id="Light-L" transform="matrix(1 0 0 1 1079.18 1556)">
   <path d="M 73.9258 27.4902 C 108.301 27.4902 136.621 -0.830078 136.621 -35.1562 C 136.621 -69.5312 108.252 -97.8516 73.9258 -97.8516 C 39.5508 -97.8516 11.2793 -69.5312 11.2793 -35.1562 C 11.2793 -0.830078 39.5996 27.4902 73.9258 27.4902 Z M 73.9258 20.6055 C 43.1152 20.6055 18.2129 -4.3457 18.2129 -35.1562 C 18.2129 -66.0156 43.0664 -90.918 73.9258 -90.918 C 104.736 -90.918 129.688 -66.0156 129.736 -35.1562 C 129.736 -4.3457 104.785 20.6055 73.9258 20.6055 Z M 73.9258 -2.73438 C 74.8535 -2.73438 75.5859 -3.125 76.3184 -3.85742 L 99.3652 -26.9043 C 99.9512 -27.4902 100.293 -28.1738 100.293 -29.1016 C 100.293 -30.7617 98.9258 -32.0312 97.2168 -32.0312 C 96.3379 -32.0312 95.6055 -31.7383 94.9707 -31.0547 L 84.1797 -20.2148 L 76.8066 -12.2559 L 77.0996 -23.1445 L 77.0996 -64.4531 C 77.0996 -66.3574 75.8301 -67.627 73.9258 -67.627 C 72.1191 -67.627 70.752 -66.3574 70.752 -64.4531 L 70.752 -23.1445 L 71.0938 -12.3535 L 63.8184 -20.2148 L 52.9785 -31.0547 C 52.3438 -31.6895 51.6113 -32.0312 50.7324 -32.0312 C 48.9746 -32.0312 47.7051 -30.7617 47.7051 -29.1016 C 47.7051 -28.1738 47.998 -27.4902 48.5352 -26.9043 L 71.582 -3.85742 C 72.3633 -3.07617 73.0957 -2.73438 73.9258 -2.73438 Z"/>
  </g>
  <g id="Thin-L" transform="matrix(1 0 0 1 783.693 1556)">
   <path d="M 72.7051 26.3184 C 106.494 26.3184 134.18 -1.36719 134.18 -35.1074 C 134.18 -68.8965 106.494 -96.582 72.7051 -96.582 C 38.9648 -96.582 11.2793 -68.8965 11.2793 -35.1074 C 11.2793 -1.36719 38.9648 26.3184 72.7051 26.3184 Z M 72.7051 22.3145 C 41.0156 22.3145 15.2832 -3.41797 15.2832 -35.1074 C 15.2832 -66.8457 41.0156 -92.5781 72.7051 -92.5781 C 104.395 -92.5781 130.176 -66.8457 130.176 -35.1074 C 130.176 -3.41797 104.443 22.3145 72.7051 22.3145 Z M 72.7051 -2.7832 C 73.2422 -2.7832 73.6816 -2.97852 74.1211 -3.36914 L 98.4375 -27.7344 C 98.8281 -28.125 99.0234 -28.5156 99.0234 -29.1016 C 99.0234 -30.0781 98.2422 -30.8594 97.168 -30.8594 C 96.6309 -30.8594 96.1914 -30.6641 95.752 -30.1758 L 82.6172 -17.041 L 74.5117 -8.88672 L 74.707 -17.8711 L 74.707 -65.6738 C 74.707 -66.8945 73.9258 -67.6758 72.7051 -67.6758 C 71.582 -67.6758 70.7031 -66.8945 70.7031 -65.6738 L 70.7031 -17.8711 L 70.8984 -8.98438 L 62.8906 -17.041 L 49.7559 -30.1758 C 49.3164 -30.6641 48.9258 -30.8594 48.3398 -30.8594 C 47.2656 -30.8594 46.4844 -30.0781 46.4844 -29.1016 C 46.4844 -28.5156 46.6797 -28.125 47.0703 -27.7344 L 71.3379 -3.36914 C 71.7773 -2.97852 72.2168 -2.7832 72.7051 -2.7832 Z"/>
  </g>
  <g id="Ultralight-L" transform="matrix(1 0 0 1 487.616 1556)">
   <path d="M 72.1191 25.7324 C 105.566 25.7324 132.91 -1.61133 132.91 -35.1074 C 132.91 -68.5547 105.566 -95.8984 72.1191 -95.8984 C 38.623 -95.8984 11.2793 -68.5547 11.2793 -35.1074 C 11.2793 -1.61133 38.623 25.7324 72.1191 25.7324 Z M 72.1191 23.2422 C 39.9414 23.2422 13.7695 -2.97852 13.7695 -35.1074 C 13.7695 -67.2363 39.9414 -93.4082 72.1191 -93.4082 C 104.248 -93.4082 130.42 -67.2363 130.42 -35.1074 C 130.42 -2.97852 104.248 23.2422 72.1191 23.2422 Z M 72.1191 -2.7832 C 72.4121 -2.7832 72.7539 -2.88086 72.998 -3.125 L 97.998 -28.1738 C 98.2422 -28.418 98.3887 -28.6621 98.3887 -29.1016 C 98.3887 -29.7363 97.9004 -30.2246 97.168 -30.2246 C 96.7773 -30.2246 96.5332 -30.0781 96.1426 -29.7363 L 81.8359 -15.4297 L 73.3887 -7.17773 L 73.4863 -15.1367 L 73.4863 -66.3086 C 73.4863 -67.1875 72.998 -67.6758 72.1191 -67.6758 C 71.2891 -67.6758 70.7031 -67.1875 70.7031 -66.3086 L 70.7031 -15.1367 L 70.8496 -7.27539 L 62.4512 -15.4297 L 48.1445 -29.7363 C 47.7539 -30.127 47.5098 -30.2246 47.1191 -30.2246 C 46.3867 -30.2246 45.8984 -29.7363 45.8984 -29.1016 C 45.8984 -28.6621 46.0449 -28.418 46.2891 -28.1738 L 71.1914 -3.125 C 71.4355 -2.92969 71.7773 -2.7832 72.1191 -2.7832 Z"/>
  </g>
  <g id="Black-M" transform="matrix(1 0 0 1 2870.97 1126)">
   <path d="M 62.4023 18.457 C 91.9922 18.457 116.113 -5.61523 116.113 -35.2051 C 116.113 -64.7949 91.9922 -88.8672 62.4023 -88.8672 C 32.8125 -88.8672 8.74023 -64.7949 8.74023 -35.2051 C 8.74023 -5.61523 32.8125 18.457 62.4023 18.457 Z M 62.4023 0.195312 C 42.8711 0.195312 27.002 -15.625 27.002 -35.2051 C 27.002 -54.7363 42.8711 -70.6055 62.4023 -70.6055 C 81.9824 -70.6055 97.8027 -54.7363 97.8027 -35.2051 C 97.8027 -15.625 81.9824 0.195312 62.4023 0.195312 Z M 62.4023 -9.375 C 65.0879 -9.375 67.1875 -10.3027 68.8477 -12.1582 L 84.1797 -28.9551 C 85.6934 -30.6641 86.1816 -31.8848 86.1816 -33.8867 C 86.1816 -37.3535 83.6914 -39.7461 79.9805 -39.7461 C 78.2227 -39.7461 76.3672 -38.916 75.293 -37.5977 L 71.3867 -32.8125 L 69.3359 -29.0039 L 70.1172 -37.5 L 70.1172 -53.9551 C 70.1172 -58.0566 66.6992 -60.9375 62.4023 -60.9375 C 58.1543 -60.9375 54.7363 -58.0566 54.7363 -53.9551 L 54.7363 -37.5 L 55.4688 -29.0039 L 53.4668 -32.5684 L 49.5117 -37.5977 C 48.5352 -38.916 46.6797 -39.7461 44.873 -39.7461 C 41.1621 -39.7461 38.6719 -37.3535 38.6719 -33.8867 C 38.6719 -31.8848 39.1602 -30.6641 40.6738 -28.9551 L 56.0059 -12.1582 C 57.6172 -10.3027 59.7656 -9.375 62.4023 -9.375 Z"/>
  </g>
  <g id="Heavy-M" transform="matrix(1 0 0 1 2575.19 1126)">
   <path d="M 61.5234 17.5781 C 90.5273 17.5781 114.258 -6.15234 114.258 -35.2051 C 114.258 -64.2578 90.5273 -87.9883 61.4746 -87.9883 C 32.4707 -87.9883 8.74023 -64.2578 8.74023 -35.2051 C 8.74023 -6.15234 32.4707 17.5781 61.5234 17.5781 Z M 61.5234 1.66016 C 41.1133 1.66016 24.6582 -14.8438 24.6582 -35.2051 C 24.6582 -55.5664 41.1133 -72.0703 61.4746 -72.0703 C 81.8848 -72.0703 98.3398 -55.5664 98.3398 -35.2051 C 98.3398 -14.8438 81.8848 1.66016 61.5234 1.66016 Z M 61.5234 -9.52148 C 63.7695 -9.52148 65.625 -10.3516 67.0898 -11.9629 L 82.7148 -28.7109 C 84.0332 -30.1758 84.4727 -31.2988 84.4727 -33.1055 C 84.4727 -36.1816 82.1777 -38.3789 78.9062 -38.3789 C 77.2949 -38.3789 75.6836 -37.6465 74.707 -36.4746 L 70.3125 -31.3965 L 67.5781 -27.0508 L 68.2129 -36.0352 L 68.2129 -54.5898 C 68.2129 -58.252 65.2832 -60.791 61.5234 -60.791 C 57.7148 -60.791 54.7852 -58.252 54.7852 -54.5898 L 54.7852 -36.0352 L 55.4199 -27.0996 L 52.7344 -31.2012 L 48.291 -36.4746 C 47.3633 -37.6465 45.752 -38.3789 44.1406 -38.3789 C 40.8203 -38.3789 38.5254 -36.1816 38.5254 -33.1055 C 38.5254 -31.2988 39.0137 -30.1758 40.2832 -28.7109 L 55.9082 -11.9629 C 57.4219 -10.3516 59.2285 -9.52148 61.5234 -9.52148 Z"/>
  </g>
  <g id="Bold-M" transform="matrix(1 0 0 1 2279.5 1126)">
   <path d="M 60.498 16.5039 C 88.8672 16.5039 112.207 -6.78711 112.207 -35.2051 C 112.207 -63.623 88.8672 -86.9629 60.4492 -86.9629 C 32.0312 -86.9629 8.74023 -63.623 8.74023 -35.2051 C 8.74023 -6.78711 32.0801 16.5039 60.498 16.5039 Z M 60.498 3.22266 C 39.1602 3.22266 22.0703 -13.916 22.0703 -35.2051 C 22.0703 -56.4941 39.1602 -73.6816 60.4492 -73.6816 C 81.7383 -73.6816 98.9258 -56.4941 98.9258 -35.2051 C 98.9746 -13.916 81.7871 3.22266 60.498 3.22266 Z M 60.498 -9.7168 C 62.3535 -9.7168 63.8672 -10.4004 65.1367 -11.7676 L 81.0547 -28.418 C 82.1289 -29.5898 82.5684 -30.6641 82.5684 -32.1777 C 82.5684 -34.9121 80.5176 -36.8652 77.6855 -36.8652 C 76.2695 -36.8652 74.9023 -36.2793 74.0723 -35.2539 L 69.0918 -29.7852 L 65.5762 -24.9512 L 66.1621 -34.375 L 66.1621 -55.3223 C 66.1621 -58.4473 63.6719 -60.6445 60.498 -60.6445 C 57.2754 -60.6445 54.834 -58.4473 54.834 -55.3223 L 54.834 -34.375 L 55.3711 -24.9512 L 51.9531 -29.6875 L 46.9238 -35.2539 C 46.0938 -36.2305 44.7266 -36.8652 43.3105 -36.8652 C 40.4297 -36.8652 38.4277 -34.9121 38.4277 -32.1777 C 38.4277 -30.6641 38.8184 -29.5898 39.8926 -28.418 L 55.8594 -11.7676 C 57.1777 -10.4004 58.6426 -9.7168 60.498 -9.7168 Z"/>
  </g>
  <g id="Semibold-M" transform="matrix(1 0 0 1 1983.5 1126)">
   <path d="M 59.7656 15.8203 C 87.7441 15.8203 110.791 -7.22656 110.791 -35.2051 C 110.791 -63.1836 87.6953 -86.2793 59.7656 -86.2793 C 31.7871 -86.2793 8.74023 -63.1836 8.74023 -35.2051 C 8.74023 -7.22656 31.7871 15.8203 59.7656 15.8203 Z M 59.7656 4.3457 C 37.8418 4.3457 20.2637 -13.2812 20.2637 -35.2051 C 20.2637 -57.1289 37.793 -74.8047 59.7656 -74.8047 C 81.6895 -74.8047 99.3164 -57.1289 99.3652 -35.2051 C 99.3652 -13.2812 81.6895 4.3457 59.7656 4.3457 Z M 59.7656 -9.81445 C 61.377 -9.81445 62.6465 -10.4492 63.7695 -11.6699 L 79.9316 -28.2715 C 80.8594 -29.248 81.25 -30.2246 81.25 -31.543 C 81.25 -34.0332 79.3945 -35.791 76.8555 -35.791 C 75.5859 -35.791 74.3652 -35.3027 73.584 -34.375 L 68.2617 -28.7109 L 64.209 -23.4375 L 64.6973 -33.2031 L 64.6973 -55.8105 C 64.6973 -58.5449 62.5977 -60.5469 59.7656 -60.5469 C 56.9824 -60.5469 54.834 -58.5449 54.834 -55.8105 L 54.834 -33.2031 L 55.3223 -23.4863 L 51.3672 -28.6133 L 45.9473 -34.375 C 45.2148 -35.2539 43.9941 -35.791 42.7246 -35.791 C 40.1855 -35.791 38.3301 -34.0332 38.3301 -31.543 C 38.3301 -30.2246 38.7207 -29.248 39.6484 -28.2715 L 55.8105 -11.6699 C 56.9824 -10.4004 58.2031 -9.81445 59.7656 -9.81445 Z"/>
  </g>
  <g id="Medium-M" transform="matrix(1 0 0 1 1687.3 1126)">
   <path d="M 59.2285 15.2832 C 86.9141 15.2832 109.766 -7.56836 109.766 -35.2051 C 109.766 -62.8906 86.8652 -85.7422 59.1797 -85.7422 C 31.543 -85.7422 8.74023 -62.8906 8.74023 -35.2051 C 8.74023 -7.56836 31.5918 15.2832 59.2285 15.2832 Z M 59.2285 5.17578 C 36.8164 5.17578 18.8965 -12.8418 18.8965 -35.2051 C 18.8965 -57.6172 36.8164 -75.6348 59.1797 -75.6348 C 81.5918 -75.6348 99.6094 -57.6172 99.6582 -35.2051 C 99.707 -12.8418 81.6406 5.17578 59.2285 5.17578 Z M 59.2285 -9.91211 C 60.5957 -9.91211 61.7188 -10.4492 62.7441 -11.5723 L 79.1016 -28.125 C 79.8828 -28.9551 80.2734 -29.8828 80.2734 -31.1035 C 80.2734 -33.3496 78.5156 -35.0098 76.2207 -35.0098 C 75.0488 -35.0098 73.9746 -34.5703 73.2422 -33.7402 L 67.627 -27.8809 L 63.1836 -22.3145 L 63.623 -32.373 L 63.623 -56.2012 C 63.623 -58.6914 61.7676 -60.4492 59.2285 -60.4492 C 56.7383 -60.4492 54.8828 -58.6914 54.8828 -56.2012 L 54.8828 -32.373 L 55.3223 -22.3633 L 50.9277 -27.832 L 45.2637 -33.7402 C 44.5312 -34.5215 43.457 -35.0098 42.2852 -35.0098 C 39.9902 -35.0098 38.2812 -33.3496 38.2812 -31.1035 C 38.2812 -29.8828 38.623 -28.9551 39.4043 -28.125 L 55.7617 -11.5723 C 56.8848 -10.4492 57.9102 -9.91211 59.2285 -9.91211 Z"/>
  </g>
  <g id="Regular-M" transform="matrix(1 0 0 1 1391.3 1126)">
   <path d="M 58.5449 14.5508 C 85.791 14.5508 108.35 -8.00781 108.35 -35.2539 C 108.35 -62.4512 85.7422 -85.0586 58.4961 -85.0586 C 31.2988 -85.0586 8.74023 -62.4512 8.74023 -35.2539 C 8.74023 -8.00781 31.3477 14.5508 58.5449 14.5508 Z M 58.5449 6.25 C 35.498 6.25 17.0898 -12.207 17.0898 -35.2539 C 17.0898 -58.252 35.4492 -76.7578 58.4961 -76.7578 C 81.543 -76.7578 100 -58.252 100.049 -35.2539 C 100.098 -12.207 81.5918 6.25 58.5449 6.25 Z M 58.5449 -10.0098 C 59.6191 -10.0098 60.498 -10.498 61.4258 -11.4258 L 77.9785 -27.9297 C 78.6133 -28.5645 78.9551 -29.4434 78.9551 -30.4688 C 78.9551 -32.4707 77.3926 -33.9844 75.3906 -33.9844 C 74.3652 -33.9844 73.4375 -33.5938 72.8027 -32.9102 L 66.7969 -26.8066 L 61.8164 -20.8496 L 62.207 -31.2012 L 62.207 -56.6895 C 62.207 -58.7891 60.6934 -60.3516 58.5449 -60.3516 C 56.4453 -60.3516 54.8828 -58.7891 54.8828 -56.6895 L 54.8828 -31.2012 L 55.2734 -20.9473 L 50.3906 -26.8066 L 44.2871 -32.9102 C 43.6523 -33.5449 42.7734 -33.9844 41.6992 -33.9844 C 39.6973 -33.9844 38.1836 -32.4707 38.1836 -30.4688 C 38.1836 -29.4434 38.4766 -28.5645 39.1602 -27.9297 L 55.7129 -11.4258 C 56.6895 -10.4492 57.5195 -10.0098 58.5449 -10.0098 Z"/>
  </g>
  <g id="Light-M" transform="matrix(1 0 0 1 1095.42 1126)">
   <path d="M 57.7148 13.7695 C 84.5215 13.7695 106.689 -8.39844 106.689 -35.2051 C 106.689 -62.0117 84.5215 -84.1797 57.666 -84.1797 C 30.8594 -84.1797 8.74023 -62.0117 8.74023 -35.2051 C 8.74023 -8.39844 30.9082 13.7695 57.7148 13.7695 Z M 57.7148 7.4707 C 34.082 7.4707 15.0879 -11.5723 15.0879 -35.2051 C 15.0879 -58.8379 34.082 -77.832 57.666 -77.832 C 81.2988 -77.832 100.342 -58.8379 100.391 -35.2051 C 100.391 -11.5723 81.3477 7.4707 57.7148 7.4707 Z M 57.7148 -10.0586 C 58.5449 -10.0586 59.2285 -10.4004 59.9121 -11.084 L 77.3438 -28.5156 C 77.832 -29.0039 78.125 -29.6875 78.125 -30.4688 C 78.125 -31.9824 76.9043 -33.1543 75.3906 -33.1543 C 74.5605 -33.1543 73.877 -32.8613 73.3398 -32.3242 L 65.7227 -24.6582 L 60.3027 -18.6035 L 60.5957 -27.6367 L 60.5957 -57.4707 C 60.5957 -59.1797 59.375 -60.3516 57.7148 -60.3516 C 56.0547 -60.3516 54.8828 -59.1797 54.8828 -57.4707 L 54.8828 -27.6367 L 55.127 -18.6523 L 49.7559 -24.6582 L 42.1387 -32.3242 C 41.6016 -32.8613 40.918 -33.1543 40.0879 -33.1543 C 38.5254 -33.1543 37.3535 -31.9824 37.3535 -30.4688 C 37.3535 -29.6875 37.5977 -29.0039 38.1348 -28.5156 L 55.5664 -11.084 C 56.2988 -10.3516 56.9336 -10.0586 57.7148 -10.0586 Z"/>
  </g>
  <g id="Thin-M" transform="matrix(1 0 0 1 799.806 1126)">
   <path d="M 56.6406 12.7441 C 82.9102 12.7441 104.492 -8.83789 104.492 -35.1562 C 104.492 -61.4746 82.9102 -83.0566 56.5918 -83.0566 C 30.3223 -83.0566 8.74023 -61.4746 8.74023 -35.1562 C 8.74023 -8.83789 30.3223 12.7441 56.6406 12.7441 Z M 56.6406 8.98438 C 32.2266 8.98438 12.4512 -10.791 12.4512 -35.1562 C 12.4512 -59.5215 32.2266 -79.2969 56.5918 -79.2969 C 81.0059 -79.2969 100.781 -59.5215 100.781 -35.1562 C 100.781 -10.791 81.0059 8.98438 56.6406 8.98438 Z M 56.6406 -10.0586 C 57.0801 -10.0586 57.5195 -10.2539 57.9102 -10.6445 L 76.5137 -29.248 C 76.8555 -29.5898 77.002 -29.9316 77.002 -30.4688 C 77.002 -31.3965 76.2695 -32.0801 75.3418 -32.0801 C 74.8047 -32.0801 74.4141 -31.9336 74.0234 -31.4941 L 64.3555 -21.8262 L 58.252 -15.5762 L 58.4473 -22.9004 L 58.4473 -58.5449 C 58.4473 -59.668 57.7148 -60.3516 56.6406 -60.3516 C 55.5664 -60.3516 54.834 -59.668 54.834 -58.5449 L 54.834 -22.9004 L 54.9805 -15.625 L 48.9258 -21.8262 L 39.2578 -31.4941 C 38.8672 -31.8848 38.4766 -32.0801 37.9883 -32.0801 C 37.0117 -32.0801 36.2793 -31.3965 36.2793 -30.4688 C 36.2793 -29.9316 36.4746 -29.5898 36.7676 -29.248 L 55.3223 -10.6445 C 55.7617 -10.2539 56.1523 -10.0586 56.6406 -10.0586 Z"/>
  </g>
  <g id="Ultralight-M" transform="matrix(1 0 0 1 503.656 1126)">
   <path d="M 56.0547 12.207 C 82.0801 12.207 103.369 -9.08203 103.369 -35.1562 C 103.369 -61.1816 82.0801 -82.4707 56.0547 -82.4707 C 30.0293 -82.4707 8.74023 -61.1816 8.74023 -35.1562 C 8.74023 -9.08203 30.0293 12.207 56.0547 12.207 Z M 56.0547 9.81445 C 31.2988 9.81445 11.1328 -10.3516 11.1328 -35.1562 C 11.1328 -59.9121 31.2988 -80.0781 56.0547 -80.0781 C 80.8594 -80.0781 100.977 -59.9121 100.977 -35.1562 C 100.977 -10.3516 80.8594 9.81445 56.0547 9.81445 Z M 56.0547 -10.0586 C 56.3477 -10.0586 56.6406 -10.2051 56.8848 -10.4492 L 76.0742 -29.6387 C 76.3184 -29.8828 76.416 -30.0781 76.416 -30.4688 C 76.416 -31.0547 75.9766 -31.543 75.293 -31.543 C 74.9512 -31.543 74.707 -31.3965 74.4141 -31.1035 L 63.6719 -20.3613 L 57.2266 -14.0137 L 57.3242 -20.459 L 57.3242 -59.1309 C 57.3242 -59.9121 56.8359 -60.4004 56.0547 -60.4004 C 55.3223 -60.4004 54.7852 -59.9121 54.7852 -59.1309 L 54.7852 -20.459 L 54.9316 -14.0625 L 48.5352 -20.3613 L 37.793 -31.1035 C 37.5 -31.3965 37.2559 -31.543 36.8652 -31.543 C 36.2305 -31.543 35.7422 -31.0547 35.7422 -30.4688 C 35.7422 -30.0781 35.8887 -29.8828 36.084 -29.6387 L 55.2246 -10.4492 C 55.4688 -10.2051 55.7617 -10.0586 56.0547 -10.0586 Z"/>
  </g>
  <g id="Black-S" transform="matrix(1 0 0 1 2884.57 696)">
   <path d="M 48.8281 6.78711 C 71.9727 6.78711 90.8203 -12.0605 90.8203 -35.2051 C 90.8203 -58.3496 71.9727 -77.1973 48.8281 -77.1973 C 25.6836 -77.1973 6.83594 -58.3496 6.83594 -35.2051 C 6.83594 -12.0605 25.6836 6.78711 48.8281 6.78711 Z M 48.8281 -7.37305 C 33.4473 -7.37305 20.9961 -19.8242 20.9961 -35.2051 C 20.9961 -50.5859 33.4473 -63.0371 48.8281 -63.0371 C 64.209 -63.0371 76.6602 -50.5859 76.6602 -35.2051 C 76.6602 -19.8242 64.209 -7.37305 48.8281 -7.37305 Z M 48.8281 -14.9902 C 50.8789 -14.9902 52.5391 -15.7227 53.8086 -17.1387 L 65.8203 -30.2734 C 66.9922 -31.5918 67.3828 -32.5684 67.3828 -34.1309 C 67.3828 -36.8164 65.4297 -38.6719 62.5488 -38.6719 C 61.1816 -38.6719 59.7656 -38.0371 58.9355 -37.0117 L 55.8594 -33.252 L 54.1992 -30.2246 L 54.7852 -36.9629 L 54.7852 -49.9512 C 54.7852 -53.125 52.1484 -55.3711 48.8281 -55.3711 C 45.5078 -55.3711 42.8711 -53.125 42.8711 -49.9512 L 42.8711 -36.9629 L 43.457 -30.2246 L 41.8457 -33.0566 L 38.7207 -37.0117 C 37.9395 -38.0371 36.5234 -38.6719 35.1074 -38.6719 C 32.2266 -38.6719 30.2734 -36.8164 30.2734 -34.1309 C 30.2734 -32.5684 30.6641 -31.5918 31.8359 -30.2734 L 43.8477 -17.1387 C 45.1172 -15.7227 46.7773 -14.9902 48.8281 -14.9902 Z"/>
  </g>
  <g id="Heavy-S" transform="matrix(1 0 0 1 2588.47 696)">
   <path d="M 48.2422 6.15234 C 70.9961 6.15234 89.5996 -12.4512 89.5996 -35.2051 C 89.5996 -57.959 70.9961 -76.6113 48.1934 -76.6113 C 25.4395 -76.6113 6.83594 -57.959 6.83594 -35.2051 C 6.83594 -12.4512 25.4395 6.15234 48.2422 6.15234 Z M 48.2422 -6.39648 C 32.2754 -6.39648 19.4336 -19.2871 19.4336 -35.2051 C 19.4336 -51.1719 32.2754 -64.0137 48.1934 -64.0137 C 64.1602 -64.0137 77.002 -51.1719 77.0508 -35.2051 C 77.0508 -19.2871 64.1602 -6.39648 48.2422 -6.39648 Z M 48.2422 -15.0879 C 50 -15.0879 51.4648 -15.7715 52.6367 -17.041 L 64.7949 -30.0293 C 65.8203 -31.1523 66.1621 -32.0801 66.1621 -33.4961 C 66.1621 -35.9863 64.3555 -37.7441 61.7188 -37.7441 C 60.4492 -37.7441 59.1797 -37.1582 58.4473 -36.2305 L 55.127 -32.4219 L 53.0273 -29.0039 L 53.5156 -36.2305 L 53.5156 -50.3418 C 53.5156 -53.2227 51.2207 -55.2734 48.2422 -55.2734 C 45.2637 -55.2734 42.9199 -53.2227 42.9199 -50.3418 L 42.9199 -36.2305 L 43.4082 -29.0039 L 41.3574 -32.2754 L 38.0371 -36.2305 C 37.3047 -37.1582 36.0352 -37.7441 34.7168 -37.7441 C 32.0801 -37.7441 30.2734 -35.9863 30.2734 -33.4961 C 30.2734 -32.0801 30.6641 -31.1523 31.6895 -30.0293 L 43.7988 -17.041 C 45.0195 -15.7715 46.4355 -15.0879 48.2422 -15.0879 Z"/>
  </g>
  <g id="Bold-S" transform="matrix(1 0 0 1 2292.44 696)">
   <path d="M 47.5586 5.46875 C 69.873 5.46875 88.2324 -12.8906 88.2324 -35.2051 C 88.2324 -57.5684 69.873 -75.9277 47.5098 -75.9277 C 25.1953 -75.9277 6.83594 -57.5684 6.83594 -35.2051 C 6.83594 -12.8906 25.1953 5.46875 47.5586 5.46875 Z M 47.5586 -5.32227 C 30.957 -5.32227 17.6758 -18.6523 17.6758 -35.2051 C 17.6758 -51.8066 30.957 -65.1367 47.5098 -65.1367 C 64.1113 -65.1367 77.4414 -51.8066 77.4414 -35.2051 C 77.4414 -18.6523 64.1113 -5.32227 47.5586 -5.32227 Z M 47.5586 -15.2344 C 49.0723 -15.2344 50.2441 -15.8203 51.3184 -16.9434 L 63.623 -29.7363 C 64.4531 -30.7129 64.8438 -31.5918 64.8438 -32.8125 C 64.8438 -35.0586 63.1348 -36.6699 60.791 -36.6699 C 59.668 -36.6699 58.5449 -36.1816 57.8613 -35.3516 L 54.3457 -31.4453 L 51.709 -27.6367 L 52.1484 -35.4004 L 52.1484 -50.7812 C 52.1484 -53.3203 50.1465 -55.127 47.5586 -55.127 C 44.9219 -55.127 42.9199 -53.3203 42.9199 -50.7812 L 42.9199 -35.4004 L 43.4082 -27.6855 L 40.8203 -31.3477 L 37.2559 -35.3516 C 36.5723 -36.1328 35.4492 -36.6699 34.2773 -36.6699 C 31.9336 -36.6699 30.2734 -35.0586 30.2734 -32.8125 C 30.2734 -31.5918 30.6152 -30.7129 31.4941 -29.7363 L 43.7988 -16.9434 C 44.873 -15.7715 46.0449 -15.2344 47.5586 -15.2344 Z"/>
  </g>
  <g id="Semibold-S" transform="matrix(1 0 0 1 1996.2 696)">
   <path d="M 47.0703 4.98047 C 69.0918 4.98047 87.3047 -13.1836 87.3047 -35.2539 C 87.3047 -57.2754 69.0918 -75.4883 47.0215 -75.4883 C 25 -75.4883 6.83594 -57.2754 6.83594 -35.2539 C 6.83594 -13.1836 25.0488 4.98047 47.0703 4.98047 Z M 47.0703 -4.58984 C 30.0781 -4.58984 16.4551 -18.2129 16.4551 -35.2539 C 16.4551 -52.2461 30.0293 -65.8691 47.0215 -65.8691 C 64.0625 -65.8691 77.6855 -52.2461 77.7344 -35.2539 C 77.7344 -18.2129 64.0625 -4.58984 47.0703 -4.58984 Z M 47.0703 -15.332 C 48.3887 -15.332 49.4629 -15.8691 50.4395 -16.8945 L 62.793 -29.5898 C 63.5254 -30.3711 63.916 -31.25 63.916 -32.3242 C 63.916 -34.4238 62.3047 -35.9375 60.2051 -35.9375 C 59.082 -35.9375 58.1055 -35.498 57.4707 -34.7656 L 53.8086 -30.8105 L 50.7812 -26.709 L 51.1719 -34.8145 L 51.1719 -51.123 C 51.1719 -53.418 49.4141 -55.0293 47.0703 -55.0293 C 44.7266 -55.0293 42.9688 -53.418 42.9688 -51.123 L 42.9688 -34.8145 L 43.3594 -26.7578 L 40.4297 -30.7129 L 36.6699 -34.7656 C 36.0352 -35.4492 35.0586 -35.9375 33.9844 -35.9375 C 31.8359 -35.9375 30.2734 -34.4238 30.2734 -32.3242 C 30.2734 -31.25 30.6152 -30.3711 31.3477 -29.5898 L 43.75 -16.8945 C 44.7754 -15.8203 45.8008 -15.332 47.0703 -15.332 Z"/>
  </g>
  <g id="Medium-S" transform="matrix(1 0 0 1 1699.83 696)">
   <path d="M 46.7285 4.63867 C 68.5547 4.63867 86.6211 -13.4277 86.6211 -35.2539 C 86.6211 -57.0312 68.5059 -75.1465 46.6797 -75.1465 C 24.8535 -75.1465 6.83594 -57.0312 6.83594 -35.2539 C 6.83594 -13.4277 24.9023 4.63867 46.7285 4.63867 Z M 46.7285 -4.00391 C 29.3945 -4.00391 15.5273 -17.9199 15.5273 -35.2539 C 15.5273 -52.5879 29.3457 -66.4551 46.6797 -66.4551 C 64.0137 -66.4551 77.8809 -52.5879 77.9297 -35.2539 C 77.9785 -17.9199 64.0625 -4.00391 46.7285 -4.00391 Z M 46.7285 -15.3809 C 47.9004 -15.3809 48.8281 -15.8691 49.7559 -16.7969 L 62.1582 -29.4434 C 62.8418 -30.127 63.1836 -30.957 63.1836 -31.9824 C 63.1836 -33.9355 61.6699 -35.3516 59.7168 -35.3516 C 58.6914 -35.3516 57.7637 -34.9609 57.1777 -34.2773 L 53.3691 -30.2734 L 50.0977 -26.0254 L 50.4395 -34.375 L 50.4395 -51.3184 C 50.4395 -53.4668 48.877 -54.9805 46.7285 -54.9805 C 44.5801 -54.9805 42.9688 -53.4668 42.9688 -51.3184 L 42.9688 -34.375 L 43.3594 -26.0742 L 40.1367 -30.2734 L 36.2793 -34.2773 C 35.6934 -34.9609 34.7656 -35.3516 33.7402 -35.3516 C 31.7383 -35.3516 30.2734 -33.9355 30.2734 -31.9824 C 30.2734 -30.957 30.6152 -30.127 31.25 -29.4434 L 43.75 -16.7969 C 44.7266 -15.8203 45.6055 -15.3809 46.7285 -15.3809 Z"/>
  </g>
  <g id="Regular-S" transform="matrix(1 0 0 1 1403.58 696)">
   <path d="M 46.2402 4.15039 C 67.7734 4.15039 85.6934 -13.7207 85.6934 -35.2539 C 85.6934 -56.7871 67.7246 -74.6582 46.1914 -74.6582 C 24.707 -74.6582 6.83594 -56.7871 6.83594 -35.2539 C 6.83594 -13.7207 24.7559 4.15039 46.2402 4.15039 Z M 46.2402 -3.27148 C 28.5156 -3.27148 14.3555 -17.4805 14.3555 -35.2539 C 14.3555 -53.0273 28.4668 -67.2363 46.1914 -67.2363 C 63.9648 -67.2363 78.1738 -53.0273 78.2227 -35.2539 C 78.2715 -17.4805 64.0137 -3.27148 46.2402 -3.27148 Z M 46.2402 -15.4785 C 47.2656 -15.4785 47.998 -15.918 48.8281 -16.748 L 61.377 -29.248 C 61.9629 -29.7852 62.2559 -30.6152 62.2559 -31.4941 C 62.2559 -33.3008 60.8398 -34.6191 59.082 -34.6191 C 58.1543 -34.6191 57.3242 -34.3262 56.7871 -33.6914 L 52.832 -29.6387 L 49.1699 -25.0977 L 49.5117 -33.8379 L 49.5117 -51.6602 C 49.5117 -53.5156 48.1445 -54.8828 46.2402 -54.8828 C 44.3848 -54.8828 43.0176 -53.5156 43.0176 -51.6602 L 43.0176 -33.8379 L 43.3594 -25.1465 L 39.7461 -29.6387 L 35.7422 -33.6914 C 35.1562 -34.2773 34.375 -34.6191 33.4473 -34.6191 C 31.6406 -34.6191 30.2734 -33.3008 30.2734 -31.4941 C 30.2734 -30.6152 30.5664 -29.7852 31.1523 -29.248 L 43.7012 -16.748 C 44.6289 -15.8691 45.3125 -15.4785 46.2402 -15.4785 Z"/>
  </g>
  <g id="Light-S" transform="matrix(1 0 0 1 1107.6 696)">
   <path d="M 45.5078 3.4668 C 66.6992 3.4668 84.2285 -14.0625 84.2285 -35.2051 C 84.2285 -56.3965 66.6504 -73.9258 45.5078 -73.9258 C 24.3164 -73.9258 6.83594 -56.3965 6.83594 -35.2051 C 6.83594 -14.0625 24.3652 3.4668 45.5078 3.4668 Z M 45.5078 -2.24609 C 27.2461 -2.24609 12.5977 -16.9434 12.5977 -35.2051 C 12.5977 -53.5156 27.1973 -68.2129 45.5078 -68.2129 C 63.7695 -68.2129 78.4668 -53.5156 78.5156 -35.2051 C 78.5156 -16.9434 63.8184 -2.24609 45.5078 -2.24609 Z M 45.5078 -15.4785 C 46.2891 -15.4785 46.875 -15.8203 47.5098 -16.4551 L 60.8398 -29.7363 C 61.2793 -30.1758 61.5234 -30.8105 61.5234 -31.4941 C 61.5234 -32.8613 60.4492 -33.9355 59.0332 -33.9355 C 58.3008 -33.9355 57.7148 -33.6426 57.2266 -33.1543 L 51.9043 -27.7344 L 47.8027 -23.0469 L 48.0469 -30.6641 L 48.0469 -52.3438 C 48.0469 -53.8574 47.0215 -54.8828 45.5078 -54.8828 C 44.043 -54.8828 42.9688 -53.8574 42.9688 -52.3438 L 42.9688 -30.6641 L 43.2617 -23.0957 L 39.209 -27.7344 L 33.8379 -33.1543 C 33.3496 -33.6426 32.7637 -33.9355 32.0312 -33.9355 C 30.6152 -33.9355 29.5898 -32.8613 29.5898 -31.4941 C 29.5898 -30.8105 29.7852 -30.1758 30.2246 -29.7363 L 43.5547 -16.4551 C 44.2383 -15.7715 44.8242 -15.4785 45.5078 -15.4785 Z"/>
  </g>
  <g id="Thin-S" transform="matrix(1 0 0 1 811.867 696)">
   <path d="M 44.5801 2.53906 C 65.2832 2.53906 82.2754 -14.4531 82.2754 -35.2051 C 82.2754 -55.9082 65.2344 -72.9004 44.5312 -72.9004 C 23.8281 -72.9004 6.83594 -55.9082 6.83594 -35.2051 C 6.83594 -14.4531 23.877 2.53906 44.5801 2.53906 Z M 44.5801 -0.878906 C 25.5859 -0.878906 10.2539 -16.2109 10.2539 -35.2051 C 10.2539 -54.1504 25.5859 -69.4824 44.5312 -69.4824 C 63.5254 -69.4824 78.8574 -54.1504 78.8574 -35.2051 C 78.8574 -16.2109 63.5254 -0.878906 44.5801 -0.878906 Z M 44.5801 -15.5273 C 45.0195 -15.5273 45.3613 -15.7227 45.752 -16.0645 L 60.1074 -30.3711 C 60.4004 -30.6641 60.5469 -31.0547 60.5469 -31.4941 C 60.5469 -32.3242 59.8633 -32.959 59.0332 -32.959 C 58.5449 -32.959 58.2031 -32.8125 57.8613 -32.4707 L 50.6836 -25.2441 L 45.9961 -20.4102 L 46.1914 -26.4648 L 46.1914 -53.3203 C 46.1914 -54.248 45.5078 -54.9316 44.5801 -54.9316 C 43.6523 -54.9316 42.9688 -54.248 42.9688 -53.3203 L 42.9688 -26.4648 L 43.1152 -20.459 L 38.4766 -25.2441 L 31.2988 -32.4707 C 30.957 -32.8125 30.6152 -32.959 30.127 -32.959 C 29.2969 -32.959 28.6133 -32.3242 28.6133 -31.4941 C 28.6133 -31.0547 28.7598 -30.6641 29.0527 -30.3711 L 43.4082 -16.0645 C 43.75 -15.6738 44.1406 -15.5273 44.5801 -15.5273 Z"/>
  </g>
  <g id="Ultralight-S" transform="matrix(1 0 0 1 515.644 696)">
   <path d="M 44.043 2.05078 C 64.502 2.05078 81.2988 -14.6973 81.2988 -35.1562 C 81.2988 -55.6152 64.502 -72.3633 44.043 -72.3633 C 23.584 -72.3633 6.83594 -55.6152 6.83594 -35.1562 C 6.83594 -14.6973 23.584 2.05078 44.043 2.05078 Z M 44.043 -0.146484 C 24.7559 -0.146484 9.08203 -15.8691 9.08203 -35.1562 C 9.08203 -54.4434 24.7559 -70.166 44.043 -70.166 C 63.3789 -70.166 79.0527 -54.4434 79.0527 -35.1562 C 79.0527 -15.8691 63.3789 -0.146484 44.043 -0.146484 Z M 44.043 -15.5273 C 44.3359 -15.5273 44.6289 -15.625 44.8242 -15.8691 L 59.7168 -30.7129 C 59.9121 -30.957 60.0098 -31.1523 60.0098 -31.4941 C 60.0098 -32.0312 59.5703 -32.4707 58.9844 -32.4707 C 58.6426 -32.4707 58.4473 -32.373 58.2031 -32.1289 L 50.0488 -23.9746 L 45.0684 -18.9941 L 45.2148 -24.3164 L 45.2148 -53.8086 C 45.2148 -54.4922 44.7754 -54.9316 44.043 -54.9316 C 43.4082 -54.9316 42.9199 -54.4922 42.9199 -53.8086 L 42.9199 -24.3164 L 43.0176 -19.043 L 38.1348 -23.9746 L 29.9805 -32.1289 C 29.7363 -32.373 29.4922 -32.4707 29.1992 -32.4707 C 28.5645 -32.4707 28.125 -32.0312 28.125 -31.4941 C 28.125 -31.1523 28.2227 -30.957 28.4668 -30.7129 L 43.2617 -15.8691 C 43.5059 -15.625 43.7988 -15.5273 44.043 -15.5273 Z"/>
  </g>
 </g>
</svg>
