<?xml version="1.0" encoding="UTF-8"?>
<!--Generator: Apple Native CoreSVG 123-->
<!DOCTYPE svg
PUBLIC "-//W3C//DTD SVG 1.1//EN"
       "http://www.w3.org/Graphics/SVG/1.1/DTD/svg11.dtd">
<svg version="1.1" xmlns="http://www.w3.org/2000/svg" xmlns:xlink="http://www.w3.org/1999/xlink" width="3300" height="2200">
 <!--glyph: "uni10058A.medium", point size: 100.000000, font version: "Version 15.0d7e11", template writer version: "5"-->
 <g id="Notes">
  <rect height="2200" id="artboard" style="fill:white;opacity:1" width="3300" x="0" y="0"/>
  <line id="" style="fill:none;stroke:black;opacity:1;stroke-width:0.5;" x1="263" x2="3036" y1="292" y2="292"/>
  <text style="stroke:none;fill:black;font-family:-apple-system,&quot;SF Pro Display&quot;,&quot;SF Pro Text&quot;,Helvetica,sans-serif;font-weight:bold;" transform="matrix(1 0 0 1 263 322)">Weight/Scale Variations</text>
  <text style="stroke:none;fill:black;font-family:-apple-system,&quot;SF Pro Display&quot;,&quot;SF Pro Text&quot;,Helvetica,sans-serif;text-anchor:middle;" transform="matrix(1 0 0 1 559.711 322)">Ultralight</text>
  <text style="stroke:none;fill:black;font-family:-apple-system,&quot;SF Pro Display&quot;,&quot;SF Pro Text&quot;,Helvetica,sans-serif;text-anchor:middle;" transform="matrix(1 0 0 1 856.422 322)">Thin</text>
  <text style="stroke:none;fill:black;font-family:-apple-system,&quot;SF Pro Display&quot;,&quot;SF Pro Text&quot;,Helvetica,sans-serif;text-anchor:middle;" transform="matrix(1 0 0 1 1153.13 322)">Light</text>
  <text style="stroke:none;fill:black;font-family:-apple-system,&quot;SF Pro Display&quot;,&quot;SF Pro Text&quot;,Helvetica,sans-serif;text-anchor:middle;" transform="matrix(1 0 0 1 1449.84 322)">Regular</text>
  <text style="stroke:none;fill:black;font-family:-apple-system,&quot;SF Pro Display&quot;,&quot;SF Pro Text&quot;,Helvetica,sans-serif;text-anchor:middle;" transform="matrix(1 0 0 1 1746.56 322)">Medium</text>
  <text style="stroke:none;fill:black;font-family:-apple-system,&quot;SF Pro Display&quot;,&quot;SF Pro Text&quot;,Helvetica,sans-serif;text-anchor:middle;" transform="matrix(1 0 0 1 2043.27 322)">Semibold</text>
  <text style="stroke:none;fill:black;font-family:-apple-system,&quot;SF Pro Display&quot;,&quot;SF Pro Text&quot;,Helvetica,sans-serif;text-anchor:middle;" transform="matrix(1 0 0 1 2339.98 322)">Bold</text>
  <text style="stroke:none;fill:black;font-family:-apple-system,&quot;SF Pro Display&quot;,&quot;SF Pro Text&quot;,Helvetica,sans-serif;text-anchor:middle;" transform="matrix(1 0 0 1 2636.69 322)">Heavy</text>
  <text style="stroke:none;fill:black;font-family:-apple-system,&quot;SF Pro Display&quot;,&quot;SF Pro Text&quot;,Helvetica,sans-serif;text-anchor:middle;" transform="matrix(1 0 0 1 2933.4 322)">Black</text>
  <line id="" style="fill:none;stroke:black;opacity:1;stroke-width:0.5;" x1="263" x2="3036" y1="1903" y2="1903"/>
  <g id="" transform="matrix(1 0 0 1 263 1933)">
   <path d="M 9.24805 0.830078 C 13.5547 0.830078 17.1387 -2.74414 17.1387 -7.05078 C 17.1387 -11.3574 13.5449 -14.9316 9.23828 -14.9316 C 4.94141 -14.9316 1.36719 -11.3574 1.36719 -7.05078 C 1.36719 -2.74414 4.95117 0.830078 9.24805 0.830078 Z M 9.24805 -0.654297 C 5.70312 -0.654297 2.87109 -3.49609 2.87109 -7.05078 C 2.87109 -10.6055 5.69336 -13.4473 9.23828 -13.4473 C 12.793 -13.4473 15.6348 -10.6055 15.6445 -7.05078 C 15.6543 -3.49609 12.8027 -0.654297 9.24805 -0.654297 Z M 9.22852 -3.42773 C 9.69727 -3.42773 9.9707 -3.74023 9.9707 -4.25781 L 9.9707 -6.31836 L 12.1973 -6.31836 C 12.6953 -6.31836 13.0371 -6.57227 13.0371 -7.04102 C 13.0371 -7.51953 12.7148 -7.7832 12.1973 -7.7832 L 9.9707 -7.7832 L 9.9707 -10.0098 C 9.9707 -10.5273 9.69727 -10.8496 9.22852 -10.8496 C 8.75977 -10.8496 8.50586 -10.5078 8.50586 -10.0098 L 8.50586 -7.7832 L 6.29883 -7.7832 C 5.78125 -7.7832 5.44922 -7.51953 5.44922 -7.04102 C 5.44922 -6.57227 5.80078 -6.31836 6.29883 -6.31836 L 8.50586 -6.31836 L 8.50586 -4.25781 C 8.50586 -3.75977 8.75977 -3.42773 9.22852 -3.42773 Z"/>
  </g>
  <g id="" transform="matrix(1 0 0 1 281.506 1933)">
   <path d="M 11.709 2.91016 C 17.1582 2.91016 21.6699 -1.60156 21.6699 -7.05078 C 21.6699 -12.4902 17.1484 -17.0117 11.6992 -17.0117 C 6.25977 -17.0117 1.74805 -12.4902 1.74805 -7.05078 C 1.74805 -1.60156 6.26953 2.91016 11.709 2.91016 Z M 11.709 1.25 C 7.09961 1.25 3.41797 -2.44141 3.41797 -7.05078 C 3.41797 -11.6504 7.08984 -15.3516 11.6992 -15.3516 C 16.3086 -15.3516 20 -11.6504 20.0098 -7.05078 C 20.0195 -2.44141 16.3184 1.25 11.709 1.25 Z M 11.6895 -2.41211 C 12.207 -2.41211 12.5195 -2.77344 12.5195 -3.33984 L 12.5195 -6.23047 L 15.5762 -6.23047 C 16.123 -6.23047 16.5039 -6.51367 16.5039 -7.03125 C 16.5039 -7.55859 16.1426 -7.86133 15.5762 -7.86133 L 12.5195 -7.86133 L 12.5195 -10.9277 C 12.5195 -11.5039 12.207 -11.8555 11.6895 -11.8555 C 11.1719 -11.8555 10.8789 -11.4844 10.8789 -10.9277 L 10.8789 -7.86133 L 7.83203 -7.86133 C 7.26562 -7.86133 6.89453 -7.55859 6.89453 -7.03125 C 6.89453 -6.51367 7.28516 -6.23047 7.83203 -6.23047 L 10.8789 -6.23047 L 10.8789 -3.33984 C 10.8789 -2.79297 11.1719 -2.41211 11.6895 -2.41211 Z"/>
  </g>
  <g id="" transform="matrix(1 0 0 1 304.924 1933)">
   <path d="M 14.9707 5.67383 C 21.9336 5.67383 27.6953 -0.078125 27.6953 -7.04102 C 27.6953 -14.0039 21.9238 -19.7559 14.9609 -19.7559 C 8.00781 -19.7559 2.25586 -14.0039 2.25586 -7.04102 C 2.25586 -0.078125 8.01758 5.67383 14.9707 5.67383 Z M 14.9707 3.85742 C 8.93555 3.85742 4.08203 -1.00586 4.08203 -7.04102 C 4.08203 -13.0762 8.92578 -17.9395 14.9609 -17.9395 C 21.0059 -17.9395 25.8594 -13.0762 25.8691 -7.04102 C 25.8789 -1.00586 21.0156 3.85742 14.9707 3.85742 Z M 14.9512 -1.06445 C 15.5176 -1.06445 15.8691 -1.45508 15.8691 -2.06055 L 15.8691 -6.13281 L 20.1074 -6.13281 C 20.6934 -6.13281 21.1133 -6.46484 21.1133 -7.02148 C 21.1133 -7.59766 20.7227 -7.93945 20.1074 -7.93945 L 15.8691 -7.93945 L 15.8691 -12.1875 C 15.8691 -12.8027 15.5176 -13.1934 14.9512 -13.1934 C 14.3848 -13.1934 14.0625 -12.7832 14.0625 -12.1875 L 14.0625 -7.93945 L 9.83398 -7.93945 C 9.21875 -7.93945 8.80859 -7.59766 8.80859 -7.02148 C 8.80859 -6.46484 9.23828 -6.13281 9.83398 -6.13281 L 14.0625 -6.13281 L 14.0625 -2.06055 C 14.0625 -1.47461 14.3848 -1.06445 14.9512 -1.06445 Z"/>
  </g>
  <text style="stroke:none;fill:black;font-family:-apple-system,&quot;SF Pro Display&quot;,&quot;SF Pro Text&quot;,Helvetica,sans-serif;font-weight:bold;" transform="matrix(1 0 0 1 263 1953)">Design Variations</text>
  <text style="stroke:none;fill:black;font-family:-apple-system,&quot;SF Pro Display&quot;,&quot;SF Pro Text&quot;,Helvetica,sans-serif;" transform="matrix(1 0 0 1 263 1971)">Symbols are supported in up to nine weights and three scales.</text>
  <text style="stroke:none;fill:black;font-family:-apple-system,&quot;SF Pro Display&quot;,&quot;SF Pro Text&quot;,Helvetica,sans-serif;" transform="matrix(1 0 0 1 263 1989)">For optimal layout with text and other symbols, vertically align</text>
  <text style="stroke:none;fill:black;font-family:-apple-system,&quot;SF Pro Display&quot;,&quot;SF Pro Text&quot;,Helvetica,sans-serif;" transform="matrix(1 0 0 1 263 2007)">symbols with the adjacent text.</text>
  <rect height="14" id="" style="fill:#00AEEF;stroke:none;opacity:0.4;" width="3" x="776" y="1919"/>
  <g id="" transform="matrix(1 0 0 1 779 1933)">
   <path d="M 10.5273 0 L 12.373 0 L 7.17773 -14.0918 L 5.43945 -14.0918 L 0.244141 0 L 2.08984 0 L 3.50586 -4.0332 L 9.11133 -4.0332 Z M 6.2793 -11.9531 L 6.33789 -11.9531 L 8.59375 -5.52734 L 4.02344 -5.52734 Z"/>
  </g>
  <rect height="14" id="" style="fill:#00AEEF;stroke:none;opacity:0.4;" width="3" x="791.617" y="1919"/>
  <text style="stroke:none;fill:black;font-family:-apple-system,&quot;SF Pro Display&quot;,&quot;SF Pro Text&quot;,Helvetica,sans-serif;font-weight:bold;" transform="matrix(1 0 0 1 776 1953)">Margins</text>
  <text style="stroke:none;fill:black;font-family:-apple-system,&quot;SF Pro Display&quot;,&quot;SF Pro Text&quot;,Helvetica,sans-serif;" transform="matrix(1 0 0 1 776 1971)">Leading and trailing margins on the left and right side of each symbol</text>
  <text style="stroke:none;fill:black;font-family:-apple-system,&quot;SF Pro Display&quot;,&quot;SF Pro Text&quot;,Helvetica,sans-serif;" transform="matrix(1 0 0 1 776 1989)">can be adjusted by modifying the width of the blue rectangles.</text>
  <text style="stroke:none;fill:black;font-family:-apple-system,&quot;SF Pro Display&quot;,&quot;SF Pro Text&quot;,Helvetica,sans-serif;" transform="matrix(1 0 0 1 776 2007)">Modifications are automatically applied proportionally to all</text>
  <text style="stroke:none;fill:black;font-family:-apple-system,&quot;SF Pro Display&quot;,&quot;SF Pro Text&quot;,Helvetica,sans-serif;" transform="matrix(1 0 0 1 776 2025)">scales and weights.</text>
  <g id="" transform="matrix(1 0 0 1 1289 1933)">
   <path d="M 2.83203 3.11523 L 4.375 4.6582 C 5.22461 5.48828 6.19141 5.41992 7.06055 4.46289 L 17.2754 -6.66016 C 17.7051 -6.36719 18.0957 -6.37695 18.5645 -6.47461 L 19.6094 -6.68945 L 20.3027 -5.99609 L 20.2539 -5.47852 C 20.1855 -4.95117 20.3516 -4.53125 20.8496 -4.0332 L 21.6602 -3.22266 C 22.168 -2.71484 22.8223 -2.68555 23.3008 -3.16406 L 26.5527 -6.41602 C 27.0312 -6.89453 27.0117 -7.54883 26.5039 -8.05664 L 25.6836 -8.87695 C 25.1855 -9.375 24.7754 -9.55078 24.2383 -9.47266 L 23.7109 -9.41406 L 23.0566 -10.0781 L 23.3398 -11.2207 C 23.4863 -11.7871 23.3398 -12.2559 22.7148 -12.8613 L 20.3027 -15.2539 C 16.7578 -18.7793 12.2266 -18.6719 9.11133 -15.5371 C 8.69141 -15.1074 8.64258 -14.5215 8.91602 -14.0918 C 9.15039 -13.7207 9.62891 -13.4961 10.2734 -13.6621 C 11.7871 -14.043 13.3008 -13.9258 14.7852 -12.9199 L 14.1602 -11.3379 C 13.9258 -10.752 13.9453 -10.2734 14.1797 -9.83398 L 3.01758 0.439453 C 2.08008 1.30859 1.97266 2.25586 2.83203 3.11523 Z M 10.6738 -15.1465 C 13.3398 -17.1387 16.6504 -16.8262 19.0527 -14.4141 L 21.6797 -11.8066 C 21.9141 -11.5723 21.9434 -11.3867 21.8848 -11.0938 L 21.5039 -9.53125 L 23.0762 -7.95898 L 24.043 -8.04688 C 24.3262 -8.07617 24.4141 -8.05664 24.6387 -7.83203 L 25.2637 -7.20703 L 22.5098 -4.46289 L 21.8848 -5.07812 C 21.6602 -5.30273 21.6406 -5.40039 21.6699 -5.68359 L 21.7578 -6.64062 L 20.1953 -8.20312 L 18.5742 -7.89062 C 18.291 -7.83203 18.1445 -7.83203 17.9102 -8.07617 L 15.7324 -10.2539 C 15.5078 -10.4883 15.4785 -10.625 15.6055 -10.9473 L 16.5527 -13.2227 C 14.9512 -14.7559 12.8418 -15.6055 10.8008 -14.9512 C 10.7129 -14.9219 10.6445 -14.9414 10.6152 -14.9805 C 10.5859 -15.0293 10.5859 -15.0781 10.6738 -15.1465 Z M 4.10156 2.41211 C 3.61328 1.91406 3.78906 1.61133 4.12109 1.30859 L 15.0781 -8.80859 L 16.3086 -7.57812 L 6.15234 3.34961 C 5.84961 3.68164 5.46875 3.7793 5.06836 3.37891 Z"/>
  </g>
  <text style="stroke:none;fill:black;font-family:-apple-system,&quot;SF Pro Display&quot;,&quot;SF Pro Text&quot;,Helvetica,sans-serif;font-weight:bold;" transform="matrix(1 0 0 1 1289 1953)">Exporting</text>
  <text style="stroke:none;fill:black;font-family:-apple-system,&quot;SF Pro Display&quot;,&quot;SF Pro Text&quot;,Helvetica,sans-serif;" transform="matrix(1 0 0 1 1289 1971)">Symbols should be outlined when exporting to ensure the</text>
  <text style="stroke:none;fill:black;font-family:-apple-system,&quot;SF Pro Display&quot;,&quot;SF Pro Text&quot;,Helvetica,sans-serif;" transform="matrix(1 0 0 1 1289 1989)">design is preserved when submitting to Xcode.</text>
  <text id="template-version" style="stroke:none;fill:black;font-family:-apple-system,&quot;SF Pro Display&quot;,&quot;SF Pro Text&quot;,Helvetica,sans-serif;text-anchor:end;" transform="matrix(1 0 0 1 3036 1933)">Template v.1.0</text>
  <text style="stroke:none;fill:black;font-family:-apple-system,&quot;SF Pro Display&quot;,&quot;SF Pro Text&quot;,Helvetica,sans-serif;text-anchor:end;" transform="matrix(1 0 0 1 3036 1951)">Generated from arrow.2.circlepath.circle</text>
  <text style="stroke:none;fill:black;font-family:-apple-system,&quot;SF Pro Display&quot;,&quot;SF Pro Text&quot;,Helvetica,sans-serif;text-anchor:end;" transform="matrix(1 0 0 1 3036 1969)">Typeset at 100 points</text>
  <text style="stroke:none;fill:black;font-family:-apple-system,&quot;SF Pro Display&quot;,&quot;SF Pro Text&quot;,Helvetica,sans-serif;" transform="matrix(1 0 0 1 263 726)">Small</text>
  <text style="stroke:none;fill:black;font-family:-apple-system,&quot;SF Pro Display&quot;,&quot;SF Pro Text&quot;,Helvetica,sans-serif;" transform="matrix(1 0 0 1 263 1156)">Medium</text>
  <text style="stroke:none;fill:black;font-family:-apple-system,&quot;SF Pro Display&quot;,&quot;SF Pro Text&quot;,Helvetica,sans-serif;" transform="matrix(1 0 0 1 263 1586)">Large</text>
 </g>
 <g id="Guides">
  <g id="H-reference" style="fill:#27AAE1;stroke:none;" transform="matrix(1 0 0 1 339 696)">
   <path d="M 54.9316 0 L 57.666 0 L 30.5664 -70.459 L 28.0762 -70.459 L 0.976562 0 L 3.66211 0 L 12.9395 -24.4629 L 45.7031 -24.4629 Z M 29.1992 -67.0898 L 29.4434 -67.0898 L 44.8242 -26.709 L 13.8184 -26.709 Z"/>
  </g>
  <line id="Baseline-S" style="fill:none;stroke:#27AAE1;opacity:1;stroke-width:0.577;" x1="263" x2="3036" y1="696" y2="696"/>
  <line id="Capline-S" style="fill:none;stroke:#27AAE1;opacity:1;stroke-width:0.577;" x1="263" x2="3036" y1="625.541" y2="625.541"/>
  <g id="H-reference" style="fill:#27AAE1;stroke:none;" transform="matrix(1 0 0 1 339 1126)">
   <path d="M 54.9316 0 L 57.666 0 L 30.5664 -70.459 L 28.0762 -70.459 L 0.976562 0 L 3.66211 0 L 12.9395 -24.4629 L 45.7031 -24.4629 Z M 29.1992 -67.0898 L 29.4434 -67.0898 L 44.8242 -26.709 L 13.8184 -26.709 Z"/>
  </g>
  <line id="Baseline-M" style="fill:none;stroke:#27AAE1;opacity:1;stroke-width:0.577;" x1="263" x2="3036" y1="1126" y2="1126"/>
  <line id="Capline-M" style="fill:none;stroke:#27AAE1;opacity:1;stroke-width:0.577;" x1="263" x2="3036" y1="1055.54" y2="1055.54"/>
  <g id="H-reference" style="fill:#27AAE1;stroke:none;" transform="matrix(1 0 0 1 339 1556)">
   <path d="M 54.9316 0 L 57.666 0 L 30.5664 -70.459 L 28.0762 -70.459 L 0.976562 0 L 3.66211 0 L 12.9395 -24.4629 L 45.7031 -24.4629 Z M 29.1992 -67.0898 L 29.4434 -67.0898 L 44.8242 -26.709 L 13.8184 -26.709 Z"/>
  </g>
  <line id="Baseline-L" style="fill:none;stroke:#27AAE1;opacity:1;stroke-width:0.577;" x1="263" x2="3036" y1="1556" y2="1556"/>
  <line id="Capline-L" style="fill:none;stroke:#27AAE1;opacity:1;stroke-width:0.577;" x1="263" x2="3036" y1="1485.54" y2="1485.54"/>
  <rect height="119.336" id="left-margin" style="fill:#00AEEF;stroke:none;opacity:0.4;" width="8.74023" x="1391.3" y="1030.79"/>
  <rect height="119.336" id="right-margin" style="fill:#00AEEF;stroke:none;opacity:0.4;" width="8.74023" x="1499.65" y="1030.79"/>
 </g>
 <g id="Symbols">
  <g id="Black-L" transform="matrix(1 0 0 1 2854.05 1556)">
   <path d="M 79.3457 32.8613 C 116.748 32.8613 147.412 2.19727 147.412 -35.2051 C 147.412 -72.6074 116.748 -103.271 79.2969 -103.271 C 41.8945 -103.271 11.2793 -72.6074 11.2793 -35.2051 C 11.2793 2.19727 41.9434 32.8613 79.3457 32.8613 Z M 79.3457 12.4023 C 52.9785 12.4023 31.7383 -8.83789 31.7383 -35.2051 C 31.7383 -61.5723 52.9297 -82.8125 79.2969 -82.8125 C 105.664 -82.8125 126.953 -61.5723 126.953 -35.2051 C 127.002 -8.83789 105.713 12.4023 79.3457 12.4023 Z M 100.537 -22.7051 C 102.539 -20.1172 106.006 -20.0195 108.057 -22.7051 L 117.578 -35.2539 C 119.824 -38.1836 118.506 -41.8945 114.893 -41.8945 L 110.693 -41.8945 C 107.764 -56.4941 95.1172 -66.9434 79.3945 -66.9434 C 72.7051 -66.9434 67.1387 -65.1367 62.8418 -62.207 C 59.082 -59.6191 58.4961 -55.7617 60.3027 -52.9785 C 62.207 -50 65.6738 -48.6328 69.5801 -51.0742 C 72.7051 -53.125 75.7812 -54.0527 79.3945 -54.0527 C 87.7441 -54.0527 94.6777 -49.1211 97.4609 -41.8945 L 93.5059 -41.8945 C 89.8926 -41.8945 88.5742 -38.1836 90.8691 -35.2539 Z M 43.7988 -28.5645 L 48.0957 -28.5645 C 51.0254 -13.9648 63.7207 -3.51562 79.4434 -3.51562 C 86.084 -3.51562 91.6504 -5.32227 95.9473 -8.25195 C 99.7559 -10.791 100.342 -14.6484 98.5352 -17.4805 C 96.582 -20.459 93.1152 -21.8262 89.2578 -19.3848 C 86.084 -17.334 83.0078 -16.3574 79.4434 -16.3574 C 71.0449 -16.3574 64.1113 -21.3379 61.377 -28.5645 L 65.1855 -28.5645 C 68.7988 -28.5645 70.0684 -32.2754 67.8223 -35.2051 L 58.1543 -47.7539 C 56.1523 -50.3418 52.6855 -50.3906 50.6348 -47.7539 L 41.1133 -35.2051 C 38.8672 -32.2754 40.1855 -28.5645 43.7988 -28.5645 Z"/>
  </g>
  <g id="Heavy-L" transform="matrix(1 0 0 1 2558.39 1556)">
   <path d="M 78.2715 31.7871 C 115.088 31.7871 145.312 1.61133 145.312 -35.2051 C 145.312 -72.0215 115.039 -102.197 78.2715 -102.197 C 41.4551 -102.197 11.2793 -72.0215 11.2793 -35.2051 C 11.2793 1.61133 41.5039 31.7871 78.2715 31.7871 Z M 78.2715 14.0137 C 51.0254 14.0137 29.0527 -7.95898 29.0527 -35.2051 C 29.0527 -62.5 50.9766 -84.4727 78.2715 -84.4727 C 105.518 -84.4727 127.49 -62.5 127.539 -35.2051 C 127.539 -7.95898 105.566 14.0137 78.2715 14.0137 Z M 100.928 -22.6562 C 102.832 -20.1172 106.104 -20.0195 108.057 -22.6562 L 117.627 -35.498 C 119.678 -38.1836 118.555 -41.6016 115.186 -41.6016 L 110.449 -41.6016 C 107.471 -56.8359 94.5312 -67.627 78.3203 -67.627 C 71.3867 -67.627 65.2344 -65.5762 60.5957 -62.207 C 57.1289 -59.7656 56.543 -56.1523 58.3496 -53.5156 C 60.2539 -50.7324 63.4766 -49.8047 66.9922 -52.0508 C 70.6055 -54.5898 74.1211 -55.8105 78.3203 -55.8105 C 87.8418 -55.8105 95.6543 -49.9512 98.4375 -41.6016 L 93.6523 -41.6016 C 90.2832 -41.6016 89.1602 -38.1836 91.2109 -35.498 Z M 41.4062 -28.9062 L 46.2891 -28.9062 C 49.2676 -13.6719 62.207 -2.88086 78.418 -2.88086 C 85.3516 -2.88086 91.5039 -4.93164 96.1426 -8.30078 C 99.6094 -10.7422 100.195 -14.3555 98.3887 -16.9922 C 96.4844 -19.7266 93.2617 -20.7031 89.7461 -18.4082 C 86.1328 -15.918 82.6172 -14.6973 78.418 -14.6973 C 68.8965 -14.6973 61.084 -20.5566 58.3008 -28.9062 L 62.8906 -28.9062 C 66.2598 -28.9062 67.3828 -32.3242 65.332 -35.0098 L 55.6641 -47.8516 C 53.7109 -50.3906 50.4883 -50.4883 48.4863 -47.8516 L 38.9648 -35.0098 C 36.9141 -32.3242 38.0371 -28.9062 41.4062 -28.9062 Z"/>
  </g>
  <g id="Bold-L" transform="matrix(1 0 0 1 2262.88 1556)">
   <path d="M 77.0996 30.6152 C 113.232 30.6152 142.92 0.878906 142.92 -35.2051 C 142.92 -71.3379 113.184 -101.025 77.0508 -101.025 C 40.9668 -101.025 11.2793 -71.3379 11.2793 -35.2051 C 11.2793 0.878906 41.0156 30.6152 77.0996 30.6152 Z M 77.0996 15.8691 C 48.8281 15.8691 26.0742 -6.93359 26.0742 -35.2051 C 26.0742 -63.4766 48.7793 -86.2793 77.0508 -86.2793 C 105.371 -86.2793 128.125 -63.4766 128.174 -35.2051 C 128.174 -6.93359 105.371 15.8691 77.0996 15.8691 Z M 77.1973 -68.457 C 69.873 -68.457 63.0859 -66.0645 58.1055 -62.207 C 54.9316 -59.8633 54.3457 -56.543 56.2012 -54.1504 C 58.1055 -51.6113 61.0352 -51.123 64.0625 -53.1738 C 68.2129 -56.25 72.2168 -57.7637 77.1973 -57.7637 C 87.8906 -57.7637 96.7285 -50.8301 99.4629 -41.2598 L 93.8477 -41.2598 C 90.7715 -41.2598 89.7949 -38.2324 91.6504 -35.7422 L 101.367 -22.5586 C 103.174 -20.1172 106.25 -20.0195 108.105 -22.5586 L 117.676 -35.7422 C 119.531 -38.2324 118.604 -41.2598 115.479 -41.2598 L 110.107 -41.2598 C 107.178 -57.2266 93.8965 -68.457 77.1973 -68.457 Z M 38.7207 -29.2969 L 44.3359 -29.2969 C 47.2656 -13.3301 60.5469 -2.09961 77.2461 -2.09961 C 84.5703 -2.09961 91.3574 -4.49219 96.2891 -8.34961 C 99.5117 -10.6934 100.049 -14.0625 98.2422 -16.4551 C 96.3379 -18.9453 93.3594 -19.4336 90.332 -17.3828 C 86.2305 -14.3066 82.1777 -12.793 77.2461 -12.793 C 66.5039 -12.793 57.666 -19.7266 54.9316 -29.2969 L 60.3516 -29.2969 C 63.4277 -29.2969 64.4043 -32.373 62.5488 -34.8145 L 52.832 -47.998 C 51.0254 -50.4395 47.998 -50.5371 46.0938 -47.998 L 36.5234 -34.8145 C 34.7168 -32.3242 35.5957 -29.2969 38.7207 -29.2969 Z"/>
  </g>
  <g id="Semibold-L" transform="matrix(1 0 0 1 1966.97 1556)">
   <path d="M 76.2695 29.7852 C 111.914 29.7852 141.309 0.439453 141.309 -35.2051 C 141.309 -70.8496 111.865 -100.244 76.2695 -100.244 C 40.625 -100.244 11.2793 -70.8496 11.2793 -35.2051 C 11.2793 0.439453 40.6738 29.7852 76.2695 29.7852 Z M 76.2695 17.0898 C 47.3145 17.0898 24.0234 -6.25 24.0234 -35.2051 C 24.0234 -64.209 47.2656 -87.5 76.2695 -87.5 C 105.225 -87.5 128.564 -64.209 128.613 -35.2051 C 128.662 -6.25 105.273 17.0898 76.2695 17.0898 Z M 76.3672 -68.9941 C 68.7988 -68.9941 61.5723 -66.4062 56.3965 -62.207 C 53.418 -59.9121 52.832 -56.7871 54.6875 -54.541 C 56.5918 -52.2461 59.375 -52.0508 62.1094 -53.9551 C 66.5527 -57.4219 70.9473 -59.1309 76.3672 -59.1309 C 87.9395 -59.1309 97.5098 -51.4648 100.195 -41.0645 L 93.9941 -41.0645 C 91.0645 -41.0645 90.2832 -38.2324 91.9434 -35.9375 L 101.66 -22.5098 C 103.418 -20.166 106.299 -20.0195 108.105 -22.5098 L 117.676 -35.9375 C 119.385 -38.2324 118.604 -41.0645 115.674 -41.0645 L 109.863 -41.0645 C 106.934 -57.5195 93.457 -68.9941 76.3672 -68.9941 Z M 36.8652 -29.541 L 42.9199 -29.541 C 45.8496 -13.0859 59.375 -1.61133 76.4648 -1.61133 C 83.9844 -1.61133 91.2598 -4.19922 96.4355 -8.39844 C 99.4141 -10.6934 99.9512 -13.8184 98.1445 -16.0645 C 96.2402 -18.3594 93.457 -18.5547 90.7227 -16.6504 C 86.2793 -13.1836 81.8848 -11.4746 76.4648 -11.4746 C 64.8926 -11.4746 55.3223 -19.1406 52.6367 -29.541 L 58.5938 -29.541 C 61.4746 -29.541 62.3047 -32.373 60.6445 -34.668 L 50.9277 -48.0957 C 49.1699 -50.4395 46.2891 -50.5859 44.4824 -48.0957 L 34.8633 -34.668 C 33.2031 -32.373 33.9844 -29.541 36.8652 -29.541 Z"/>
  </g>
  <g id="Medium-L" transform="matrix(1 0 0 1 1670.87 1556)">
   <path d="M 75.6836 29.1992 C 110.938 29.1992 140.088 0.0488281 140.088 -35.2051 C 140.088 -70.459 110.889 -99.6094 75.6348 -99.6094 C 40.3809 -99.6094 11.2793 -70.459 11.2793 -35.2051 C 11.2793 0.0488281 40.3809 29.1992 75.6836 29.1992 Z M 75.6836 18.0664 C 46.1426 18.0664 22.4609 -5.71289 22.4609 -35.2051 C 22.4609 -64.6973 46.1426 -88.4766 75.6348 -88.4766 C 105.127 -88.4766 128.906 -64.6973 128.906 -35.2051 C 128.955 -5.71289 105.176 18.0664 75.6836 18.0664 Z M 75.7812 -69.4336 C 68.0176 -69.4336 60.4492 -66.6992 55.0781 -62.207 C 52.2461 -60.0098 51.709 -56.9824 53.5645 -54.8828 C 55.4688 -52.6855 58.1055 -52.7344 60.5957 -54.4922 C 65.2832 -58.3008 69.9219 -60.1562 75.7812 -60.1562 C 87.9883 -60.1562 98.0469 -51.9043 100.732 -40.918 L 94.0918 -40.918 C 91.3086 -40.918 90.5762 -38.2324 92.1875 -36.084 L 101.904 -22.5098 C 103.564 -20.166 106.396 -20.0195 108.105 -22.5098 L 117.725 -36.084 C 119.336 -38.2812 118.652 -40.918 115.869 -40.918 L 109.717 -40.918 C 106.787 -57.7148 93.0664 -69.4336 75.7812 -69.4336 Z M 35.498 -29.7363 L 41.8945 -29.7363 C 44.8242 -12.8906 58.5449 -1.2207 75.8301 -1.2207 C 83.5938 -1.2207 91.1621 -3.95508 96.5332 -8.44727 C 99.3652 -10.6445 99.9023 -13.623 98.0469 -15.7715 C 96.1426 -17.9688 93.5547 -17.9199 91.0645 -16.1133 C 86.3281 -12.3535 81.6895 -10.498 75.8301 -10.498 C 63.623 -10.498 53.5645 -18.75 50.8789 -29.7363 L 57.2754 -29.7363 C 60.0098 -29.7363 60.7422 -32.4219 59.1797 -34.5703 L 49.4629 -48.1445 C 47.7539 -50.4883 44.9707 -50.5859 43.2129 -48.1445 L 33.6426 -34.5703 C 32.0312 -32.373 32.7148 -29.7363 35.498 -29.7363 Z"/>
  </g>
  <g id="Regular-L" transform="matrix(1 0 0 1 1374.97 1556)">
   <path d="M 74.8535 28.3691 C 109.668 28.3691 138.477 -0.390625 138.477 -35.2051 C 138.477 -70.0195 109.619 -98.7793 74.8047 -98.7793 C 40.0391 -98.7793 11.2793 -70.0195 11.2793 -35.2051 C 11.2793 -0.390625 40.0879 28.3691 74.8535 28.3691 Z M 74.8535 19.2871 C 44.6777 19.2871 20.4102 -5.0293 20.4102 -35.2051 C 20.4102 -65.3809 44.6289 -89.6973 74.8047 -89.6973 C 105.029 -89.6973 129.297 -65.3809 129.346 -35.2051 C 129.395 -5.0293 105.078 19.2871 74.8535 19.2871 Z M 74.9512 -69.9707 C 66.9922 -69.9707 58.9844 -67.041 53.3691 -62.207 C 50.7812 -60.0586 50.2441 -57.2754 52.0996 -55.2734 C 54.0039 -53.2715 56.3965 -53.6133 58.5938 -55.2734 C 63.6719 -59.4238 68.6523 -61.4746 74.9512 -61.4746 C 88.0371 -61.4746 98.7793 -52.4902 101.416 -40.6738 L 94.1895 -40.6738 C 91.6504 -40.6738 91.0156 -38.2324 92.4316 -36.2793 L 102.197 -22.4609 C 103.809 -20.166 106.445 -20.0195 108.154 -22.4609 L 117.773 -36.2793 C 119.189 -38.2812 118.652 -40.6738 116.064 -40.6738 L 109.521 -40.6738 C 106.543 -58.0078 92.627 -69.9707 74.9512 -69.9707 Z M 33.6914 -29.9805 L 40.5273 -29.9805 C 43.457 -12.6465 57.373 -0.683594 75.0488 -0.683594 C 83.0566 -0.683594 91.0645 -3.66211 96.6309 -8.49609 C 99.2676 -10.5957 99.8047 -13.4277 97.9492 -15.3809 C 96.0449 -17.3828 93.6035 -17.0898 91.4551 -15.4297 C 86.377 -11.2305 81.3477 -9.17969 75.0488 -9.17969 C 62.0117 -9.17969 51.2207 -18.1641 48.6328 -29.9805 L 55.5176 -29.9805 C 58.1055 -29.9805 58.6914 -32.4219 57.2754 -34.4238 L 47.5586 -48.2422 C 45.9473 -50.5371 43.2617 -50.6348 41.6016 -48.2422 L 31.9824 -34.4238 C 30.5176 -32.373 31.0547 -29.9805 33.6914 -29.9805 Z"/>
  </g>
  <g id="Light-L" transform="matrix(1 0 0 1 1079.18 1556)">
   <path d="M 73.9258 27.4902 C 108.301 27.4902 136.621 -0.830078 136.621 -35.1562 C 136.621 -69.5312 108.252 -97.8516 73.9258 -97.8516 C 39.5508 -97.8516 11.2793 -69.5312 11.2793 -35.1562 C 11.2793 -0.830078 39.5996 27.4902 73.9258 27.4902 Z M 73.9258 20.6055 C 43.1152 20.6055 18.2129 -4.3457 18.2129 -35.1562 C 18.2129 -66.0156 43.0664 -90.918 73.9258 -90.918 C 104.736 -90.918 129.688 -66.0156 129.736 -35.1562 C 129.736 -4.3457 104.785 20.6055 73.9258 20.6055 Z M 74.0234 -69.043 C 65.8691 -69.043 57.666 -65.8203 51.9043 -60.5469 C 49.8535 -58.7891 49.5117 -56.6406 50.9766 -55.127 C 52.4414 -53.6133 54.248 -53.8574 56.0059 -55.2246 C 61.8164 -60.2539 67.4316 -62.4512 74.0234 -62.4512 C 87.7441 -62.4512 98.877 -52.9297 101.27 -40.0879 L 93.9453 -40.0879 C 91.8457 -40.0879 91.3086 -38.1348 92.4805 -36.5234 L 101.562 -23.2422 C 103.076 -21.0449 105.371 -20.9961 106.934 -23.2422 L 115.869 -36.5234 C 117.09 -38.2324 116.65 -40.0879 114.551 -40.0879 L 107.568 -40.0879 C 104.834 -57.2754 91.2109 -69.043 74.0234 -69.043 Z M 33.3496 -30.5176 L 40.4785 -30.5176 C 43.2617 -13.2812 56.8359 -1.51367 74.0723 -1.51367 C 82.1777 -1.51367 90.3809 -4.73633 96.1426 -10.0098 C 98.1934 -11.7676 98.5352 -13.9648 97.1191 -15.4297 C 95.6055 -16.9434 93.7988 -16.6992 92.041 -15.332 C 86.2793 -10.3027 80.6152 -8.10547 74.0723 -8.10547 C 60.3516 -8.10547 49.2188 -17.6758 46.7773 -30.5176 L 53.9551 -30.5176 C 56.0547 -30.5176 56.5918 -32.4219 55.4199 -34.0332 L 46.3379 -47.3145 C 44.8242 -49.5117 42.4805 -49.5605 40.9668 -47.3145 L 31.9824 -34.0332 C 30.8105 -32.373 31.2012 -30.5176 33.3496 -30.5176 Z"/>
  </g>
  <g id="Thin-L" transform="matrix(1 0 0 1 783.693 1556)">
   <path d="M 72.7051 26.3184 C 106.494 26.3184 134.18 -1.36719 134.18 -35.1074 C 134.18 -68.8965 106.494 -96.582 72.7051 -96.582 C 38.9648 -96.582 11.2793 -68.8965 11.2793 -35.1074 C 11.2793 -1.36719 38.9648 26.3184 72.7051 26.3184 Z M 72.7051 22.3145 C 41.0156 22.3145 15.2832 -3.41797 15.2832 -35.1074 C 15.2832 -66.8457 41.0156 -92.5781 72.7051 -92.5781 C 104.395 -92.5781 130.176 -66.8457 130.176 -35.1074 C 130.176 -3.41797 104.443 22.3145 72.7051 22.3145 Z M 72.7539 -67.8223 C 64.4043 -67.8223 55.957 -64.2578 50 -58.3496 C 48.6816 -57.1289 48.584 -55.7617 49.4629 -54.9316 C 50.4395 -54.0527 51.416 -54.1504 52.6367 -55.2246 C 59.375 -61.377 65.8203 -63.7695 72.7539 -63.7695 C 87.3047 -63.7695 98.877 -53.4668 101.123 -39.2578 L 93.5547 -39.2578 C 92.0898 -39.2578 91.6992 -38.0371 92.4805 -36.8652 L 100.684 -24.3164 C 102.1 -22.168 103.955 -22.2168 105.322 -24.3164 L 113.428 -36.8652 C 114.307 -38.0859 114.014 -39.2578 112.5 -39.2578 L 105.029 -39.2578 C 102.539 -56.2988 89.3555 -67.8223 72.7539 -67.8223 Z M 32.959 -31.1523 L 40.4297 -31.1523 C 42.9688 -14.1113 56.1523 -2.58789 72.7539 -2.58789 C 81.0547 -2.58789 89.502 -6.20117 95.5078 -12.0605 C 96.8262 -13.3301 96.875 -14.6484 95.9961 -15.4785 C 95.0684 -16.3574 94.043 -16.2598 92.8711 -15.1855 C 86.1328 -9.08203 79.6387 -6.64062 72.7539 -6.64062 C 58.1543 -6.64062 46.582 -16.9434 44.3359 -31.1523 L 51.8555 -31.1523 C 53.3203 -31.1523 53.7598 -32.373 52.9297 -33.5449 L 44.7754 -46.1426 C 43.3594 -48.2422 41.4551 -48.1934 40.1367 -46.1426 L 32.0312 -33.5449 C 31.1523 -32.3242 31.3965 -31.1523 32.959 -31.1523 Z"/>
  </g>
  <g id="Ultralight-L" transform="matrix(1 0 0 1 487.616 1556)">
   <path d="M 72.1191 25.7324 C 105.566 25.7324 132.91 -1.61133 132.91 -35.1074 C 132.91 -68.5547 105.566 -95.8984 72.1191 -95.8984 C 38.623 -95.8984 11.2793 -68.5547 11.2793 -35.1074 C 11.2793 -1.61133 38.623 25.7324 72.1191 25.7324 Z M 72.1191 23.2422 C 39.9414 23.2422 13.7695 -2.97852 13.7695 -35.1074 C 13.7695 -67.2363 39.9414 -93.4082 72.1191 -93.4082 C 104.248 -93.4082 130.42 -67.2363 130.42 -35.1074 C 130.42 -2.97852 104.248 23.2422 72.1191 23.2422 Z M 72.0703 -67.2363 C 63.6719 -67.2363 55.0781 -63.4277 49.0234 -57.2266 C 48.0469 -56.25 48.1445 -55.3223 48.7305 -54.834 C 49.3652 -54.2969 50 -54.3457 50.8789 -55.2246 C 58.1055 -61.9141 64.9902 -64.4531 72.0703 -64.4531 C 87.1094 -64.4531 98.877 -53.8086 101.025 -38.8672 L 93.3594 -38.8672 C 92.2363 -38.8672 91.8945 -37.9883 92.5293 -37.0605 L 100.244 -24.8535 C 101.611 -22.7539 103.271 -22.8516 104.492 -24.8535 L 112.158 -37.0605 C 112.891 -38.0371 112.695 -38.8672 111.475 -38.8672 L 103.76 -38.8672 C 101.318 -55.8105 88.3789 -67.2363 72.0703 -67.2363 Z M 32.7148 -31.4941 L 40.4297 -31.4941 C 42.8223 -14.502 55.7617 -3.125 72.0703 -3.125 C 80.4688 -3.125 89.0625 -6.93359 95.166 -13.0859 C 96.0938 -14.1113 96.0449 -15.0391 95.459 -15.4785 C 94.7754 -16.0645 94.1895 -16.0156 93.2617 -15.1367 C 86.0352 -8.44727 79.1504 -5.85938 72.0703 -5.85938 C 57.0801 -5.85938 45.2637 -16.5527 43.1152 -31.4941 L 50.8301 -31.4941 C 51.9531 -31.4941 52.3438 -32.373 51.6602 -33.3008 L 43.9453 -45.5078 C 42.5781 -47.5586 40.918 -47.4609 39.6973 -45.5078 L 32.0312 -33.3008 C 31.2988 -32.2754 31.4941 -31.4941 32.7148 -31.4941 Z"/>
  </g>
  <g id="Black-M" transform="matrix(1 0 0 1 2870.97 1126)">
   <path d="M 62.4023 18.457 C 91.9922 18.457 116.113 -5.61523 116.113 -35.2051 C 116.113 -64.7949 91.9922 -88.8672 62.4023 -88.8672 C 32.8125 -88.8672 8.74023 -64.7949 8.74023 -35.2051 C 8.74023 -5.61523 32.8125 18.457 62.4023 18.457 Z M 62.4023 0.195312 C 42.8711 0.195312 27.002 -15.625 27.002 -35.2051 C 27.002 -54.7363 42.8711 -70.6055 62.4023 -70.6055 C 81.9824 -70.6055 97.8027 -54.7363 97.8027 -35.2051 C 97.8027 -15.625 81.9824 0.195312 62.4023 0.195312 Z M 77.0508 -26.0254 C 78.6621 -23.9746 81.3965 -23.9746 83.0566 -26.0254 L 90.0391 -35.0586 C 91.9434 -37.4512 90.7227 -40.4297 87.8418 -40.4297 L 85.1562 -40.4297 C 82.959 -50.8301 73.7305 -58.3008 62.4023 -58.3008 C 57.5684 -58.3008 53.9551 -57.1777 50.9277 -55.2734 C 47.9492 -53.3203 47.5586 -50.3418 48.7305 -48.1445 C 50 -45.8008 52.6855 -44.1895 56.0547 -46.1914 C 58.252 -47.5586 60.3516 -47.998 62.4023 -47.998 C 67.8223 -47.998 72.168 -45.0684 74.1699 -40.4297 L 72.0703 -40.4297 C 69.2383 -40.4297 68.0176 -37.4512 69.9219 -35.0586 Z M 36.9629 -29.8828 L 39.6484 -29.8828 C 41.8457 -19.5312 51.0742 -12.0117 62.4023 -12.0117 C 67.2363 -12.0117 70.8496 -13.1836 73.877 -15.0879 C 76.9043 -16.9922 77.2461 -19.9707 76.0742 -22.168 C 74.8047 -24.5605 72.1191 -26.123 68.7988 -24.1211 C 66.5527 -22.8027 64.4531 -22.3145 62.4023 -22.3145 C 57.0312 -22.3145 52.6367 -25.2441 50.6348 -29.8828 L 52.7344 -29.8828 C 55.6152 -29.8828 56.7871 -32.9102 54.9316 -35.2539 L 47.8027 -44.2871 C 46.1426 -46.3867 43.4082 -46.3867 41.7969 -44.2871 L 34.7656 -35.2539 C 32.9102 -32.9102 34.082 -29.8828 36.9629 -29.8828 Z"/>
  </g>
  <g id="Heavy-M" transform="matrix(1 0 0 1 2575.19 1126)">
   <path d="M 61.5234 17.5781 C 90.5273 17.5781 114.258 -6.15234 114.258 -35.2051 C 114.258 -64.2578 90.5273 -87.9883 61.4746 -87.9883 C 32.4707 -87.9883 8.74023 -64.2578 8.74023 -35.2051 C 8.74023 -6.15234 32.4707 17.5781 61.5234 17.5781 Z M 61.5234 1.66016 C 41.1133 1.66016 24.6582 -14.8438 24.6582 -35.2051 C 24.6582 -55.5664 41.1133 -72.0703 61.4746 -72.0703 C 81.8848 -72.0703 98.3398 -55.5664 98.3398 -35.2051 C 98.3398 -14.8438 81.8848 1.66016 61.5234 1.66016 Z M 77.6367 -25.7324 C 79.1992 -23.7305 81.8359 -23.7305 83.3984 -25.7324 L 90.5762 -35.2539 C 92.334 -37.5 91.3086 -40.2832 88.5742 -40.2832 L 85.3516 -40.2832 C 83.1055 -51.416 73.4863 -59.375 61.5234 -59.375 C 56.3965 -59.375 52.1973 -57.959 48.877 -55.6641 C 46.0449 -53.7598 45.6055 -50.8789 46.9238 -48.7793 C 48.291 -46.5332 50.8789 -45.4102 53.8574 -47.2656 C 56.3965 -48.9258 58.8379 -49.6582 61.5234 -49.6582 C 67.9199 -49.6582 73.1934 -45.8984 75.293 -40.2832 L 72.3633 -40.2832 C 69.6289 -40.2832 68.6035 -37.5 70.3125 -35.2539 Z M 34.4727 -30.127 L 37.6953 -30.127 C 39.9414 -18.9941 49.6094 -11.0352 61.5234 -11.0352 C 66.6504 -11.0352 70.8984 -12.4512 74.2188 -14.7461 C 77.0508 -16.6504 77.4414 -19.5312 76.1719 -21.6309 C 74.7559 -23.877 72.2168 -25 69.1895 -23.1445 C 66.6504 -21.4844 64.2578 -20.752 61.5234 -20.752 C 55.127 -20.752 49.9023 -24.5117 47.8027 -30.127 L 50.6348 -30.127 C 53.3691 -30.127 54.4434 -32.9102 52.6855 -35.1562 L 45.3613 -44.6777 C 43.7988 -46.6797 41.2109 -46.6797 39.5996 -44.6777 L 32.4219 -35.1562 C 30.6641 -32.9102 31.7383 -30.127 34.4727 -30.127 Z"/>
  </g>
  <g id="Bold-M" transform="matrix(1 0 0 1 2279.5 1126)">
   <path d="M 60.498 16.5039 C 88.8672 16.5039 112.207 -6.78711 112.207 -35.2051 C 112.207 -63.623 88.8672 -86.9629 60.4492 -86.9629 C 32.0312 -86.9629 8.74023 -63.623 8.74023 -35.2051 C 8.74023 -6.78711 32.0801 16.5039 60.498 16.5039 Z M 60.498 3.22266 C 39.1602 3.22266 22.0703 -13.916 22.0703 -35.2051 C 22.0703 -56.4941 39.1602 -73.6816 60.4492 -73.6816 C 81.7383 -73.6816 98.9258 -56.4941 98.9258 -35.2051 C 98.9746 -13.916 81.7871 3.22266 60.498 3.22266 Z M 78.3203 -25.4395 C 79.7852 -23.4863 82.2754 -23.4375 83.7891 -25.4395 L 91.1621 -35.4492 C 92.7734 -37.5488 91.8945 -40.1367 89.3555 -40.1367 L 85.5469 -40.1367 C 83.3008 -52.0508 73.1934 -60.498 60.5469 -60.498 C 55.0781 -60.498 50.1953 -58.8379 46.582 -56.1523 C 43.8965 -54.248 43.457 -51.5137 44.873 -49.5117 C 46.3867 -47.4121 48.8281 -46.7773 51.4648 -48.4863 C 54.3457 -50.5371 57.1289 -51.5137 60.5469 -51.5137 C 68.0664 -51.5137 74.3164 -46.7773 76.4648 -40.1367 L 72.6074 -40.1367 C 70.0684 -40.1367 69.1895 -37.5488 70.752 -35.4492 Z M 31.6406 -30.3711 L 35.5469 -30.3711 C 37.8418 -18.457 47.9492 -10.0098 60.5957 -10.0098 C 66.0156 -10.0098 70.8984 -11.6699 74.5605 -14.3555 C 77.1973 -16.2598 77.6367 -18.9941 76.2207 -20.9961 C 74.7559 -23.0957 72.2656 -23.7305 69.6289 -22.0215 C 66.7969 -19.9707 63.9648 -18.9941 60.5957 -18.9941 C 53.0273 -18.9941 46.7773 -23.7305 44.6289 -30.3711 L 48.3398 -30.3711 C 50.8789 -30.3711 51.7578 -32.959 50.1953 -35.0586 L 42.6758 -45.0684 C 41.2109 -47.0215 38.6719 -47.0703 37.207 -45.0684 L 29.7852 -35.0586 C 28.2227 -32.959 29.0527 -30.3711 31.6406 -30.3711 Z"/>
  </g>
  <g id="Semibold-M" transform="matrix(1 0 0 1 1983.5 1126)">
   <path d="M 59.7656 15.8203 C 87.7441 15.8203 110.791 -7.22656 110.791 -35.2051 C 110.791 -63.1836 87.6953 -86.2793 59.7656 -86.2793 C 31.7871 -86.2793 8.74023 -63.1836 8.74023 -35.2051 C 8.74023 -7.22656 31.7871 15.8203 59.7656 15.8203 Z M 59.7656 4.3457 C 37.8418 4.3457 20.2637 -13.2812 20.2637 -35.2051 C 20.2637 -57.1289 37.793 -74.8047 59.7656 -74.8047 C 81.6895 -74.8047 99.3164 -57.1289 99.3652 -35.2051 C 99.3652 -13.2812 81.6895 4.3457 59.7656 4.3457 Z M 78.7598 -25.2441 C 80.1758 -23.3398 82.5684 -23.2422 84.0332 -25.2441 L 91.6016 -35.6445 C 93.0664 -37.5488 92.334 -39.9902 89.8926 -39.9902 L 85.6934 -39.9902 C 83.3984 -52.4902 72.9492 -61.2793 59.8633 -61.2793 C 54.1504 -61.2793 48.8281 -59.4727 44.9707 -56.4941 C 42.4316 -54.5898 41.9434 -51.9531 43.457 -50 C 45.0195 -47.998 47.4121 -47.7051 49.8047 -49.3164 C 52.8809 -51.6113 55.957 -52.7832 59.8633 -52.7832 C 68.2129 -52.7832 75.0977 -47.3633 77.2461 -39.9902 L 72.8027 -39.9902 C 70.3613 -39.9902 69.6289 -37.5488 71.0938 -35.6445 Z M 29.6875 -30.5664 L 34.0332 -30.5664 C 36.377 -18.0664 46.7773 -9.27734 59.9121 -9.27734 C 65.5762 -9.27734 70.9473 -11.084 74.7559 -14.1113 C 77.3438 -15.9668 77.7832 -18.6523 76.2695 -20.5566 C 74.707 -22.5586 72.3633 -22.9004 69.9707 -21.2891 C 66.8457 -18.9453 63.8184 -17.7734 59.9121 -17.7734 C 51.5625 -17.7734 44.6289 -23.1934 42.4805 -30.5664 L 46.7285 -30.5664 C 49.1699 -30.5664 49.9023 -33.0078 48.4863 -34.9609 L 40.7715 -45.3125 C 39.4043 -47.2168 36.9629 -47.3145 35.498 -45.3125 L 27.9785 -34.9609 C 26.5137 -33.0078 27.1973 -30.5664 29.6875 -30.5664 Z"/>
  </g>
  <g id="Medium-M" transform="matrix(1 0 0 1 1687.3 1126)">
   <path d="M 59.2285 15.2832 C 86.9141 15.2832 109.766 -7.56836 109.766 -35.2051 C 109.766 -62.8906 86.8652 -85.7422 59.1797 -85.7422 C 31.543 -85.7422 8.74023 -62.8906 8.74023 -35.2051 C 8.74023 -7.56836 31.5918 15.2832 59.2285 15.2832 Z M 59.2285 5.17578 C 36.8164 5.17578 18.8965 -12.8418 18.8965 -35.2051 C 18.8965 -57.6172 36.8164 -75.6348 59.1797 -75.6348 C 81.5918 -75.6348 99.6094 -57.6172 99.6582 -35.2051 C 99.707 -12.8418 81.6406 5.17578 59.2285 5.17578 Z M 79.1016 -25.0977 C 80.4688 -23.2422 82.8125 -23.0957 84.2285 -25.0977 L 91.8945 -35.7422 C 93.2617 -37.5977 92.6758 -39.8926 90.2832 -39.8926 L 85.791 -39.8926 C 83.4473 -52.8809 72.8027 -61.9141 59.3262 -61.9141 C 53.4668 -61.9141 47.8027 -59.9609 43.75 -56.7383 C 41.3086 -54.8828 40.8203 -52.2461 42.3828 -50.3906 C 44.043 -48.4375 46.3379 -48.3887 48.5352 -49.9512 C 51.8066 -52.4414 55.0781 -53.7598 59.3262 -53.7598 C 68.2617 -53.7598 75.7324 -47.8027 77.8809 -39.8926 L 72.998 -39.8926 C 70.6055 -39.8926 69.9707 -37.5977 71.3379 -35.7422 Z M 28.2227 -30.7129 L 32.9102 -30.7129 C 35.2539 -17.7734 45.8984 -8.74023 59.4238 -8.74023 C 65.2832 -8.74023 70.9473 -10.6934 74.9512 -13.916 C 77.3926 -15.7715 77.9297 -18.3594 76.3184 -20.2637 C 74.707 -22.168 72.3633 -22.2168 70.2148 -20.7031 C 66.8945 -18.2129 63.6719 -16.8945 59.4238 -16.8945 C 50.4395 -16.8945 43.0176 -22.8027 40.8691 -30.7129 L 45.5078 -30.7129 C 47.9004 -30.7129 48.5352 -33.0566 47.168 -34.8633 L 39.3555 -45.5566 C 38.0371 -47.4121 35.6934 -47.5098 34.2285 -45.5566 L 26.5625 -34.8633 C 25.1953 -33.0078 25.8301 -30.7129 28.2227 -30.7129 Z"/>
  </g>
  <g id="Regular-M" transform="matrix(1 0 0 1 1391.3 1126)">
   <path d="M 58.5449 14.5508 C 85.791 14.5508 108.35 -8.00781 108.35 -35.2539 C 108.35 -62.4512 85.7422 -85.0586 58.4961 -85.0586 C 31.2988 -85.0586 8.74023 -62.4512 8.74023 -35.2539 C 8.74023 -8.00781 31.3477 14.5508 58.5449 14.5508 Z M 58.5449 6.25 C 35.498 6.25 17.0898 -12.207 17.0898 -35.2539 C 17.0898 -58.252 35.4492 -76.7578 58.4961 -76.7578 C 81.543 -76.7578 100 -58.252 100.049 -35.2539 C 100.098 -12.207 81.5918 6.25 58.5449 6.25 Z M 79.5898 -24.8535 C 80.8594 -23.0469 83.1055 -22.9004 84.5215 -24.8535 L 92.334 -35.8887 C 93.6035 -37.6465 93.1152 -39.7949 90.8203 -39.7949 L 85.9375 -39.7949 C 83.5449 -53.3203 72.6074 -62.6953 58.6426 -62.6953 C 52.5391 -62.6953 46.4355 -60.5469 42.1875 -57.0312 C 39.8438 -55.2246 39.3066 -52.6855 41.0156 -50.8789 C 42.7246 -49.0234 44.9219 -49.3164 46.875 -50.7812 C 50.3906 -53.5156 53.9062 -54.9805 58.6426 -54.9805 C 68.3594 -54.9805 76.5137 -48.3887 78.6133 -39.7949 L 73.1445 -39.7949 C 70.8984 -39.7949 70.4102 -37.6465 71.6309 -35.8887 Z M 26.2695 -30.9082 L 31.4453 -30.9082 C 33.8379 -17.3828 44.7754 -8.00781 58.7402 -8.00781 C 64.8438 -8.00781 70.9473 -10.1074 75.1953 -13.623 C 77.5391 -15.4785 78.0762 -18.0176 76.3672 -19.8242 C 74.6582 -21.6797 72.4609 -21.3379 70.5078 -19.9219 C 66.9922 -17.1875 63.4766 -15.6738 58.7402 -15.6738 C 49.0234 -15.6738 40.8691 -22.2656 38.7695 -30.9082 L 43.9453 -30.9082 C 46.1914 -30.9082 46.6797 -33.0566 45.459 -34.8145 L 37.5488 -45.8008 C 36.2305 -47.6562 33.9844 -47.7539 32.5684 -45.8008 L 24.7559 -34.8145 C 23.5352 -33.0566 23.9746 -30.9082 26.2695 -30.9082 Z"/>
  </g>
  <g id="Light-M" transform="matrix(1 0 0 1 1095.42 1126)">
   <path d="M 57.7148 13.7695 C 84.5215 13.7695 106.689 -8.39844 106.689 -35.2051 C 106.689 -62.0117 84.5215 -84.1797 57.666 -84.1797 C 30.8594 -84.1797 8.74023 -62.0117 8.74023 -35.2051 C 8.74023 -8.39844 30.9082 13.7695 57.7148 13.7695 Z M 57.7148 7.4707 C 34.082 7.4707 15.0879 -11.5723 15.0879 -35.2051 C 15.0879 -58.8379 34.082 -77.832 57.666 -77.832 C 81.2988 -77.832 100.342 -58.8379 100.391 -35.2051 C 100.391 -11.5723 81.3477 7.4707 57.7148 7.4707 Z M 79.0039 -25.5859 C 80.2246 -23.8281 82.1777 -23.7793 83.3984 -25.5859 L 90.625 -36.1328 C 91.6992 -37.5488 91.3086 -39.2578 89.4531 -39.2578 L 84.2285 -39.2578 C 82.0312 -52.6367 71.3379 -61.8652 57.7637 -61.8652 C 51.5625 -61.8652 45.2637 -59.4727 40.8691 -55.5664 C 39.0625 -54.0527 38.7207 -52.0996 39.9902 -50.7324 C 41.3086 -49.3164 43.0176 -49.5605 44.5801 -50.7324 C 48.7305 -54.248 52.832 -55.9082 57.7637 -55.9082 C 68.1152 -55.9082 76.6113 -48.7305 78.5645 -39.2578 L 72.9004 -39.2578 C 71.0938 -39.2578 70.6543 -37.5488 71.6797 -36.1328 Z M 25.9766 -31.3477 L 31.3965 -31.3477 C 33.5938 -17.9199 44.2871 -8.74023 57.8613 -8.74023 C 64.0625 -8.74023 70.3613 -11.1328 74.7559 -14.9902 C 76.5625 -16.5039 76.9531 -18.5059 75.6348 -19.873 C 74.3164 -21.2402 72.6074 -21.0449 71.0449 -19.8242 C 66.8945 -16.3574 62.8418 -14.6973 57.8613 -14.6973 C 47.5098 -14.6973 39.0137 -21.8262 37.0605 -31.3477 L 42.5293 -31.3477 C 44.3359 -31.3477 44.7754 -33.0566 43.7988 -34.4727 L 36.4746 -45.0195 C 35.2539 -46.7773 33.3008 -46.8262 32.0312 -45.0195 L 24.8047 -34.4727 C 23.7305 -33.0078 24.1211 -31.3477 25.9766 -31.3477 Z"/>
  </g>
  <g id="Thin-M" transform="matrix(1 0 0 1 799.806 1126)">
   <path d="M 56.6406 12.7441 C 82.9102 12.7441 104.492 -8.83789 104.492 -35.1562 C 104.492 -61.4746 82.9102 -83.0566 56.5918 -83.0566 C 30.3223 -83.0566 8.74023 -61.4746 8.74023 -35.1562 C 8.74023 -8.83789 30.3223 12.7441 56.6406 12.7441 Z M 56.6406 8.98438 C 32.2266 8.98438 12.4512 -10.791 12.4512 -35.1562 C 12.4512 -59.5215 32.2266 -79.2969 56.5918 -79.2969 C 81.0059 -79.2969 100.781 -59.5215 100.781 -35.1562 C 100.781 -10.791 81.0059 8.98438 56.6406 8.98438 Z M 78.2227 -26.5137 C 79.3457 -24.8535 80.9082 -24.9023 81.9824 -26.5137 L 88.4277 -36.4258 C 89.209 -37.5 88.9648 -38.5254 87.6465 -38.5254 L 81.9336 -38.5254 C 79.9316 -51.7578 69.6289 -60.791 56.6406 -60.791 C 50.2441 -60.791 43.75 -58.0566 39.1602 -53.6133 C 37.9883 -52.5391 37.8418 -51.3184 38.6719 -50.5371 C 39.502 -49.707 40.4785 -49.8535 41.5039 -50.7324 C 46.5332 -55.2246 51.3672 -57.0801 56.6406 -57.0801 C 67.7734 -57.0801 76.6602 -49.2676 78.418 -38.5254 L 72.6074 -38.5254 C 71.3379 -38.5254 70.9961 -37.4512 71.6797 -36.4258 Z M 25.6348 -31.9336 L 31.3477 -31.9336 C 33.3496 -18.7012 43.6523 -9.66797 56.6406 -9.66797 C 63.0859 -9.66797 69.5801 -12.4023 74.1699 -16.8457 C 75.3418 -17.9199 75.4395 -19.1406 74.6582 -19.9219 C 73.7793 -20.752 72.8516 -20.6055 71.7773 -19.7266 C 66.748 -15.2344 61.9629 -13.3789 56.6406 -13.3789 C 45.5566 -13.3789 36.6699 -21.1914 34.9121 -31.9336 L 40.6738 -31.9336 C 41.9434 -31.9336 42.2852 -33.0078 41.5527 -34.0332 L 35.0098 -43.9453 C 33.9355 -45.6055 32.373 -45.5566 31.2988 -43.9453 L 24.8047 -34.0332 C 24.0723 -32.959 24.3164 -31.9336 25.6348 -31.9336 Z"/>
  </g>
  <g id="Ultralight-M" transform="matrix(1 0 0 1 503.656 1126)">
   <path d="M 56.0547 12.207 C 82.0801 12.207 103.369 -9.08203 103.369 -35.1562 C 103.369 -61.1816 82.0801 -82.4707 56.0547 -82.4707 C 30.0293 -82.4707 8.74023 -61.1816 8.74023 -35.1562 C 8.74023 -9.08203 30.0293 12.207 56.0547 12.207 Z M 56.0547 9.81445 C 31.2988 9.81445 11.1328 -10.3516 11.1328 -35.1562 C 11.1328 -59.9121 31.2988 -80.0781 56.0547 -80.0781 C 80.8594 -80.0781 100.977 -59.9121 100.977 -35.1562 C 100.977 -10.3516 80.8594 9.81445 56.0547 9.81445 Z M 56.0547 -60.2051 C 49.5605 -60.2051 42.9688 -57.3242 38.2812 -52.6367 C 37.4512 -51.7578 37.4512 -50.9277 37.9883 -50.4395 C 38.5742 -49.9023 39.1602 -50 39.9414 -50.7324 C 45.4102 -55.7617 50.6348 -57.666 56.0547 -57.666 C 67.5781 -57.666 76.6113 -49.5117 78.3203 -38.1836 L 72.4121 -38.1836 C 71.4355 -38.1836 71.1426 -37.3535 71.6797 -36.5723 L 77.832 -27.002 C 78.8574 -25.3906 80.2246 -25.4395 81.2012 -27.002 L 87.3047 -36.5723 C 87.8906 -37.4512 87.7441 -38.1836 86.7188 -38.1836 L 80.8105 -38.1836 C 78.9062 -51.3184 68.7988 -60.2051 56.0547 -60.2051 Z M 25.4395 -32.2266 L 31.3477 -32.2266 C 33.2031 -19.043 43.3594 -10.2051 56.0547 -10.2051 C 62.5488 -10.2051 69.1406 -13.0859 73.8281 -17.7734 C 74.707 -18.6035 74.6582 -19.4336 74.1211 -19.9219 C 73.5352 -20.459 72.9492 -20.4102 72.168 -19.6777 C 66.6992 -14.6484 61.4746 -12.6953 56.0547 -12.6953 C 44.5801 -12.6953 35.498 -20.8496 33.7891 -32.2266 L 39.6973 -32.2266 C 40.6738 -32.2266 40.9668 -33.0078 40.4297 -33.7891 L 34.2773 -43.3594 C 33.252 -45.0195 31.8848 -44.9219 30.9082 -43.3594 L 24.8047 -33.7891 C 24.2188 -32.959 24.4141 -32.2266 25.4395 -32.2266 Z"/>
  </g>
  <g id="Black-S" transform="matrix(1 0 0 1 2884.57 696)">
   <path d="M 48.8281 6.78711 C 71.9727 6.78711 90.8203 -12.0605 90.8203 -35.2051 C 90.8203 -58.3496 71.9727 -77.1973 48.8281 -77.1973 C 25.6836 -77.1973 6.83594 -58.3496 6.83594 -35.2051 C 6.83594 -12.0605 25.6836 6.78711 48.8281 6.78711 Z M 48.8281 -7.37305 C 33.4473 -7.37305 20.9961 -19.8242 20.9961 -35.2051 C 20.9961 -50.5859 33.4473 -63.0371 48.8281 -63.0371 C 64.209 -63.0371 76.6602 -50.5859 76.6602 -35.2051 C 76.6602 -19.8242 64.209 -7.37305 48.8281 -7.37305 Z M 60.4004 -27.9785 C 61.6699 -26.3672 63.8184 -26.3672 65.0879 -27.9785 L 70.6055 -35.1074 C 72.0703 -36.9629 71.1426 -39.3066 68.8965 -39.3066 L 66.748 -39.3066 C 65.0391 -47.5098 57.7637 -53.418 48.8281 -53.418 C 45.0195 -53.418 42.1387 -52.4902 39.7461 -50.9766 C 37.4023 -49.4629 37.1094 -47.1191 38.0371 -45.4102 C 39.0625 -43.5547 41.1621 -42.334 43.75 -43.8965 C 45.5078 -44.9707 47.168 -45.3613 48.8281 -45.3613 C 53.125 -45.3613 56.5918 -42.9688 58.2031 -39.3066 L 56.4941 -39.3066 C 54.248 -39.3066 53.3203 -36.9629 54.7852 -35.1074 Z M 28.7598 -31.0547 L 30.9082 -31.0547 C 32.6172 -22.8516 39.8926 -16.9434 48.8281 -16.9434 C 52.6367 -16.9434 55.5176 -17.8711 57.9102 -19.3848 C 60.2539 -20.8984 60.5469 -23.2422 59.6191 -24.9512 C 58.5938 -26.8066 56.4941 -28.0273 53.9062 -26.4648 C 52.1484 -25.3906 50.4883 -25 48.8281 -25 C 44.5312 -25 41.0645 -27.3926 39.4531 -31.0547 L 41.1621 -31.0547 C 43.4082 -31.0547 44.3359 -33.3984 42.8711 -35.2539 L 37.2559 -42.3828 C 35.9863 -43.9941 33.8379 -43.9941 32.5684 -42.3828 L 27.0508 -35.2539 C 25.5859 -33.3984 26.5137 -31.0547 28.7598 -31.0547 Z"/>
  </g>
  <g id="Heavy-S" transform="matrix(1 0 0 1 2588.47 696)">
   <path d="M 48.2422 6.15234 C 70.9961 6.15234 89.5996 -12.4512 89.5996 -35.2051 C 89.5996 -57.959 70.9961 -76.6113 48.1934 -76.6113 C 25.4395 -76.6113 6.83594 -57.959 6.83594 -35.2051 C 6.83594 -12.4512 25.4395 6.15234 48.2422 6.15234 Z M 48.2422 -6.39648 C 32.2754 -6.39648 19.4336 -19.2871 19.4336 -35.2051 C 19.4336 -51.1719 32.2754 -64.0137 48.1934 -64.0137 C 64.1602 -64.0137 77.002 -51.1719 77.0508 -35.2051 C 77.0508 -19.2871 64.1602 -6.39648 48.2422 -6.39648 Z M 60.9375 -27.6855 C 62.1582 -26.123 64.209 -26.0742 65.4785 -27.6855 L 71.1914 -35.2539 C 72.5586 -37.0117 71.7773 -39.2578 69.5801 -39.2578 L 67.0898 -39.2578 C 65.332 -47.998 57.7148 -54.2969 48.2422 -54.2969 C 44.2383 -54.2969 40.918 -53.2227 38.3301 -51.4648 C 36.0352 -49.9512 35.6934 -47.6074 36.7676 -45.8984 C 37.8906 -44.0918 39.9902 -43.2617 42.334 -44.7266 C 44.2871 -45.9473 46.1426 -46.5332 48.2422 -46.5332 C 53.2715 -46.5332 57.373 -43.6035 59.0332 -39.2578 L 56.7383 -39.2578 C 54.541 -39.2578 53.7109 -37.0117 55.0781 -35.2539 Z M 26.8555 -31.2012 L 29.4434 -31.2012 C 31.2012 -22.4121 38.8184 -16.1621 48.2422 -16.1621 C 52.2949 -16.1621 55.6152 -17.2363 58.2031 -18.9941 C 60.4492 -20.5078 60.8398 -22.8516 59.7656 -24.5117 C 58.5938 -26.3184 56.543 -27.1973 54.1504 -25.7324 C 52.2461 -24.4629 50.3906 -23.9258 48.2422 -23.9258 C 43.2617 -23.9258 39.1602 -26.8555 37.5 -31.2012 L 39.7461 -31.2012 C 41.8945 -31.2012 42.7246 -33.4473 41.3574 -35.2051 L 35.5469 -42.7246 C 34.3262 -44.3359 32.2266 -44.3359 30.957 -42.7246 L 25.2441 -35.2051 C 23.877 -33.4473 24.6582 -31.2012 26.8555 -31.2012 Z"/>
  </g>
  <g id="Bold-S" transform="matrix(1 0 0 1 2292.44 696)">
   <path d="M 47.5586 5.46875 C 69.873 5.46875 88.2324 -12.8906 88.2324 -35.2051 C 88.2324 -57.5684 69.873 -75.9277 47.5098 -75.9277 C 25.1953 -75.9277 6.83594 -57.5684 6.83594 -35.2051 C 6.83594 -12.8906 25.1953 5.46875 47.5586 5.46875 Z M 47.5586 -5.32227 C 30.957 -5.32227 17.6758 -18.6523 17.6758 -35.2051 C 17.6758 -51.8066 30.957 -65.1367 47.5098 -65.1367 C 64.1113 -65.1367 77.4414 -51.8066 77.4414 -35.2051 C 77.4414 -18.6523 64.1113 -5.32227 47.5586 -5.32227 Z M 61.5234 -27.3926 C 62.6465 -25.8301 64.6973 -25.7812 65.918 -27.3926 L 71.875 -35.3516 C 73.1445 -37.0605 72.4609 -39.209 70.3613 -39.209 L 67.4805 -39.209 C 65.625 -48.584 57.6172 -55.2734 47.6074 -55.2734 C 43.3105 -55.2734 39.5508 -54.0527 36.7188 -52.002 C 34.5215 -50.4395 34.1309 -48.1445 35.3027 -46.4844 C 36.5723 -44.7266 38.623 -44.2383 40.7715 -45.6543 C 42.8711 -47.0703 44.9707 -47.8027 47.6074 -47.8027 C 53.3691 -47.8027 58.2031 -44.2383 59.9121 -39.209 L 56.9824 -39.209 C 54.834 -39.209 54.1504 -37.0605 55.4688 -35.3516 Z M 24.7559 -31.3477 L 27.7832 -31.3477 C 29.5898 -21.9238 37.5977 -15.2344 47.6562 -15.2344 C 51.9043 -15.2344 55.7129 -16.5039 58.4961 -18.5059 C 60.7422 -20.0684 61.1328 -22.3633 59.9121 -24.0723 C 58.6426 -25.7812 56.5918 -26.2695 54.4434 -24.8535 C 52.3438 -23.4375 50.2441 -22.7051 47.6562 -22.7051 C 41.8457 -22.7051 37.0117 -26.3184 35.3027 -31.3477 L 38.1348 -31.3477 C 40.2344 -31.3477 40.918 -33.4473 39.6484 -35.1562 L 33.5938 -43.1641 C 32.4219 -44.6777 30.3711 -44.7754 29.1992 -43.1641 L 23.2422 -35.1562 C 21.9238 -33.4473 22.6074 -31.3477 24.7559 -31.3477 Z"/>
  </g>
  <g id="Semibold-S" transform="matrix(1 0 0 1 1996.2 696)">
   <path d="M 47.0703 4.98047 C 69.0918 4.98047 87.3047 -13.1836 87.3047 -35.2539 C 87.3047 -57.2754 69.0918 -75.4883 47.0215 -75.4883 C 25 -75.4883 6.83594 -57.2754 6.83594 -35.2539 C 6.83594 -13.1836 25.0488 4.98047 47.0703 4.98047 Z M 47.0703 -4.58984 C 30.0781 -4.58984 16.4551 -18.2129 16.4551 -35.2539 C 16.4551 -52.2461 30.0293 -65.8691 47.0215 -65.8691 C 64.0625 -65.8691 77.6855 -52.2461 77.7344 -35.2539 C 77.7344 -18.2129 64.0625 -4.58984 47.0703 -4.58984 Z M 61.9141 -27.1484 C 63.0371 -25.6348 65.0391 -25.5371 66.2109 -27.1484 L 72.3145 -35.4492 C 73.5352 -37.1094 72.9492 -39.1602 70.8984 -39.1602 L 67.7246 -39.1602 C 65.8203 -49.0234 57.5684 -55.957 47.1191 -55.957 C 42.7246 -55.957 38.5742 -54.5898 35.5957 -52.3926 C 33.4473 -50.8301 33.0078 -48.5352 34.3262 -46.875 C 35.6934 -45.166 37.7441 -44.9707 39.6973 -46.2891 C 41.9434 -47.8516 44.1406 -48.7305 47.1191 -48.7305 C 53.5156 -48.7305 58.7891 -44.6777 60.5469 -39.1602 L 57.1289 -39.1602 C 55.0781 -39.1602 54.4922 -37.1094 55.6641 -35.4492 Z M 23.291 -31.4453 L 26.6113 -31.4453 C 28.5156 -21.582 36.7676 -14.5996 47.2168 -14.5996 C 51.6113 -14.5996 55.7617 -15.9668 58.7402 -18.2129 C 60.8887 -19.7754 61.3281 -22.0703 60.0098 -23.7305 C 58.6426 -25.4395 56.5918 -25.6348 54.6387 -24.2676 C 52.3926 -22.7539 50.1953 -21.875 47.2168 -21.875 C 40.8691 -21.875 35.5469 -25.9277 33.7891 -31.4453 L 37.0117 -31.4453 C 39.0625 -31.4453 39.6484 -33.4961 38.4766 -35.1074 L 32.2266 -43.4082 C 31.1035 -44.9219 29.1504 -45.0195 27.9297 -43.4082 L 21.8262 -35.1074 C 20.6055 -33.4961 21.1914 -31.4453 23.291 -31.4453 Z"/>
  </g>
  <g id="Medium-S" transform="matrix(1 0 0 1 1699.83 696)">
   <path d="M 46.7285 4.63867 C 68.5547 4.63867 86.6211 -13.4277 86.6211 -35.2539 C 86.6211 -57.0312 68.5059 -75.1465 46.6797 -75.1465 C 24.8535 -75.1465 6.83594 -57.0312 6.83594 -35.2539 C 6.83594 -13.4277 24.9023 4.63867 46.7285 4.63867 Z M 46.7285 -4.00391 C 29.3945 -4.00391 15.5273 -17.9199 15.5273 -35.2539 C 15.5273 -52.5879 29.3457 -66.4551 46.6797 -66.4551 C 64.0137 -66.4551 77.8809 -52.5879 77.9297 -35.2539 C 77.9785 -17.9199 64.0625 -4.00391 46.7285 -4.00391 Z M 62.207 -27.002 C 63.3301 -25.4883 65.2344 -25.3906 66.4062 -27.002 L 72.6562 -35.5469 C 73.8281 -37.1094 73.3398 -39.1113 71.2891 -39.1113 L 67.9199 -39.1113 C 66.0156 -49.3164 57.5195 -56.4941 46.7773 -56.4941 C 42.2363 -56.4941 37.8906 -55.0293 34.7656 -52.6855 C 32.666 -51.0742 32.1777 -48.8281 33.5938 -47.168 C 35.0098 -45.459 37.0117 -45.5078 38.916 -46.7773 C 41.2109 -48.4375 43.5547 -49.4141 46.7773 -49.4141 C 53.5645 -49.4141 59.2773 -44.9707 61.0352 -39.1113 L 57.2754 -39.1113 C 55.2246 -39.1113 54.7363 -37.1094 55.8594 -35.5469 Z M 22.168 -31.4941 L 25.7812 -31.4941 C 27.6855 -21.2891 36.1328 -14.1602 46.875 -14.1602 C 51.416 -14.1602 55.8105 -15.5762 58.8867 -17.9688 C 61.0352 -19.5312 61.4746 -21.8262 60.1074 -23.4863 C 58.6426 -25.1465 56.6406 -25.1465 54.7852 -23.8281 C 52.4414 -22.2168 50.1465 -21.2402 46.875 -21.2402 C 40.0879 -21.2402 34.4238 -25.6348 32.666 -31.4941 L 36.1816 -31.4941 C 38.2324 -31.4941 38.7207 -33.4961 37.5977 -35.1074 L 31.25 -43.6523 C 30.127 -45.1172 28.1738 -45.2148 27.002 -43.6523 L 20.752 -35.1074 C 19.6289 -33.4961 20.1172 -31.4941 22.168 -31.4941 Z"/>
  </g>
  <g id="Regular-S" transform="matrix(1 0 0 1 1403.58 696)">
   <path d="M 46.2402 4.15039 C 67.7734 4.15039 85.6934 -13.7207 85.6934 -35.2539 C 85.6934 -56.7871 67.7246 -74.6582 46.1914 -74.6582 C 24.707 -74.6582 6.83594 -56.7871 6.83594 -35.2539 C 6.83594 -13.7207 24.7559 4.15039 46.2402 4.15039 Z M 46.2402 -3.27148 C 28.5156 -3.27148 14.3555 -17.4805 14.3555 -35.2539 C 14.3555 -53.0273 28.4668 -67.2363 46.1914 -67.2363 C 63.9648 -67.2363 78.1738 -53.0273 78.2227 -35.2539 C 78.2715 -17.4805 64.0137 -3.27148 46.2402 -3.27148 Z M 62.5977 -26.7578 C 63.6719 -25.293 65.5762 -25.1953 66.748 -26.7578 L 73.1445 -35.6445 C 74.2188 -37.1582 73.7793 -39.0625 71.8262 -39.0625 L 68.1641 -39.0625 C 66.2109 -49.707 57.4707 -57.1289 46.3379 -57.1289 C 41.6504 -57.1289 36.9141 -55.6152 33.6914 -53.0273 C 31.5918 -51.416 31.1035 -49.1699 32.6172 -47.5586 C 34.1309 -45.8984 36.1328 -46.1914 37.8418 -47.4121 C 40.2832 -49.1699 42.7734 -50.293 46.3379 -50.293 C 53.6621 -50.293 59.8633 -45.4102 61.6211 -39.0625 L 57.4219 -39.0625 C 55.4688 -39.0625 55.0293 -37.1582 56.1035 -35.6445 Z M 20.7031 -31.5918 L 24.6094 -31.5918 C 26.6113 -20.9473 35.3027 -13.5254 46.4355 -13.5254 C 51.1719 -13.5254 55.8594 -15.0879 59.1309 -17.627 C 61.1816 -19.2383 61.6699 -21.5332 60.2051 -23.1445 C 58.6914 -24.8047 56.6895 -24.5117 54.9805 -23.291 C 52.5391 -21.4844 50.0488 -20.4102 46.4355 -20.4102 C 39.1113 -20.4102 32.959 -25.293 31.1523 -31.5918 L 35.1074 -31.5918 C 37.0605 -31.5918 37.5 -33.5449 36.4258 -35.0586 L 29.9316 -43.8965 C 28.8574 -45.3613 26.9531 -45.5078 25.7812 -43.8965 L 19.3848 -35.0586 C 18.3105 -33.5449 18.7012 -31.5918 20.7031 -31.5918 Z"/>
  </g>
  <g id="Light-S" transform="matrix(1 0 0 1 1107.6 696)">
   <path d="M 45.5078 3.4668 C 66.6992 3.4668 84.2285 -14.0625 84.2285 -35.2051 C 84.2285 -56.3965 66.6504 -73.9258 45.5078 -73.9258 C 24.3164 -73.9258 6.83594 -56.3965 6.83594 -35.2051 C 6.83594 -14.0625 24.3652 3.4668 45.5078 3.4668 Z M 45.5078 -2.24609 C 27.2461 -2.24609 12.5977 -16.9434 12.5977 -35.2051 C 12.5977 -53.5156 27.1973 -68.2129 45.5078 -68.2129 C 63.7695 -68.2129 78.4668 -53.5156 78.5156 -35.2051 C 78.5156 -16.9434 63.8184 -2.24609 45.5078 -2.24609 Z M 62.1094 -27.3926 C 63.0859 -26.0254 64.7461 -25.9277 65.7715 -27.3926 L 71.6309 -35.8398 C 72.5586 -37.1094 72.2168 -38.5742 70.6055 -38.5742 L 66.6504 -38.5742 C 64.8438 -49.1211 56.3477 -56.3965 45.6055 -56.3965 C 40.7715 -56.3965 35.8887 -54.6387 32.5195 -51.7578 C 30.9082 -50.4395 30.5664 -48.6816 31.6895 -47.4121 C 32.9102 -46.1426 34.4238 -46.3867 35.791 -47.4121 C 38.8184 -49.8535 41.7969 -51.0742 45.6055 -51.0742 C 53.4668 -51.0742 59.9609 -45.7031 61.5723 -38.5742 L 57.2266 -38.5742 C 55.6152 -38.5742 55.2246 -37.0605 56.1035 -35.8398 Z M 20.459 -32.0312 L 24.6094 -32.0312 C 26.416 -21.4844 34.8633 -14.209 45.6543 -14.209 C 50.4883 -14.209 55.3223 -15.9668 58.6914 -18.8477 C 60.3516 -20.166 60.6934 -21.9238 59.5215 -23.1934 C 58.3496 -24.4629 56.8359 -24.2188 55.4688 -23.1934 C 52.4414 -20.752 49.4629 -19.5312 45.6543 -19.5312 C 37.793 -19.5312 31.2988 -24.9023 29.6875 -32.0312 L 33.8379 -32.0312 C 35.4492 -32.0312 35.791 -33.5449 34.9121 -34.7656 L 28.9551 -43.2129 C 27.9785 -44.5801 26.3184 -44.6777 25.293 -43.2129 L 19.3848 -34.7656 C 18.5059 -33.4961 18.8477 -32.0312 20.459 -32.0312 Z"/>
  </g>
  <g id="Thin-S" transform="matrix(1 0 0 1 811.867 696)">
   <path d="M 44.5801 2.53906 C 65.2832 2.53906 82.2754 -14.4531 82.2754 -35.2051 C 82.2754 -55.9082 65.2344 -72.9004 44.5312 -72.9004 C 23.8281 -72.9004 6.83594 -55.9082 6.83594 -35.2051 C 6.83594 -14.4531 23.877 2.53906 44.5801 2.53906 Z M 44.5801 -0.878906 C 25.5859 -0.878906 10.2539 -16.2109 10.2539 -35.2051 C 10.2539 -54.1504 25.5859 -69.4824 44.5312 -69.4824 C 63.5254 -69.4824 78.8574 -54.1504 78.8574 -35.2051 C 78.8574 -16.2109 63.5254 -0.878906 44.5801 -0.878906 Z M 61.4258 -28.2227 C 62.3047 -26.9043 63.623 -26.9043 64.502 -28.2227 L 69.6777 -36.084 C 70.3613 -37.0117 70.1172 -37.9395 68.9941 -37.9395 L 64.5996 -37.9395 C 63.0371 -48.3398 54.8828 -55.4688 44.5801 -55.4688 C 39.5996 -55.4688 34.5703 -53.3691 31.0059 -50 C 29.9316 -49.0723 29.834 -47.998 30.5176 -47.2656 C 31.2988 -46.4844 32.1777 -46.6309 33.1055 -47.3633 C 36.8652 -50.7324 40.5273 -52.0996 44.5801 -52.0996 C 53.125 -52.0996 60.0098 -46.0938 61.4258 -37.9395 L 56.9336 -37.9395 C 55.8105 -37.9395 55.5176 -36.9629 56.1523 -36.084 Z M 20.1172 -32.5195 L 24.5605 -32.5195 C 26.1719 -22.1191 34.3262 -15.0391 44.6289 -15.0391 C 49.6094 -15.0391 54.6387 -17.0898 58.2031 -20.459 C 59.2285 -21.3867 59.375 -22.5098 58.6426 -23.1934 C 57.9102 -23.9746 56.9824 -23.877 56.1035 -23.0957 C 52.3438 -19.7754 48.6816 -18.3594 44.6289 -18.3594 C 36.0352 -18.3594 29.1504 -24.3652 27.7344 -32.5195 L 32.1777 -32.5195 C 33.3008 -32.5195 33.5938 -33.4961 32.959 -34.375 L 27.6855 -42.2363 C 26.8066 -43.5547 25.5371 -43.5547 24.6582 -42.2363 L 19.4336 -34.375 C 18.75 -33.4961 18.9941 -32.5195 20.1172 -32.5195 Z"/>
  </g>
  <g id="Ultralight-S" transform="matrix(1 0 0 1 515.644 696)">
   <path d="M 44.043 2.05078 C 64.502 2.05078 81.2988 -14.6973 81.2988 -35.1562 C 81.2988 -55.6152 64.502 -72.3633 44.043 -72.3633 C 23.584 -72.3633 6.83594 -55.6152 6.83594 -35.1562 C 6.83594 -14.6973 23.584 2.05078 44.043 2.05078 Z M 44.043 -0.146484 C 24.7559 -0.146484 9.08203 -15.8691 9.08203 -35.1562 C 9.08203 -54.4434 24.7559 -70.166 44.043 -70.166 C 63.3789 -70.166 79.0527 -54.4434 79.0527 -35.1562 C 79.0527 -15.8691 63.3789 -0.146484 44.043 -0.146484 Z M 61.084 -28.6621 C 61.9141 -27.3926 63.0371 -27.4414 63.8184 -28.6621 L 68.7012 -36.2305 C 69.1895 -36.9629 69.043 -37.6465 68.1641 -37.6465 L 63.5742 -37.6465 C 62.0605 -47.9492 54.1016 -54.9316 44.043 -54.9316 C 39.0137 -54.9316 33.8379 -52.7344 30.2246 -49.1211 C 29.4434 -48.3887 29.4434 -47.6562 29.9316 -47.168 C 30.4688 -46.6797 31.0059 -46.7285 31.6895 -47.3633 C 35.8887 -51.1719 39.8438 -52.6367 44.043 -52.6367 C 52.9785 -52.6367 60.0098 -46.3379 61.377 -37.6465 L 56.7871 -37.6465 C 55.9082 -37.6465 55.6641 -36.9141 56.1523 -36.2305 Z M 19.9707 -32.8125 L 24.5605 -32.8125 C 26.0742 -22.4609 34.0332 -15.4785 44.0918 -15.4785 C 49.1211 -15.4785 54.2969 -17.6758 57.9102 -21.2891 C 58.6914 -22.0215 58.6914 -22.8027 58.2031 -23.2422 C 57.666 -23.7305 57.1289 -23.6816 56.3965 -23.0469 C 52.2461 -19.2383 48.291 -17.7734 44.0918 -17.7734 C 35.1562 -17.7734 28.125 -24.0723 26.7578 -32.8125 L 31.3477 -32.8125 C 32.1777 -32.8125 32.4219 -33.4961 31.9824 -34.1797 L 27.0508 -41.748 C 26.2207 -43.0176 25.0977 -43.0176 24.3164 -41.748 L 19.4336 -34.1797 C 18.8965 -33.4473 19.0918 -32.8125 19.9707 -32.8125 Z"/>
  </g>
 </g>
</svg>
