<?xml version="1.0" encoding="UTF-8"?><svg id="dolphinrefreshblue" xmlns="http://www.w3.org/2000/svg" width="1024" height="1024" xmlns:xlink="http://www.w3.org/1999/xlink" viewBox="0 0 1024 1024"><defs><linearGradient id="linear-gradient" x1="921.62" y1="898.72" x2="225.61" y2="202.72" gradientUnits="userSpaceOnUse"><stop offset="0" stop-color="#3217ff"/><stop offset=".26" stop-color="#2b38ff"/><stop offset=".5" stop-color="#2455ff"/><stop offset=".75" stop-color="#1d74ff"/><stop offset="1" stop-color="#1792ff"/></linearGradient><linearGradient id="linear-gradient-2" x1="551.68" y1="880.73" x2="438.44" y2="238.5" gradientUnits="userSpaceOnUse"><stop offset="0" stop-color="#0e80ff"/><stop offset=".13" stop-color="#0789ff"/><stop offset=".25" stop-color="#0090ff"/><stop offset=".38" stop-color="#009dff"/><stop offset=".5" stop-color="#0af"/><stop offset=".62" stop-color="#00b7ff"/><stop offset=".75" stop-color="#00c4ff"/><stop offset=".87" stop-color="#21ccff"/><stop offset="1" stop-color="#46d4ff"/></linearGradient></defs><path id="accent" d="M1022.56,797.6c-1.27.18-38.52-169.99-134.5-264.57-78.26-77.11-255.29-227.76-485.28-211.36-179.97,12.83-155.26,99.22-145.34,95.09,28.18-11.76,160.45-49.32,301.51,29.56,124.72,69.74,172.5,186.62,165.04,195.72-1.59,1.92-45.15-108.8-244.51-150.96-154.52-32.68-316.61-5.94-385.63,21.46-28.07,11.15-73.88,41.57-82.75,11.13-8.31-28.53,33.5-51.54,38.43-70.45,6.44-24.72,1.99-147.1,179.83-199.53,69.13-20.38,206.69-40,356.78,6.08,7.41,1.62,16.34.93,22.08-2.63,12.86-7.98,38.97-24.94,91.15-29.56,100.28-8.88,129,34.46,124.16,42.86-2.44,4.24-80.13-20.48-96.57,28.08-6.12,18.08,6.78,28.28,15.94,34.57,32.67,21.29,63.4,45.41,91.84,72.09,66.54,62.22,112.8,128.96,150.42,219.66,29.94,72.19,43.57,171.86,37.4,172.75Z" style="fill:url(#linear-gradient); fill-rule:evenodd; stroke-width:0px;"/><path id="main" d="M1022.64,797.68c-2.15.3-73.59-154.8-169.57-249.37-78.26-77.11-220.89-203.51-451.29-194.61-102.85,3.97-151.08,51.44-144.13,63.02,6.78,11.3,140.6-31.02,283.56,44.38,130.09,68.62,185.48,179.26,182.78,181.3-2.21,1.67-101.12-86.71-250.52-125.78-.58-.09-1.15-.21-1.73-.34-26.77-6.58-29.04,29.26-1.48,63.55,31.9,39.7,46.88,43.17,45.33,48.28-1.97,6.43-63.11,8.78-122.18-32.52-52.04-36.39-75.4-85.8-82.28-92.13-5.82-5.35-12.47-4.05-20.2-3.94-.32,0-.63,0-.95,0-83.04,3.15-132.41,12.35-196.14,37.65-28.07,11.15-66.77,13.55-88.81-9.24-22.87-23.65,39.02-56.97,43.95-75.87,6.44-24.72,2.53-121.3,180.36-173.74,69.24-20.42,207.11-40.06,357.46,6.29,7.58,1.86,14.42,2.09,21.4-2.84,18.56-13.12,49.71-30.75,101.87-35.43,87.65-7.85,115.71,19.11,113.43,24.09-2.03,4.45-80.13,4.15-96.57,52.72-6.12,18.08,6.78,28.28,15.94,34.57,32.67,21.29,63.4,45.41,91.85,72.09,66.55,62.22,112.81,128.96,150.42,219.66,29.93,72.19,39.98,147.84,37.48,148.2Z" style="fill:url(#linear-gradient-2); fill-rule:evenodd; stroke-width:0px;"/></svg>