<?xml version="1.0" encoding="UTF-8"?>
<!--Generator: Apple Native CoreSVG 123-->
<!DOCTYPE svg
PUBLIC "-//W3C//DTD SVG 1.1//EN"
       "http://www.w3.org/Graphics/SVG/1.1/DTD/svg11.dtd">
<svg version="1.1" xmlns="http://www.w3.org/2000/svg" xmlns:xlink="http://www.w3.org/1999/xlink" width="3300" height="2200">
 <!--glyph: "uni1002F1.medium", point size: 100.000000, font version: "Version 15.0d7e11", template writer version: "5"-->
 <g id="Notes">
  <rect height="2200" id="artboard" style="fill:white;opacity:1" width="3300" x="0" y="0"/>
  <line id="" style="fill:none;stroke:black;opacity:1;stroke-width:0.5;" x1="263" x2="3036" y1="292" y2="292"/>
  <text style="stroke:none;fill:black;font-family:-apple-system,&quot;SF Pro Display&quot;,&quot;SF Pro Text&quot;,Helvetica,sans-serif;font-weight:bold;" transform="matrix(1 0 0 1 263 322)">Weight/Scale Variations</text>
  <text style="stroke:none;fill:black;font-family:-apple-system,&quot;SF Pro Display&quot;,&quot;SF Pro Text&quot;,Helvetica,sans-serif;text-anchor:middle;" transform="matrix(1 0 0 1 559.711 322)">Ultralight</text>
  <text style="stroke:none;fill:black;font-family:-apple-system,&quot;SF Pro Display&quot;,&quot;SF Pro Text&quot;,Helvetica,sans-serif;text-anchor:middle;" transform="matrix(1 0 0 1 856.422 322)">Thin</text>
  <text style="stroke:none;fill:black;font-family:-apple-system,&quot;SF Pro Display&quot;,&quot;SF Pro Text&quot;,Helvetica,sans-serif;text-anchor:middle;" transform="matrix(1 0 0 1 1153.13 322)">Light</text>
  <text style="stroke:none;fill:black;font-family:-apple-system,&quot;SF Pro Display&quot;,&quot;SF Pro Text&quot;,Helvetica,sans-serif;text-anchor:middle;" transform="matrix(1 0 0 1 1449.84 322)">Regular</text>
  <text style="stroke:none;fill:black;font-family:-apple-system,&quot;SF Pro Display&quot;,&quot;SF Pro Text&quot;,Helvetica,sans-serif;text-anchor:middle;" transform="matrix(1 0 0 1 1746.56 322)">Medium</text>
  <text style="stroke:none;fill:black;font-family:-apple-system,&quot;SF Pro Display&quot;,&quot;SF Pro Text&quot;,Helvetica,sans-serif;text-anchor:middle;" transform="matrix(1 0 0 1 2043.27 322)">Semibold</text>
  <text style="stroke:none;fill:black;font-family:-apple-system,&quot;SF Pro Display&quot;,&quot;SF Pro Text&quot;,Helvetica,sans-serif;text-anchor:middle;" transform="matrix(1 0 0 1 2339.98 322)">Bold</text>
  <text style="stroke:none;fill:black;font-family:-apple-system,&quot;SF Pro Display&quot;,&quot;SF Pro Text&quot;,Helvetica,sans-serif;text-anchor:middle;" transform="matrix(1 0 0 1 2636.69 322)">Heavy</text>
  <text style="stroke:none;fill:black;font-family:-apple-system,&quot;SF Pro Display&quot;,&quot;SF Pro Text&quot;,Helvetica,sans-serif;text-anchor:middle;" transform="matrix(1 0 0 1 2933.4 322)">Black</text>
  <line id="" style="fill:none;stroke:black;opacity:1;stroke-width:0.5;" x1="263" x2="3036" y1="1903" y2="1903"/>
  <g id="" transform="matrix(1 0 0 1 263 1933)">
   <path d="M 9.24805 0.830078 C 13.5547 0.830078 17.1387 -2.74414 17.1387 -7.05078 C 17.1387 -11.3574 13.5449 -14.9316 9.23828 -14.9316 C 4.94141 -14.9316 1.36719 -11.3574 1.36719 -7.05078 C 1.36719 -2.74414 4.95117 0.830078 9.24805 0.830078 Z M 9.24805 -0.654297 C 5.70312 -0.654297 2.87109 -3.49609 2.87109 -7.05078 C 2.87109 -10.6055 5.69336 -13.4473 9.23828 -13.4473 C 12.793 -13.4473 15.6348 -10.6055 15.6445 -7.05078 C 15.6543 -3.49609 12.8027 -0.654297 9.24805 -0.654297 Z M 9.22852 -3.42773 C 9.69727 -3.42773 9.9707 -3.74023 9.9707 -4.25781 L 9.9707 -6.31836 L 12.1973 -6.31836 C 12.6953 -6.31836 13.0371 -6.57227 13.0371 -7.04102 C 13.0371 -7.51953 12.7148 -7.7832 12.1973 -7.7832 L 9.9707 -7.7832 L 9.9707 -10.0098 C 9.9707 -10.5273 9.69727 -10.8496 9.22852 -10.8496 C 8.75977 -10.8496 8.50586 -10.5078 8.50586 -10.0098 L 8.50586 -7.7832 L 6.29883 -7.7832 C 5.78125 -7.7832 5.44922 -7.51953 5.44922 -7.04102 C 5.44922 -6.57227 5.80078 -6.31836 6.29883 -6.31836 L 8.50586 -6.31836 L 8.50586 -4.25781 C 8.50586 -3.75977 8.75977 -3.42773 9.22852 -3.42773 Z"/>
  </g>
  <g id="" transform="matrix(1 0 0 1 281.506 1933)">
   <path d="M 11.709 2.91016 C 17.1582 2.91016 21.6699 -1.60156 21.6699 -7.05078 C 21.6699 -12.4902 17.1484 -17.0117 11.6992 -17.0117 C 6.25977 -17.0117 1.74805 -12.4902 1.74805 -7.05078 C 1.74805 -1.60156 6.26953 2.91016 11.709 2.91016 Z M 11.709 1.25 C 7.09961 1.25 3.41797 -2.44141 3.41797 -7.05078 C 3.41797 -11.6504 7.08984 -15.3516 11.6992 -15.3516 C 16.3086 -15.3516 20 -11.6504 20.0098 -7.05078 C 20.0195 -2.44141 16.3184 1.25 11.709 1.25 Z M 11.6895 -2.41211 C 12.207 -2.41211 12.5195 -2.77344 12.5195 -3.33984 L 12.5195 -6.23047 L 15.5762 -6.23047 C 16.123 -6.23047 16.5039 -6.51367 16.5039 -7.03125 C 16.5039 -7.55859 16.1426 -7.86133 15.5762 -7.86133 L 12.5195 -7.86133 L 12.5195 -10.9277 C 12.5195 -11.5039 12.207 -11.8555 11.6895 -11.8555 C 11.1719 -11.8555 10.8789 -11.4844 10.8789 -10.9277 L 10.8789 -7.86133 L 7.83203 -7.86133 C 7.26562 -7.86133 6.89453 -7.55859 6.89453 -7.03125 C 6.89453 -6.51367 7.28516 -6.23047 7.83203 -6.23047 L 10.8789 -6.23047 L 10.8789 -3.33984 C 10.8789 -2.79297 11.1719 -2.41211 11.6895 -2.41211 Z"/>
  </g>
  <g id="" transform="matrix(1 0 0 1 304.924 1933)">
   <path d="M 14.9707 5.67383 C 21.9336 5.67383 27.6953 -0.078125 27.6953 -7.04102 C 27.6953 -14.0039 21.9238 -19.7559 14.9609 -19.7559 C 8.00781 -19.7559 2.25586 -14.0039 2.25586 -7.04102 C 2.25586 -0.078125 8.01758 5.67383 14.9707 5.67383 Z M 14.9707 3.85742 C 8.93555 3.85742 4.08203 -1.00586 4.08203 -7.04102 C 4.08203 -13.0762 8.92578 -17.9395 14.9609 -17.9395 C 21.0059 -17.9395 25.8594 -13.0762 25.8691 -7.04102 C 25.8789 -1.00586 21.0156 3.85742 14.9707 3.85742 Z M 14.9512 -1.06445 C 15.5176 -1.06445 15.8691 -1.45508 15.8691 -2.06055 L 15.8691 -6.13281 L 20.1074 -6.13281 C 20.6934 -6.13281 21.1133 -6.46484 21.1133 -7.02148 C 21.1133 -7.59766 20.7227 -7.93945 20.1074 -7.93945 L 15.8691 -7.93945 L 15.8691 -12.1875 C 15.8691 -12.8027 15.5176 -13.1934 14.9512 -13.1934 C 14.3848 -13.1934 14.0625 -12.7832 14.0625 -12.1875 L 14.0625 -7.93945 L 9.83398 -7.93945 C 9.21875 -7.93945 8.80859 -7.59766 8.80859 -7.02148 C 8.80859 -6.46484 9.23828 -6.13281 9.83398 -6.13281 L 14.0625 -6.13281 L 14.0625 -2.06055 C 14.0625 -1.47461 14.3848 -1.06445 14.9512 -1.06445 Z"/>
  </g>
  <text style="stroke:none;fill:black;font-family:-apple-system,&quot;SF Pro Display&quot;,&quot;SF Pro Text&quot;,Helvetica,sans-serif;font-weight:bold;" transform="matrix(1 0 0 1 263 1953)">Design Variations</text>
  <text style="stroke:none;fill:black;font-family:-apple-system,&quot;SF Pro Display&quot;,&quot;SF Pro Text&quot;,Helvetica,sans-serif;" transform="matrix(1 0 0 1 263 1971)">Symbols are supported in up to nine weights and three scales.</text>
  <text style="stroke:none;fill:black;font-family:-apple-system,&quot;SF Pro Display&quot;,&quot;SF Pro Text&quot;,Helvetica,sans-serif;" transform="matrix(1 0 0 1 263 1989)">For optimal layout with text and other symbols, vertically align</text>
  <text style="stroke:none;fill:black;font-family:-apple-system,&quot;SF Pro Display&quot;,&quot;SF Pro Text&quot;,Helvetica,sans-serif;" transform="matrix(1 0 0 1 263 2007)">symbols with the adjacent text.</text>
  <rect height="14" id="" style="fill:#00AEEF;stroke:none;opacity:0.4;" width="3" x="776" y="1919"/>
  <g id="" transform="matrix(1 0 0 1 779 1933)">
   <path d="M 10.5273 0 L 12.373 0 L 7.17773 -14.0918 L 5.43945 -14.0918 L 0.244141 0 L 2.08984 0 L 3.50586 -4.0332 L 9.11133 -4.0332 Z M 6.2793 -11.9531 L 6.33789 -11.9531 L 8.59375 -5.52734 L 4.02344 -5.52734 Z"/>
  </g>
  <rect height="14" id="" style="fill:#00AEEF;stroke:none;opacity:0.4;" width="3" x="791.617" y="1919"/>
  <text style="stroke:none;fill:black;font-family:-apple-system,&quot;SF Pro Display&quot;,&quot;SF Pro Text&quot;,Helvetica,sans-serif;font-weight:bold;" transform="matrix(1 0 0 1 776 1953)">Margins</text>
  <text style="stroke:none;fill:black;font-family:-apple-system,&quot;SF Pro Display&quot;,&quot;SF Pro Text&quot;,Helvetica,sans-serif;" transform="matrix(1 0 0 1 776 1971)">Leading and trailing margins on the left and right side of each symbol</text>
  <text style="stroke:none;fill:black;font-family:-apple-system,&quot;SF Pro Display&quot;,&quot;SF Pro Text&quot;,Helvetica,sans-serif;" transform="matrix(1 0 0 1 776 1989)">can be adjusted by modifying the width of the blue rectangles.</text>
  <text style="stroke:none;fill:black;font-family:-apple-system,&quot;SF Pro Display&quot;,&quot;SF Pro Text&quot;,Helvetica,sans-serif;" transform="matrix(1 0 0 1 776 2007)">Modifications are automatically applied proportionally to all</text>
  <text style="stroke:none;fill:black;font-family:-apple-system,&quot;SF Pro Display&quot;,&quot;SF Pro Text&quot;,Helvetica,sans-serif;" transform="matrix(1 0 0 1 776 2025)">scales and weights.</text>
  <g id="" transform="matrix(1 0 0 1 1289 1933)">
   <path d="M 2.83203 3.11523 L 4.375 4.6582 C 5.22461 5.48828 6.19141 5.41992 7.06055 4.46289 L 17.2754 -6.66016 C 17.7051 -6.36719 18.0957 -6.37695 18.5645 -6.47461 L 19.6094 -6.68945 L 20.3027 -5.99609 L 20.2539 -5.47852 C 20.1855 -4.95117 20.3516 -4.53125 20.8496 -4.0332 L 21.6602 -3.22266 C 22.168 -2.71484 22.8223 -2.68555 23.3008 -3.16406 L 26.5527 -6.41602 C 27.0312 -6.89453 27.0117 -7.54883 26.5039 -8.05664 L 25.6836 -8.87695 C 25.1855 -9.375 24.7754 -9.55078 24.2383 -9.47266 L 23.7109 -9.41406 L 23.0566 -10.0781 L 23.3398 -11.2207 C 23.4863 -11.7871 23.3398 -12.2559 22.7148 -12.8613 L 20.3027 -15.2539 C 16.7578 -18.7793 12.2266 -18.6719 9.11133 -15.5371 C 8.69141 -15.1074 8.64258 -14.5215 8.91602 -14.0918 C 9.15039 -13.7207 9.62891 -13.4961 10.2734 -13.6621 C 11.7871 -14.043 13.3008 -13.9258 14.7852 -12.9199 L 14.1602 -11.3379 C 13.9258 -10.752 13.9453 -10.2734 14.1797 -9.83398 L 3.01758 0.439453 C 2.08008 1.30859 1.97266 2.25586 2.83203 3.11523 Z M 10.6738 -15.1465 C 13.3398 -17.1387 16.6504 -16.8262 19.0527 -14.4141 L 21.6797 -11.8066 C 21.9141 -11.5723 21.9434 -11.3867 21.8848 -11.0938 L 21.5039 -9.53125 L 23.0762 -7.95898 L 24.043 -8.04688 C 24.3262 -8.07617 24.4141 -8.05664 24.6387 -7.83203 L 25.2637 -7.20703 L 22.5098 -4.46289 L 21.8848 -5.07812 C 21.6602 -5.30273 21.6406 -5.40039 21.6699 -5.68359 L 21.7578 -6.64062 L 20.1953 -8.20312 L 18.5742 -7.89062 C 18.291 -7.83203 18.1445 -7.83203 17.9102 -8.07617 L 15.7324 -10.2539 C 15.5078 -10.4883 15.4785 -10.625 15.6055 -10.9473 L 16.5527 -13.2227 C 14.9512 -14.7559 12.8418 -15.6055 10.8008 -14.9512 C 10.7129 -14.9219 10.6445 -14.9414 10.6152 -14.9805 C 10.5859 -15.0293 10.5859 -15.0781 10.6738 -15.1465 Z M 4.10156 2.41211 C 3.61328 1.91406 3.78906 1.61133 4.12109 1.30859 L 15.0781 -8.80859 L 16.3086 -7.57812 L 6.15234 3.34961 C 5.84961 3.68164 5.46875 3.7793 5.06836 3.37891 Z"/>
  </g>
  <text style="stroke:none;fill:black;font-family:-apple-system,&quot;SF Pro Display&quot;,&quot;SF Pro Text&quot;,Helvetica,sans-serif;font-weight:bold;" transform="matrix(1 0 0 1 1289 1953)">Exporting</text>
  <text style="stroke:none;fill:black;font-family:-apple-system,&quot;SF Pro Display&quot;,&quot;SF Pro Text&quot;,Helvetica,sans-serif;" transform="matrix(1 0 0 1 1289 1971)">Symbols should be outlined when exporting to ensure the</text>
  <text style="stroke:none;fill:black;font-family:-apple-system,&quot;SF Pro Display&quot;,&quot;SF Pro Text&quot;,Helvetica,sans-serif;" transform="matrix(1 0 0 1 1289 1989)">design is preserved when submitting to Xcode.</text>
  <text id="template-version" style="stroke:none;fill:black;font-family:-apple-system,&quot;SF Pro Display&quot;,&quot;SF Pro Text&quot;,Helvetica,sans-serif;text-anchor:end;" transform="matrix(1 0 0 1 3036 1933)">Template v.1.0</text>
  <text style="stroke:none;fill:black;font-family:-apple-system,&quot;SF Pro Display&quot;,&quot;SF Pro Text&quot;,Helvetica,sans-serif;text-anchor:end;" transform="matrix(1 0 0 1 3036 1951)">Generated from list.dash</text>
  <text style="stroke:none;fill:black;font-family:-apple-system,&quot;SF Pro Display&quot;,&quot;SF Pro Text&quot;,Helvetica,sans-serif;text-anchor:end;" transform="matrix(1 0 0 1 3036 1969)">Typeset at 100 points</text>
  <text style="stroke:none;fill:black;font-family:-apple-system,&quot;SF Pro Display&quot;,&quot;SF Pro Text&quot;,Helvetica,sans-serif;" transform="matrix(1 0 0 1 263 726)">Small</text>
  <text style="stroke:none;fill:black;font-family:-apple-system,&quot;SF Pro Display&quot;,&quot;SF Pro Text&quot;,Helvetica,sans-serif;" transform="matrix(1 0 0 1 263 1156)">Medium</text>
  <text style="stroke:none;fill:black;font-family:-apple-system,&quot;SF Pro Display&quot;,&quot;SF Pro Text&quot;,Helvetica,sans-serif;" transform="matrix(1 0 0 1 263 1586)">Large</text>
 </g>
 <g id="Guides">
  <g id="H-reference" style="fill:#27AAE1;stroke:none;" transform="matrix(1 0 0 1 339 696)">
   <path d="M 54.9316 0 L 57.666 0 L 30.5664 -70.459 L 28.0762 -70.459 L 0.976562 0 L 3.66211 0 L 12.9395 -24.4629 L 45.7031 -24.4629 Z M 29.1992 -67.0898 L 29.4434 -67.0898 L 44.8242 -26.709 L 13.8184 -26.709 Z"/>
  </g>
  <line id="Baseline-S" style="fill:none;stroke:#27AAE1;opacity:1;stroke-width:0.577;" x1="263" x2="3036" y1="696" y2="696"/>
  <line id="Capline-S" style="fill:none;stroke:#27AAE1;opacity:1;stroke-width:0.577;" x1="263" x2="3036" y1="625.541" y2="625.541"/>
  <g id="H-reference" style="fill:#27AAE1;stroke:none;" transform="matrix(1 0 0 1 339 1126)">
   <path d="M 54.9316 0 L 57.666 0 L 30.5664 -70.459 L 28.0762 -70.459 L 0.976562 0 L 3.66211 0 L 12.9395 -24.4629 L 45.7031 -24.4629 Z M 29.1992 -67.0898 L 29.4434 -67.0898 L 44.8242 -26.709 L 13.8184 -26.709 Z"/>
  </g>
  <line id="Baseline-M" style="fill:none;stroke:#27AAE1;opacity:1;stroke-width:0.577;" x1="263" x2="3036" y1="1126" y2="1126"/>
  <line id="Capline-M" style="fill:none;stroke:#27AAE1;opacity:1;stroke-width:0.577;" x1="263" x2="3036" y1="1055.54" y2="1055.54"/>
  <g id="H-reference" style="fill:#27AAE1;stroke:none;" transform="matrix(1 0 0 1 339 1556)">
   <path d="M 54.9316 0 L 57.666 0 L 30.5664 -70.459 L 28.0762 -70.459 L 0.976562 0 L 3.66211 0 L 12.9395 -24.4629 L 45.7031 -24.4629 Z M 29.1992 -67.0898 L 29.4434 -67.0898 L 44.8242 -26.709 L 13.8184 -26.709 Z"/>
  </g>
  <line id="Baseline-L" style="fill:none;stroke:#27AAE1;opacity:1;stroke-width:0.577;" x1="263" x2="3036" y1="1556" y2="1556"/>
  <line id="Capline-L" style="fill:none;stroke:#27AAE1;opacity:1;stroke-width:0.577;" x1="263" x2="3036" y1="1485.54" y2="1485.54"/>
  <rect height="119.336" id="left-margin" style="fill:#00AEEF;stroke:none;opacity:0.4;" width="12.4512" x="1388.2" y="1030.79"/>
  <rect height="119.336" id="right-margin" style="fill:#00AEEF;stroke:none;opacity:0.4;" width="12.4512" x="1499.04" y="1030.79"/>
 </g>
 <g id="Symbols">
  <g id="Black-L" transform="matrix(1 0 0 1 2847.17 1556)">
   <path d="M 26.123 -65.918 L 37.0117 -65.918 C 42.4805 -65.918 47.0703 -70.4102 47.0703 -75.9766 C 47.0703 -81.543 42.4805 -86.0352 37.0117 -86.0352 L 26.123 -86.0352 C 20.6543 -86.0352 16.0645 -81.543 16.0645 -75.9766 C 16.0645 -70.4102 20.6543 -65.918 26.123 -65.918 Z M 68.9941 -66.6992 L 147.168 -66.6992 C 152.295 -66.6992 156.396 -70.8008 156.396 -75.9766 C 156.396 -81.1035 152.344 -85.2051 147.168 -85.2051 L 68.9941 -85.2051 C 63.8672 -85.2051 59.7168 -81.1523 59.7168 -75.9766 C 59.7168 -70.8496 63.8184 -66.6992 68.9941 -66.6992 Z M 26.123 -25.0977 L 37.0117 -25.0977 C 42.4805 -25.0977 47.0703 -29.6387 47.0703 -35.2051 C 47.0703 -40.7227 42.4805 -45.2637 37.0117 -45.2637 L 26.123 -45.2637 C 20.6543 -45.2637 16.0645 -40.7227 16.0645 -35.2051 C 16.0645 -29.6387 20.6543 -25.0977 26.123 -25.0977 Z M 68.9941 -25.9277 L 147.168 -25.9277 C 152.295 -25.9277 156.396 -29.9805 156.396 -35.2051 C 156.396 -40.332 152.344 -44.4336 147.168 -44.4336 L 68.9941 -44.4336 C 63.8672 -44.4336 59.7168 -40.3809 59.7168 -35.2051 C 59.7168 -30.0781 63.8184 -25.9277 68.9941 -25.9277 Z M 26.123 15.6738 L 37.0117 15.6738 C 42.4805 15.6738 47.0703 11.1328 47.0703 5.56641 C 47.0703 0.0488281 42.4805 -4.49219 37.0117 -4.49219 L 26.123 -4.49219 C 20.6543 -4.49219 16.0645 0.0488281 16.0645 5.56641 C 16.0645 11.1328 20.6543 15.6738 26.123 15.6738 Z M 68.9941 14.8438 L 147.168 14.8438 C 152.295 14.8438 156.396 10.791 156.396 5.56641 C 156.396 0.439453 152.344 -3.66211 147.168 -3.66211 L 68.9941 -3.66211 C 63.8672 -3.66211 59.7168 0.390625 59.7168 5.56641 C 59.7168 10.6934 63.8184 14.8438 68.9941 14.8438 Z"/>
  </g>
  <g id="Heavy-L" transform="matrix(1 0 0 1 2552.19 1556)">
   <path d="M 25.0977 -66.2109 L 35.8887 -66.2109 C 40.8203 -66.2109 44.9707 -70.3125 44.9707 -75.2441 C 44.9707 -80.2734 40.8203 -84.3262 35.8887 -84.3262 L 25.0977 -84.3262 C 20.166 -84.3262 16.0645 -80.2734 16.0645 -75.2441 C 16.0645 -70.3125 20.166 -66.2109 25.0977 -66.2109 Z M 65.8691 -67.1875 L 144.824 -67.1875 C 149.365 -67.1875 152.93 -70.7031 152.93 -75.2441 C 152.93 -79.7852 149.365 -83.3496 144.824 -83.3496 L 65.8691 -83.3496 C 61.377 -83.3496 57.8125 -79.834 57.8125 -75.2441 C 57.8125 -70.752 61.3281 -67.1875 65.8691 -67.1875 Z M 25.0977 -26.123 L 35.8887 -26.123 C 40.8203 -26.123 44.9707 -30.2246 44.9707 -35.2051 C 44.9707 -40.1855 40.8203 -44.2383 35.8887 -44.2383 L 25.0977 -44.2383 C 20.166 -44.2383 16.0645 -40.1855 16.0645 -35.2051 C 16.0645 -30.2246 20.166 -26.123 25.0977 -26.123 Z M 65.8691 -27.0996 L 144.824 -27.0996 C 149.365 -27.0996 152.93 -30.6641 152.93 -35.2051 C 152.93 -39.6973 149.365 -43.2617 144.824 -43.2617 L 65.8691 -43.2617 C 61.377 -43.2617 57.8125 -39.7461 57.8125 -35.2051 C 57.8125 -30.7129 61.3281 -27.0996 65.8691 -27.0996 Z M 25.0977 13.9648 L 35.8887 13.9648 C 40.8203 13.9648 44.9707 9.86328 44.9707 4.88281 C 44.9707 -0.0976562 40.8203 -4.15039 35.8887 -4.15039 L 25.0977 -4.15039 C 20.166 -4.15039 16.0645 -0.0976562 16.0645 4.88281 C 16.0645 9.86328 20.166 13.9648 25.0977 13.9648 Z M 65.8691 12.9883 L 144.824 12.9883 C 149.365 12.9883 152.93 9.42383 152.93 4.88281 C 152.93 0.390625 149.365 -3.17383 144.824 -3.17383 L 65.8691 -3.17383 C 61.377 -3.17383 57.8125 0.341797 57.8125 4.88281 C 57.8125 9.375 61.3281 12.9883 65.8691 12.9883 Z"/>
  </g>
  <g id="Bold-L" transform="matrix(1 0 0 1 2257.43 1556)">
   <path d="M 23.9746 -66.5527 L 34.668 -66.5527 C 38.9648 -66.5527 42.5781 -70.166 42.5781 -74.5117 C 42.5781 -78.8574 38.9648 -82.4219 34.668 -82.4219 L 23.9746 -82.4219 C 19.6289 -82.4219 16.0645 -78.8574 16.0645 -74.5117 C 16.0645 -70.166 19.6289 -66.5527 23.9746 -66.5527 Z M 62.4023 -67.7246 L 142.236 -67.7246 C 146.045 -67.7246 149.023 -70.6543 149.023 -74.5117 C 149.023 -78.2715 146.045 -81.25 142.236 -81.25 L 62.4023 -81.25 C 58.5938 -81.25 55.6152 -78.3203 55.6152 -74.5117 C 55.6152 -70.7031 58.5938 -67.7246 62.4023 -67.7246 Z M 23.9746 -27.2461 L 34.668 -27.2461 C 38.9648 -27.2461 42.5781 -30.8594 42.5781 -35.2051 C 42.5781 -39.5508 38.9648 -43.1152 34.668 -43.1152 L 23.9746 -43.1152 C 19.6289 -43.1152 16.0645 -39.5508 16.0645 -35.2051 C 16.0645 -30.8594 19.6289 -27.2461 23.9746 -27.2461 Z M 62.4023 -28.418 L 142.236 -28.418 C 146.045 -28.418 149.023 -31.3477 149.023 -35.2051 C 149.023 -38.9648 146.045 -41.9922 142.236 -41.9922 L 62.4023 -41.9922 C 58.5938 -41.9922 55.6152 -39.0137 55.6152 -35.2051 C 55.6152 -31.3965 58.5938 -28.418 62.4023 -28.418 Z M 23.9746 12.0117 L 34.668 12.0117 C 38.9648 12.0117 42.5781 8.44727 42.5781 4.10156 C 42.5781 -0.292969 38.9648 -3.80859 34.668 -3.80859 L 23.9746 -3.80859 C 19.6289 -3.80859 16.0645 -0.292969 16.0645 4.10156 C 16.0645 8.44727 19.6289 12.0117 23.9746 12.0117 Z M 62.4023 10.8887 L 142.236 10.8887 C 146.045 10.8887 149.023 7.91016 149.023 4.10156 C 149.023 0.341797 146.045 -2.68555 142.236 -2.68555 L 62.4023 -2.68555 C 58.5938 -2.68555 55.6152 0.292969 55.6152 4.10156 C 55.6152 7.91016 58.5938 10.8887 62.4023 10.8887 Z"/>
  </g>
  <g id="Semibold-L" transform="matrix(1 0 0 1 1962.07 1556)">
   <path d="M 23.1934 -66.7969 L 33.7891 -66.7969 C 37.6953 -66.7969 40.918 -70.0195 40.918 -73.9258 C 40.918 -77.8809 37.6953 -81.1035 33.7891 -81.1035 L 23.1934 -81.1035 C 19.2871 -81.1035 16.0645 -77.8809 16.0645 -73.9258 C 16.0645 -70.0195 19.2871 -66.7969 23.1934 -66.7969 Z M 60.0098 -68.0664 L 140.43 -68.0664 C 143.75 -68.0664 146.338 -70.6543 146.338 -73.9258 C 146.338 -77.2461 143.75 -79.834 140.43 -79.834 L 60.0098 -79.834 C 56.6895 -79.834 54.1016 -77.2461 54.1016 -73.9258 C 54.1016 -70.6543 56.6895 -68.0664 60.0098 -68.0664 Z M 23.1934 -28.0762 L 33.7891 -28.0762 C 37.6953 -28.0762 40.918 -31.2988 40.918 -35.2051 C 40.918 -39.1602 37.6953 -42.334 33.7891 -42.334 L 23.1934 -42.334 C 19.2871 -42.334 16.0645 -39.1602 16.0645 -35.2051 C 16.0645 -31.2988 19.2871 -28.0762 23.1934 -28.0762 Z M 60.0098 -29.2969 L 140.43 -29.2969 C 143.75 -29.2969 146.338 -31.8848 146.338 -35.2051 C 146.338 -38.4766 143.75 -41.0645 140.43 -41.0645 L 60.0098 -41.0645 C 56.6895 -41.0645 54.1016 -38.5254 54.1016 -35.2051 C 54.1016 -31.8848 56.6895 -29.2969 60.0098 -29.2969 Z M 23.1934 10.6934 L 33.7891 10.6934 C 37.6953 10.6934 40.918 7.4707 40.918 3.56445 C 40.918 -0.390625 37.6953 -3.56445 33.7891 -3.56445 L 23.1934 -3.56445 C 19.2871 -3.56445 16.0645 -0.390625 16.0645 3.56445 C 16.0645 7.4707 19.2871 10.6934 23.1934 10.6934 Z M 60.0098 9.47266 L 140.43 9.47266 C 143.75 9.47266 146.338 6.88477 146.338 3.56445 C 146.338 0.292969 143.75 -2.29492 140.43 -2.29492 L 60.0098 -2.29492 C 56.6895 -2.29492 54.1016 0.244141 54.1016 3.56445 C 54.1016 6.88477 56.6895 9.47266 60.0098 9.47266 Z"/>
  </g>
  <g id="Medium-L" transform="matrix(1 0 0 1 1666.38 1556)">
   <path d="M 22.6074 -66.9922 L 33.1055 -66.9922 C 36.7188 -66.9922 39.6973 -69.9707 39.6973 -73.5352 C 39.6973 -77.1484 36.7188 -80.0781 33.1055 -80.0781 L 22.6074 -80.0781 C 18.9941 -80.0781 16.0645 -77.1484 16.0645 -73.5352 C 16.0645 -69.9707 18.9941 -66.9922 22.6074 -66.9922 Z M 58.2031 -68.3105 L 139.062 -68.3105 C 141.992 -68.3105 144.287 -70.6055 144.287 -73.5352 C 144.287 -76.4648 142.041 -78.7598 139.062 -78.7598 L 58.2031 -78.7598 C 55.2734 -78.7598 52.9785 -76.4648 52.9785 -73.5352 C 52.9785 -70.6055 55.2734 -68.3105 58.2031 -68.3105 Z M 22.6074 -28.6621 L 33.1055 -28.6621 C 36.7188 -28.6621 39.6973 -31.5918 39.6973 -35.2051 C 39.6973 -38.8184 36.7188 -41.748 33.1055 -41.748 L 22.6074 -41.748 C 18.9941 -41.748 16.0645 -38.8184 16.0645 -35.2051 C 16.0645 -31.5918 18.9941 -28.6621 22.6074 -28.6621 Z M 58.2031 -29.9805 L 139.062 -29.9805 C 141.992 -29.9805 144.287 -32.2266 144.287 -35.2051 C 144.287 -38.1348 142.041 -40.3809 139.062 -40.3809 L 58.2031 -40.3809 C 55.2734 -40.3809 52.9785 -38.1348 52.9785 -35.2051 C 52.9785 -32.2754 55.2734 -29.9805 58.2031 -29.9805 Z M 22.6074 9.7168 L 33.1055 9.7168 C 36.7188 9.7168 39.6973 6.73828 39.6973 3.17383 C 39.6973 -0.488281 36.7188 -3.36914 33.1055 -3.36914 L 22.6074 -3.36914 C 18.9941 -3.36914 16.0645 -0.488281 16.0645 3.17383 C 16.0645 6.73828 18.9941 9.7168 22.6074 9.7168 Z M 58.2031 8.39844 L 139.062 8.39844 C 141.992 8.39844 144.287 6.10352 144.287 3.17383 C 144.287 0.244141 142.041 -2.05078 139.062 -2.05078 L 58.2031 -2.05078 C 55.2734 -2.05078 52.9785 0.244141 52.9785 3.17383 C 52.9785 6.10352 55.2734 8.39844 58.2031 8.39844 Z"/>
  </g>
  <g id="Regular-L" transform="matrix(1 0 0 1 1370.99 1556)">
   <path d="M 21.8262 -67.2363 L 32.2754 -67.2363 C 35.4492 -67.2363 38.0859 -69.873 38.0859 -72.998 C 38.0859 -76.2207 35.4492 -78.7598 32.2754 -78.7598 L 21.8262 -78.7598 C 18.6523 -78.7598 16.0645 -76.2207 16.0645 -72.998 C 16.0645 -69.873 18.6523 -67.2363 21.8262 -67.2363 Z M 55.8105 -68.7012 L 137.305 -68.7012 C 139.746 -68.7012 141.65 -70.5566 141.65 -72.998 C 141.65 -75.4395 139.746 -77.3438 137.305 -77.3438 L 55.8105 -77.3438 C 53.3691 -77.3438 51.5137 -75.4395 51.5137 -72.998 C 51.5137 -70.5566 53.3691 -68.7012 55.8105 -68.7012 Z M 21.8262 -29.4434 L 32.2754 -29.4434 C 35.4492 -29.4434 38.0859 -32.0312 38.0859 -35.2051 C 38.0859 -38.3789 35.4492 -40.9668 32.2754 -40.9668 L 21.8262 -40.9668 C 18.6523 -40.9668 16.0645 -38.3789 16.0645 -35.2051 C 16.0645 -32.0312 18.6523 -29.4434 21.8262 -29.4434 Z M 55.8105 -30.8594 L 137.305 -30.8594 C 139.746 -30.8594 141.65 -32.7637 141.65 -35.2051 C 141.65 -37.6465 139.746 -39.502 137.305 -39.502 L 55.8105 -39.502 C 53.3691 -39.502 51.5137 -37.6465 51.5137 -35.2051 C 51.5137 -32.7637 53.3691 -30.8594 55.8105 -30.8594 Z M 21.8262 8.39844 L 32.2754 8.39844 C 35.4492 8.39844 38.0859 5.81055 38.0859 2.63672 C 38.0859 -0.585938 35.4492 -3.125 32.2754 -3.125 L 21.8262 -3.125 C 18.6523 -3.125 16.0645 -0.585938 16.0645 2.63672 C 16.0645 5.81055 18.6523 8.39844 21.8262 8.39844 Z M 55.8105 6.93359 L 137.305 6.93359 C 139.746 6.93359 141.65 5.07812 141.65 2.63672 C 141.65 0.195312 139.746 -1.70898 137.305 -1.70898 L 55.8105 -1.70898 C 53.3691 -1.70898 51.5137 0.195312 51.5137 2.63672 C 51.5137 5.07812 53.3691 6.93359 55.8105 6.93359 Z"/>
  </g>
  <g id="Light-L" transform="matrix(1 0 0 1 1075.2 1556)">
   <path d="M 21.1914 -67.5781 L 31.1523 -67.5781 C 33.9844 -67.5781 36.2793 -69.873 36.2793 -72.6562 C 36.2793 -75.4395 33.9844 -77.7344 31.1523 -77.7344 L 21.1914 -77.7344 C 18.3594 -77.7344 16.0645 -75.4395 16.0645 -72.6562 C 16.0645 -69.873 18.3594 -67.5781 21.1914 -67.5781 Z M 52.6855 -69.3359 L 136.475 -69.3359 C 138.379 -69.3359 139.795 -70.752 139.795 -72.6562 C 139.795 -74.5117 138.379 -75.9277 136.475 -75.9277 L 52.6855 -75.9277 C 50.7812 -75.9277 49.3652 -74.5117 49.3652 -72.6562 C 49.3652 -70.752 50.7812 -69.3359 52.6855 -69.3359 Z M 21.1914 -30.127 L 31.1523 -30.127 C 33.9844 -30.127 36.2793 -32.4219 36.2793 -35.2051 C 36.2793 -37.9883 33.9844 -40.2832 31.1523 -40.2832 L 21.1914 -40.2832 C 18.3594 -40.2832 16.0645 -37.9883 16.0645 -35.2051 C 16.0645 -32.4219 18.3594 -30.127 21.1914 -30.127 Z M 52.6855 -31.8848 L 136.475 -31.8848 C 138.379 -31.8848 139.795 -33.3008 139.795 -35.2051 C 139.795 -37.0605 138.379 -38.4766 136.475 -38.4766 L 52.6855 -38.4766 C 50.7812 -38.4766 49.3652 -37.0605 49.3652 -35.2051 C 49.3652 -33.3008 50.7812 -31.8848 52.6855 -31.8848 Z M 21.1914 7.32422 L 31.1523 7.32422 C 33.9844 7.32422 36.2793 5.0293 36.2793 2.24609 C 36.2793 -0.537109 33.9844 -2.83203 31.1523 -2.83203 L 21.1914 -2.83203 C 18.3594 -2.83203 16.0645 -0.537109 16.0645 2.24609 C 16.0645 5.0293 18.3594 7.32422 21.1914 7.32422 Z M 52.6855 5.56641 L 136.475 5.56641 C 138.379 5.56641 139.795 4.15039 139.795 2.24609 C 139.795 0.390625 138.379 -1.02539 136.475 -1.02539 L 52.6855 -1.02539 C 50.7812 -1.02539 49.3652 0.390625 49.3652 2.24609 C 49.3652 4.15039 50.7812 5.56641 52.6855 5.56641 Z"/>
  </g>
  <g id="Thin-L" transform="matrix(1 0 0 1 779.713 1556)">
   <path d="M 20.3125 -67.9688 L 29.6387 -67.9688 C 32.0312 -67.9688 33.8867 -69.873 33.8867 -72.168 C 33.8867 -74.4629 32.0312 -76.3184 29.6387 -76.3184 L 20.3125 -76.3184 C 18.0176 -76.3184 16.0645 -74.4629 16.0645 -72.168 C 16.0645 -69.873 18.0176 -67.9688 20.3125 -67.9688 Z M 48.5352 -70.166 L 135.4 -70.166 C 136.523 -70.166 137.354 -70.9961 137.354 -72.168 C 137.354 -73.291 136.523 -74.1211 135.4 -74.1211 L 48.5352 -74.1211 C 47.3633 -74.1211 46.582 -73.291 46.582 -72.168 C 46.582 -70.9961 47.3633 -70.166 48.5352 -70.166 Z M 20.3125 -31.0059 L 29.6387 -31.0059 C 32.0312 -31.0059 33.8867 -32.9102 33.8867 -35.2051 C 33.8867 -37.5 32.0312 -39.3555 29.6387 -39.3555 L 20.3125 -39.3555 C 18.0176 -39.3555 16.0645 -37.5 16.0645 -35.2051 C 16.0645 -32.9102 18.0176 -31.0059 20.3125 -31.0059 Z M 48.5352 -33.2031 L 135.4 -33.2031 C 136.523 -33.2031 137.354 -34.0332 137.354 -35.2051 C 137.354 -36.3281 136.523 -37.1582 135.4 -37.1582 L 48.5352 -37.1582 C 47.3633 -37.1582 46.582 -36.3281 46.582 -35.2051 C 46.582 -34.0332 47.3633 -33.2031 48.5352 -33.2031 Z M 20.3125 5.95703 L 29.6387 5.95703 C 32.0312 5.95703 33.8867 4.05273 33.8867 1.75781 C 33.8867 -0.537109 32.0312 -2.39258 29.6387 -2.39258 L 20.3125 -2.39258 C 18.0176 -2.39258 16.0645 -0.537109 16.0645 1.75781 C 16.0645 4.05273 18.0176 5.95703 20.3125 5.95703 Z M 48.5352 3.75977 L 135.4 3.75977 C 136.523 3.75977 137.354 2.92969 137.354 1.75781 C 137.354 0.634766 136.523 -0.195312 135.4 -0.195312 L 48.5352 -0.195312 C 47.3633 -0.195312 46.582 0.634766 46.582 1.75781 C 46.582 2.92969 47.3633 3.75977 48.5352 3.75977 Z"/>
  </g>
  <g id="Ultralight-L" transform="matrix(1 0 0 1 483.637 1556)">
   <path d="M 19.873 -68.1641 L 28.9062 -68.1641 C 31.0059 -68.1641 32.666 -69.873 32.666 -71.9238 C 32.666 -73.9258 31.0059 -75.6348 28.9062 -75.6348 L 19.873 -75.6348 C 17.8223 -75.6348 16.0645 -73.9258 16.0645 -71.9238 C 16.0645 -69.873 17.8223 -68.1641 19.873 -68.1641 Z M 46.3867 -70.6055 L 134.814 -70.6055 C 135.596 -70.6055 136.084 -71.0938 136.084 -71.9238 C 136.084 -72.7051 135.596 -73.1934 134.814 -73.1934 L 46.3867 -73.1934 C 45.6055 -73.1934 45.1172 -72.7051 45.1172 -71.9238 C 45.1172 -71.0938 45.6055 -70.6055 46.3867 -70.6055 Z M 19.873 -31.4941 L 28.9062 -31.4941 C 31.0059 -31.4941 32.666 -33.1543 32.666 -35.2051 C 32.666 -37.2559 31.0059 -38.916 28.9062 -38.916 L 19.873 -38.916 C 17.8223 -38.916 16.0645 -37.2559 16.0645 -35.2051 C 16.0645 -33.1543 17.8223 -31.4941 19.873 -31.4941 Z M 46.3867 -33.9355 L 134.814 -33.9355 C 135.596 -33.9355 136.084 -34.4238 136.084 -35.2051 C 136.084 -35.9863 135.596 -36.4746 134.814 -36.4746 L 46.3867 -36.4746 C 45.6055 -36.4746 45.1172 -35.9863 45.1172 -35.2051 C 45.1172 -34.4238 45.6055 -33.9355 46.3867 -33.9355 Z M 19.873 5.22461 L 28.9062 5.22461 C 31.0059 5.22461 32.666 3.56445 32.666 1.51367 C 32.666 -0.537109 31.0059 -2.19727 28.9062 -2.19727 L 19.873 -2.19727 C 17.8223 -2.19727 16.0645 -0.537109 16.0645 1.51367 C 16.0645 3.56445 17.8223 5.22461 19.873 5.22461 Z M 46.3867 2.7832 L 134.814 2.7832 C 135.596 2.7832 136.084 2.29492 136.084 1.51367 C 136.084 0.732422 135.596 0.244141 134.814 0.244141 L 46.3867 0.244141 C 45.6055 0.244141 45.1172 0.732422 45.1172 1.51367 C 45.1172 2.29492 45.6055 2.7832 46.3867 2.7832 Z"/>
  </g>
  <g id="Black-M" transform="matrix(1 0 0 1 2864.7 1126)">
   <path d="M 21.2402 -58.7402 L 29.5898 -58.7402 C 34.375 -58.7402 38.4277 -62.6953 38.4277 -67.5293 C 38.4277 -72.3633 34.375 -76.3672 29.5898 -76.3672 L 21.2402 -76.3672 C 16.5039 -76.3672 12.4512 -72.3633 12.4512 -67.5293 C 12.4512 -62.6953 16.5039 -58.7402 21.2402 -58.7402 Z M 55.957 -59.375 L 116.748 -59.375 C 121.289 -59.375 124.951 -62.9395 124.951 -67.5293 C 124.951 -72.0703 121.338 -75.7324 116.748 -75.7324 L 55.957 -75.7324 C 51.416 -75.7324 47.8027 -72.1191 47.8027 -67.5293 C 47.8027 -62.9883 51.3672 -59.375 55.957 -59.375 Z M 21.2402 -26.3672 L 29.5898 -26.3672 C 34.375 -26.3672 38.4277 -30.3711 38.4277 -35.2051 C 38.4277 -40.0391 34.375 -43.9941 29.5898 -43.9941 L 21.2402 -43.9941 C 16.5039 -43.9941 12.4512 -40.0391 12.4512 -35.2051 C 12.4512 -30.3711 16.5039 -26.3672 21.2402 -26.3672 Z M 55.957 -27.002 L 116.748 -27.002 C 121.289 -27.002 124.951 -30.6152 124.951 -35.2051 C 124.951 -39.7461 121.338 -43.4082 116.748 -43.4082 L 55.957 -43.4082 C 51.416 -43.4082 47.8027 -39.7949 47.8027 -35.2051 C 47.8027 -30.6641 51.3672 -27.002 55.957 -27.002 Z M 21.2402 5.95703 L 29.5898 5.95703 C 34.375 5.95703 38.4277 2.00195 38.4277 -2.83203 C 38.4277 -7.71484 34.375 -11.6699 29.5898 -11.6699 L 21.2402 -11.6699 C 16.5039 -11.6699 12.4512 -7.71484 12.4512 -2.83203 C 12.4512 2.00195 16.5039 5.95703 21.2402 5.95703 Z M 55.957 5.32227 L 116.748 5.32227 C 121.289 5.32227 124.951 1.75781 124.951 -2.83203 C 124.951 -7.37305 121.338 -11.0352 116.748 -11.0352 L 55.957 -11.0352 C 51.416 -11.0352 47.8027 -7.4707 47.8027 -2.83203 C 47.8027 1.66016 51.3672 5.32227 55.957 5.32227 Z"/>
  </g>
  <g id="Heavy-M" transform="matrix(1 0 0 1 2569.65 1126)">
   <path d="M 20.3125 -58.9844 L 28.6621 -58.9844 C 32.959 -58.9844 36.5723 -62.5488 36.5723 -66.8945 C 36.5723 -71.2402 32.959 -74.7559 28.6621 -74.7559 L 20.3125 -74.7559 C 16.0156 -74.7559 12.4512 -71.2402 12.4512 -66.8945 C 12.4512 -62.5488 16.0156 -58.9844 20.3125 -58.9844 Z M 53.418 -59.7168 L 114.404 -59.7168 C 118.408 -59.7168 121.631 -62.8418 121.631 -66.8945 C 121.631 -70.8496 118.457 -74.0723 114.404 -74.0723 L 53.418 -74.0723 C 49.4141 -74.0723 46.1914 -70.8984 46.1914 -66.8945 C 46.1914 -62.8906 49.3652 -59.7168 53.418 -59.7168 Z M 20.3125 -27.3438 L 28.6621 -27.3438 C 32.959 -27.3438 36.5723 -30.8594 36.5723 -35.2051 C 36.5723 -39.5508 32.959 -43.0664 28.6621 -43.0664 L 20.3125 -43.0664 C 16.0156 -43.0664 12.4512 -39.5508 12.4512 -35.2051 C 12.4512 -30.8594 16.0156 -27.3438 20.3125 -27.3438 Z M 53.418 -28.0273 L 114.404 -28.0273 C 118.408 -28.0273 121.631 -31.1523 121.631 -35.2051 C 121.631 -39.1602 118.457 -42.3828 114.404 -42.3828 L 53.418 -42.3828 C 49.4141 -42.3828 46.1914 -39.209 46.1914 -35.2051 C 46.1914 -31.2012 49.3652 -28.0273 53.418 -28.0273 Z M 20.3125 4.3457 L 28.6621 4.3457 C 32.959 4.3457 36.5723 0.830078 36.5723 -3.51562 C 36.5723 -7.86133 32.959 -11.377 28.6621 -11.377 L 20.3125 -11.377 C 16.0156 -11.377 12.4512 -7.86133 12.4512 -3.51562 C 12.4512 0.830078 16.0156 4.3457 20.3125 4.3457 Z M 53.418 3.66211 L 114.404 3.66211 C 118.408 3.66211 121.631 0.537109 121.631 -3.51562 C 121.631 -7.51953 118.457 -10.6934 114.404 -10.6934 L 53.418 -10.6934 C 49.4141 -10.6934 46.1914 -7.56836 46.1914 -3.51562 C 46.1914 0.488281 49.3652 3.66211 53.418 3.66211 Z"/>
  </g>
  <g id="Bold-M" transform="matrix(1 0 0 1 2274.82 1126)">
   <path d="M 19.2871 -59.2773 L 27.6367 -59.2773 C 31.3477 -59.2773 34.4727 -62.4023 34.4727 -66.1133 C 34.4727 -69.9219 31.3477 -72.9492 27.6367 -72.9492 L 19.2871 -72.9492 C 15.5273 -72.9492 12.4512 -69.9219 12.4512 -66.1133 C 12.4512 -62.4023 15.5273 -59.2773 19.2871 -59.2773 Z M 50.5371 -60.0586 L 111.816 -60.0586 C 115.186 -60.0586 117.871 -62.7441 117.871 -66.1133 C 117.871 -69.4824 115.234 -72.168 111.816 -72.168 L 50.5371 -72.168 C 47.1191 -72.168 44.4336 -69.5312 44.4336 -66.1133 C 44.4336 -62.7441 47.1191 -60.0586 50.5371 -60.0586 Z M 19.2871 -28.3691 L 27.6367 -28.3691 C 31.3477 -28.3691 34.4727 -31.4453 34.4727 -35.2051 C 34.4727 -38.9648 31.3477 -42.041 27.6367 -42.041 L 19.2871 -42.041 C 15.5273 -42.041 12.4512 -38.9648 12.4512 -35.2051 C 12.4512 -31.4453 15.5273 -28.3691 19.2871 -28.3691 Z M 50.5371 -29.1504 L 111.816 -29.1504 C 115.186 -29.1504 117.871 -31.7871 117.871 -35.2051 C 117.871 -38.5742 115.234 -41.2598 111.816 -41.2598 L 50.5371 -41.2598 C 47.1191 -41.2598 44.4336 -38.623 44.4336 -35.2051 C 44.4336 -31.8359 47.1191 -29.1504 50.5371 -29.1504 Z M 19.2871 2.58789 L 27.6367 2.58789 C 31.3477 2.58789 34.4727 -0.537109 34.4727 -4.24805 C 34.4727 -8.05664 31.3477 -11.084 27.6367 -11.084 L 19.2871 -11.084 C 15.5273 -11.084 12.4512 -8.05664 12.4512 -4.24805 C 12.4512 -0.537109 15.5273 2.58789 19.2871 2.58789 Z M 50.5371 1.80664 L 111.816 1.80664 C 115.186 1.80664 117.871 -0.878906 117.871 -4.24805 C 117.871 -7.61719 115.234 -10.3027 111.816 -10.3027 L 50.5371 -10.3027 C 47.1191 -10.3027 44.4336 -7.66602 44.4336 -4.24805 C 44.4336 -0.878906 47.1191 1.80664 50.5371 1.80664 Z"/>
  </g>
  <g id="Semibold-M" transform="matrix(1 0 0 1 1979.38 1126)">
   <path d="M 18.5547 -59.5215 L 26.9043 -59.5215 C 30.2734 -59.5215 33.0078 -62.2559 33.0078 -65.625 C 33.0078 -68.9941 30.2734 -71.7285 26.9043 -71.7285 L 18.5547 -71.7285 C 15.1855 -71.7285 12.4512 -68.9941 12.4512 -65.625 C 12.4512 -62.2559 15.1855 -59.5215 18.5547 -59.5215 Z M 48.5352 -60.3516 L 110.01 -60.3516 C 112.988 -60.3516 115.332 -62.6465 115.332 -65.625 C 115.332 -68.5547 112.988 -70.8984 110.01 -70.8984 L 48.5352 -70.8984 C 45.5566 -70.8984 43.2617 -68.6035 43.2617 -65.625 C 43.2617 -62.6465 45.5566 -60.3516 48.5352 -60.3516 Z M 18.5547 -29.1016 L 26.9043 -29.1016 C 30.2734 -29.1016 33.0078 -31.8359 33.0078 -35.2051 C 33.0078 -38.5742 30.2734 -41.3086 26.9043 -41.3086 L 18.5547 -41.3086 C 15.1855 -41.3086 12.4512 -38.5742 12.4512 -35.2051 C 12.4512 -31.8359 15.1855 -29.1016 18.5547 -29.1016 Z M 48.5352 -29.9316 L 110.01 -29.9316 C 112.988 -29.9316 115.332 -32.2266 115.332 -35.2051 C 115.332 -38.1348 112.988 -40.4785 110.01 -40.4785 L 48.5352 -40.4785 C 45.5566 -40.4785 43.2617 -38.1836 43.2617 -35.2051 C 43.2617 -32.2266 45.5566 -29.9316 48.5352 -29.9316 Z M 18.5547 1.31836 L 26.9043 1.31836 C 30.2734 1.31836 33.0078 -1.41602 33.0078 -4.78516 C 33.0078 -8.1543 30.2734 -10.8887 26.9043 -10.8887 L 18.5547 -10.8887 C 15.1855 -10.8887 12.4512 -8.1543 12.4512 -4.78516 C 12.4512 -1.41602 15.1855 1.31836 18.5547 1.31836 Z M 48.5352 0.488281 L 110.01 0.488281 C 112.988 0.488281 115.332 -1.80664 115.332 -4.78516 C 115.332 -7.71484 112.988 -10.0586 110.01 -10.0586 L 48.5352 -10.0586 C 45.5566 -10.0586 43.2617 -7.76367 43.2617 -4.78516 C 43.2617 -1.80664 45.5566 0.488281 48.5352 0.488281 Z"/>
  </g>
  <g id="Medium-M" transform="matrix(1 0 0 1 1683.64 1126)">
   <path d="M 17.9688 -59.668 L 26.3672 -59.668 C 29.3945 -59.668 31.9336 -62.1582 31.9336 -65.2344 C 31.9336 -68.3105 29.3945 -70.8008 26.3672 -70.8008 L 17.9688 -70.8008 C 14.9414 -70.8008 12.4512 -68.3105 12.4512 -65.2344 C 12.4512 -62.1582 14.9414 -59.668 17.9688 -59.668 Z M 47.0215 -60.5469 L 108.643 -60.5469 C 111.279 -60.5469 113.379 -62.5977 113.379 -65.2344 C 113.379 -67.8711 111.328 -69.9219 108.643 -69.9219 L 47.0215 -69.9219 C 44.3848 -69.9219 42.334 -67.8711 42.334 -65.2344 C 42.334 -62.5977 44.3848 -60.5469 47.0215 -60.5469 Z M 17.9688 -29.6387 L 26.3672 -29.6387 C 29.3945 -29.6387 31.9336 -32.1289 31.9336 -35.2051 C 31.9336 -38.2812 29.3945 -40.7715 26.3672 -40.7715 L 17.9688 -40.7715 C 14.9414 -40.7715 12.4512 -38.2812 12.4512 -35.2051 C 12.4512 -32.1289 14.9414 -29.6387 17.9688 -29.6387 Z M 47.0215 -30.5176 L 108.643 -30.5176 C 111.279 -30.5176 113.379 -32.5684 113.379 -35.2051 C 113.379 -37.8418 111.328 -39.8926 108.643 -39.8926 L 47.0215 -39.8926 C 44.3848 -39.8926 42.334 -37.8418 42.334 -35.2051 C 42.334 -32.5684 44.3848 -30.5176 47.0215 -30.5176 Z M 17.9688 0.390625 L 26.3672 0.390625 C 29.3945 0.390625 31.9336 -2.09961 31.9336 -5.17578 C 31.9336 -8.25195 29.3945 -10.7422 26.3672 -10.7422 L 17.9688 -10.7422 C 14.9414 -10.7422 12.4512 -8.25195 12.4512 -5.17578 C 12.4512 -2.09961 14.9414 0.390625 17.9688 0.390625 Z M 47.0215 -0.488281 L 108.643 -0.488281 C 111.279 -0.488281 113.379 -2.53906 113.379 -5.17578 C 113.379 -7.8125 111.328 -9.86328 108.643 -9.86328 L 47.0215 -9.86328 C 44.3848 -9.86328 42.334 -7.8125 42.334 -5.17578 C 42.334 -2.53906 44.3848 -0.488281 47.0215 -0.488281 Z"/>
  </g>
  <g id="Regular-M" transform="matrix(1 0 0 1 1388.2 1126)">
   <path d="M 17.2852 -59.8633 L 25.6348 -59.8633 C 28.3203 -59.8633 30.5176 -62.0605 30.5176 -64.6973 C 30.5176 -67.4316 28.3203 -69.5801 25.6348 -69.5801 L 17.2852 -69.5801 C 14.5996 -69.5801 12.4512 -67.4316 12.4512 -64.6973 C 12.4512 -62.0605 14.5996 -59.8633 17.2852 -59.8633 Z M 45.0684 -60.791 L 106.885 -60.791 C 109.082 -60.791 110.84 -62.5 110.84 -64.6973 C 110.84 -66.9434 109.082 -68.6523 106.885 -68.6523 L 45.0684 -68.6523 C 42.8223 -68.6523 41.1133 -66.9434 41.1133 -64.6973 C 41.1133 -62.5 42.8223 -60.791 45.0684 -60.791 Z M 17.2852 -30.3223 L 25.6348 -30.3223 C 28.3203 -30.3223 30.5176 -32.5195 30.5176 -35.2051 C 30.5176 -37.8906 28.3203 -40.0391 25.6348 -40.0391 L 17.2852 -40.0391 C 14.5996 -40.0391 12.4512 -37.8906 12.4512 -35.2051 C 12.4512 -32.5195 14.5996 -30.3223 17.2852 -30.3223 Z M 45.0684 -31.25 L 106.885 -31.25 C 109.082 -31.25 110.84 -33.0078 110.84 -35.2051 C 110.84 -37.4023 109.082 -39.1113 106.885 -39.1113 L 45.0684 -39.1113 C 42.8223 -39.1113 41.1133 -37.4023 41.1133 -35.2051 C 41.1133 -33.0078 42.8223 -31.25 45.0684 -31.25 Z M 17.2852 -0.830078 L 25.6348 -0.830078 C 28.3203 -0.830078 30.5176 -3.02734 30.5176 -5.66406 C 30.5176 -8.39844 28.3203 -10.5469 25.6348 -10.5469 L 17.2852 -10.5469 C 14.5996 -10.5469 12.4512 -8.39844 12.4512 -5.66406 C 12.4512 -3.02734 14.5996 -0.830078 17.2852 -0.830078 Z M 45.0684 -1.75781 L 106.885 -1.75781 C 109.082 -1.75781 110.84 -3.4668 110.84 -5.66406 C 110.84 -7.91016 109.082 -9.61914 106.885 -9.61914 L 45.0684 -9.61914 C 42.8223 -9.61914 41.1133 -7.91016 41.1133 -5.66406 C 41.1133 -3.4668 42.8223 -1.75781 45.0684 -1.75781 Z"/>
  </g>
  <g id="Light-M" transform="matrix(1 0 0 1 1092.32 1126)">
   <path d="M 16.6992 -60.1562 L 24.6582 -60.1562 C 27.002 -60.1562 28.9062 -62.0605 28.9062 -64.4043 C 28.9062 -66.748 27.002 -68.6523 24.6582 -68.6523 L 16.6992 -68.6523 C 14.3555 -68.6523 12.4512 -66.748 12.4512 -64.4043 C 12.4512 -62.0605 14.3555 -60.1562 16.6992 -60.1562 Z M 42.2363 -61.377 L 106.152 -61.377 C 107.861 -61.377 109.18 -62.6953 109.18 -64.4043 C 109.18 -66.1133 107.861 -67.3828 106.152 -67.3828 L 42.2363 -67.3828 C 40.5273 -67.3828 39.209 -66.1133 39.209 -64.4043 C 39.209 -62.6953 40.5273 -61.377 42.2363 -61.377 Z M 16.6992 -30.957 L 24.6582 -30.957 C 27.002 -30.957 28.9062 -32.8613 28.9062 -35.2051 C 28.9062 -37.5488 27.002 -39.4531 24.6582 -39.4531 L 16.6992 -39.4531 C 14.3555 -39.4531 12.4512 -37.5488 12.4512 -35.2051 C 12.4512 -32.8613 14.3555 -30.957 16.6992 -30.957 Z M 42.2363 -32.1777 L 106.152 -32.1777 C 107.861 -32.1777 109.18 -33.4961 109.18 -35.2051 C 109.18 -36.9141 107.861 -38.2324 106.152 -38.2324 L 42.2363 -38.2324 C 40.5273 -38.2324 39.209 -36.9141 39.209 -35.2051 C 39.209 -33.4961 40.5273 -32.1777 42.2363 -32.1777 Z M 16.6992 -1.75781 L 24.6582 -1.75781 C 27.002 -1.75781 28.9062 -3.66211 28.9062 -6.00586 C 28.9062 -8.34961 27.002 -10.2539 24.6582 -10.2539 L 16.6992 -10.2539 C 14.3555 -10.2539 12.4512 -8.34961 12.4512 -6.00586 C 12.4512 -3.66211 14.3555 -1.75781 16.6992 -1.75781 Z M 42.2363 -2.97852 L 106.152 -2.97852 C 107.861 -2.97852 109.18 -4.29688 109.18 -6.00586 C 109.18 -7.71484 107.861 -9.0332 106.152 -9.0332 L 42.2363 -9.0332 C 40.5273 -9.0332 39.209 -7.71484 39.209 -6.00586 C 39.209 -4.29688 40.5273 -2.97852 42.2363 -2.97852 Z"/>
  </g>
  <g id="Thin-M" transform="matrix(1 0 0 1 796.705 1126)">
   <path d="M 15.918 -60.498 L 23.291 -60.498 C 25.2441 -60.498 26.8066 -62.0605 26.8066 -63.9648 C 26.8066 -65.8691 25.2441 -67.3828 23.291 -67.3828 L 15.918 -67.3828 C 14.0625 -67.3828 12.4512 -65.8691 12.4512 -63.9648 C 12.4512 -62.0605 14.0625 -60.498 15.918 -60.498 Z M 38.5254 -62.1582 L 105.176 -62.1582 C 106.201 -62.1582 106.982 -62.8906 106.982 -63.9648 C 106.982 -64.9902 106.201 -65.7715 105.176 -65.7715 L 38.5254 -65.7715 C 37.4512 -65.7715 36.7188 -64.9902 36.7188 -63.9648 C 36.7188 -62.8906 37.4512 -62.1582 38.5254 -62.1582 Z M 15.918 -31.7871 L 23.291 -31.7871 C 25.2441 -31.7871 26.8066 -33.3008 26.8066 -35.2051 C 26.8066 -37.1094 25.2441 -38.623 23.291 -38.623 L 15.918 -38.623 C 14.0625 -38.623 12.4512 -37.1094 12.4512 -35.2051 C 12.4512 -33.3008 14.0625 -31.7871 15.918 -31.7871 Z M 38.5254 -33.3984 L 105.176 -33.3984 C 106.201 -33.3984 106.982 -34.1309 106.982 -35.2051 C 106.982 -36.2793 106.201 -37.0117 105.176 -37.0117 L 38.5254 -37.0117 C 37.4512 -37.0117 36.7188 -36.2793 36.7188 -35.2051 C 36.7188 -34.1309 37.4512 -33.3984 38.5254 -33.3984 Z M 15.918 -3.02734 L 23.291 -3.02734 C 25.2441 -3.02734 26.8066 -4.54102 26.8066 -6.44531 C 26.8066 -8.34961 25.2441 -9.86328 23.291 -9.86328 L 15.918 -9.86328 C 14.0625 -9.86328 12.4512 -8.34961 12.4512 -6.44531 C 12.4512 -4.54102 14.0625 -3.02734 15.918 -3.02734 Z M 38.5254 -4.63867 L 105.176 -4.63867 C 106.201 -4.63867 106.982 -5.37109 106.982 -6.44531 C 106.982 -7.51953 106.201 -8.25195 105.176 -8.25195 L 38.5254 -8.25195 C 37.4512 -8.25195 36.7188 -7.51953 36.7188 -6.44531 C 36.7188 -5.37109 37.4512 -4.63867 38.5254 -4.63867 Z"/>
  </g>
  <g id="Ultralight-M" transform="matrix(1 0 0 1 500.556 1126)">
   <path d="M 15.5273 -60.6934 L 22.6074 -60.6934 C 24.3652 -60.6934 25.6836 -62.0605 25.6836 -63.7207 C 25.6836 -65.3809 24.3652 -66.748 22.6074 -66.748 L 15.5273 -66.748 C 13.8672 -66.748 12.4512 -65.3809 12.4512 -63.7207 C 12.4512 -62.0605 13.8672 -60.6934 15.5273 -60.6934 Z M 36.6211 -62.5488 L 104.639 -62.5488 C 105.371 -62.5488 105.859 -62.9883 105.859 -63.7207 C 105.859 -64.4531 105.371 -64.9414 104.639 -64.9414 L 36.6211 -64.9414 C 35.8887 -64.9414 35.4004 -64.4531 35.4004 -63.7207 C 35.4004 -62.9883 35.8887 -62.5488 36.6211 -62.5488 Z M 15.5273 -32.1777 L 22.6074 -32.1777 C 24.3652 -32.1777 25.6836 -33.5449 25.6836 -35.2051 C 25.6836 -36.8652 24.3652 -38.2324 22.6074 -38.2324 L 15.5273 -38.2324 C 13.8672 -38.2324 12.4512 -36.8652 12.4512 -35.2051 C 12.4512 -33.5449 13.8672 -32.1777 15.5273 -32.1777 Z M 36.6211 -33.9844 L 104.639 -33.9844 C 105.371 -33.9844 105.859 -34.4727 105.859 -35.2051 C 105.859 -35.9375 105.371 -36.377 104.639 -36.377 L 36.6211 -36.377 C 35.8887 -36.377 35.4004 -35.9375 35.4004 -35.2051 C 35.4004 -34.4727 35.8887 -33.9844 36.6211 -33.9844 Z M 15.5273 -3.66211 L 22.6074 -3.66211 C 24.3652 -3.66211 25.6836 -5.0293 25.6836 -6.68945 C 25.6836 -8.34961 24.3652 -9.66797 22.6074 -9.66797 L 15.5273 -9.66797 C 13.8672 -9.66797 12.4512 -8.34961 12.4512 -6.68945 C 12.4512 -5.0293 13.8672 -3.66211 15.5273 -3.66211 Z M 36.6211 -5.46875 L 104.639 -5.46875 C 105.371 -5.46875 105.859 -5.95703 105.859 -6.68945 C 105.859 -7.37305 105.371 -7.86133 104.639 -7.86133 L 36.6211 -7.86133 C 35.8887 -7.86133 35.4004 -7.37305 35.4004 -6.68945 C 35.4004 -5.95703 35.8887 -5.46875 36.6211 -5.46875 Z"/>
  </g>
  <g id="Black-S" transform="matrix(1 0 0 1 2879.69 696)">
   <path d="M 16.6016 -53.6621 L 23.1445 -53.6621 C 26.8555 -53.6621 29.9805 -56.7383 29.9805 -60.498 C 29.9805 -64.2578 26.8555 -67.334 23.1445 -67.334 L 16.6016 -67.334 C 12.8906 -67.334 9.76562 -64.2578 9.76562 -60.498 C 9.76562 -56.7383 12.8906 -53.6621 16.6016 -53.6621 Z M 43.7012 -54.1504 L 91.3086 -54.1504 C 94.8242 -54.1504 97.6562 -56.9336 97.6562 -60.498 C 97.6562 -64.0137 94.873 -66.8457 91.3086 -66.8457 L 43.7012 -66.8457 C 40.1855 -66.8457 37.3535 -64.0625 37.3535 -60.498 C 37.3535 -56.9824 40.1367 -54.1504 43.7012 -54.1504 Z M 16.6016 -28.3691 L 23.1445 -28.3691 C 26.8555 -28.3691 29.9805 -31.4453 29.9805 -35.2051 C 29.9805 -38.9648 26.8555 -42.041 23.1445 -42.041 L 16.6016 -42.041 C 12.8906 -42.041 9.76562 -38.9648 9.76562 -35.2051 C 9.76562 -31.4453 12.8906 -28.3691 16.6016 -28.3691 Z M 43.7012 -28.8574 L 91.3086 -28.8574 C 94.8242 -28.8574 97.6562 -31.6406 97.6562 -35.2051 C 97.6562 -38.7207 94.873 -41.5527 91.3086 -41.5527 L 43.7012 -41.5527 C 40.1855 -41.5527 37.3535 -38.7695 37.3535 -35.2051 C 37.3535 -31.6895 40.1367 -28.8574 43.7012 -28.8574 Z M 16.6016 -3.07617 L 23.1445 -3.07617 C 26.8555 -3.07617 29.9805 -6.15234 29.9805 -9.91211 C 29.9805 -13.6719 26.8555 -16.748 23.1445 -16.748 L 16.6016 -16.748 C 12.8906 -16.748 9.76562 -13.6719 9.76562 -9.91211 C 9.76562 -6.15234 12.8906 -3.07617 16.6016 -3.07617 Z M 43.7012 -3.56445 L 91.3086 -3.56445 C 94.8242 -3.56445 97.6562 -6.34766 97.6562 -9.91211 C 97.6562 -13.4277 94.873 -16.2598 91.3086 -16.2598 L 43.7012 -16.2598 C 40.1855 -16.2598 37.3535 -13.4766 37.3535 -9.91211 C 37.3535 -6.39648 40.1367 -3.56445 43.7012 -3.56445 Z"/>
  </g>
  <g id="Heavy-S" transform="matrix(1 0 0 1 2584.15 696)">
   <path d="M 15.9668 -53.8574 L 22.5586 -53.8574 C 25.9277 -53.8574 28.7109 -56.6406 28.7109 -60.0098 C 28.7109 -63.4277 25.9277 -66.2109 22.5586 -66.2109 L 15.9668 -66.2109 C 12.5977 -66.2109 9.76562 -63.4277 9.76562 -60.0098 C 9.76562 -56.6406 12.5977 -53.8574 15.9668 -53.8574 Z M 42.041 -54.3457 L 89.5996 -54.3457 C 92.7734 -54.3457 95.3125 -56.8359 95.3125 -60.0098 C 95.3125 -63.1836 92.8223 -65.7227 89.5996 -65.7227 L 42.041 -65.7227 C 38.8672 -65.7227 36.377 -63.2324 36.377 -60.0098 C 36.377 -56.8848 38.8672 -54.3457 42.041 -54.3457 Z M 15.9668 -29.0039 L 22.5586 -29.0039 C 25.9277 -29.0039 28.7109 -31.7871 28.7109 -35.2051 C 28.7109 -38.623 25.9277 -41.4062 22.5586 -41.4062 L 15.9668 -41.4062 C 12.5977 -41.4062 9.76562 -38.623 9.76562 -35.2051 C 9.76562 -31.7871 12.5977 -29.0039 15.9668 -29.0039 Z M 42.041 -29.541 L 89.5996 -29.541 C 92.7734 -29.541 95.3125 -32.0312 95.3125 -35.2051 C 95.3125 -38.3789 92.8223 -40.8691 89.5996 -40.8691 L 42.041 -40.8691 C 38.8672 -40.8691 36.377 -38.3789 36.377 -35.2051 C 36.377 -32.0312 38.8672 -29.541 42.041 -29.541 Z M 15.9668 -4.19922 L 22.5586 -4.19922 C 25.9277 -4.19922 28.7109 -6.98242 28.7109 -10.4004 C 28.7109 -13.8184 25.9277 -16.5527 22.5586 -16.5527 L 15.9668 -16.5527 C 12.5977 -16.5527 9.76562 -13.8184 9.76562 -10.4004 C 9.76562 -6.98242 12.5977 -4.19922 15.9668 -4.19922 Z M 42.041 -4.6875 L 89.5996 -4.6875 C 92.7734 -4.6875 95.3125 -7.17773 95.3125 -10.4004 C 95.3125 -13.5254 92.8223 -16.0645 89.5996 -16.0645 L 42.041 -16.0645 C 38.8672 -16.0645 36.377 -13.5742 36.377 -10.4004 C 36.377 -7.22656 38.8672 -4.6875 42.041 -4.6875 Z"/>
  </g>
  <g id="Bold-S" transform="matrix(1 0 0 1 2288.78 696)">
   <path d="M 15.2344 -54.0039 L 21.875 -54.0039 C 24.8535 -54.0039 27.3438 -56.4941 27.3438 -59.4727 C 27.3438 -62.5 24.8535 -64.9902 21.875 -64.9902 L 15.2344 -64.9902 C 12.2559 -64.9902 9.76562 -62.5 9.76562 -59.4727 C 9.76562 -56.4941 12.2559 -54.0039 15.2344 -54.0039 Z M 40.1855 -54.541 L 87.6953 -54.541 C 90.4785 -54.541 92.627 -56.7383 92.627 -59.4727 C 92.627 -62.2559 90.4785 -64.4531 87.6953 -64.4531 L 40.1855 -64.4531 C 37.4512 -64.4531 35.2539 -62.2559 35.2539 -59.4727 C 35.2539 -56.7383 37.4023 -54.541 40.1855 -54.541 Z M 15.2344 -29.7363 L 21.875 -29.7363 C 24.8535 -29.7363 27.3438 -32.2266 27.3438 -35.2051 C 27.3438 -38.2324 24.8535 -40.6738 21.875 -40.6738 L 15.2344 -40.6738 C 12.2559 -40.6738 9.76562 -38.2324 9.76562 -35.2051 C 9.76562 -32.2266 12.2559 -29.7363 15.2344 -29.7363 Z M 40.1855 -30.2734 L 87.6953 -30.2734 C 90.4785 -30.2734 92.627 -32.4219 92.627 -35.2051 C 92.627 -37.9395 90.4785 -40.1367 87.6953 -40.1367 L 40.1855 -40.1367 C 37.4512 -40.1367 35.2539 -37.9883 35.2539 -35.2051 C 35.2539 -32.4707 37.4023 -30.2734 40.1855 -30.2734 Z M 15.2344 -5.46875 L 21.875 -5.46875 C 24.8535 -5.46875 27.3438 -7.91016 27.3438 -10.9375 C 27.3438 -13.916 24.8535 -16.4062 21.875 -16.4062 L 15.2344 -16.4062 C 12.2559 -16.4062 9.76562 -13.916 9.76562 -10.9375 C 9.76562 -7.91016 12.2559 -5.46875 15.2344 -5.46875 Z M 40.1855 -5.95703 L 87.6953 -5.95703 C 90.4785 -5.95703 92.627 -8.1543 92.627 -10.9375 C 92.627 -13.6719 90.4785 -15.8691 87.6953 -15.8691 L 40.1855 -15.8691 C 37.4512 -15.8691 35.2539 -13.6719 35.2539 -10.9375 C 35.2539 -8.1543 37.4023 -5.95703 40.1855 -5.95703 Z"/>
  </g>
  <g id="Semibold-S" transform="matrix(1 0 0 1 1992.97 696)">
   <path d="M 14.6973 -54.1504 L 21.3867 -54.1504 C 24.1211 -54.1504 26.3672 -56.3965 26.3672 -59.1309 C 26.3672 -61.8652 24.1211 -64.1113 21.3867 -64.1113 L 14.6973 -64.1113 C 12.0117 -64.1113 9.76562 -61.8652 9.76562 -59.1309 C 9.76562 -56.3965 12.0117 -54.1504 14.6973 -54.1504 Z M 38.916 -54.6875 L 86.377 -54.6875 C 88.8672 -54.6875 90.8203 -56.6406 90.8203 -59.1309 C 90.8203 -61.5723 88.8672 -63.5742 86.377 -63.5742 L 38.916 -63.5742 C 36.4258 -63.5742 34.4727 -61.6211 34.4727 -59.1309 C 34.4727 -56.6895 36.4258 -54.6875 38.916 -54.6875 Z M 14.6973 -30.2246 L 21.3867 -30.2246 C 24.1211 -30.2246 26.3672 -32.4707 26.3672 -35.2051 C 26.3672 -37.9395 24.1211 -40.1855 21.3867 -40.1855 L 14.6973 -40.1855 C 12.0117 -40.1855 9.76562 -37.9395 9.76562 -35.2051 C 9.76562 -32.4707 12.0117 -30.2246 14.6973 -30.2246 Z M 38.916 -30.7617 L 86.377 -30.7617 C 88.8672 -30.7617 90.8203 -32.7148 90.8203 -35.2051 C 90.8203 -37.6465 88.8672 -39.6484 86.377 -39.6484 L 38.916 -39.6484 C 36.4258 -39.6484 34.4727 -37.6953 34.4727 -35.2051 C 34.4727 -32.7637 36.4258 -30.7617 38.916 -30.7617 Z M 14.6973 -6.29883 L 21.3867 -6.29883 C 24.1211 -6.29883 26.3672 -8.54492 26.3672 -11.2793 C 26.3672 -14.0137 24.1211 -16.2598 21.3867 -16.2598 L 14.6973 -16.2598 C 12.0117 -16.2598 9.76562 -14.0137 9.76562 -11.2793 C 9.76562 -8.54492 12.0117 -6.29883 14.6973 -6.29883 Z M 38.916 -6.83594 L 86.377 -6.83594 C 88.8672 -6.83594 90.8203 -8.78906 90.8203 -11.2793 C 90.8203 -13.7207 88.8672 -15.7227 86.377 -15.7227 L 38.916 -15.7227 C 36.4258 -15.7227 34.4727 -13.7695 34.4727 -11.2793 C 34.4727 -8.83789 36.4258 -6.83594 38.916 -6.83594 Z"/>
  </g>
  <g id="Medium-S" transform="matrix(1 0 0 1 1696.95 696)">
   <path d="M 14.3066 -54.248 L 21.0449 -54.248 C 23.584 -54.248 25.6348 -56.3477 25.6348 -58.8379 C 25.6348 -61.4258 23.584 -63.4277 21.0449 -63.4277 L 14.3066 -63.4277 C 11.8164 -63.4277 9.76562 -61.4258 9.76562 -58.8379 C 9.76562 -56.3477 11.8164 -54.248 14.3066 -54.248 Z M 37.9395 -54.834 L 85.4004 -54.834 C 87.6465 -54.834 89.4531 -56.5918 89.4531 -58.8379 C 89.4531 -61.084 87.6465 -62.8906 85.4004 -62.8906 L 37.9395 -62.8906 C 35.6934 -62.8906 33.8867 -61.1328 33.8867 -58.8379 C 33.8867 -56.5918 35.6934 -54.834 37.9395 -54.834 Z M 14.3066 -30.6152 L 21.0449 -30.6152 C 23.584 -30.6152 25.6348 -32.666 25.6348 -35.2051 C 25.6348 -37.7441 23.584 -39.7949 21.0449 -39.7949 L 14.3066 -39.7949 C 11.8164 -39.7949 9.76562 -37.7441 9.76562 -35.2051 C 9.76562 -32.666 11.8164 -30.6152 14.3066 -30.6152 Z M 37.9395 -31.1523 L 85.4004 -31.1523 C 87.6465 -31.1523 89.4531 -32.959 89.4531 -35.2051 C 89.4531 -37.4512 87.6465 -39.2578 85.4004 -39.2578 L 37.9395 -39.2578 C 35.6934 -39.2578 33.8867 -37.4512 33.8867 -35.2051 C 33.8867 -32.959 35.6934 -31.1523 37.9395 -31.1523 Z M 14.3066 -6.98242 L 21.0449 -6.98242 C 23.584 -6.98242 25.6348 -9.0332 25.6348 -11.5723 C 25.6348 -14.1113 23.584 -16.1621 21.0449 -16.1621 L 14.3066 -16.1621 C 11.8164 -16.1621 9.76562 -14.1113 9.76562 -11.5723 C 9.76562 -9.0332 11.8164 -6.98242 14.3066 -6.98242 Z M 37.9395 -7.51953 L 85.4004 -7.51953 C 87.6465 -7.51953 89.4531 -9.27734 89.4531 -11.5723 C 89.4531 -13.8184 87.6465 -15.5762 85.4004 -15.5762 L 37.9395 -15.5762 C 35.6934 -15.5762 33.8867 -13.8184 33.8867 -11.5723 C 33.8867 -9.32617 35.6934 -7.51953 37.9395 -7.51953 Z"/>
  </g>
  <g id="Regular-S" transform="matrix(1 0 0 1 1401.14 696)">
   <path d="M 13.8184 -54.3945 L 20.6055 -54.3945 C 22.8516 -54.3945 24.707 -56.25 24.707 -58.4961 C 24.707 -60.791 22.8516 -62.5977 20.6055 -62.5977 L 13.8184 -62.5977 C 11.5723 -62.5977 9.76562 -60.791 9.76562 -58.4961 C 9.76562 -56.25 11.5723 -54.3945 13.8184 -54.3945 Z M 36.6699 -54.9805 L 84.1309 -54.9805 C 86.084 -54.9805 87.6465 -56.543 87.6465 -58.4961 C 87.6465 -60.4492 86.084 -62.0117 84.1309 -62.0117 L 36.6699 -62.0117 C 34.7168 -62.0117 33.1543 -60.4492 33.1543 -58.4961 C 33.1543 -56.543 34.7168 -54.9805 36.6699 -54.9805 Z M 13.8184 -31.1035 L 20.6055 -31.1035 C 22.8516 -31.1035 24.707 -32.959 24.707 -35.2051 C 24.707 -37.5 22.8516 -39.3066 20.6055 -39.3066 L 13.8184 -39.3066 C 11.5723 -39.3066 9.76562 -37.5 9.76562 -35.2051 C 9.76562 -32.959 11.5723 -31.1035 13.8184 -31.1035 Z M 36.6699 -31.6895 L 84.1309 -31.6895 C 86.084 -31.6895 87.6465 -33.252 87.6465 -35.2051 C 87.6465 -37.1582 86.084 -38.7207 84.1309 -38.7207 L 36.6699 -38.7207 C 34.7168 -38.7207 33.1543 -37.1582 33.1543 -35.2051 C 33.1543 -33.252 34.7168 -31.6895 36.6699 -31.6895 Z M 13.8184 -7.8125 L 20.6055 -7.8125 C 22.8516 -7.8125 24.707 -9.66797 24.707 -11.9141 C 24.707 -14.209 22.8516 -16.0156 20.6055 -16.0156 L 13.8184 -16.0156 C 11.5723 -16.0156 9.76562 -14.209 9.76562 -11.9141 C 9.76562 -9.66797 11.5723 -7.8125 13.8184 -7.8125 Z M 36.6699 -8.39844 L 84.1309 -8.39844 C 86.084 -8.39844 87.6465 -9.96094 87.6465 -11.9141 C 87.6465 -13.8672 86.084 -15.4297 84.1309 -15.4297 L 36.6699 -15.4297 C 34.7168 -15.4297 33.1543 -13.8672 33.1543 -11.9141 C 33.1543 -9.96094 34.7168 -8.39844 36.6699 -8.39844 Z"/>
  </g>
  <g id="Light-S" transform="matrix(1 0 0 1 1105.16 696)">
   <path d="M 13.3301 -54.6387 L 19.6777 -54.6387 C 21.6797 -54.6387 23.291 -56.25 23.291 -58.2031 C 23.291 -60.2051 21.6797 -61.7676 19.6777 -61.7676 L 13.3301 -61.7676 C 11.377 -61.7676 9.76562 -60.2051 9.76562 -58.2031 C 9.76562 -56.25 11.377 -54.6387 13.3301 -54.6387 Z M 34.1797 -55.4688 L 83.4473 -55.4688 C 85.0098 -55.4688 86.1816 -56.6895 86.1816 -58.2031 C 86.1816 -59.7168 85.0098 -60.9375 83.4473 -60.9375 L 34.1797 -60.9375 C 32.666 -60.9375 31.4453 -59.7168 31.4453 -58.2031 C 31.4453 -56.6895 32.666 -55.4688 34.1797 -55.4688 Z M 13.3301 -31.6406 L 19.6777 -31.6406 C 21.6797 -31.6406 23.291 -33.252 23.291 -35.2051 C 23.291 -37.207 21.6797 -38.7695 19.6777 -38.7695 L 13.3301 -38.7695 C 11.377 -38.7695 9.76562 -37.207 9.76562 -35.2051 C 9.76562 -33.252 11.377 -31.6406 13.3301 -31.6406 Z M 34.1797 -32.4707 L 83.4473 -32.4707 C 85.0098 -32.4707 86.1816 -33.6914 86.1816 -35.2051 C 86.1816 -36.7188 85.0098 -37.9395 83.4473 -37.9395 L 34.1797 -37.9395 C 32.666 -37.9395 31.4453 -36.7188 31.4453 -35.2051 C 31.4453 -33.6914 32.666 -32.4707 34.1797 -32.4707 Z M 13.3301 -8.64258 L 19.6777 -8.64258 C 21.6797 -8.64258 23.291 -10.2539 23.291 -12.207 C 23.291 -14.209 21.6797 -15.7715 19.6777 -15.7715 L 13.3301 -15.7715 C 11.377 -15.7715 9.76562 -14.209 9.76562 -12.207 C 9.76562 -10.2539 11.377 -8.64258 13.3301 -8.64258 Z M 34.1797 -9.47266 L 83.4473 -9.47266 C 85.0098 -9.47266 86.1816 -10.6934 86.1816 -12.207 C 86.1816 -13.7207 85.0098 -14.9414 83.4473 -14.9414 L 34.1797 -14.9414 C 32.666 -14.9414 31.4453 -13.7207 31.4453 -12.207 C 31.4453 -10.6934 32.666 -9.47266 34.1797 -9.47266 Z"/>
  </g>
  <g id="Thin-S" transform="matrix(1 0 0 1 809.425 696)">
   <path d="M 12.6465 -54.9805 L 18.5059 -54.9805 C 20.1172 -54.9805 21.3867 -56.25 21.3867 -57.8125 C 21.3867 -59.375 20.1172 -60.6445 18.5059 -60.6445 L 12.6465 -60.6445 C 11.084 -60.6445 9.76562 -59.375 9.76562 -57.8125 C 9.76562 -56.25 11.084 -54.9805 12.6465 -54.9805 Z M 30.9082 -56.1523 L 82.5684 -56.1523 C 83.5449 -56.1523 84.2285 -56.8359 84.2285 -57.8125 C 84.2285 -58.7891 83.5449 -59.4727 82.5684 -59.4727 L 30.9082 -59.4727 C 29.9316 -59.4727 29.248 -58.7891 29.248 -57.8125 C 29.248 -56.8359 29.9316 -56.1523 30.9082 -56.1523 Z M 12.6465 -32.373 L 18.5059 -32.373 C 20.1172 -32.373 21.3867 -33.6426 21.3867 -35.2051 C 21.3867 -36.7676 20.1172 -38.0371 18.5059 -38.0371 L 12.6465 -38.0371 C 11.084 -38.0371 9.76562 -36.7676 9.76562 -35.2051 C 9.76562 -33.6426 11.084 -32.373 12.6465 -32.373 Z M 30.9082 -33.5449 L 82.5684 -33.5449 C 83.5449 -33.5449 84.2285 -34.2285 84.2285 -35.2051 C 84.2285 -36.1816 83.5449 -36.8652 82.5684 -36.8652 L 30.9082 -36.8652 C 29.9316 -36.8652 29.248 -36.1816 29.248 -35.2051 C 29.248 -34.2285 29.9316 -33.5449 30.9082 -33.5449 Z M 12.6465 -9.76562 L 18.5059 -9.76562 C 20.1172 -9.76562 21.3867 -11.0352 21.3867 -12.5977 C 21.3867 -14.1602 20.1172 -15.4297 18.5059 -15.4297 L 12.6465 -15.4297 C 11.084 -15.4297 9.76562 -14.1602 9.76562 -12.5977 C 9.76562 -11.0352 11.084 -9.76562 12.6465 -9.76562 Z M 30.9082 -10.9375 L 82.5684 -10.9375 C 83.5449 -10.9375 84.2285 -11.6211 84.2285 -12.5977 C 84.2285 -13.5742 83.5449 -14.2578 82.5684 -14.2578 L 30.9082 -14.2578 C 29.9316 -14.2578 29.248 -13.5742 29.248 -12.5977 C 29.248 -11.6211 29.9316 -10.9375 30.9082 -10.9375 Z"/>
  </g>
  <g id="Ultralight-S" transform="matrix(1 0 0 1 513.202 696)">
   <path d="M 12.3047 -55.127 L 17.9199 -55.127 C 19.3359 -55.127 20.459 -56.25 20.459 -57.6172 C 20.459 -58.9844 19.3359 -60.1074 17.9199 -60.1074 L 12.3047 -60.1074 C 10.9375 -60.1074 9.76562 -58.9844 9.76562 -57.6172 C 9.76562 -56.25 10.9375 -55.127 12.3047 -55.127 Z M 29.1992 -56.4941 L 82.1289 -56.4941 C 82.8125 -56.4941 83.252 -56.9824 83.252 -57.6172 C 83.252 -58.252 82.8125 -58.7402 82.1289 -58.7402 L 29.1992 -58.7402 C 28.5645 -58.7402 28.0762 -58.252 28.0762 -57.6172 C 28.0762 -56.9824 28.5645 -56.4941 29.1992 -56.4941 Z M 12.3047 -32.7148 L 17.9199 -32.7148 C 19.3359 -32.7148 20.459 -33.8379 20.459 -35.2051 C 20.459 -36.5723 19.3359 -37.6953 17.9199 -37.6953 L 12.3047 -37.6953 C 10.9375 -37.6953 9.76562 -36.5723 9.76562 -35.2051 C 9.76562 -33.8379 10.9375 -32.7148 12.3047 -32.7148 Z M 29.1992 -34.082 L 82.1289 -34.082 C 82.8125 -34.082 83.252 -34.5703 83.252 -35.2051 C 83.252 -35.8398 82.8125 -36.3281 82.1289 -36.3281 L 29.1992 -36.3281 C 28.5645 -36.3281 28.0762 -35.8398 28.0762 -35.2051 C 28.0762 -34.5703 28.5645 -34.082 29.1992 -34.082 Z M 12.3047 -10.3027 L 17.9199 -10.3027 C 19.3359 -10.3027 20.459 -11.4258 20.459 -12.793 C 20.459 -14.1602 19.3359 -15.2832 17.9199 -15.2832 L 12.3047 -15.2832 C 10.9375 -15.2832 9.76562 -14.1602 9.76562 -12.793 C 9.76562 -11.4258 10.9375 -10.3027 12.3047 -10.3027 Z M 29.1992 -11.6699 L 82.1289 -11.6699 C 82.8125 -11.6699 83.252 -12.1582 83.252 -12.793 C 83.252 -13.4277 82.8125 -13.916 82.1289 -13.916 L 29.1992 -13.916 C 28.5645 -13.916 28.0762 -13.4277 28.0762 -12.793 C 28.0762 -12.1582 28.5645 -11.6699 29.1992 -11.6699 Z"/>
  </g>
 </g>
</svg>
