<?xml version="1.0" encoding="UTF-8"?>
<!--Generator: Apple Native CoreSVG 123-->
<!DOCTYPE svg
PUBLIC "-//W3C//DTD SVG 1.1//EN"
       "http://www.w3.org/Graphics/SVG/1.1/DTD/svg11.dtd">
<svg version="1.1" xmlns="http://www.w3.org/2000/svg" xmlns:xlink="http://www.w3.org/1999/xlink" width="3300" height="2200">
 <!--glyph: "uni100225.medium", point size: 100.000000, font version: "Version 15.0d7e11", template writer version: "5"-->
 <g id="Notes">
  <rect height="2200" id="artboard" style="fill:white;opacity:1" width="3300" x="0" y="0"/>
  <line id="" style="fill:none;stroke:black;opacity:1;stroke-width:0.5;" x1="263" x2="3036" y1="292" y2="292"/>
  <text style="stroke:none;fill:black;font-family:-apple-system,&quot;SF Pro Display&quot;,&quot;SF Pro Text&quot;,Helvetica,sans-serif;font-weight:bold;" transform="matrix(1 0 0 1 263 322)">Weight/Scale Variations</text>
  <text style="stroke:none;fill:black;font-family:-apple-system,&quot;SF Pro Display&quot;,&quot;SF Pro Text&quot;,Helvetica,sans-serif;text-anchor:middle;" transform="matrix(1 0 0 1 559.711 322)">Ultralight</text>
  <text style="stroke:none;fill:black;font-family:-apple-system,&quot;SF Pro Display&quot;,&quot;SF Pro Text&quot;,Helvetica,sans-serif;text-anchor:middle;" transform="matrix(1 0 0 1 856.422 322)">Thin</text>
  <text style="stroke:none;fill:black;font-family:-apple-system,&quot;SF Pro Display&quot;,&quot;SF Pro Text&quot;,Helvetica,sans-serif;text-anchor:middle;" transform="matrix(1 0 0 1 1153.13 322)">Light</text>
  <text style="stroke:none;fill:black;font-family:-apple-system,&quot;SF Pro Display&quot;,&quot;SF Pro Text&quot;,Helvetica,sans-serif;text-anchor:middle;" transform="matrix(1 0 0 1 1449.84 322)">Regular</text>
  <text style="stroke:none;fill:black;font-family:-apple-system,&quot;SF Pro Display&quot;,&quot;SF Pro Text&quot;,Helvetica,sans-serif;text-anchor:middle;" transform="matrix(1 0 0 1 1746.56 322)">Medium</text>
  <text style="stroke:none;fill:black;font-family:-apple-system,&quot;SF Pro Display&quot;,&quot;SF Pro Text&quot;,Helvetica,sans-serif;text-anchor:middle;" transform="matrix(1 0 0 1 2043.27 322)">Semibold</text>
  <text style="stroke:none;fill:black;font-family:-apple-system,&quot;SF Pro Display&quot;,&quot;SF Pro Text&quot;,Helvetica,sans-serif;text-anchor:middle;" transform="matrix(1 0 0 1 2339.98 322)">Bold</text>
  <text style="stroke:none;fill:black;font-family:-apple-system,&quot;SF Pro Display&quot;,&quot;SF Pro Text&quot;,Helvetica,sans-serif;text-anchor:middle;" transform="matrix(1 0 0 1 2636.69 322)">Heavy</text>
  <text style="stroke:none;fill:black;font-family:-apple-system,&quot;SF Pro Display&quot;,&quot;SF Pro Text&quot;,Helvetica,sans-serif;text-anchor:middle;" transform="matrix(1 0 0 1 2933.4 322)">Black</text>
  <line id="" style="fill:none;stroke:black;opacity:1;stroke-width:0.5;" x1="263" x2="3036" y1="1903" y2="1903"/>
  <g id="" transform="matrix(1 0 0 1 263 1933)">
   <path d="M 9.24805 0.830078 C 13.5547 0.830078 17.1387 -2.74414 17.1387 -7.05078 C 17.1387 -11.3574 13.5449 -14.9316 9.23828 -14.9316 C 4.94141 -14.9316 1.36719 -11.3574 1.36719 -7.05078 C 1.36719 -2.74414 4.95117 0.830078 9.24805 0.830078 Z M 9.24805 -0.654297 C 5.70312 -0.654297 2.87109 -3.49609 2.87109 -7.05078 C 2.87109 -10.6055 5.69336 -13.4473 9.23828 -13.4473 C 12.793 -13.4473 15.6348 -10.6055 15.6445 -7.05078 C 15.6543 -3.49609 12.8027 -0.654297 9.24805 -0.654297 Z M 9.22852 -3.42773 C 9.69727 -3.42773 9.9707 -3.74023 9.9707 -4.25781 L 9.9707 -6.31836 L 12.1973 -6.31836 C 12.6953 -6.31836 13.0371 -6.57227 13.0371 -7.04102 C 13.0371 -7.51953 12.7148 -7.7832 12.1973 -7.7832 L 9.9707 -7.7832 L 9.9707 -10.0098 C 9.9707 -10.5273 9.69727 -10.8496 9.22852 -10.8496 C 8.75977 -10.8496 8.50586 -10.5078 8.50586 -10.0098 L 8.50586 -7.7832 L 6.29883 -7.7832 C 5.78125 -7.7832 5.44922 -7.51953 5.44922 -7.04102 C 5.44922 -6.57227 5.80078 -6.31836 6.29883 -6.31836 L 8.50586 -6.31836 L 8.50586 -4.25781 C 8.50586 -3.75977 8.75977 -3.42773 9.22852 -3.42773 Z"/>
  </g>
  <g id="" transform="matrix(1 0 0 1 281.506 1933)">
   <path d="M 11.709 2.91016 C 17.1582 2.91016 21.6699 -1.60156 21.6699 -7.05078 C 21.6699 -12.4902 17.1484 -17.0117 11.6992 -17.0117 C 6.25977 -17.0117 1.74805 -12.4902 1.74805 -7.05078 C 1.74805 -1.60156 6.26953 2.91016 11.709 2.91016 Z M 11.709 1.25 C 7.09961 1.25 3.41797 -2.44141 3.41797 -7.05078 C 3.41797 -11.6504 7.08984 -15.3516 11.6992 -15.3516 C 16.3086 -15.3516 20 -11.6504 20.0098 -7.05078 C 20.0195 -2.44141 16.3184 1.25 11.709 1.25 Z M 11.6895 -2.41211 C 12.207 -2.41211 12.5195 -2.77344 12.5195 -3.33984 L 12.5195 -6.23047 L 15.5762 -6.23047 C 16.123 -6.23047 16.5039 -6.51367 16.5039 -7.03125 C 16.5039 -7.55859 16.1426 -7.86133 15.5762 -7.86133 L 12.5195 -7.86133 L 12.5195 -10.9277 C 12.5195 -11.5039 12.207 -11.8555 11.6895 -11.8555 C 11.1719 -11.8555 10.8789 -11.4844 10.8789 -10.9277 L 10.8789 -7.86133 L 7.83203 -7.86133 C 7.26562 -7.86133 6.89453 -7.55859 6.89453 -7.03125 C 6.89453 -6.51367 7.28516 -6.23047 7.83203 -6.23047 L 10.8789 -6.23047 L 10.8789 -3.33984 C 10.8789 -2.79297 11.1719 -2.41211 11.6895 -2.41211 Z"/>
  </g>
  <g id="" transform="matrix(1 0 0 1 304.924 1933)">
   <path d="M 14.9707 5.67383 C 21.9336 5.67383 27.6953 -0.078125 27.6953 -7.04102 C 27.6953 -14.0039 21.9238 -19.7559 14.9609 -19.7559 C 8.00781 -19.7559 2.25586 -14.0039 2.25586 -7.04102 C 2.25586 -0.078125 8.01758 5.67383 14.9707 5.67383 Z M 14.9707 3.85742 C 8.93555 3.85742 4.08203 -1.00586 4.08203 -7.04102 C 4.08203 -13.0762 8.92578 -17.9395 14.9609 -17.9395 C 21.0059 -17.9395 25.8594 -13.0762 25.8691 -7.04102 C 25.8789 -1.00586 21.0156 3.85742 14.9707 3.85742 Z M 14.9512 -1.06445 C 15.5176 -1.06445 15.8691 -1.45508 15.8691 -2.06055 L 15.8691 -6.13281 L 20.1074 -6.13281 C 20.6934 -6.13281 21.1133 -6.46484 21.1133 -7.02148 C 21.1133 -7.59766 20.7227 -7.93945 20.1074 -7.93945 L 15.8691 -7.93945 L 15.8691 -12.1875 C 15.8691 -12.8027 15.5176 -13.1934 14.9512 -13.1934 C 14.3848 -13.1934 14.0625 -12.7832 14.0625 -12.1875 L 14.0625 -7.93945 L 9.83398 -7.93945 C 9.21875 -7.93945 8.80859 -7.59766 8.80859 -7.02148 C 8.80859 -6.46484 9.23828 -6.13281 9.83398 -6.13281 L 14.0625 -6.13281 L 14.0625 -2.06055 C 14.0625 -1.47461 14.3848 -1.06445 14.9512 -1.06445 Z"/>
  </g>
  <text style="stroke:none;fill:black;font-family:-apple-system,&quot;SF Pro Display&quot;,&quot;SF Pro Text&quot;,Helvetica,sans-serif;font-weight:bold;" transform="matrix(1 0 0 1 263 1953)">Design Variations</text>
  <text style="stroke:none;fill:black;font-family:-apple-system,&quot;SF Pro Display&quot;,&quot;SF Pro Text&quot;,Helvetica,sans-serif;" transform="matrix(1 0 0 1 263 1971)">Symbols are supported in up to nine weights and three scales.</text>
  <text style="stroke:none;fill:black;font-family:-apple-system,&quot;SF Pro Display&quot;,&quot;SF Pro Text&quot;,Helvetica,sans-serif;" transform="matrix(1 0 0 1 263 1989)">For optimal layout with text and other symbols, vertically align</text>
  <text style="stroke:none;fill:black;font-family:-apple-system,&quot;SF Pro Display&quot;,&quot;SF Pro Text&quot;,Helvetica,sans-serif;" transform="matrix(1 0 0 1 263 2007)">symbols with the adjacent text.</text>
  <rect height="14" id="" style="fill:#00AEEF;stroke:none;opacity:0.4;" width="3" x="776" y="1919"/>
  <g id="" transform="matrix(1 0 0 1 779 1933)">
   <path d="M 10.5273 0 L 12.373 0 L 7.17773 -14.0918 L 5.43945 -14.0918 L 0.244141 0 L 2.08984 0 L 3.50586 -4.0332 L 9.11133 -4.0332 Z M 6.2793 -11.9531 L 6.33789 -11.9531 L 8.59375 -5.52734 L 4.02344 -5.52734 Z"/>
  </g>
  <rect height="14" id="" style="fill:#00AEEF;stroke:none;opacity:0.4;" width="3" x="791.617" y="1919"/>
  <text style="stroke:none;fill:black;font-family:-apple-system,&quot;SF Pro Display&quot;,&quot;SF Pro Text&quot;,Helvetica,sans-serif;font-weight:bold;" transform="matrix(1 0 0 1 776 1953)">Margins</text>
  <text style="stroke:none;fill:black;font-family:-apple-system,&quot;SF Pro Display&quot;,&quot;SF Pro Text&quot;,Helvetica,sans-serif;" transform="matrix(1 0 0 1 776 1971)">Leading and trailing margins on the left and right side of each symbol</text>
  <text style="stroke:none;fill:black;font-family:-apple-system,&quot;SF Pro Display&quot;,&quot;SF Pro Text&quot;,Helvetica,sans-serif;" transform="matrix(1 0 0 1 776 1989)">can be adjusted by modifying the width of the blue rectangles.</text>
  <text style="stroke:none;fill:black;font-family:-apple-system,&quot;SF Pro Display&quot;,&quot;SF Pro Text&quot;,Helvetica,sans-serif;" transform="matrix(1 0 0 1 776 2007)">Modifications are automatically applied proportionally to all</text>
  <text style="stroke:none;fill:black;font-family:-apple-system,&quot;SF Pro Display&quot;,&quot;SF Pro Text&quot;,Helvetica,sans-serif;" transform="matrix(1 0 0 1 776 2025)">scales and weights.</text>
  <g id="" transform="matrix(1 0 0 1 1289 1933)">
   <path d="M 2.83203 3.11523 L 4.375 4.6582 C 5.22461 5.48828 6.19141 5.41992 7.06055 4.46289 L 17.2754 -6.66016 C 17.7051 -6.36719 18.0957 -6.37695 18.5645 -6.47461 L 19.6094 -6.68945 L 20.3027 -5.99609 L 20.2539 -5.47852 C 20.1855 -4.95117 20.3516 -4.53125 20.8496 -4.0332 L 21.6602 -3.22266 C 22.168 -2.71484 22.8223 -2.68555 23.3008 -3.16406 L 26.5527 -6.41602 C 27.0312 -6.89453 27.0117 -7.54883 26.5039 -8.05664 L 25.6836 -8.87695 C 25.1855 -9.375 24.7754 -9.55078 24.2383 -9.47266 L 23.7109 -9.41406 L 23.0566 -10.0781 L 23.3398 -11.2207 C 23.4863 -11.7871 23.3398 -12.2559 22.7148 -12.8613 L 20.3027 -15.2539 C 16.7578 -18.7793 12.2266 -18.6719 9.11133 -15.5371 C 8.69141 -15.1074 8.64258 -14.5215 8.91602 -14.0918 C 9.15039 -13.7207 9.62891 -13.4961 10.2734 -13.6621 C 11.7871 -14.043 13.3008 -13.9258 14.7852 -12.9199 L 14.1602 -11.3379 C 13.9258 -10.752 13.9453 -10.2734 14.1797 -9.83398 L 3.01758 0.439453 C 2.08008 1.30859 1.97266 2.25586 2.83203 3.11523 Z M 10.6738 -15.1465 C 13.3398 -17.1387 16.6504 -16.8262 19.0527 -14.4141 L 21.6797 -11.8066 C 21.9141 -11.5723 21.9434 -11.3867 21.8848 -11.0938 L 21.5039 -9.53125 L 23.0762 -7.95898 L 24.043 -8.04688 C 24.3262 -8.07617 24.4141 -8.05664 24.6387 -7.83203 L 25.2637 -7.20703 L 22.5098 -4.46289 L 21.8848 -5.07812 C 21.6602 -5.30273 21.6406 -5.40039 21.6699 -5.68359 L 21.7578 -6.64062 L 20.1953 -8.20312 L 18.5742 -7.89062 C 18.291 -7.83203 18.1445 -7.83203 17.9102 -8.07617 L 15.7324 -10.2539 C 15.5078 -10.4883 15.4785 -10.625 15.6055 -10.9473 L 16.5527 -13.2227 C 14.9512 -14.7559 12.8418 -15.6055 10.8008 -14.9512 C 10.7129 -14.9219 10.6445 -14.9414 10.6152 -14.9805 C 10.5859 -15.0293 10.5859 -15.0781 10.6738 -15.1465 Z M 4.10156 2.41211 C 3.61328 1.91406 3.78906 1.61133 4.12109 1.30859 L 15.0781 -8.80859 L 16.3086 -7.57812 L 6.15234 3.34961 C 5.84961 3.68164 5.46875 3.7793 5.06836 3.37891 Z"/>
  </g>
  <text style="stroke:none;fill:black;font-family:-apple-system,&quot;SF Pro Display&quot;,&quot;SF Pro Text&quot;,Helvetica,sans-serif;font-weight:bold;" transform="matrix(1 0 0 1 1289 1953)">Exporting</text>
  <text style="stroke:none;fill:black;font-family:-apple-system,&quot;SF Pro Display&quot;,&quot;SF Pro Text&quot;,Helvetica,sans-serif;" transform="matrix(1 0 0 1 1289 1971)">Symbols should be outlined when exporting to ensure the</text>
  <text style="stroke:none;fill:black;font-family:-apple-system,&quot;SF Pro Display&quot;,&quot;SF Pro Text&quot;,Helvetica,sans-serif;" transform="matrix(1 0 0 1 1289 1989)">design is preserved when submitting to Xcode.</text>
  <text id="template-version" style="stroke:none;fill:black;font-family:-apple-system,&quot;SF Pro Display&quot;,&quot;SF Pro Text&quot;,Helvetica,sans-serif;text-anchor:end;" transform="matrix(1 0 0 1 3036 1933)">Template v.1.0</text>
  <text style="stroke:none;fill:black;font-family:-apple-system,&quot;SF Pro Display&quot;,&quot;SF Pro Text&quot;,Helvetica,sans-serif;text-anchor:end;" transform="matrix(1 0 0 1 3036 1951)">Generated from tray.and.arrow.up</text>
  <text style="stroke:none;fill:black;font-family:-apple-system,&quot;SF Pro Display&quot;,&quot;SF Pro Text&quot;,Helvetica,sans-serif;text-anchor:end;" transform="matrix(1 0 0 1 3036 1969)">Typeset at 100 points</text>
  <text style="stroke:none;fill:black;font-family:-apple-system,&quot;SF Pro Display&quot;,&quot;SF Pro Text&quot;,Helvetica,sans-serif;" transform="matrix(1 0 0 1 263 726)">Small</text>
  <text style="stroke:none;fill:black;font-family:-apple-system,&quot;SF Pro Display&quot;,&quot;SF Pro Text&quot;,Helvetica,sans-serif;" transform="matrix(1 0 0 1 263 1156)">Medium</text>
  <text style="stroke:none;fill:black;font-family:-apple-system,&quot;SF Pro Display&quot;,&quot;SF Pro Text&quot;,Helvetica,sans-serif;" transform="matrix(1 0 0 1 263 1586)">Large</text>
 </g>
 <g id="Guides">
  <g id="H-reference" style="fill:#27AAE1;stroke:none;" transform="matrix(1 0 0 1 339 696)">
   <path d="M 54.9316 0 L 57.666 0 L 30.5664 -70.459 L 28.0762 -70.459 L 0.976562 0 L 3.66211 0 L 12.9395 -24.4629 L 45.7031 -24.4629 Z M 29.1992 -67.0898 L 29.4434 -67.0898 L 44.8242 -26.709 L 13.8184 -26.709 Z"/>
  </g>
  <line id="Baseline-S" style="fill:none;stroke:#27AAE1;opacity:1;stroke-width:0.577;" x1="263" x2="3036" y1="696" y2="696"/>
  <line id="Capline-S" style="fill:none;stroke:#27AAE1;opacity:1;stroke-width:0.577;" x1="263" x2="3036" y1="625.541" y2="625.541"/>
  <g id="H-reference" style="fill:#27AAE1;stroke:none;" transform="matrix(1 0 0 1 339 1126)">
   <path d="M 54.9316 0 L 57.666 0 L 30.5664 -70.459 L 28.0762 -70.459 L 0.976562 0 L 3.66211 0 L 12.9395 -24.4629 L 45.7031 -24.4629 Z M 29.1992 -67.0898 L 29.4434 -67.0898 L 44.8242 -26.709 L 13.8184 -26.709 Z"/>
  </g>
  <line id="Baseline-M" style="fill:none;stroke:#27AAE1;opacity:1;stroke-width:0.577;" x1="263" x2="3036" y1="1126" y2="1126"/>
  <line id="Capline-M" style="fill:none;stroke:#27AAE1;opacity:1;stroke-width:0.577;" x1="263" x2="3036" y1="1055.54" y2="1055.54"/>
  <g id="H-reference" style="fill:#27AAE1;stroke:none;" transform="matrix(1 0 0 1 339 1556)">
   <path d="M 54.9316 0 L 57.666 0 L 30.5664 -70.459 L 28.0762 -70.459 L 0.976562 0 L 3.66211 0 L 12.9395 -24.4629 L 45.7031 -24.4629 Z M 29.1992 -67.0898 L 29.4434 -67.0898 L 44.8242 -26.709 L 13.8184 -26.709 Z"/>
  </g>
  <line id="Baseline-L" style="fill:none;stroke:#27AAE1;opacity:1;stroke-width:0.577;" x1="263" x2="3036" y1="1556" y2="1556"/>
  <line id="Capline-L" style="fill:none;stroke:#27AAE1;opacity:1;stroke-width:0.577;" x1="263" x2="3036" y1="1485.54" y2="1485.54"/>
  <rect height="119.336" id="left-margin" style="fill:#00AEEF;stroke:none;opacity:0.4;" width="12.4512" x="1379.82" y="1030.79"/>
  <rect height="119.336" id="right-margin" style="fill:#00AEEF;stroke:none;opacity:0.4;" width="12.4512" x="1507.41" y="1030.79"/>
 </g>
 <g id="Symbols">
  <g id="Black-L" transform="matrix(1 0 0 1 2841.51 1556)">
   <path d="M 91.8945 -36.6211 C 96.875 -36.6211 100.684 -40.6738 100.684 -45.3125 L 100.684 -93.0176 L 99.9023 -102.197 L 102.393 -97.2656 L 108.691 -90.5762 C 110.156 -89.0137 112.158 -88.0859 114.355 -88.0859 C 118.164 -88.0859 121.875 -91.0156 121.875 -95.3125 C 121.875 -97.5098 121.045 -99.0723 119.58 -100.537 L 99.0234 -120.166 C 96.6797 -122.461 94.2871 -123.291 91.8945 -123.291 C 89.502 -123.291 87.0605 -122.461 84.7168 -120.166 L 64.209 -100.537 C 62.7441 -99.0723 61.9141 -97.5098 61.9141 -95.3125 C 61.9141 -91.0156 65.5762 -88.0859 69.3848 -88.0859 C 71.6309 -88.0859 73.6328 -89.0137 75.0977 -90.5762 L 81.3477 -97.2656 L 83.8379 -102.197 L 83.0566 -93.0176 L 83.0566 -45.3125 C 83.0566 -40.6738 86.9141 -36.6211 91.8945 -36.6211 Z M 39.9902 33.1055 L 143.799 33.1055 C 159.082 33.1055 167.725 24.5117 167.725 9.32617 L 167.725 -27.002 C 167.725 -36.6699 167.383 -42.8223 163.135 -47.9492 L 150 -63.916 C 139.551 -76.5625 135.498 -79.834 122.656 -79.834 L 112.109 -79.834 L 112.109 -64.1113 L 121.729 -64.1113 C 125.488 -64.1113 127.734 -63.2324 131.104 -59.1797 L 146.875 -40.4785 C 148.291 -38.7207 147.461 -37.5488 144.922 -37.5488 L 107.764 -37.5488 C 104.199 -37.5488 102.832 -35.6445 102.832 -33.4473 L 102.832 -33.3008 C 102.832 -28.1738 98.9746 -22.2168 91.8945 -22.2168 C 84.8145 -22.2168 80.957 -28.1738 80.957 -33.3008 L 80.957 -33.4473 C 80.957 -35.6445 79.5898 -37.5488 75.9766 -37.5488 L 38.8672 -37.5488 C 36.2793 -37.5488 35.5469 -38.8184 36.9141 -40.4785 L 52.6367 -59.1309 C 56.0547 -63.1836 58.3008 -64.1113 62.0605 -64.1113 L 71.6797 -64.1113 L 71.6797 -79.834 L 61.1328 -79.834 C 48.2422 -79.834 44.2383 -76.6113 33.7402 -63.8672 L 20.6055 -47.9492 C 16.3574 -42.8223 16.0645 -36.6699 16.0645 -27.002 L 16.0645 9.32617 C 16.0645 24.5117 24.7559 33.1055 39.9902 33.1055 Z M 41.9922 12.8906 C 37.793 12.8906 35.5957 10.9863 35.5957 6.44531 L 35.5957 -20.5078 L 66.1621 -20.5078 C 69.7266 -10.9375 79.2969 -3.75977 91.8945 -3.75977 C 104.443 -3.75977 114.014 -10.9375 117.578 -20.5078 L 148.145 -20.5078 L 148.145 6.44531 C 148.145 10.9863 145.996 12.8906 141.748 12.8906 Z"/>
  </g>
  <g id="Heavy-L" transform="matrix(1 0 0 1 2545.23 1556)">
   <path d="M 91.4551 -33.3496 C 95.8008 -33.3496 99.2188 -36.8652 99.2188 -40.9668 L 99.2188 -92.9199 L 98.5352 -102.1 L 101.66 -97.1191 L 108.838 -89.4531 C 110.156 -88.0371 111.914 -87.2559 113.867 -87.2559 C 117.334 -87.2559 120.557 -89.8926 120.557 -93.6523 C 120.557 -95.6055 119.824 -96.9727 118.506 -98.3398 L 97.6562 -118.311 C 95.6055 -120.312 93.5547 -121.045 91.4551 -121.045 C 89.3555 -121.045 87.3047 -120.312 85.2539 -118.311 L 64.4043 -98.3398 C 63.0859 -96.9727 62.3535 -95.6055 62.3535 -93.6523 C 62.3535 -89.8926 65.5273 -87.2559 68.9941 -87.2559 C 70.9473 -87.2559 72.7539 -88.0371 74.0234 -89.4531 L 81.25 -97.1191 L 84.375 -102.1 L 83.6914 -92.9199 L 83.6914 -40.9668 C 83.6914 -36.8652 87.1094 -33.3496 91.4551 -33.3496 Z M 38.8184 32.5195 L 144.092 32.5195 C 158.74 32.5195 166.846 24.4141 166.846 9.91211 L 166.846 -26.4648 C 166.846 -35.1074 166.406 -40.3809 162.598 -45.0195 L 147.461 -63.5742 C 137.793 -75.293 134.033 -78.2715 121.729 -78.2715 L 110.986 -78.2715 L 110.986 -64.4531 L 121.191 -64.4531 C 125.195 -64.4531 127.588 -63.5742 131.055 -59.4238 L 148.291 -38.5742 C 149.902 -36.5723 149.072 -35.4004 146.436 -35.4004 L 108.203 -35.4004 C 104.785 -35.4004 103.418 -33.4473 103.418 -31.2012 L 103.418 -31.0059 C 103.418 -25.1953 99.0234 -18.8477 91.4551 -18.8477 C 83.8867 -18.8477 79.4434 -25.1953 79.4434 -31.0059 L 79.4434 -31.2012 C 79.4434 -33.4473 78.0762 -35.4004 74.6582 -35.4004 L 36.5234 -35.4004 C 33.7891 -35.4004 33.1055 -36.6699 34.6191 -38.5742 L 51.8066 -59.3262 C 55.2734 -63.5254 57.7148 -64.4531 61.7188 -64.4531 L 71.9238 -64.4531 L 71.9238 -78.2715 L 61.1816 -78.2715 C 48.877 -78.2715 45.1172 -75.3418 35.4004 -63.4766 L 20.3125 -45.0195 C 16.4551 -40.3809 16.0645 -35.1074 16.0645 -26.4648 L 16.0645 9.91211 C 16.0645 24.4629 24.2188 32.5195 38.8184 32.5195 Z M 40.3809 15.0391 C 35.5469 15.0391 33.0566 12.7441 33.0566 7.61719 L 33.0566 -20.5078 L 66.2598 -20.5078 C 69.2383 -10.4004 78.8574 -2.83203 91.4551 -2.83203 C 104.004 -2.83203 113.623 -10.4004 116.65 -20.5078 L 149.854 -20.5078 L 149.854 7.61719 C 149.854 12.7441 147.314 15.0391 142.48 15.0391 Z"/>
  </g>
  <g id="Bold-L" transform="matrix(1 0 0 1 2249.01 1556)">
   <path d="M 90.9668 -29.6387 C 94.6289 -29.6387 97.5098 -32.6172 97.5098 -36.084 L 97.5098 -92.8223 L 96.9727 -102.051 L 100.781 -96.9238 L 109.033 -88.1836 C 110.156 -86.9629 111.719 -86.3281 113.33 -86.3281 C 116.357 -86.3281 119.043 -88.5742 119.043 -91.7969 C 119.043 -93.457 118.408 -94.6777 117.285 -95.8496 L 96.0938 -116.26 C 94.3848 -117.969 92.7246 -118.555 90.9668 -118.555 C 89.209 -118.555 87.5488 -117.969 85.8398 -116.26 L 64.6484 -95.8496 C 63.5254 -94.6777 62.8906 -93.457 62.8906 -91.7969 C 62.8906 -88.5742 65.5273 -86.3281 68.5547 -86.3281 C 70.166 -86.3281 71.7773 -86.9629 72.9004 -88.1836 L 81.1523 -96.9238 L 84.9609 -102.051 L 84.4238 -92.8223 L 84.4238 -36.084 C 84.4238 -32.6172 87.3535 -29.6387 90.9668 -29.6387 Z M 37.5 31.8848 L 144.385 31.8848 C 158.35 31.8848 165.869 24.3652 165.869 10.5469 L 165.869 -25.8789 C 165.869 -33.3008 165.332 -37.6465 161.963 -41.748 L 144.629 -63.1836 C 135.84 -73.877 132.373 -76.5137 120.703 -76.5137 L 109.766 -76.5137 L 109.766 -64.8926 L 120.605 -64.8926 C 124.854 -64.8926 127.49 -63.916 130.957 -59.7168 L 149.854 -36.4258 C 151.66 -34.1797 150.879 -32.959 148.096 -32.959 L 108.691 -32.959 C 105.469 -32.959 104.102 -30.957 104.102 -28.6621 L 104.102 -28.418 C 104.102 -21.875 99.0723 -15.0391 90.9668 -15.0391 C 82.8125 -15.0391 77.832 -21.875 77.832 -28.418 L 77.832 -28.6621 C 77.832 -30.957 76.416 -32.959 73.1934 -32.959 L 33.8379 -32.959 C 31.0059 -32.959 30.3711 -34.2773 32.0801 -36.4258 L 50.8789 -59.6191 C 54.4434 -63.916 57.0312 -64.8926 61.3281 -64.8926 L 72.2168 -64.8926 L 72.2168 -76.5137 L 61.2305 -76.5137 C 49.5117 -76.5137 46.0938 -73.9258 37.207 -63.0859 L 19.9707 -41.748 C 16.6016 -37.6465 16.0645 -33.3008 16.0645 -25.8789 L 16.0645 10.5469 C 16.0645 24.4141 23.6328 31.8848 37.5 31.8848 Z M 38.623 17.4316 C 33.1055 17.4316 30.1758 14.6484 30.1758 8.88672 L 30.1758 -20.5078 L 66.3086 -20.5078 C 68.7012 -9.76562 78.3691 -1.80664 90.9668 -1.80664 C 103.516 -1.80664 113.184 -9.76562 115.576 -20.5078 L 151.758 -20.5078 L 151.758 8.88672 C 151.758 14.6484 148.73 17.4316 143.311 17.4316 Z"/>
  </g>
  <g id="Semibold-L" transform="matrix(1 0 0 1 1952.64 1556)">
   <path d="M 90.625 -27.1484 C 93.7988 -27.1484 96.3379 -29.7363 96.3379 -32.7637 L 96.3379 -92.7734 L 95.8984 -102.002 L 100.195 -96.8262 L 109.18 -87.3047 C 110.156 -86.2305 111.572 -85.6445 112.988 -85.6445 C 115.723 -85.6445 118.066 -87.6953 118.066 -90.5273 C 118.066 -91.9922 117.48 -93.1152 116.455 -94.1406 L 95.0195 -114.893 C 93.5547 -116.309 92.1387 -116.846 90.625 -116.846 C 89.1113 -116.846 87.7441 -116.309 86.2305 -114.893 L 64.7949 -94.1406 C 63.7695 -93.1152 63.2324 -91.9922 63.2324 -90.5273 C 63.2324 -87.6953 65.4785 -85.6445 68.2617 -85.6445 C 69.6289 -85.6445 71.0938 -86.2305 72.0703 -87.3047 L 81.1035 -96.8262 L 85.4004 -102.002 L 84.9121 -92.7734 L 84.9121 -32.7637 C 84.9121 -29.7363 87.5 -27.1484 90.625 -27.1484 Z M 36.6211 31.3965 L 144.629 31.3965 C 158.057 31.3965 165.186 24.3164 165.186 10.9863 L 165.186 -25.4883 C 165.186 -32.0801 164.6 -35.7422 161.523 -39.502 L 142.676 -62.8906 C 134.473 -72.9004 131.25 -75.3418 120.02 -75.3418 L 108.887 -75.3418 L 108.887 -65.1367 L 120.215 -65.1367 C 124.658 -65.1367 127.393 -64.209 130.908 -59.9121 L 150.928 -34.9609 C 152.93 -32.5195 152.1 -31.2988 149.268 -31.2988 L 109.033 -31.2988 C 105.957 -31.2988 104.541 -29.248 104.541 -26.9043 L 104.541 -26.6602 C 104.541 -19.5801 99.1211 -12.4512 90.625 -12.4512 C 82.1289 -12.4512 76.6602 -19.5801 76.6602 -26.6602 L 76.6602 -26.9043 C 76.6602 -29.248 75.293 -31.2988 72.168 -31.2988 L 32.0312 -31.2988 C 29.1016 -31.2988 28.4668 -32.6172 30.2734 -34.9609 L 50.293 -59.7656 C 53.8574 -64.1602 56.5918 -65.1367 61.0352 -65.1367 L 72.3633 -65.1367 L 72.3633 -75.3418 L 61.2305 -75.3418 C 50 -75.3418 46.7773 -72.9492 38.4766 -62.793 L 19.7266 -39.502 C 16.6504 -35.791 16.0645 -32.0801 16.0645 -25.4883 L 16.0645 10.9863 C 16.0645 24.3652 23.1934 31.3965 36.6211 31.3965 Z M 37.4023 19.043 C 31.3965 19.043 28.1738 16.0156 28.1738 9.76562 L 28.1738 -20.5078 L 66.3574 -20.5078 C 68.3594 -9.32617 78.0762 -1.12305 90.625 -1.12305 C 103.174 -1.12305 112.891 -9.375 114.844 -20.5078 L 153.076 -20.5078 L 153.076 9.76562 C 153.076 16.0156 149.756 19.043 143.848 19.043 Z"/>
  </g>
  <g id="Medium-L" transform="matrix(1 0 0 1 1656.2 1556)">
   <path d="M 90.3809 -25.1953 C 93.1641 -25.1953 95.459 -27.4902 95.459 -30.2246 L 95.459 -92.7246 L 95.0684 -101.953 L 99.707 -96.7285 L 109.277 -86.6699 C 110.156 -85.6934 111.475 -85.1562 112.695 -85.1562 C 115.186 -85.1562 117.285 -87.0117 117.285 -89.5508 C 117.285 -90.918 116.748 -91.8945 115.82 -92.8223 L 94.2383 -113.818 C 92.9199 -115.088 91.6992 -115.527 90.3809 -115.527 C 89.0625 -115.527 87.8418 -115.088 86.5723 -113.818 L 64.9414 -92.8223 C 64.0137 -91.8945 63.4766 -90.918 63.4766 -89.5508 C 63.4766 -87.0117 65.4785 -85.1562 68.0176 -85.1562 C 69.2383 -85.1562 70.6055 -85.6934 71.4844 -86.6699 L 81.0547 -96.7285 L 85.6934 -101.953 L 85.3027 -92.7246 L 85.3027 -30.2246 C 85.3027 -27.4902 87.5977 -25.1953 90.3809 -25.1953 Z M 35.9375 31.0547 L 144.775 31.0547 C 157.861 31.0547 164.648 24.2676 164.648 11.3281 L 164.648 -25.1465 C 164.648 -31.1523 164.062 -34.2773 161.182 -37.793 L 141.211 -62.6953 C 133.447 -72.168 130.371 -74.4141 119.482 -74.4141 L 108.252 -74.4141 L 108.252 -65.3809 L 119.873 -65.3809 C 124.463 -65.3809 127.344 -64.3555 130.859 -60.0586 L 151.758 -33.8379 C 153.857 -31.25 153.027 -30.0293 150.146 -30.0293 L 109.326 -30.0293 C 106.299 -30.0293 104.932 -27.9297 104.932 -25.5859 L 104.932 -25.3418 C 104.932 -17.8711 99.1699 -10.4492 90.3809 -10.4492 C 81.5918 -10.4492 75.8301 -17.8711 75.8301 -25.3418 L 75.8301 -25.5859 C 75.8301 -27.9297 74.4141 -30.0293 71.4355 -30.0293 L 30.6641 -30.0293 C 27.6367 -30.0293 27.002 -31.3477 28.9551 -33.8379 L 49.8047 -59.9121 C 53.418 -64.3555 56.25 -65.3809 60.8398 -65.3809 L 72.5098 -65.3809 L 72.5098 -74.4141 L 61.2793 -74.4141 C 50.3418 -74.4141 47.3145 -72.2168 39.4531 -62.5488 L 19.5312 -37.793 C 16.6992 -34.3262 16.0645 -31.1523 16.0645 -25.1465 L 16.0645 11.3281 C 16.0645 24.3164 22.9004 31.0547 35.9375 31.0547 Z M 36.4746 20.3125 C 30.127 20.3125 26.6602 16.9922 26.6602 10.4492 L 26.6602 -20.5078 L 66.4062 -20.5078 C 68.0664 -8.98438 77.832 -0.585938 90.3809 -0.585938 C 102.93 -0.585938 112.646 -9.0332 114.307 -20.5078 L 154.053 -20.5078 L 154.053 10.4492 C 154.053 16.9922 150.537 20.3125 144.287 20.3125 Z"/>
  </g>
  <g id="Regular-L" transform="matrix(1 0 0 1 1359.81 1556)">
   <path d="M 90.0391 -22.7051 C 92.3828 -22.7051 94.3359 -24.6094 94.3359 -26.9043 L 94.3359 -92.627 L 93.9941 -101.904 L 99.1211 -96.582 L 109.424 -85.8398 C 110.156 -84.9609 111.279 -84.5215 112.354 -84.5215 C 114.551 -84.5215 116.26 -86.1328 116.26 -88.3301 C 116.26 -89.4531 115.82 -90.332 114.99 -91.1621 L 93.1641 -112.402 C 92.0898 -113.477 91.1621 -113.818 90.0391 -113.818 C 88.9648 -113.818 88.0371 -113.477 86.9629 -112.402 L 65.0879 -91.1621 C 64.3066 -90.332 63.8184 -89.4531 63.8184 -88.3301 C 63.8184 -86.1328 65.4785 -84.5215 67.6758 -84.5215 C 68.75 -84.5215 69.9219 -84.9609 70.7031 -85.8398 L 80.957 -96.582 L 86.1328 -101.904 L 85.791 -92.627 L 85.791 -26.9043 C 85.791 -24.6094 87.7441 -22.7051 90.0391 -22.7051 Z M 35.0586 30.6152 L 144.971 30.6152 C 157.617 30.6152 164.014 24.2188 164.014 11.7676 L 164.014 -24.7559 C 164.014 -29.9316 163.33 -32.4219 160.742 -35.5957 L 139.258 -62.4512 C 132.129 -71.1914 129.248 -73.2422 118.75 -73.2422 L 107.422 -73.2422 L 107.422 -65.625 L 119.482 -65.625 C 124.268 -65.625 127.246 -64.6484 130.762 -60.2051 L 152.832 -32.373 C 155.078 -29.5898 154.297 -28.418 151.27 -28.418 L 109.668 -28.418 C 106.738 -28.418 105.371 -26.2695 105.371 -23.877 L 105.371 -23.584 C 105.371 -15.5762 99.1699 -7.86133 90.0391 -7.86133 C 80.8594 -7.86133 74.707 -15.5762 74.707 -23.584 L 74.707 -23.877 C 74.707 -26.2695 73.291 -28.418 70.4102 -28.418 L 28.8574 -28.418 C 25.7324 -28.418 25.1465 -29.7363 27.1973 -32.373 L 49.1699 -60.0586 C 52.832 -64.5996 55.8105 -65.625 60.5957 -65.625 L 72.7051 -65.625 L 72.7051 -73.2422 L 61.2793 -73.2422 C 50.8301 -73.2422 47.998 -71.2402 40.6738 -62.3047 L 19.2871 -35.5957 C 16.7969 -32.4707 16.0645 -29.9316 16.0645 -24.7559 L 16.0645 11.7676 C 16.0645 24.2676 22.4609 30.6152 35.0586 30.6152 Z M 35.2539 21.9238 C 28.418 21.9238 24.707 18.3105 24.707 11.3281 L 24.707 -20.5078 L 66.4551 -20.5078 C 67.6758 -8.54492 77.4902 0.146484 90.0391 0.146484 C 102.588 0.146484 112.354 -8.59375 113.574 -20.5078 L 155.322 -20.5078 L 155.322 11.3281 C 155.322 18.3105 151.514 21.9238 144.824 21.9238 Z"/>
  </g>
  <g id="Light-L" transform="matrix(1 0 0 1 1063.56 1556)">
   <path d="M 89.6484 -22.998 C 91.4062 -22.998 92.9199 -24.4629 92.9199 -26.2207 L 92.9199 -94.0918 L 92.6758 -103.125 L 98.9746 -96.6797 L 110.254 -85.0586 C 110.84 -84.4238 111.768 -84.0332 112.549 -84.0332 C 114.209 -84.0332 115.527 -85.3516 115.527 -87.0117 C 115.527 -87.8906 115.186 -88.5254 114.551 -89.1602 L 91.9922 -111.426 C 91.2109 -112.207 90.4785 -112.5 89.6484 -112.5 C 88.8184 -112.5 88.0371 -112.207 87.2559 -111.426 L 64.6484 -89.1602 C 64.0137 -88.5254 63.6719 -87.8906 63.6719 -87.0117 C 63.6719 -85.3516 64.9414 -84.0332 66.6504 -84.0332 C 67.4316 -84.0332 68.3594 -84.4238 68.9453 -85.0586 L 80.2246 -96.6797 L 86.5723 -103.174 L 86.377 -94.0918 L 86.377 -26.2207 C 86.377 -24.4629 87.8418 -22.998 89.6484 -22.998 Z M 34.0332 29.7852 L 145.117 29.7852 C 157.031 29.7852 163.086 23.6328 163.086 11.9141 L 163.086 -23.584 C 163.086 -27.9785 162.5 -30.0781 160.303 -32.7637 L 136.67 -62.793 C 130.469 -70.5078 127.49 -72.4121 117.969 -72.4121 L 108.008 -72.4121 L 108.008 -66.5039 L 118.652 -66.5039 C 123.73 -66.5039 126.758 -65.2832 130.127 -61.084 L 154.346 -30.2734 C 156.055 -28.0762 155.469 -27.002 153.076 -27.002 L 109.473 -27.002 C 107.031 -27.002 105.859 -25.293 105.859 -23.1934 L 105.859 -22.8516 C 105.859 -13.916 99.0723 -6.20117 89.5996 -6.20117 C 80.0781 -6.20117 73.291 -13.916 73.291 -22.8516 L 73.291 -23.1934 C 73.291 -25.293 72.1191 -27.002 69.7266 -27.002 L 26.123 -27.002 C 23.6816 -27.002 23.2422 -28.1738 24.8535 -30.2734 L 48.9746 -60.9863 C 52.3926 -65.2344 55.4688 -66.5039 60.498 -66.5039 L 71.2402 -66.5039 L 71.2402 -72.4121 L 61.2305 -72.4121 C 51.709 -72.4121 48.7305 -70.5566 42.4316 -62.6953 L 18.8477 -32.7637 C 16.6992 -30.0781 16.0645 -27.9785 16.0645 -23.584 L 16.0645 11.9141 C 16.0645 23.7305 22.168 29.7852 34.0332 29.7852 Z M 34.1797 23.1445 C 26.709 23.1445 22.7051 19.2383 22.7051 11.5723 L 22.7051 -20.8984 L 66.8945 -20.8984 C 67.6758 -8.69141 77.3926 -0.0488281 89.5996 -0.0488281 C 101.807 -0.0488281 111.475 -8.78906 112.256 -20.8984 L 156.494 -20.8984 L 156.494 11.5723 C 156.494 19.2383 152.295 23.1445 144.971 23.1445 Z"/>
  </g>
  <g id="Thin-L" transform="matrix(1 0 0 1 767.433 1556)">
   <path d="M 89.0625 -23.3398 C 90.1367 -23.3398 91.0156 -24.2188 91.0156 -25.293 L 91.0156 -96.0449 L 90.918 -104.736 L 98.7793 -96.7773 L 111.377 -84.082 C 111.768 -83.6914 112.354 -83.4473 112.842 -83.4473 C 113.721 -83.4473 114.6 -84.2773 114.6 -85.2539 C 114.6 -85.791 114.404 -86.1816 114.014 -86.5234 L 90.4785 -110.107 C 90.0391 -110.498 89.5508 -110.693 89.0625 -110.693 C 88.5742 -110.693 88.0859 -110.498 87.6953 -110.107 L 64.0625 -86.5234 C 63.6719 -86.1816 63.4766 -85.791 63.4766 -85.2539 C 63.4766 -84.2773 64.2578 -83.4473 65.2344 -83.4473 C 65.7227 -83.4473 66.3086 -83.6914 66.6992 -84.082 L 79.2969 -96.7773 L 87.207 -104.785 L 87.1094 -96.0449 L 87.1094 -25.293 C 87.1094 -24.2188 87.9883 -23.3398 89.0625 -23.3398 Z M 32.666 28.7109 L 145.312 28.7109 C 156.201 28.7109 161.914 22.8516 161.914 12.1094 L 161.914 -22.0215 C 161.914 -25.3906 161.426 -26.9531 159.766 -29.1016 L 133.252 -63.2812 C 128.271 -69.6777 125.146 -71.2891 116.895 -71.2891 L 108.838 -71.2891 L 108.838 -67.627 L 117.578 -67.627 C 122.998 -67.627 126.172 -66.1133 129.297 -62.1582 L 156.299 -27.4902 C 157.324 -26.0742 157.031 -25.1465 155.518 -25.1465 L 109.18 -25.1465 C 107.422 -25.1465 106.543 -24.0234 106.543 -22.3145 L 106.543 -21.875 C 106.543 -11.7188 98.9258 -4.00391 89.0137 -4.00391 C 79.0527 -4.00391 71.4844 -11.7188 71.4844 -21.875 L 71.4844 -22.3145 C 71.4844 -24.0234 70.6055 -25.1465 68.7988 -25.1465 L 22.5098 -25.1465 C 20.9473 -25.1465 20.6543 -26.0742 21.7285 -27.4902 L 48.6816 -62.1582 C 51.8555 -66.0645 55.0293 -67.627 60.4004 -67.627 L 69.3359 -67.627 L 69.3359 -71.2891 L 61.1328 -71.2891 C 52.832 -71.2891 49.7559 -69.6777 44.7266 -63.2812 L 18.2129 -29.1016 C 16.6016 -26.9531 16.0645 -25.3906 16.0645 -22.0215 L 16.0645 12.1094 C 16.0645 22.998 21.7773 28.7109 32.666 28.7109 Z M 32.8125 24.7559 C 24.4141 24.7559 19.9707 20.4102 19.9707 11.9141 L 19.9707 -21.4355 L 67.4805 -21.4355 C 67.6758 -8.83789 77.2461 -0.292969 89.0137 -0.292969 C 100.781 -0.292969 110.303 -8.98438 110.547 -21.4355 L 158.008 -21.4355 L 158.008 11.9141 C 158.008 20.4102 153.32 24.7559 145.166 24.7559 Z"/>
  </g>
  <g id="Ultralight-L" transform="matrix(1 0 0 1 471.015 1556)">
   <path d="M 88.7695 -23.5352 C 89.502 -23.5352 90.0879 -24.1211 90.0879 -24.8535 L 90.0879 -97.0215 L 90.0391 -105.566 L 98.6816 -96.8262 L 111.963 -83.5938 C 112.207 -83.3496 112.646 -83.1055 112.939 -83.1055 C 113.477 -83.1055 114.111 -83.7402 114.111 -84.375 C 114.111 -84.668 113.965 -84.9609 113.721 -85.2051 L 89.6484 -109.424 C 89.4531 -109.619 89.1113 -109.766 88.7695 -109.766 C 88.4766 -109.766 88.1348 -109.619 87.8906 -109.424 L 63.7695 -85.2051 C 63.5254 -84.9609 63.3789 -84.668 63.3789 -84.375 C 63.3789 -83.7402 63.916 -83.1055 64.5508 -83.1055 C 64.8438 -83.1055 65.2344 -83.3496 65.5273 -83.5938 L 78.8086 -96.8262 L 87.5488 -105.664 L 87.5 -97.0215 L 87.5 -24.8535 C 87.5 -24.1211 88.0859 -23.5352 88.7695 -23.5352 Z M 31.9824 28.1738 L 145.41 28.1738 C 155.811 28.1738 161.328 22.4609 161.328 12.207 L 161.328 -21.1914 C 161.328 -24.1211 160.889 -25.3418 159.473 -27.1973 L 131.494 -63.5254 C 127.148 -69.2383 123.975 -70.7031 116.309 -70.7031 L 109.229 -70.7031 L 109.229 -68.2129 L 117.041 -68.2129 C 122.607 -68.2129 125.83 -66.5039 128.857 -62.7441 L 157.275 -26.0742 C 158.008 -25.0488 157.812 -24.2188 156.738 -24.2188 L 109.033 -24.2188 C 107.568 -24.2188 106.885 -23.3887 106.885 -21.875 L 106.885 -21.3379 C 106.885 -10.5957 98.877 -2.88086 88.7207 -2.88086 C 78.5156 -2.88086 70.5566 -10.5957 70.5566 -21.3379 L 70.5566 -21.875 C 70.5566 -23.3887 69.8242 -24.2188 68.3594 -24.2188 L 20.6543 -24.2188 C 19.5801 -24.2188 19.3848 -25.0488 20.1172 -26.0742 L 48.584 -62.7441 C 51.5625 -66.5039 54.7852 -68.2129 60.3516 -68.2129 L 68.3594 -68.2129 L 68.3594 -70.7031 L 61.084 -70.7031 C 53.418 -70.7031 50.2441 -69.2383 45.8984 -63.5742 L 17.9199 -27.1973 C 16.5039 -25.3418 16.0645 -24.1211 16.0645 -21.1914 L 16.0645 12.207 C 16.0645 22.6074 21.582 28.1738 31.9824 28.1738 Z M 32.1289 25.5859 C 23.1934 25.5859 18.6035 20.9961 18.6035 12.1094 L 18.6035 -21.7285 L 67.7734 -21.7285 C 67.6758 -8.93555 77.1484 -0.439453 88.7207 -0.439453 C 100.244 -0.439453 109.717 -9.13086 109.668 -21.7285 L 158.789 -21.7285 L 158.789 12.1094 C 158.789 20.9961 153.857 25.5859 145.264 25.5859 Z"/>
  </g>
  <g id="Black-M" transform="matrix(1 0 0 1 2861.84 1126)">
   <path d="M 71.582 -40.8691 C 75.9766 -40.8691 79.2969 -44.4824 79.2969 -48.5352 L 79.2969 -80.9082 L 78.6133 -87.8418 L 80.3223 -83.5938 L 84.4727 -79.248 C 85.6934 -77.9297 87.4023 -77.0996 89.3555 -77.0996 C 92.5781 -77.0996 95.8496 -79.5898 95.8496 -83.3008 C 95.8496 -85.2051 95.1172 -86.5234 93.8965 -87.793 L 77.9785 -102.979 C 75.9277 -104.98 73.6816 -105.762 71.582 -105.762 C 69.4336 -105.762 67.1875 -104.98 65.1367 -102.979 L 49.2188 -87.793 C 47.998 -86.5234 47.3145 -85.2051 47.3145 -83.3008 C 47.3145 -79.5898 50.5859 -77.0996 53.7598 -77.0996 C 55.7129 -77.0996 57.4219 -77.9297 58.6914 -79.248 L 62.793 -83.5938 L 64.502 -87.8418 L 63.8184 -80.9082 L 63.8184 -48.5352 C 63.8184 -44.4824 67.1387 -40.8691 71.582 -40.8691 Z M 31.9824 18.1152 L 111.133 18.1152 C 123.389 18.1152 130.664 10.8398 130.664 -1.41602 L 130.664 -28.9062 C 130.664 -37.4512 130.566 -43.1641 127.002 -47.5586 L 118.262 -58.1055 C 109.619 -68.6523 106.104 -71.4355 95.8496 -71.4355 L 88.7207 -71.4355 L 88.7207 -57.5684 L 94.6289 -57.5684 C 97.3633 -57.5684 98.877 -56.8359 101.367 -53.9062 L 112.695 -40.7227 C 113.281 -40.0391 112.744 -39.1602 111.279 -39.1602 L 82.8125 -39.1602 C 80.0781 -39.1602 79.1504 -38.0371 79.1504 -36.5234 L 79.1504 -36.4258 C 79.1504 -32.9102 76.5625 -28.8086 71.582 -28.8086 C 66.5527 -28.8086 63.9648 -32.9102 63.9648 -36.4258 L 63.9648 -36.5234 C 63.9648 -38.0371 63.0371 -39.1602 60.3027 -39.1602 L 31.8359 -39.1602 C 30.4199 -39.1602 29.834 -40.0391 30.4199 -40.7227 L 41.748 -53.9062 C 44.2383 -56.8359 45.8008 -57.5684 48.4863 -57.5684 L 54.4434 -57.5684 L 54.4434 -71.4355 L 47.2656 -71.4355 C 37.0605 -71.4355 33.4961 -68.6523 24.8535 -58.1543 L 16.1621 -47.5586 C 12.5 -43.1641 12.4512 -37.4512 12.4512 -28.9062 L 12.4512 -1.41602 C 12.4512 10.8398 19.7266 18.1152 31.9824 18.1152 Z M 34.1309 -0.146484 C 31.2988 -0.146484 29.9805 -1.26953 29.9805 -4.3457 L 29.9805 -24.0723 L 51.416 -24.0723 C 54.6875 -17.2363 61.9629 -12.207 71.582 -12.207 C 81.1523 -12.207 88.4277 -17.2363 91.6992 -24.0723 L 113.135 -24.0723 L 113.135 -4.3457 C 113.135 -1.26953 111.816 -0.146484 108.984 -0.146484 Z"/>
  </g>
  <g id="Heavy-M" transform="matrix(1 0 0 1 2565.5 1126)">
   <path d="M 71.1914 -37.207 C 75.0488 -37.207 78.0273 -40.3809 78.0273 -43.9941 L 78.0273 -80.4199 L 77.4414 -87.4512 L 79.541 -83.3984 L 84.4238 -78.1738 C 85.5469 -77.002 87.0605 -76.2695 88.7695 -76.2695 C 91.6992 -76.2695 94.5801 -78.5645 94.5801 -81.8359 C 94.5801 -83.5449 93.9453 -84.7168 92.8223 -85.8398 L 76.8066 -101.221 C 74.9512 -103.027 73.0957 -103.662 71.1914 -103.662 C 69.3359 -103.662 67.4316 -103.027 65.625 -101.221 L 49.6094 -85.8398 C 48.4375 -84.7168 47.8516 -83.5449 47.8516 -81.8359 C 47.8516 -78.5645 50.6836 -76.2695 53.6133 -76.2695 C 55.3223 -76.2695 56.8848 -77.002 58.0078 -78.1738 L 62.8906 -83.3984 L 64.9902 -87.4512 L 64.3555 -80.4199 L 64.3555 -43.9941 C 64.3555 -40.3809 67.334 -37.207 71.1914 -37.207 Z M 31.0059 17.6758 L 111.426 17.6758 C 123.193 17.6758 129.932 10.9375 129.932 -0.830078 L 129.932 -28.6621 C 129.932 -36.2305 129.736 -41.1133 126.465 -45.0684 L 116.162 -57.666 C 108.154 -67.4316 104.932 -69.9219 95.0684 -69.9219 L 87.3047 -69.9219 L 87.3047 -57.7637 L 94.2383 -57.7637 C 97.168 -57.7637 98.877 -57.0312 101.465 -53.9551 L 113.867 -39.209 C 114.795 -38.0859 114.16 -37.207 112.451 -37.207 L 83.3496 -37.207 C 80.6641 -37.207 79.6875 -35.8398 79.6875 -34.2285 L 79.6875 -34.082 C 79.6875 -30.0781 76.6602 -25.5371 71.1914 -25.5371 C 65.7227 -25.5371 62.7441 -30.0781 62.7441 -34.082 L 62.7441 -34.2285 C 62.7441 -35.8398 61.7188 -37.207 59.0332 -37.207 L 29.9805 -37.207 C 28.2227 -37.207 27.6367 -38.1348 28.5645 -39.209 L 40.918 -53.9062 C 43.5059 -56.9824 45.2148 -57.7637 48.1445 -57.7637 L 55.0781 -57.7637 L 55.0781 -69.9219 L 47.3633 -69.9219 C 37.5 -69.9219 34.2773 -67.4316 26.2207 -57.6172 L 15.918 -45.0684 C 12.6465 -41.1133 12.4512 -36.2305 12.4512 -28.6621 L 12.4512 -0.830078 C 12.4512 10.9375 19.2383 17.6758 31.0059 17.6758 Z M 32.666 1.85547 C 29.3457 1.85547 27.6855 0.390625 27.6855 -3.125 L 27.6855 -23.9258 L 51.3672 -23.9258 C 54.1504 -16.6016 61.5234 -11.1328 71.1914 -11.1328 C 80.8594 -11.1328 88.2324 -16.6016 91.0156 -23.9258 L 114.697 -23.9258 L 114.697 -3.125 C 114.697 0.390625 113.037 1.85547 109.717 1.85547 Z"/>
  </g>
  <g id="Bold-M" transform="matrix(1 0 0 1 2269.18 1126)">
   <path d="M 70.8008 -33.1055 C 74.0723 -33.1055 76.6113 -35.791 76.6113 -38.8672 L 76.6113 -79.8828 L 76.123 -87.0117 L 78.6133 -83.1543 L 84.375 -77.0508 C 85.3516 -75.9766 86.7188 -75.3906 88.1348 -75.3906 C 90.7715 -75.3906 93.1641 -77.3438 93.1641 -80.2246 C 93.1641 -81.6895 92.627 -82.7148 91.6016 -83.7402 L 75.4395 -99.3164 C 73.877 -100.781 72.3633 -101.318 70.8008 -101.318 C 69.2383 -101.318 67.7246 -100.781 66.1621 -99.3164 L 49.9512 -83.7402 C 48.9746 -82.7148 48.4375 -81.6895 48.4375 -80.2246 C 48.4375 -77.3438 50.7812 -75.3906 53.418 -75.3906 C 54.8828 -75.3906 56.25 -75.9766 57.2266 -77.0508 L 62.9883 -83.1543 L 65.4785 -87.0605 L 64.9902 -79.8828 L 64.9902 -38.8672 C 64.9902 -35.791 67.5293 -33.1055 70.8008 -33.1055 Z M 29.8828 17.1875 L 111.719 17.1875 C 122.949 17.1875 129.15 10.9863 129.15 -0.146484 L 129.15 -28.3691 C 129.15 -34.8633 128.809 -38.7695 125.928 -42.334 L 113.818 -57.1289 C 106.494 -66.0645 103.613 -68.3105 94.1895 -68.3105 L 85.791 -68.3105 L 85.791 -57.959 L 93.8477 -57.959 C 96.9727 -57.959 98.877 -57.2266 101.562 -54.0039 L 115.137 -37.5 C 116.455 -35.8887 115.82 -34.9609 113.721 -34.9609 L 83.9355 -34.9609 C 81.3477 -34.9609 80.2734 -33.3984 80.2734 -31.6895 L 80.2734 -31.4941 C 80.2734 -26.9043 76.7578 -21.9238 70.8008 -21.9238 C 64.8438 -21.9238 61.3281 -26.9043 61.3281 -31.4941 L 61.3281 -31.6895 C 61.3281 -33.3984 60.2539 -34.9609 57.6172 -34.9609 L 27.8809 -34.9609 C 25.7324 -34.9609 25.1953 -35.9375 26.416 -37.5 L 39.9902 -53.9551 C 42.7246 -57.2266 44.6289 -57.959 47.7539 -57.959 L 55.8105 -57.959 L 55.8105 -68.3105 L 47.4121 -68.3105 C 37.9883 -68.3105 35.1562 -66.0645 27.7344 -57.0312 L 15.6738 -42.334 C 12.793 -38.8184 12.4512 -34.8633 12.4512 -28.3691 L 12.4512 -0.146484 C 12.4512 11.0352 18.6523 17.1875 29.8828 17.1875 Z M 31.0059 4.10156 C 27.1484 4.10156 25.1465 2.24609 25.1465 -1.80664 L 25.1465 -23.8281 L 51.3672 -23.8281 C 53.5645 -15.8691 61.0352 -9.96094 70.8008 -9.96094 C 80.5664 -9.96094 87.9883 -15.8691 90.2344 -23.8281 L 116.455 -23.8281 L 116.455 -1.80664 C 116.455 2.24609 114.404 4.10156 110.547 4.10156 Z"/>
  </g>
  <g id="Semibold-M" transform="matrix(1 0 0 1 1972.76 1126)">
   <path d="M 70.5078 -30.2734 C 73.3398 -30.2734 75.6348 -32.6172 75.6348 -35.3027 L 75.6348 -79.541 L 75.1953 -86.7188 L 77.9785 -83.0078 L 84.375 -76.2695 C 85.2051 -75.293 86.4746 -74.7559 87.6953 -74.7559 C 90.1367 -74.7559 92.1875 -76.5625 92.1875 -79.1016 C 92.1875 -80.4199 91.6992 -81.3477 90.8203 -82.2754 L 74.5117 -97.9492 C 73.1445 -99.2676 71.875 -99.707 70.5078 -99.707 C 69.1406 -99.707 67.8711 -99.2676 66.5527 -97.9492 L 50.2441 -82.2754 C 49.3164 -81.3477 48.8281 -80.4199 48.8281 -79.1016 C 48.8281 -76.5625 50.8789 -74.7559 53.2715 -74.7559 C 54.541 -74.7559 55.8105 -75.293 56.6895 -76.2695 L 63.0371 -83.0078 L 65.8203 -86.7188 L 65.4297 -79.541 L 65.4297 -35.3027 C 65.4297 -32.6172 67.6758 -30.2734 70.5078 -30.2734 Z M 29.1016 16.8457 L 111.914 16.8457 C 122.803 16.8457 128.564 11.084 128.564 0.292969 L 128.564 -28.125 C 128.564 -33.8867 128.174 -37.207 125.488 -40.4297 L 112.207 -56.7383 C 105.322 -65.0879 102.734 -67.1387 93.5547 -67.1387 L 84.7168 -67.1387 L 84.7168 -58.1055 L 93.5547 -58.1055 C 96.8262 -58.1055 98.877 -57.373 101.611 -54.0527 L 116.064 -36.2793 C 117.627 -34.375 116.943 -33.4473 114.648 -33.4473 L 84.375 -33.4473 C 81.7871 -33.4473 80.6641 -31.7383 80.6641 -29.8828 L 80.6641 -29.7363 C 80.6641 -24.7559 76.8066 -19.3848 70.5078 -19.3848 C 64.209 -19.3848 60.3516 -24.7559 60.3516 -29.7363 L 60.3516 -29.8828 C 60.3516 -31.7383 59.2285 -33.4473 56.6406 -33.4473 L 26.416 -33.4473 C 24.0723 -33.4473 23.5352 -34.4727 25 -36.2793 L 39.3555 -53.9551 C 42.1387 -57.373 44.1895 -58.1055 47.4609 -58.1055 L 56.2988 -58.1055 L 56.2988 -67.1387 L 47.4609 -67.1387 C 38.2812 -67.1387 35.7422 -65.1367 28.7598 -56.6406 L 15.5273 -40.4297 C 12.8906 -37.207 12.4512 -33.8867 12.4512 -28.125 L 12.4512 0.292969 C 12.4512 11.084 18.2617 16.8457 29.1016 16.8457 Z M 29.8828 5.66406 C 25.6348 5.66406 23.3887 3.51562 23.3887 -0.878906 L 23.3887 -23.7305 L 51.3184 -23.7305 C 53.1738 -15.3809 60.6934 -9.13086 70.5078 -9.13086 C 80.3223 -9.13086 87.8418 -15.3809 89.6973 -23.7305 L 117.627 -23.7305 L 117.627 -0.878906 C 117.627 3.51562 115.332 5.66406 111.133 5.66406 Z"/>
  </g>
  <g id="Medium-M" transform="matrix(1 0 0 1 1676.24 1126)">
   <path d="M 70.3125 -28.1738 C 72.8516 -28.1738 74.9023 -30.2246 74.9023 -32.666 L 74.9023 -79.248 L 74.5117 -86.4746 L 77.5391 -82.9102 L 84.3262 -75.6348 C 85.1074 -74.7559 86.2793 -74.3164 87.4023 -74.3164 C 89.5996 -74.3164 91.4551 -75.9277 91.4551 -78.2227 C 91.4551 -79.4434 91.0156 -80.3223 90.1855 -81.1523 L 73.7793 -96.9238 C 72.6074 -98.0957 71.5332 -98.4863 70.3125 -98.4863 C 69.0918 -98.4863 68.0176 -98.0957 66.8457 -96.9238 L 50.4395 -81.1523 C 49.6094 -80.3223 49.1211 -79.4434 49.1211 -78.2227 C 49.1211 -75.9277 50.9277 -74.3164 53.1738 -74.3164 C 54.2969 -74.3164 55.4688 -74.7559 56.2988 -75.6348 L 63.0859 -82.9102 L 66.1133 -86.5234 L 65.7227 -79.248 L 65.7227 -32.666 C 65.7227 -30.2246 67.7734 -28.1738 70.3125 -28.1738 Z M 28.5156 16.6016 L 112.061 16.6016 C 122.656 16.6016 128.174 11.1328 128.174 0.683594 L 128.174 -27.9785 C 128.174 -33.1543 127.686 -35.9863 125.195 -38.9648 L 110.986 -56.4453 C 104.492 -64.4043 102.051 -66.3086 93.1152 -66.3086 L 83.9355 -66.3086 L 83.9355 -58.2031 L 93.3594 -58.2031 C 96.7285 -58.2031 98.877 -57.5195 101.66 -54.1016 L 116.748 -35.4004 C 118.457 -33.2031 117.773 -32.2754 115.283 -32.2754 L 84.668 -32.2754 C 82.1289 -32.2754 80.957 -30.4688 80.957 -28.5645 L 80.957 -28.3691 C 80.957 -23.0957 76.8555 -17.4805 70.3125 -17.4805 C 63.7207 -17.4805 59.6191 -23.0957 59.6191 -28.3691 L 59.6191 -28.5645 C 59.6191 -30.4688 58.4961 -32.2754 55.9082 -32.2754 L 25.3418 -32.2754 C 22.8027 -32.2754 22.2656 -33.3496 23.877 -35.4004 L 38.8672 -53.9551 C 41.748 -57.4707 43.8477 -58.2031 47.2656 -58.2031 L 56.6895 -58.2031 L 56.6895 -66.3086 L 47.5098 -66.3086 C 38.5742 -66.3086 36.1816 -64.4531 29.541 -56.3477 L 15.3809 -38.9648 C 12.9883 -36.0352 12.4512 -33.1543 12.4512 -27.9785 L 12.4512 0.683594 C 12.4512 11.1328 17.9688 16.6016 28.5156 16.6016 Z M 29.0039 6.83594 C 24.5117 6.83594 22.0703 4.49219 22.0703 -0.195312 L 22.0703 -23.6816 L 51.3184 -23.6816 C 52.8809 -14.9902 60.4492 -8.54492 70.3125 -8.54492 C 80.1758 -8.54492 87.7441 -14.9902 89.3066 -23.6816 L 118.555 -23.6816 L 118.555 -0.195312 C 118.555 4.49219 116.064 6.83594 111.572 6.83594 Z"/>
  </g>
  <g id="Regular-M" transform="matrix(1 0 0 1 1379.82 1126)">
   <path d="M 70.0195 -25.3906 C 72.1191 -25.3906 73.9258 -27.0996 73.9258 -29.1504 L 73.9258 -78.9062 L 73.6328 -86.1816 L 76.9043 -82.7637 L 84.3262 -74.8535 C 85.0098 -74.0723 85.9863 -73.6816 86.9629 -73.6816 C 88.9648 -73.6816 90.5273 -75.1465 90.5273 -77.0996 C 90.5273 -78.1738 90.0879 -78.9551 89.3555 -79.6875 L 72.8516 -95.6055 C 71.875 -96.582 71.0449 -96.9238 70.0195 -96.9238 C 69.043 -96.9238 68.2129 -96.582 67.2363 -95.6055 L 50.6836 -79.6875 C 49.9512 -78.9551 49.5605 -78.1738 49.5605 -77.0996 C 49.5605 -75.1465 51.0254 -73.6816 53.0762 -73.6816 C 54.0039 -73.6816 55.0781 -74.0723 55.7617 -74.8535 L 63.1348 -82.7637 L 66.4551 -86.2305 L 66.1621 -78.9062 L 66.1621 -29.1504 C 66.1621 -27.0996 67.9199 -25.3906 70.0195 -25.3906 Z M 27.7832 16.2598 L 112.256 16.2598 C 122.51 16.2598 127.588 11.1816 127.588 1.12305 L 127.588 -27.7832 C 127.588 -32.2266 127.051 -34.4238 124.805 -37.0605 L 109.424 -56.1035 C 103.369 -63.4766 101.172 -65.1855 92.4805 -65.1855 L 82.9102 -65.1855 L 82.9102 -58.3008 L 93.0664 -58.3008 C 96.6309 -58.3008 98.877 -57.666 101.709 -54.1504 L 117.627 -34.2285 C 119.629 -31.7383 118.896 -30.7617 116.211 -30.7617 L 85.1074 -30.7617 C 82.5684 -30.7617 81.3965 -28.8086 81.3965 -26.8066 L 81.3965 -26.6113 C 81.3965 -20.9473 76.9531 -14.9902 70.0195 -14.9902 C 63.1348 -14.9902 58.6914 -20.9473 58.6914 -26.6113 L 58.6914 -26.8066 C 58.6914 -28.8086 57.4707 -30.7617 54.9316 -30.7617 L 23.9258 -30.7617 C 21.0938 -30.7617 20.5566 -31.8848 22.4609 -34.2285 L 38.2324 -54.0039 C 41.1621 -57.6172 43.4082 -58.3008 46.9727 -58.3008 L 57.1777 -58.3008 L 57.1777 -65.1855 L 47.5586 -65.1855 C 38.8672 -65.1855 36.7676 -63.5254 30.5664 -55.957 L 15.2344 -37.0605 C 13.0859 -34.4727 12.4512 -32.2266 12.4512 -27.7832 L 12.4512 1.12305 C 12.4512 11.1816 17.5781 16.2598 27.7832 16.2598 Z M 27.8809 8.39844 C 22.998 8.39844 20.3125 5.76172 20.3125 0.683594 L 20.3125 -23.584 L 51.2695 -23.584 C 52.4414 -14.4531 60.1074 -7.71484 70.0195 -7.71484 C 79.9316 -7.71484 87.5977 -14.502 88.7695 -23.584 L 119.727 -23.584 L 119.727 0.683594 C 119.727 5.76172 116.992 8.39844 112.158 8.39844 Z"/>
  </g>
  <g id="Light-M" transform="matrix(1 0 0 1 1083.5 1126)">
   <path d="M 69.6777 -25.6348 C 71.2891 -25.6348 72.6562 -26.9531 72.6562 -28.5156 L 72.6562 -80.2246 L 72.4121 -87.3047 L 76.7578 -82.8125 L 85.0586 -74.1699 C 85.5957 -73.584 86.4258 -73.291 87.1582 -73.291 C 88.6719 -73.291 89.8926 -74.4141 89.8926 -75.9277 C 89.8926 -76.7578 89.5508 -77.3438 88.9648 -77.9297 L 71.8262 -94.7266 C 71.0938 -95.459 70.4102 -95.7031 69.6777 -95.7031 C 68.8965 -95.7031 68.2129 -95.459 67.4805 -94.7266 L 50.293 -77.9297 C 49.7559 -77.3438 49.4141 -76.7578 49.4141 -75.9277 C 49.4141 -74.4141 50.5371 -73.291 52.0996 -73.291 C 52.832 -73.291 53.6621 -73.584 54.1992 -74.1699 L 62.5 -82.8125 L 66.8945 -87.3047 L 66.6504 -80.2246 L 66.6504 -28.5156 C 66.6504 -26.9531 68.0176 -25.6348 69.6777 -25.6348 Z M 26.8555 15.5273 L 112.402 15.5273 C 121.973 15.5273 126.807 10.6445 126.807 1.26953 L 126.807 -26.709 C 126.807 -30.4688 126.318 -32.2754 124.463 -34.5703 L 107.08 -56.4453 C 101.855 -62.8906 99.6094 -64.4043 91.7969 -64.4043 L 83.4473 -64.4043 L 83.4473 -59.082 L 92.334 -59.082 C 96.1426 -59.082 98.4375 -58.2031 101.123 -54.8828 L 118.945 -32.3242 C 120.508 -30.3711 119.971 -29.4922 117.822 -29.4922 L 84.9121 -29.4922 C 82.8125 -29.4922 81.8359 -27.9785 81.8359 -26.2207 L 81.8359 -25.9766 C 81.8359 -19.4824 76.8555 -13.4766 69.6289 -13.4766 C 62.4023 -13.4766 57.4219 -19.4824 57.4219 -25.9766 L 57.4219 -26.2207 C 57.4219 -27.9785 56.4453 -29.4922 54.3457 -29.4922 L 21.4355 -29.4922 C 19.2871 -29.4922 18.8477 -30.4688 20.3125 -32.3242 L 38.0371 -54.7852 C 40.8203 -58.2031 43.1152 -59.082 46.9238 -59.082 L 55.8594 -59.082 L 55.8594 -64.4043 L 47.4609 -64.4043 C 39.6484 -64.4043 37.4512 -62.8906 32.1289 -56.3477 L 14.7949 -34.5703 C 12.9883 -32.3242 12.4512 -30.4688 12.4512 -26.709 L 12.4512 1.26953 C 12.4512 10.6934 17.334 15.5273 26.8555 15.5273 Z M 26.9531 9.47266 C 21.4844 9.47266 18.5059 6.5918 18.5059 0.927734 L 18.5059 -23.9746 L 51.6602 -23.9746 C 52.4414 -14.5996 60.0098 -7.91016 69.6289 -7.91016 C 79.248 -7.91016 86.8164 -14.6484 87.5977 -23.9746 L 120.752 -23.9746 L 120.752 0.927734 C 120.752 6.5918 117.676 9.47266 112.305 9.47266 Z"/>
  </g>
  <g id="Thin-M" transform="matrix(1 0 0 1 787.33 1126)">
   <path d="M 69.1406 -25.9277 C 70.1172 -25.9277 70.9473 -26.7578 70.9473 -27.7344 L 70.9473 -81.9336 L 70.8496 -88.7207 L 76.6113 -82.9102 L 86.084 -73.3398 C 86.4258 -72.9492 86.9141 -72.7051 87.3535 -72.7051 C 88.2324 -72.7051 89.0137 -73.4863 89.0137 -74.3652 C 89.0137 -74.8535 88.8184 -75.1953 88.4766 -75.5859 L 70.459 -93.5059 C 70.0195 -93.9453 69.6289 -94.0918 69.1406 -94.0918 C 68.7012 -94.0918 68.2617 -93.9453 67.8711 -93.5059 L 49.8047 -75.5859 C 49.4141 -75.1953 49.2188 -74.8535 49.2188 -74.3652 C 49.2188 -73.4863 49.9512 -72.7051 50.8789 -72.7051 C 51.3184 -72.7051 51.8555 -72.9492 52.1973 -73.3398 L 61.6699 -82.9102 L 67.4805 -88.7695 L 67.334 -81.9336 L 67.334 -27.7344 C 67.334 -26.7578 68.1641 -25.9277 69.1406 -25.9277 Z M 25.6348 14.5508 L 112.598 14.5508 C 121.24 14.5508 125.732 9.96094 125.732 1.41602 L 125.732 -25.3418 C 125.732 -28.1738 125.342 -29.4922 123.926 -31.25 L 104.004 -56.8848 C 99.9023 -62.1094 97.5098 -63.4277 90.8203 -63.4277 L 84.1797 -63.4277 L 84.1797 -60.1074 L 91.3574 -60.1074 C 95.459 -60.1074 97.9004 -58.9844 100.391 -55.8594 L 120.703 -29.834 C 121.68 -28.5645 121.338 -27.832 120.02 -27.832 L 84.668 -27.832 C 83.1543 -27.832 82.4219 -26.8066 82.4219 -25.3906 L 82.4219 -25.0977 C 82.4219 -17.4805 76.709 -11.5234 69.0918 -11.5234 C 61.4746 -11.5234 55.8105 -17.4805 55.8105 -25.0977 L 55.8105 -25.3906 C 55.8105 -26.8066 55.0293 -27.832 53.5156 -27.832 L 18.2129 -27.832 C 16.8457 -27.832 16.6016 -28.6133 17.5293 -29.834 L 37.793 -55.8105 C 40.2832 -58.9355 42.7246 -60.1074 46.8262 -60.1074 L 54.1504 -60.1074 L 54.1504 -63.4277 L 47.4121 -63.4277 C 40.6738 -63.4277 38.3301 -62.1094 34.1797 -56.8359 L 14.2578 -31.25 C 12.8906 -29.4922 12.4512 -28.1738 12.4512 -25.3418 L 12.4512 1.41602 C 12.4512 10.0586 16.9922 14.5508 25.6348 14.5508 Z M 25.7324 10.9375 C 19.3848 10.9375 16.0645 7.61719 16.0645 1.2207 L 16.0645 -24.4629 L 52.1484 -24.4629 C 52.4414 -14.7461 59.8633 -8.10547 69.0918 -8.10547 C 78.3203 -8.10547 85.7422 -14.8438 86.0352 -24.4629 L 122.119 -24.4629 L 122.119 1.2207 C 122.119 7.61719 118.604 10.9375 112.451 10.9375 Z"/>
  </g>
  <g id="Ultralight-M" transform="matrix(1 0 0 1 490.888 1126)">
   <path d="M 68.8965 -26.123 C 69.5312 -26.123 70.1172 -26.6602 70.1172 -27.2949 L 70.1172 -82.8125 L 70.0195 -89.502 L 76.5137 -82.959 L 86.5723 -72.8516 C 86.8164 -72.6074 87.207 -72.4609 87.5 -72.4609 C 88.0371 -72.4609 88.5742 -72.998 88.5742 -73.584 C 88.5742 -73.877 88.4766 -74.1211 88.2324 -74.3652 L 69.7266 -92.9199 C 69.4824 -93.1641 69.1895 -93.2617 68.8965 -93.2617 C 68.6035 -93.2617 68.3105 -93.1641 68.0664 -92.9199 L 49.5117 -74.3652 C 49.2676 -74.1211 49.1699 -73.877 49.1699 -73.584 C 49.1699 -72.998 49.6094 -72.4609 50.2441 -72.4609 C 50.5371 -72.4609 50.8789 -72.6074 51.123 -72.8516 L 61.2305 -82.959 L 67.7734 -89.5508 L 67.6758 -82.8125 L 67.6758 -27.2949 C 67.6758 -26.6602 68.2129 -26.123 68.8965 -26.123 Z M 25 14.0625 L 112.695 14.0625 C 120.85 14.0625 125.195 9.57031 125.195 1.51367 L 125.195 -24.6094 C 125.195 -27.002 124.854 -28.0273 123.682 -29.5898 L 102.441 -57.0801 C 98.877 -61.7188 96.4355 -62.8906 90.332 -62.8906 L 84.5215 -62.8906 L 84.5215 -60.5957 L 90.8691 -60.5957 C 95.1172 -60.5957 97.6074 -59.3262 100 -56.3477 L 121.582 -28.5645 C 122.266 -27.6367 122.07 -26.9531 121.094 -26.9531 L 84.5703 -26.9531 C 83.3496 -26.9531 82.7148 -26.2207 82.7148 -25 L 82.7148 -24.6094 C 82.7148 -16.5039 76.6602 -10.498 68.8477 -10.498 C 61.0352 -10.498 54.9316 -16.5039 54.9316 -24.6094 L 54.9316 -25 C 54.9316 -26.2207 54.3457 -26.9531 53.125 -26.9531 L 16.5527 -26.9531 C 15.5762 -26.9531 15.4297 -27.6367 16.0645 -28.5645 L 37.6953 -56.3477 C 40.0391 -59.3262 42.5293 -60.5957 46.7773 -60.5957 L 53.2715 -60.5957 L 53.2715 -62.8906 L 47.3633 -62.8906 C 41.2109 -62.8906 38.7695 -61.7188 35.2051 -57.0801 L 13.9648 -29.5898 C 12.8418 -28.0273 12.4512 -27.002 12.4512 -24.6094 L 12.4512 1.51367 C 12.4512 9.7168 16.7969 14.0625 25 14.0625 Z M 25.0977 11.6699 C 18.3594 11.6699 14.8438 8.1543 14.8438 1.41602 L 14.8438 -24.707 L 52.4414 -24.707 C 52.4414 -14.8438 59.8145 -8.20312 68.8477 -8.20312 C 77.832 -8.20312 85.2051 -14.9414 85.2539 -24.707 L 122.803 -24.707 L 122.803 1.41602 C 122.803 8.1543 119.043 11.6699 112.549 11.6699 Z"/>
  </g>
  <g id="Black-S" transform="matrix(1 0 0 1 2877.35 696)">
   <path d="M 56.0547 -39.3555 C 59.4727 -39.3555 62.0605 -42.1387 62.0605 -45.3125 L 62.0605 -70.9473 L 61.5234 -76.416 L 62.8906 -73.0957 L 66.1621 -69.6289 C 67.1387 -68.6035 68.457 -67.9688 69.9707 -67.9688 C 72.4609 -67.9688 75 -69.9219 75 -72.8027 C 75 -74.2676 74.4629 -75.293 73.4863 -76.2695 L 61.0352 -88.1836 C 59.4238 -89.7461 57.7148 -90.332 56.0547 -90.332 C 54.3945 -90.332 52.6855 -89.7461 51.0742 -88.1836 L 38.623 -76.2695 C 37.6465 -75.293 37.1094 -74.2676 37.1094 -72.8027 C 37.1094 -69.9219 39.6484 -67.9688 42.1387 -67.9688 C 43.6523 -67.9688 44.9707 -68.6035 45.9473 -69.6289 L 49.2188 -73.0957 L 50.5859 -76.416 L 50.0488 -70.9473 L 50.0488 -45.3125 C 50.0488 -42.1387 52.6367 -39.3555 56.0547 -39.3555 Z M 25 6.54297 L 87.1094 6.54297 C 96.6797 6.54297 102.344 0.878906 102.344 -8.69141 L 102.344 -30.2734 C 102.344 -36.9141 102.246 -41.3086 99.4629 -44.7266 L 92.5293 -53.125 C 85.791 -61.3281 83.0566 -63.4766 75.0488 -63.4766 L 69.3848 -63.4766 L 69.3848 -52.7344 L 74.1211 -52.7344 C 76.2695 -52.7344 77.4902 -52.1484 79.4434 -49.8535 L 88.3789 -39.4531 C 88.8672 -38.8672 88.4277 -38.1836 87.2559 -38.1836 L 64.9414 -38.1836 C 62.793 -38.1836 62.0605 -37.2559 62.0605 -36.084 L 62.0605 -35.9863 C 62.0605 -33.2031 60.0098 -29.9805 56.0547 -29.9805 C 52.0996 -29.9805 50.0488 -33.2031 50.0488 -35.9863 L 50.0488 -36.084 C 50.0488 -37.2559 49.3164 -38.1836 47.168 -38.1836 L 24.8535 -38.1836 C 23.6816 -38.1836 23.2422 -38.8672 23.7305 -39.4531 L 32.666 -49.8535 C 34.6191 -52.1484 35.8398 -52.7344 37.9883 -52.7344 L 42.7246 -52.7344 L 42.7246 -63.4766 L 37.0605 -63.4766 C 29.0527 -63.4766 26.3184 -61.3281 19.5801 -53.125 L 12.6465 -44.7266 C 9.81445 -41.3086 9.76562 -36.9141 9.76562 -30.2734 L 9.76562 -8.69141 C 9.76562 0.878906 15.4297 6.54297 25 6.54297 Z M 26.6602 -7.61719 C 24.4141 -7.61719 23.3398 -8.49609 23.3398 -10.9375 L 23.3398 -26.4648 L 40.2832 -26.4648 C 42.8223 -21.0938 48.5352 -17.0898 56.0547 -17.0898 C 63.5742 -17.0898 69.2871 -21.0938 71.8262 -26.4648 L 88.7695 -26.4648 L 88.7695 -10.9375 C 88.7695 -8.49609 87.6953 -7.61719 85.4492 -7.61719 Z"/>
  </g>
  <g id="Heavy-S" transform="matrix(1 0 0 1 2580.88 696)">
   <path d="M 55.8105 -36.5234 C 58.8867 -36.5234 61.2305 -39.0137 61.2305 -41.8945 L 61.2305 -70.459 L 60.7422 -75.9766 L 62.3047 -72.9492 L 66.0645 -68.8965 C 66.9434 -67.9688 68.1641 -67.3828 69.5312 -67.3828 C 71.8262 -67.3828 74.1211 -69.1895 74.1211 -71.8262 C 74.1211 -73.1445 73.6328 -74.1211 72.7051 -75 L 60.2051 -86.9629 C 58.7891 -88.3789 57.3242 -88.8672 55.8105 -88.8672 C 54.3457 -88.8672 52.8809 -88.3789 51.416 -86.9629 L 38.916 -75 C 38.0371 -74.1211 37.5488 -73.1445 37.5488 -71.8262 C 37.5488 -69.1895 39.7949 -67.3828 42.1387 -67.3828 C 43.457 -67.3828 44.6777 -67.9688 45.6055 -68.8965 L 49.3652 -72.9492 L 50.8789 -75.9766 L 50.3906 -70.459 L 50.3906 -41.8945 C 50.3906 -39.0137 52.7832 -36.5234 55.8105 -36.5234 Z M 24.3652 6.29883 L 87.3047 6.29883 C 96.582 6.29883 101.855 0.976562 101.855 -8.25195 L 101.855 -30.1758 C 101.855 -36.1816 101.709 -39.9414 99.1211 -43.1152 L 91.2109 -52.7344 C 84.8145 -60.4492 82.3242 -62.4512 74.5117 -62.4512 L 68.2617 -62.4512 L 68.2617 -52.7832 L 73.9258 -52.7832 C 76.1719 -52.7832 77.5391 -52.2461 79.5898 -49.8047 L 89.1113 -38.4766 C 89.8926 -37.5 89.4043 -36.8164 87.9395 -36.8164 L 65.3809 -36.8164 C 63.2324 -36.8164 62.4023 -35.6934 62.4023 -34.375 L 62.4023 -34.2773 C 62.4023 -31.2012 60.1074 -27.6367 55.8105 -27.6367 C 51.5625 -27.6367 49.2188 -31.2012 49.2188 -34.2773 L 49.2188 -34.375 C 49.2188 -35.6934 48.4375 -36.8164 46.2891 -36.8164 L 23.6816 -36.8164 C 22.2168 -36.8164 21.7773 -37.5488 22.5098 -38.4766 L 32.0312 -49.7559 C 34.1309 -52.2461 35.4492 -52.7832 37.7441 -52.7832 L 43.3594 -52.7832 L 43.3594 -62.4512 L 37.1094 -62.4512 C 29.2969 -62.4512 26.8066 -60.4492 20.4102 -52.6855 L 12.5488 -43.1152 C 9.91211 -39.9902 9.76562 -36.1816 9.76562 -30.1758 L 9.76562 -8.25195 C 9.76562 0.976562 15.0879 6.29883 24.3652 6.29883 Z M 25.6348 -6.20117 C 23.0957 -6.20117 21.7773 -7.32422 21.7773 -10.0586 L 21.7773 -26.3184 L 40.2344 -26.3184 C 42.4316 -20.5566 48.1934 -16.2598 55.8105 -16.2598 C 63.4277 -16.2598 69.2383 -20.5566 71.4355 -26.3184 L 89.8438 -26.3184 L 89.8438 -10.0586 C 89.8438 -7.32422 88.5742 -6.20117 85.9863 -6.20117 Z"/>
  </g>
  <g id="Bold-S" transform="matrix(1 0 0 1 2284.41 696)">
   <path d="M 55.5664 -33.3496 C 58.2031 -33.3496 60.3027 -35.5469 60.3027 -38.0371 L 60.3027 -69.873 L 59.9121 -75.5371 L 61.6211 -72.7539 L 65.918 -68.1152 C 66.6992 -67.2363 67.8223 -66.748 68.9941 -66.748 C 71.1914 -66.748 73.0957 -68.3594 73.0957 -70.7031 C 73.0957 -71.9238 72.6562 -72.7539 71.8262 -73.584 L 59.3262 -85.5957 C 58.0566 -86.8164 56.8359 -87.2559 55.5664 -87.2559 C 54.2969 -87.2559 53.0762 -86.8164 51.8066 -85.5957 L 39.2578 -73.584 C 38.4766 -72.7539 37.9883 -71.9238 37.9883 -70.7031 C 37.9883 -68.3594 39.9414 -66.748 42.0898 -66.748 C 43.2617 -66.748 44.3848 -67.2363 45.2148 -68.1152 L 49.5117 -72.7539 L 51.2207 -75.5371 L 50.8301 -69.873 L 50.8301 -38.0371 C 50.8301 -35.5469 52.9297 -33.3496 55.5664 -33.3496 Z M 23.6328 6.00586 L 87.5 6.00586 C 96.4844 6.00586 101.367 1.12305 101.367 -7.76367 L 101.367 -30.0781 C 101.367 -35.3027 101.074 -38.4766 98.7305 -41.3086 L 89.6973 -52.2949 C 83.7402 -59.4727 81.543 -61.2793 73.9258 -61.2793 L 67.041 -61.2793 L 67.041 -52.832 L 73.6816 -52.832 C 76.123 -52.832 77.5879 -52.3438 79.7363 -49.7559 L 89.9414 -37.4023 C 91.0645 -35.9863 90.5273 -35.2539 88.7695 -35.2539 L 65.8691 -35.2539 C 63.6719 -35.2539 62.793 -33.9355 62.793 -32.5195 L 62.793 -32.373 C 62.793 -29.0039 60.1562 -25.0488 55.5664 -25.0488 C 50.9277 -25.0488 48.3398 -29.0039 48.3398 -32.373 L 48.3398 -32.5195 C 48.3398 -33.9355 47.4121 -35.2539 45.2637 -35.2539 L 22.4121 -35.2539 C 20.5566 -35.2539 20.1172 -36.084 21.1914 -37.4023 L 31.3477 -49.707 C 33.5449 -52.2949 35.0098 -52.832 37.4023 -52.832 L 44.0918 -52.832 L 44.0918 -61.2793 L 37.1582 -61.2793 C 29.5898 -61.2793 27.3926 -59.5215 21.3867 -52.1973 L 12.4023 -41.3086 C 10.0586 -38.4766 9.76562 -35.3027 9.76562 -30.0781 L 9.76562 -7.76367 C 9.76562 1.12305 14.6973 6.00586 23.6328 6.00586 Z M 24.5117 -4.58984 C 21.6309 -4.58984 20.0684 -6.00586 20.0684 -9.08203 L 20.0684 -26.2207 L 40.1367 -26.2207 C 41.9922 -20.0195 47.8516 -15.332 55.5664 -15.332 C 63.2812 -15.332 69.1406 -20.0195 70.9961 -26.2207 L 91.0645 -26.2207 L 91.0645 -9.08203 C 91.0645 -6.00586 89.502 -4.58984 86.6211 -4.58984 Z"/>
  </g>
  <g id="Semibold-S" transform="matrix(1 0 0 1 1987.9 696)">
   <path d="M 55.3711 -31.2012 C 57.7637 -31.2012 59.668 -33.1543 59.668 -35.4004 L 59.668 -69.4824 L 59.2773 -75.1953 L 61.1328 -72.6562 L 65.8203 -67.5781 C 66.5527 -66.748 67.5781 -66.3086 68.6523 -66.3086 C 70.7031 -66.3086 72.4121 -67.8223 72.4121 -69.9707 C 72.4121 -71.0449 72.0215 -71.875 71.2402 -72.6074 L 58.6914 -84.6191 C 57.5684 -85.7422 56.4941 -86.084 55.3711 -86.084 C 54.248 -86.084 53.1738 -85.7422 52.0508 -84.6191 L 39.502 -72.6074 C 38.7695 -71.875 38.3301 -71.0449 38.3301 -69.9707 C 38.3301 -67.8223 40.0391 -66.3086 42.0898 -66.3086 C 43.1152 -66.3086 44.1895 -66.748 44.9219 -67.5781 L 49.6094 -72.6562 L 51.4648 -75.1953 L 51.123 -69.4824 L 51.123 -35.4004 C 51.123 -33.1543 53.0273 -31.2012 55.3711 -31.2012 Z M 23.0957 5.81055 L 87.6465 5.81055 C 96.3867 5.81055 100.977 1.2207 100.977 -7.42188 L 100.977 -30.0293 C 100.977 -34.7168 100.635 -37.4023 98.4375 -40.0879 L 88.6719 -51.9531 C 83.0078 -58.7891 81.0059 -60.4492 73.5352 -60.4492 L 66.1621 -60.4492 L 66.1621 -52.8809 L 73.5352 -52.8809 C 76.0742 -52.8809 77.6367 -52.3926 79.834 -49.7559 L 90.5273 -36.6699 C 91.8945 -34.9609 91.3086 -34.1797 89.3066 -34.1797 L 66.2109 -34.1797 C 64.0137 -34.1797 63.0859 -32.7148 63.0859 -31.2012 L 63.0859 -31.1035 C 63.0859 -27.4414 60.2539 -23.2422 55.3711 -23.2422 C 50.5371 -23.2422 47.7051 -27.4414 47.7051 -31.1035 L 47.7051 -31.2012 C 47.7051 -32.7148 46.7285 -34.1797 44.5801 -34.1797 L 21.4844 -34.1797 C 19.4336 -34.1797 18.9453 -35.0586 20.2637 -36.6699 L 30.8594 -49.6582 C 33.1543 -52.3926 34.7168 -52.8809 37.207 -52.8809 L 44.5801 -52.8809 L 44.5801 -60.4492 L 37.207 -60.4492 C 29.7852 -60.4492 27.7832 -58.8379 22.0215 -51.8555 L 12.3047 -40.0879 C 10.1562 -37.4512 9.76562 -34.7168 9.76562 -30.0293 L 9.76562 -7.42188 C 9.76562 1.2207 14.4043 5.81055 23.0957 5.81055 Z M 23.6816 -3.51562 C 20.6055 -3.51562 18.8965 -5.07812 18.8965 -8.39844 L 18.8965 -26.123 L 40.0879 -26.123 C 41.6504 -19.6289 47.6074 -14.6973 55.3711 -14.6973 C 63.1836 -14.6973 69.0918 -19.6289 70.6543 -26.123 L 91.8945 -26.123 L 91.8945 -8.39844 C 91.8945 -5.07812 90.1855 -3.51562 87.0605 -3.51562 Z"/>
  </g>
  <g id="Medium-S" transform="matrix(1 0 0 1 1691.31 696)">
   <path d="M 55.2246 -29.541 C 57.4219 -29.541 59.1797 -31.2988 59.1797 -33.3984 L 59.1797 -69.1895 L 58.8379 -74.9512 L 60.791 -72.5586 L 65.7715 -67.1387 C 66.4551 -66.3574 67.4316 -66.0156 68.4082 -66.0156 C 70.3613 -66.0156 71.9238 -67.3828 71.9238 -69.3848 C 71.9238 -70.4102 71.5332 -71.1426 70.8008 -71.875 L 58.2031 -83.8867 C 57.1777 -84.9121 56.2988 -85.2539 55.2246 -85.2539 C 54.1992 -85.2539 53.2715 -84.9121 52.2949 -83.8867 L 39.6973 -71.875 C 38.9648 -71.1426 38.5742 -70.4102 38.5742 -69.3848 C 38.5742 -67.3828 40.0879 -66.0156 42.041 -66.0156 C 43.0176 -66.0156 44.043 -66.3574 44.7266 -67.1387 L 49.707 -72.5586 L 51.6602 -74.9512 L 51.3184 -69.1895 L 51.3184 -33.3984 C 51.3184 -31.2988 53.0762 -29.541 55.2246 -29.541 Z M 22.7051 5.66406 L 87.7441 5.66406 C 96.3379 5.66406 100.732 1.26953 100.732 -7.12891 L 100.732 -29.9805 C 100.732 -34.2773 100.293 -36.6211 98.2422 -39.1113 L 87.8906 -51.709 C 82.4219 -58.3008 80.5664 -59.8633 73.2422 -59.8633 L 65.5273 -59.8633 L 65.5273 -52.9297 L 73.4375 -52.9297 C 76.0254 -52.9297 77.6367 -52.4414 79.8828 -49.707 L 90.9668 -36.084 C 92.4805 -34.1797 91.8945 -33.3984 89.6973 -33.3984 L 66.4551 -33.3984 C 64.2578 -33.3984 63.2812 -31.8359 63.2812 -30.2246 L 63.2812 -30.0781 C 63.2812 -26.2695 60.2539 -21.875 55.2246 -21.875 C 50.1953 -21.875 47.2168 -26.2695 47.2168 -30.0781 L 47.2168 -30.2246 C 47.2168 -31.8359 46.2402 -33.3984 44.043 -33.3984 L 20.8008 -33.3984 C 18.5547 -33.3984 18.1152 -34.2773 19.5312 -36.084 L 30.5176 -49.6094 C 32.8613 -52.4414 34.4727 -52.9297 37.0605 -52.9297 L 44.9707 -52.9297 L 44.9707 -59.8633 L 37.2559 -59.8633 C 29.9316 -59.8633 28.0762 -58.3496 22.5586 -51.6113 L 12.2559 -39.1113 C 10.2051 -36.6699 9.76562 -34.2773 9.76562 -29.9805 L 9.76562 -7.12891 C 9.76562 1.31836 14.209 5.66406 22.7051 5.66406 Z M 23.0957 -2.68555 C 19.8242 -2.68555 17.9688 -4.39453 17.9688 -7.86133 L 17.9688 -26.0254 L 40.0391 -26.0254 C 41.4062 -19.2871 47.4121 -14.209 55.2246 -14.209 C 63.0859 -14.209 69.043 -19.2871 70.459 -26.0254 L 92.4805 -26.0254 L 92.4805 -7.86133 C 92.4805 -4.39453 90.6738 -2.68555 87.4023 -2.68555 Z"/>
  </g>
  <g id="Regular-S" transform="matrix(1 0 0 1 1394.79 696)">
   <path d="M 55.0781 -27.3926 C 56.9336 -27.3926 58.5449 -28.9551 58.5449 -30.7617 L 58.5449 -68.7988 L 58.252 -74.6094 L 60.3516 -72.4121 L 65.6738 -66.6016 C 66.3086 -65.8691 67.1875 -65.5762 68.0664 -65.5762 C 69.873 -65.5762 71.2402 -66.8457 71.2402 -68.6035 C 71.2402 -69.5312 70.8496 -70.2637 70.2148 -70.8984 L 57.6172 -82.959 C 56.6895 -83.8379 55.957 -84.1309 55.0781 -84.1309 C 54.1992 -84.1309 53.418 -83.8379 52.5391 -82.959 L 39.9414 -70.8984 C 39.2578 -70.2637 38.916 -69.5312 38.916 -68.6035 C 38.916 -66.8457 40.2344 -65.5762 42.041 -65.5762 C 42.8711 -65.5762 43.8477 -65.8691 44.4336 -66.6016 L 49.8047 -72.4121 L 51.8555 -74.6582 L 51.6113 -68.7988 L 51.6113 -30.7617 C 51.6113 -28.9551 53.1738 -27.3926 55.0781 -27.3926 Z M 22.2168 5.46875 L 87.8906 5.46875 C 96.2402 5.46875 100.342 1.36719 100.342 -6.83594 L 100.342 -29.9316 C 100.342 -33.6914 99.9023 -35.5957 97.998 -37.8906 L 86.8652 -51.416 C 81.6895 -57.6172 80.0293 -59.082 72.8516 -59.082 L 64.6973 -59.082 L 64.6973 -52.9297 L 73.291 -52.9297 C 75.9277 -52.9297 77.6855 -52.5391 79.9805 -49.6582 L 91.5039 -35.3516 C 93.3105 -33.1543 92.627 -32.3242 90.2344 -32.3242 L 66.748 -32.3242 C 64.5996 -32.3242 63.5254 -30.6152 63.5254 -28.9062 L 63.5254 -28.8086 C 63.5254 -24.7559 60.3516 -20.0684 55.0781 -20.0684 C 49.8047 -20.0684 46.582 -24.7559 46.582 -28.8086 L 46.582 -28.9062 C 46.582 -30.6152 45.5566 -32.3242 43.3594 -32.3242 L 19.9219 -32.3242 C 17.4316 -32.3242 16.9922 -33.3008 18.6035 -35.3516 L 30.0293 -49.5605 C 32.4707 -52.4902 34.1797 -52.9297 36.8652 -52.9297 L 45.459 -52.9297 L 45.459 -59.082 L 37.3047 -59.082 C 30.0781 -59.082 28.4668 -57.666 23.1934 -51.2695 L 12.1582 -37.8906 C 10.3027 -35.6445 9.76562 -33.6914 9.76562 -29.9316 L 9.76562 -6.83594 C 9.76562 1.36719 13.916 5.46875 22.2168 5.46875 Z M 22.3145 -1.61133 C 18.7988 -1.61133 16.7969 -3.4668 16.7969 -7.17773 L 16.7969 -25.9277 L 39.9902 -25.9277 C 41.1133 -18.8965 47.168 -13.623 55.0781 -13.623 C 62.9883 -13.623 68.9941 -18.8965 70.1172 -25.9277 L 93.3105 -25.9277 L 93.3105 -7.17773 C 93.3105 -3.4668 91.3086 -1.61133 87.793 -1.61133 Z"/>
  </g>
  <g id="Light-S" transform="matrix(1 0 0 1 1098.42 696)">
   <path d="M 54.7363 -27.5879 C 56.2012 -27.5879 57.4219 -28.8086 57.4219 -30.2246 L 57.4219 -69.9707 L 57.2266 -75.5859 L 60.2051 -72.4609 L 66.3574 -66.0156 C 66.8457 -65.4785 67.5293 -65.1855 68.2129 -65.1855 C 69.5801 -65.1855 70.6543 -66.2109 70.6543 -67.5781 C 70.6543 -68.3105 70.3613 -68.8477 69.873 -69.3359 L 56.6895 -82.1777 C 56.0059 -82.8613 55.4199 -83.0566 54.7363 -83.0566 C 54.0527 -83.0566 53.4668 -82.8613 52.7832 -82.1777 L 39.5996 -69.3359 C 39.0625 -68.8477 38.7695 -68.3105 38.7695 -67.5781 C 38.7695 -66.2109 39.7949 -65.1855 41.2109 -65.1855 C 41.8457 -65.1855 42.5781 -65.4785 43.0664 -66.0156 L 49.2188 -72.4609 L 52.2461 -75.6348 L 52.0508 -69.9707 L 52.0508 -30.2246 C 52.0508 -28.8086 53.2715 -27.5879 54.7363 -27.5879 Z M 21.3867 4.78516 L 88.0371 4.78516 C 95.752 4.78516 99.6582 0.927734 99.6582 -6.68945 L 99.6582 -28.9551 C 99.6582 -32.1777 99.2188 -33.7402 97.6562 -35.6934 L 84.8145 -51.709 C 80.3711 -57.1289 78.6133 -58.3984 72.168 -58.3984 L 65.1855 -58.3984 L 65.1855 -53.6133 L 72.6074 -53.6133 C 75.4883 -53.6133 77.2949 -53.0273 79.4922 -50.3418 L 92.6758 -33.6914 C 94.0918 -31.9336 93.6035 -31.2012 91.6992 -31.2012 L 66.6016 -31.2012 C 64.7949 -31.2012 63.9648 -29.8828 63.9648 -28.3691 L 63.9648 -28.2227 C 63.9648 -23.4375 60.2539 -18.75 54.7363 -18.75 C 49.1699 -18.75 45.5078 -23.4375 45.5078 -28.2227 L 45.5078 -28.3691 C 45.5078 -29.8828 44.6289 -31.2012 42.8223 -31.2012 L 17.7734 -31.2012 C 15.8203 -31.2012 15.4297 -32.0312 16.748 -33.6914 L 29.8828 -50.2441 C 32.1289 -52.9785 33.9355 -53.6133 36.8164 -53.6133 L 44.2871 -53.6133 L 44.2871 -58.3984 L 37.2559 -58.3984 C 30.8105 -58.3984 29.0527 -57.1289 24.5605 -51.6113 L 11.7676 -35.6934 C 10.2051 -33.7402 9.76562 -32.1777 9.76562 -28.9551 L 9.76562 -6.68945 C 9.76562 0.927734 13.6719 4.78516 21.3867 4.78516 Z M 21.4844 -0.634766 C 17.4316 -0.634766 15.1855 -2.7832 15.1855 -6.98242 L 15.1855 -26.2695 L 40.332 -26.2695 C 41.1133 -18.9941 47.0703 -13.7695 54.7363 -13.7695 C 62.3535 -13.7695 68.3105 -19.043 69.0918 -26.2695 L 94.2383 -26.2695 L 94.2383 -6.98242 C 94.2383 -2.7832 91.9434 -0.634766 87.9395 -0.634766 Z"/>
  </g>
  <g id="Thin-S" transform="matrix(1 0 0 1 802.174 696)">
   <path d="M 54.2969 -27.8809 C 55.1758 -27.8809 55.9082 -28.6133 55.9082 -29.4922 L 55.9082 -71.4844 L 55.8105 -76.8555 L 60.0586 -72.5586 L 67.2363 -65.2344 C 67.5781 -64.8926 68.0176 -64.6973 68.4082 -64.6973 C 69.2383 -64.6973 69.9219 -65.3809 69.9219 -66.2109 C 69.9219 -66.6504 69.7266 -66.9434 69.4336 -67.2852 L 55.4688 -81.1523 C 55.0781 -81.4941 54.6875 -81.6406 54.2969 -81.6406 C 53.8574 -81.6406 53.4668 -81.4941 53.125 -81.1523 L 39.1113 -67.2852 C 38.8184 -66.9434 38.623 -66.6504 38.623 -66.2109 C 38.623 -65.3809 39.2578 -64.6973 40.0879 -64.6973 C 40.5273 -64.6973 40.9668 -64.8926 41.2598 -65.2344 L 48.4863 -72.5586 L 52.7344 -76.9043 L 52.6367 -71.4844 L 52.6367 -29.4922 C 52.6367 -28.6133 53.3691 -27.8809 54.2969 -27.8809 Z M 20.3125 3.95508 L 88.1836 3.95508 C 95.1172 3.95508 98.7305 0.292969 98.7305 -6.54297 L 98.7305 -27.7344 C 98.7305 -30.127 98.3887 -31.25 97.2168 -32.7637 L 82.0801 -52.0996 C 78.6621 -56.4453 76.8066 -57.5195 71.3379 -57.5195 L 65.8203 -57.5195 L 65.8203 -54.4922 L 71.7773 -54.4922 C 74.9512 -54.4922 76.8066 -53.6621 78.8086 -51.2207 L 94.2383 -31.4941 C 95.1172 -30.3711 94.8242 -29.7363 93.6035 -29.7363 L 66.4062 -29.7363 C 65.0879 -29.7363 64.4531 -28.8574 64.4531 -27.6855 L 64.4531 -27.4414 C 64.4531 -21.7285 60.1562 -17.041 54.248 -17.041 C 48.3887 -17.041 44.043 -21.7285 44.043 -27.4414 L 44.043 -27.6855 C 44.043 -28.8574 43.4082 -29.7363 42.0898 -29.7363 L 14.8926 -29.7363 C 13.6719 -29.7363 13.4277 -30.3711 14.2578 -31.4941 L 29.6875 -51.1719 C 31.6895 -53.6621 33.5938 -54.4922 36.7188 -54.4922 L 42.7734 -54.4922 L 42.7734 -57.5195 L 37.1582 -57.5195 C 31.6895 -57.5195 29.8828 -56.4453 26.3672 -52.0508 L 11.2793 -32.7637 C 10.1074 -31.25 9.76562 -30.127 9.76562 -27.7344 L 9.76562 -6.54297 C 9.76562 0.390625 13.3789 3.95508 20.3125 3.95508 Z M 20.4102 0.634766 C 15.625 0.634766 13.0859 -1.85547 13.0859 -6.73828 L 13.0859 -26.6602 L 40.7715 -26.6602 C 41.1133 -19.1406 46.9727 -13.916 54.248 -13.916 C 61.5723 -13.916 67.3828 -19.2383 67.7246 -26.6602 L 95.4102 -26.6602 L 95.4102 -6.73828 C 95.4102 -1.85547 92.7246 0.634766 88.0859 0.634766 Z"/>
  </g>
  <g id="Ultralight-S" transform="matrix(1 0 0 1 505.707 696)">
   <path d="M 54.0527 -28.0273 C 54.6387 -28.0273 55.1758 -28.5156 55.1758 -29.1504 L 55.1758 -72.2656 L 55.0781 -77.5391 L 59.9609 -72.6074 L 67.7246 -64.8438 C 67.9199 -64.5996 68.2617 -64.4531 68.5059 -64.4531 C 69.043 -64.4531 69.5312 -64.9414 69.5312 -65.4785 C 69.5312 -65.7715 69.4336 -66.0156 69.1895 -66.2109 L 54.834 -80.6152 C 54.5898 -80.8105 54.3457 -80.9082 54.0527 -80.9082 C 53.7598 -80.9082 53.5156 -80.8105 53.2715 -80.6152 L 38.8672 -66.2109 C 38.6719 -66.0156 38.5254 -65.7715 38.5254 -65.4785 C 38.5254 -64.9414 38.9648 -64.4531 39.5508 -64.4531 C 39.7949 -64.4531 40.1367 -64.5996 40.332 -64.8438 L 48.0957 -72.6074 L 53.0273 -77.5879 L 52.9785 -72.2656 L 52.9785 -29.1504 C 52.9785 -28.5156 53.4668 -28.0273 54.0527 -28.0273 Z M 19.7754 3.51562 L 88.2812 3.51562 C 94.8242 3.51562 98.2422 -0.0488281 98.2422 -6.44531 L 98.2422 -27.0996 C 98.2422 -29.1016 97.9492 -29.9805 96.9727 -31.25 L 80.7129 -52.2949 C 77.7344 -56.1035 75.8301 -57.0312 70.8984 -57.0312 L 66.1133 -57.0312 L 66.1133 -54.9805 L 71.3379 -54.9805 C 74.6094 -54.9805 76.5625 -54.0039 78.4668 -51.6602 L 95.0195 -30.3223 C 95.6543 -29.541 95.459 -29.0039 94.5801 -29.0039 L 66.3086 -29.0039 C 65.2344 -29.0039 64.7461 -28.3203 64.7461 -27.3438 L 64.7461 -27.0508 C 64.7461 -20.8008 60.0586 -16.1133 54.0039 -16.1133 C 47.9492 -16.1133 43.3105 -20.8008 43.3105 -27.0508 L 43.3105 -27.3438 C 43.3105 -28.3203 42.7734 -29.0039 41.748 -29.0039 L 13.4277 -29.0039 C 12.5488 -29.0039 12.4023 -29.541 12.9883 -30.3223 L 29.5898 -51.6602 C 31.4453 -54.0039 33.3984 -54.9805 36.6699 -54.9805 L 41.9922 -54.9805 L 41.9922 -57.0312 L 37.1094 -57.0312 C 32.1777 -57.0312 30.2734 -56.1035 27.3438 -52.2949 L 11.0352 -31.25 C 10.0586 -29.9805 9.76562 -29.1016 9.76562 -27.0996 L 9.76562 -6.44531 C 9.76562 0.0488281 13.2324 3.51562 19.7754 3.51562 Z M 19.873 1.31836 C 14.6484 1.31836 11.9629 -1.36719 11.9629 -6.5918 L 11.9629 -26.9043 L 41.0156 -26.9043 C 41.1133 -19.2383 46.875 -14.0625 54.0039 -14.0625 C 61.1328 -14.0625 66.8945 -19.3359 66.9922 -26.9043 L 96.0449 -26.9043 L 96.0449 -6.5918 C 96.0449 -1.36719 93.1641 1.31836 88.1836 1.31836 Z"/>
  </g>
 </g>
</svg>
