<?xml version="1.0" encoding="UTF-8"?>
<!--Generator: Apple Native CoreSVG 123-->
<!DOCTYPE svg
PUBLIC "-//W3C//DTD SVG 1.1//EN"
       "http://www.w3.org/Graphics/SVG/1.1/DTD/svg11.dtd">
<svg version="1.1" xmlns="http://www.w3.org/2000/svg" xmlns:xlink="http://www.w3.org/1999/xlink" width="3300" height="2200">
 <!--glyph: "uni1006E6.medium", point size: 100.000000, font version: "Version 15.0d7e11", template writer version: "5"-->
 <g id="Notes">
  <rect height="2200" id="artboard" style="fill:white;opacity:1" width="3300" x="0" y="0"/>
  <line id="" style="fill:none;stroke:black;opacity:1;stroke-width:0.5;" x1="263" x2="3036" y1="292" y2="292"/>
  <text style="stroke:none;fill:black;font-family:-apple-system,&quot;SF Pro Display&quot;,&quot;SF Pro Text&quot;,Helvetica,sans-serif;font-weight:bold;" transform="matrix(1 0 0 1 263 322)">Weight/Scale Variations</text>
  <text style="stroke:none;fill:black;font-family:-apple-system,&quot;SF Pro Display&quot;,&quot;SF Pro Text&quot;,Helvetica,sans-serif;text-anchor:middle;" transform="matrix(1 0 0 1 559.711 322)">Ultralight</text>
  <text style="stroke:none;fill:black;font-family:-apple-system,&quot;SF Pro Display&quot;,&quot;SF Pro Text&quot;,Helvetica,sans-serif;text-anchor:middle;" transform="matrix(1 0 0 1 856.422 322)">Thin</text>
  <text style="stroke:none;fill:black;font-family:-apple-system,&quot;SF Pro Display&quot;,&quot;SF Pro Text&quot;,Helvetica,sans-serif;text-anchor:middle;" transform="matrix(1 0 0 1 1153.13 322)">Light</text>
  <text style="stroke:none;fill:black;font-family:-apple-system,&quot;SF Pro Display&quot;,&quot;SF Pro Text&quot;,Helvetica,sans-serif;text-anchor:middle;" transform="matrix(1 0 0 1 1449.84 322)">Regular</text>
  <text style="stroke:none;fill:black;font-family:-apple-system,&quot;SF Pro Display&quot;,&quot;SF Pro Text&quot;,Helvetica,sans-serif;text-anchor:middle;" transform="matrix(1 0 0 1 1746.56 322)">Medium</text>
  <text style="stroke:none;fill:black;font-family:-apple-system,&quot;SF Pro Display&quot;,&quot;SF Pro Text&quot;,Helvetica,sans-serif;text-anchor:middle;" transform="matrix(1 0 0 1 2043.27 322)">Semibold</text>
  <text style="stroke:none;fill:black;font-family:-apple-system,&quot;SF Pro Display&quot;,&quot;SF Pro Text&quot;,Helvetica,sans-serif;text-anchor:middle;" transform="matrix(1 0 0 1 2339.98 322)">Bold</text>
  <text style="stroke:none;fill:black;font-family:-apple-system,&quot;SF Pro Display&quot;,&quot;SF Pro Text&quot;,Helvetica,sans-serif;text-anchor:middle;" transform="matrix(1 0 0 1 2636.69 322)">Heavy</text>
  <text style="stroke:none;fill:black;font-family:-apple-system,&quot;SF Pro Display&quot;,&quot;SF Pro Text&quot;,Helvetica,sans-serif;text-anchor:middle;" transform="matrix(1 0 0 1 2933.4 322)">Black</text>
  <line id="" style="fill:none;stroke:black;opacity:1;stroke-width:0.5;" x1="263" x2="3036" y1="1903" y2="1903"/>
  <g id="" transform="matrix(1 0 0 1 263 1933)">
   <path d="M 9.24805 0.830078 C 13.5547 0.830078 17.1387 -2.74414 17.1387 -7.05078 C 17.1387 -11.3574 13.5449 -14.9316 9.23828 -14.9316 C 4.94141 -14.9316 1.36719 -11.3574 1.36719 -7.05078 C 1.36719 -2.74414 4.95117 0.830078 9.24805 0.830078 Z M 9.24805 -0.654297 C 5.70312 -0.654297 2.87109 -3.49609 2.87109 -7.05078 C 2.87109 -10.6055 5.69336 -13.4473 9.23828 -13.4473 C 12.793 -13.4473 15.6348 -10.6055 15.6445 -7.05078 C 15.6543 -3.49609 12.8027 -0.654297 9.24805 -0.654297 Z M 9.22852 -3.42773 C 9.69727 -3.42773 9.9707 -3.74023 9.9707 -4.25781 L 9.9707 -6.31836 L 12.1973 -6.31836 C 12.6953 -6.31836 13.0371 -6.57227 13.0371 -7.04102 C 13.0371 -7.51953 12.7148 -7.7832 12.1973 -7.7832 L 9.9707 -7.7832 L 9.9707 -10.0098 C 9.9707 -10.5273 9.69727 -10.8496 9.22852 -10.8496 C 8.75977 -10.8496 8.50586 -10.5078 8.50586 -10.0098 L 8.50586 -7.7832 L 6.29883 -7.7832 C 5.78125 -7.7832 5.44922 -7.51953 5.44922 -7.04102 C 5.44922 -6.57227 5.80078 -6.31836 6.29883 -6.31836 L 8.50586 -6.31836 L 8.50586 -4.25781 C 8.50586 -3.75977 8.75977 -3.42773 9.22852 -3.42773 Z"/>
  </g>
  <g id="" transform="matrix(1 0 0 1 281.506 1933)">
   <path d="M 11.709 2.91016 C 17.1582 2.91016 21.6699 -1.60156 21.6699 -7.05078 C 21.6699 -12.4902 17.1484 -17.0117 11.6992 -17.0117 C 6.25977 -17.0117 1.74805 -12.4902 1.74805 -7.05078 C 1.74805 -1.60156 6.26953 2.91016 11.709 2.91016 Z M 11.709 1.25 C 7.09961 1.25 3.41797 -2.44141 3.41797 -7.05078 C 3.41797 -11.6504 7.08984 -15.3516 11.6992 -15.3516 C 16.3086 -15.3516 20 -11.6504 20.0098 -7.05078 C 20.0195 -2.44141 16.3184 1.25 11.709 1.25 Z M 11.6895 -2.41211 C 12.207 -2.41211 12.5195 -2.77344 12.5195 -3.33984 L 12.5195 -6.23047 L 15.5762 -6.23047 C 16.123 -6.23047 16.5039 -6.51367 16.5039 -7.03125 C 16.5039 -7.55859 16.1426 -7.86133 15.5762 -7.86133 L 12.5195 -7.86133 L 12.5195 -10.9277 C 12.5195 -11.5039 12.207 -11.8555 11.6895 -11.8555 C 11.1719 -11.8555 10.8789 -11.4844 10.8789 -10.9277 L 10.8789 -7.86133 L 7.83203 -7.86133 C 7.26562 -7.86133 6.89453 -7.55859 6.89453 -7.03125 C 6.89453 -6.51367 7.28516 -6.23047 7.83203 -6.23047 L 10.8789 -6.23047 L 10.8789 -3.33984 C 10.8789 -2.79297 11.1719 -2.41211 11.6895 -2.41211 Z"/>
  </g>
  <g id="" transform="matrix(1 0 0 1 304.924 1933)">
   <path d="M 14.9707 5.67383 C 21.9336 5.67383 27.6953 -0.078125 27.6953 -7.04102 C 27.6953 -14.0039 21.9238 -19.7559 14.9609 -19.7559 C 8.00781 -19.7559 2.25586 -14.0039 2.25586 -7.04102 C 2.25586 -0.078125 8.01758 5.67383 14.9707 5.67383 Z M 14.9707 3.85742 C 8.93555 3.85742 4.08203 -1.00586 4.08203 -7.04102 C 4.08203 -13.0762 8.92578 -17.9395 14.9609 -17.9395 C 21.0059 -17.9395 25.8594 -13.0762 25.8691 -7.04102 C 25.8789 -1.00586 21.0156 3.85742 14.9707 3.85742 Z M 14.9512 -1.06445 C 15.5176 -1.06445 15.8691 -1.45508 15.8691 -2.06055 L 15.8691 -6.13281 L 20.1074 -6.13281 C 20.6934 -6.13281 21.1133 -6.46484 21.1133 -7.02148 C 21.1133 -7.59766 20.7227 -7.93945 20.1074 -7.93945 L 15.8691 -7.93945 L 15.8691 -12.1875 C 15.8691 -12.8027 15.5176 -13.1934 14.9512 -13.1934 C 14.3848 -13.1934 14.0625 -12.7832 14.0625 -12.1875 L 14.0625 -7.93945 L 9.83398 -7.93945 C 9.21875 -7.93945 8.80859 -7.59766 8.80859 -7.02148 C 8.80859 -6.46484 9.23828 -6.13281 9.83398 -6.13281 L 14.0625 -6.13281 L 14.0625 -2.06055 C 14.0625 -1.47461 14.3848 -1.06445 14.9512 -1.06445 Z"/>
  </g>
  <text style="stroke:none;fill:black;font-family:-apple-system,&quot;SF Pro Display&quot;,&quot;SF Pro Text&quot;,Helvetica,sans-serif;font-weight:bold;" transform="matrix(1 0 0 1 263 1953)">Design Variations</text>
  <text style="stroke:none;fill:black;font-family:-apple-system,&quot;SF Pro Display&quot;,&quot;SF Pro Text&quot;,Helvetica,sans-serif;" transform="matrix(1 0 0 1 263 1971)">Symbols are supported in up to nine weights and three scales.</text>
  <text style="stroke:none;fill:black;font-family:-apple-system,&quot;SF Pro Display&quot;,&quot;SF Pro Text&quot;,Helvetica,sans-serif;" transform="matrix(1 0 0 1 263 1989)">For optimal layout with text and other symbols, vertically align</text>
  <text style="stroke:none;fill:black;font-family:-apple-system,&quot;SF Pro Display&quot;,&quot;SF Pro Text&quot;,Helvetica,sans-serif;" transform="matrix(1 0 0 1 263 2007)">symbols with the adjacent text.</text>
  <rect height="14" id="" style="fill:#00AEEF;stroke:none;opacity:0.4;" width="3" x="776" y="1919"/>
  <g id="" transform="matrix(1 0 0 1 779 1933)">
   <path d="M 10.5273 0 L 12.373 0 L 7.17773 -14.0918 L 5.43945 -14.0918 L 0.244141 0 L 2.08984 0 L 3.50586 -4.0332 L 9.11133 -4.0332 Z M 6.2793 -11.9531 L 6.33789 -11.9531 L 8.59375 -5.52734 L 4.02344 -5.52734 Z"/>
  </g>
  <rect height="14" id="" style="fill:#00AEEF;stroke:none;opacity:0.4;" width="3" x="791.617" y="1919"/>
  <text style="stroke:none;fill:black;font-family:-apple-system,&quot;SF Pro Display&quot;,&quot;SF Pro Text&quot;,Helvetica,sans-serif;font-weight:bold;" transform="matrix(1 0 0 1 776 1953)">Margins</text>
  <text style="stroke:none;fill:black;font-family:-apple-system,&quot;SF Pro Display&quot;,&quot;SF Pro Text&quot;,Helvetica,sans-serif;" transform="matrix(1 0 0 1 776 1971)">Leading and trailing margins on the left and right side of each symbol</text>
  <text style="stroke:none;fill:black;font-family:-apple-system,&quot;SF Pro Display&quot;,&quot;SF Pro Text&quot;,Helvetica,sans-serif;" transform="matrix(1 0 0 1 776 1989)">can be adjusted by modifying the width of the blue rectangles.</text>
  <text style="stroke:none;fill:black;font-family:-apple-system,&quot;SF Pro Display&quot;,&quot;SF Pro Text&quot;,Helvetica,sans-serif;" transform="matrix(1 0 0 1 776 2007)">Modifications are automatically applied proportionally to all</text>
  <text style="stroke:none;fill:black;font-family:-apple-system,&quot;SF Pro Display&quot;,&quot;SF Pro Text&quot;,Helvetica,sans-serif;" transform="matrix(1 0 0 1 776 2025)">scales and weights.</text>
  <g id="" transform="matrix(1 0 0 1 1289 1933)">
   <path d="M 2.83203 3.11523 L 4.375 4.6582 C 5.22461 5.48828 6.19141 5.41992 7.06055 4.46289 L 17.2754 -6.66016 C 17.7051 -6.36719 18.0957 -6.37695 18.5645 -6.47461 L 19.6094 -6.68945 L 20.3027 -5.99609 L 20.2539 -5.47852 C 20.1855 -4.95117 20.3516 -4.53125 20.8496 -4.0332 L 21.6602 -3.22266 C 22.168 -2.71484 22.8223 -2.68555 23.3008 -3.16406 L 26.5527 -6.41602 C 27.0312 -6.89453 27.0117 -7.54883 26.5039 -8.05664 L 25.6836 -8.87695 C 25.1855 -9.375 24.7754 -9.55078 24.2383 -9.47266 L 23.7109 -9.41406 L 23.0566 -10.0781 L 23.3398 -11.2207 C 23.4863 -11.7871 23.3398 -12.2559 22.7148 -12.8613 L 20.3027 -15.2539 C 16.7578 -18.7793 12.2266 -18.6719 9.11133 -15.5371 C 8.69141 -15.1074 8.64258 -14.5215 8.91602 -14.0918 C 9.15039 -13.7207 9.62891 -13.4961 10.2734 -13.6621 C 11.7871 -14.043 13.3008 -13.9258 14.7852 -12.9199 L 14.1602 -11.3379 C 13.9258 -10.752 13.9453 -10.2734 14.1797 -9.83398 L 3.01758 0.439453 C 2.08008 1.30859 1.97266 2.25586 2.83203 3.11523 Z M 10.6738 -15.1465 C 13.3398 -17.1387 16.6504 -16.8262 19.0527 -14.4141 L 21.6797 -11.8066 C 21.9141 -11.5723 21.9434 -11.3867 21.8848 -11.0938 L 21.5039 -9.53125 L 23.0762 -7.95898 L 24.043 -8.04688 C 24.3262 -8.07617 24.4141 -8.05664 24.6387 -7.83203 L 25.2637 -7.20703 L 22.5098 -4.46289 L 21.8848 -5.07812 C 21.6602 -5.30273 21.6406 -5.40039 21.6699 -5.68359 L 21.7578 -6.64062 L 20.1953 -8.20312 L 18.5742 -7.89062 C 18.291 -7.83203 18.1445 -7.83203 17.9102 -8.07617 L 15.7324 -10.2539 C 15.5078 -10.4883 15.4785 -10.625 15.6055 -10.9473 L 16.5527 -13.2227 C 14.9512 -14.7559 12.8418 -15.6055 10.8008 -14.9512 C 10.7129 -14.9219 10.6445 -14.9414 10.6152 -14.9805 C 10.5859 -15.0293 10.5859 -15.0781 10.6738 -15.1465 Z M 4.10156 2.41211 C 3.61328 1.91406 3.78906 1.61133 4.12109 1.30859 L 15.0781 -8.80859 L 16.3086 -7.57812 L 6.15234 3.34961 C 5.84961 3.68164 5.46875 3.7793 5.06836 3.37891 Z"/>
  </g>
  <text style="stroke:none;fill:black;font-family:-apple-system,&quot;SF Pro Display&quot;,&quot;SF Pro Text&quot;,Helvetica,sans-serif;font-weight:bold;" transform="matrix(1 0 0 1 1289 1953)">Exporting</text>
  <text style="stroke:none;fill:black;font-family:-apple-system,&quot;SF Pro Display&quot;,&quot;SF Pro Text&quot;,Helvetica,sans-serif;" transform="matrix(1 0 0 1 1289 1971)">Symbols should be outlined when exporting to ensure the</text>
  <text style="stroke:none;fill:black;font-family:-apple-system,&quot;SF Pro Display&quot;,&quot;SF Pro Text&quot;,Helvetica,sans-serif;" transform="matrix(1 0 0 1 1289 1989)">design is preserved when submitting to Xcode.</text>
  <text id="template-version" style="stroke:none;fill:black;font-family:-apple-system,&quot;SF Pro Display&quot;,&quot;SF Pro Text&quot;,Helvetica,sans-serif;text-anchor:end;" transform="matrix(1 0 0 1 3036 1933)">Template v.1.0</text>
  <text style="stroke:none;fill:black;font-family:-apple-system,&quot;SF Pro Display&quot;,&quot;SF Pro Text&quot;,Helvetica,sans-serif;text-anchor:end;" transform="matrix(1 0 0 1 3036 1951)">Generated from rectangle.grid.2x2</text>
  <text style="stroke:none;fill:black;font-family:-apple-system,&quot;SF Pro Display&quot;,&quot;SF Pro Text&quot;,Helvetica,sans-serif;text-anchor:end;" transform="matrix(1 0 0 1 3036 1969)">Typeset at 100 points</text>
  <text style="stroke:none;fill:black;font-family:-apple-system,&quot;SF Pro Display&quot;,&quot;SF Pro Text&quot;,Helvetica,sans-serif;" transform="matrix(1 0 0 1 263 726)">Small</text>
  <text style="stroke:none;fill:black;font-family:-apple-system,&quot;SF Pro Display&quot;,&quot;SF Pro Text&quot;,Helvetica,sans-serif;" transform="matrix(1 0 0 1 263 1156)">Medium</text>
  <text style="stroke:none;fill:black;font-family:-apple-system,&quot;SF Pro Display&quot;,&quot;SF Pro Text&quot;,Helvetica,sans-serif;" transform="matrix(1 0 0 1 263 1586)">Large</text>
 </g>
 <g id="Guides">
  <g id="H-reference" style="fill:#27AAE1;stroke:none;" transform="matrix(1 0 0 1 339 696)">
   <path d="M 54.9316 0 L 57.666 0 L 30.5664 -70.459 L 28.0762 -70.459 L 0.976562 0 L 3.66211 0 L 12.9395 -24.4629 L 45.7031 -24.4629 Z M 29.1992 -67.0898 L 29.4434 -67.0898 L 44.8242 -26.709 L 13.8184 -26.709 Z"/>
  </g>
  <line id="Baseline-S" style="fill:none;stroke:#27AAE1;opacity:1;stroke-width:0.577;" x1="263" x2="3036" y1="696" y2="696"/>
  <line id="Capline-S" style="fill:none;stroke:#27AAE1;opacity:1;stroke-width:0.577;" x1="263" x2="3036" y1="625.541" y2="625.541"/>
  <g id="H-reference" style="fill:#27AAE1;stroke:none;" transform="matrix(1 0 0 1 339 1126)">
   <path d="M 54.9316 0 L 57.666 0 L 30.5664 -70.459 L 28.0762 -70.459 L 0.976562 0 L 3.66211 0 L 12.9395 -24.4629 L 45.7031 -24.4629 Z M 29.1992 -67.0898 L 29.4434 -67.0898 L 44.8242 -26.709 L 13.8184 -26.709 Z"/>
  </g>
  <line id="Baseline-M" style="fill:none;stroke:#27AAE1;opacity:1;stroke-width:0.577;" x1="263" x2="3036" y1="1126" y2="1126"/>
  <line id="Capline-M" style="fill:none;stroke:#27AAE1;opacity:1;stroke-width:0.577;" x1="263" x2="3036" y1="1055.54" y2="1055.54"/>
  <g id="H-reference" style="fill:#27AAE1;stroke:none;" transform="matrix(1 0 0 1 339 1556)">
   <path d="M 54.9316 0 L 57.666 0 L 30.5664 -70.459 L 28.0762 -70.459 L 0.976562 0 L 3.66211 0 L 12.9395 -24.4629 L 45.7031 -24.4629 Z M 29.1992 -67.0898 L 29.4434 -67.0898 L 44.8242 -26.709 L 13.8184 -26.709 Z"/>
  </g>
  <line id="Baseline-L" style="fill:none;stroke:#27AAE1;opacity:1;stroke-width:0.577;" x1="263" x2="3036" y1="1556" y2="1556"/>
  <line id="Capline-L" style="fill:none;stroke:#27AAE1;opacity:1;stroke-width:0.577;" x1="263" x2="3036" y1="1485.54" y2="1485.54"/>
  <rect height="119.336" id="left-margin" style="fill:#00AEEF;stroke:none;opacity:0.4;" width="12.4512" x="1383.1" y="1030.79"/>
  <rect height="119.336" id="right-margin" style="fill:#00AEEF;stroke:none;opacity:0.4;" width="12.4512" x="1504.14" y="1030.79"/>
 </g>
 <g id="Symbols">
  <g id="Black-L" transform="matrix(1 0 0 1 2843.56 1556)">
   <path d="M 34.9609 -39.1113 L 67.041 -39.1113 C 79.9805 -39.1113 85.9375 -45.0684 85.9375 -58.0566 L 85.9375 -77.9297 C 85.9375 -90.918 79.9805 -96.875 67.041 -96.875 L 34.9609 -96.875 C 22.0215 -96.875 16.0645 -90.918 16.0645 -77.9297 L 16.0645 -58.0566 C 16.0645 -45.0684 22.0215 -39.1113 34.9609 -39.1113 Z M 112.646 -39.1113 L 144.727 -39.1113 C 157.617 -39.1113 163.623 -45.0684 163.623 -58.0566 L 163.623 -77.9297 C 163.623 -90.918 157.617 -96.875 144.727 -96.875 L 112.646 -96.875 C 99.707 -96.875 93.75 -90.918 93.75 -77.9297 L 93.75 -58.0566 C 93.75 -45.0684 99.707 -39.1113 112.646 -39.1113 Z M 34.8633 -54.7852 C 32.7637 -54.7852 31.7871 -55.7617 31.7871 -57.959 L 31.7871 -78.0762 C 31.7871 -80.1758 32.7637 -81.2012 34.8633 -81.2012 L 67.1387 -81.2012 C 69.2383 -81.2012 70.2148 -80.1758 70.2148 -78.0762 L 70.2148 -57.959 C 70.2148 -55.7617 69.2383 -54.7852 67.1387 -54.7852 Z M 112.549 -54.7852 C 110.4 -54.7852 109.424 -55.7617 109.424 -57.959 L 109.424 -78.0762 C 109.424 -80.1758 110.4 -81.2012 112.549 -81.2012 L 144.824 -81.2012 C 146.924 -81.2012 147.9 -80.1758 147.9 -78.0762 L 147.9 -57.959 C 147.9 -55.7617 146.924 -54.7852 144.824 -54.7852 Z M 34.9609 26.5137 L 67.041 26.5137 C 79.9805 26.5137 85.9375 20.5078 85.9375 7.51953 L 85.9375 -12.3047 C 85.9375 -25.293 79.9805 -31.2988 67.041 -31.2988 L 34.9609 -31.2988 C 22.0215 -31.2988 16.0645 -25.293 16.0645 -12.3047 L 16.0645 7.51953 C 16.0645 20.5078 22.0215 26.5137 34.9609 26.5137 Z M 112.646 26.5137 L 144.727 26.5137 C 157.617 26.5137 163.623 20.5078 163.623 7.51953 L 163.623 -12.3047 C 163.623 -25.293 157.617 -31.2988 144.727 -31.2988 L 112.646 -31.2988 C 99.707 -31.2988 93.75 -25.293 93.75 -12.3047 L 93.75 7.51953 C 93.75 20.5078 99.707 26.5137 112.646 26.5137 Z M 34.8633 10.791 C 32.7637 10.791 31.7871 9.81445 31.7871 7.66602 L 31.7871 -12.4512 C 31.7871 -14.5996 32.7637 -15.5762 34.8633 -15.5762 L 67.1387 -15.5762 C 69.2383 -15.5762 70.2148 -14.5996 70.2148 -12.4512 L 70.2148 7.66602 C 70.2148 9.81445 69.2383 10.791 67.1387 10.791 Z M 112.549 10.791 C 110.4 10.791 109.424 9.81445 109.424 7.66602 L 109.424 -12.4512 C 109.424 -14.5996 110.4 -15.5762 112.549 -15.5762 L 144.824 -15.5762 C 146.924 -15.5762 147.9 -14.5996 147.9 -12.4512 L 147.9 7.66602 C 147.9 9.81445 146.924 10.791 144.824 10.791 Z"/>
  </g>
  <g id="Heavy-L" transform="matrix(1 0 0 1 2547.87 1556)">
   <path d="M 33.1543 -39.4043 L 67.4805 -39.4043 C 79.1016 -39.4043 84.5703 -44.873 84.5703 -56.5918 L 84.5703 -78.6621 C 84.5703 -90.4297 79.1016 -95.8496 67.4805 -95.8496 L 33.1543 -95.8496 C 21.5332 -95.8496 16.0645 -90.4297 16.0645 -78.6621 L 16.0645 -56.5918 C 16.0645 -44.873 21.5332 -39.4043 33.1543 -39.4043 Z M 110.156 -39.4043 L 144.482 -39.4043 C 156.104 -39.4043 161.572 -44.873 161.572 -56.5918 L 161.572 -78.6621 C 161.572 -90.4297 156.104 -95.8496 144.482 -95.8496 L 110.156 -95.8496 C 98.5352 -95.8496 93.0664 -90.4297 93.0664 -78.6621 L 93.0664 -56.5918 C 93.0664 -44.873 98.5352 -39.4043 110.156 -39.4043 Z M 33.1055 -53.2227 C 30.9082 -53.2227 29.8828 -54.248 29.8828 -56.543 L 29.8828 -78.7598 C 29.8828 -81.0059 30.9082 -82.0801 33.1055 -82.0801 L 67.5293 -82.0801 C 69.7266 -82.0801 70.752 -81.0059 70.752 -78.7598 L 70.752 -56.543 C 70.752 -54.248 69.7266 -53.2227 67.5293 -53.2227 Z M 110.107 -53.2227 C 107.861 -53.2227 106.885 -54.248 106.885 -56.543 L 106.885 -78.7598 C 106.885 -81.0059 107.861 -82.0801 110.107 -82.0801 L 144.531 -82.0801 C 146.729 -82.0801 147.754 -81.0059 147.754 -78.7598 L 147.754 -56.543 C 147.754 -54.248 146.729 -53.2227 144.531 -53.2227 Z M 33.1543 25.4883 L 67.4805 25.4883 C 79.1016 25.4883 84.5703 20.0684 84.5703 8.30078 L 84.5703 -13.7695 C 84.5703 -25.4883 79.1016 -30.957 67.4805 -30.957 L 33.1543 -30.957 C 21.5332 -30.957 16.0645 -25.4883 16.0645 -13.7695 L 16.0645 8.30078 C 16.0645 20.0684 21.5332 25.4883 33.1543 25.4883 Z M 110.156 25.4883 L 144.482 25.4883 C 156.104 25.4883 161.572 20.0684 161.572 8.30078 L 161.572 -13.7695 C 161.572 -25.4883 156.104 -30.957 144.482 -30.957 L 110.156 -30.957 C 98.5352 -30.957 93.0664 -25.4883 93.0664 -13.7695 L 93.0664 8.30078 C 93.0664 20.0684 98.5352 25.4883 110.156 25.4883 Z M 33.1055 11.7188 C 30.9082 11.7188 29.8828 10.6445 29.8828 8.39844 L 29.8828 -13.8184 C 29.8828 -16.1133 30.9082 -17.1387 33.1055 -17.1387 L 67.5293 -17.1387 C 69.7266 -17.1387 70.752 -16.1133 70.752 -13.8184 L 70.752 8.39844 C 70.752 10.6445 69.7266 11.7188 67.5293 11.7188 Z M 110.107 11.7188 C 107.861 11.7188 106.885 10.6445 106.885 8.39844 L 106.885 -13.8184 C 106.885 -16.1133 107.861 -17.1387 110.107 -17.1387 L 144.531 -17.1387 C 146.729 -17.1387 147.754 -16.1133 147.754 -13.8184 L 147.754 8.39844 C 147.754 10.6445 146.729 11.7188 144.531 11.7188 Z"/>
  </g>
  <g id="Bold-L" transform="matrix(1 0 0 1 2252.31 1556)">
   <path d="M 31.1035 -39.7949 L 68.0176 -39.7949 C 78.1738 -39.7949 83.0566 -44.6289 83.0566 -54.9805 L 83.0566 -79.541 C 83.0566 -89.8926 78.1738 -94.7266 68.0176 -94.7266 L 31.1035 -94.7266 C 20.9473 -94.7266 16.0645 -89.8926 16.0645 -79.541 L 16.0645 -54.9805 C 16.0645 -44.6289 20.9473 -39.7949 31.1035 -39.7949 Z M 107.373 -39.7949 L 144.238 -39.7949 C 154.395 -39.7949 159.277 -44.6289 159.277 -54.9805 L 159.277 -79.541 C 159.277 -89.8926 154.395 -94.7266 144.238 -94.7266 L 107.373 -94.7266 C 97.168 -94.7266 92.2852 -89.8926 92.2852 -79.541 L 92.2852 -54.9805 C 92.2852 -44.6289 97.168 -39.7949 107.373 -39.7949 Z M 31.1035 -51.4648 C 28.8086 -51.4648 27.7344 -52.5879 27.7344 -54.9805 L 27.7344 -79.5898 C 27.7344 -81.9336 28.8086 -83.0566 31.1035 -83.0566 L 67.9688 -83.0566 C 70.2637 -83.0566 71.3867 -81.9336 71.3867 -79.5898 L 71.3867 -54.9805 C 71.3867 -52.5879 70.2637 -51.4648 67.9688 -51.4648 Z M 107.373 -51.4648 C 105.029 -51.4648 104.004 -52.5879 104.004 -54.9805 L 104.004 -79.5898 C 104.004 -81.9336 105.029 -83.0566 107.373 -83.0566 L 144.238 -83.0566 C 146.533 -83.0566 147.607 -81.9336 147.607 -79.5898 L 147.607 -54.9805 C 147.607 -52.5879 146.533 -51.4648 144.238 -51.4648 Z M 31.1035 24.3652 L 68.0176 24.3652 C 78.1738 24.3652 83.0566 19.5312 83.0566 9.17969 L 83.0566 -15.332 C 83.0566 -25.7324 78.1738 -30.5664 68.0176 -30.5664 L 31.1035 -30.5664 C 20.9473 -30.5664 16.0645 -25.7324 16.0645 -15.332 L 16.0645 9.17969 C 16.0645 19.5312 20.9473 24.3652 31.1035 24.3652 Z M 107.373 24.3652 L 144.238 24.3652 C 154.395 24.3652 159.277 19.5312 159.277 9.17969 L 159.277 -15.332 C 159.277 -25.7324 154.395 -30.5664 144.238 -30.5664 L 107.373 -30.5664 C 97.168 -30.5664 92.2852 -25.7324 92.2852 -15.332 L 92.2852 9.17969 C 92.2852 19.5312 97.168 24.3652 107.373 24.3652 Z M 31.1035 12.6953 C 28.8086 12.6953 27.7344 11.5723 27.7344 9.22852 L 27.7344 -15.3809 C 27.7344 -17.7734 28.8086 -18.8477 31.1035 -18.8477 L 67.9688 -18.8477 C 70.2637 -18.8477 71.3867 -17.7734 71.3867 -15.3809 L 71.3867 9.22852 C 71.3867 11.5723 70.2637 12.6953 67.9688 12.6953 Z M 107.373 12.6953 C 105.029 12.6953 104.004 11.5723 104.004 9.22852 L 104.004 -15.3809 C 104.004 -17.7734 105.029 -18.8477 107.373 -18.8477 L 144.238 -18.8477 C 146.533 -18.8477 147.607 -17.7734 147.607 -15.3809 L 147.607 9.22852 C 147.607 11.5723 146.533 12.6953 144.238 12.6953 Z"/>
  </g>
  <g id="Semibold-L" transform="matrix(1 0 0 1 1956.38 1556)">
   <path d="M 29.7363 -40.0391 L 68.3594 -40.0391 C 77.5391 -40.0391 81.9824 -44.4336 81.9824 -53.8574 L 81.9824 -80.127 C 81.9824 -89.5508 77.5391 -93.9453 68.3594 -93.9453 L 29.7363 -93.9453 C 20.5566 -93.9453 16.0645 -89.5508 16.0645 -80.127 L 16.0645 -53.8574 C 16.0645 -44.4336 20.5566 -40.0391 29.7363 -40.0391 Z M 105.42 -40.0391 L 144.043 -40.0391 C 153.223 -40.0391 157.715 -44.4336 157.715 -53.8574 L 157.715 -80.127 C 157.715 -89.5508 153.223 -93.9453 144.043 -93.9453 L 105.42 -93.9453 C 96.2402 -93.9453 91.7969 -89.5508 91.7969 -80.127 L 91.7969 -53.8574 C 91.7969 -44.4336 96.2402 -40.0391 105.42 -40.0391 Z M 29.7852 -50.293 C 27.3926 -50.293 26.2695 -51.416 26.2695 -53.8574 L 26.2695 -80.127 C 26.2695 -82.5684 27.3926 -83.6914 29.7852 -83.6914 L 68.2617 -83.6914 C 70.6543 -83.6914 71.7773 -82.5684 71.7773 -80.127 L 71.7773 -53.8574 C 71.7773 -51.416 70.6543 -50.293 68.2617 -50.293 Z M 105.518 -50.293 C 103.076 -50.293 102.002 -51.416 102.002 -53.8574 L 102.002 -80.127 C 102.002 -82.5684 103.076 -83.6914 105.518 -83.6914 L 143.994 -83.6914 C 146.387 -83.6914 147.51 -82.5684 147.51 -80.127 L 147.51 -53.8574 C 147.51 -51.416 146.387 -50.293 143.994 -50.293 Z M 29.7363 23.584 L 68.3594 23.584 C 77.5391 23.584 81.9824 19.1895 81.9824 9.76562 L 81.9824 -16.4551 C 81.9824 -25.8789 77.5391 -30.2734 68.3594 -30.2734 L 29.7363 -30.2734 C 20.5566 -30.2734 16.0645 -25.8789 16.0645 -16.4551 L 16.0645 9.76562 C 16.0645 19.1895 20.5566 23.584 29.7363 23.584 Z M 105.42 23.584 L 144.043 23.584 C 153.223 23.584 157.715 19.1895 157.715 9.76562 L 157.715 -16.4551 C 157.715 -25.8789 153.223 -30.2734 144.043 -30.2734 L 105.42 -30.2734 C 96.2402 -30.2734 91.7969 -25.8789 91.7969 -16.4551 L 91.7969 9.76562 C 91.7969 19.1895 96.2402 23.584 105.42 23.584 Z M 29.7852 13.3789 C 27.3926 13.3789 26.2695 12.2559 26.2695 9.81445 L 26.2695 -16.4551 C 26.2695 -18.9453 27.3926 -20.0684 29.7852 -20.0684 L 68.2617 -20.0684 C 70.6543 -20.0684 71.7773 -18.9453 71.7773 -16.4551 L 71.7773 9.81445 C 71.7773 12.2559 70.6543 13.3789 68.2617 13.3789 Z M 105.518 13.3789 C 103.076 13.3789 102.002 12.2559 102.002 9.81445 L 102.002 -16.4551 C 102.002 -18.9453 103.076 -20.0684 105.518 -20.0684 L 143.994 -20.0684 C 146.387 -20.0684 147.51 -18.9453 147.51 -16.4551 L 147.51 9.81445 C 147.51 12.2559 146.387 13.3789 143.994 13.3789 Z"/>
  </g>
  <g id="Medium-L" transform="matrix(1 0 0 1 1660.25 1556)">
   <path d="M 28.6621 -40.2344 L 68.6035 -40.2344 C 77.0508 -40.2344 81.2012 -44.3359 81.2012 -53.0273 L 81.2012 -80.5664 C 81.2012 -89.2578 77.0508 -93.3105 68.6035 -93.3105 L 28.6621 -93.3105 C 20.2637 -93.3105 16.0645 -89.2578 16.0645 -80.5664 L 16.0645 -53.0273 C 16.0645 -44.3359 20.2637 -40.2344 28.6621 -40.2344 Z M 103.955 -40.2344 L 143.945 -40.2344 C 152.344 -40.2344 156.543 -44.3359 156.543 -53.0273 L 156.543 -80.5664 C 156.543 -89.2578 152.344 -93.3105 143.945 -93.3105 L 103.955 -93.3105 C 95.5566 -93.3105 91.3574 -89.2578 91.3574 -80.5664 L 91.3574 -53.0273 C 91.3574 -44.3359 95.5566 -40.2344 103.955 -40.2344 Z M 28.7598 -49.3652 C 26.2695 -49.3652 25.1953 -50.5371 25.1953 -53.0762 L 25.1953 -80.5664 C 25.1953 -83.0566 26.2695 -84.2285 28.7598 -84.2285 L 68.5059 -84.2285 C 70.9473 -84.2285 72.1191 -83.0566 72.1191 -80.5664 L 72.1191 -53.0762 C 72.1191 -50.5371 70.9473 -49.3652 68.5059 -49.3652 Z M 104.102 -49.3652 C 101.611 -49.3652 100.488 -50.5371 100.488 -53.0762 L 100.488 -80.5664 C 100.488 -83.0566 101.611 -84.2285 104.102 -84.2285 L 143.848 -84.2285 C 146.289 -84.2285 147.412 -83.0566 147.412 -80.5664 L 147.412 -53.0762 C 147.412 -50.5371 146.289 -49.3652 143.848 -49.3652 Z M 28.6621 22.998 L 68.6035 22.998 C 77.0508 22.998 81.2012 18.9453 81.2012 10.2051 L 81.2012 -17.2852 C 81.2012 -26.0254 77.0508 -30.0781 68.6035 -30.0781 L 28.6621 -30.0781 C 20.2637 -30.0781 16.0645 -26.0254 16.0645 -17.2852 L 16.0645 10.2051 C 16.0645 18.9453 20.2637 22.998 28.6621 22.998 Z M 103.955 22.998 L 143.945 22.998 C 152.344 22.998 156.543 18.9453 156.543 10.2051 L 156.543 -17.2852 C 156.543 -26.0254 152.344 -30.0781 143.945 -30.0781 L 103.955 -30.0781 C 95.5566 -30.0781 91.3574 -26.0254 91.3574 -17.2852 L 91.3574 10.2051 C 91.3574 18.9453 95.5566 22.998 103.955 22.998 Z M 28.7598 13.916 C 26.2695 13.916 25.1953 12.7441 25.1953 10.2539 L 25.1953 -17.2852 C 25.1953 -19.8242 26.2695 -20.9473 28.7598 -20.9473 L 68.5059 -20.9473 C 70.9473 -20.9473 72.1191 -19.8242 72.1191 -17.2852 L 72.1191 10.2539 C 72.1191 12.7441 70.9473 13.916 68.5059 13.916 Z M 104.102 13.916 C 101.611 13.916 100.488 12.7441 100.488 10.2539 L 100.488 -17.2852 C 100.488 -19.8242 101.611 -20.9473 104.102 -20.9473 L 143.848 -20.9473 C 146.289 -20.9473 147.412 -19.8242 147.412 -17.2852 L 147.412 10.2539 C 147.412 12.7441 146.289 13.916 143.848 13.916 Z"/>
  </g>
  <g id="Regular-L" transform="matrix(1 0 0 1 1364.32 1556)">
   <path d="M 27.2949 -40.5273 L 68.9453 -40.5273 C 76.3672 -40.5273 80.1758 -44.1406 80.1758 -51.9043 L 80.1758 -81.1523 C 80.1758 -88.916 76.3672 -92.5293 68.9453 -92.5293 L 27.2949 -92.5293 C 19.873 -92.5293 16.0645 -88.916 16.0645 -81.1523 L 16.0645 -51.9043 C 16.0645 -44.1406 19.873 -40.5273 27.2949 -40.5273 Z M 102.1 -40.5273 L 143.75 -40.5273 C 151.172 -40.5273 154.98 -44.1406 154.98 -51.9043 L 154.98 -81.1523 C 154.98 -88.916 151.172 -92.5293 143.75 -92.5293 L 102.1 -92.5293 C 94.6289 -92.5293 90.8691 -88.916 90.8691 -81.1523 L 90.8691 -51.9043 C 90.8691 -44.1406 94.6289 -40.5273 102.1 -40.5273 Z M 27.3926 -48.1445 C 24.9023 -48.1445 23.7305 -49.3652 23.7305 -52.002 L 23.7305 -81.1035 C 23.7305 -83.6914 24.9023 -84.8633 27.3926 -84.8633 L 68.7988 -84.8633 C 71.2891 -84.8633 72.5098 -83.6914 72.5098 -81.1035 L 72.5098 -52.002 C 72.5098 -49.3652 71.2891 -48.1445 68.7988 -48.1445 Z M 102.246 -48.1445 C 99.6582 -48.1445 98.5352 -49.3652 98.5352 -52.002 L 98.5352 -81.1035 C 98.5352 -83.6914 99.6582 -84.8633 102.246 -84.8633 L 143.652 -84.8633 C 146.143 -84.8633 147.314 -83.6914 147.314 -81.1035 L 147.314 -52.002 C 147.314 -49.3652 146.143 -48.1445 143.652 -48.1445 Z M 27.2949 22.2168 L 68.9453 22.2168 C 76.3672 22.2168 80.1758 18.6035 80.1758 10.8398 L 80.1758 -18.4082 C 80.1758 -26.1719 76.3672 -29.834 68.9453 -29.834 L 27.2949 -29.834 C 19.873 -29.834 16.0645 -26.1719 16.0645 -18.4082 L 16.0645 10.8398 C 16.0645 18.6035 19.873 22.2168 27.2949 22.2168 Z M 102.1 22.2168 L 143.75 22.2168 C 151.172 22.2168 154.98 18.6035 154.98 10.8398 L 154.98 -18.4082 C 154.98 -26.1719 151.172 -29.834 143.75 -29.834 L 102.1 -29.834 C 94.6289 -29.834 90.8691 -26.1719 90.8691 -18.4082 L 90.8691 10.8398 C 90.8691 18.6035 94.6289 22.2168 102.1 22.2168 Z M 27.3926 14.5508 C 24.9023 14.5508 23.7305 13.3789 23.7305 10.791 L 23.7305 -18.3594 C 23.7305 -20.9473 24.9023 -22.168 27.3926 -22.168 L 68.7988 -22.168 C 71.2891 -22.168 72.5098 -20.9473 72.5098 -18.3594 L 72.5098 10.791 C 72.5098 13.3789 71.2891 14.5508 68.7988 14.5508 Z M 102.246 14.5508 C 99.6582 14.5508 98.5352 13.3789 98.5352 10.791 L 98.5352 -18.3594 C 98.5352 -20.9473 99.6582 -22.168 102.246 -22.168 L 143.652 -22.168 C 146.143 -22.168 147.314 -20.9473 147.314 -18.3594 L 147.314 10.791 C 147.314 13.3789 146.143 14.5508 143.652 14.5508 Z"/>
  </g>
  <g id="Light-L" transform="matrix(1 0 0 1 1068.44 1556)">
   <path d="M 26.1719 -40.6738 L 69.0918 -40.6738 C 75.7324 -40.6738 79.1992 -43.8477 79.1992 -50.8789 L 79.1992 -81.4941 C 79.1992 -88.5254 75.7324 -91.6992 69.0918 -91.6992 L 26.1719 -91.6992 C 19.5312 -91.6992 16.0645 -88.5254 16.0645 -81.4941 L 16.0645 -50.8789 C 16.0645 -43.8477 19.5312 -40.6738 26.1719 -40.6738 Z M 100.293 -40.6738 L 143.213 -40.6738 C 149.854 -40.6738 153.32 -43.8477 153.32 -50.8789 L 153.32 -81.4941 C 153.32 -88.5254 149.854 -91.6992 143.213 -91.6992 L 100.293 -91.6992 C 93.6523 -91.6992 90.1855 -88.5254 90.1855 -81.4941 L 90.1855 -50.8789 C 90.1855 -43.8477 93.6523 -40.6738 100.293 -40.6738 Z M 26.2695 -46.6309 C 23.3398 -46.6309 22.0703 -47.9492 22.0703 -50.9766 L 22.0703 -81.3965 C 22.0703 -84.4238 23.3398 -85.6934 26.2695 -85.6934 L 68.9453 -85.6934 C 71.875 -85.6934 73.1934 -84.4238 73.1934 -81.3965 L 73.1934 -50.9766 C 73.1934 -47.9492 71.875 -46.6309 68.9453 -46.6309 Z M 100.439 -46.6309 C 97.4609 -46.6309 96.1914 -47.9492 96.1914 -50.9766 L 96.1914 -81.3965 C 96.1914 -84.4238 97.4609 -85.6934 100.439 -85.6934 L 143.066 -85.6934 C 146.045 -85.6934 147.314 -84.4238 147.314 -81.3965 L 147.314 -50.9766 C 147.314 -47.9492 146.045 -46.6309 143.066 -46.6309 Z M 26.1719 21.4355 L 69.0918 21.4355 C 75.7324 21.4355 79.1992 18.2129 79.1992 11.2305 L 79.1992 -19.4336 C 79.1992 -26.4648 75.7324 -29.6387 69.0918 -29.6387 L 26.1719 -29.6387 C 19.5312 -29.6387 16.0645 -26.4648 16.0645 -19.4336 L 16.0645 11.2305 C 16.0645 18.2129 19.5312 21.4355 26.1719 21.4355 Z M 100.293 21.4355 L 143.213 21.4355 C 149.854 21.4355 153.32 18.2129 153.32 11.2305 L 153.32 -19.4336 C 153.32 -26.4648 149.854 -29.6387 143.213 -29.6387 L 100.293 -29.6387 C 93.6523 -29.6387 90.1855 -26.4648 90.1855 -19.4336 L 90.1855 11.2305 C 90.1855 18.2129 93.6523 21.4355 100.293 21.4355 Z M 26.2695 15.4297 C 23.3398 15.4297 22.0703 14.1113 22.0703 11.1328 L 22.0703 -19.3359 C 22.0703 -22.3145 23.3398 -23.6328 26.2695 -23.6328 L 68.9453 -23.6328 C 71.875 -23.6328 73.1934 -22.3145 73.1934 -19.3359 L 73.1934 11.1328 C 73.1934 14.1113 71.875 15.4297 68.9453 15.4297 Z M 100.439 15.4297 C 97.4609 15.4297 96.1914 14.1113 96.1914 11.1328 L 96.1914 -19.3359 C 96.1914 -22.3145 97.4609 -23.6328 100.439 -23.6328 L 143.066 -23.6328 C 146.045 -23.6328 147.314 -22.3145 147.314 -19.3359 L 147.314 11.1328 C 147.314 14.1113 146.045 15.4297 143.066 15.4297 Z"/>
  </g>
  <g id="Thin-L" transform="matrix(1 0 0 1 772.828 1556)">
   <path d="M 24.6582 -40.8691 L 69.2383 -40.8691 C 74.8535 -40.8691 77.832 -43.4082 77.832 -49.4629 L 77.832 -81.9336 C 77.832 -87.9883 74.8535 -90.5762 69.2383 -90.5762 L 24.6582 -90.5762 C 19.0918 -90.5762 16.0645 -87.9883 16.0645 -81.9336 L 16.0645 -49.4629 C 16.0645 -43.4082 19.0918 -40.8691 24.6582 -40.8691 Z M 97.9004 -40.8691 L 142.529 -40.8691 C 148.096 -40.8691 151.123 -43.4082 151.123 -49.4629 L 151.123 -81.9336 C 151.123 -87.9883 148.096 -90.5762 142.529 -90.5762 L 97.9004 -90.5762 C 92.334 -90.5762 89.3066 -87.9883 89.3066 -81.9336 L 89.3066 -49.4629 C 89.3066 -43.4082 92.334 -40.8691 97.9004 -40.8691 Z M 24.8047 -44.6289 C 21.2891 -44.6289 19.873 -46.0449 19.873 -49.6094 L 19.873 -81.7871 C 19.873 -85.3516 21.2891 -86.7676 24.8047 -86.7676 L 69.0918 -86.7676 C 72.6562 -86.7676 74.0723 -85.3516 74.0723 -81.7871 L 74.0723 -49.6094 C 74.0723 -46.0449 72.6562 -44.6289 69.0918 -44.6289 Z M 98.0957 -44.6289 C 94.5312 -44.6289 93.1152 -46.0449 93.1152 -49.6094 L 93.1152 -81.7871 C 93.1152 -85.3516 94.5312 -86.7676 98.0957 -86.7676 L 142.334 -86.7676 C 145.898 -86.7676 147.314 -85.3516 147.314 -81.7871 L 147.314 -49.6094 C 147.314 -46.0449 145.898 -44.6289 142.334 -44.6289 Z M 24.6582 20.3613 L 69.2383 20.3613 C 74.8535 20.3613 77.832 17.7734 77.832 11.7188 L 77.832 -20.752 C 77.832 -26.8066 74.8535 -29.3945 69.2383 -29.3945 L 24.6582 -29.3945 C 19.0918 -29.3945 16.0645 -26.8066 16.0645 -20.752 L 16.0645 11.7188 C 16.0645 17.7734 19.0918 20.3613 24.6582 20.3613 Z M 97.9004 20.3613 L 142.529 20.3613 C 148.096 20.3613 151.123 17.7734 151.123 11.7188 L 151.123 -20.752 C 151.123 -26.8066 148.096 -29.3945 142.529 -29.3945 L 97.9004 -29.3945 C 92.334 -29.3945 89.3066 -26.8066 89.3066 -20.752 L 89.3066 11.7188 C 89.3066 17.7734 92.334 20.3613 97.9004 20.3613 Z M 24.8047 16.5527 C 21.2891 16.5527 19.873 15.1367 19.873 11.5723 L 19.873 -20.6055 C 19.873 -24.1699 21.2891 -25.5859 24.8047 -25.5859 L 69.0918 -25.5859 C 72.6562 -25.5859 74.0723 -24.1699 74.0723 -20.6055 L 74.0723 11.5723 C 74.0723 15.1367 72.6562 16.5527 69.0918 16.5527 Z M 98.0957 16.5527 C 94.5312 16.5527 93.1152 15.1367 93.1152 11.5723 L 93.1152 -20.6055 C 93.1152 -24.1699 94.5312 -25.5859 98.0957 -25.5859 L 142.334 -25.5859 C 145.898 -25.5859 147.314 -24.1699 147.314 -20.6055 L 147.314 11.5723 C 147.314 15.1367 145.898 16.5527 142.334 16.5527 Z"/>
  </g>
  <g id="Ultralight-L" transform="matrix(1 0 0 1 476.679 1556)">
   <path d="M 23.877 -40.9668 L 69.3359 -40.9668 C 74.4141 -40.9668 77.1973 -43.2129 77.1973 -48.7793 L 77.1973 -82.1777 C 77.1973 -87.7441 74.4141 -89.9902 69.3359 -89.9902 L 23.877 -89.9902 C 18.8477 -89.9902 16.0645 -87.7441 16.0645 -82.1777 L 16.0645 -48.7793 C 16.0645 -43.2129 18.8477 -40.9668 23.877 -40.9668 Z M 96.6797 -40.9668 L 142.139 -40.9668 C 147.217 -40.9668 150 -43.2129 150 -48.7793 L 150 -82.1777 C 150 -87.7441 147.217 -89.9902 142.139 -89.9902 L 96.6797 -89.9902 C 91.6504 -89.9902 88.8672 -87.7441 88.8672 -82.1777 L 88.8672 -48.7793 C 88.8672 -43.2129 91.6504 -40.9668 96.6797 -40.9668 Z M 24.0723 -43.6035 C 20.2148 -43.6035 18.75 -45.1172 18.75 -48.9258 L 18.75 -82.0312 C 18.75 -85.8398 20.2148 -87.3047 24.0723 -87.3047 L 69.1895 -87.3047 C 73.0469 -87.3047 74.5117 -85.8398 74.5117 -82.0312 L 74.5117 -48.9258 C 74.5117 -45.1172 73.0469 -43.6035 69.1895 -43.6035 Z M 96.875 -43.6035 C 93.0176 -43.6035 91.5527 -45.1172 91.5527 -48.9258 L 91.5527 -82.0312 C 91.5527 -85.8398 93.0176 -87.3047 96.875 -87.3047 L 141.992 -87.3047 C 145.85 -87.3047 147.314 -85.8398 147.314 -82.0312 L 147.314 -48.9258 C 147.314 -45.1172 145.85 -43.6035 141.992 -43.6035 Z M 23.877 19.7754 L 69.3359 19.7754 C 74.4141 19.7754 77.1973 17.5293 77.1973 11.9629 L 77.1973 -21.4355 C 77.1973 -27.002 74.4141 -29.248 69.3359 -29.248 L 23.877 -29.248 C 18.8477 -29.248 16.0645 -27.002 16.0645 -21.4355 L 16.0645 11.9629 C 16.0645 17.5293 18.8477 19.7754 23.877 19.7754 Z M 96.6797 19.7754 L 142.139 19.7754 C 147.217 19.7754 150 17.5293 150 11.9629 L 150 -21.4355 C 150 -27.002 147.217 -29.248 142.139 -29.248 L 96.6797 -29.248 C 91.6504 -29.248 88.8672 -27.002 88.8672 -21.4355 L 88.8672 11.9629 C 88.8672 17.5293 91.6504 19.7754 96.6797 19.7754 Z M 24.0723 17.1387 C 20.2148 17.1387 18.75 15.625 18.75 11.8164 L 18.75 -21.2891 C 18.75 -25.0977 20.2148 -26.5625 24.0723 -26.5625 L 69.1895 -26.5625 C 73.0469 -26.5625 74.5117 -25.0977 74.5117 -21.2891 L 74.5117 11.8164 C 74.5117 15.625 73.0469 17.1387 69.1895 17.1387 Z M 96.875 17.1387 C 93.0176 17.1387 91.5527 15.625 91.5527 11.8164 L 91.5527 -21.2891 C 91.5527 -25.0977 93.0176 -26.5625 96.875 -26.5625 L 141.992 -26.5625 C 145.85 -26.5625 147.314 -25.0977 147.314 -21.2891 L 147.314 11.8164 C 147.314 15.625 145.85 17.1387 141.992 17.1387 Z"/>
  </g>
  <g id="Black-M" transform="matrix(1 0 0 1 2862.84 1126)">
   <path d="M 28.9551 -37.8418 L 51.416 -37.8418 C 62.7441 -37.8418 67.9199 -43.0176 67.9199 -54.3457 L 67.9199 -67.4805 C 67.9199 -78.8086 62.7441 -83.9355 51.416 -83.9355 L 28.9551 -83.9355 C 17.627 -83.9355 12.4512 -78.8086 12.4512 -67.4805 L 12.4512 -54.3457 C 12.4512 -43.0176 17.627 -37.8418 28.9551 -37.8418 Z M 89.6973 -37.8418 L 112.158 -37.8418 C 123.486 -37.8418 128.662 -43.0176 128.662 -54.3457 L 128.662 -67.4805 C 128.662 -78.8086 123.486 -83.9355 112.158 -83.9355 L 89.6973 -83.9355 C 78.3691 -83.9355 73.1934 -78.8086 73.1934 -67.4805 L 73.1934 -54.3457 C 73.1934 -43.0176 78.3691 -37.8418 89.6973 -37.8418 Z M 28.8086 -51.709 C 27.0508 -51.709 26.3184 -52.4414 26.3184 -54.1992 L 26.3184 -67.5781 C 26.3184 -69.3359 27.0508 -70.1172 28.8086 -70.1172 L 51.5625 -70.1172 C 53.3203 -70.1172 54.0527 -69.3359 54.0527 -67.5781 L 54.0527 -54.1992 C 54.0527 -52.4414 53.3203 -51.709 51.5625 -51.709 Z M 89.5508 -51.709 C 87.793 -51.709 87.0605 -52.4414 87.0605 -54.1992 L 87.0605 -67.5781 C 87.0605 -69.3359 87.793 -70.1172 89.5508 -70.1172 L 112.305 -70.1172 C 114.062 -70.1172 114.795 -69.3359 114.795 -67.5781 L 114.795 -54.1992 C 114.795 -52.4414 114.062 -51.709 112.305 -51.709 Z M 28.9551 13.5742 L 51.416 13.5742 C 62.7441 13.5742 67.9199 8.39844 67.9199 -2.92969 L 67.9199 -16.0645 C 67.9199 -27.3926 62.7441 -32.5684 51.416 -32.5684 L 28.9551 -32.5684 C 17.627 -32.5684 12.4512 -27.3926 12.4512 -16.0645 L 12.4512 -2.92969 C 12.4512 8.39844 17.627 13.5742 28.9551 13.5742 Z M 89.6973 13.5742 L 112.158 13.5742 C 123.486 13.5742 128.662 8.39844 128.662 -2.92969 L 128.662 -16.0645 C 128.662 -27.3926 123.486 -32.5684 112.158 -32.5684 L 89.6973 -32.5684 C 78.3691 -32.5684 73.1934 -27.3926 73.1934 -16.0645 L 73.1934 -2.92969 C 73.1934 8.39844 78.3691 13.5742 89.6973 13.5742 Z M 28.8086 -0.292969 C 27.0508 -0.292969 26.3184 -1.02539 26.3184 -2.7832 L 26.3184 -16.2109 C 26.3184 -17.9688 27.0508 -18.7012 28.8086 -18.7012 L 51.5625 -18.7012 C 53.3203 -18.7012 54.0527 -17.9688 54.0527 -16.2109 L 54.0527 -2.7832 C 54.0527 -1.02539 53.3203 -0.292969 51.5625 -0.292969 Z M 89.5508 -0.292969 C 87.793 -0.292969 87.0605 -1.02539 87.0605 -2.7832 L 87.0605 -16.2109 C 87.0605 -17.9688 87.793 -18.7012 89.5508 -18.7012 L 112.305 -18.7012 C 114.062 -18.7012 114.795 -17.9688 114.795 -16.2109 L 114.795 -2.7832 C 114.795 -1.02539 114.062 -0.292969 112.305 -0.292969 Z"/>
  </g>
  <g id="Heavy-M" transform="matrix(1 0 0 1 2567.04 1126)">
   <path d="M 27.2461 -38.1836 L 51.9043 -38.1836 C 62.0117 -38.1836 66.6504 -42.8223 66.6504 -53.0273 L 66.6504 -68.2129 C 66.6504 -78.3691 62.0117 -83.0566 51.9043 -83.0566 L 27.2461 -83.0566 C 17.1387 -83.0566 12.4512 -78.3691 12.4512 -68.2129 L 12.4512 -53.0273 C 12.4512 -42.8223 17.1387 -38.1836 27.2461 -38.1836 Z M 87.4512 -38.1836 L 112.061 -38.1836 C 122.168 -38.1836 126.855 -42.8223 126.855 -53.0273 L 126.855 -68.2129 C 126.855 -78.3691 122.168 -83.0566 112.061 -83.0566 L 87.4512 -83.0566 C 77.2949 -83.0566 72.6562 -78.3691 72.6562 -68.2129 L 72.6562 -53.0273 C 72.6562 -42.8223 77.2949 -38.1836 87.4512 -38.1836 Z M 27.1484 -50.3906 C 25.4395 -50.3906 24.6582 -51.1719 24.6582 -52.9297 L 24.6582 -68.3105 C 24.6582 -70.0684 25.4395 -70.8496 27.1484 -70.8496 L 51.9531 -70.8496 C 53.7109 -70.8496 54.4922 -70.0684 54.4922 -68.3105 L 54.4922 -52.9297 C 54.4922 -51.1719 53.7109 -50.3906 51.9531 -50.3906 Z M 87.3535 -50.3906 C 85.5957 -50.3906 84.8145 -51.1719 84.8145 -52.9297 L 84.8145 -68.3105 C 84.8145 -70.0684 85.5957 -70.8496 87.3535 -70.8496 L 112.158 -70.8496 C 113.867 -70.8496 114.648 -70.0684 114.648 -68.3105 L 114.648 -52.9297 C 114.648 -51.1719 113.867 -50.3906 112.158 -50.3906 Z M 27.2461 12.6465 L 51.9043 12.6465 C 62.0117 12.6465 66.6504 8.00781 66.6504 -2.19727 L 66.6504 -17.3828 C 66.6504 -27.5391 62.0117 -32.2266 51.9043 -32.2266 L 27.2461 -32.2266 C 17.1387 -32.2266 12.4512 -27.5391 12.4512 -17.3828 L 12.4512 -2.19727 C 12.4512 8.00781 17.1387 12.6465 27.2461 12.6465 Z M 87.4512 12.6465 L 112.061 12.6465 C 122.168 12.6465 126.855 8.00781 126.855 -2.19727 L 126.855 -17.3828 C 126.855 -27.5391 122.168 -32.2266 112.061 -32.2266 L 87.4512 -32.2266 C 77.2949 -32.2266 72.6562 -27.5391 72.6562 -17.3828 L 72.6562 -2.19727 C 72.6562 8.00781 77.2949 12.6465 87.4512 12.6465 Z M 27.1484 0.439453 C 25.4395 0.439453 24.6582 -0.341797 24.6582 -2.05078 L 24.6582 -17.4805 C 24.6582 -19.2383 25.4395 -20.0195 27.1484 -20.0195 L 51.9531 -20.0195 C 53.7109 -20.0195 54.4922 -19.2383 54.4922 -17.4805 L 54.4922 -2.05078 C 54.4922 -0.341797 53.7109 0.439453 51.9531 0.439453 Z M 87.3535 0.439453 C 85.5957 0.439453 84.8145 -0.341797 84.8145 -2.05078 L 84.8145 -17.4805 C 84.8145 -19.2383 85.5957 -20.0195 87.3535 -20.0195 L 112.158 -20.0195 C 113.867 -20.0195 114.648 -19.2383 114.648 -17.4805 L 114.648 -2.05078 C 114.648 -0.341797 113.867 0.439453 112.158 0.439453 Z"/>
  </g>
  <g id="Bold-M" transform="matrix(1 0 0 1 2271.33 1126)">
   <path d="M 25.3418 -38.5254 L 52.3926 -38.5254 C 61.1816 -38.5254 65.2832 -42.6758 65.2832 -51.5625 L 65.2832 -69.043 C 65.2832 -77.9297 61.1816 -82.0312 52.3926 -82.0312 L 25.3418 -82.0312 C 16.6016 -82.0312 12.4512 -77.9297 12.4512 -69.043 L 12.4512 -51.5625 C 12.4512 -42.6758 16.6016 -38.5254 25.3418 -38.5254 Z M 84.9121 -38.5254 L 111.963 -38.5254 C 120.703 -38.5254 124.854 -42.6758 124.854 -51.5625 L 124.854 -69.043 C 124.854 -77.9297 120.703 -82.0312 111.963 -82.0312 L 84.9121 -82.0312 C 76.123 -82.0312 72.0215 -77.9297 72.0215 -69.043 L 72.0215 -51.5625 C 72.0215 -42.6758 76.123 -38.5254 84.9121 -38.5254 Z M 25.3418 -48.9258 C 23.584 -48.9258 22.8027 -49.707 22.8027 -51.5137 L 22.8027 -69.0918 C 22.8027 -70.8496 23.584 -71.6797 25.3418 -71.6797 L 52.3926 -71.6797 C 54.1016 -71.6797 54.9316 -70.8496 54.9316 -69.0918 L 54.9316 -51.5137 C 54.9316 -49.707 54.1016 -48.9258 52.3926 -48.9258 Z M 84.9121 -48.9258 C 83.1543 -48.9258 82.373 -49.707 82.373 -51.5137 L 82.373 -69.0918 C 82.373 -70.8496 83.1543 -71.6797 84.9121 -71.6797 L 111.963 -71.6797 C 113.672 -71.6797 114.502 -70.8496 114.502 -69.0918 L 114.502 -51.5137 C 114.502 -49.707 113.672 -48.9258 111.963 -48.9258 Z M 25.3418 11.6699 L 52.3926 11.6699 C 61.1816 11.6699 65.2832 7.51953 65.2832 -1.31836 L 65.2832 -18.8477 C 65.2832 -27.7344 61.1816 -31.8359 52.3926 -31.8359 L 25.3418 -31.8359 C 16.6016 -31.8359 12.4512 -27.7344 12.4512 -18.8477 L 12.4512 -1.31836 C 12.4512 7.51953 16.6016 11.6699 25.3418 11.6699 Z M 84.9121 11.6699 L 111.963 11.6699 C 120.703 11.6699 124.854 7.51953 124.854 -1.31836 L 124.854 -18.8477 C 124.854 -27.7344 120.703 -31.8359 111.963 -31.8359 L 84.9121 -31.8359 C 76.123 -31.8359 72.0215 -27.7344 72.0215 -18.8477 L 72.0215 -1.31836 C 72.0215 7.51953 76.123 11.6699 84.9121 11.6699 Z M 25.3418 1.26953 C 23.584 1.26953 22.8027 0.488281 22.8027 -1.26953 L 22.8027 -18.8965 C 22.8027 -20.6543 23.584 -21.4844 25.3418 -21.4844 L 52.3926 -21.4844 C 54.1016 -21.4844 54.9316 -20.6543 54.9316 -18.8965 L 54.9316 -1.26953 C 54.9316 0.488281 54.1016 1.26953 52.3926 1.26953 Z M 84.9121 1.26953 C 83.1543 1.26953 82.373 0.488281 82.373 -1.26953 L 82.373 -18.8965 C 82.373 -20.6543 83.1543 -21.4844 84.9121 -21.4844 L 111.963 -21.4844 C 113.672 -21.4844 114.502 -20.6543 114.502 -18.8965 L 114.502 -1.26953 C 114.502 0.488281 113.672 1.26953 111.963 1.26953 Z"/>
  </g>
  <g id="Semibold-M" transform="matrix(1 0 0 1 1975.3 1126)">
   <path d="M 24.0723 -38.7695 L 52.7344 -38.7695 C 60.5957 -38.7695 64.3555 -42.5293 64.3555 -50.5371 L 64.3555 -69.6289 C 64.3555 -77.5879 60.5957 -81.3477 52.7344 -81.3477 L 24.0723 -81.3477 C 16.2109 -81.3477 12.4512 -77.5879 12.4512 -69.6289 L 12.4512 -50.5371 C 12.4512 -42.5293 16.2109 -38.7695 24.0723 -38.7695 Z M 83.1543 -38.7695 L 111.865 -38.7695 C 119.678 -38.7695 123.486 -42.5293 123.486 -50.5371 L 123.486 -69.6289 C 123.486 -77.5879 119.678 -81.3477 111.865 -81.3477 L 83.1543 -81.3477 C 75.3418 -81.3477 71.582 -77.5879 71.582 -69.6289 L 71.582 -50.5371 C 71.582 -42.5293 75.3418 -38.7695 83.1543 -38.7695 Z M 24.0723 -47.9004 C 22.3633 -47.9004 21.5332 -48.7305 21.5332 -50.4883 L 21.5332 -69.6777 C 21.5332 -71.4355 22.3633 -72.2656 24.0723 -72.2656 L 52.6855 -72.2656 C 54.4434 -72.2656 55.2734 -71.4355 55.2734 -69.6777 L 55.2734 -50.4883 C 55.2734 -48.7305 54.4434 -47.9004 52.6855 -47.9004 Z M 83.2031 -47.9004 C 81.4453 -47.9004 80.6641 -48.7305 80.6641 -50.4883 L 80.6641 -69.6777 C 80.6641 -71.4355 81.4453 -72.2656 83.2031 -72.2656 L 111.865 -72.2656 C 113.574 -72.2656 114.355 -71.4355 114.355 -69.6777 L 114.355 -50.4883 C 114.355 -48.7305 113.574 -47.9004 111.865 -47.9004 Z M 24.0723 10.9863 L 52.7344 10.9863 C 60.5957 10.9863 64.3555 7.22656 64.3555 -0.78125 L 64.3555 -19.8242 C 64.3555 -27.832 60.5957 -31.5918 52.7344 -31.5918 L 24.0723 -31.5918 C 16.2109 -31.5918 12.4512 -27.832 12.4512 -19.8242 L 12.4512 -0.78125 C 12.4512 7.22656 16.2109 10.9863 24.0723 10.9863 Z M 83.1543 10.9863 L 111.865 10.9863 C 119.678 10.9863 123.486 7.22656 123.486 -0.78125 L 123.486 -19.8242 C 123.486 -27.832 119.678 -31.5918 111.865 -31.5918 L 83.1543 -31.5918 C 75.3418 -31.5918 71.582 -27.832 71.582 -19.8242 L 71.582 -0.78125 C 71.582 7.22656 75.3418 10.9863 83.1543 10.9863 Z M 24.0723 1.85547 C 22.3633 1.85547 21.5332 1.02539 21.5332 -0.732422 L 21.5332 -19.873 C 21.5332 -21.6309 22.3633 -22.5098 24.0723 -22.5098 L 52.6855 -22.5098 C 54.4434 -22.5098 55.2734 -21.6309 55.2734 -19.873 L 55.2734 -0.732422 C 55.2734 1.02539 54.4434 1.85547 52.6855 1.85547 Z M 83.2031 1.85547 C 81.4453 1.85547 80.6641 1.02539 80.6641 -0.732422 L 80.6641 -19.873 C 80.6641 -21.6309 81.4453 -22.5098 83.2031 -22.5098 L 111.865 -22.5098 C 113.574 -22.5098 114.355 -21.6309 114.355 -19.873 L 114.355 -0.732422 C 114.355 1.02539 113.574 1.85547 111.865 1.85547 Z"/>
  </g>
  <g id="Medium-M" transform="matrix(1 0 0 1 1679.12 1126)">
   <path d="M 23.0957 -38.9648 L 53.0273 -38.9648 C 60.1562 -38.9648 63.623 -42.4316 63.623 -49.7559 L 63.623 -70.0195 C 63.623 -77.3438 60.1562 -80.8105 53.0273 -80.8105 L 23.0957 -80.8105 C 15.918 -80.8105 12.4512 -77.3438 12.4512 -70.0195 L 12.4512 -49.7559 C 12.4512 -42.4316 15.918 -38.9648 23.0957 -38.9648 Z M 81.8359 -38.9648 L 111.816 -38.9648 C 118.945 -38.9648 122.412 -42.4316 122.412 -49.7559 L 122.412 -70.0195 C 122.412 -77.3438 118.945 -80.8105 111.816 -80.8105 L 81.8359 -80.8105 C 74.707 -80.8105 71.2402 -77.3438 71.2402 -70.0195 L 71.2402 -49.7559 C 71.2402 -42.4316 74.707 -38.9648 81.8359 -38.9648 Z M 23.0957 -47.1191 C 21.3867 -47.1191 20.6055 -47.998 20.6055 -49.7559 L 20.6055 -70.0684 C 20.6055 -71.8262 21.3867 -72.7051 23.0957 -72.7051 L 52.9297 -72.7051 C 54.6387 -72.7051 55.5176 -71.8262 55.5176 -70.0684 L 55.5176 -49.7559 C 55.5176 -47.998 54.6387 -47.1191 52.9297 -47.1191 Z M 81.9336 -47.1191 C 80.1758 -47.1191 79.3457 -47.998 79.3457 -49.7559 L 79.3457 -70.0684 C 79.3457 -71.8262 80.1758 -72.7051 81.9336 -72.7051 L 111.768 -72.7051 C 113.477 -72.7051 114.258 -71.8262 114.258 -70.0684 L 114.258 -49.7559 C 114.258 -47.998 113.477 -47.1191 111.768 -47.1191 Z M 23.0957 10.4492 L 53.0273 10.4492 C 60.1562 10.4492 63.623 6.98242 63.623 -0.341797 L 63.623 -20.6055 C 63.623 -27.9297 60.1562 -31.3965 53.0273 -31.3965 L 23.0957 -31.3965 C 15.918 -31.3965 12.4512 -27.9297 12.4512 -20.6055 L 12.4512 -0.341797 C 12.4512 6.98242 15.918 10.4492 23.0957 10.4492 Z M 81.8359 10.4492 L 111.816 10.4492 C 118.945 10.4492 122.412 6.98242 122.412 -0.341797 L 122.412 -20.6055 C 122.412 -27.9297 118.945 -31.3965 111.816 -31.3965 L 81.8359 -31.3965 C 74.707 -31.3965 71.2402 -27.9297 71.2402 -20.6055 L 71.2402 -0.341797 C 71.2402 6.98242 74.707 10.4492 81.8359 10.4492 Z M 23.0957 2.29492 C 21.3867 2.29492 20.6055 1.46484 20.6055 -0.292969 L 20.6055 -20.6055 C 20.6055 -22.4121 21.3867 -23.2422 23.0957 -23.2422 L 52.9297 -23.2422 C 54.6387 -23.2422 55.5176 -22.4121 55.5176 -20.6055 L 55.5176 -0.292969 C 55.5176 1.46484 54.6387 2.29492 52.9297 2.29492 Z M 81.9336 2.29492 C 80.1758 2.29492 79.3457 1.46484 79.3457 -0.292969 L 79.3457 -20.6055 C 79.3457 -22.4121 80.1758 -23.2422 81.9336 -23.2422 L 111.768 -23.2422 C 113.477 -23.2422 114.258 -22.4121 114.258 -20.6055 L 114.258 -0.292969 C 114.258 1.46484 113.477 2.29492 111.768 2.29492 Z"/>
  </g>
  <g id="Regular-M" transform="matrix(1 0 0 1 1383.1 1126)">
   <path d="M 21.7773 -39.209 L 53.3691 -39.209 C 59.5703 -39.209 62.6953 -42.334 62.6953 -48.7793 L 62.6953 -70.6055 C 62.6953 -77.0508 59.5703 -80.127 53.3691 -80.127 L 21.7773 -80.127 C 15.5762 -80.127 12.4512 -77.0508 12.4512 -70.6055 L 12.4512 -48.7793 C 12.4512 -42.334 15.5762 -39.209 21.7773 -39.209 Z M 80.127 -39.209 L 111.719 -39.209 C 117.92 -39.209 121.045 -42.334 121.045 -48.7793 L 121.045 -70.6055 C 121.045 -77.0508 117.92 -80.127 111.719 -80.127 L 80.127 -80.127 C 73.9258 -80.127 70.8008 -77.0508 70.8008 -70.6055 L 70.8008 -48.7793 C 70.8008 -42.334 73.9258 -39.209 80.127 -39.209 Z M 21.875 -46.0938 C 20.166 -46.0938 19.3359 -46.9727 19.3359 -48.7793 L 19.3359 -70.6055 C 19.3359 -72.3633 20.166 -73.2422 21.875 -73.2422 L 53.2227 -73.2422 C 54.9316 -73.2422 55.8105 -72.3633 55.8105 -70.6055 L 55.8105 -48.7793 C 55.8105 -46.9727 54.9316 -46.0938 53.2227 -46.0938 Z M 80.2734 -46.0938 C 78.5156 -46.0938 77.6855 -46.9727 77.6855 -48.7793 L 77.6855 -70.6055 C 77.6855 -72.3633 78.5156 -73.2422 80.2734 -73.2422 L 111.621 -73.2422 C 113.33 -73.2422 114.16 -72.3633 114.16 -70.6055 L 114.16 -48.7793 C 114.16 -46.9727 113.33 -46.0938 111.621 -46.0938 Z M 21.7773 9.76562 L 53.3691 9.76562 C 59.5703 9.76562 62.6953 6.68945 62.6953 0.244141 L 62.6953 -21.6309 C 62.6953 -28.0273 59.5703 -31.1523 53.3691 -31.1523 L 21.7773 -31.1523 C 15.5762 -31.1523 12.4512 -28.0273 12.4512 -21.6309 L 12.4512 0.244141 C 12.4512 6.68945 15.5762 9.76562 21.7773 9.76562 Z M 80.127 9.76562 L 111.719 9.76562 C 117.92 9.76562 121.045 6.68945 121.045 0.244141 L 121.045 -21.6309 C 121.045 -28.0273 117.92 -31.1523 111.719 -31.1523 L 80.127 -31.1523 C 73.9258 -31.1523 70.8008 -28.0273 70.8008 -21.6309 L 70.8008 0.244141 C 70.8008 6.68945 73.9258 9.76562 80.127 9.76562 Z M 21.875 2.88086 C 20.166 2.88086 19.3359 2.00195 19.3359 0.244141 L 19.3359 -21.582 C 19.3359 -23.3887 20.166 -24.2676 21.875 -24.2676 L 53.2227 -24.2676 C 54.9316 -24.2676 55.8105 -23.3887 55.8105 -21.582 L 55.8105 0.244141 C 55.8105 2.00195 54.9316 2.88086 53.2227 2.88086 Z M 80.2734 2.88086 C 78.5156 2.88086 77.6855 2.00195 77.6855 0.244141 L 77.6855 -21.582 C 77.6855 -23.3887 78.5156 -24.2676 80.2734 -24.2676 L 111.621 -24.2676 C 113.33 -24.2676 114.16 -23.3887 114.16 -21.582 L 114.16 0.244141 C 114.16 2.00195 113.33 2.88086 111.621 2.88086 Z"/>
  </g>
  <g id="Light-M" transform="matrix(1 0 0 1 1087.12 1126)">
   <path d="M 20.752 -39.3555 L 53.4668 -39.3555 C 58.9844 -39.3555 61.8164 -42.041 61.8164 -47.8027 L 61.8164 -70.8984 C 61.8164 -76.709 58.9844 -79.3945 53.4668 -79.3945 L 20.752 -79.3945 C 15.2832 -79.3945 12.4512 -76.709 12.4512 -70.8984 L 12.4512 -47.8027 C 12.4512 -42.041 15.2832 -39.3555 20.752 -39.3555 Z M 78.5156 -39.3555 L 111.23 -39.3555 C 116.748 -39.3555 119.58 -42.041 119.58 -47.8027 L 119.58 -70.8984 C 119.58 -76.709 116.748 -79.3945 111.23 -79.3945 L 78.5156 -79.3945 C 73.0469 -79.3945 70.2148 -76.709 70.2148 -70.8984 L 70.2148 -47.8027 C 70.2148 -42.041 73.0469 -39.3555 78.5156 -39.3555 Z M 20.8496 -44.7754 C 18.75 -44.7754 17.8223 -45.7031 17.8223 -47.9004 L 17.8223 -70.8984 C 17.8223 -72.998 18.75 -73.9746 20.8496 -73.9746 L 53.3691 -73.9746 C 55.4688 -73.9746 56.3965 -72.998 56.3965 -70.8984 L 56.3965 -47.9004 C 56.3965 -45.7031 55.4688 -44.7754 53.3691 -44.7754 Z M 78.6621 -44.7754 C 76.5137 -44.7754 75.5859 -45.7031 75.5859 -47.9004 L 75.5859 -70.8984 C 75.5859 -72.998 76.5137 -73.9746 78.6621 -73.9746 L 111.133 -73.9746 C 113.232 -73.9746 114.16 -72.998 114.16 -70.8984 L 114.16 -47.9004 C 114.16 -45.7031 113.232 -44.7754 111.133 -44.7754 Z M 20.752 9.0332 L 53.4668 9.0332 C 58.9844 9.0332 61.8164 6.34766 61.8164 0.585938 L 61.8164 -22.5098 C 61.8164 -28.2715 58.9844 -30.957 53.4668 -30.957 L 20.752 -30.957 C 15.2832 -30.957 12.4512 -28.2715 12.4512 -22.5098 L 12.4512 0.585938 C 12.4512 6.34766 15.2832 9.0332 20.752 9.0332 Z M 78.5156 9.0332 L 111.23 9.0332 C 116.748 9.0332 119.58 6.34766 119.58 0.585938 L 119.58 -22.5098 C 119.58 -28.2715 116.748 -30.957 111.23 -30.957 L 78.5156 -30.957 C 73.0469 -30.957 70.2148 -28.2715 70.2148 -22.5098 L 70.2148 0.585938 C 70.2148 6.34766 73.0469 9.0332 78.5156 9.0332 Z M 20.8496 3.66211 C 18.75 3.66211 17.8223 2.68555 17.8223 0.537109 L 17.8223 -22.4609 C 17.8223 -24.6094 18.75 -25.5859 20.8496 -25.5859 L 53.3691 -25.5859 C 55.4688 -25.5859 56.3965 -24.6094 56.3965 -22.4609 L 56.3965 0.537109 C 56.3965 2.68555 55.4688 3.66211 53.3691 3.66211 Z M 78.6621 3.66211 C 76.5137 3.66211 75.5859 2.68555 75.5859 0.537109 L 75.5859 -22.4609 C 75.5859 -24.6094 76.5137 -25.5859 78.6621 -25.5859 L 111.133 -25.5859 C 113.232 -25.5859 114.16 -24.6094 114.16 -22.4609 L 114.16 0.537109 C 114.16 2.68555 113.232 3.66211 111.133 3.66211 Z"/>
  </g>
  <g id="Thin-M" transform="matrix(1 0 0 1 791.408 1126)">
   <path d="M 19.4336 -39.5508 L 53.6133 -39.5508 C 58.2031 -39.5508 60.6445 -41.6504 60.6445 -46.582 L 60.6445 -71.3379 C 60.6445 -76.2207 58.2031 -78.3691 53.6133 -78.3691 L 19.4336 -78.3691 C 14.8926 -78.3691 12.4512 -76.2207 12.4512 -71.3379 L 12.4512 -46.582 C 12.4512 -41.6504 14.8926 -39.5508 19.4336 -39.5508 Z M 76.416 -39.5508 L 110.596 -39.5508 C 115.137 -39.5508 117.578 -41.6504 117.578 -46.582 L 117.578 -71.3379 C 117.578 -76.2207 115.137 -78.3691 110.596 -78.3691 L 76.416 -78.3691 C 71.8262 -78.3691 69.4336 -76.2207 69.4336 -71.3379 L 69.4336 -46.582 C 69.4336 -41.6504 71.8262 -39.5508 76.416 -39.5508 Z M 19.5312 -42.9688 C 16.9434 -42.9688 15.8691 -44.043 15.8691 -46.6797 L 15.8691 -71.2402 C 15.8691 -73.877 16.9434 -74.9512 19.5312 -74.9512 L 53.5156 -74.9512 C 56.1523 -74.9512 57.2266 -73.877 57.2266 -71.2402 L 57.2266 -46.6797 C 57.2266 -44.043 56.1523 -42.9688 53.5156 -42.9688 Z M 76.5137 -42.9688 C 73.877 -42.9688 72.8516 -44.043 72.8516 -46.6797 L 72.8516 -71.2402 C 72.8516 -73.877 73.877 -74.9512 76.5137 -74.9512 L 110.498 -74.9512 C 113.086 -74.9512 114.16 -73.877 114.16 -71.2402 L 114.16 -46.6797 C 114.16 -44.043 113.086 -42.9688 110.498 -42.9688 Z M 19.4336 8.05664 L 53.6133 8.05664 C 58.2031 8.05664 60.6445 5.95703 60.6445 1.02539 L 60.6445 -23.7305 C 60.6445 -28.6133 58.2031 -30.7617 53.6133 -30.7617 L 19.4336 -30.7617 C 14.8926 -30.7617 12.4512 -28.6133 12.4512 -23.7305 L 12.4512 1.02539 C 12.4512 5.95703 14.8926 8.05664 19.4336 8.05664 Z M 76.416 8.05664 L 110.596 8.05664 C 115.137 8.05664 117.578 5.95703 117.578 1.02539 L 117.578 -23.7305 C 117.578 -28.6133 115.137 -30.7617 110.596 -30.7617 L 76.416 -30.7617 C 71.8262 -30.7617 69.4336 -28.6133 69.4336 -23.7305 L 69.4336 1.02539 C 69.4336 5.95703 71.8262 8.05664 76.416 8.05664 Z M 19.5312 4.63867 C 16.9434 4.63867 15.8691 3.56445 15.8691 0.927734 L 15.8691 -23.6328 C 15.8691 -26.2695 16.9434 -27.3438 19.5312 -27.3438 L 53.5156 -27.3438 C 56.1523 -27.3438 57.2266 -26.2695 57.2266 -23.6328 L 57.2266 0.927734 C 57.2266 3.56445 56.1523 4.63867 53.5156 4.63867 Z M 76.5137 4.63867 C 73.877 4.63867 72.8516 3.56445 72.8516 0.927734 L 72.8516 -23.6328 C 72.8516 -26.2695 73.877 -27.3438 76.5137 -27.3438 L 110.498 -27.3438 C 113.086 -27.3438 114.16 -26.2695 114.16 -23.6328 L 114.16 0.927734 C 114.16 3.56445 113.086 4.63867 110.498 4.63867 Z"/>
  </g>
  <g id="Ultralight-M" transform="matrix(1 0 0 1 495.209 1126)">
   <path d="M 18.75 -39.6484 L 53.7109 -39.6484 C 57.8125 -39.6484 60.0098 -41.4551 60.0098 -45.9473 L 60.0098 -71.5332 C 60.0098 -76.0254 57.8125 -77.832 53.7109 -77.832 L 18.75 -77.832 C 14.6973 -77.832 12.4512 -76.0254 12.4512 -71.5332 L 12.4512 -45.9473 C 12.4512 -41.4551 14.6973 -39.6484 18.75 -39.6484 Z M 75.293 -39.6484 L 110.254 -39.6484 C 114.355 -39.6484 116.553 -41.4551 116.553 -45.9473 L 116.553 -71.5332 C 116.553 -76.0254 114.355 -77.832 110.254 -77.832 L 75.293 -77.832 C 71.2402 -77.832 68.9941 -76.0254 68.9941 -71.5332 L 68.9941 -45.9473 C 68.9941 -41.4551 71.2402 -39.6484 75.293 -39.6484 Z M 18.8965 -42.041 C 15.9668 -42.041 14.8438 -43.1641 14.8438 -46.0449 L 14.8438 -71.4355 C 14.8438 -74.3164 15.9668 -75.4395 18.8965 -75.4395 L 53.6133 -75.4395 C 56.4941 -75.4395 57.6172 -74.3164 57.6172 -71.4355 L 57.6172 -46.0449 C 57.6172 -43.1641 56.4941 -42.041 53.6133 -42.041 Z M 75.4395 -42.041 C 72.5586 -42.041 71.4355 -43.1641 71.4355 -46.0449 L 71.4355 -71.4355 C 71.4355 -74.3164 72.5586 -75.4395 75.4395 -75.4395 L 110.156 -75.4395 C 113.037 -75.4395 114.16 -74.3164 114.16 -71.4355 L 114.16 -46.0449 C 114.16 -43.1641 113.037 -42.041 110.156 -42.041 Z M 18.75 7.56836 L 53.7109 7.56836 C 57.8125 7.56836 60.0098 5.71289 60.0098 1.26953 L 60.0098 -24.3652 C 60.0098 -28.8086 57.8125 -30.6152 53.7109 -30.6152 L 18.75 -30.6152 C 14.6973 -30.6152 12.4512 -28.8086 12.4512 -24.3652 L 12.4512 1.26953 C 12.4512 5.71289 14.6973 7.56836 18.75 7.56836 Z M 75.293 7.56836 L 110.254 7.56836 C 114.355 7.56836 116.553 5.71289 116.553 1.26953 L 116.553 -24.3652 C 116.553 -28.8086 114.355 -30.6152 110.254 -30.6152 L 75.293 -30.6152 C 71.2402 -30.6152 68.9941 -28.8086 68.9941 -24.3652 L 68.9941 1.26953 C 68.9941 5.71289 71.2402 7.56836 75.293 7.56836 Z M 18.8965 5.17578 C 15.9668 5.17578 14.8438 4.05273 14.8438 1.17188 L 14.8438 -24.2188 C 14.8438 -27.0996 15.9668 -28.2227 18.8965 -28.2227 L 53.6133 -28.2227 C 56.4941 -28.2227 57.6172 -27.0996 57.6172 -24.2188 L 57.6172 1.17188 C 57.6172 4.05273 56.4941 5.17578 53.6133 5.17578 Z M 75.4395 5.17578 C 72.5586 5.17578 71.4355 4.05273 71.4355 1.17188 L 71.4355 -24.2188 C 71.4355 -27.0996 72.5586 -28.2227 75.4395 -28.2227 L 110.156 -28.2227 C 113.037 -28.2227 114.16 -27.0996 114.16 -24.2188 L 114.16 1.17188 C 114.16 4.05273 113.037 5.17578 110.156 5.17578 Z"/>
  </g>
  <g id="Black-S" transform="matrix(1 0 0 1 2878.18 696)">
   <path d="M 22.5586 -37.3047 L 40.332 -37.3047 C 49.1211 -37.3047 53.125 -41.3086 53.125 -50.0977 L 53.125 -60.5469 C 53.125 -69.3359 49.1211 -73.3398 40.332 -73.3398 L 22.5586 -73.3398 C 13.7695 -73.3398 9.76562 -69.3359 9.76562 -60.5469 L 9.76562 -50.0977 C 9.76562 -41.3086 13.7695 -37.3047 22.5586 -37.3047 Z M 70.1172 -37.3047 L 87.8906 -37.3047 C 96.6797 -37.3047 100.684 -41.3086 100.684 -50.0977 L 100.684 -60.5469 C 100.684 -69.3359 96.6797 -73.3398 87.8906 -73.3398 L 70.1172 -73.3398 C 61.3281 -73.3398 57.3242 -69.3359 57.3242 -60.5469 L 57.3242 -50.0977 C 57.3242 -41.3086 61.3281 -37.3047 70.1172 -37.3047 Z M 22.4609 -48.0469 C 21.0938 -48.0469 20.5078 -48.6328 20.5078 -50 L 20.5078 -60.6445 C 20.5078 -62.0117 21.0938 -62.5977 22.4609 -62.5977 L 40.4297 -62.5977 C 41.7969 -62.5977 42.3828 -62.0117 42.3828 -60.6445 L 42.3828 -50 C 42.3828 -48.6328 41.7969 -48.0469 40.4297 -48.0469 Z M 70.0195 -48.0469 C 68.6523 -48.0469 68.0664 -48.6328 68.0664 -50 L 68.0664 -60.6445 C 68.0664 -62.0117 68.6523 -62.5977 70.0195 -62.5977 L 87.9883 -62.5977 C 89.3555 -62.5977 89.9414 -62.0117 89.9414 -60.6445 L 89.9414 -50 C 89.9414 -48.6328 89.3555 -48.0469 87.9883 -48.0469 Z M 22.5586 2.92969 L 40.332 2.92969 C 49.1211 2.92969 53.125 -1.07422 53.125 -9.86328 L 53.125 -20.3125 C 53.125 -29.1016 49.1211 -33.1055 40.332 -33.1055 L 22.5586 -33.1055 C 13.7695 -33.1055 9.76562 -29.1016 9.76562 -20.3125 L 9.76562 -9.86328 C 9.76562 -1.07422 13.7695 2.92969 22.5586 2.92969 Z M 70.1172 2.92969 L 87.8906 2.92969 C 96.6797 2.92969 100.684 -1.07422 100.684 -9.86328 L 100.684 -20.3125 C 100.684 -29.1016 96.6797 -33.1055 87.8906 -33.1055 L 70.1172 -33.1055 C 61.3281 -33.1055 57.3242 -29.1016 57.3242 -20.3125 L 57.3242 -9.86328 C 57.3242 -1.07422 61.3281 2.92969 70.1172 2.92969 Z M 22.4609 -7.8125 C 21.0938 -7.8125 20.5078 -8.39844 20.5078 -9.76562 L 20.5078 -20.4102 C 20.5078 -21.7773 21.0938 -22.3633 22.4609 -22.3633 L 40.4297 -22.3633 C 41.7969 -22.3633 42.3828 -21.7773 42.3828 -20.4102 L 42.3828 -9.76562 C 42.3828 -8.39844 41.7969 -7.8125 40.4297 -7.8125 Z M 70.0195 -7.8125 C 68.6523 -7.8125 68.0664 -8.39844 68.0664 -9.76562 L 68.0664 -20.4102 C 68.0664 -21.7773 68.6523 -22.3633 70.0195 -22.3633 L 87.9883 -22.3633 C 89.3555 -22.3633 89.9414 -21.7773 89.9414 -20.4102 L 89.9414 -9.76562 C 89.9414 -8.39844 89.3555 -7.8125 87.9883 -7.8125 Z"/>
  </g>
  <g id="Heavy-S" transform="matrix(1 0 0 1 2582.07 696)">
   <path d="M 21.3867 -37.5488 L 40.6738 -37.5488 C 48.6328 -37.5488 52.2949 -41.2109 52.2949 -49.2188 L 52.2949 -61.084 C 52.2949 -69.043 48.6328 -72.7539 40.6738 -72.7539 L 21.3867 -72.7539 C 13.4277 -72.7539 9.76562 -69.043 9.76562 -61.084 L 9.76562 -49.2188 C 9.76562 -41.2109 13.4277 -37.5488 21.3867 -37.5488 Z M 68.5547 -37.5488 L 87.8418 -37.5488 C 95.8008 -37.5488 99.4629 -41.2109 99.4629 -49.2188 L 99.4629 -61.084 C 99.4629 -69.043 95.8008 -72.7539 87.8418 -72.7539 L 68.5547 -72.7539 C 60.6445 -72.7539 56.9336 -69.043 56.9336 -61.084 L 56.9336 -49.2188 C 56.9336 -41.2109 60.6445 -37.5488 68.5547 -37.5488 Z M 21.3379 -47.168 C 20.0195 -47.168 19.4336 -47.8027 19.4336 -49.1211 L 19.4336 -61.1816 C 19.4336 -62.5 20.0195 -63.0859 21.3379 -63.0859 L 40.7227 -63.0859 C 42.041 -63.0859 42.627 -62.5 42.627 -61.1816 L 42.627 -49.1211 C 42.627 -47.8027 42.041 -47.168 40.7227 -47.168 Z M 68.5059 -47.168 C 67.1875 -47.168 66.6016 -47.8027 66.6016 -49.1211 L 66.6016 -61.1816 C 66.6016 -62.5 67.1875 -63.0859 68.5059 -63.0859 L 87.9395 -63.0859 C 89.2578 -63.0859 89.8438 -62.5 89.8438 -61.1816 L 89.8438 -49.1211 C 89.8438 -47.8027 89.2578 -47.168 87.9395 -47.168 Z M 21.3867 2.34375 L 40.6738 2.34375 C 48.6328 2.34375 52.2949 -1.36719 52.2949 -9.32617 L 52.2949 -21.1914 C 52.2949 -29.1992 48.6328 -32.8613 40.6738 -32.8613 L 21.3867 -32.8613 C 13.4277 -32.8613 9.76562 -29.1992 9.76562 -21.1914 L 9.76562 -9.32617 C 9.76562 -1.36719 13.4277 2.34375 21.3867 2.34375 Z M 68.5547 2.34375 L 87.8418 2.34375 C 95.8008 2.34375 99.4629 -1.36719 99.4629 -9.32617 L 99.4629 -21.1914 C 99.4629 -29.1992 95.8008 -32.8613 87.8418 -32.8613 L 68.5547 -32.8613 C 60.6445 -32.8613 56.9336 -29.1992 56.9336 -21.1914 L 56.9336 -9.32617 C 56.9336 -1.36719 60.6445 2.34375 68.5547 2.34375 Z M 21.3379 -7.32422 C 20.0195 -7.32422 19.4336 -7.91016 19.4336 -9.22852 L 19.4336 -21.2891 C 19.4336 -22.6074 20.0195 -23.2422 21.3379 -23.2422 L 40.7227 -23.2422 C 42.041 -23.2422 42.627 -22.6074 42.627 -21.2891 L 42.627 -9.22852 C 42.627 -7.91016 42.041 -7.32422 40.7227 -7.32422 Z M 68.5059 -7.32422 C 67.1875 -7.32422 66.6016 -7.91016 66.6016 -9.22852 L 66.6016 -21.2891 C 66.6016 -22.6074 67.1875 -23.2422 68.5059 -23.2422 L 87.9395 -23.2422 C 89.2578 -23.2422 89.8438 -22.6074 89.8438 -21.2891 L 89.8438 -9.22852 C 89.8438 -7.91016 89.2578 -7.32422 87.9395 -7.32422 Z"/>
  </g>
  <g id="Bold-S" transform="matrix(1 0 0 1 2286.02 696)">
   <path d="M 20.0684 -37.793 L 41.0645 -37.793 C 48.0469 -37.793 51.3672 -41.1133 51.3672 -48.1934 L 51.3672 -61.6699 C 51.3672 -68.75 48.0469 -72.0703 41.0645 -72.0703 L 20.0684 -72.0703 C 13.0859 -72.0703 9.76562 -68.75 9.76562 -61.6699 L 9.76562 -48.1934 C 9.76562 -41.1133 13.0859 -37.793 20.0684 -37.793 Z M 66.8457 -37.793 L 87.8418 -37.793 C 94.8242 -37.793 98.1445 -41.1133 98.1445 -48.1934 L 98.1445 -61.6699 C 98.1445 -68.75 94.8242 -72.0703 87.8418 -72.0703 L 66.8457 -72.0703 C 59.8633 -72.0703 56.543 -68.75 56.543 -61.6699 L 56.543 -48.1934 C 56.543 -41.1133 59.8633 -37.793 66.8457 -37.793 Z M 20.0195 -46.2402 C 18.7988 -46.2402 18.2129 -46.8262 18.2129 -48.1445 L 18.2129 -61.7188 C 18.2129 -63.0371 18.7988 -63.623 20.0195 -63.623 L 41.0645 -63.623 C 42.2852 -63.623 42.9199 -63.0371 42.9199 -61.7188 L 42.9199 -48.1445 C 42.9199 -46.8262 42.2852 -46.2402 41.0645 -46.2402 Z M 66.8457 -46.2402 C 65.5762 -46.2402 64.9902 -46.8262 64.9902 -48.1445 L 64.9902 -61.7188 C 64.9902 -63.0371 65.5762 -63.623 66.8457 -63.623 L 87.8418 -63.623 C 89.1113 -63.623 89.6973 -63.0371 89.6973 -61.7188 L 89.6973 -48.1445 C 89.6973 -46.8262 89.1113 -46.2402 87.8418 -46.2402 Z M 20.0684 1.66016 L 41.0645 1.66016 C 48.0469 1.66016 51.3672 -1.66016 51.3672 -8.74023 L 51.3672 -22.2168 C 51.3672 -29.2969 48.0469 -32.6172 41.0645 -32.6172 L 20.0684 -32.6172 C 13.0859 -32.6172 9.76562 -29.2969 9.76562 -22.2168 L 9.76562 -8.74023 C 9.76562 -1.66016 13.0859 1.66016 20.0684 1.66016 Z M 66.8457 1.66016 L 87.8418 1.66016 C 94.8242 1.66016 98.1445 -1.66016 98.1445 -8.74023 L 98.1445 -22.2168 C 98.1445 -29.2969 94.8242 -32.6172 87.8418 -32.6172 L 66.8457 -32.6172 C 59.8633 -32.6172 56.543 -29.2969 56.543 -22.2168 L 56.543 -8.74023 C 56.543 -1.66016 59.8633 1.66016 66.8457 1.66016 Z M 20.0195 -6.78711 C 18.7988 -6.78711 18.2129 -7.37305 18.2129 -8.69141 L 18.2129 -22.2656 C 18.2129 -23.5352 18.7988 -24.1699 20.0195 -24.1699 L 41.0645 -24.1699 C 42.2852 -24.1699 42.9199 -23.5352 42.9199 -22.2656 L 42.9199 -8.69141 C 42.9199 -7.37305 42.2852 -6.78711 41.0645 -6.78711 Z M 66.8457 -6.78711 C 65.5762 -6.78711 64.9902 -7.37305 64.9902 -8.69141 L 64.9902 -22.2656 C 64.9902 -23.5352 65.5762 -24.1699 66.8457 -24.1699 L 87.8418 -24.1699 C 89.1113 -24.1699 89.6973 -23.5352 89.6973 -22.2656 L 89.6973 -8.69141 C 89.6973 -7.37305 89.1113 -6.78711 87.8418 -6.78711 Z"/>
  </g>
  <g id="Semibold-S" transform="matrix(1 0 0 1 1989.78 696)">
   <path d="M 19.1406 -37.9883 L 41.3086 -37.9883 C 47.6562 -37.9883 50.6836 -41.0645 50.6836 -47.5098 L 50.6836 -62.0605 C 50.6836 -68.5547 47.6562 -71.582 41.3086 -71.582 L 19.1406 -71.582 C 12.793 -71.582 9.76562 -68.5547 9.76562 -62.0605 L 9.76562 -47.5098 C 9.76562 -41.0645 12.793 -37.9883 19.1406 -37.9883 Z M 65.6738 -37.9883 L 87.793 -37.9883 C 94.1406 -37.9883 97.2168 -41.0645 97.2168 -47.5098 L 97.2168 -62.0605 C 97.2168 -68.5547 94.1406 -71.582 87.793 -71.582 L 65.6738 -71.582 C 59.3262 -71.582 56.25 -68.5547 56.25 -62.0605 L 56.25 -47.5098 C 56.25 -41.0645 59.3262 -37.9883 65.6738 -37.9883 Z M 19.1406 -45.5566 C 17.9688 -45.5566 17.334 -46.1914 17.334 -47.4609 L 17.334 -62.1582 C 17.334 -63.3789 17.9688 -64.0137 19.1406 -64.0137 L 41.2598 -64.0137 C 42.4805 -64.0137 43.1152 -63.3789 43.1152 -62.1582 L 43.1152 -47.4609 C 43.1152 -46.1914 42.4805 -45.5566 41.2598 -45.5566 Z M 65.6738 -45.5566 C 64.4531 -45.5566 63.8672 -46.1914 63.8672 -47.4609 L 63.8672 -62.1582 C 63.8672 -63.3789 64.4531 -64.0137 65.6738 -64.0137 L 87.793 -64.0137 C 89.0137 -64.0137 89.5996 -63.3789 89.5996 -62.1582 L 89.5996 -47.4609 C 89.5996 -46.1914 89.0137 -45.5566 87.793 -45.5566 Z M 19.1406 1.17188 L 41.3086 1.17188 C 47.6562 1.17188 50.6836 -1.85547 50.6836 -8.34961 L 50.6836 -22.9004 C 50.6836 -29.3457 47.6562 -32.4219 41.3086 -32.4219 L 19.1406 -32.4219 C 12.793 -32.4219 9.76562 -29.3457 9.76562 -22.9004 L 9.76562 -8.34961 C 9.76562 -1.85547 12.793 1.17188 19.1406 1.17188 Z M 65.6738 1.17188 L 87.793 1.17188 C 94.1406 1.17188 97.2168 -1.85547 97.2168 -8.34961 L 97.2168 -22.9004 C 97.2168 -29.3457 94.1406 -32.4219 87.793 -32.4219 L 65.6738 -32.4219 C 59.3262 -32.4219 56.25 -29.3457 56.25 -22.9004 L 56.25 -8.34961 C 56.25 -1.85547 59.3262 1.17188 65.6738 1.17188 Z M 19.1406 -6.39648 C 17.9688 -6.39648 17.334 -7.03125 17.334 -8.25195 L 17.334 -22.9492 C 17.334 -24.2188 17.9688 -24.8535 19.1406 -24.8535 L 41.2598 -24.8535 C 42.4805 -24.8535 43.1152 -24.2188 43.1152 -22.9492 L 43.1152 -8.25195 C 43.1152 -7.03125 42.4805 -6.39648 41.2598 -6.39648 Z M 65.6738 -6.39648 C 64.4531 -6.39648 63.8672 -7.03125 63.8672 -8.25195 L 63.8672 -22.9492 C 63.8672 -24.2188 64.4531 -24.8535 65.6738 -24.8535 L 87.793 -24.8535 C 89.0137 -24.8535 89.5996 -24.2188 89.5996 -22.9492 L 89.5996 -8.25195 C 89.5996 -7.03125 89.0137 -6.39648 87.793 -6.39648 Z"/>
  </g>
  <g id="Medium-S" transform="matrix(1 0 0 1 1693.43 696)">
   <path d="M 18.457 -38.1348 L 41.5039 -38.1348 C 47.3633 -38.1348 50.1953 -41.0156 50.1953 -46.9727 L 50.1953 -62.4023 C 50.1953 -68.3594 47.3633 -71.2402 41.5039 -71.2402 L 18.457 -71.2402 C 12.5977 -71.2402 9.76562 -68.3594 9.76562 -62.4023 L 9.76562 -46.9727 C 9.76562 -41.0156 12.5977 -38.1348 18.457 -38.1348 Z M 64.7461 -38.1348 L 87.793 -38.1348 C 93.6523 -38.1348 96.4844 -41.0156 96.4844 -46.9727 L 96.4844 -62.4023 C 96.4844 -68.3594 93.6523 -71.2402 87.793 -71.2402 L 64.7461 -71.2402 C 58.8867 -71.2402 56.0547 -68.3594 56.0547 -62.4023 L 56.0547 -46.9727 C 56.0547 -41.0156 58.8867 -38.1348 64.7461 -38.1348 Z M 18.5059 -45.0684 C 17.334 -45.0684 16.6992 -45.7031 16.6992 -46.9727 L 16.6992 -62.4512 C 16.6992 -63.6719 17.334 -64.3066 18.5059 -64.3066 L 41.4551 -64.3066 C 42.627 -64.3066 43.2617 -63.6719 43.2617 -62.4512 L 43.2617 -46.9727 C 43.2617 -45.7031 42.627 -45.0684 41.4551 -45.0684 Z M 64.7949 -45.0684 C 63.5742 -45.0684 62.9883 -45.7031 62.9883 -46.9727 L 62.9883 -62.4512 C 62.9883 -63.6719 63.5742 -64.3066 64.7949 -64.3066 L 87.7441 -64.3066 C 88.9648 -64.3066 89.5508 -63.6719 89.5508 -62.4512 L 89.5508 -46.9727 C 89.5508 -45.7031 88.9648 -45.0684 87.7441 -45.0684 Z M 18.457 0.830078 L 41.5039 0.830078 C 47.3633 0.830078 50.1953 -2.05078 50.1953 -8.00781 L 50.1953 -23.4375 C 50.1953 -29.3945 47.3633 -32.2754 41.5039 -32.2754 L 18.457 -32.2754 C 12.5977 -32.2754 9.76562 -29.3945 9.76562 -23.4375 L 9.76562 -8.00781 C 9.76562 -2.05078 12.5977 0.830078 18.457 0.830078 Z M 64.7461 0.830078 L 87.793 0.830078 C 93.6523 0.830078 96.4844 -2.05078 96.4844 -8.00781 L 96.4844 -23.4375 C 96.4844 -29.3945 93.6523 -32.2754 87.793 -32.2754 L 64.7461 -32.2754 C 58.8867 -32.2754 56.0547 -29.3945 56.0547 -23.4375 L 56.0547 -8.00781 C 56.0547 -2.05078 58.8867 0.830078 64.7461 0.830078 Z M 18.5059 -6.10352 C 17.334 -6.10352 16.6992 -6.73828 16.6992 -7.95898 L 16.6992 -23.4375 C 16.6992 -24.707 17.334 -25.3418 18.5059 -25.3418 L 41.4551 -25.3418 C 42.627 -25.3418 43.2617 -24.707 43.2617 -23.4375 L 43.2617 -7.95898 C 43.2617 -6.73828 42.627 -6.10352 41.4551 -6.10352 Z M 64.7949 -6.10352 C 63.5742 -6.10352 62.9883 -6.73828 62.9883 -7.95898 L 62.9883 -23.4375 C 62.9883 -24.707 63.5742 -25.3418 64.7949 -25.3418 L 87.7441 -25.3418 C 88.9648 -25.3418 89.5508 -24.707 89.5508 -23.4375 L 89.5508 -7.95898 C 89.5508 -6.73828 88.9648 -6.10352 87.7441 -6.10352 Z"/>
  </g>
  <g id="Regular-S" transform="matrix(1 0 0 1 1397.18 696)">
   <path d="M 17.5781 -38.2812 L 41.748 -38.2812 C 46.9727 -38.2812 49.5605 -40.918 49.5605 -46.2891 L 49.5605 -62.793 C 49.5605 -68.1641 46.9727 -70.8008 41.748 -70.8008 L 17.5781 -70.8008 C 12.3535 -70.8008 9.76562 -68.1641 9.76562 -62.793 L 9.76562 -46.2891 C 9.76562 -40.918 12.3535 -38.2812 17.5781 -38.2812 Z M 63.5742 -38.2812 L 87.7441 -38.2812 C 92.9688 -38.2812 95.5566 -40.918 95.5566 -46.2891 L 95.5566 -62.793 C 95.5566 -68.1641 92.9688 -70.8008 87.7441 -70.8008 L 63.5742 -70.8008 C 58.3496 -70.8008 55.7617 -68.1641 55.7617 -62.793 L 55.7617 -46.2891 C 55.7617 -40.918 58.3496 -38.2812 63.5742 -38.2812 Z M 17.627 -44.4336 C 16.5039 -44.4336 15.8691 -45.0684 15.8691 -46.2891 L 15.8691 -62.8418 C 15.8691 -64.0137 16.5039 -64.6484 17.627 -64.6484 L 41.6504 -64.6484 C 42.8223 -64.6484 43.457 -64.0137 43.457 -62.8418 L 43.457 -46.2891 C 43.457 -45.0684 42.8223 -44.4336 41.6504 -44.4336 Z M 63.6719 -44.4336 C 62.5 -44.4336 61.8652 -45.0684 61.8652 -46.2891 L 61.8652 -62.8418 C 61.8652 -64.0137 62.5 -64.6484 63.6719 -64.6484 L 87.6953 -64.6484 C 88.8672 -64.6484 89.4531 -64.0137 89.4531 -62.8418 L 89.4531 -46.2891 C 89.4531 -45.0684 88.8672 -44.4336 87.6953 -44.4336 Z M 17.5781 0.390625 L 41.748 0.390625 C 46.9727 0.390625 49.5605 -2.24609 49.5605 -7.61719 L 49.5605 -24.1211 C 49.5605 -29.4922 46.9727 -32.0801 41.748 -32.0801 L 17.5781 -32.0801 C 12.3535 -32.0801 9.76562 -29.4922 9.76562 -24.1211 L 9.76562 -7.61719 C 9.76562 -2.24609 12.3535 0.390625 17.5781 0.390625 Z M 63.5742 0.390625 L 87.7441 0.390625 C 92.9688 0.390625 95.5566 -2.24609 95.5566 -7.61719 L 95.5566 -24.1211 C 95.5566 -29.4922 92.9688 -32.0801 87.7441 -32.0801 L 63.5742 -32.0801 C 58.3496 -32.0801 55.7617 -29.4922 55.7617 -24.1211 L 55.7617 -7.61719 C 55.7617 -2.24609 58.3496 0.390625 63.5742 0.390625 Z M 17.627 -5.76172 C 16.5039 -5.76172 15.8691 -6.39648 15.8691 -7.56836 L 15.8691 -24.1211 C 15.8691 -25.3418 16.5039 -25.9766 17.627 -25.9766 L 41.6504 -25.9766 C 42.8223 -25.9766 43.457 -25.3418 43.457 -24.1211 L 43.457 -7.56836 C 43.457 -6.39648 42.8223 -5.76172 41.6504 -5.76172 Z M 63.6719 -5.76172 C 62.5 -5.76172 61.8652 -6.39648 61.8652 -7.56836 L 61.8652 -24.1211 C 61.8652 -25.3418 62.5 -25.9766 63.6719 -25.9766 L 87.6953 -25.9766 C 88.8672 -25.9766 89.4531 -25.3418 89.4531 -24.1211 L 89.4531 -7.56836 C 89.4531 -6.39648 88.8672 -5.76172 87.6953 -5.76172 Z"/>
  </g>
  <g id="Light-S" transform="matrix(1 0 0 1 1101.13 696)">
   <path d="M 16.6504 -38.4277 L 41.8457 -38.4277 C 46.4355 -38.4277 48.7793 -40.6738 48.7793 -45.459 L 48.7793 -63.0859 C 48.7793 -67.8711 46.4355 -70.1172 41.8457 -70.1172 L 16.6504 -70.1172 C 12.1094 -70.1172 9.76562 -67.8711 9.76562 -63.0859 L 9.76562 -45.459 C 9.76562 -40.6738 12.1094 -38.4277 16.6504 -38.4277 Z M 62.1582 -38.4277 L 87.3535 -38.4277 C 91.9434 -38.4277 94.2383 -40.6738 94.2383 -45.459 L 94.2383 -63.0859 C 94.2383 -67.8711 91.9434 -70.1172 87.3535 -70.1172 L 62.1582 -70.1172 C 57.5684 -70.1172 55.2246 -67.8711 55.2246 -63.0859 L 55.2246 -45.459 C 55.2246 -40.6738 57.5684 -38.4277 62.1582 -38.4277 Z M 16.748 -43.2129 C 15.2344 -43.2129 14.5508 -43.9453 14.5508 -45.5078 L 14.5508 -63.0859 C 14.5508 -64.5996 15.2344 -65.332 16.748 -65.332 L 41.748 -65.332 C 43.2617 -65.332 43.9941 -64.5996 43.9941 -63.0859 L 43.9941 -45.5078 C 43.9941 -43.9453 43.2617 -43.2129 41.748 -43.2129 Z M 62.2559 -43.2129 C 60.7422 -43.2129 60.0586 -43.9453 60.0586 -45.5078 L 60.0586 -63.0859 C 60.0586 -64.5996 60.7422 -65.332 62.2559 -65.332 L 87.2559 -65.332 C 88.7695 -65.332 89.4531 -64.5996 89.4531 -63.0859 L 89.4531 -45.5078 C 89.4531 -43.9453 88.7695 -43.2129 87.2559 -43.2129 Z M 16.6504 -0.292969 L 41.8457 -0.292969 C 46.4355 -0.292969 48.7793 -2.53906 48.7793 -7.32422 L 48.7793 -24.9023 C 48.7793 -29.6875 46.4355 -31.9336 41.8457 -31.9336 L 16.6504 -31.9336 C 12.1094 -31.9336 9.76562 -29.6875 9.76562 -24.9023 L 9.76562 -7.32422 C 9.76562 -2.53906 12.1094 -0.292969 16.6504 -0.292969 Z M 62.1582 -0.292969 L 87.3535 -0.292969 C 91.9434 -0.292969 94.2383 -2.53906 94.2383 -7.32422 L 94.2383 -24.9023 C 94.2383 -29.6875 91.9434 -31.9336 87.3535 -31.9336 L 62.1582 -31.9336 C 57.5684 -31.9336 55.2246 -29.6875 55.2246 -24.9023 L 55.2246 -7.32422 C 55.2246 -2.53906 57.5684 -0.292969 62.1582 -0.292969 Z M 16.748 -5.07812 C 15.2344 -5.07812 14.5508 -5.81055 14.5508 -7.32422 L 14.5508 -24.9023 C 14.5508 -26.416 15.2344 -27.1484 16.748 -27.1484 L 41.748 -27.1484 C 43.2617 -27.1484 43.9941 -26.416 43.9941 -24.9023 L 43.9941 -7.32422 C 43.9941 -5.81055 43.2617 -5.07812 41.748 -5.07812 Z M 62.2559 -5.07812 C 60.7422 -5.07812 60.0586 -5.81055 60.0586 -7.32422 L 60.0586 -24.9023 C 60.0586 -26.416 60.7422 -27.1484 62.2559 -27.1484 L 87.2559 -27.1484 C 88.7695 -27.1484 89.4531 -26.416 89.4531 -24.9023 L 89.4531 -7.32422 C 89.4531 -5.81055 88.7695 -5.07812 87.2559 -5.07812 Z"/>
  </g>
  <g id="Thin-S" transform="matrix(1 0 0 1 805.275 696)">
   <path d="M 15.4785 -38.5742 L 41.9922 -38.5742 C 45.752 -38.5742 47.7539 -40.332 47.7539 -44.3359 L 47.7539 -63.4277 C 47.7539 -67.4316 45.752 -69.2383 41.9922 -69.2383 L 15.4785 -69.2383 C 11.7676 -69.2383 9.76562 -67.4316 9.76562 -63.4277 L 9.76562 -44.3359 C 9.76562 -40.332 11.7676 -38.5742 15.4785 -38.5742 Z M 60.2539 -38.5742 L 86.7676 -38.5742 C 90.5273 -38.5742 92.5293 -40.332 92.5293 -44.3359 L 92.5293 -63.4277 C 92.5293 -67.4316 90.5273 -69.2383 86.7676 -69.2383 L 60.2539 -69.2383 C 56.543 -69.2383 54.541 -67.4316 54.541 -63.4277 L 54.541 -44.3359 C 54.541 -40.332 56.543 -38.5742 60.2539 -38.5742 Z M 15.5762 -41.6504 C 13.623 -41.6504 12.8418 -42.4316 12.8418 -44.4336 L 12.8418 -63.3789 C 12.8418 -65.332 13.623 -66.1621 15.5762 -66.1621 L 41.8945 -66.1621 C 43.8477 -66.1621 44.6777 -65.332 44.6777 -63.3789 L 44.6777 -44.4336 C 44.6777 -42.4316 43.8477 -41.6504 41.8945 -41.6504 Z M 60.3516 -41.6504 C 58.3984 -41.6504 57.6172 -42.4316 57.6172 -44.4336 L 57.6172 -63.3789 C 57.6172 -65.332 58.3984 -66.1621 60.3516 -66.1621 L 86.7188 -66.1621 C 88.6719 -66.1621 89.4531 -65.332 89.4531 -63.3789 L 89.4531 -44.4336 C 89.4531 -42.4316 88.6719 -41.6504 86.7188 -41.6504 Z M 15.4785 -1.12305 L 41.9922 -1.12305 C 45.752 -1.12305 47.7539 -2.88086 47.7539 -6.88477 L 47.7539 -25.9766 C 47.7539 -29.9805 45.752 -31.7871 41.9922 -31.7871 L 15.4785 -31.7871 C 11.7676 -31.7871 9.76562 -29.9805 9.76562 -25.9766 L 9.76562 -6.88477 C 9.76562 -2.88086 11.7676 -1.12305 15.4785 -1.12305 Z M 60.2539 -1.12305 L 86.7676 -1.12305 C 90.5273 -1.12305 92.5293 -2.88086 92.5293 -6.88477 L 92.5293 -25.9766 C 92.5293 -29.9805 90.5273 -31.7871 86.7676 -31.7871 L 60.2539 -31.7871 C 56.543 -31.7871 54.541 -29.9805 54.541 -25.9766 L 54.541 -6.88477 C 54.541 -2.88086 56.543 -1.12305 60.2539 -1.12305 Z M 15.5762 -4.19922 C 13.623 -4.19922 12.8418 -4.98047 12.8418 -6.98242 L 12.8418 -25.9277 C 12.8418 -27.8809 13.623 -28.7109 15.5762 -28.7109 L 41.8945 -28.7109 C 43.8477 -28.7109 44.6777 -27.8809 44.6777 -25.9277 L 44.6777 -6.98242 C 44.6777 -4.98047 43.8477 -4.19922 41.8945 -4.19922 Z M 60.3516 -4.19922 C 58.3984 -4.19922 57.6172 -4.98047 57.6172 -6.98242 L 57.6172 -25.9277 C 57.6172 -27.8809 58.3984 -28.7109 60.3516 -28.7109 L 86.7188 -28.7109 C 88.6719 -28.7109 89.4531 -27.8809 89.4531 -25.9277 L 89.4531 -6.98242 C 89.4531 -4.98047 88.6719 -4.19922 86.7188 -4.19922 Z"/>
  </g>
  <g id="Ultralight-S" transform="matrix(1 0 0 1 509.028 696)">
   <path d="M 14.8926 -38.6719 L 42.0898 -38.6719 C 45.4102 -38.6719 47.2168 -40.1855 47.2168 -43.7988 L 47.2168 -63.623 C 47.2168 -67.2363 45.4102 -68.75 42.0898 -68.75 L 14.8926 -68.75 C 11.5723 -68.75 9.76562 -67.2363 9.76562 -63.623 L 9.76562 -43.7988 C 9.76562 -40.1855 11.5723 -38.6719 14.8926 -38.6719 Z M 59.3262 -38.6719 L 86.4746 -38.6719 C 89.7949 -38.6719 91.6016 -40.1855 91.6016 -43.7988 L 91.6016 -63.623 C 91.6016 -67.2363 89.7949 -68.75 86.4746 -68.75 L 59.3262 -68.75 C 56.0059 -68.75 54.1992 -67.2363 54.1992 -63.623 L 54.1992 -43.7988 C 54.1992 -40.1855 56.0059 -38.6719 59.3262 -38.6719 Z M 14.9902 -40.8203 C 12.793 -40.8203 11.9141 -41.6992 11.9141 -43.8965 L 11.9141 -63.5254 C 11.9141 -65.7227 12.793 -66.6016 14.9902 -66.6016 L 41.9922 -66.6016 C 44.1895 -66.6016 45.0195 -65.7227 45.0195 -63.5254 L 45.0195 -43.8965 C 45.0195 -41.6992 44.1895 -40.8203 41.9922 -40.8203 Z M 59.4238 -40.8203 C 57.2266 -40.8203 56.3477 -41.6992 56.3477 -43.8965 L 56.3477 -63.5254 C 56.3477 -65.7227 57.2266 -66.6016 59.4238 -66.6016 L 86.377 -66.6016 C 88.5742 -66.6016 89.4531 -65.7227 89.4531 -63.5254 L 89.4531 -43.8965 C 89.4531 -41.6992 88.5742 -40.8203 86.377 -40.8203 Z M 14.8926 -1.5625 L 42.0898 -1.5625 C 45.4102 -1.5625 47.2168 -3.07617 47.2168 -6.68945 L 47.2168 -26.5137 C 47.2168 -30.127 45.4102 -31.6406 42.0898 -31.6406 L 14.8926 -31.6406 C 11.5723 -31.6406 9.76562 -30.127 9.76562 -26.5137 L 9.76562 -6.68945 C 9.76562 -3.07617 11.5723 -1.5625 14.8926 -1.5625 Z M 59.3262 -1.5625 L 86.4746 -1.5625 C 89.7949 -1.5625 91.6016 -3.07617 91.6016 -6.68945 L 91.6016 -26.5137 C 91.6016 -30.127 89.7949 -31.6406 86.4746 -31.6406 L 59.3262 -31.6406 C 56.0059 -31.6406 54.1992 -30.127 54.1992 -26.5137 L 54.1992 -6.68945 C 54.1992 -3.07617 56.0059 -1.5625 59.3262 -1.5625 Z M 14.9902 -3.71094 C 12.793 -3.71094 11.9141 -4.58984 11.9141 -6.78711 L 11.9141 -26.4648 C 11.9141 -28.6133 12.793 -29.4922 14.9902 -29.4922 L 41.9922 -29.4922 C 44.1895 -29.4922 45.0195 -28.6133 45.0195 -26.4648 L 45.0195 -6.78711 C 45.0195 -4.58984 44.1895 -3.71094 41.9922 -3.71094 Z M 59.4238 -3.71094 C 57.2266 -3.71094 56.3477 -4.58984 56.3477 -6.78711 L 56.3477 -26.4648 C 56.3477 -28.6133 57.2266 -29.4922 59.4238 -29.4922 L 86.377 -29.4922 C 88.5742 -29.4922 89.4531 -28.6133 89.4531 -26.4648 L 89.4531 -6.78711 C 89.4531 -4.58984 88.5742 -3.71094 86.377 -3.71094 Z"/>
  </g>
 </g>
</svg>
