<?xml version="1.0" encoding="UTF-8"?>
<!--Generator: Apple Native CoreSVG 123-->
<!DOCTYPE svg
PUBLIC "-//W3C//DTD SVG 1.1//EN"
       "http://www.w3.org/Graphics/SVG/1.1/DTD/svg11.dtd">
<svg version="1.1" xmlns="http://www.w3.org/2000/svg" xmlns:xlink="http://www.w3.org/1999/xlink" width="3300" height="2200">
 <!--glyph: "uni1006F8.medium", point size: 100.000000, font version: "Version 15.0d7e11", template writer version: "5"-->
 <g id="Notes">
  <rect height="2200" id="artboard" style="fill:white;opacity:1" width="3300" x="0" y="0"/>
  <line id="" style="fill:none;stroke:black;opacity:1;stroke-width:0.5;" x1="263" x2="3036" y1="292" y2="292"/>
  <text style="stroke:none;fill:black;font-family:-apple-system,&quot;SF Pro Display&quot;,&quot;SF Pro Text&quot;,Helvetica,sans-serif;font-weight:bold;" transform="matrix(1 0 0 1 263 322)">Weight/Scale Variations</text>
  <text style="stroke:none;fill:black;font-family:-apple-system,&quot;SF Pro Display&quot;,&quot;SF Pro Text&quot;,Helvetica,sans-serif;text-anchor:middle;" transform="matrix(1 0 0 1 559.711 322)">Ultralight</text>
  <text style="stroke:none;fill:black;font-family:-apple-system,&quot;SF Pro Display&quot;,&quot;SF Pro Text&quot;,Helvetica,sans-serif;text-anchor:middle;" transform="matrix(1 0 0 1 856.422 322)">Thin</text>
  <text style="stroke:none;fill:black;font-family:-apple-system,&quot;SF Pro Display&quot;,&quot;SF Pro Text&quot;,Helvetica,sans-serif;text-anchor:middle;" transform="matrix(1 0 0 1 1153.13 322)">Light</text>
  <text style="stroke:none;fill:black;font-family:-apple-system,&quot;SF Pro Display&quot;,&quot;SF Pro Text&quot;,Helvetica,sans-serif;text-anchor:middle;" transform="matrix(1 0 0 1 1449.84 322)">Regular</text>
  <text style="stroke:none;fill:black;font-family:-apple-system,&quot;SF Pro Display&quot;,&quot;SF Pro Text&quot;,Helvetica,sans-serif;text-anchor:middle;" transform="matrix(1 0 0 1 1746.56 322)">Medium</text>
  <text style="stroke:none;fill:black;font-family:-apple-system,&quot;SF Pro Display&quot;,&quot;SF Pro Text&quot;,Helvetica,sans-serif;text-anchor:middle;" transform="matrix(1 0 0 1 2043.27 322)">Semibold</text>
  <text style="stroke:none;fill:black;font-family:-apple-system,&quot;SF Pro Display&quot;,&quot;SF Pro Text&quot;,Helvetica,sans-serif;text-anchor:middle;" transform="matrix(1 0 0 1 2339.98 322)">Bold</text>
  <text style="stroke:none;fill:black;font-family:-apple-system,&quot;SF Pro Display&quot;,&quot;SF Pro Text&quot;,Helvetica,sans-serif;text-anchor:middle;" transform="matrix(1 0 0 1 2636.69 322)">Heavy</text>
  <text style="stroke:none;fill:black;font-family:-apple-system,&quot;SF Pro Display&quot;,&quot;SF Pro Text&quot;,Helvetica,sans-serif;text-anchor:middle;" transform="matrix(1 0 0 1 2933.4 322)">Black</text>
  <line id="" style="fill:none;stroke:black;opacity:1;stroke-width:0.5;" x1="263" x2="3036" y1="1903" y2="1903"/>
  <g id="" transform="matrix(1 0 0 1 263 1933)">
   <path d="M 9.24805 0.830078 C 13.5547 0.830078 17.1387 -2.74414 17.1387 -7.05078 C 17.1387 -11.3574 13.5449 -14.9316 9.23828 -14.9316 C 4.94141 -14.9316 1.36719 -11.3574 1.36719 -7.05078 C 1.36719 -2.74414 4.95117 0.830078 9.24805 0.830078 Z M 9.24805 -0.654297 C 5.70312 -0.654297 2.87109 -3.49609 2.87109 -7.05078 C 2.87109 -10.6055 5.69336 -13.4473 9.23828 -13.4473 C 12.793 -13.4473 15.6348 -10.6055 15.6445 -7.05078 C 15.6543 -3.49609 12.8027 -0.654297 9.24805 -0.654297 Z M 9.22852 -3.42773 C 9.69727 -3.42773 9.9707 -3.74023 9.9707 -4.25781 L 9.9707 -6.31836 L 12.1973 -6.31836 C 12.6953 -6.31836 13.0371 -6.57227 13.0371 -7.04102 C 13.0371 -7.51953 12.7148 -7.7832 12.1973 -7.7832 L 9.9707 -7.7832 L 9.9707 -10.0098 C 9.9707 -10.5273 9.69727 -10.8496 9.22852 -10.8496 C 8.75977 -10.8496 8.50586 -10.5078 8.50586 -10.0098 L 8.50586 -7.7832 L 6.29883 -7.7832 C 5.78125 -7.7832 5.44922 -7.51953 5.44922 -7.04102 C 5.44922 -6.57227 5.80078 -6.31836 6.29883 -6.31836 L 8.50586 -6.31836 L 8.50586 -4.25781 C 8.50586 -3.75977 8.75977 -3.42773 9.22852 -3.42773 Z"/>
  </g>
  <g id="" transform="matrix(1 0 0 1 281.506 1933)">
   <path d="M 11.709 2.91016 C 17.1582 2.91016 21.6699 -1.60156 21.6699 -7.05078 C 21.6699 -12.4902 17.1484 -17.0117 11.6992 -17.0117 C 6.25977 -17.0117 1.74805 -12.4902 1.74805 -7.05078 C 1.74805 -1.60156 6.26953 2.91016 11.709 2.91016 Z M 11.709 1.25 C 7.09961 1.25 3.41797 -2.44141 3.41797 -7.05078 C 3.41797 -11.6504 7.08984 -15.3516 11.6992 -15.3516 C 16.3086 -15.3516 20 -11.6504 20.0098 -7.05078 C 20.0195 -2.44141 16.3184 1.25 11.709 1.25 Z M 11.6895 -2.41211 C 12.207 -2.41211 12.5195 -2.77344 12.5195 -3.33984 L 12.5195 -6.23047 L 15.5762 -6.23047 C 16.123 -6.23047 16.5039 -6.51367 16.5039 -7.03125 C 16.5039 -7.55859 16.1426 -7.86133 15.5762 -7.86133 L 12.5195 -7.86133 L 12.5195 -10.9277 C 12.5195 -11.5039 12.207 -11.8555 11.6895 -11.8555 C 11.1719 -11.8555 10.8789 -11.4844 10.8789 -10.9277 L 10.8789 -7.86133 L 7.83203 -7.86133 C 7.26562 -7.86133 6.89453 -7.55859 6.89453 -7.03125 C 6.89453 -6.51367 7.28516 -6.23047 7.83203 -6.23047 L 10.8789 -6.23047 L 10.8789 -3.33984 C 10.8789 -2.79297 11.1719 -2.41211 11.6895 -2.41211 Z"/>
  </g>
  <g id="" transform="matrix(1 0 0 1 304.924 1933)">
   <path d="M 14.9707 5.67383 C 21.9336 5.67383 27.6953 -0.078125 27.6953 -7.04102 C 27.6953 -14.0039 21.9238 -19.7559 14.9609 -19.7559 C 8.00781 -19.7559 2.25586 -14.0039 2.25586 -7.04102 C 2.25586 -0.078125 8.01758 5.67383 14.9707 5.67383 Z M 14.9707 3.85742 C 8.93555 3.85742 4.08203 -1.00586 4.08203 -7.04102 C 4.08203 -13.0762 8.92578 -17.9395 14.9609 -17.9395 C 21.0059 -17.9395 25.8594 -13.0762 25.8691 -7.04102 C 25.8789 -1.00586 21.0156 3.85742 14.9707 3.85742 Z M 14.9512 -1.06445 C 15.5176 -1.06445 15.8691 -1.45508 15.8691 -2.06055 L 15.8691 -6.13281 L 20.1074 -6.13281 C 20.6934 -6.13281 21.1133 -6.46484 21.1133 -7.02148 C 21.1133 -7.59766 20.7227 -7.93945 20.1074 -7.93945 L 15.8691 -7.93945 L 15.8691 -12.1875 C 15.8691 -12.8027 15.5176 -13.1934 14.9512 -13.1934 C 14.3848 -13.1934 14.0625 -12.7832 14.0625 -12.1875 L 14.0625 -7.93945 L 9.83398 -7.93945 C 9.21875 -7.93945 8.80859 -7.59766 8.80859 -7.02148 C 8.80859 -6.46484 9.23828 -6.13281 9.83398 -6.13281 L 14.0625 -6.13281 L 14.0625 -2.06055 C 14.0625 -1.47461 14.3848 -1.06445 14.9512 -1.06445 Z"/>
  </g>
  <text style="stroke:none;fill:black;font-family:-apple-system,&quot;SF Pro Display&quot;,&quot;SF Pro Text&quot;,Helvetica,sans-serif;font-weight:bold;" transform="matrix(1 0 0 1 263 1953)">Design Variations</text>
  <text style="stroke:none;fill:black;font-family:-apple-system,&quot;SF Pro Display&quot;,&quot;SF Pro Text&quot;,Helvetica,sans-serif;" transform="matrix(1 0 0 1 263 1971)">Symbols are supported in up to nine weights and three scales.</text>
  <text style="stroke:none;fill:black;font-family:-apple-system,&quot;SF Pro Display&quot;,&quot;SF Pro Text&quot;,Helvetica,sans-serif;" transform="matrix(1 0 0 1 263 1989)">For optimal layout with text and other symbols, vertically align</text>
  <text style="stroke:none;fill:black;font-family:-apple-system,&quot;SF Pro Display&quot;,&quot;SF Pro Text&quot;,Helvetica,sans-serif;" transform="matrix(1 0 0 1 263 2007)">symbols with the adjacent text.</text>
  <rect height="14" id="" style="fill:#00AEEF;stroke:none;opacity:0.4;" width="3" x="776" y="1919"/>
  <g id="" transform="matrix(1 0 0 1 779 1933)">
   <path d="M 10.5273 0 L 12.373 0 L 7.17773 -14.0918 L 5.43945 -14.0918 L 0.244141 0 L 2.08984 0 L 3.50586 -4.0332 L 9.11133 -4.0332 Z M 6.2793 -11.9531 L 6.33789 -11.9531 L 8.59375 -5.52734 L 4.02344 -5.52734 Z"/>
  </g>
  <rect height="14" id="" style="fill:#00AEEF;stroke:none;opacity:0.4;" width="3" x="791.617" y="1919"/>
  <text style="stroke:none;fill:black;font-family:-apple-system,&quot;SF Pro Display&quot;,&quot;SF Pro Text&quot;,Helvetica,sans-serif;font-weight:bold;" transform="matrix(1 0 0 1 776 1953)">Margins</text>
  <text style="stroke:none;fill:black;font-family:-apple-system,&quot;SF Pro Display&quot;,&quot;SF Pro Text&quot;,Helvetica,sans-serif;" transform="matrix(1 0 0 1 776 1971)">Leading and trailing margins on the left and right side of each symbol</text>
  <text style="stroke:none;fill:black;font-family:-apple-system,&quot;SF Pro Display&quot;,&quot;SF Pro Text&quot;,Helvetica,sans-serif;" transform="matrix(1 0 0 1 776 1989)">can be adjusted by modifying the width of the blue rectangles.</text>
  <text style="stroke:none;fill:black;font-family:-apple-system,&quot;SF Pro Display&quot;,&quot;SF Pro Text&quot;,Helvetica,sans-serif;" transform="matrix(1 0 0 1 776 2007)">Modifications are automatically applied proportionally to all</text>
  <text style="stroke:none;fill:black;font-family:-apple-system,&quot;SF Pro Display&quot;,&quot;SF Pro Text&quot;,Helvetica,sans-serif;" transform="matrix(1 0 0 1 776 2025)">scales and weights.</text>
  <g id="" transform="matrix(1 0 0 1 1289 1933)">
   <path d="M 2.83203 3.11523 L 4.375 4.6582 C 5.22461 5.48828 6.19141 5.41992 7.06055 4.46289 L 17.2754 -6.66016 C 17.7051 -6.36719 18.0957 -6.37695 18.5645 -6.47461 L 19.6094 -6.68945 L 20.3027 -5.99609 L 20.2539 -5.47852 C 20.1855 -4.95117 20.3516 -4.53125 20.8496 -4.0332 L 21.6602 -3.22266 C 22.168 -2.71484 22.8223 -2.68555 23.3008 -3.16406 L 26.5527 -6.41602 C 27.0312 -6.89453 27.0117 -7.54883 26.5039 -8.05664 L 25.6836 -8.87695 C 25.1855 -9.375 24.7754 -9.55078 24.2383 -9.47266 L 23.7109 -9.41406 L 23.0566 -10.0781 L 23.3398 -11.2207 C 23.4863 -11.7871 23.3398 -12.2559 22.7148 -12.8613 L 20.3027 -15.2539 C 16.7578 -18.7793 12.2266 -18.6719 9.11133 -15.5371 C 8.69141 -15.1074 8.64258 -14.5215 8.91602 -14.0918 C 9.15039 -13.7207 9.62891 -13.4961 10.2734 -13.6621 C 11.7871 -14.043 13.3008 -13.9258 14.7852 -12.9199 L 14.1602 -11.3379 C 13.9258 -10.752 13.9453 -10.2734 14.1797 -9.83398 L 3.01758 0.439453 C 2.08008 1.30859 1.97266 2.25586 2.83203 3.11523 Z M 10.6738 -15.1465 C 13.3398 -17.1387 16.6504 -16.8262 19.0527 -14.4141 L 21.6797 -11.8066 C 21.9141 -11.5723 21.9434 -11.3867 21.8848 -11.0938 L 21.5039 -9.53125 L 23.0762 -7.95898 L 24.043 -8.04688 C 24.3262 -8.07617 24.4141 -8.05664 24.6387 -7.83203 L 25.2637 -7.20703 L 22.5098 -4.46289 L 21.8848 -5.07812 C 21.6602 -5.30273 21.6406 -5.40039 21.6699 -5.68359 L 21.7578 -6.64062 L 20.1953 -8.20312 L 18.5742 -7.89062 C 18.291 -7.83203 18.1445 -7.83203 17.9102 -8.07617 L 15.7324 -10.2539 C 15.5078 -10.4883 15.4785 -10.625 15.6055 -10.9473 L 16.5527 -13.2227 C 14.9512 -14.7559 12.8418 -15.6055 10.8008 -14.9512 C 10.7129 -14.9219 10.6445 -14.9414 10.6152 -14.9805 C 10.5859 -15.0293 10.5859 -15.0781 10.6738 -15.1465 Z M 4.10156 2.41211 C 3.61328 1.91406 3.78906 1.61133 4.12109 1.30859 L 15.0781 -8.80859 L 16.3086 -7.57812 L 6.15234 3.34961 C 5.84961 3.68164 5.46875 3.7793 5.06836 3.37891 Z"/>
  </g>
  <text style="stroke:none;fill:black;font-family:-apple-system,&quot;SF Pro Display&quot;,&quot;SF Pro Text&quot;,Helvetica,sans-serif;font-weight:bold;" transform="matrix(1 0 0 1 1289 1953)">Exporting</text>
  <text style="stroke:none;fill:black;font-family:-apple-system,&quot;SF Pro Display&quot;,&quot;SF Pro Text&quot;,Helvetica,sans-serif;" transform="matrix(1 0 0 1 1289 1971)">Symbols should be outlined when exporting to ensure the</text>
  <text style="stroke:none;fill:black;font-family:-apple-system,&quot;SF Pro Display&quot;,&quot;SF Pro Text&quot;,Helvetica,sans-serif;" transform="matrix(1 0 0 1 1289 1989)">design is preserved when submitting to Xcode.</text>
  <text id="template-version" style="stroke:none;fill:black;font-family:-apple-system,&quot;SF Pro Display&quot;,&quot;SF Pro Text&quot;,Helvetica,sans-serif;text-anchor:end;" transform="matrix(1 0 0 1 3036 1933)">Template v.1.0</text>
  <text style="stroke:none;fill:black;font-family:-apple-system,&quot;SF Pro Display&quot;,&quot;SF Pro Text&quot;,Helvetica,sans-serif;text-anchor:end;" transform="matrix(1 0 0 1 3036 1951)">Generated from gamecontroller</text>
  <text style="stroke:none;fill:black;font-family:-apple-system,&quot;SF Pro Display&quot;,&quot;SF Pro Text&quot;,Helvetica,sans-serif;text-anchor:end;" transform="matrix(1 0 0 1 3036 1969)">Typeset at 100 points</text>
  <text style="stroke:none;fill:black;font-family:-apple-system,&quot;SF Pro Display&quot;,&quot;SF Pro Text&quot;,Helvetica,sans-serif;" transform="matrix(1 0 0 1 263 726)">Small</text>
  <text style="stroke:none;fill:black;font-family:-apple-system,&quot;SF Pro Display&quot;,&quot;SF Pro Text&quot;,Helvetica,sans-serif;" transform="matrix(1 0 0 1 263 1156)">Medium</text>
  <text style="stroke:none;fill:black;font-family:-apple-system,&quot;SF Pro Display&quot;,&quot;SF Pro Text&quot;,Helvetica,sans-serif;" transform="matrix(1 0 0 1 263 1586)">Large</text>
 </g>
 <g id="Guides">
  <g id="H-reference" style="fill:#27AAE1;stroke:none;" transform="matrix(1 0 0 1 339 696)">
   <path d="M 54.9316 0 L 57.666 0 L 30.5664 -70.459 L 28.0762 -70.459 L 0.976562 0 L 3.66211 0 L 12.9395 -24.4629 L 45.7031 -24.4629 Z M 29.1992 -67.0898 L 29.4434 -67.0898 L 44.8242 -26.709 L 13.8184 -26.709 Z"/>
  </g>
  <line id="Baseline-S" style="fill:none;stroke:#27AAE1;opacity:1;stroke-width:0.577;" x1="263" x2="3036" y1="696" y2="696"/>
  <line id="Capline-S" style="fill:none;stroke:#27AAE1;opacity:1;stroke-width:0.577;" x1="263" x2="3036" y1="625.541" y2="625.541"/>
  <g id="H-reference" style="fill:#27AAE1;stroke:none;" transform="matrix(1 0 0 1 339 1126)">
   <path d="M 54.9316 0 L 57.666 0 L 30.5664 -70.459 L 28.0762 -70.459 L 0.976562 0 L 3.66211 0 L 12.9395 -24.4629 L 45.7031 -24.4629 Z M 29.1992 -67.0898 L 29.4434 -67.0898 L 44.8242 -26.709 L 13.8184 -26.709 Z"/>
  </g>
  <line id="Baseline-M" style="fill:none;stroke:#27AAE1;opacity:1;stroke-width:0.577;" x1="263" x2="3036" y1="1126" y2="1126"/>
  <line id="Capline-M" style="fill:none;stroke:#27AAE1;opacity:1;stroke-width:0.577;" x1="263" x2="3036" y1="1055.54" y2="1055.54"/>
  <g id="H-reference" style="fill:#27AAE1;stroke:none;" transform="matrix(1 0 0 1 339 1556)">
   <path d="M 54.9316 0 L 57.666 0 L 30.5664 -70.459 L 28.0762 -70.459 L 0.976562 0 L 3.66211 0 L 12.9395 -24.4629 L 45.7031 -24.4629 Z M 29.1992 -67.0898 L 29.4434 -67.0898 L 44.8242 -26.709 L 13.8184 -26.709 Z"/>
  </g>
  <line id="Baseline-L" style="fill:none;stroke:#27AAE1;opacity:1;stroke-width:0.577;" x1="263" x2="3036" y1="1556" y2="1556"/>
  <line id="Capline-L" style="fill:none;stroke:#27AAE1;opacity:1;stroke-width:0.577;" x1="263" x2="3036" y1="1485.54" y2="1485.54"/>
  <rect height="119.336" id="left-margin" style="fill:#00AEEF;stroke:none;opacity:0.4;" width="8.74023" x="1370.62" y="1030.79"/>
  <rect height="119.336" id="right-margin" style="fill:#00AEEF;stroke:none;opacity:0.4;" width="8.74023" x="1520.33" y="1030.79"/>
 </g>
 <g id="Symbols">
  <g id="Black-L" transform="matrix(1 0 0 1 2825.44 1556)">
   <path d="M 11.2793 -0.683594 C 11.2793 16.6504 22.8516 26.4648 38.1348 26.4648 C 49.4629 26.4648 57.8125 21.8262 64.502 15.1367 L 75 4.58984 C 76.5137 3.125 77.3926 2.44141 79.4922 2.44141 L 136.426 2.44141 C 138.525 2.44141 139.404 3.125 140.967 4.58984 L 151.416 15.1367 C 158.203 21.7773 166.455 26.4648 177.783 26.4648 C 193.115 26.4648 204.639 16.6504 204.639 -0.683594 C 204.639 -8.30078 203.271 -16.6504 200.635 -25.4883 C 196.631 -38.7207 189.844 -56.543 183.496 -69.9219 C 177.881 -81.6406 174.17 -88.7207 158.691 -92.2363 C 145.752 -95.166 128.516 -96.9238 107.959 -96.9238 C 87.4023 -96.9238 70.2148 -95.166 57.2266 -92.2363 C 41.7969 -88.7207 38.0859 -81.6406 32.4707 -69.9219 C 26.123 -56.543 19.2871 -38.7207 15.332 -25.4883 C 12.6465 -16.6504 11.2793 -8.30078 11.2793 -0.683594 Z M 30.0781 -2.24609 C 30.0781 -5.66406 30.8594 -9.66797 32.5195 -15.4785 C 36.9629 -30.6641 44.1895 -49.4629 50.4395 -62.9395 C 53.3203 -69.1895 54.9316 -71.7773 60.1074 -73.0469 C 72.1191 -75.9277 88.2324 -77.4902 107.959 -77.4902 C 127.686 -77.4902 143.848 -75.9277 155.859 -73.0469 C 160.986 -71.7773 162.598 -69.1895 165.479 -62.9395 C 171.729 -49.4629 178.906 -30.6152 183.398 -15.4785 C 185.107 -9.66797 185.889 -5.66406 185.889 -2.24609 C 185.889 3.85742 181.592 7.27539 176.123 7.27539 C 172.51 7.27539 168.604 5.51758 165.234 2.19727 L 150.293 -12.4023 C 147.021 -15.6738 144.531 -16.9922 139.99 -16.9922 L 75.9277 -16.9922 C 71.4355 -16.9922 68.8965 -15.6738 65.6738 -12.4023 L 50.6836 2.19727 C 47.4121 5.56641 43.457 7.27539 39.7949 7.27539 C 34.375 7.27539 30.0781 3.85742 30.0781 -2.24609 Z M 55.127 -46.3379 C 55.127 -41.8945 58.0566 -39.0137 62.6465 -39.0137 L 70.6543 -39.0137 L 70.6543 -31.5918 C 70.6543 -26.9043 73.6328 -23.8281 78.2227 -23.8281 C 82.8125 -23.8281 85.791 -26.9043 85.791 -31.5918 L 85.791 -39.0137 L 93.2129 -39.0137 C 98.1445 -39.0137 101.27 -41.8945 101.27 -46.3379 C 101.27 -50.7812 98.1445 -53.6133 93.2129 -53.6133 L 85.791 -53.6133 L 85.791 -61.0352 C 85.791 -65.7227 82.8125 -68.7988 78.2227 -68.7988 C 73.6328 -68.7988 70.6543 -65.7227 70.6543 -61.0352 L 70.6543 -53.6133 L 62.6465 -53.6133 C 58.0566 -53.6133 55.127 -50.7812 55.127 -46.3379 Z M 147.949 -46.1914 C 153.711 -46.1914 158.203 -50.5859 158.203 -56.3477 C 158.203 -62.1582 153.711 -66.6504 147.949 -66.6504 C 142.236 -66.6504 137.695 -62.1582 137.695 -56.3477 C 137.695 -50.5859 142.236 -46.1914 147.949 -46.1914 Z M 128.76 -26.4648 C 134.57 -26.4648 139.014 -30.9082 139.014 -36.6211 C 139.014 -42.4316 134.57 -46.9238 128.76 -46.9238 C 123.047 -46.9238 118.506 -42.4316 118.506 -36.6211 C 118.506 -30.9082 123.047 -26.4648 128.76 -26.4648 Z"/>
  </g>
  <g id="Heavy-L" transform="matrix(1 0 0 1 2530.24 1556)">
   <path d="M 11.2793 -1.12305 C 11.2793 15.5273 22.3145 25.2441 37.3047 25.2441 C 47.6074 25.2441 55.6641 20.9473 62.0117 14.3555 L 72.7539 2.97852 C 74.3164 1.36719 75.3906 0.585938 77.4902 0.585938 L 135.4 0.585938 C 137.5 0.585938 138.574 1.36719 140.186 2.97852 L 150.879 14.3555 C 157.275 20.8984 165.283 25.2441 175.586 25.2441 C 190.576 25.2441 201.611 15.5273 201.611 -1.12305 C 201.611 -8.34961 200.195 -16.4062 197.607 -25.0977 C 193.652 -38.2812 186.865 -56.0059 180.469 -69.4824 C 174.951 -81.0547 171.484 -87.6465 156.592 -91.0156 C 143.848 -93.8965 126.807 -95.6543 106.445 -95.6543 C 86.084 -95.6543 69.043 -93.8965 56.2988 -91.0156 C 41.4062 -87.6465 37.9395 -81.0547 32.4219 -69.4824 C 26.0254 -56.0059 19.2383 -38.2812 15.2832 -25.0977 C 12.6953 -16.4062 11.2793 -8.34961 11.2793 -1.12305 Z M 27.5879 -2.19727 C 27.5879 -5.76172 28.3691 -9.96094 30.2246 -16.2109 C 34.5215 -31.0547 41.7969 -49.8535 48.0469 -63.4766 C 51.0254 -69.873 52.6855 -72.9004 58.6426 -74.3164 C 70.5566 -77.1484 86.7188 -78.7598 106.445 -78.7598 C 126.172 -78.7598 142.334 -77.1484 154.248 -74.3164 C 160.254 -72.8516 161.865 -69.873 164.844 -63.4766 C 171.143 -49.8535 178.271 -31.0547 182.715 -16.2109 C 184.521 -9.96094 185.303 -5.76172 185.303 -2.19727 C 185.303 4.63867 180.566 8.59375 174.365 8.59375 C 170.41 8.59375 166.309 6.64062 162.842 3.02734 L 148.584 -11.5234 C 145.41 -14.8926 142.92 -16.2598 138.184 -16.2598 L 74.707 -16.2598 C 70.0195 -16.2598 67.4805 -14.8926 64.3066 -11.5234 L 50.0488 3.02734 C 46.6309 6.68945 42.4805 8.59375 38.5254 8.59375 C 32.3242 8.59375 27.5879 4.63867 27.5879 -2.19727 Z M 54.1016 -46.7285 C 54.1016 -42.627 56.7383 -40.0391 60.9375 -40.0391 L 69.9707 -40.0391 L 69.9707 -31.4453 C 69.9707 -27.2461 72.6562 -24.4629 76.8066 -24.4629 C 80.9082 -24.4629 83.5449 -27.2461 83.5449 -31.4453 L 83.5449 -40.0391 L 92.0898 -40.0391 C 96.5332 -40.0391 99.3164 -42.627 99.3164 -46.7285 C 99.3164 -50.7324 96.5332 -53.3203 92.0898 -53.3203 L 83.5449 -53.3203 L 83.5449 -61.9141 C 83.5449 -66.1133 80.9082 -68.8965 76.8066 -68.8965 C 72.6562 -68.8965 69.9707 -66.1133 69.9707 -61.9141 L 69.9707 -53.3203 L 60.9375 -53.3203 C 56.7383 -53.3203 54.1016 -50.7324 54.1016 -46.7285 Z M 146.191 -46.8262 C 151.807 -46.8262 156.104 -51.0742 156.104 -56.6895 C 156.104 -62.2559 151.807 -66.6016 146.191 -66.6016 C 140.674 -66.6016 136.328 -62.2559 136.328 -56.6895 C 136.328 -51.0742 140.674 -46.8262 146.191 -46.8262 Z M 127.051 -27.3438 C 132.666 -27.3438 136.963 -31.6406 136.963 -37.1582 C 136.963 -42.7734 132.666 -47.0703 127.051 -47.0703 C 121.533 -47.0703 117.188 -42.7734 117.188 -37.1582 C 117.188 -31.6406 121.533 -27.3438 127.051 -27.3438 Z"/>
  </g>
  <g id="Bold-L" transform="matrix(1 0 0 1 2235.22 1556)">
   <path d="M 11.2793 -1.5625 C 11.2793 14.2578 21.7285 23.8281 36.3281 23.8281 C 45.5566 23.8281 53.2227 19.9707 59.1797 13.4277 L 70.2148 1.12305 C 71.8262 -0.634766 73.1934 -1.41602 75.2441 -1.41602 L 134.229 -1.41602 C 136.279 -1.41602 137.695 -0.634766 139.258 1.12305 L 150.293 13.4277 C 156.299 19.9219 163.965 23.8281 173.145 23.8281 C 187.793 23.8281 198.242 14.2578 198.242 -1.5625 C 198.242 -8.44727 196.777 -16.1621 194.238 -24.707 C 190.332 -37.793 183.545 -55.4199 177.148 -68.9941 C 171.68 -80.4199 168.457 -86.4258 154.248 -89.6484 C 141.797 -92.4805 124.902 -94.2383 104.736 -94.2383 C 84.5703 -94.2383 67.7246 -92.4805 55.2246 -89.6484 C 41.0156 -86.4258 37.8418 -80.4199 32.373 -68.9941 C 25.9277 -55.4199 19.1895 -37.793 15.2344 -24.707 C 12.6953 -16.1621 11.2793 -8.44727 11.2793 -1.5625 Z M 24.8047 -2.14844 C 24.8047 -5.85938 25.6348 -10.3027 27.5879 -17.041 C 31.8359 -31.543 39.0625 -50.2441 45.4102 -64.0625 C 48.3887 -70.6055 50.1465 -74.0723 57.0312 -75.7324 C 68.8477 -78.5156 85.0586 -80.2246 104.736 -80.2246 C 124.414 -80.2246 140.674 -78.5156 152.49 -75.7324 C 159.375 -74.0723 161.084 -70.6055 164.111 -64.0625 C 170.508 -50.2441 177.588 -31.4941 181.885 -17.041 C 183.936 -10.3027 184.717 -5.85938 184.717 -2.14844 C 184.717 5.46875 179.395 10.0586 172.363 10.0586 C 168.066 10.0586 163.721 7.86133 160.107 3.90625 L 146.729 -10.5469 C 143.604 -13.9648 141.113 -15.4785 136.182 -15.4785 L 73.3398 -15.4785 C 68.4082 -15.4785 65.8691 -13.9648 62.793 -10.5469 L 49.3652 3.90625 C 45.8008 7.91016 41.4062 10.0586 37.1094 10.0586 C 30.0781 10.0586 24.8047 5.46875 24.8047 -2.14844 Z M 52.9785 -47.1191 C 52.9785 -43.5059 55.2734 -41.2109 58.9844 -41.2109 L 69.2383 -41.2109 L 69.2383 -31.2988 C 69.2383 -27.5879 71.5332 -25.1465 75.1465 -25.1465 C 78.7598 -25.1465 81.0547 -27.5879 81.0547 -31.2988 L 81.0547 -41.2109 L 90.7715 -41.2109 C 94.7266 -41.2109 97.168 -43.5059 97.168 -47.1191 C 97.168 -50.6348 94.7266 -52.9297 90.7715 -52.9297 L 81.0547 -52.9297 L 81.0547 -62.8418 C 81.0547 -66.5527 78.7598 -68.9453 75.1465 -68.9453 C 71.5332 -68.9453 69.2383 -66.5527 69.2383 -62.8418 L 69.2383 -52.9297 L 58.9844 -52.9297 C 55.2734 -52.9297 52.9785 -50.6348 52.9785 -47.1191 Z M 144.238 -47.6074 C 149.609 -47.6074 153.76 -51.6602 153.76 -57.0312 C 153.76 -62.4023 149.609 -66.5527 144.238 -66.5527 C 138.965 -66.5527 134.766 -62.4023 134.766 -57.0312 C 134.766 -51.6602 138.965 -47.6074 144.238 -47.6074 Z M 125.195 -28.3203 C 130.566 -28.3203 134.668 -32.4219 134.668 -37.793 C 134.668 -43.1641 130.566 -47.2656 125.195 -47.2656 C 119.922 -47.2656 115.723 -43.1641 115.723 -37.793 C 115.723 -32.4219 119.922 -28.3203 125.195 -28.3203 Z"/>
  </g>
  <g id="Semibold-L" transform="matrix(1 0 0 1 1939.68 1556)">
   <path d="M 11.2793 -1.9043 C 11.2793 13.3789 21.2891 22.9004 35.6934 22.9004 C 44.1406 22.9004 51.5625 19.2871 57.2754 12.8418 L 68.5059 -0.0976562 C 70.1172 -2.00195 71.6797 -2.83203 73.7305 -2.83203 L 133.447 -2.83203 C 135.498 -2.83203 137.061 -2.00195 138.672 -0.0976562 L 149.902 12.8418 C 155.615 19.2871 163.037 22.9004 171.484 22.9004 C 185.84 22.9004 195.898 13.3789 195.898 -1.9043 C 195.898 -8.49609 194.434 -16.0156 191.943 -24.4141 C 188.037 -37.4512 181.299 -55.0293 174.805 -68.6523 C 169.434 -79.9805 166.406 -85.5469 152.637 -88.6719 C 140.332 -91.5039 123.584 -93.2617 103.564 -93.2617 C 83.5449 -93.2617 66.8457 -91.5039 54.4922 -88.6719 C 40.7715 -85.5469 37.7441 -79.9805 32.3242 -68.6523 C 25.8789 -55.0293 19.1406 -37.4512 15.2344 -24.4141 C 12.7441 -16.0156 11.2793 -8.49609 11.2793 -1.9043 Z M 22.9004 -2.09961 C 22.9004 -5.9082 23.7305 -10.5469 25.7812 -17.627 C 29.9316 -31.8848 37.1582 -50.5371 43.5547 -64.4531 C 46.582 -71.0938 48.3887 -74.9512 55.9082 -76.6602 C 67.627 -79.4434 83.9355 -81.2012 103.564 -81.2012 C 123.242 -81.2012 139.551 -79.4434 151.221 -76.6602 C 158.74 -74.9023 160.498 -71.0938 163.623 -64.4531 C 170.068 -50.5371 177.1 -31.8359 181.348 -17.627 C 183.496 -10.5469 184.277 -5.9082 184.277 -2.09961 C 184.277 6.05469 178.613 11.084 170.996 11.084 C 166.455 11.084 161.914 8.74023 158.252 4.54102 L 145.41 -9.86328 C 142.383 -13.3301 139.844 -14.8926 134.814 -14.8926 L 72.3633 -14.8926 C 67.334 -14.8926 64.7949 -13.3301 61.7676 -9.86328 L 48.9258 4.54102 C 45.2637 8.74023 40.7227 11.084 36.1816 11.084 C 28.5645 11.084 22.9004 6.05469 22.9004 -2.09961 Z M 52.1973 -47.4121 C 52.1973 -44.0918 54.2969 -41.9922 57.666 -41.9922 L 68.7012 -41.9922 L 68.7012 -31.1523 C 68.7012 -27.7832 70.752 -25.6348 74.0234 -25.6348 C 77.2949 -25.6348 79.3457 -27.7832 79.3457 -31.1523 L 79.3457 -41.9922 L 89.8438 -41.9922 C 93.457 -41.9922 95.6543 -44.0918 95.6543 -47.4121 C 95.6543 -50.6348 93.457 -52.6855 89.8438 -52.6855 L 79.3457 -52.6855 L 79.3457 -63.5254 C 79.3457 -66.8457 77.2949 -68.9941 74.0234 -68.9941 C 70.752 -68.9941 68.7012 -66.8457 68.7012 -63.5254 L 68.7012 -52.6855 L 57.666 -52.6855 C 54.2969 -52.6855 52.1973 -50.6348 52.1973 -47.4121 Z M 142.92 -48.0957 C 148.145 -48.0957 152.1 -52.0996 152.1 -57.2754 C 152.1 -62.5 148.145 -66.5039 142.92 -66.5039 C 137.793 -66.5039 133.74 -62.5 133.74 -57.2754 C 133.74 -52.0996 137.793 -48.0957 142.92 -48.0957 Z M 123.877 -29.0039 C 129.102 -29.0039 133.105 -33.0078 133.105 -38.1836 C 133.105 -43.4082 129.102 -47.4121 123.877 -47.4121 C 118.75 -47.4121 114.697 -43.4082 114.697 -38.1836 C 114.697 -33.0078 118.75 -29.0039 123.877 -29.0039 Z"/>
  </g>
  <g id="Medium-L" transform="matrix(1 0 0 1 1643.87 1556)">
   <path d="M 11.2793 -2.14844 C 11.2793 12.7441 20.9961 22.168 35.2051 22.168 C 43.0664 22.168 50.293 18.75 55.8105 12.3535 L 67.1875 -1.07422 C 68.8477 -3.02734 70.5078 -3.90625 72.5098 -3.90625 L 132.861 -3.90625 C 134.863 -3.90625 136.572 -3.02734 138.232 -1.07422 L 149.609 12.3535 C 155.078 18.75 162.354 22.168 170.166 22.168 C 184.375 22.168 194.092 12.7441 194.092 -2.14844 C 194.092 -8.54492 192.627 -15.8691 190.186 -24.2188 C 186.279 -37.1582 179.541 -54.7363 173.047 -68.4082 C 167.725 -79.6387 164.844 -84.9121 151.416 -87.9395 C 139.209 -90.7227 122.607 -92.5293 102.686 -92.5293 C 82.7637 -92.5293 66.1621 -90.7227 53.9551 -87.9395 C 40.5273 -84.9121 37.6953 -79.6387 32.3242 -68.4082 C 25.8301 -54.7363 19.0918 -37.1582 15.2344 -24.2188 C 12.7441 -15.8691 11.2793 -8.54492 11.2793 -2.14844 Z M 21.4355 -2.09961 C 21.4355 -6.00586 22.2656 -10.6934 24.4141 -18.0664 C 28.5156 -32.1289 35.7422 -50.7324 42.1875 -64.7949 C 45.2637 -71.4844 47.0703 -75.5371 55.0781 -77.3926 C 66.748 -80.1758 83.0566 -81.9336 102.686 -81.9336 C 122.314 -81.9336 138.672 -80.1758 150.293 -77.3926 C 158.301 -75.5371 160.107 -71.4844 163.232 -64.7949 C 169.727 -50.7324 176.709 -32.0801 180.957 -18.0664 C 183.154 -10.6934 183.936 -6.00586 183.936 -2.09961 C 183.936 6.49414 178.027 11.8652 169.971 11.8652 C 165.234 11.8652 160.596 9.375 156.836 5.0293 L 144.434 -9.375 C 141.455 -12.8418 138.916 -14.502 133.74 -14.502 L 71.6309 -14.502 C 66.4551 -14.502 63.9648 -12.8418 60.9375 -9.375 L 48.5352 5.0293 C 44.8242 9.375 40.1367 11.8652 35.4004 11.8652 C 27.3926 11.8652 21.4355 6.49414 21.4355 -2.09961 Z M 51.6113 -47.6074 C 51.6113 -44.5312 53.5156 -42.627 56.6406 -42.627 L 68.3105 -42.627 L 68.3105 -31.0547 C 68.3105 -27.9785 70.166 -26.0254 73.1934 -26.0254 C 76.1719 -26.0254 78.0273 -27.9785 78.0273 -31.0547 L 78.0273 -42.627 L 89.1602 -42.627 C 92.5293 -42.627 94.5312 -44.5312 94.5312 -47.6074 C 94.5312 -50.5859 92.5293 -52.4902 89.1602 -52.4902 L 78.0273 -52.4902 L 78.0273 -64.0137 C 78.0273 -67.0898 76.1719 -69.043 73.1934 -69.043 C 70.166 -69.043 68.3105 -67.0898 68.3105 -64.0137 L 68.3105 -52.4902 L 56.6406 -52.4902 C 53.5156 -52.4902 51.6113 -50.5859 51.6113 -47.6074 Z M 141.895 -48.4863 C 146.973 -48.4863 150.879 -52.3926 150.879 -57.4707 C 150.879 -62.5488 146.973 -66.5039 141.895 -66.5039 C 136.865 -66.5039 132.91 -62.5488 132.91 -57.4707 C 132.91 -52.3926 136.865 -48.4863 141.895 -48.4863 Z M 122.9 -29.541 C 127.979 -29.541 131.934 -33.4473 131.934 -38.4766 C 131.934 -43.6035 127.979 -47.5098 122.9 -47.5098 C 117.871 -47.5098 113.916 -43.6035 113.916 -38.4766 C 113.916 -33.4473 117.871 -29.541 122.9 -29.541 Z"/>
  </g>
  <g id="Regular-L" transform="matrix(1 0 0 1 1348.31 1556)">
   <path d="M 11.2793 -2.44141 C 11.2793 11.8652 20.6055 21.1914 34.5703 21.1914 C 41.6504 21.1914 48.6816 18.1152 53.8574 11.7188 L 65.4785 -2.34375 C 67.1387 -4.3457 68.9941 -5.27344 70.9961 -5.27344 L 132.08 -5.27344 C 134.082 -5.27344 135.938 -4.3457 137.598 -2.34375 L 149.17 11.7188 C 154.395 18.1152 161.426 21.1914 168.506 21.1914 C 182.471 21.1914 191.797 11.8652 191.797 -2.44141 C 191.797 -8.59375 190.332 -15.7227 187.891 -23.9258 C 184.033 -36.8164 177.295 -54.3457 170.801 -68.0664 C 165.479 -79.1992 162.793 -84.082 149.854 -87.0117 C 137.793 -89.7949 121.289 -91.5527 101.514 -91.5527 C 81.7871 -91.5527 65.2832 -89.7949 53.2227 -87.0117 C 40.2832 -84.082 37.5977 -79.1992 32.2754 -68.0664 C 25.7812 -54.3457 19.043 -36.8164 15.1855 -23.9258 C 12.7441 -15.7227 11.2793 -8.59375 11.2793 -2.44141 Z M 19.5312 -2.05078 C 19.5312 -6.05469 20.4102 -10.9375 22.6562 -18.6035 C 26.6602 -32.4707 33.8867 -51.0254 40.332 -65.1855 C 43.457 -71.9727 45.3613 -76.3672 53.9551 -78.3691 C 65.5273 -81.1035 81.9336 -82.9102 101.514 -82.9102 C 121.143 -82.9102 137.549 -81.1035 149.072 -78.3691 C 157.715 -76.3672 159.57 -71.9727 162.744 -65.1855 C 169.287 -51.0254 176.27 -32.4219 180.42 -18.6035 C 182.715 -10.9375 183.545 -6.05469 183.545 -2.05078 C 183.545 7.03125 177.246 12.8418 168.604 12.8418 C 163.672 12.8418 158.838 10.2539 154.98 5.61523 L 143.164 -8.69141 C 140.234 -12.2559 137.695 -13.9648 132.373 -13.9648 L 70.7031 -13.9648 C 65.3809 -13.9648 62.8418 -12.2559 59.9121 -8.69141 L 48.0957 5.61523 C 44.2383 10.2539 39.4043 12.8418 34.4727 12.8418 C 25.8301 12.8418 19.5312 7.03125 19.5312 -2.05078 Z M 50.8789 -47.9004 C 50.8789 -45.1172 52.5391 -43.4082 55.3223 -43.4082 L 67.7734 -43.4082 L 67.7734 -30.957 C 67.7734 -28.2227 69.3848 -26.5137 72.0703 -26.5137 C 74.707 -26.5137 76.3184 -28.2227 76.3184 -30.957 L 76.3184 -43.4082 L 88.2812 -43.4082 C 91.2598 -43.4082 93.0176 -45.1172 93.0176 -47.9004 C 93.0176 -50.5371 91.2598 -52.2461 88.2812 -52.2461 L 76.3184 -52.2461 L 76.3184 -64.6484 C 76.3184 -67.3828 74.707 -69.0918 72.0703 -69.0918 C 69.3848 -69.0918 67.7734 -67.3828 67.7734 -64.6484 L 67.7734 -52.2461 L 55.3223 -52.2461 C 52.5391 -52.2461 50.8789 -50.5371 50.8789 -47.9004 Z M 140.576 -49.0234 C 145.508 -49.0234 149.316 -52.7832 149.316 -57.7148 C 149.316 -62.6465 145.508 -66.4551 140.576 -66.4551 C 135.693 -66.4551 131.885 -62.6465 131.885 -57.7148 C 131.885 -52.7832 135.693 -49.0234 140.576 -49.0234 Z M 121.631 -30.2246 C 126.562 -30.2246 130.371 -33.9844 130.371 -38.916 C 130.371 -43.8477 126.562 -47.6562 121.631 -47.6562 C 116.748 -47.6562 112.939 -43.8477 112.939 -38.916 C 112.939 -33.9844 116.748 -30.2246 121.631 -30.2246 Z"/>
  </g>
  <g id="Light-L" transform="matrix(1 0 0 1 1052.55 1556)">
   <path d="M 11.2793 -2.44141 C 11.2793 11.2793 20.2148 20.2637 33.5938 20.2637 C 40.332 20.2637 47.0703 17.2852 52.1484 11.084 L 63.9648 -3.22266 C 65.7227 -5.37109 67.5781 -6.29883 69.6777 -6.29883 L 131.494 -6.29883 C 133.594 -6.29883 135.449 -5.37109 137.207 -3.22266 L 149.023 11.084 C 154.102 17.2852 160.84 20.2637 167.627 20.2637 C 180.957 20.2637 189.893 11.2793 189.893 -2.44141 C 189.893 -8.39844 188.428 -15.332 185.938 -23.6328 C 182.08 -36.5234 175.391 -54.0039 168.799 -67.9199 C 163.623 -78.7598 161.084 -83.2031 148.633 -86.0352 C 136.377 -88.8672 119.824 -90.5273 100.586 -90.5273 C 81.3477 -90.5273 64.7949 -88.8672 52.5391 -86.0352 C 40.0879 -83.2031 37.5488 -78.7598 32.4219 -67.9199 C 25.7812 -54.0039 19.0918 -36.5234 15.2344 -23.6328 C 12.793 -15.332 11.2793 -8.39844 11.2793 -2.44141 Z M 17.627 -2.05078 C 17.627 -6.10352 18.457 -11.0352 21.0449 -19.8242 C 24.8047 -32.8613 31.8848 -51.123 38.4766 -65.625 C 41.6504 -72.4609 43.75 -77.2949 53.0273 -79.4434 C 64.7949 -82.1777 81.3477 -83.9355 100.586 -83.9355 C 119.824 -83.9355 136.426 -82.1777 148.193 -79.4434 C 157.422 -77.2461 159.521 -72.4609 162.695 -65.625 C 169.385 -51.123 176.27 -32.8125 180.127 -19.8242 C 182.764 -11.0352 183.545 -6.10352 183.545 -2.05078 C 183.545 7.56836 176.953 13.8184 167.676 13.8184 C 162.5 13.8184 157.422 11.1328 153.369 6.25 L 141.504 -8.05664 C 138.721 -11.4258 136.182 -12.9395 131.592 -12.9395 L 69.5801 -12.9395 C 64.9902 -12.9395 62.5 -11.4258 59.668 -8.05664 L 47.8027 6.25 C 43.75 11.1328 38.7207 13.8184 33.5449 13.8184 C 24.2188 13.8184 17.627 7.56836 17.627 -2.05078 Z M 50.3418 -47.9004 C 50.3418 -45.8496 51.6602 -44.5312 53.7598 -44.5312 L 67.8223 -44.5312 L 67.8223 -30.1758 C 67.8223 -28.0762 69.0918 -26.7578 71.0938 -26.7578 C 73.0957 -26.7578 74.3652 -28.0762 74.3652 -30.1758 L 74.3652 -44.5312 L 88.1348 -44.5312 C 90.332 -44.5312 91.6992 -45.8496 91.6992 -47.9004 C 91.6992 -49.9023 90.332 -51.2695 88.1348 -51.2695 L 74.3652 -51.2695 L 74.3652 -65.5762 C 74.3652 -67.627 73.0957 -68.9941 71.0938 -68.9941 C 69.0918 -68.9941 67.8223 -67.627 67.8223 -65.5762 L 67.8223 -51.2695 L 53.7598 -51.2695 C 51.6602 -51.2695 50.3418 -49.9023 50.3418 -47.9004 Z M 139.453 -49.5117 C 144.141 -49.5117 147.705 -53.0762 147.705 -57.7148 C 147.705 -62.4023 144.141 -65.9668 139.453 -65.9668 C 134.863 -65.9668 131.201 -62.4023 131.201 -57.7148 C 131.201 -53.0762 134.863 -49.5117 139.453 -49.5117 Z M 119.971 -30.5176 C 124.609 -30.5176 128.223 -34.082 128.223 -38.7207 C 128.223 -43.4082 124.609 -47.0215 119.971 -47.0215 C 115.381 -47.0215 111.719 -43.4082 111.719 -38.7207 C 111.719 -34.082 115.381 -30.5176 119.971 -30.5176 Z"/>
  </g>
  <g id="Thin-L" transform="matrix(1 0 0 1 757.081 1556)">
   <path d="M 11.2793 -2.44141 C 11.2793 10.4492 19.6777 19.043 32.2754 19.043 C 38.623 19.043 44.9707 16.1621 49.8535 10.2539 L 61.9629 -4.44336 C 63.8672 -6.73828 65.6738 -7.66602 67.9688 -7.66602 L 130.762 -7.66602 C 133.008 -7.66602 134.814 -6.73828 136.719 -4.44336 L 148.828 10.2539 C 153.711 16.1621 160.107 19.043 166.406 19.043 C 179.004 19.043 187.402 10.4492 187.402 -2.44141 C 187.402 -8.1543 185.889 -14.8926 183.398 -23.2422 C 179.541 -36.1816 172.852 -53.5645 166.162 -67.7246 C 161.182 -78.125 158.789 -82.0801 147.07 -84.7656 C 134.521 -87.6465 117.871 -89.209 99.3652 -89.209 C 80.8105 -89.209 64.209 -87.6465 51.6602 -84.7656 C 39.8926 -82.0801 37.5 -78.125 32.5684 -67.7246 C 25.8301 -53.5645 19.1406 -36.1816 15.2832 -23.2422 C 12.793 -14.8926 11.2793 -8.1543 11.2793 -2.44141 Z M 15.1367 -2.05078 C 15.1367 -6.15234 15.918 -11.1816 18.8965 -21.4844 C 22.3633 -33.3496 29.248 -51.2207 36.0352 -66.1621 C 39.2578 -73.1445 41.6504 -78.5156 51.7578 -80.8105 C 63.7207 -83.6426 80.6152 -85.2539 99.3652 -85.2539 C 118.066 -85.2539 134.961 -83.6426 146.973 -80.8105 C 157.031 -78.4668 159.424 -73.1445 162.646 -66.1621 C 169.531 -51.2207 176.318 -33.3496 179.785 -21.4844 C 182.812 -11.1816 183.545 -6.15234 183.545 -2.05078 C 183.545 8.30078 176.611 15.1367 166.406 15.1367 C 160.938 15.1367 155.566 12.3535 151.221 7.12891 L 139.307 -7.17773 C 136.719 -10.3027 134.18 -11.5723 130.566 -11.5723 L 68.1152 -11.5723 C 64.502 -11.5723 62.0117 -10.3027 59.375 -7.17773 L 47.4609 7.12891 C 43.1152 12.3535 37.7441 15.1367 32.2754 15.1367 C 22.0703 15.1367 15.1367 8.30078 15.1367 -2.05078 Z M 49.6582 -47.9492 C 49.6582 -46.8262 50.4883 -45.9961 51.709 -45.9961 L 67.8711 -45.9961 L 67.8711 -29.1016 C 67.8711 -27.9297 68.7012 -27.0508 69.8242 -27.0508 C 70.9473 -27.0508 71.7773 -27.9297 71.7773 -29.1016 L 71.7773 -45.9961 L 87.8906 -45.9961 C 89.1113 -45.9961 89.9902 -46.8262 89.9902 -47.9492 C 89.9902 -49.0723 89.1113 -49.9512 87.8906 -49.9512 L 71.7773 -49.9512 L 71.7773 -66.7969 C 71.7773 -67.9688 70.9473 -68.8477 69.8242 -68.8477 C 68.7012 -68.8477 67.8711 -67.9688 67.8711 -66.7969 L 67.8711 -49.9512 L 51.709 -49.9512 C 50.4883 -49.9512 49.6582 -49.0723 49.6582 -47.9492 Z M 137.988 -50.1465 C 142.285 -50.1465 145.654 -53.418 145.654 -57.7148 C 145.654 -62.0605 142.285 -65.332 137.988 -65.332 C 133.74 -65.332 130.371 -62.0605 130.371 -57.7148 C 130.371 -53.418 133.74 -50.1465 137.988 -50.1465 Z M 117.773 -30.9082 C 122.07 -30.9082 125.439 -34.1797 125.439 -38.4766 C 125.439 -42.8223 122.07 -46.1426 117.773 -46.1426 C 113.525 -46.1426 110.156 -42.8223 110.156 -38.4766 C 110.156 -34.1797 113.525 -30.9082 117.773 -30.9082 Z"/>
  </g>
  <g id="Ultralight-L" transform="matrix(1 0 0 1 461.005 1556)">
   <path d="M 11.2793 -2.44141 C 11.2793 10.0586 19.4336 18.4082 31.6406 18.4082 C 37.6953 18.4082 43.8965 15.625 48.6816 9.81445 L 60.9863 -5.07812 C 62.9395 -7.4707 64.6973 -8.34961 67.041 -8.34961 L 130.371 -8.34961 C 132.715 -8.34961 134.473 -7.4707 136.426 -5.07812 L 148.73 9.81445 C 153.516 15.625 159.717 18.4082 165.771 18.4082 C 177.979 18.4082 186.133 10.0586 186.133 -2.44141 C 186.133 -8.00781 184.619 -14.6484 182.129 -23.0469 C 178.223 -35.9863 171.582 -53.3203 164.795 -67.627 C 159.912 -77.832 157.666 -81.4453 146.24 -84.082 C 133.545 -87.0117 116.846 -88.4766 98.7305 -88.4766 C 80.5664 -88.4766 63.8672 -87.0117 51.1719 -84.082 C 39.7949 -81.4453 37.5 -77.832 32.6172 -67.627 C 25.8301 -53.3203 19.1895 -35.9863 15.332 -23.0469 C 12.793 -14.6484 11.2793 -8.00781 11.2793 -2.44141 Z M 13.8672 -2.05078 C 13.8672 -6.15234 14.5996 -11.2793 17.8223 -22.3145 C 21.1426 -33.6426 27.9297 -51.3184 34.8145 -66.4551 C 38.0371 -73.4863 40.5762 -79.1504 51.0742 -81.543 C 63.2324 -84.375 80.2734 -85.9375 98.7305 -85.9375 C 117.139 -85.9375 134.18 -84.375 146.338 -81.543 C 156.836 -79.0527 159.375 -73.4863 162.598 -66.4551 C 169.58 -51.3184 176.318 -33.6426 179.59 -22.3145 C 182.812 -11.2793 183.545 -6.15234 183.545 -2.05078 C 183.545 8.64258 176.465 15.7715 165.771 15.7715 C 160.156 15.7715 154.59 12.9395 150.098 7.56836 L 138.184 -6.73828 C 135.693 -9.76562 133.203 -10.8887 130.029 -10.8887 L 67.3828 -10.8887 C 64.209 -10.8887 61.7188 -9.76562 59.2285 -6.73828 L 47.3145 7.56836 C 42.8223 12.9395 37.2559 15.7715 31.6406 15.7715 C 20.9473 15.7715 13.8672 8.64258 13.8672 -2.05078 Z M 49.3164 -47.998 C 49.3164 -47.3145 49.9023 -46.7285 50.6836 -46.7285 L 67.9199 -46.7285 L 67.9199 -28.5645 C 67.9199 -27.832 68.5059 -27.2461 69.1895 -27.2461 C 69.873 -27.2461 70.459 -27.832 70.459 -28.5645 L 70.459 -46.7285 L 87.793 -46.7285 C 88.5254 -46.7285 89.1113 -47.3145 89.1113 -47.998 C 89.1113 -48.6328 88.5254 -49.2676 87.793 -49.2676 L 70.459 -49.2676 L 70.459 -67.4316 C 70.459 -68.1641 69.873 -68.75 69.1895 -68.75 C 68.5059 -68.75 67.9199 -68.1641 67.9199 -67.4316 L 67.9199 -49.2676 L 50.6836 -49.2676 C 49.9023 -49.2676 49.3164 -48.6328 49.3164 -47.998 Z M 137.256 -50.4883 C 141.357 -50.4883 144.58 -53.6133 144.58 -57.7148 C 144.58 -61.8652 141.357 -65.0391 137.256 -65.0391 C 133.154 -65.0391 129.932 -61.8652 129.932 -57.7148 C 129.932 -53.6133 133.154 -50.4883 137.256 -50.4883 Z M 116.65 -31.1035 C 120.752 -31.1035 123.975 -34.2773 123.975 -38.3301 C 123.975 -42.5293 120.752 -45.6543 116.65 -45.6543 C 112.549 -45.6543 109.326 -42.5293 109.326 -38.3301 C 109.326 -34.2773 112.549 -31.1035 116.65 -31.1035 Z"/>
  </g>
  <g id="Black-M" transform="matrix(1 0 0 1 2848.19 1126)">
   <path d="M 8.74023 -7.91016 C 8.74023 6.15234 18.2129 13.7695 30.1758 13.7695 C 40.0879 13.7695 46.875 9.7168 52.4414 4.54102 L 60.3516 -2.63672 C 61.5234 -3.71094 61.8652 -4.15039 63.623 -4.15039 L 106.787 -4.15039 C 108.545 -4.15039 108.887 -3.71094 110.107 -2.63672 L 117.969 4.54102 C 123.633 9.66797 130.322 13.7695 140.283 13.7695 C 152.246 13.7695 161.67 6.15234 161.67 -7.91016 C 161.67 -14.1602 160.645 -20.9473 158.496 -27.9785 C 155.371 -38.4277 150.098 -52.2461 145.166 -62.5977 C 140.82 -71.6797 137.646 -77.7344 125.146 -80.5176 C 114.697 -82.9102 101.123 -84.2285 85.2051 -84.2285 C 69.3359 -84.2285 55.7129 -82.9102 45.2637 -80.5176 C 32.7637 -77.7344 29.6387 -71.6797 25.2441 -62.5977 C 20.3613 -52.2461 15.0391 -38.4277 11.9141 -27.9785 C 9.81445 -20.9473 8.74023 -14.1602 8.74023 -7.91016 Z M 25.6348 -9.7168 C 25.6348 -12.207 26.1719 -15.0879 27.4902 -19.5801 C 30.9082 -31.2988 36.4746 -45.8008 41.3086 -56.2012 C 43.5059 -60.9375 44.7754 -62.5977 47.998 -63.3789 C 57.5684 -65.7227 70.0684 -66.8457 85.2051 -66.8457 C 100.342 -66.8457 112.891 -65.7227 122.412 -63.3789 C 125.684 -62.5977 126.904 -60.9375 129.102 -56.2012 C 133.887 -45.8008 139.502 -31.2988 142.92 -19.5801 C 144.238 -15.0879 144.775 -12.207 144.775 -9.7168 C 144.775 -5.66406 141.943 -3.51562 138.428 -3.51562 C 135.889 -3.51562 133.008 -4.6875 130.469 -6.98242 L 117.871 -18.3594 C 115.283 -20.752 113.379 -21.5332 110.498 -21.5332 L 59.9121 -21.5332 C 57.0801 -21.5332 55.127 -20.752 52.5879 -18.3594 L 39.9414 -6.98242 C 37.4512 -4.63867 34.5703 -3.51562 32.0312 -3.51562 C 28.4668 -3.51562 25.6348 -5.66406 25.6348 -9.7168 Z M 43.7988 -43.4082 C 43.7988 -39.7461 46.2891 -37.3535 50.0488 -37.3535 L 55.6641 -37.3535 L 55.6641 -32.1777 C 55.6641 -28.3203 58.252 -25.6836 62.0605 -25.6836 C 65.918 -25.6836 68.5059 -28.3203 68.5059 -32.1777 L 68.5059 -37.3535 L 73.7305 -37.3535 C 77.7344 -37.3535 80.3711 -39.7461 80.3711 -43.4082 C 80.3711 -47.0215 77.7344 -49.4141 73.7305 -49.4141 L 68.5059 -49.4141 L 68.5059 -54.5898 C 68.5059 -58.4961 65.918 -61.1328 62.0605 -61.1328 C 58.252 -61.1328 55.6641 -58.4961 55.6641 -54.5898 L 55.6641 -49.4141 L 50.0488 -49.4141 C 46.2891 -49.4141 43.7988 -47.0215 43.7988 -43.4082 Z M 116.406 -43.0664 C 120.996 -43.0664 124.561 -46.582 124.561 -51.1719 C 124.561 -55.8105 120.996 -59.375 116.406 -59.375 C 111.816 -59.375 108.203 -55.8105 108.203 -51.1719 C 108.203 -46.582 111.816 -43.0664 116.406 -43.0664 Z M 101.172 -27.3926 C 105.762 -27.3926 109.326 -30.957 109.326 -35.498 C 109.326 -40.1367 105.762 -43.7012 101.172 -43.7012 C 96.582 -43.7012 92.9688 -40.1367 92.9688 -35.498 C 92.9688 -30.957 96.582 -27.3926 101.172 -27.3926 Z"/>
  </g>
  <g id="Heavy-M" transform="matrix(1 0 0 1 2552.9 1126)">
   <path d="M 8.74023 -8.34961 C 8.74023 5.07812 17.7246 12.6465 29.4922 12.6465 C 38.4277 12.6465 44.9219 8.98438 50.1465 3.85742 L 58.252 -4.19922 C 59.4727 -5.37109 60.1074 -5.85938 61.7676 -5.85938 L 105.811 -5.85938 C 107.52 -5.85938 108.105 -5.37109 109.326 -4.19922 L 117.432 3.85742 C 122.754 8.93555 129.15 12.6465 138.086 12.6465 C 149.902 12.6465 158.838 5.07812 158.838 -8.34961 C 158.838 -14.3066 157.764 -20.8008 155.713 -27.6855 C 152.637 -37.9883 147.363 -51.7578 142.383 -62.1582 C 138.086 -71.1914 135.156 -76.7578 123.193 -79.4434 C 113.037 -81.7383 99.6094 -83.1055 83.7891 -83.1055 C 67.9688 -83.1055 54.5898 -81.7383 44.4336 -79.4434 C 32.4219 -76.7578 29.541 -71.1914 25.1953 -62.1582 C 20.2637 -51.7578 14.9902 -37.9883 11.8652 -27.6855 C 9.81445 -20.8008 8.74023 -14.3066 8.74023 -8.34961 Z M 23.3887 -9.66797 C 23.3887 -12.3047 24.0234 -15.3809 25.3906 -20.0684 C 28.7598 -31.6895 34.3262 -46.1914 39.209 -56.6895 C 41.4551 -61.5234 42.7246 -63.5254 46.6797 -64.502 C 56.0547 -66.748 68.6035 -67.9688 83.7891 -67.9688 C 99.0234 -67.9688 111.523 -66.748 120.947 -64.502 C 124.902 -63.5254 126.172 -61.5234 128.418 -56.6895 C 133.252 -46.1914 138.818 -31.6406 142.236 -20.0684 C 143.604 -15.3809 144.189 -12.3047 144.189 -9.66797 C 144.189 -4.98047 140.918 -2.34375 136.719 -2.34375 C 133.887 -2.34375 130.859 -3.71094 128.223 -6.25 L 116.455 -17.5781 C 113.916 -20.0684 112.012 -20.9961 108.74 -20.9961 L 58.8867 -20.9961 C 55.6152 -20.9961 53.6621 -20.0684 51.1719 -17.5781 L 39.3555 -6.25 C 36.7676 -3.66211 33.6914 -2.34375 30.9082 -2.34375 C 26.709 -2.34375 23.3887 -4.98047 23.3887 -9.66797 Z M 42.8223 -43.75 C 42.8223 -40.3809 45.1172 -38.2324 48.584 -38.2324 L 54.9316 -38.2324 L 54.9316 -32.2266 C 54.9316 -28.6621 57.2266 -26.3184 60.7422 -26.3184 C 64.209 -26.3184 66.5527 -28.6621 66.5527 -32.2266 L 66.5527 -38.2324 L 72.5098 -38.2324 C 76.2207 -38.2324 78.6133 -40.3809 78.6133 -43.75 C 78.6133 -47.1191 76.2207 -49.3164 72.5098 -49.3164 L 66.5527 -49.3164 L 66.5527 -55.2734 C 66.5527 -58.8379 64.209 -61.2305 60.7422 -61.2305 C 57.2266 -61.2305 54.9316 -58.8379 54.9316 -55.2734 L 54.9316 -49.3164 L 48.584 -49.3164 C 45.1172 -49.3164 42.8223 -47.1191 42.8223 -43.75 Z M 114.795 -43.6523 C 119.238 -43.6523 122.705 -47.0703 122.705 -51.5137 C 122.705 -56.0059 119.238 -59.4238 114.795 -59.4238 C 110.352 -59.4238 106.885 -56.0059 106.885 -51.5137 C 106.885 -47.0703 110.352 -43.6523 114.795 -43.6523 Z M 99.7559 -28.2715 C 104.199 -28.2715 107.666 -31.7383 107.666 -36.1328 C 107.666 -40.625 104.199 -44.043 99.7559 -44.043 C 95.3613 -44.043 91.8457 -40.625 91.8457 -36.1328 C 91.8457 -31.7383 95.3613 -28.2715 99.7559 -28.2715 Z"/>
  </g>
  <g id="Bold-M" transform="matrix(1 0 0 1 2257.75 1126)">
   <path d="M 8.74023 -8.88672 C 8.74023 3.90625 17.1875 11.4258 28.7598 11.4258 C 36.5723 11.4258 42.7246 8.1543 47.6074 3.02734 L 55.957 -5.9082 C 57.1777 -7.22656 58.1055 -7.8125 59.7168 -7.8125 L 104.736 -7.8125 C 106.348 -7.8125 107.275 -7.22656 108.496 -5.9082 L 116.846 3.02734 C 121.729 8.10547 127.881 11.4258 135.693 11.4258 C 147.266 11.4258 155.713 3.90625 155.713 -8.88672 C 155.713 -14.4531 154.59 -20.6055 152.588 -27.2949 C 149.561 -37.5 144.287 -51.2207 139.307 -61.6699 C 135.059 -70.6543 132.422 -75.6348 120.996 -78.2227 C 111.182 -80.4688 97.998 -81.8359 82.2266 -81.8359 C 66.4551 -81.8359 53.2715 -80.4688 43.457 -78.2227 C 32.0312 -75.6348 29.3945 -70.6543 25.0977 -61.6699 C 20.166 -51.2207 14.8926 -37.5 11.8652 -27.2949 C 9.81445 -20.6055 8.74023 -14.4531 8.74023 -8.88672 Z M 20.9473 -9.61914 C 20.9473 -12.4023 21.5332 -15.7227 22.998 -20.6055 C 26.3184 -32.0801 31.9336 -46.6309 36.8164 -57.2266 C 39.1113 -62.207 40.4297 -64.5996 45.166 -65.7227 C 54.3945 -67.9199 66.9434 -69.1895 82.2266 -69.1895 C 97.5098 -69.1895 110.059 -67.9199 119.238 -65.7227 C 124.023 -64.5996 125.293 -62.207 127.637 -57.2266 C 132.52 -46.6309 138.037 -32.0801 141.455 -20.6055 C 142.92 -15.7227 143.506 -12.4023 143.506 -9.61914 C 143.506 -4.19922 139.746 -1.02539 134.814 -1.02539 C 131.689 -1.02539 128.467 -2.58789 125.732 -5.46875 L 114.844 -16.6992 C 112.402 -19.2871 110.449 -20.4102 106.738 -20.4102 L 57.666 -20.4102 C 53.9551 -20.4102 52.002 -19.2871 49.5605 -16.6992 L 38.6719 -5.46875 C 36.0352 -2.53906 32.7637 -1.02539 29.6387 -1.02539 C 24.707 -1.02539 20.9473 -4.19922 20.9473 -9.61914 Z M 41.748 -44.1895 C 41.748 -41.1133 43.75 -39.1602 46.9238 -39.1602 L 54.1016 -39.1602 L 54.1016 -32.2754 C 54.1016 -29.1016 56.1035 -27.002 59.2285 -27.002 C 62.3535 -27.002 64.3555 -29.1016 64.3555 -32.2754 L 64.3555 -39.1602 L 71.1426 -39.1602 C 74.5117 -39.1602 76.6113 -41.1133 76.6113 -44.1895 C 76.6113 -47.2168 74.5117 -49.2188 71.1426 -49.2188 L 64.3555 -49.2188 L 64.3555 -56.0547 C 64.3555 -59.2285 62.3535 -61.3281 59.2285 -61.3281 C 56.1035 -61.3281 54.1016 -59.2285 54.1016 -56.0547 L 54.1016 -49.2188 L 46.9238 -49.2188 C 43.75 -49.2188 41.748 -47.2168 41.748 -44.1895 Z M 112.988 -44.3359 C 117.285 -44.3359 120.605 -47.6074 120.605 -51.9043 C 120.605 -56.2012 117.285 -59.5215 112.988 -59.5215 C 108.74 -59.5215 105.371 -56.2012 105.371 -51.9043 C 105.371 -47.6074 108.74 -44.3359 112.988 -44.3359 Z M 98.1934 -29.2969 C 102.49 -29.2969 105.762 -32.5684 105.762 -36.8652 C 105.762 -41.1621 102.49 -44.4824 98.1934 -44.4824 C 93.9453 -44.4824 90.5762 -41.1621 90.5762 -36.8652 C 90.5762 -32.5684 93.9453 -29.2969 98.1934 -29.2969 Z"/>
  </g>
  <g id="Semibold-M" transform="matrix(1 0 0 1 1962.14 1126)">
   <path d="M 8.74023 -9.22852 C 8.74023 3.07617 16.8457 10.5469 28.2227 10.5469 C 35.2539 10.5469 41.2598 7.56836 45.8496 2.49023 L 54.3457 -7.12891 C 55.6152 -8.49609 56.6895 -9.13086 58.252 -9.13086 L 104.004 -9.13086 C 105.566 -9.13086 106.641 -8.49609 107.91 -7.12891 L 116.406 2.49023 C 121.045 7.56836 127.002 10.5469 134.033 10.5469 C 145.459 10.5469 153.516 3.07617 153.516 -9.22852 C 153.516 -14.502 152.393 -20.5078 150.439 -27.0508 C 147.412 -37.207 142.188 -50.8789 137.207 -61.3281 C 132.959 -70.2637 130.469 -74.9023 119.482 -77.3926 C 109.863 -79.5898 96.8262 -80.957 81.1523 -80.957 C 65.4297 -80.957 52.3926 -79.5898 42.8223 -77.3926 C 31.7871 -74.9023 29.2969 -70.2637 25.0488 -61.3281 C 20.0684 -50.8789 14.8438 -37.207 11.8164 -27.0508 C 9.86328 -20.5078 8.74023 -14.502 8.74023 -9.22852 Z M 19.1895 -9.57031 C 19.1895 -12.4512 19.873 -15.918 21.3379 -20.9961 C 24.6582 -32.373 30.2734 -46.9238 35.2051 -57.5684 C 37.5 -62.6465 38.8184 -65.332 44.1406 -66.6016 C 53.2227 -68.75 65.8203 -70.0684 81.1523 -70.0684 C 96.4355 -70.0684 109.033 -68.75 118.115 -66.6016 C 123.438 -65.332 124.707 -62.6465 127.051 -57.5684 C 132.031 -46.9238 137.5 -32.3242 140.918 -20.9961 C 142.432 -15.918 143.066 -12.4512 143.066 -9.57031 C 143.066 -3.71094 138.916 -0.0976562 133.496 -0.0976562 C 130.176 -0.0976562 126.807 -1.85547 124.023 -4.88281 L 113.77 -16.1133 C 111.377 -18.7988 109.424 -20.0195 105.42 -20.0195 L 56.8359 -20.0195 C 52.8809 -20.0195 50.8789 -18.7988 48.4863 -16.1133 L 38.2324 -4.88281 C 35.498 -1.80664 32.0801 -0.0976562 28.7598 -0.0976562 C 23.3398 -0.0976562 19.1895 -3.71094 19.1895 -9.57031 Z M 41.0156 -44.4824 C 41.0156 -41.6016 42.8223 -39.7949 45.752 -39.7949 L 53.5156 -39.7949 L 53.5156 -32.3242 C 53.5156 -29.3945 55.3223 -27.4902 58.2031 -27.4902 C 61.0352 -27.4902 62.8418 -29.3945 62.8418 -32.3242 L 62.8418 -39.7949 L 70.166 -39.7949 C 73.3398 -39.7949 75.2441 -41.6016 75.2441 -44.4824 C 75.2441 -47.3145 73.3398 -49.1211 70.166 -49.1211 L 62.8418 -49.1211 L 62.8418 -56.5918 C 62.8418 -59.5215 61.0352 -61.4258 58.2031 -61.4258 C 55.3223 -61.4258 53.5156 -59.5215 53.5156 -56.5918 L 53.5156 -49.1211 L 45.752 -49.1211 C 42.8223 -49.1211 41.0156 -47.3145 41.0156 -44.4824 Z M 111.768 -44.8242 C 115.918 -44.8242 119.141 -47.998 119.141 -52.1973 C 119.141 -56.3477 115.918 -59.6191 111.768 -59.6191 C 107.617 -59.6191 104.346 -56.3477 104.346 -52.1973 C 104.346 -47.998 107.617 -44.8242 111.768 -44.8242 Z M 97.1191 -29.9805 C 101.27 -29.9805 104.492 -33.1543 104.492 -37.3047 C 104.492 -41.5039 101.27 -44.7266 97.1191 -44.7266 C 92.9688 -44.7266 89.6973 -41.5039 89.6973 -37.3047 C 89.6973 -33.1543 92.9688 -29.9805 97.1191 -29.9805 Z"/>
  </g>
  <g id="Medium-M" transform="matrix(1 0 0 1 1666.26 1126)">
   <path d="M 8.74023 -9.47266 C 8.74023 2.44141 16.5527 9.91211 27.832 9.91211 C 34.2773 9.91211 40.0879 7.12891 44.4824 2.09961 L 53.1738 -8.00781 C 54.3945 -9.47266 55.6641 -10.1074 57.1777 -10.1074 L 103.418 -10.1074 C 104.932 -10.1074 106.201 -9.47266 107.422 -8.00781 L 116.113 2.09961 C 120.508 7.12891 126.318 9.91211 132.764 9.91211 C 144.043 9.91211 151.855 2.44141 151.855 -9.47266 C 151.855 -14.5996 150.732 -20.4102 148.828 -26.8555 C 145.801 -36.9629 140.576 -50.5859 135.596 -61.084 C 131.348 -69.9707 129.053 -74.3164 118.311 -76.7578 C 108.887 -78.9062 95.9961 -80.3223 80.3223 -80.3223 C 64.6484 -80.3223 51.709 -78.9062 42.2852 -76.7578 C 31.5918 -74.3164 29.248 -69.9707 25 -61.084 C 20.0195 -50.5859 14.7949 -36.9629 11.7676 -26.8555 C 9.86328 -20.4102 8.74023 -14.5996 8.74023 -9.47266 Z M 17.9199 -9.57031 C 17.9199 -12.5488 18.6035 -16.1133 20.1172 -21.2891 C 23.3887 -32.5684 29.0527 -47.1191 33.9355 -57.8613 C 36.2793 -62.9883 37.6465 -65.8691 43.4082 -67.2363 C 52.3926 -69.3359 64.9414 -70.752 80.3223 -70.752 C 95.6543 -70.752 108.252 -69.3359 117.236 -67.2363 C 122.998 -65.8691 124.268 -62.9883 126.66 -57.8613 C 131.641 -47.1191 137.109 -32.5684 140.527 -21.2891 C 142.041 -16.1133 142.676 -12.5488 142.676 -9.57031 C 142.676 -3.27148 138.281 0.585938 132.52 0.585938 C 129.004 0.585938 125.537 -1.26953 122.754 -4.49219 L 112.939 -15.625 C 110.547 -18.4082 108.594 -19.7266 104.395 -19.7266 L 56.25 -19.7266 C 52.002 -19.7266 50.0488 -18.4082 47.6562 -15.625 L 37.8906 -4.49219 C 35.1074 -1.26953 31.5918 0.585938 28.125 0.585938 C 22.3145 0.585938 17.9199 -3.27148 17.9199 -9.57031 Z M 40.4297 -44.7266 C 40.4297 -41.9922 42.1387 -40.2832 44.873 -40.2832 L 53.0762 -40.2832 L 53.0762 -32.3242 C 53.0762 -29.5898 54.7363 -27.832 57.4219 -27.832 C 60.0586 -27.832 61.7188 -29.5898 61.7188 -32.3242 L 61.7188 -40.2832 L 69.4336 -40.2832 C 72.4121 -40.2832 74.2188 -41.9922 74.2188 -44.7266 C 74.2188 -47.3633 72.4121 -49.0723 69.4336 -49.0723 L 61.7188 -49.0723 L 61.7188 -56.9824 C 61.7188 -59.7168 60.0586 -61.4746 57.4219 -61.4746 C 54.7363 -61.4746 53.0762 -59.7168 53.0762 -56.9824 L 53.0762 -49.0723 L 44.873 -49.0723 C 42.1387 -49.0723 40.4297 -47.3633 40.4297 -44.7266 Z M 110.791 -45.166 C 114.893 -45.166 118.018 -48.291 118.018 -52.3926 C 118.018 -56.4941 114.893 -59.668 110.791 -59.668 C 106.787 -59.668 103.564 -56.4941 103.564 -52.3926 C 103.564 -48.291 106.787 -45.166 110.791 -45.166 Z M 96.2891 -30.5176 C 100.391 -30.5176 103.516 -33.6426 103.516 -37.6953 C 103.516 -41.7969 100.391 -44.9707 96.2891 -44.9707 C 92.2363 -44.9707 89.0625 -41.7969 89.0625 -37.6953 C 89.0625 -33.6426 92.2363 -30.5176 96.2891 -30.5176 Z"/>
  </g>
  <g id="Regular-M" transform="matrix(1 0 0 1 1370.62 1126)">
   <path d="M 8.74023 -9.81445 C 8.74023 1.61133 16.1621 9.0332 27.3438 9.0332 C 33.0078 9.0332 38.623 6.5918 42.7246 1.51367 L 51.5625 -9.17969 C 52.832 -10.6934 54.2969 -11.4258 55.7617 -11.4258 L 102.686 -11.4258 C 104.15 -11.4258 105.615 -10.6934 106.885 -9.17969 L 115.723 1.51367 C 119.824 6.5918 125.439 9.0332 131.104 9.0332 C 142.285 9.0332 149.707 1.61133 149.707 -9.81445 C 149.707 -14.6973 148.584 -20.3125 146.68 -26.6113 C 143.701 -36.6211 138.477 -50.2441 133.496 -60.791 C 129.297 -69.5801 127.148 -73.584 116.797 -75.9277 C 107.617 -78.0273 94.873 -79.4434 79.248 -79.4434 C 63.623 -79.4434 50.8301 -78.0273 41.6504 -75.9277 C 31.2988 -73.584 29.1504 -69.5801 24.9512 -60.791 C 19.9707 -50.2441 14.7461 -36.6211 11.7676 -26.6113 C 9.86328 -20.3125 8.74023 -14.6973 8.74023 -9.81445 Z M 16.2109 -9.52148 C 16.2109 -12.5977 16.8945 -16.3086 18.457 -21.6309 C 21.7285 -32.8613 27.3926 -47.4121 32.3242 -58.2031 C 34.7168 -63.4277 36.0352 -66.6016 42.3828 -68.0664 C 51.2207 -70.166 63.8184 -71.582 79.248 -71.582 C 94.6289 -71.582 107.227 -70.166 116.064 -68.0664 C 122.412 -66.6016 123.682 -63.4277 126.123 -58.2031 C 131.152 -47.4121 136.572 -32.8125 139.99 -21.6309 C 141.602 -16.3086 142.236 -12.5977 142.236 -9.52148 C 142.236 -2.7832 137.5 1.46484 131.201 1.46484 C 127.49 1.46484 123.877 -0.488281 121.045 -3.95508 L 111.865 -15.0391 C 109.521 -17.8711 107.568 -19.2871 103.027 -19.2871 L 55.4199 -19.2871 C 50.8789 -19.2871 48.9258 -17.8711 46.582 -15.0391 L 37.4023 -3.95508 C 34.5703 -0.488281 30.957 1.46484 27.2461 1.46484 C 20.9473 1.46484 16.2109 -2.7832 16.2109 -9.52148 Z M 39.6973 -45.0195 C 39.6973 -42.4805 41.2109 -40.918 43.75 -40.918 L 52.5391 -40.918 L 52.5391 -32.373 C 52.5391 -29.8828 53.9551 -28.3203 56.3965 -28.3203 C 58.7891 -28.3203 60.2539 -29.8828 60.2539 -32.373 L 60.2539 -40.918 L 68.5059 -40.918 C 71.2402 -40.918 72.8516 -42.4805 72.8516 -45.0195 C 72.8516 -47.4609 71.2402 -48.9746 68.5059 -48.9746 L 60.2539 -48.9746 L 60.2539 -57.5195 C 60.2539 -60.0098 58.7891 -61.5234 56.3965 -61.5234 C 53.9551 -61.5234 52.5391 -60.0098 52.5391 -57.5195 L 52.5391 -48.9746 L 43.75 -48.9746 C 41.2109 -48.9746 39.6973 -47.4609 39.6973 -45.0195 Z M 109.57 -45.6543 C 113.574 -45.6543 116.602 -48.6816 116.602 -52.6367 C 116.602 -56.6406 113.574 -59.7168 109.57 -59.7168 C 105.664 -59.7168 102.539 -56.6406 102.539 -52.6367 C 102.539 -48.6816 105.664 -45.6543 109.57 -45.6543 Z M 95.2148 -31.1523 C 99.1699 -31.1523 102.246 -34.2285 102.246 -38.1836 C 102.246 -42.1875 99.1699 -45.2637 95.2148 -45.2637 C 91.3086 -45.2637 88.1836 -42.1875 88.1836 -38.1836 C 88.1836 -34.2285 91.3086 -31.1523 95.2148 -31.1523 Z"/>
  </g>
  <g id="Light-M" transform="matrix(1 0 0 1 1074.76 1126)">
   <path d="M 8.74023 -9.81445 C 8.74023 1.07422 15.8203 8.20312 26.4648 8.20312 C 31.8359 8.20312 37.207 5.81055 41.2109 0.976562 L 50.2441 -10.0098 C 51.5625 -11.6211 53.0273 -12.3535 54.5898 -12.3535 L 102.148 -12.3535 C 103.76 -12.3535 105.176 -11.6211 106.494 -10.0098 L 115.576 0.976562 C 119.58 5.81055 124.902 8.20312 130.273 8.20312 C 140.918 8.20312 147.998 1.07422 147.998 -9.81445 C 147.998 -14.502 146.875 -19.9707 144.971 -26.3672 C 141.992 -36.377 136.768 -49.9023 131.689 -60.6445 C 127.637 -69.1406 125.586 -72.8027 115.723 -75.0488 C 106.348 -77.1973 93.5059 -78.5645 78.3691 -78.5645 C 63.2324 -78.5645 50.4395 -77.1973 41.0156 -75.0488 C 31.1523 -72.8027 29.1016 -69.1406 25.0488 -60.6445 C 19.9707 -49.9023 14.7949 -36.377 11.7676 -26.3672 C 9.91211 -19.9707 8.74023 -14.502 8.74023 -9.81445 Z M 14.502 -9.52148 C 14.502 -12.6465 15.1855 -16.4551 17.041 -22.7539 C 20.0684 -33.2031 25.6348 -47.5098 30.6641 -58.5938 C 33.1055 -63.8672 34.6191 -67.4316 41.5039 -68.9941 C 50.5371 -71.1426 63.3301 -72.5098 78.3691 -72.5098 C 93.457 -72.5098 106.201 -71.1426 115.234 -68.9941 C 122.119 -67.3828 123.633 -63.8672 126.123 -58.5938 C 131.25 -47.5098 136.621 -33.2031 139.746 -22.7539 C 141.602 -16.4551 142.236 -12.6465 142.236 -9.52148 C 142.236 -2.29492 137.256 2.34375 130.371 2.34375 C 126.465 2.34375 122.607 0.292969 119.58 -3.36914 L 110.4 -14.4531 C 108.154 -17.1387 106.201 -18.4082 102.344 -18.4082 L 54.4434 -18.4082 C 50.5371 -18.4082 48.584 -17.1387 46.3867 -14.4531 L 37.1582 -3.36914 C 34.1309 0.292969 30.3223 2.34375 26.416 2.34375 C 19.4824 2.34375 14.502 -2.29492 14.502 -9.52148 Z M 39.2578 -45.0195 C 39.2578 -43.1152 40.4297 -41.9434 42.3828 -41.9434 L 52.5391 -41.9434 L 52.5391 -31.6406 C 52.5391 -29.7363 53.7109 -28.5645 55.5176 -28.5645 C 57.373 -28.5645 58.4961 -29.7363 58.4961 -31.6406 L 58.4961 -41.9434 L 68.3594 -41.9434 C 70.4102 -41.9434 71.6797 -43.1152 71.6797 -45.0195 C 71.6797 -46.875 70.4102 -48.0957 68.3594 -48.0957 L 58.4961 -48.0957 L 58.4961 -58.3496 C 58.4961 -60.2539 57.373 -61.4258 55.5176 -61.4258 C 53.7109 -61.4258 52.5391 -60.2539 52.5391 -58.3496 L 52.5391 -48.0957 L 42.3828 -48.0957 C 40.4297 -48.0957 39.2578 -46.875 39.2578 -45.0195 Z M 108.594 -46.0938 C 112.305 -46.0938 115.186 -48.9258 115.186 -52.6367 C 115.186 -56.3965 112.305 -59.2773 108.594 -59.2773 C 104.883 -59.2773 102.002 -56.3965 102.002 -52.6367 C 102.002 -48.9258 104.883 -46.0938 108.594 -46.0938 Z M 93.7012 -31.4453 C 97.4609 -31.4453 100.342 -34.2773 100.342 -38.0371 C 100.342 -41.748 97.4609 -44.6289 93.7012 -44.6289 C 90.0391 -44.6289 87.1094 -41.748 87.1094 -38.0371 C 87.1094 -34.2773 90.0391 -31.4453 93.7012 -31.4453 Z"/>
  </g>
  <g id="Thin-M" transform="matrix(1 0 0 1 779.152 1126)">
   <path d="M 8.74023 -9.81445 C 8.74023 0.341797 15.3809 7.08008 25.293 7.08008 C 30.2734 7.08008 35.3027 4.83398 39.1113 0.195312 L 48.4863 -11.1328 C 49.9023 -12.8906 51.3184 -13.5742 53.0273 -13.5742 L 101.465 -13.5742 C 103.223 -13.5742 104.59 -12.8906 106.055 -11.1328 L 115.381 0.195312 C 119.238 4.83398 124.219 7.08008 129.199 7.08008 C 139.16 7.08008 145.801 0.341797 145.801 -9.81445 C 145.801 -14.3066 144.629 -19.5801 142.676 -26.0254 C 139.697 -36.0352 134.521 -49.5117 129.346 -60.4492 C 125.439 -68.6035 123.584 -71.7773 114.307 -73.877 C 104.639 -76.123 91.748 -77.3438 77.2461 -77.3438 C 62.7441 -77.3438 49.9023 -76.123 40.2344 -73.877 C 30.957 -71.7773 29.1016 -68.6035 25.1953 -60.4492 C 20.0195 -49.5117 14.8438 -36.0352 11.8164 -26.0254 C 9.91211 -19.5801 8.74023 -14.3066 8.74023 -9.81445 Z M 12.3047 -9.52148 C 12.3047 -12.6953 12.8906 -16.5527 15.1367 -24.2188 C 17.8711 -33.6914 23.2422 -47.6074 28.4668 -59.082 C 30.957 -64.4531 32.7637 -68.5059 40.3809 -70.2637 C 49.6094 -72.4121 62.6465 -73.7305 77.2461 -73.7305 C 91.8945 -73.7305 104.883 -72.4121 114.16 -70.2637 C 121.777 -68.457 123.584 -64.4531 126.074 -59.082 C 131.348 -47.6074 136.621 -33.6426 139.404 -24.2188 C 141.65 -16.5527 142.236 -12.6953 142.236 -9.52148 C 142.236 -1.66016 136.963 3.51562 129.248 3.51562 C 125.049 3.51562 120.947 1.36719 117.676 -2.58789 L 108.447 -13.6719 C 106.396 -16.1621 104.443 -17.1875 101.416 -17.1875 L 53.125 -17.1875 C 50.0977 -17.1875 48.1445 -16.1621 46.0938 -13.6719 L 36.8652 -2.58789 C 33.5449 1.36719 29.4434 3.51562 25.293 3.51562 C 17.5781 3.51562 12.3047 -1.66016 12.3047 -9.52148 Z M 38.623 -45.0684 C 38.623 -43.9941 39.4043 -43.2617 40.5273 -43.2617 L 52.5879 -43.2617 L 52.5879 -30.7129 C 52.5879 -29.5898 53.3203 -28.8086 54.3945 -28.8086 C 55.4688 -28.8086 56.2012 -29.5898 56.2012 -30.7129 L 56.2012 -43.2617 L 68.1641 -43.2617 C 69.3359 -43.2617 70.1172 -43.9941 70.1172 -45.0684 C 70.1172 -46.1426 69.3359 -46.9238 68.1641 -46.9238 L 56.2012 -46.9238 L 56.2012 -59.4238 C 56.2012 -60.5469 55.4688 -61.3281 54.3945 -61.3281 C 53.3203 -61.3281 52.5879 -60.5469 52.5879 -59.4238 L 52.5879 -46.9238 L 40.5273 -46.9238 C 39.4043 -46.9238 38.623 -46.1426 38.623 -45.0684 Z M 107.275 -46.6309 C 110.645 -46.6309 113.33 -49.2676 113.33 -52.6367 C 113.33 -56.1035 110.645 -58.6914 107.275 -58.6914 C 103.906 -58.6914 101.221 -56.1035 101.221 -52.6367 C 101.221 -49.2676 103.906 -46.6309 107.275 -46.6309 Z M 91.748 -31.7871 C 95.166 -31.7871 97.8027 -34.375 97.8027 -37.793 C 97.8027 -41.2598 95.166 -43.8477 91.748 -43.8477 C 88.3789 -43.8477 85.6934 -41.2598 85.6934 -37.793 C 85.6934 -34.375 88.3789 -31.7871 91.748 -31.7871 Z"/>
  </g>
  <g id="Ultralight-M" transform="matrix(1 0 0 1 483.027 1126)">
   <path d="M 8.74023 -9.81445 C 8.74023 0 15.1367 6.49414 24.707 6.49414 C 29.4922 6.49414 34.3262 4.3457 38.0859 -0.195312 L 47.5586 -11.6699 C 49.0723 -13.4766 50.4395 -14.1602 52.2461 -14.1602 L 101.123 -14.1602 C 102.93 -14.1602 104.346 -13.4766 105.811 -11.6699 L 115.283 -0.195312 C 119.043 4.3457 123.877 6.49414 128.662 6.49414 C 138.232 6.49414 144.629 0 144.629 -9.81445 C 144.629 -14.209 143.457 -19.3359 141.504 -25.8301 C 138.525 -35.8887 133.35 -49.3164 128.125 -60.3516 C 124.316 -68.3105 122.51 -71.2402 113.574 -73.291 C 103.76 -75.5371 90.8691 -76.709 76.709 -76.709 C 62.5 -76.709 49.6094 -75.5371 39.7949 -73.291 C 30.8594 -71.2402 29.0527 -68.3105 25.2441 -60.3516 C 20.0195 -49.3164 14.8438 -35.8887 11.8652 -25.8301 C 9.91211 -19.3359 8.74023 -14.209 8.74023 -9.81445 Z M 11.1328 -9.52148 C 11.1328 -12.6953 11.7188 -16.6504 14.1602 -25 C 16.748 -33.8867 22.0215 -47.6562 27.3438 -59.3262 C 29.834 -64.7461 31.7871 -69.0918 39.7949 -70.8984 C 49.1699 -73.0957 62.3047 -74.3164 76.709 -74.3164 C 91.0645 -74.3164 104.248 -73.0957 113.574 -70.8984 C 121.582 -69.043 123.535 -64.7461 126.025 -59.3262 C 131.396 -47.6562 136.621 -33.8867 139.258 -25 C 141.699 -16.6504 142.236 -12.6953 142.236 -9.52148 C 142.236 -1.31836 136.816 4.10156 128.662 4.10156 C 124.365 4.10156 120.117 1.95312 116.65 -2.19727 L 107.422 -13.2812 C 105.469 -15.6738 103.516 -16.5527 100.928 -16.5527 L 52.4414 -16.5527 C 49.8535 -16.5527 47.9004 -15.6738 45.9473 -13.2812 L 36.7188 -2.19727 C 33.252 1.95312 29.0039 4.10156 24.707 4.10156 C 16.5527 4.10156 11.1328 -1.31836 11.1328 -9.52148 Z M 38.3301 -45.1172 C 38.3301 -44.4824 38.8672 -43.8965 39.5996 -43.8965 L 52.6367 -43.8965 L 52.6367 -30.2246 C 52.6367 -29.541 53.1738 -28.9551 53.8086 -28.9551 C 54.4922 -28.9551 55.0293 -29.541 55.0293 -30.2246 L 55.0293 -43.8965 L 68.0664 -43.8965 C 68.7988 -43.8965 69.3359 -44.4824 69.3359 -45.1172 C 69.3359 -45.752 68.7988 -46.2891 68.0664 -46.2891 L 55.0293 -46.2891 L 55.0293 -60.0098 C 55.0293 -60.6934 54.4922 -61.2305 53.8086 -61.2305 C 53.1738 -61.2305 52.6367 -60.6934 52.6367 -60.0098 L 52.6367 -46.2891 L 39.5996 -46.2891 C 38.8672 -46.2891 38.3301 -45.752 38.3301 -45.1172 Z M 106.592 -46.9238 C 109.814 -46.9238 112.354 -49.4141 112.354 -52.6367 C 112.354 -55.957 109.814 -58.3984 106.592 -58.3984 C 103.369 -58.3984 100.83 -55.957 100.83 -52.6367 C 100.83 -49.4141 103.369 -46.9238 106.592 -46.9238 Z M 90.7227 -31.9824 C 93.9453 -31.9824 96.5332 -34.4727 96.5332 -37.6953 C 96.5332 -40.9668 93.9453 -43.457 90.7227 -43.457 C 87.5 -43.457 84.9609 -40.9668 84.9609 -37.6953 C 84.9609 -34.4727 87.5 -31.9824 90.7227 -31.9824 Z"/>
  </g>
  <g id="Black-S" transform="matrix(1 0 0 1 2866.75 696)">
   <path d="M 6.83594 -13.8672 C 6.83594 -2.88086 14.209 3.07617 23.584 3.07617 C 31.2988 3.07617 36.5723 -0.0488281 40.918 -4.10156 L 47.1191 -9.81445 C 48.0469 -10.6445 48.3398 -10.9863 49.707 -10.9863 L 83.5938 -10.9863 C 84.9609 -10.9863 85.2539 -10.6445 86.1816 -9.81445 L 92.3828 -4.10156 C 96.7773 -0.0976562 102.002 3.07617 109.717 3.07617 C 119.092 3.07617 126.465 -2.88086 126.465 -13.8672 C 126.465 -18.75 125.635 -24.0234 123.975 -29.541 C 121.533 -37.6953 117.383 -48.5352 113.525 -56.6406 C 110.107 -63.7695 107.666 -68.457 97.9004 -70.6543 C 89.7461 -72.5098 79.1016 -73.5352 66.6504 -73.5352 C 54.1992 -73.5352 43.5547 -72.5098 35.4004 -70.6543 C 25.6348 -68.457 23.1934 -63.7695 19.7754 -56.6406 C 15.918 -48.5352 11.7676 -37.6953 9.32617 -29.541 C 7.66602 -24.0234 6.83594 -18.75 6.83594 -13.8672 Z M 19.9219 -15.2344 C 19.9219 -17.1875 20.3613 -19.4824 21.3867 -22.998 C 24.0723 -32.1777 28.418 -43.5547 32.2266 -51.709 C 33.9355 -55.4199 34.9121 -56.7383 37.5 -57.373 C 44.9707 -59.1797 54.7852 -60.0586 66.6504 -60.0586 C 78.5156 -60.0586 88.3301 -59.1797 95.8008 -57.373 C 98.3887 -56.7383 99.3652 -55.4199 101.074 -51.709 C 104.834 -43.5547 109.229 -32.1777 111.914 -22.998 C 112.939 -19.4824 113.379 -17.1875 113.379 -15.2344 C 113.379 -12.0117 111.133 -10.3027 108.301 -10.3027 C 106.299 -10.3027 104.053 -11.2305 102.051 -13.0371 L 92.2363 -21.9727 C 90.2344 -23.8281 88.7207 -24.4629 86.4258 -24.4629 L 46.875 -24.4629 C 44.5801 -24.4629 43.0664 -23.8281 41.0645 -21.9727 L 31.25 -13.0371 C 29.2969 -11.1816 27.002 -10.3027 25 -10.3027 C 22.168 -10.3027 19.9219 -12.0117 19.9219 -15.2344 Z M 34.2285 -41.6504 C 34.2285 -38.8184 36.1816 -36.9629 39.1113 -36.9629 L 43.5547 -36.9629 L 43.5547 -32.8613 C 43.5547 -29.834 45.5566 -27.7832 48.5352 -27.7832 C 51.5137 -27.7832 53.5156 -29.834 53.5156 -32.8613 L 53.5156 -36.9629 L 57.666 -36.9629 C 60.791 -36.9629 62.8418 -38.8184 62.8418 -41.6504 C 62.8418 -44.4824 60.791 -46.3379 57.666 -46.3379 L 53.5156 -46.3379 L 53.5156 -50.4395 C 53.5156 -53.4668 51.5137 -55.5176 48.5352 -55.5176 C 45.5566 -55.5176 43.5547 -53.4668 43.5547 -50.4395 L 43.5547 -46.3379 L 39.1113 -46.3379 C 36.1816 -46.3379 34.2285 -44.4824 34.2285 -41.6504 Z M 91.0645 -41.4062 C 94.6777 -41.4062 97.4609 -44.1406 97.4609 -47.7539 C 97.4609 -51.3672 94.6777 -54.1504 91.0645 -54.1504 C 87.5 -54.1504 84.668 -51.3672 84.668 -47.7539 C 84.668 -44.1406 87.5 -41.4062 91.0645 -41.4062 Z M 79.1504 -29.1504 C 82.7637 -29.1504 85.5469 -31.9336 85.5469 -35.498 C 85.5469 -39.1113 82.7637 -41.8945 79.1504 -41.8945 C 75.5859 -41.8945 72.7539 -39.1113 72.7539 -35.498 C 72.7539 -31.9336 75.5859 -29.1504 79.1504 -29.1504 Z"/>
  </g>
  <g id="Heavy-S" transform="matrix(1 0 0 1 2571.02 696)">
   <path d="M 6.83594 -14.209 C 6.83594 -3.66211 13.8672 2.29492 23.1934 2.29492 C 30.127 2.29492 35.2539 -0.537109 39.3555 -4.58984 L 45.7031 -10.8887 C 46.6309 -11.8164 47.1191 -12.207 48.4375 -12.207 L 82.9102 -12.207 C 84.2285 -12.207 84.7168 -11.8164 85.6445 -10.8887 L 91.9922 -4.58984 C 96.1426 -0.585938 101.172 2.29492 108.154 2.29492 C 117.432 2.29492 124.512 -3.66211 124.512 -14.209 C 124.512 -18.8477 123.633 -23.9258 122.021 -29.3457 C 119.629 -37.4023 115.479 -48.1934 111.621 -56.3477 C 108.203 -63.4277 105.957 -67.7734 96.5332 -69.9219 C 88.623 -71.7285 78.125 -72.7539 65.6738 -72.7539 C 53.2227 -72.7539 42.7246 -71.7285 34.8145 -69.9219 C 25.3906 -67.7734 23.0957 -63.4277 19.7266 -56.3477 C 15.8691 -48.1934 11.7188 -37.4023 9.27734 -29.3457 C 7.66602 -23.9258 6.83594 -18.8477 6.83594 -14.209 Z M 18.4082 -15.1855 C 18.4082 -17.2363 18.8965 -19.6777 19.9219 -23.2422 C 22.6074 -32.4219 27.002 -43.8477 30.7617 -52.002 C 32.5195 -55.8105 33.4961 -57.373 36.5723 -58.1055 C 43.8965 -59.8633 53.7109 -60.8398 65.6738 -60.8398 C 77.6367 -60.8398 87.4023 -59.8633 94.7266 -58.1055 C 97.8027 -57.373 98.7793 -55.8105 100.537 -52.002 C 104.346 -43.8477 108.691 -32.4219 111.426 -23.2422 C 112.451 -19.6777 112.939 -17.2363 112.939 -15.1855 C 112.939 -11.5234 110.352 -9.52148 107.08 -9.52148 C 104.883 -9.52148 102.539 -10.5469 100.488 -12.5488 L 91.3086 -21.4355 C 89.3555 -23.3887 87.8418 -24.1699 85.1562 -24.1699 L 46.1914 -24.1699 C 43.5059 -24.1699 41.9922 -23.3887 39.9902 -21.4355 L 30.8105 -12.5488 C 28.8086 -10.5469 26.416 -9.52148 24.2188 -9.52148 C 20.9961 -9.52148 18.4082 -11.5234 18.4082 -15.1855 Z M 33.5449 -41.9434 C 33.5449 -39.2578 35.3516 -37.5 38.1348 -37.5 L 42.9688 -37.5 L 42.9688 -32.959 C 42.9688 -30.127 44.8242 -28.2227 47.6074 -28.2227 C 50.3906 -28.2227 52.1973 -30.127 52.1973 -32.959 L 52.1973 -37.5 L 56.7383 -37.5 C 59.7168 -37.5 61.6211 -39.2578 61.6211 -41.9434 C 61.6211 -44.6289 59.7168 -46.3867 56.7383 -46.3867 L 52.1973 -46.3867 L 52.1973 -50.8789 C 52.1973 -53.7109 50.3906 -55.6152 47.6074 -55.6152 C 44.8242 -55.6152 42.9688 -53.7109 42.9688 -50.8789 L 42.9688 -46.3867 L 38.1348 -46.3867 C 35.3516 -46.3867 33.5449 -44.6289 33.5449 -41.9434 Z M 89.9414 -41.8457 C 93.457 -41.8457 96.1914 -44.4824 96.1914 -47.998 C 96.1914 -51.5625 93.457 -54.248 89.9414 -54.248 C 86.4746 -54.248 83.6914 -51.5625 83.6914 -47.998 C 83.6914 -44.4824 86.4746 -41.8457 89.9414 -41.8457 Z M 78.2227 -29.7852 C 81.7871 -29.7852 84.4727 -32.5195 84.4727 -35.9863 C 84.4727 -39.502 81.7871 -42.2363 78.2227 -42.2363 C 74.7559 -42.2363 72.0215 -39.502 72.0215 -35.9863 C 72.0215 -32.5195 74.7559 -29.7852 78.2227 -29.7852 Z"/>
  </g>
  <g id="Bold-S" transform="matrix(1 0 0 1 2275.43 696)">
   <path d="M 6.83594 -14.5996 C 6.83594 -4.49219 13.5254 1.46484 22.7051 1.46484 C 28.8574 1.46484 33.7402 -1.07422 37.5977 -5.12695 L 44.0918 -12.1094 C 45.0195 -13.0859 45.752 -13.5742 46.9727 -13.5742 L 82.1289 -13.5742 C 83.3496 -13.5742 84.082 -13.0859 85.0098 -12.1094 L 91.5527 -5.12695 C 95.4102 -1.12305 100.244 1.46484 106.396 1.46484 C 115.576 1.46484 122.266 -4.49219 122.266 -14.5996 C 122.266 -18.9941 121.436 -23.877 119.873 -29.1016 C 117.48 -37.0605 113.33 -47.8516 109.473 -55.957 C 106.104 -63.0371 104.004 -67.041 94.9707 -69.0918 C 87.3047 -70.8496 77.002 -71.9238 64.5508 -71.9238 C 52.0996 -71.9238 41.7969 -70.8496 34.1797 -69.0918 C 25.0977 -67.041 22.998 -63.0371 19.6289 -55.957 C 15.7715 -47.8516 11.6699 -37.0605 9.27734 -29.1016 C 7.71484 -23.877 6.83594 -18.9941 6.83594 -14.5996 Z M 16.6992 -15.1855 C 16.6992 -17.334 17.2363 -19.9219 18.2617 -23.5352 C 20.9473 -32.7148 25.3906 -44.1406 29.1504 -52.3926 C 30.957 -56.25 31.9336 -58.0566 35.5469 -58.9355 C 42.7246 -60.6445 52.4902 -61.6699 64.5508 -61.6699 C 76.6113 -61.6699 86.377 -60.6445 93.5547 -58.9355 C 97.2168 -58.0566 98.1445 -56.25 99.9512 -52.3926 C 103.76 -44.1406 108.105 -32.666 110.84 -23.5352 C 111.914 -19.9219 112.402 -17.334 112.402 -15.1855 C 112.402 -11.0352 109.473 -8.59375 105.762 -8.59375 C 103.32 -8.59375 100.879 -9.81445 98.7793 -12.0117 L 90.2832 -20.8496 C 88.3301 -22.9004 86.8164 -23.8281 83.7402 -23.8281 L 45.3613 -23.8281 C 42.2852 -23.8281 40.7715 -22.9004 38.8184 -20.8496 L 30.3223 -12.0117 C 28.2715 -9.81445 25.7812 -8.59375 23.3887 -8.59375 C 19.6289 -8.59375 16.6992 -11.0352 16.6992 -15.1855 Z M 32.7637 -42.2852 C 32.7637 -39.6973 34.4238 -38.0859 37.0117 -38.0859 L 42.334 -38.0859 L 42.334 -33.1055 C 42.334 -30.4688 43.9941 -28.7598 46.582 -28.7598 C 49.1211 -28.7598 50.7812 -30.4688 50.7812 -33.1055 L 50.7812 -38.0859 L 55.7129 -38.0859 C 58.4961 -38.0859 60.2539 -39.6973 60.2539 -42.2852 C 60.2539 -44.7754 58.4961 -46.3867 55.7129 -46.3867 L 50.7812 -46.3867 L 50.7812 -51.3672 C 50.7812 -54.0039 49.1211 -55.7129 46.582 -55.7129 C 43.9941 -55.7129 42.334 -54.0039 42.334 -51.3672 L 42.334 -46.3867 L 37.0117 -46.3867 C 34.4238 -46.3867 32.7637 -44.7754 32.7637 -42.2852 Z M 88.6719 -42.2852 C 92.1387 -42.2852 94.7266 -44.873 94.7266 -48.3398 C 94.7266 -51.7578 92.1387 -54.3945 88.6719 -54.3945 C 85.3027 -54.3945 82.666 -51.7578 82.666 -48.3398 C 82.666 -44.873 85.3027 -42.2852 88.6719 -42.2852 Z M 77.2461 -30.5176 C 80.6641 -30.5176 83.252 -33.1543 83.252 -36.5723 C 83.252 -39.9902 80.6641 -42.627 77.2461 -42.627 C 73.877 -42.627 71.1914 -39.9902 71.1914 -36.5723 C 71.1914 -33.1543 73.877 -30.5176 77.2461 -30.5176 Z"/>
  </g>
  <g id="Semibold-S" transform="matrix(1 0 0 1 1979.47 696)">
   <path d="M 6.83594 -14.8438 C 6.83594 -5.07812 13.2812 0.878906 22.4121 0.878906 C 27.9785 0.878906 32.7148 -1.46484 36.377 -5.51758 L 42.9688 -12.9883 C 43.8965 -14.0137 44.8242 -14.502 45.9961 -14.502 L 81.5918 -14.502 C 82.7637 -14.502 83.6914 -14.0137 84.6191 -12.9883 L 91.2598 -5.51758 C 94.873 -1.46484 99.6094 0.878906 105.225 0.878906 C 114.307 0.878906 120.752 -5.07812 120.752 -14.8438 C 120.752 -19.043 119.873 -23.7793 118.359 -28.9062 C 115.967 -36.8164 111.865 -47.5586 108.008 -55.7129 C 104.639 -62.793 102.686 -66.5527 93.8965 -68.5059 C 86.4258 -70.2148 76.2695 -71.3379 63.8184 -71.3379 C 51.3184 -71.3379 41.1621 -70.2148 33.6914 -68.5059 C 24.9023 -66.5527 22.9492 -62.793 19.5801 -55.7129 C 15.7227 -47.5586 11.6211 -36.8164 9.22852 -28.9062 C 7.71484 -23.7793 6.83594 -19.043 6.83594 -14.8438 Z M 15.5273 -15.1367 C 15.5273 -17.3828 16.0645 -20.0684 17.1387 -23.7305 C 19.8242 -32.8613 24.2676 -44.3848 28.0762 -52.6367 C 29.8828 -56.543 30.8105 -58.5449 34.8633 -59.5215 C 41.8945 -61.1816 51.6602 -62.2559 63.8184 -62.2559 C 75.9277 -62.2559 85.6934 -61.1816 92.7734 -59.5215 C 96.7773 -58.5449 97.7051 -56.543 99.5605 -52.6367 C 103.369 -44.3848 107.715 -32.8613 110.449 -23.7305 C 111.523 -20.0684 112.061 -17.3828 112.061 -15.1367 C 112.061 -10.6445 108.887 -7.95898 104.834 -7.95898 C 102.246 -7.95898 99.707 -9.32617 97.6074 -11.6211 L 89.5996 -20.4102 C 87.6465 -22.6074 86.1328 -23.584 82.7637 -23.584 L 44.8242 -23.584 C 41.5039 -23.584 39.9414 -22.6074 37.9883 -20.4102 L 29.9805 -11.6211 C 27.9297 -9.27734 25.3418 -7.95898 22.8027 -7.95898 C 18.7012 -7.95898 15.5273 -10.6445 15.5273 -15.1367 Z M 32.2266 -42.4805 C 32.2266 -40.0391 33.7891 -38.4766 36.2793 -38.4766 L 41.8945 -38.4766 L 41.8945 -33.2031 C 41.8945 -30.6641 43.4082 -29.1016 45.8496 -29.1016 C 48.2422 -29.1016 49.7559 -30.6641 49.7559 -33.2031 L 49.7559 -38.4766 L 54.9805 -38.4766 C 57.666 -38.4766 59.2773 -40.0391 59.2773 -42.4805 C 59.2773 -44.873 57.666 -46.3867 54.9805 -46.3867 L 49.7559 -46.3867 L 49.7559 -51.709 C 49.7559 -54.1992 48.2422 -55.7617 45.8496 -55.7617 C 43.4082 -55.7617 41.8945 -54.1992 41.8945 -51.709 L 41.8945 -46.3867 L 36.2793 -46.3867 C 33.7891 -46.3867 32.2266 -44.873 32.2266 -42.4805 Z M 87.8418 -42.627 C 91.1621 -42.627 93.75 -45.166 93.75 -48.5352 C 93.75 -51.8555 91.1621 -54.4922 87.8418 -54.4922 C 84.5215 -54.4922 81.9336 -51.8555 81.9336 -48.5352 C 81.9336 -45.166 84.5215 -42.627 87.8418 -42.627 Z M 76.5137 -31.0547 C 79.8828 -31.0547 82.4707 -33.5938 82.4707 -36.9629 C 82.4707 -40.2832 79.8828 -42.9199 76.5137 -42.9199 C 73.2422 -42.9199 70.6055 -40.2832 70.6055 -36.9629 C 70.6055 -33.5938 73.2422 -31.0547 76.5137 -31.0547 Z"/>
  </g>
  <g id="Medium-S" transform="matrix(1 0 0 1 1683.35 696)">
   <path d="M 6.83594 -15.0879 C 6.83594 -5.51758 13.0859 0.439453 22.168 0.439453 C 27.2949 0.439453 31.9336 -1.75781 35.4492 -5.76172 L 42.1387 -13.623 C 43.0664 -14.6973 44.0918 -15.2344 45.2148 -15.2344 L 81.2012 -15.2344 C 82.3242 -15.2344 83.3496 -14.6973 84.2773 -13.623 L 91.0156 -5.76172 C 94.4824 -1.75781 99.1211 0.439453 104.297 0.439453 C 113.379 0.439453 119.58 -5.51758 119.58 -15.0879 C 119.58 -19.1406 118.75 -23.7305 117.236 -28.8086 C 114.844 -36.6699 110.742 -47.3633 106.885 -55.5664 C 103.516 -62.5977 101.66 -66.1621 93.0664 -68.1152 C 85.791 -69.7754 75.6836 -70.8984 63.2324 -70.8984 C 50.7324 -70.8984 40.6738 -69.7754 33.3496 -68.1152 C 24.7559 -66.1621 22.9004 -62.5977 19.5312 -55.5664 C 15.6738 -47.3633 11.5723 -36.6699 9.22852 -28.8086 C 7.71484 -23.7305 6.83594 -19.1406 6.83594 -15.0879 Z M 14.6484 -15.1367 C 14.6484 -17.4316 15.2344 -20.2148 16.2598 -23.877 C 18.9453 -33.0078 23.4375 -44.5312 27.1973 -52.7832 C 29.0527 -56.7871 30.0293 -58.9355 34.3262 -59.9121 C 41.2598 -61.5723 51.0254 -62.6953 63.2324 -62.6953 C 75.3906 -62.6953 85.1562 -61.5723 92.1387 -59.9121 C 96.4355 -58.9355 97.3633 -56.7871 99.2188 -52.7832 C 103.076 -44.5312 107.373 -33.0078 110.156 -23.877 C 111.279 -20.2148 111.768 -17.4316 111.768 -15.1367 C 111.768 -10.4004 108.398 -7.51953 104.102 -7.51953 C 101.465 -7.51953 98.8281 -8.93555 96.6797 -11.377 L 89.0625 -20.1172 C 87.1582 -22.3145 85.5957 -23.4375 82.0312 -23.4375 L 44.4336 -23.4375 C 40.8691 -23.4375 39.3066 -22.3145 37.4023 -20.1172 L 29.7363 -11.377 C 27.6367 -8.93555 25 -7.51953 22.3145 -7.51953 C 18.0176 -7.51953 14.6484 -10.4004 14.6484 -15.1367 Z M 31.8359 -42.6758 C 31.8359 -40.2832 33.3008 -38.8184 35.6934 -38.8184 L 41.5527 -38.8184 L 41.5527 -33.252 C 41.5527 -30.8594 42.9688 -29.3945 45.3125 -29.3945 C 47.6074 -29.3945 49.0234 -30.8594 49.0234 -33.252 L 49.0234 -38.8184 L 54.4434 -38.8184 C 57.0312 -38.8184 58.5449 -40.2832 58.5449 -42.6758 C 58.5449 -44.9707 57.0312 -46.4355 54.4434 -46.4355 L 49.0234 -46.4355 L 49.0234 -51.9531 C 49.0234 -54.3457 47.6074 -55.8105 45.3125 -55.8105 C 42.9688 -55.8105 41.5527 -54.3457 41.5527 -51.9531 L 41.5527 -46.4355 L 35.6934 -46.4355 C 33.3008 -46.4355 31.8359 -44.9707 31.8359 -42.6758 Z M 87.1582 -42.8711 C 90.4785 -42.8711 93.0176 -45.3613 93.0176 -48.6816 C 93.0176 -52.002 90.4785 -54.541 87.1582 -54.541 C 83.9355 -54.541 81.3477 -52.002 81.3477 -48.6816 C 81.3477 -45.3613 83.9355 -42.8711 87.1582 -42.8711 Z M 75.9766 -31.4453 C 79.2969 -31.4453 81.8359 -33.9355 81.8359 -37.2559 C 81.8359 -40.5273 79.2969 -43.1152 75.9766 -43.1152 C 72.7539 -43.1152 70.166 -40.5273 70.166 -37.2559 C 70.166 -33.9355 72.7539 -31.4453 75.9766 -31.4453 Z"/>
  </g>
  <g id="Regular-S" transform="matrix(1 0 0 1 1387.37 696)">
   <path d="M 6.83594 -15.332 C 6.83594 -6.10352 12.8418 -0.146484 21.8262 -0.146484 C 26.416 -0.146484 30.9082 -2.09961 34.2285 -6.15234 L 41.0645 -14.4531 C 41.9922 -15.5762 43.1641 -16.1621 44.2383 -16.1621 L 80.6641 -16.1621 C 81.7871 -16.1621 82.959 -15.5762 83.8867 -14.4531 L 90.7227 -6.15234 C 93.9941 -2.09961 98.4863 -0.146484 103.076 -0.146484 C 112.109 -0.146484 118.115 -6.10352 118.115 -15.332 C 118.115 -19.1895 117.236 -23.6816 115.771 -28.6133 C 113.428 -36.4258 109.326 -47.1191 105.42 -55.3223 C 102.1 -62.3535 100.342 -65.6738 92.041 -67.5293 C 84.9121 -69.1406 74.9512 -70.3125 62.4512 -70.3125 C 50 -70.3125 40.0391 -69.1406 32.9102 -67.5293 C 24.6094 -65.6738 22.8516 -62.3535 19.4824 -55.3223 C 15.625 -47.1191 11.5234 -36.4258 9.17969 -28.6133 C 7.71484 -23.6816 6.83594 -19.1895 6.83594 -15.332 Z M 13.5254 -15.0879 C 13.5254 -17.4805 14.0625 -20.3613 15.1367 -24.0723 C 17.8223 -33.2031 22.3145 -44.7266 26.123 -53.0273 C 27.9785 -57.0801 28.9062 -59.4238 33.5938 -60.498 C 40.4785 -62.1094 50.1953 -63.2812 62.4512 -63.2812 C 74.707 -63.2812 84.4727 -62.1094 91.3086 -60.498 C 95.9961 -59.4238 96.9238 -57.0801 98.8281 -53.0273 C 102.686 -44.7266 106.982 -33.1543 109.766 -24.0723 C 110.889 -20.3613 111.426 -17.4805 111.426 -15.0879 C 111.426 -10.0098 107.812 -6.88477 103.174 -6.88477 C 100.391 -6.88477 97.6562 -8.39844 95.5078 -10.9863 L 88.3301 -19.6777 C 86.4746 -22.0215 84.9121 -23.1934 81.0547 -23.1934 L 43.8965 -23.1934 C 40.0391 -23.1934 38.4766 -22.0215 36.5723 -19.6777 L 29.3945 -10.9863 C 27.2949 -8.39844 24.5605 -6.88477 21.7285 -6.88477 C 17.0898 -6.88477 13.5254 -10.0098 13.5254 -15.0879 Z M 31.3477 -42.8711 C 31.3477 -40.5762 32.666 -39.209 34.9609 -39.209 L 41.1133 -39.209 L 41.1133 -33.3496 C 41.1133 -31.1035 42.3828 -29.7363 44.5801 -29.7363 C 46.7285 -29.7363 47.998 -31.1035 47.998 -33.3496 L 47.998 -39.209 L 53.7598 -39.209 C 56.2012 -39.209 57.6172 -40.5762 57.6172 -42.8711 C 57.6172 -45.0684 56.2012 -46.4355 53.7598 -46.4355 L 47.998 -46.4355 L 47.998 -52.2949 C 47.998 -54.541 46.7285 -55.9082 44.5801 -55.9082 C 42.3828 -55.9082 41.1133 -54.541 41.1133 -52.2949 L 41.1133 -46.4355 L 34.9609 -46.4355 C 32.666 -46.4355 31.3477 -45.0684 31.3477 -42.8711 Z M 86.3281 -43.1641 C 89.5508 -43.1641 92.041 -45.6543 92.041 -48.877 C 92.041 -52.0996 89.5508 -54.6387 86.3281 -54.6387 C 83.1543 -54.6387 80.6152 -52.0996 80.6152 -48.877 C 80.6152 -45.6543 83.1543 -43.1641 86.3281 -43.1641 Z M 75.293 -31.9336 C 78.5156 -31.9336 81.0059 -34.375 81.0059 -37.5977 C 81.0059 -40.8691 78.5156 -43.3594 75.293 -43.3594 C 72.1191 -43.3594 69.6289 -40.8691 69.6289 -37.5977 C 69.6289 -34.375 72.1191 -31.9336 75.293 -31.9336 Z"/>
  </g>
  <g id="Light-S" transform="matrix(1 0 0 1 1091.41 696)">
   <path d="M 6.83594 -15.332 C 6.83594 -6.5918 12.5488 -0.878906 21.0449 -0.878906 C 25.3906 -0.878906 29.6875 -2.7832 32.8613 -6.64062 L 39.8438 -15.1855 C 40.8691 -16.4062 41.9922 -16.9434 43.2129 -16.9434 L 80.2246 -16.9434 C 81.4453 -16.9434 82.5684 -16.4062 83.5938 -15.1855 L 90.5762 -6.64062 C 93.75 -2.7832 98.0469 -0.878906 102.393 -0.878906 C 110.889 -0.878906 116.602 -6.5918 116.602 -15.332 C 116.602 -19.043 115.723 -23.3887 114.209 -28.3691 C 111.865 -36.2305 107.812 -46.875 103.857 -55.1758 C 100.635 -61.9629 98.9746 -64.9414 91.0645 -66.748 C 83.7891 -68.4082 73.7793 -69.5312 61.7188 -69.5312 C 49.6582 -69.5312 39.6484 -68.4082 32.373 -66.748 C 24.4629 -64.9414 22.8027 -61.9629 19.5801 -55.1758 C 15.625 -46.875 11.5723 -36.2305 9.22852 -28.3691 C 7.71484 -23.3887 6.83594 -19.043 6.83594 -15.332 Z M 12.0117 -15.0879 C 12.0117 -17.5293 12.5488 -20.459 13.8672 -25.0488 C 16.3574 -33.4961 20.752 -44.8242 24.6582 -53.3691 C 26.5137 -57.5195 27.6855 -60.1562 32.8613 -61.3281 C 39.8438 -62.9883 49.7559 -64.0625 61.7188 -64.0625 C 73.6816 -64.0625 83.5938 -62.9883 90.5762 -61.3281 C 95.752 -60.1074 96.875 -57.5195 98.7793 -53.3691 C 102.783 -44.8242 106.982 -33.4961 109.57 -25.0488 C 110.938 -20.459 111.426 -17.5293 111.426 -15.0879 C 111.426 -9.61914 107.617 -6.10352 102.441 -6.10352 C 99.4629 -6.10352 96.5332 -7.71484 94.2383 -10.498 L 87.0605 -19.1895 C 85.2539 -21.3379 83.6914 -22.4121 80.4199 -22.4121 L 43.0176 -22.4121 C 39.7461 -22.4121 38.1836 -21.3379 36.377 -19.1895 L 29.1992 -10.498 C 26.9043 -7.71484 23.9746 -6.10352 20.9961 -6.10352 C 15.8203 -6.10352 12.0117 -9.61914 12.0117 -15.0879 Z M 30.9082 -42.9199 C 30.9082 -41.1621 31.9336 -40.0879 33.6914 -40.0879 L 41.1621 -40.0879 L 41.1621 -32.7148 C 41.1621 -31.0059 42.1387 -29.9316 43.8477 -29.9316 C 45.459 -29.9316 46.4844 -31.0059 46.4844 -32.7148 L 46.4844 -40.0879 L 53.6133 -40.0879 C 55.4688 -40.0879 56.5918 -41.1621 56.5918 -42.9199 C 56.5918 -44.5801 55.4688 -45.6543 53.6133 -45.6543 L 46.4844 -45.6543 L 46.4844 -53.0273 C 46.4844 -54.7363 45.459 -55.8105 43.8477 -55.8105 C 42.1387 -55.8105 41.1621 -54.7363 41.1621 -53.0273 L 41.1621 -45.6543 L 33.6914 -45.6543 C 31.9336 -45.6543 30.9082 -44.5801 30.9082 -42.9199 Z M 85.4492 -43.5547 C 88.4766 -43.5547 90.7715 -45.8496 90.7715 -48.877 C 90.7715 -51.9043 88.4766 -54.248 85.4492 -54.248 C 82.4707 -54.248 80.127 -51.9043 80.127 -48.877 C 80.127 -45.8496 82.4707 -43.5547 85.4492 -43.5547 Z M 73.9746 -32.1777 C 77.002 -32.1777 79.2969 -34.4727 79.2969 -37.4512 C 79.2969 -40.5273 77.002 -42.8223 73.9746 -42.8223 C 70.9961 -42.8223 68.6523 -40.5273 68.6523 -37.4512 C 68.6523 -34.4727 70.9961 -32.1777 73.9746 -32.1777 Z"/>
  </g>
  <g id="Thin-S" transform="matrix(1 0 0 1 795.68 696)">
   <path d="M 6.83594 -15.332 C 6.83594 -7.22656 12.1094 -1.85547 20.0195 -1.85547 C 24.0234 -1.85547 28.0273 -3.66211 31.0547 -7.32422 L 38.2812 -16.1133 C 39.4043 -17.4805 40.5273 -18.0176 41.8457 -18.0176 L 79.6387 -18.0176 C 80.957 -18.0176 82.0801 -17.4805 83.1543 -16.1133 L 90.4297 -7.32422 C 93.457 -3.66211 97.4609 -1.85547 101.416 -1.85547 C 109.326 -1.85547 114.648 -7.22656 114.648 -15.332 C 114.648 -18.8965 113.721 -23.0469 112.207 -28.0762 C 109.863 -35.9375 105.811 -46.5332 101.758 -55.0293 C 98.6816 -61.4746 97.168 -64.0625 89.7949 -65.7227 C 82.2754 -67.4805 72.2168 -68.457 60.7422 -68.457 C 49.2676 -68.457 39.1602 -67.4805 31.6406 -65.7227 C 24.2676 -64.0625 22.8027 -61.4746 19.6777 -55.0293 C 15.6738 -46.5332 11.5723 -35.9375 9.22852 -28.0762 C 7.76367 -23.0469 6.83594 -18.8965 6.83594 -15.332 Z M 10.0586 -15.0879 C 10.0586 -17.5293 10.498 -20.5566 12.207 -26.3184 C 14.4043 -33.9355 18.6523 -44.9219 22.7051 -53.8086 C 24.6582 -58.0078 26.0254 -61.084 31.8359 -62.4512 C 39.0625 -64.1113 49.2188 -65.1367 60.7422 -65.1367 C 72.2656 -65.1367 82.4219 -64.1113 89.6484 -62.4512 C 95.459 -61.084 96.8262 -58.0078 98.7793 -53.8086 C 102.881 -44.9219 107.031 -33.8867 109.277 -26.3184 C 110.938 -20.5566 111.426 -17.5293 111.426 -15.0879 C 111.426 -9.0332 107.373 -5.07812 101.465 -5.07812 C 98.2422 -5.07812 95.0684 -6.73828 92.5293 -9.81445 L 85.3027 -18.5059 C 83.6914 -20.459 82.1289 -21.3379 79.6387 -21.3379 L 41.8457 -21.3379 C 39.3066 -21.3379 37.793 -20.459 36.1328 -18.5059 L 28.9551 -9.81445 C 26.416 -6.73828 23.2422 -5.07812 20.0195 -5.07812 C 14.1113 -5.07812 10.0586 -9.0332 10.0586 -15.0879 Z M 30.3711 -42.9199 C 30.3711 -41.9434 31.0547 -41.2598 32.0801 -41.2598 L 41.1621 -41.2598 L 41.1621 -31.8848 C 41.1621 -30.8594 41.8457 -30.1758 42.8223 -30.1758 C 43.7988 -30.1758 44.4336 -30.8594 44.4336 -31.8848 L 44.4336 -41.2598 L 53.418 -41.2598 C 54.541 -41.2598 55.2246 -41.9434 55.2246 -42.9199 C 55.2246 -43.9453 54.541 -44.6289 53.418 -44.6289 L 44.4336 -44.6289 L 44.4336 -53.9551 C 44.4336 -54.9805 43.7988 -55.7129 42.8223 -55.7129 C 41.8457 -55.7129 41.1621 -54.9805 41.1621 -53.9551 L 41.1621 -44.6289 L 32.0801 -44.6289 C 31.0547 -44.6289 30.3711 -43.9453 30.3711 -42.9199 Z M 84.2773 -44.043 C 87.0117 -44.043 89.1113 -46.1426 89.1113 -48.877 C 89.1113 -51.6602 87.0117 -53.7598 84.2773 -53.7598 C 81.5918 -53.7598 79.4434 -51.6602 79.4434 -48.877 C 79.4434 -46.1426 81.5918 -44.043 84.2773 -44.043 Z M 72.2656 -32.4707 C 74.9512 -32.4707 77.0996 -34.5703 77.0996 -37.3047 C 77.0996 -40.0391 74.9512 -42.1387 72.2656 -42.1387 C 69.5312 -42.1387 67.3828 -40.0391 67.3828 -37.3047 C 67.3828 -34.5703 69.5312 -32.4707 72.2656 -32.4707 Z"/>
  </g>
  <g id="Ultralight-S" transform="matrix(1 0 0 1 499.482 696)">
   <path d="M 6.83594 -15.332 C 6.83594 -7.51953 11.9141 -2.39258 19.4824 -2.39258 C 23.291 -2.39258 27.1484 -4.10156 30.0781 -7.66602 L 37.5 -16.6504 C 38.6719 -18.0176 39.7461 -18.5547 41.1133 -18.5547 L 79.2969 -18.5547 C 80.7129 -18.5547 81.7871 -18.0176 82.959 -16.6504 L 90.332 -7.66602 C 93.3105 -4.10156 97.1191 -2.39258 100.928 -2.39258 C 108.545 -2.39258 113.623 -7.51953 113.623 -15.332 C 113.623 -18.75 112.695 -22.8516 111.182 -27.9297 C 108.838 -35.791 104.785 -46.3379 100.684 -54.9316 C 97.7051 -61.2305 96.2402 -63.5742 89.1602 -65.1855 C 81.543 -66.9434 71.4355 -67.9199 60.2051 -67.9199 C 49.0234 -67.9199 38.916 -66.9434 31.2988 -65.1855 C 24.1699 -63.5742 22.7539 -61.2305 19.7754 -54.9316 C 15.6738 -46.3379 11.6211 -35.791 9.27734 -27.9297 C 7.76367 -22.8516 6.83594 -18.75 6.83594 -15.332 Z M 9.0332 -15.0879 C 9.0332 -17.5781 9.47266 -20.6543 11.3281 -27.002 C 13.4277 -34.1309 17.5781 -44.9707 21.7285 -54.0527 C 23.6816 -58.3008 25.1465 -61.6211 31.2988 -62.9883 C 38.623 -64.6973 48.877 -65.6738 60.2051 -65.6738 C 71.5332 -65.6738 81.8359 -64.6973 89.1113 -62.9883 C 95.3125 -61.5723 96.7773 -58.3008 98.7305 -54.0527 C 102.93 -44.9707 107.031 -34.1309 109.131 -27.002 C 110.986 -20.6543 111.426 -17.5781 111.426 -15.0879 C 111.426 -8.74023 107.227 -4.54102 100.928 -4.54102 C 97.6074 -4.54102 94.3359 -6.25 91.6504 -9.47266 L 84.4238 -18.1641 C 82.8613 -20.0195 81.3477 -20.8008 79.1992 -20.8008 L 41.2598 -20.8008 C 39.1113 -20.8008 37.5977 -20.0195 36.0352 -18.1641 L 28.8086 -9.47266 C 26.123 -6.25 22.8516 -4.54102 19.4824 -4.54102 C 13.2324 -4.54102 9.0332 -8.74023 9.0332 -15.0879 Z M 30.0781 -42.9688 C 30.0781 -42.334 30.5664 -41.8457 31.25 -41.8457 L 41.2109 -41.8457 L 41.2109 -31.4453 C 41.2109 -30.7617 41.6992 -30.2734 42.2852 -30.2734 C 42.9199 -30.2734 43.4082 -30.7617 43.4082 -31.4453 L 43.4082 -41.8457 L 53.3203 -41.8457 C 54.0039 -41.8457 54.4922 -42.334 54.4922 -42.9688 C 54.4922 -43.6035 54.0039 -44.0918 53.3203 -44.0918 L 43.4082 -44.0918 L 43.4082 -54.4922 C 43.4082 -55.127 42.9199 -55.6152 42.2852 -55.6152 C 41.6992 -55.6152 41.2109 -55.127 41.2109 -54.4922 L 41.2109 -44.0918 L 31.25 -44.0918 C 30.5664 -44.0918 30.0781 -43.6035 30.0781 -42.9688 Z M 83.6914 -44.3359 C 86.2793 -44.3359 88.2812 -46.2891 88.2812 -48.877 C 88.2812 -51.5137 86.2793 -53.4668 83.6914 -53.4668 C 81.1035 -53.4668 79.1016 -51.5137 79.1016 -48.877 C 79.1016 -46.2891 81.1035 -44.3359 83.6914 -44.3359 Z M 71.3379 -32.6172 C 73.9258 -32.6172 75.9277 -34.6191 75.9277 -37.1582 C 75.9277 -39.7949 73.9258 -41.7969 71.3379 -41.7969 C 68.7988 -41.7969 66.748 -39.7949 66.748 -37.1582 C 66.748 -34.6191 68.7988 -32.6172 71.3379 -32.6172 Z"/>
  </g>
 </g>
</svg>
